<svg width="301" height="76" viewBox="0 0 301 76" fill="none" xmlns="http://www.w3.org/2000/svg">
<path d="M287.609 74.4996L13.5227 74.4292V72.5729V71.0729H12.0227H7.56473L7.41122 68.9939L7.32958 67.8884L6.24877 67.6419C5.48925 67.4687 5.05554 67.3671 4.75687 67.2589C4.68984 67.2347 4.64312 67.2146 4.61181 67.1997C4.5965 67.1412 4.57346 67.0295 4.55451 66.8366C4.51348 66.419 4.50712 65.8457 4.49951 64.9475C4.49943 64.2285 4.48645 63.5677 4.40321 63.0057C4.31748 62.4268 4.13832 61.805 3.69612 61.2654C3.25156 60.7229 2.67689 60.4288 2.12826 60.2375C1.93235 60.1692 1.72193 60.1081 1.5 60.0518V15.7485C1.76564 15.7026 2.01894 15.6487 2.25035 15.5808C2.80208 15.4188 3.40737 15.1286 3.84856 14.515C4.25371 13.9516 4.38241 13.2991 4.44217 12.7393C4.50314 12.1681 4.51066 11.4617 4.51427 10.6555H4.51429V10.6488V10.6423V10.6359V10.6294V10.6229V10.6165V10.61V10.6035V10.5971V10.5906V10.5842V10.5777V10.5712V10.5648V10.5583V10.5518V10.5454V10.5389V10.5325V10.526V10.5195V10.5131V10.5066V10.5001V10.4937V10.4872V10.4808V10.4743V10.4678V10.4614V10.4549V10.4484V10.442V10.4355V10.429V10.4226V10.4161V10.4096V10.4032V10.3967V10.3903V10.3838V10.3773V10.3709V10.3644V10.3579V10.3515V10.345V10.3385V10.3321V10.3256V10.3191V10.3126V10.3062V10.2997V10.2932V10.2868V10.2803V10.2738V10.2674V10.2609V10.2544V10.248V10.2415V10.235V10.2285V10.2221V10.2156V10.2091V10.2026V10.1962V10.1897V10.1832V10.1768V10.1703V10.1638V10.1573V10.1509V10.1444V10.1379V10.1314V10.1249V10.1185V10.112V10.1055V10.099V10.0926V10.0861V10.0796V10.0731V10.0666V10.0601V10.0537V10.0472V10.0407V10.0342V10.0277V10.0213V10.0148V10.0083V10.0018V9.99531V9.98882V9.98234V9.97585V9.96936V9.96287V9.95638V9.94989V9.9434V9.93691V9.93042V9.92393V9.91744V9.91095V9.90445V9.89796V9.89147V9.88497V9.87848V9.87198V9.86548V9.85899V9.85249V9.84599V9.83949V9.83299V9.82649V9.81999V9.81349V9.80699V9.80049V9.79398V9.78748V9.78097V9.77447V9.76796V9.76146V9.75495V9.74844V9.74193V9.73542V9.72892V9.72241V9.71589V9.70938V9.70287V9.69636V9.68984V9.68333V9.67681V9.6703V9.66378V9.65726V9.65075V9.64423V9.63771V9.63119V9.62467V9.61814V9.61162V9.6051V9.59857V9.59205V9.58552V9.579V9.57247V9.56594V9.55941V9.55288V9.54635V9.53982V9.53329V9.52676V9.52022V9.51369V9.50715V9.50062V9.49408V9.48754V9.481V9.47446V9.46792V9.46138V9.45484V9.4483V9.44175V9.43521V9.42866V9.42212V9.41557V9.40902V9.40247V9.39592V9.38937V9.38282V9.37626V9.36971V9.36316V9.3566V9.35004V9.34348V9.33693V9.33037V9.32381V9.31724V9.31068V9.30412V9.29755V9.29099V9.28442V9.27785V9.27129V9.26472V9.25815V9.25157V9.245V9.23843V9.23185V9.22528V9.2187V9.21212V9.20554V9.19896V9.19238V9.1858V9.17922V9.17263V9.16605V9.15946V9.15287V9.14629V9.1397V9.1331V9.12651V9.11992V9.11333V9.10673V9.10013V9.09354V9.08694V9.08034V9.07374V9.06713V9.06053V9.05393V9.04732V9.04071V9.03411V9.0275V9.02089V9.01427V9.00766V9.00105V8.99443V8.98782V8.9812V8.97458V8.96796V8.96134V8.95472V8.94809V8.94147V8.93484V8.92821V8.92159V8.91496V8.90832V8.90169V8.89506V8.88842V8.88179V8.87515V8.86851V8.86187V8.85523V8.84858V8.84194V8.83529V8.82865V8.822V8.81535V8.8087V8.80205V8.79539V8.78874V8.78208V8.77542V8.76877V8.7621V8.75544V8.74878V8.74212V8.73545V8.72878V8.72211V8.71544V8.70877V8.7021V8.69542V8.68875V8.68207V8.67539V8.66871V8.66203V8.65535V8.64884L6.0566 8.5591L7.4148 8.48007L7.46831 7.12062L7.5495 5.0575H11.9291H13.3503L13.4269 3.63837L13.5424 1.5H287.569L287.738 3.67345L287.845 5.0575H289.233H293.594C293.624 5.75357 293.654 6.43093 293.69 7.18575L293.757 8.615H295.188H296.604V10.6251C296.604 11.4584 296.605 12.1878 296.663 12.7709C296.719 13.3444 296.847 14.0209 297.28 14.6012C297.742 15.2212 298.375 15.5016 298.93 15.6612C299.107 15.712 299.298 15.7564 299.5 15.7967V60.1326C299.279 60.1856 299.069 60.2436 298.876 60.3097C298.302 60.506 297.693 60.8305 297.259 61.4739C296.86 62.0648 296.735 62.7451 296.677 63.3532C296.619 63.9726 296.615 64.7475 296.614 65.6516V65.6536V65.6594V65.6652V65.6709V65.6767V65.6824V65.6882V65.694V65.6998V65.7055V65.7113V65.7171V65.7228V65.7286V65.7344V65.7401V65.7459V65.7517V65.7574V65.7632V65.769V65.7747V65.7805V65.7863V65.792V65.7978V65.8036V65.8093V65.8151V65.8209V65.8267V65.8324V65.8382V65.844V65.8497V65.8555V65.8613V65.8671V65.8728V65.8786V65.8844V65.8902V65.8959V65.9017V65.9075V65.9133V65.919V65.9248V65.9306V65.9364V65.9421V65.9479V65.9537V65.9595V65.9652V65.971V65.9768V65.9826V65.9884V65.9941V65.9999V66.0057V66.0115V66.0173V66.023V66.0288V66.0346V66.0404V66.0462V66.052V66.0577V66.0635V66.0693V66.0751V66.0809V66.0867V66.0925V66.0983V66.1041V66.1098V66.1156V66.1214V66.1272V66.133V66.1388V66.1446V66.1504V66.1562V66.162V66.1678V66.1736V66.1794V66.1852V66.191V66.1968V66.2026V66.2084V66.2142V66.22V66.2258V66.2316V66.2374V66.2432V66.249V66.2548V66.2606V66.2664V66.2723V66.2781V66.2839V66.2897V66.2955V66.3013V66.3071V66.313V66.3188V66.3246V66.3304V66.3362V66.3421V66.3479V66.3537V66.3595V66.3653V66.3712V66.377V66.3828V66.3887V66.3945V66.4003V66.4061V66.412V66.4178V66.4236V66.4295V66.4353V66.4412V66.447V66.4528V66.4587V66.4645V66.4704V66.4762V66.482V66.4879V66.4937V66.4996V66.5054V66.5113V66.5171V66.523V66.5288V66.5347V66.5406V66.5464V66.5523V66.5581V66.564V66.5699V66.5757V66.5816V66.5875V66.5933V66.5992V66.6051V66.6109V66.6168V66.6227V66.6286V66.6344V66.6403V66.6462V66.6521V66.6579V66.6638V66.6697V66.6756V66.6815V66.6874V66.6933V66.6992V66.705V66.7109V66.7168V66.7227V66.7286V66.7345V66.7404V66.7463V66.7522V66.7581V66.764V66.77V66.7759V66.7818V66.7877V66.7936V66.7995V66.8054V66.8114V66.8173V66.8232V66.8291V66.835V66.841V66.8469V66.8528V66.8588V66.8647V66.8706V66.8766V66.8825V66.8884V66.8944V66.9003V66.9063V66.9122V66.9182V66.9241V66.9301V66.936V66.942V66.9479V66.9539V66.9598V66.9658V66.9718V66.9777V66.9837V66.9897V66.9956V67.0016V67.0076V67.0135V67.0195V67.0255V67.0315V67.0375V67.0434V67.0494V67.0554V67.0614V67.0674V67.0734V67.0794V67.0854V67.0914V67.0974V67.1034V67.1094V67.1154V67.1214V67.1274V67.1334V67.1394V67.1455V67.1515V67.1575V67.1635V67.1695V67.1756V67.1816V67.1876V67.1936V67.1997V67.2057V67.2118V67.2178V67.2238V67.2299V67.2359V67.242V67.248V67.2541V67.2601V67.2662V67.2723V67.2783V67.2844V67.2904V67.2965V67.3026V67.3086V67.3147V67.3208V67.3269V67.333V67.339V67.3451V67.3512V67.3573V67.3634V67.3695V67.3756V67.3817V67.3878V67.3939V67.4V67.4061V67.4101L295.08 67.5514L293.788 67.6705L293.72 68.9665C293.684 69.6539 293.649 70.3077 293.613 71.0077H289.253H287.853L287.757 72.4046C287.704 73.1659 287.657 73.8354 287.609 74.4996ZM4.55717 67.1699C4.55725 67.1698 4.55871 67.1708 4.56127 67.1727C4.55836 67.1709 4.55709 67.1699 4.55717 67.1699Z" fill="#809DE3" stroke="#2B57E4" stroke-width="3"/>
<path d="M65.1152 36.52H65.9295V37.3279H65.1152V36.52Z" fill="white"/>
<path d="M65.1152 37.3279H65.9295V38.1358H65.1152V37.3279Z" fill="white"/>
<path d="M65.1152 38.1358H65.9295V38.9437H65.1152V38.1358Z" fill="white"/>
<path d="M64.3009 38.9437H65.1152V39.7516H64.3009V38.9437Z" fill="white"/>
<path d="M64.3009 39.7516H65.1152V40.5595H64.3009V39.7516Z" fill="white"/>
<path d="M64.3009 40.5595H65.1152V41.3675H64.3009V40.5595Z" fill="white"/>
<path d="M64.3009 41.3675H65.1152V42.1754H64.3009V41.3675Z" fill="white"/>
<path d="M64.3009 42.1754H65.1152V42.9833H64.3009V42.1754Z" fill="white"/>
<path d="M64.3009 42.9833H65.1152V43.7912H64.3009V42.9833Z" fill="white"/>
<path d="M63.4866 43.7912H64.3009V44.5991H63.4866V43.7912Z" fill="white"/>
<path d="M63.4866 44.5991H64.3009V45.407H63.4866V44.5991Z" fill="white"/>
<path d="M63.4866 45.407H64.3009V46.2149H63.4866V45.407Z" fill="white"/>
<path d="M62.6723 46.2149H63.4866V47.0228H62.6723V46.2149Z" fill="white"/>
<path d="M62.6723 47.0228H63.4866V47.8307H62.6723V47.0228Z" fill="white"/>
<path d="M61.858 47.8307H62.6723V48.6386H61.858V47.8307Z" fill="white"/>
<path d="M61.858 48.6386H62.6723V49.4465H61.858V48.6386Z" fill="white"/>
<path d="M61.0437 49.4465H61.858V50.2544H61.0437V49.4465Z" fill="white"/>
<path d="M60.2294 50.2544H61.0437V51.0623H60.2294V50.2544Z" fill="white"/>
<path d="M60.2294 51.0623H61.0437V51.8702H60.2294V51.0623Z" fill="white"/>
<path d="M59.4151 51.8702H60.2294V52.6781H59.4151V51.8702Z" fill="white"/>
<path d="M58.6008 52.6781H59.4151V53.4861H58.6008V52.6781Z" fill="white"/>
<path d="M57.7865 53.4861H58.6008V54.294H57.7865V53.4861Z" fill="white"/>
<path d="M56.9722 54.294H57.7865V55.1019H56.9722V54.294Z" fill="white"/>
<path d="M56.1579 55.1019H56.9722V55.9098H56.1579V55.1019Z" fill="white"/>
<path d="M55.3436 55.9098H56.1579V56.7177H55.3436V55.9098Z" fill="white"/>
<path d="M54.5293 56.7177H55.3436V57.5256H54.5293V56.7177Z" fill="white"/>
<path d="M53.715 57.5256H54.5293V58.3335H53.715V57.5256Z" fill="white"/>
<path d="M52.0864 58.3335H52.9007V59.1414H52.0864V58.3335Z" fill="white"/>
<path d="M50.4578 59.1414H51.2721V59.9493H50.4578V59.1414Z" fill="white"/>
<path d="M48.8292 59.9493H49.6435V60.7572H48.8292V59.9493Z" fill="white"/>
<path d="M46.3863 60.7572H47.2006V61.5651H46.3863V60.7572Z" fill="white"/>
<path d="M43.1291 61.5651H43.9434V62.373H43.1291V61.5651Z" fill="white"/>
<path d="M39.0576 61.5651H39.8719V62.373H39.0576V61.5651Z" fill="white"/>
<path d="M39.8719 61.5651H40.6862V62.373H39.8719V61.5651Z" fill="white"/>
<path d="M40.6862 61.5651H41.5005V62.373H40.6862V61.5651Z" fill="white"/>
<path d="M41.5005 61.5651H42.3148V62.373H41.5005V61.5651Z" fill="white"/>
<path d="M42.3148 61.5651H43.1291V62.373H42.3148V61.5651Z" fill="white"/>
<path d="M43.9434 61.5651H44.7577V62.373H43.9434V61.5651Z" fill="white"/>
<path d="M44.7577 61.5651H45.572V62.373H44.7577V61.5651Z" fill="white"/>
<path d="M45.572 60.7572H46.3863V61.5651H45.572V60.7572Z" fill="white"/>
<path d="M47.2006 60.7572H48.0149V61.5651H47.2006V60.7572Z" fill="white"/>
<path d="M48.0149 59.9493H48.8292V60.7572H48.0149V59.9493Z" fill="white"/>
<path d="M49.6435 59.9493H50.4578V60.7572H49.6435V59.9493Z" fill="white"/>
<path d="M51.2721 59.1414H52.0864V59.9493H51.2721V59.1414Z" fill="white"/>
<path d="M52.9007 57.5256H53.715V58.3335H52.9007V57.5256Z" fill="white"/>
<path d="M13 36.52H13.8143V37.3279H13V36.52Z" fill="white"/>
<path d="M13 37.3279H13.8143V38.1358H13V37.3279Z" fill="white"/>
<path d="M13 38.1358H13.8143V38.9437H13V38.1358Z" fill="white"/>
<path d="M13 38.9437H13.8143V39.7516H13V38.9437Z" fill="white"/>
<path d="M13 39.7516H13.8143V40.5595H13V39.7516Z" fill="white"/>
<path d="M13.8143 40.5595H14.6286V41.3675H13.8143V40.5595Z" fill="white"/>
<path d="M13.8143 41.3675H14.6286V42.1754H13.8143V41.3675Z" fill="white"/>
<path d="M13.8143 42.1754H14.6286V42.9833H13.8143V42.1754Z" fill="white"/>
<path d="M13.8143 42.9833H14.6286V43.7912H13.8143V42.9833Z" fill="white"/>
<path d="M14.6286 43.7912H15.4429V44.5991H14.6286V43.7912Z" fill="white"/>
<path d="M14.6286 44.5991H15.4429V45.407H14.6286V44.5991Z" fill="white"/>
<path d="M14.6286 45.407H15.4429V46.2149H14.6286V45.407Z" fill="white"/>
<path d="M15.4429 46.2149H16.2572V47.0228H15.4429V46.2149Z" fill="white"/>
<path d="M15.4429 47.0228H16.2572V47.8307H15.4429V47.0228Z" fill="white"/>
<path d="M16.2572 47.8307H17.0715V48.6386H16.2572V47.8307Z" fill="white"/>
<path d="M16.2572 48.6386H17.0715V49.4465H16.2572V48.6386Z" fill="white"/>
<path d="M17.0715 49.4465H17.8858V50.2544H17.0715V49.4465Z" fill="white"/>
<path d="M17.0715 50.2544H17.8858V51.0623H17.0715V50.2544Z" fill="white"/>
<path d="M17.8858 51.0623H18.7001V51.8702H17.8858V51.0623Z" fill="white"/>
<path d="M18.7001 51.8702H19.5144V52.6781H18.7001V51.8702Z" fill="white"/>
<path d="M19.5144 52.6781H20.3287V53.4861H19.5144V52.6781Z" fill="white"/>
<path d="M19.5144 53.4861H20.3287V54.294H19.5144V53.4861Z" fill="white"/>
<path d="M20.3287 54.294H21.143V55.1019H20.3287V54.294Z" fill="white"/>
<path d="M21.143 55.1019H21.9573V55.9098H21.143V55.1019Z" fill="white"/>
<path d="M22.7716 55.9098H23.5859V56.7177H22.7716V55.9098Z" fill="white"/>
<path d="M23.5859 56.7177H24.4002V57.5256H23.5859V56.7177Z" fill="white"/>
<path d="M24.4002 57.5256H25.2145V58.3335H24.4002V57.5256Z" fill="white"/>
<path d="M26.0288 58.3335H26.8431V59.1414H26.0288V58.3335Z" fill="white"/>
<path d="M27.6574 59.1414H28.4717V59.9493H27.6574V59.1414Z" fill="white"/>
<path d="M29.286 59.9493H30.1003V60.7572H29.286V59.9493Z" fill="white"/>
<path d="M31.7289 60.7572H32.5432V61.5651H31.7289V60.7572Z" fill="white"/>
<path d="M34.9861 61.5651H35.8004V62.373H34.9861V61.5651Z" fill="white"/>
<path d="M21.9573 55.1019H22.7716V55.9098H21.9573V55.1019Z" fill="white"/>
<path d="M25.2145 57.5256H26.0288V58.3335H25.2145V57.5256Z" fill="white"/>
<path d="M26.8431 59.1414H27.6574V59.9493H26.8431V59.1414Z" fill="white"/>
<path d="M28.4717 59.9493H29.286V60.7572H28.4717V59.9493Z" fill="white"/>
<path d="M30.1003 59.9493H30.9146V60.7572H30.1003V59.9493Z" fill="white"/>
<path d="M30.9146 60.7572H31.7289V61.5651H30.9146V60.7572Z" fill="white"/>
<path d="M32.5432 60.7572H33.3575V61.5651H32.5432V60.7572Z" fill="white"/>
<path d="M33.3575 61.5651H34.1718V62.373H33.3575V61.5651Z" fill="white"/>
<path d="M34.1718 61.5651H34.9861V62.373H34.1718V61.5651Z" fill="white"/>
<path d="M35.8004 61.5651H36.6147V62.373H35.8004V61.5651Z" fill="white"/>
<path d="M36.6147 61.5651H37.429V62.373H36.6147V61.5651Z" fill="white"/>
<path d="M37.429 61.5651H38.2433V62.373H37.429V61.5651Z" fill="white"/>
<path d="M38.2433 61.5651H39.0576V62.373H38.2433V61.5651Z" fill="white"/>
<path d="M36.6147 10.667H37.429V11.4749H36.6147V10.667Z" fill="white"/>
<path d="M31.7289 11.4749H32.5432V12.2828H31.7289V11.4749Z" fill="white"/>
<path d="M29.286 12.2828H30.1003V13.0907H29.286V12.2828Z" fill="white"/>
<path d="M27.6574 13.0907H28.4717V13.8986H27.6574V13.0907Z" fill="white"/>
<path d="M26.0288 13.8986H26.8431V14.7065H26.0288V13.8986Z" fill="white"/>
<path d="M25.2145 14.7065H26.0288V15.5144H25.2145V14.7065Z" fill="white"/>
<path d="M23.5859 15.5144H24.4002V16.3223H23.5859V15.5144Z" fill="white"/>
<path d="M22.7716 16.3223H23.5859V17.1302H22.7716V16.3223Z" fill="white"/>
<path d="M21.9573 17.1302H22.7716V17.9382H21.9573V17.1302Z" fill="white"/>
<path d="M21.143 17.9382H21.9573V18.7461H21.143V17.9382Z" fill="white"/>
<path d="M20.3287 18.7461H21.143V19.554H20.3287V18.7461Z" fill="white"/>
<path d="M19.5144 19.554H20.3287V20.3619H19.5144V19.554Z" fill="white"/>
<path d="M18.7001 20.3619H19.5144V21.1698H18.7001V20.3619Z" fill="white"/>
<path d="M17.8858 21.1698H18.7001V21.9777H17.8858V21.1698Z" fill="white"/>
<path d="M17.0715 21.9777H17.8858V22.7856H17.0715V21.9777Z" fill="white"/>
<path d="M17.0715 22.7856H17.8858V23.5935H17.0715V22.7856Z" fill="white"/>
<path d="M16.2572 23.5935H17.0715V24.4014H16.2572V23.5935Z" fill="white"/>
<path d="M16.2572 24.4014H17.0715V25.2093H16.2572V24.4014Z" fill="white"/>
<path d="M15.4429 25.2093H16.2572V26.0172H15.4429V25.2093Z" fill="white"/>
<path d="M15.4429 26.0172H16.2572V26.8251H15.4429V26.0172Z" fill="white"/>
<path d="M14.6286 26.8251H15.4429V27.633H14.6286V26.8251Z" fill="white"/>
<path d="M14.6286 27.633H15.4429V28.4409H14.6286V27.633Z" fill="white"/>
<path d="M14.6286 28.4409H15.4429V29.2488H14.6286V28.4409Z" fill="white"/>
<path d="M13.8143 29.2488H14.6286V30.0568H13.8143V29.2488Z" fill="white"/>
<path d="M13.8143 30.0568H14.6286V30.8647H13.8143V30.0568Z" fill="white"/>
<path d="M13.8143 30.8647H14.6286V31.6726H13.8143V30.8647Z" fill="white"/>
<path d="M13.8143 31.6726H14.6286V32.4805H13.8143V31.6726Z" fill="white"/>
<path d="M13 32.4805H13.8143V33.2884H13V32.4805Z" fill="white"/>
<path d="M13 33.2884H13.8143V34.0963H13V33.2884Z" fill="white"/>
<path d="M13 34.0963H13.8143V34.9042H13V34.0963Z" fill="white"/>
<path d="M13 34.9042H13.8143V35.7121H13V34.9042Z" fill="white"/>
<path d="M13 35.7121H13.8143V36.52H13V35.7121Z" fill="white"/>
<path d="M24.4002 14.7065H25.2145V15.5144H24.4002V14.7065Z" fill="white"/>
<path d="M26.8431 13.8986H27.6574V14.7065H26.8431V13.8986Z" fill="white"/>
<path d="M28.4717 13.0907H29.286V13.8986H28.4717V13.0907Z" fill="white"/>
<path d="M30.1003 12.2828H30.9146V13.0907H30.1003V12.2828Z" fill="white"/>
<path d="M30.9146 11.4749H31.7289V12.2828H30.9146V11.4749Z" fill="white"/>
<path d="M32.5432 11.4749H33.3575V12.2828H32.5432V11.4749Z" fill="white"/>
<path d="M33.3575 11.4749H34.1718V12.2828H33.3575V11.4749Z" fill="white"/>
<path d="M34.1718 10.667H34.9861V11.4749H34.1718V10.667Z" fill="white"/>
<path d="M34.9861 10.667H35.8004V11.4749H34.9861V10.667Z" fill="white"/>
<path d="M35.8004 10.667H36.6147V11.4749H35.8004V10.667Z" fill="white"/>
<path d="M37.429 10.667H38.2433V11.4749H37.429V10.667Z" fill="white"/>
<path d="M38.2433 10.667H39.0576V11.4749H38.2433V10.667Z" fill="white"/>
<path d="M39.0576 10.667H39.8719V11.4749H39.0576V10.667Z" fill="white"/>
<path d="M41.5005 10.667H42.3148V11.4749H41.5005V10.667Z" fill="white"/>
<path d="M45.572 11.4749H46.3863V12.2828H45.572V11.4749Z" fill="white"/>
<path d="M48.0149 12.2828H48.8292V13.0907H48.0149V12.2828Z" fill="white"/>
<path d="M50.4578 13.0907H51.2721V13.8986H50.4578V13.0907Z" fill="white"/>
<path d="M52.0864 13.8986H52.9007V14.7065H52.0864V13.8986Z" fill="white"/>
<path d="M52.9007 14.7065H53.715V15.5144H52.9007V14.7065Z" fill="white"/>
<path d="M54.5293 15.5144H55.3436V16.3223H54.5293V15.5144Z" fill="white"/>
<path d="M55.3436 16.3223H56.1579V17.1302H55.3436V16.3223Z" fill="white"/>
<path d="M56.1579 17.1302H56.9722V17.9382H56.1579V17.1302Z" fill="white"/>
<path d="M56.9722 17.9382H57.7865V18.7461H56.9722V17.9382Z" fill="white"/>
<path d="M57.7865 18.7461H58.6008V19.554H57.7865V18.7461Z" fill="white"/>
<path d="M58.6008 19.554H59.4151V20.3619H58.6008V19.554Z" fill="white"/>
<path d="M59.4151 20.3619H60.2294V21.1698H59.4151V20.3619Z" fill="white"/>
<path d="M60.2294 21.1698H61.0437V21.9777H60.2294V21.1698Z" fill="white"/>
<path d="M60.2294 21.9777H61.0437V22.7856H60.2294V21.9777Z" fill="white"/>
<path d="M61.0437 22.7856H61.858V23.5935H61.0437V22.7856Z" fill="white"/>
<path d="M61.858 23.5935H62.6723V24.4014H61.858V23.5935Z" fill="white"/>
<path d="M61.858 24.4014H62.6723V25.2093H61.858V24.4014Z" fill="white"/>
<path d="M62.6723 25.2093H63.4866V26.0172H62.6723V25.2093Z" fill="white"/>
<path d="M62.6723 26.0172H63.4866V26.8251H62.6723V26.0172Z" fill="white"/>
<path d="M62.6723 26.8251H63.4866V27.633H62.6723V26.8251Z" fill="white"/>
<path d="M63.4866 27.633H64.3009V28.4409H63.4866V27.633Z" fill="white"/>
<path d="M63.4866 28.4409H64.3009V29.2488H63.4866V28.4409Z" fill="white"/>
<path d="M63.4866 29.2488H64.3009V30.0568H63.4866V29.2488Z" fill="white"/>
<path d="M64.3009 30.0568H65.1152V30.8647H64.3009V30.0568Z" fill="white"/>
<path d="M64.3009 30.8647H65.1152V31.6726H64.3009V30.8647Z" fill="white"/>
<path d="M64.3009 31.6726H65.1152V32.4805H64.3009V31.6726Z" fill="white"/>
<path d="M64.3009 32.4805H65.1152V33.2884H64.3009V32.4805Z" fill="white"/>
<path d="M64.3009 33.2884H65.1152V34.0963H64.3009V33.2884Z" fill="white"/>
<path d="M65.1152 34.0963H65.9295V34.9042H65.1152V34.0963Z" fill="white"/>
<path d="M65.1152 34.9042H65.9295V35.7121H65.1152V34.9042Z" fill="white"/>
<path d="M65.1152 35.7121H65.9295V36.52H65.1152V35.7121Z" fill="white"/>
<path d="M39.8719 10.667H40.6862V11.4749H39.8719V10.667Z" fill="white"/>
<path d="M40.6862 10.667H41.5005V11.4749H40.6862V10.667Z" fill="white"/>
<path d="M42.3148 10.667H43.1291V11.4749H42.3148V10.667Z" fill="white"/>
<path d="M43.1291 10.667H43.9434V11.4749H43.1291V10.667Z" fill="white"/>
<path d="M43.9434 10.667H44.7577V11.4749H43.9434V10.667Z" fill="white"/>
<path d="M44.7577 11.4749H45.572V12.2828H44.7577V11.4749Z" fill="white"/>
<path d="M46.3863 11.4749H47.2006V12.2828H46.3863V11.4749Z" fill="white"/>
<path d="M47.2006 11.4749H48.0149V12.2828H47.2006V11.4749Z" fill="white"/>
<path d="M48.8292 12.2828H49.6435V13.0907H48.8292V12.2828Z" fill="white"/>
<path d="M49.6435 13.0907H50.4578V13.8986H49.6435V13.0907Z" fill="white"/>
<path d="M51.2721 13.8986H52.0864V14.7065H51.2721V13.8986Z" fill="white"/>
<path d="M53.715 14.7065H54.5293V15.5144H53.715V14.7065Z" fill="white"/>
<rect x="65.1152" y="36.5205" width="0.814299" height="0.807907" fill="white"/>
<rect x="65.1152" y="37.3291" width="0.814299" height="0.807907" fill="white"/>
<rect x="65.1152" y="38.1362" width="0.814299" height="0.807907" fill="white"/>
<rect x="64.3008" y="38.9443" width="0.814299" height="0.807907" fill="white"/>
<rect x="64.3008" y="39.7515" width="0.814299" height="0.807907" fill="white"/>
<rect x="64.3008" y="40.5596" width="0.814299" height="0.807907" fill="white"/>
<rect x="64.3008" y="41.3682" width="0.814299" height="0.807907" fill="white"/>
<rect x="64.3008" y="42.1763" width="0.814299" height="0.807907" fill="white"/>
<rect x="64.3008" y="42.9834" width="0.814299" height="0.807907" fill="white"/>
<rect x="63.4863" y="43.7915" width="0.814299" height="0.807907" fill="white"/>
<rect x="63.4863" y="44.5996" width="0.814299" height="0.807907" fill="white"/>
<rect x="63.4863" y="45.4077" width="0.814299" height="0.807907" fill="white"/>
<rect x="62.6729" y="46.2153" width="0.814299" height="0.807907" fill="white"/>
<rect x="62.6729" y="47.0234" width="0.814299" height="0.807907" fill="white"/>
<rect x="61.8584" y="47.8306" width="0.814299" height="0.807907" fill="white"/>
<rect x="61.8584" y="48.6387" width="0.814299" height="0.807907" fill="white"/>
<rect x="61.0439" y="49.4468" width="0.814299" height="0.807907" fill="white"/>
<rect x="60.2295" y="50.2549" width="0.814299" height="0.807907" fill="white"/>
<rect x="60.2295" y="51.0625" width="0.814299" height="0.807907" fill="white"/>
<rect x="59.415" y="51.8706" width="0.814299" height="0.807907" fill="white"/>
<rect x="58.6006" y="52.6787" width="0.814299" height="0.807907" fill="white"/>
<rect x="57.7871" y="53.4868" width="0.814299" height="0.807907" fill="white"/>
<rect x="56.9727" y="54.2939" width="0.814299" height="0.807907" fill="white"/>
<rect x="56.1582" y="55.1021" width="0.814299" height="0.807907" fill="white"/>
<rect x="55.3438" y="55.9106" width="0.814299" height="0.807907" fill="white"/>
<rect x="54.5293" y="56.7188" width="0.814299" height="0.807907" fill="white"/>
<rect x="53.7148" y="57.5259" width="0.814299" height="0.807907" fill="white"/>
<rect x="52.0869" y="58.334" width="0.814299" height="0.807907" fill="white"/>
<rect x="50.458" y="59.1411" width="0.814299" height="0.807907" fill="white"/>
<rect x="48.8291" y="59.9492" width="0.814299" height="0.807907" fill="white"/>
<rect x="46.3867" y="60.7578" width="0.814299" height="0.807907" fill="white"/>
<rect x="43.1289" y="61.5659" width="0.814299" height="0.807907" fill="white"/>
<rect x="39.0576" y="61.5659" width="0.814299" height="0.807907" fill="white"/>
<rect x="39.8721" y="61.5659" width="0.814299" height="0.807907" fill="white"/>
<rect x="40.6865" y="61.5659" width="0.814299" height="0.807907" fill="white"/>
<rect x="41.501" y="61.5659" width="0.814299" height="0.807907" fill="white"/>
<rect x="42.3145" y="61.5659" width="0.814299" height="0.807907" fill="white"/>
<rect x="43.9434" y="61.5659" width="0.814299" height="0.807907" fill="white"/>
<rect x="44.7578" y="61.5659" width="0.814299" height="0.807907" fill="white"/>
<rect x="45.5723" y="60.7578" width="0.814299" height="0.807907" fill="white"/>
<rect x="47.2012" y="60.7578" width="0.814299" height="0.807907" fill="white"/>
<rect x="48.0146" y="59.9492" width="0.814299" height="0.807907" fill="white"/>
<rect x="49.6436" y="59.9492" width="0.814299" height="0.807907" fill="white"/>
<rect x="51.2725" y="59.1411" width="0.814299" height="0.807907" fill="white"/>
<rect x="52.9004" y="57.5259" width="0.814299" height="0.807907" fill="white"/>
<rect x="13" y="36.5205" width="0.814299" height="0.807907" fill="white"/>
<rect x="13" y="37.3291" width="0.814299" height="0.807907" fill="white"/>
<rect x="13" y="38.1362" width="0.814299" height="0.807907" fill="white"/>
<rect x="13" y="38.9443" width="0.814299" height="0.807907" fill="white"/>
<rect x="13" y="39.7515" width="0.814299" height="0.807907" fill="white"/>
<rect x="13.8145" y="40.5596" width="0.814299" height="0.807907" fill="white"/>
<rect x="13.8145" y="41.3682" width="0.814299" height="0.807907" fill="white"/>
<rect x="13.8145" y="42.1763" width="0.814299" height="0.807907" fill="white"/>
<rect x="13.8145" y="42.9834" width="0.814299" height="0.807907" fill="white"/>
<rect x="14.6289" y="43.7915" width="0.814299" height="0.807907" fill="white"/>
<rect x="14.6289" y="44.5996" width="0.814299" height="0.807907" fill="white"/>
<rect x="14.6289" y="45.4077" width="0.814299" height="0.807907" fill="white"/>
<rect x="15.4434" y="46.2153" width="0.814299" height="0.807907" fill="white"/>
<rect x="15.4434" y="47.0234" width="0.814299" height="0.807907" fill="white"/>
<rect x="16.2578" y="47.8306" width="0.814299" height="0.807907" fill="white"/>
<rect x="16.2578" y="48.6387" width="0.814299" height="0.807907" fill="white"/>
<rect x="17.0713" y="49.4468" width="0.814299" height="0.807907" fill="white"/>
<rect x="17.0713" y="50.2549" width="0.814299" height="0.807907" fill="white"/>
<rect x="17.8857" y="51.0625" width="0.814299" height="0.807907" fill="white"/>
<rect x="18.7002" y="51.8706" width="0.814299" height="0.807907" fill="white"/>
<rect x="19.5146" y="52.6787" width="0.814299" height="0.807907" fill="white"/>
<rect x="19.5146" y="53.4868" width="0.814299" height="0.807907" fill="white"/>
<rect x="20.3291" y="54.2939" width="0.814299" height="0.807907" fill="white"/>
<rect x="21.1436" y="55.1021" width="0.814299" height="0.807907" fill="white"/>
<rect x="22.7715" y="55.9106" width="0.814299" height="0.807907" fill="white"/>
<rect x="23.5859" y="56.7188" width="0.814299" height="0.807907" fill="white"/>
<rect x="24.4004" y="57.5259" width="0.814299" height="0.807907" fill="white"/>
<rect x="26.0293" y="58.334" width="0.814299" height="0.807907" fill="white"/>
<rect x="27.6572" y="59.1411" width="0.814299" height="0.807907" fill="white"/>
<rect x="29.2861" y="59.9492" width="0.814299" height="0.807907" fill="white"/>
<rect x="31.7295" y="60.7578" width="0.814299" height="0.807907" fill="white"/>
<rect x="34.9863" y="61.5659" width="0.814299" height="0.807907" fill="white"/>
<rect x="21.957" y="55.1021" width="0.814299" height="0.807907" fill="white"/>
<rect x="25.2148" y="57.5259" width="0.814299" height="0.807907" fill="white"/>
<rect x="26.8428" y="59.1411" width="0.814299" height="0.807907" fill="white"/>
<rect x="28.4717" y="59.9492" width="0.814299" height="0.807907" fill="white"/>
<rect x="30.1006" y="59.9492" width="0.814299" height="0.807907" fill="white"/>
<rect x="30.915" y="60.7578" width="0.814299" height="0.807907" fill="white"/>
<rect x="32.543" y="60.7578" width="0.814299" height="0.807907" fill="white"/>
<rect x="33.3574" y="61.5659" width="0.814299" height="0.807907" fill="white"/>
<rect x="34.1719" y="61.5659" width="0.814299" height="0.807907" fill="white"/>
<rect x="35.8008" y="61.5659" width="0.814299" height="0.807907" fill="white"/>
<rect x="36.6152" y="61.5659" width="0.814299" height="0.807907" fill="white"/>
<rect x="37.4287" y="61.5659" width="0.814299" height="0.807907" fill="white"/>
<rect x="38.2432" y="61.5659" width="0.814299" height="0.807907" fill="white"/>
<rect x="36.6152" y="10.6675" width="0.814299" height="0.807907" fill="white"/>
<rect x="31.7295" y="11.4746" width="0.814299" height="0.807907" fill="white"/>
<rect x="29.2861" y="12.2827" width="0.814299" height="0.807907" fill="white"/>
<rect x="27.6572" y="13.0913" width="0.814299" height="0.807907" fill="white"/>
<rect x="26.0293" y="13.8994" width="0.814299" height="0.807907" fill="white"/>
<rect x="25.2148" y="14.7075" width="0.814299" height="0.807907" fill="white"/>
<rect x="23.5859" y="15.5146" width="0.814299" height="0.807907" fill="white"/>
<rect x="22.7715" y="16.3228" width="0.814299" height="0.807907" fill="white"/>
<rect x="21.957" y="17.1309" width="0.814299" height="0.807907" fill="white"/>
<rect x="21.1436" y="17.939" width="0.814299" height="0.807907" fill="white"/>
<rect x="20.3291" y="18.7466" width="0.814299" height="0.807907" fill="white"/>
<rect x="19.5146" y="19.5547" width="0.814299" height="0.807907" fill="white"/>
<rect x="18.7002" y="20.3618" width="0.814299" height="0.807907" fill="white"/>
<rect x="17.8857" y="21.1699" width="0.814299" height="0.807907" fill="white"/>
<rect x="17.0713" y="21.978" width="0.814299" height="0.807907" fill="white"/>
<rect x="17.0713" y="22.7866" width="0.814299" height="0.807907" fill="white"/>
<rect x="16.2578" y="23.5938" width="0.814299" height="0.807907" fill="white"/>
<rect x="16.2578" y="24.4019" width="0.814299" height="0.807907" fill="white"/>
<rect x="15.4434" y="25.21" width="0.814299" height="0.807907" fill="white"/>
<rect x="15.4434" y="26.0181" width="0.814299" height="0.807907" fill="white"/>
<rect x="14.6289" y="26.8252" width="0.814299" height="0.807907" fill="white"/>
<rect x="14.6289" y="27.6338" width="0.814299" height="0.807907" fill="white"/>
<rect x="14.6289" y="28.4409" width="0.814299" height="0.807907" fill="white"/>
<rect x="13.8145" y="29.249" width="0.814299" height="0.807907" fill="white"/>
<rect x="13.8145" y="30.0571" width="0.814299" height="0.807907" fill="white"/>
<rect x="13.8145" y="30.8652" width="0.814299" height="0.807907" fill="white"/>
<rect x="13.8145" y="31.6729" width="0.814299" height="0.807907" fill="white"/>
<rect x="13" y="32.481" width="0.814299" height="0.807907" fill="white"/>
<rect x="13" y="33.2891" width="0.814299" height="0.807907" fill="white"/>
<rect x="13" y="34.0972" width="0.814299" height="0.807907" fill="white"/>
<rect x="13" y="34.9043" width="0.814299" height="0.807907" fill="white"/>
<rect x="13" y="35.7124" width="0.814299" height="0.807907" fill="white"/>
<rect x="24.4004" y="14.7075" width="0.814299" height="0.807907" fill="white"/>
<rect x="26.8428" y="13.8994" width="0.814299" height="0.807907" fill="white"/>
<rect x="28.4717" y="13.0913" width="0.814299" height="0.807907" fill="white"/>
<rect x="30.1006" y="12.2827" width="0.814299" height="0.807907" fill="white"/>
<rect x="30.915" y="11.4746" width="0.814299" height="0.807907" fill="white"/>
<rect x="32.543" y="11.4746" width="0.814299" height="0.807907" fill="white"/>
<rect x="33.3574" y="11.4746" width="0.814299" height="0.807907" fill="white"/>
<rect x="34.1719" y="10.6675" width="0.814299" height="0.807907" fill="white"/>
<rect x="34.9863" y="10.6675" width="0.814299" height="0.807907" fill="white"/>
<rect x="35.8008" y="10.6675" width="0.814299" height="0.807907" fill="white"/>
<rect x="37.4287" y="10.6675" width="0.814299" height="0.807907" fill="white"/>
<rect x="38.2432" y="10.6675" width="0.814299" height="0.807907" fill="white"/>
<rect x="39.0576" y="10.6675" width="0.814299" height="0.807907" fill="white"/>
<rect x="41.501" y="10.6675" width="0.814299" height="0.807907" fill="white"/>
<rect x="45.5723" y="11.4746" width="0.814299" height="0.807907" fill="white"/>
<rect x="48.0146" y="12.2827" width="0.814299" height="0.807907" fill="white"/>
<rect x="50.458" y="13.0913" width="0.814299" height="0.807907" fill="white"/>
<rect x="52.0869" y="13.8994" width="0.814299" height="0.807907" fill="white"/>
<rect x="52.9004" y="14.7075" width="0.814299" height="0.807907" fill="white"/>
<rect x="54.5293" y="15.5146" width="0.814299" height="0.807907" fill="white"/>
<rect x="55.3438" y="16.3228" width="0.814299" height="0.807907" fill="white"/>
<rect x="56.1582" y="17.1309" width="0.814299" height="0.807907" fill="white"/>
<rect x="56.9727" y="17.939" width="0.814299" height="0.807907" fill="white"/>
<rect x="57.7871" y="18.7466" width="0.814299" height="0.807907" fill="white"/>
<rect x="58.6006" y="19.5547" width="0.814299" height="0.807907" fill="white"/>
<rect x="59.415" y="20.3618" width="0.814299" height="0.807907" fill="white"/>
<rect x="60.2295" y="21.1699" width="0.814299" height="0.807907" fill="white"/>
<rect x="60.2295" y="21.978" width="0.814299" height="0.807907" fill="white"/>
<rect x="61.0439" y="22.7866" width="0.814299" height="0.807907" fill="white"/>
<rect x="61.8584" y="23.5938" width="0.814299" height="0.807907" fill="white"/>
<rect x="61.8584" y="24.4019" width="0.814299" height="0.807907" fill="white"/>
<rect x="62.6729" y="25.21" width="0.814299" height="0.807907" fill="white"/>
<rect x="62.6729" y="26.0181" width="0.814299" height="0.807907" fill="white"/>
<rect x="62.6729" y="26.8252" width="0.814299" height="0.807907" fill="white"/>
<rect x="63.4863" y="27.6338" width="0.814299" height="0.807907" fill="white"/>
<rect x="63.4863" y="28.4409" width="0.814299" height="0.807907" fill="white"/>
<rect x="63.4863" y="29.249" width="0.814299" height="0.807907" fill="white"/>
<rect x="64.3008" y="30.0571" width="0.814299" height="0.807907" fill="white"/>
<rect x="64.3008" y="30.8652" width="0.814299" height="0.807907" fill="white"/>
<rect x="64.3008" y="31.6729" width="0.814299" height="0.807907" fill="white"/>
<rect x="64.3008" y="32.481" width="0.814299" height="0.807907" fill="white"/>
<rect x="64.3008" y="33.2891" width="0.814299" height="0.807907" fill="white"/>
<rect x="65.1152" y="34.0972" width="0.814299" height="0.807907" fill="white"/>
<rect x="65.1152" y="34.9043" width="0.814299" height="0.807907" fill="white"/>
<rect x="65.1152" y="35.7124" width="0.814299" height="0.807907" fill="white"/>
<rect x="39.8721" y="10.6675" width="0.814299" height="0.807907" fill="white"/>
<rect x="40.6865" y="10.6675" width="0.814299" height="0.807907" fill="white"/>
<rect x="42.3145" y="10.6675" width="0.814299" height="0.807907" fill="white"/>
<rect x="43.1289" y="10.6675" width="0.814299" height="0.807907" fill="white"/>
<rect x="43.9434" y="10.6675" width="0.814299" height="0.807907" fill="white"/>
<rect x="44.7578" y="11.4746" width="0.814299" height="0.807907" fill="white"/>
<rect x="46.3867" y="11.4746" width="0.814299" height="0.807907" fill="white"/>
<rect x="47.2012" y="11.4746" width="0.814299" height="0.807907" fill="white"/>
<rect x="48.8291" y="12.2827" width="0.814299" height="0.807907" fill="white"/>
<rect x="49.6436" y="13.0913" width="0.814299" height="0.807907" fill="white"/>
<rect x="51.2725" y="13.8994" width="0.814299" height="0.807907" fill="white"/>
<rect x="53.7148" y="14.7075" width="0.814299" height="0.807907" fill="white"/>
<rect x="65.9297" y="36.5205" width="0.814299" height="0.807907" fill="white"/>
<rect x="65.9297" y="37.3291" width="0.814299" height="0.807907" fill="white"/>
<rect x="65.9297" y="38.1362" width="0.814299" height="0.807907" fill="white"/>
<rect x="65.9297" y="38.9443" width="0.814299" height="0.807907" fill="white"/>
<rect x="65.1152" y="38.9443" width="0.814299" height="0.807907" fill="white"/>
<rect x="65.1152" y="39.7515" width="0.814299" height="0.807907" fill="white"/>
<rect x="65.1152" y="40.5596" width="0.814299" height="0.807907" fill="white"/>
<rect x="65.1152" y="41.3682" width="0.814299" height="0.807907" fill="white"/>
<rect x="65.1152" y="42.1763" width="0.814299" height="0.807907" fill="white"/>
<rect x="65.1152" y="42.9834" width="0.814299" height="0.807907" fill="white"/>
<rect x="65.1152" y="43.7915" width="0.814299" height="0.807907" fill="white"/>
<rect x="64.3008" y="43.7915" width="0.814299" height="0.807907" fill="white"/>
<rect x="64.3008" y="44.5996" width="0.814299" height="0.807907" fill="white"/>
<rect x="64.3008" y="45.4077" width="0.814299" height="0.807907" fill="white"/>
<rect x="64.3008" y="46.2153" width="0.814299" height="0.807907" fill="white"/>
<rect x="63.4863" y="46.2153" width="0.814299" height="0.807907" fill="white"/>
<rect x="63.4863" y="47.0234" width="0.814299" height="0.807907" fill="white"/>
<rect x="63.4863" y="47.8306" width="0.814299" height="0.807907" fill="white"/>
<rect x="62.6729" y="47.8306" width="0.814299" height="0.807907" fill="white"/>
<rect x="62.6729" y="48.6387" width="0.814299" height="0.807907" fill="white"/>
<rect x="62.6729" y="49.4468" width="0.814299" height="0.807907" fill="white"/>
<rect x="61.8584" y="49.4468" width="0.814299" height="0.807907" fill="white"/>
<rect x="61.8584" y="50.2549" width="0.814299" height="0.807907" fill="white"/>
<rect x="61.0439" y="50.2549" width="0.814299" height="0.807907" fill="white"/>
<rect x="61.0439" y="51.0625" width="0.814299" height="0.807907" fill="white"/>
<rect x="61.0439" y="51.8706" width="0.814299" height="0.807907" fill="white"/>
<rect x="60.2295" y="51.8706" width="0.814299" height="0.807907" fill="white"/>
<rect x="60.2295" y="52.6787" width="0.814299" height="0.807907" fill="white"/>
<rect x="59.415" y="52.6787" width="0.814299" height="0.807907" fill="white"/>
<rect x="59.415" y="53.4868" width="0.814299" height="0.807907" fill="white"/>
<rect x="58.6006" y="53.4868" width="0.814299" height="0.807907" fill="white"/>
<rect x="58.6006" y="54.2939" width="0.814299" height="0.807907" fill="white"/>
<rect x="57.7871" y="54.2939" width="0.814299" height="0.807907" fill="white"/>
<rect x="57.7871" y="55.1021" width="0.814299" height="0.807907" fill="white"/>
<rect x="56.9727" y="55.1021" width="0.814299" height="0.807907" fill="white"/>
<rect x="56.9727" y="55.9106" width="0.814299" height="0.807907" fill="white"/>
<rect x="56.1582" y="55.9106" width="0.814299" height="0.807907" fill="white"/>
<rect x="56.1582" y="56.7188" width="0.814299" height="0.807907" fill="white"/>
<rect x="55.3438" y="56.7188" width="0.814299" height="0.807907" fill="white"/>
<rect x="55.3438" y="57.5259" width="0.814299" height="0.807907" fill="white"/>
<rect x="54.5293" y="57.5259" width="0.814299" height="0.807907" fill="white"/>
<rect x="54.5293" y="58.334" width="0.814299" height="0.807907" fill="white"/>
<rect x="53.7148" y="58.334" width="0.814299" height="0.807907" fill="white"/>
<rect x="52.0869" y="57.5259" width="0.814299" height="0.807907" fill="white"/>
<rect x="52.9004" y="58.334" width="0.814299" height="0.807907" fill="white"/>
<rect x="52.9004" y="59.1411" width="0.814299" height="0.807907" fill="white"/>
<rect x="52.0869" y="59.1411" width="0.814299" height="0.807907" fill="white"/>
<rect x="51.2725" y="59.9492" width="0.814299" height="0.807907" fill="white"/>
<rect x="50.458" y="59.9492" width="0.814299" height="0.807907" fill="white"/>
<rect x="49.6436" y="60.7578" width="0.814299" height="0.807907" fill="white"/>
<rect x="48.8291" y="60.7578" width="0.814299" height="0.807907" fill="white"/>
<rect x="47.2012" y="61.5659" width="0.814299" height="0.807907" fill="white"/>
<rect x="46.3867" y="61.5659" width="0.814299" height="0.807907" fill="white"/>
<rect x="43.9434" y="62.373" width="0.814299" height="0.807907" fill="white"/>
<rect x="43.1289" y="62.373" width="0.814299" height="0.807907" fill="white"/>
<rect x="39.8721" y="62.373" width="0.814299" height="0.807907" fill="white"/>
<rect x="39.0576" y="62.373" width="0.814299" height="0.807907" fill="white"/>
<rect x="40.6865" y="62.373" width="0.814299" height="0.807907" fill="white"/>
<rect x="41.501" y="62.373" width="0.814299" height="0.807907" fill="white"/>
<rect x="42.3145" y="62.373" width="0.814299" height="0.807907" fill="white"/>
<rect x="44.7578" y="62.373" width="0.814299" height="0.807907" fill="white"/>
<rect x="45.5723" y="61.5659" width="0.814299" height="0.807907" fill="white"/>
<rect x="45.5723" y="62.373" width="0.814299" height="0.807907" fill="white"/>
<rect x="48.0146" y="60.7578" width="0.814299" height="0.807907" fill="white"/>
<rect x="48.0146" y="61.5659" width="0.814299" height="0.807907" fill="white"/>
<rect x="50.458" y="60.7578" width="0.814299" height="0.807907" fill="white"/>
<rect x="52.0869" y="59.9492" width="0.814299" height="0.807907" fill="white"/>
<rect x="13.8145" y="36.5205" width="0.814299" height="0.807907" fill="white"/>
<rect x="13.8145" y="37.3291" width="0.814299" height="0.807907" fill="white"/>
<rect x="13.8145" y="38.1362" width="0.814299" height="0.807907" fill="white"/>
<rect x="13.8145" y="38.9443" width="0.814299" height="0.807907" fill="white"/>
<rect x="13.8145" y="39.7515" width="0.814299" height="0.807907" fill="white"/>
<rect x="13" y="40.5596" width="0.814299" height="0.807907" fill="white"/>
<rect x="14.6289" y="40.5596" width="0.814299" height="0.807907" fill="white"/>
<rect x="14.6289" y="41.3682" width="0.814299" height="0.807907" fill="white"/>
<rect x="14.6289" y="42.1763" width="0.814299" height="0.807907" fill="white"/>
<rect x="14.6289" y="42.9834" width="0.814299" height="0.807907" fill="white"/>
<rect x="13.8145" y="43.7915" width="0.814299" height="0.807907" fill="white"/>
<rect x="15.4434" y="43.7915" width="0.814299" height="0.807907" fill="white"/>
<rect x="15.4434" y="44.5996" width="0.814299" height="0.807907" fill="white"/>
<rect x="15.4434" y="45.4077" width="0.814299" height="0.807907" fill="white"/>
<rect x="14.6289" y="46.2153" width="0.814299" height="0.807907" fill="white"/>
<rect x="16.2578" y="46.2153" width="0.814299" height="0.807907" fill="white"/>
<rect x="16.2578" y="47.0234" width="0.814299" height="0.807907" fill="white"/>
<rect x="15.4434" y="47.8306" width="0.814299" height="0.807907" fill="white"/>
<rect x="17.0713" y="47.8306" width="0.814299" height="0.807907" fill="white"/>
<rect x="17.0713" y="48.6387" width="0.814299" height="0.807907" fill="white"/>
<rect x="16.2578" y="49.4468" width="0.814299" height="0.807907" fill="white"/>
<rect x="17.8857" y="49.4468" width="0.814299" height="0.807907" fill="white"/>
<rect x="17.8857" y="50.2549" width="0.814299" height="0.807907" fill="white"/>
<rect x="17.0713" y="51.0625" width="0.814299" height="0.807907" fill="white"/>
<rect x="18.7002" y="51.0625" width="0.814299" height="0.807907" fill="white"/>
<rect x="17.8857" y="51.8706" width="0.814299" height="0.807907" fill="white"/>
<rect x="19.5146" y="51.8706" width="0.814299" height="0.807907" fill="white"/>
<rect x="18.7002" y="52.6787" width="0.814299" height="0.807907" fill="white"/>
<rect x="20.3291" y="52.6787" width="0.814299" height="0.807907" fill="white"/>
<rect x="20.3291" y="53.4868" width="0.814299" height="0.807907" fill="white"/>
<rect x="19.5146" y="54.2939" width="0.814299" height="0.807907" fill="white"/>
<rect x="21.1436" y="54.2939" width="0.814299" height="0.807907" fill="white"/>
<rect x="20.3291" y="55.1021" width="0.814299" height="0.807907" fill="white"/>
<rect x="21.957" y="55.9106" width="0.814299" height="0.807907" fill="white"/>
<rect x="21.1436" y="55.9106" width="0.814299" height="0.807907" fill="white"/>
<rect x="23.5859" y="55.9106" width="0.814299" height="0.807907" fill="white"/>
<rect x="22.7715" y="56.7188" width="0.814299" height="0.807907" fill="white"/>
<rect x="24.4004" y="56.7188" width="0.814299" height="0.807907" fill="white"/>
<rect x="23.5859" y="57.5259" width="0.814299" height="0.807907" fill="white"/>
<rect x="25.2148" y="58.334" width="0.814299" height="0.807907" fill="white"/>
<rect x="24.4004" y="58.334" width="0.814299" height="0.807907" fill="white"/>
<rect x="26.0293" y="57.5259" width="0.814299" height="0.807907" fill="white"/>
<rect x="26.8428" y="58.334" width="0.814299" height="0.807907" fill="white"/>
<rect x="26.0293" y="59.1411" width="0.814299" height="0.807907" fill="white"/>
<rect x="28.4717" y="59.1411" width="0.814299" height="0.807907" fill="white"/>
<rect x="27.6572" y="59.9492" width="0.814299" height="0.807907" fill="white"/>
<rect x="30.1006" y="60.7578" width="0.814299" height="0.807907" fill="white"/>
<rect x="29.2861" y="60.7578" width="0.814299" height="0.807907" fill="white"/>
<rect x="32.543" y="61.5659" width="0.814299" height="0.807907" fill="white"/>
<rect x="31.7295" y="61.5659" width="0.814299" height="0.807907" fill="white"/>
<rect x="35.8008" y="62.373" width="0.814299" height="0.807907" fill="white"/>
<rect x="34.9863" y="62.373" width="0.814299" height="0.807907" fill="white"/>
<rect x="22.7715" y="55.1021" width="0.814299" height="0.807907" fill="white"/>
<rect x="26.8428" y="59.9492" width="0.814299" height="0.807907" fill="white"/>
<rect x="28.4717" y="60.7578" width="0.814299" height="0.807907" fill="white"/>
<rect x="30.915" y="59.9492" width="0.814299" height="0.807907" fill="white"/>
<rect x="30.915" y="61.5659" width="0.814299" height="0.807907" fill="white"/>
<rect x="33.3574" y="60.7578" width="0.814299" height="0.807907" fill="white"/>
<rect x="34.1719" y="62.373" width="0.814299" height="0.807907" fill="white"/>
<rect x="33.3574" y="62.373" width="0.814299" height="0.807907" fill="white"/>
<rect x="36.6152" y="62.373" width="0.814299" height="0.807907" fill="white"/>
<rect x="37.4287" y="62.373" width="0.814299" height="0.807907" fill="white"/>
<rect x="38.2432" y="62.373" width="0.814299" height="0.807907" fill="white"/>
<rect x="37.4287" y="11.4746" width="0.814299" height="0.807907" fill="white"/>
<rect x="36.6152" y="11.4746" width="0.814299" height="0.807907" fill="white"/>
<rect x="32.543" y="12.2827" width="0.814299" height="0.807907" fill="white"/>
<rect x="31.7295" y="12.2827" width="0.814299" height="0.807907" fill="white"/>
<rect x="30.1006" y="13.0913" width="0.814299" height="0.807907" fill="white"/>
<rect x="29.2861" y="13.0913" width="0.814299" height="0.807907" fill="white"/>
<rect x="28.4717" y="13.8994" width="0.814299" height="0.807907" fill="white"/>
<rect x="27.6572" y="13.8994" width="0.814299" height="0.807907" fill="white"/>
<rect x="26.8428" y="14.7075" width="0.814299" height="0.807907" fill="white"/>
<rect x="26.0293" y="14.7075" width="0.814299" height="0.807907" fill="white"/>
<rect x="26.0293" y="15.5146" width="0.814299" height="0.807907" fill="white"/>
<rect x="25.2148" y="15.5146" width="0.814299" height="0.807907" fill="white"/>
<rect x="24.4004" y="15.5146" width="0.814299" height="0.807907" fill="white"/>
<rect x="24.4004" y="16.3228" width="0.814299" height="0.807907" fill="white"/>
<rect x="23.5859" y="16.3228" width="0.814299" height="0.807907" fill="white"/>
<rect x="23.5859" y="17.1309" width="0.814299" height="0.807907" fill="white"/>
<rect x="22.7715" y="17.1309" width="0.814299" height="0.807907" fill="white"/>
<rect x="21.957" y="16.3228" width="0.814299" height="0.807907" fill="white"/>
<rect x="22.7715" y="17.939" width="0.814299" height="0.807907" fill="white"/>
<rect x="21.957" y="17.939" width="0.814299" height="0.807907" fill="white"/>
<rect x="21.957" y="18.7466" width="0.814299" height="0.807907" fill="white"/>
<rect x="21.1436" y="18.7466" width="0.814299" height="0.807907" fill="white"/>
<rect x="21.1436" y="19.5547" width="0.814299" height="0.807907" fill="white"/>
<rect x="20.3291" y="19.5547" width="0.814299" height="0.807907" fill="white"/>
<rect x="20.3291" y="20.3618" width="0.814299" height="0.807907" fill="white"/>
<rect x="19.5146" y="20.3618" width="0.814299" height="0.807907" fill="white"/>
<rect x="19.5146" y="21.1699" width="0.814299" height="0.807907" fill="white"/>
<rect x="18.7002" y="21.1699" width="0.814299" height="0.807907" fill="white"/>
<rect x="18.7002" y="21.978" width="0.814299" height="0.807907" fill="white"/>
<rect x="17.8857" y="21.978" width="0.814299" height="0.807907" fill="white"/>
<rect x="17.8857" y="22.7866" width="0.814299" height="0.807907" fill="white"/>
<rect x="17.8857" y="23.5938" width="0.814299" height="0.807907" fill="white"/>
<rect x="17.0713" y="23.5938" width="0.814299" height="0.807907" fill="white"/>
<rect x="16.2578" y="22.7866" width="0.814299" height="0.807907" fill="white"/>
<rect x="17.0713" y="24.4019" width="0.814299" height="0.807907" fill="white"/>
<rect x="17.0713" y="25.21" width="0.814299" height="0.807907" fill="white"/>
<rect x="16.2578" y="25.21" width="0.814299" height="0.807907" fill="white"/>
<rect x="16.2578" y="26.0181" width="0.814299" height="0.807907" fill="white"/>
<rect x="16.2578" y="26.8252" width="0.814299" height="0.807907" fill="white"/>
<rect x="15.4434" y="26.8252" width="0.814299" height="0.807907" fill="white"/>
<rect x="15.4434" y="27.6338" width="0.814299" height="0.807907" fill="white"/>
<rect x="15.4434" y="28.4409" width="0.814299" height="0.807907" fill="white"/>
<rect x="15.4434" y="29.249" width="0.814299" height="0.807907" fill="white"/>
<rect x="14.6289" y="29.249" width="0.814299" height="0.807907" fill="white"/>
<rect x="14.6289" y="30.0571" width="0.814299" height="0.807907" fill="white"/>
<rect x="14.6289" y="30.8652" width="0.814299" height="0.807907" fill="white"/>
<rect x="14.6289" y="31.6729" width="0.814299" height="0.807907" fill="white"/>
<rect x="14.6289" y="32.481" width="0.814299" height="0.807907" fill="white"/>
<rect x="13.8145" y="32.481" width="0.814299" height="0.807907" fill="white"/>
<rect x="13.8145" y="33.2891" width="0.814299" height="0.807907" fill="white"/>
<rect x="13.8145" y="34.0972" width="0.814299" height="0.807907" fill="white"/>
<rect x="13.8145" y="34.9043" width="0.814299" height="0.807907" fill="white"/>
<rect x="13.8145" y="35.7124" width="0.814299" height="0.807907" fill="white"/>
<rect x="27.6572" y="14.7075" width="0.814299" height="0.807907" fill="white"/>
<rect x="29.2861" y="13.8994" width="0.814299" height="0.807907" fill="white"/>
<rect x="30.915" y="12.2827" width="0.814299" height="0.807907" fill="white"/>
<rect x="30.915" y="13.0913" width="0.814299" height="0.807907" fill="white"/>
<rect x="33.3574" y="12.2827" width="0.814299" height="0.807907" fill="white"/>
<rect x="34.1719" y="11.4746" width="0.814299" height="0.807907" fill="white"/>
<rect x="34.1719" y="12.2827" width="0.814299" height="0.807907" fill="white"/>
<rect x="34.9863" y="11.4746" width="0.814299" height="0.807907" fill="white"/>
<rect x="35.8008" y="11.4746" width="0.814299" height="0.807907" fill="white"/>
<rect x="38.2432" y="11.4746" width="0.814299" height="0.807907" fill="white"/>
<rect x="39.0576" y="11.4746" width="0.814299" height="0.807907" fill="white"/>
<rect x="39.8721" y="11.4746" width="0.814299" height="0.807907" fill="white"/>
<rect x="42.3145" y="11.4746" width="0.814299" height="0.807907" fill="white"/>
<rect x="41.501" y="11.4746" width="0.814299" height="0.807907" fill="white"/>
<rect x="46.3867" y="12.2827" width="0.814299" height="0.807907" fill="white"/>
<rect x="45.5723" y="12.2827" width="0.814299" height="0.807907" fill="white"/>
<rect x="48.8291" y="13.0913" width="0.814299" height="0.807907" fill="white"/>
<rect x="48.0146" y="13.0913" width="0.814299" height="0.807907" fill="white"/>
<rect x="51.2725" y="13.0913" width="0.814299" height="0.807907" fill="white"/>
<rect x="50.458" y="13.8994" width="0.814299" height="0.807907" fill="white"/>
<rect x="52.9004" y="13.8994" width="0.814299" height="0.807907" fill="white"/>
<rect x="52.0869" y="14.7075" width="0.814299" height="0.807907" fill="white"/>
<rect x="53.7148" y="15.5146" width="0.814299" height="0.807907" fill="white"/>
<rect x="52.9004" y="15.5146" width="0.814299" height="0.807907" fill="white"/>
<rect x="55.3438" y="15.5146" width="0.814299" height="0.807907" fill="white"/>
<rect x="54.5293" y="16.3228" width="0.814299" height="0.807907" fill="white"/>
<rect x="56.1582" y="16.3228" width="0.814299" height="0.807907" fill="white"/>
<rect x="55.3438" y="17.1309" width="0.814299" height="0.807907" fill="white"/>
<rect x="56.9727" y="17.1309" width="0.814299" height="0.807907" fill="white"/>
<rect x="56.1582" y="17.939" width="0.814299" height="0.807907" fill="white"/>
<rect x="57.7871" y="17.939" width="0.814299" height="0.807907" fill="white"/>
<rect x="56.9727" y="18.7466" width="0.814299" height="0.807907" fill="white"/>
<rect x="58.6006" y="18.7466" width="0.814299" height="0.807907" fill="white"/>
<rect x="57.7871" y="19.5547" width="0.814299" height="0.807907" fill="white"/>
<rect x="59.415" y="19.5547" width="0.814299" height="0.807907" fill="white"/>
<rect x="58.6006" y="20.3618" width="0.814299" height="0.807907" fill="white"/>
<rect x="60.2295" y="20.3618" width="0.814299" height="0.807907" fill="white"/>
<rect x="59.415" y="21.1699" width="0.814299" height="0.807907" fill="white"/>
<rect x="61.0439" y="21.1699" width="0.814299" height="0.807907" fill="white"/>
<rect x="61.0439" y="21.978" width="0.814299" height="0.807907" fill="white"/>
<rect x="60.2295" y="22.7866" width="0.814299" height="0.807907" fill="white"/>
<rect x="61.8584" y="22.7866" width="0.814299" height="0.807907" fill="white"/>
<rect x="61.0439" y="23.5938" width="0.814299" height="0.807907" fill="white"/>
<rect x="62.6729" y="23.5938" width="0.814299" height="0.807907" fill="white"/>
<rect x="62.6729" y="24.4019" width="0.814299" height="0.807907" fill="white"/>
<rect x="61.8584" y="25.21" width="0.814299" height="0.807907" fill="white"/>
<rect x="63.4863" y="25.21" width="0.814299" height="0.807907" fill="white"/>
<rect x="63.4863" y="26.0181" width="0.814299" height="0.807907" fill="white"/>
<rect x="63.4863" y="26.8252" width="0.814299" height="0.807907" fill="white"/>
<rect x="62.6729" y="27.6338" width="0.814299" height="0.807907" fill="white"/>
<rect x="64.3008" y="27.6338" width="0.814299" height="0.807907" fill="white"/>
<rect x="64.3008" y="28.4409" width="0.814299" height="0.807907" fill="white"/>
<rect x="64.3008" y="29.249" width="0.814299" height="0.807907" fill="white"/>
<rect x="63.4863" y="30.0571" width="0.814299" height="0.807907" fill="white"/>
<rect x="65.1152" y="30.0571" width="0.814299" height="0.807907" fill="white"/>
<rect x="65.1152" y="30.8652" width="0.814299" height="0.807907" fill="white"/>
<rect x="65.1152" y="31.6729" width="0.814299" height="0.807907" fill="white"/>
<rect x="65.1152" y="32.481" width="0.814299" height="0.807907" fill="white"/>
<rect x="65.1152" y="33.2891" width="0.814299" height="0.807907" fill="white"/>
<rect x="64.3008" y="34.0972" width="0.814299" height="0.807907" fill="white"/>
<rect x="65.9297" y="34.0972" width="0.814299" height="0.807907" fill="white"/>
<rect x="65.9297" y="34.9043" width="0.814299" height="0.807907" fill="white"/>
<rect x="65.9297" y="35.7124" width="0.814299" height="0.807907" fill="white"/>
<rect x="40.6865" y="11.4746" width="0.814299" height="0.807907" fill="white"/>
<rect x="43.1289" y="11.4746" width="0.814299" height="0.807907" fill="white"/>
<rect x="43.9434" y="11.4746" width="0.814299" height="0.807907" fill="white"/>
<rect x="44.7578" y="10.6675" width="0.814299" height="0.807907" fill="white"/>
<rect x="44.7578" y="12.2827" width="0.814299" height="0.807907" fill="white"/>
<rect x="47.2012" y="12.2827" width="0.814299" height="0.807907" fill="white"/>
<rect x="48.0146" y="11.4746" width="0.814299" height="0.807907" fill="white"/>
<rect x="49.6436" y="12.2827" width="0.814299" height="0.807907" fill="white"/>
<rect x="49.6436" y="13.8994" width="0.814299" height="0.807907" fill="white"/>
<rect x="51.2725" y="14.7075" width="0.814299" height="0.807907" fill="white"/>
<rect x="54.5293" y="14.7075" width="0.814299" height="0.807907" fill="white"/>
<path d="M50.083 46.3525H52.001V50.6993H28.123C28.123 49.3695 28.1287 48.0389 28.1401 46.7075V46.3452H30.0411V48.8109H50.0952V46.3452L50.083 46.3525Z" fill="white"/>
<path d="M31.8987 37.0144H30.0537V27.6976H31.8987V25.8405H33.7827V23.9593H35.6666V22.1167H44.4292V23.9472H46.3229V25.8188H48.1971V27.6783H50.0591V37.0144H48.2165C48.2165 36.8937 48.1898 36.7729 48.1898 36.6546C48.1898 33.7873 48.1898 30.9207 48.1898 28.055V27.6783H46.2937V25.8212H44.4219V23.9955H35.6593V25.8429H33.7875V27.7H31.9133V28.1009C31.9133 30.9586 31.9133 33.8154 31.9133 36.6715C31.9133 36.7923 31.8963 36.913 31.8866 37.0313L31.8987 37.0144Z" fill="white"/>
<path d="M33.814 42.6071C33.814 42.3391 33.7897 42.071 33.7873 41.8006C33.7873 40.9457 33.7873 40.0884 33.7873 39.2335V38.9026H31.8984V37.0142H33.8286V38.8857H35.6931V40.7525H37.5625V42.6216H34.4517C34.2376 42.6216 34.0234 42.6047 33.8092 42.5951L33.814 42.6071Z" fill="white"/>
<path d="M48.2261 37.0142V38.893H46.3373V39.2335C46.3373 40.2478 46.3373 41.262 46.3373 42.2763C46.3373 42.3874 46.3202 42.4961 46.3105 42.6072C46.257 42.6207 46.2024 42.6296 46.1474 42.6337H42.7787C42.7117 42.6299 42.6451 42.6218 42.5791 42.6096V40.7452H44.4606V38.8785H46.3251V37.0262H48.2309L48.2261 37.0142Z" fill="white"/>
<path d="M31.8984 44.5075V42.6069H33.814V44.5075H31.8984Z" fill="white"/>
<path d="M46.3105 42.6069H48.2261V44.5075H46.3154V42.6069H46.3105Z" fill="white"/>
<path d="M30.041 46.3533V44.5083H31.8982V46.3509H30.041V46.3533Z" fill="white"/>
<path d="M48.2261 44.5083H50.0832V46.3533H48.2236V44.5107L48.2261 44.5083Z" fill="white"/>
<path d="M73 34.25V22H83.5V23.75H76.5V27.25H83.5V29H85.25V32.5H83.5V34.25H73ZM76.5 32.5H81.75V29H76.5V32.5ZM90.5 30.75H92.25V32.5H90.5V34.25H87V25.5H90.5V30.75ZM99.25 25.5V34.25H95.75V29H94V27.25H95.75V25.5H99.25ZM92.25 29H94V30.75H92.25V29ZM102.75 34.25V32.5H101V30.75H104.5V32.5H109.75V30.75H106.25V29H109.75V27.25H104.5V29H101V27.25H102.75V25.5H111.5V27.25H113.25V29H111.5V30.75H113.25V32.5H111.5V34.25H102.75ZM115 34.25V25.5H118.5V29H123.75V25.5H127.25V34.25H123.75V30.75H118.5V34.25H115ZM130.75 34.25V32.5H129V27.25H130.75V25.5H139.5V27.25H141.25V30.75H132.5V32.5H139.5V34.25H130.75ZM132.5 29H137.75V27.25H132.5V29ZM144.75 34.25V32.5H143V27.25H144.75V25.5H153.5V27.25H155.25V29H151.75V27.25H146.5V32.5H151.75V30.75H155.25V32.5H153.5V34.25H144.75ZM174.5 30.75H176.25V32.5H174.5V34.25H171V25.5H174.5V30.75ZM183.25 25.5V34.25H179.75V29H178V27.25H179.75V25.5H183.25ZM176.25 29H178V30.75H176.25V29ZM73 48.25V39.5H85.25V48.25H81.75V41.25H76.5V48.25H73ZM99.25 41.25V46.5H97.5V48.25H90.5V50H87V39.5H90.5V41.25H92.25V43H90.5V46.5H95.75V41.25H92.25V39.5H97.5V41.25H99.25ZM102.75 48.25V46.5H101V41.25H102.75V39.5H111.5V41.25H113.25V44.75H104.5V46.5H111.5V48.25H102.75ZM104.5 43H109.75V41.25H104.5V43ZM127.25 46.5H129V50H125.5V48.25H118.5V50H115V46.5H116.75V44.75H118.5V39.5H127.25V46.5ZM120.25 46.5H123.75V41.25H120.25V46.5ZM129 48.25V39.5H141.25V48.25H137.75V41.25H132.5V48.25H129ZM155.25 41.25V46.5H153.5V48.25H146.5V50H143V39.5H146.5V41.25H148.25V43H146.5V46.5H151.75V41.25H148.25V39.5H153.5V41.25H155.25ZM160.5 44.75H162.25V46.5H160.5V48.25H157V39.5H160.5V44.75ZM169.25 39.5V48.25H165.75V43H164V41.25H165.75V39.5H169.25ZM162.25 43H164V44.75H162.25V43ZM171 48.25V39.5H174.5V43H179.75V39.5H183.25V48.25H179.75V44.75H174.5V48.25H171ZM188.5 44.75H190.25V46.5H188.5V48.25H185V39.5H188.5V44.75ZM197.25 39.5V48.25H193.75V43H192V41.25H193.75V39.5H197.25ZM190.25 43H192V44.75H190.25V43ZM204.25 41.25V43H202.5V48.25H199V39.5H202.5V41.25H204.25ZM211.25 39.5V48.25H207.75V43H206V41.25H207.75V39.5H211.25ZM204.25 43H206V46.5H204.25V43ZM214.75 48.25V46.5H213V44.75H214.75V43H221.75V41.25H214.75V39.5H223.5V41.25H225.25V48.25H214.75ZM216.5 46.5H221.75V44.75H216.5V46.5ZM232.25 48.25V41.25H228.75V39.5H239.25V41.25H235.75V48.25H232.25ZM242.75 48.25V46.5H241V41.25H242.75V39.5H251.5V41.25H253.25V44.75H244.5V46.5H251.5V48.25H242.75ZM244.5 43H249.75V41.25H244.5V43ZM267.25 39.5V48.25H263.75V41.25H260.25V46.5H258.5V48.25H255V44.75H256.75V43H258.5V39.5H267.25ZM269 48.25V39.5H272.5V43H279.5V44.75H281.25V46.5H279.5V48.25H269ZM272.5 46.5H277.75V44.75H272.5V46.5ZM74.75 62.25V60.5H73V55.25H74.75V53.5H83.5V55.25H85.25V57H81.75V55.25H76.5V60.5H81.75V58.75H85.25V60.5H83.5V62.25H74.75ZM92.25 62.25V55.25H88.75V53.5H99.25V55.25H95.75V62.25H92.25ZM101 62.25V53.5H111.5V55.25H113.25V57H111.5V58.75H113.25V60.5H111.5V62.25H101ZM104.5 57H109.75V55.25H104.5V57ZM104.5 60.5H109.75V58.75H104.5V60.5ZM116.75 62.25V60.5H115V55.25H116.75V53.5H125.5V55.25H127.25V60.5H125.5V62.25H116.75ZM118.5 60.5H123.75V55.25H118.5V60.5Z" fill="white"/>
</svg>
