<svg width="301" height="76" viewBox="0 0 301 76" fill="none" xmlns="http://www.w3.org/2000/svg">
<path d="M12.0227 75.9289V72.5729H6.1714L5.91529 69.1044C3.02906 68.4462 3.02906 68.4463 2.99951 64.954C2.99951 62.0487 2.76309 61.7878 0 61.266V14.6806C0.147759 14.5502 0.226564 14.4138 0.315219 14.4019C2.90593 14.0758 2.99951 13.9454 3.01429 10.6488C3.01429 9.54595 3.01429 8.44313 3.01429 7.23358L5.96947 7.06163L6.10738 3.5575H11.9291L12.1212 0H288.958L289.233 3.5575H295.031C295.085 4.82634 295.129 5.86394 295.188 7.115H298.104V10.6251C298.104 14.058 298.148 14.1055 301 14.5205V61.3609C298.183 61.8767 298.119 61.9538 298.114 65.6536C298.114 66.6379 298.114 67.6221 298.114 68.7783L295.218 69.0451C295.159 70.1716 295.104 71.2092 295.035 72.5077H289.253C289.164 73.7943 289.091 74.8201 289.002 76L12.0227 75.9289Z" fill="white"/>
<path d="M65.1152 36.52H65.9295V37.3279H65.1152V36.52Z" fill="#6A797D"/>
<path d="M65.1152 37.3279H65.9295V38.1358H65.1152V37.3279Z" fill="#6A797D"/>
<path d="M65.1152 38.1358H65.9295V38.9437H65.1152V38.1358Z" fill="#6A797D"/>
<path d="M64.3009 38.9437H65.1152V39.7516H64.3009V38.9437Z" fill="#6A797D"/>
<path d="M64.3009 39.7516H65.1152V40.5595H64.3009V39.7516Z" fill="#6A797D"/>
<path d="M64.3009 40.5595H65.1152V41.3675H64.3009V40.5595Z" fill="#6A797D"/>
<path d="M64.3009 41.3675H65.1152V42.1754H64.3009V41.3675Z" fill="#6A797D"/>
<path d="M64.3009 42.1754H65.1152V42.9833H64.3009V42.1754Z" fill="#6A797D"/>
<path d="M64.3009 42.9833H65.1152V43.7912H64.3009V42.9833Z" fill="#6A797D"/>
<path d="M63.4866 43.7912H64.3009V44.5991H63.4866V43.7912Z" fill="#6A797D"/>
<path d="M63.4866 44.5991H64.3009V45.407H63.4866V44.5991Z" fill="#6A797D"/>
<path d="M63.4866 45.407H64.3009V46.2149H63.4866V45.407Z" fill="#6A797D"/>
<path d="M62.6723 46.2149H63.4866V47.0228H62.6723V46.2149Z" fill="#6A797D"/>
<path d="M62.6723 47.0228H63.4866V47.8307H62.6723V47.0228Z" fill="#6A797D"/>
<path d="M61.858 47.8307H62.6723V48.6386H61.858V47.8307Z" fill="#6A797D"/>
<path d="M61.858 48.6386H62.6723V49.4465H61.858V48.6386Z" fill="#6A797D"/>
<path d="M61.0437 49.4465H61.858V50.2544H61.0437V49.4465Z" fill="#6A797D"/>
<path d="M60.2294 50.2544H61.0437V51.0623H60.2294V50.2544Z" fill="#6A797D"/>
<path d="M60.2294 51.0623H61.0437V51.8702H60.2294V51.0623Z" fill="#6A797D"/>
<path d="M59.4151 51.8702H60.2294V52.6781H59.4151V51.8702Z" fill="#6A797D"/>
<path d="M58.6008 52.6781H59.4151V53.4861H58.6008V52.6781Z" fill="#6A797D"/>
<path d="M57.7865 53.4861H58.6008V54.294H57.7865V53.4861Z" fill="#6A797D"/>
<path d="M56.9722 54.294H57.7865V55.1019H56.9722V54.294Z" fill="#6A797D"/>
<path d="M56.1579 55.1019H56.9722V55.9098H56.1579V55.1019Z" fill="#6A797D"/>
<path d="M55.3436 55.9098H56.1579V56.7177H55.3436V55.9098Z" fill="#6A797D"/>
<path d="M54.5293 56.7177H55.3436V57.5256H54.5293V56.7177Z" fill="#6A797D"/>
<path d="M53.715 57.5256H54.5293V58.3335H53.715V57.5256Z" fill="#6A797D"/>
<path d="M52.0864 58.3335H52.9007V59.1414H52.0864V58.3335Z" fill="#6A797D"/>
<path d="M50.4578 59.1414H51.2721V59.9493H50.4578V59.1414Z" fill="#6A797D"/>
<path d="M48.8292 59.9493H49.6435V60.7572H48.8292V59.9493Z" fill="#6A797D"/>
<path d="M46.3863 60.7572H47.2006V61.5651H46.3863V60.7572Z" fill="#6A797D"/>
<path d="M43.1291 61.5651H43.9434V62.373H43.1291V61.5651Z" fill="#6A797D"/>
<path d="M39.0576 61.5651H39.8719V62.373H39.0576V61.5651Z" fill="#6A797D"/>
<path d="M39.8719 61.5651H40.6862V62.373H39.8719V61.5651Z" fill="#6A797D"/>
<path d="M40.6862 61.5651H41.5005V62.373H40.6862V61.5651Z" fill="#6A797D"/>
<path d="M41.5005 61.5651H42.3148V62.373H41.5005V61.5651Z" fill="#6A797D"/>
<path d="M42.3148 61.5651H43.1291V62.373H42.3148V61.5651Z" fill="#6A797D"/>
<path d="M43.9434 61.5651H44.7577V62.373H43.9434V61.5651Z" fill="#6A797D"/>
<path d="M44.7577 61.5651H45.572V62.373H44.7577V61.5651Z" fill="#6A797D"/>
<path d="M45.572 60.7572H46.3863V61.5651H45.572V60.7572Z" fill="#6A797D"/>
<path d="M47.2006 60.7572H48.0149V61.5651H47.2006V60.7572Z" fill="#6A797D"/>
<path d="M48.0149 59.9493H48.8292V60.7572H48.0149V59.9493Z" fill="#6A797D"/>
<path d="M49.6435 59.9493H50.4578V60.7572H49.6435V59.9493Z" fill="#6A797D"/>
<path d="M51.2721 59.1414H52.0864V59.9493H51.2721V59.1414Z" fill="#6A797D"/>
<path d="M52.9007 57.5256H53.715V58.3335H52.9007V57.5256Z" fill="#6A797D"/>
<path d="M13 36.52H13.8143V37.3279H13V36.52Z" fill="#6A797D"/>
<path d="M13 37.3279H13.8143V38.1358H13V37.3279Z" fill="#6A797D"/>
<path d="M13 38.1358H13.8143V38.9437H13V38.1358Z" fill="#6A797D"/>
<path d="M13 38.9437H13.8143V39.7516H13V38.9437Z" fill="#6A797D"/>
<path d="M13 39.7516H13.8143V40.5595H13V39.7516Z" fill="#6A797D"/>
<path d="M13.8143 40.5595H14.6286V41.3675H13.8143V40.5595Z" fill="#6A797D"/>
<path d="M13.8143 41.3675H14.6286V42.1754H13.8143V41.3675Z" fill="#6A797D"/>
<path d="M13.8143 42.1754H14.6286V42.9833H13.8143V42.1754Z" fill="#6A797D"/>
<path d="M13.8143 42.9833H14.6286V43.7912H13.8143V42.9833Z" fill="#6A797D"/>
<path d="M14.6286 43.7912H15.4429V44.5991H14.6286V43.7912Z" fill="#6A797D"/>
<path d="M14.6286 44.5991H15.4429V45.407H14.6286V44.5991Z" fill="#6A797D"/>
<path d="M14.6286 45.407H15.4429V46.2149H14.6286V45.407Z" fill="#6A797D"/>
<path d="M15.4429 46.2149H16.2572V47.0228H15.4429V46.2149Z" fill="#6A797D"/>
<path d="M15.4429 47.0228H16.2572V47.8307H15.4429V47.0228Z" fill="#6A797D"/>
<path d="M16.2572 47.8307H17.0715V48.6386H16.2572V47.8307Z" fill="#6A797D"/>
<path d="M16.2572 48.6386H17.0715V49.4465H16.2572V48.6386Z" fill="#6A797D"/>
<path d="M17.0715 49.4465H17.8858V50.2544H17.0715V49.4465Z" fill="#6A797D"/>
<path d="M17.0715 50.2544H17.8858V51.0623H17.0715V50.2544Z" fill="#6A797D"/>
<path d="M17.8858 51.0623H18.7001V51.8702H17.8858V51.0623Z" fill="#6A797D"/>
<path d="M18.7001 51.8702H19.5144V52.6781H18.7001V51.8702Z" fill="#6A797D"/>
<path d="M19.5144 52.6781H20.3287V53.4861H19.5144V52.6781Z" fill="#6A797D"/>
<path d="M19.5144 53.4861H20.3287V54.294H19.5144V53.4861Z" fill="#6A797D"/>
<path d="M20.3287 54.294H21.143V55.1019H20.3287V54.294Z" fill="#6A797D"/>
<path d="M21.143 55.1019H21.9573V55.9098H21.143V55.1019Z" fill="#6A797D"/>
<path d="M22.7716 55.9098H23.5859V56.7177H22.7716V55.9098Z" fill="#6A797D"/>
<path d="M23.5859 56.7177H24.4002V57.5256H23.5859V56.7177Z" fill="#6A797D"/>
<path d="M24.4002 57.5256H25.2145V58.3335H24.4002V57.5256Z" fill="#6A797D"/>
<path d="M26.0288 58.3335H26.8431V59.1414H26.0288V58.3335Z" fill="#6A797D"/>
<path d="M27.6574 59.1414H28.4717V59.9493H27.6574V59.1414Z" fill="#6A797D"/>
<path d="M29.286 59.9493H30.1003V60.7572H29.286V59.9493Z" fill="#6A797D"/>
<path d="M31.7289 60.7572H32.5432V61.5651H31.7289V60.7572Z" fill="#6A797D"/>
<path d="M34.9861 61.5651H35.8004V62.373H34.9861V61.5651Z" fill="#6A797D"/>
<path d="M21.9573 55.1019H22.7716V55.9098H21.9573V55.1019Z" fill="#6A797D"/>
<path d="M25.2145 57.5256H26.0288V58.3335H25.2145V57.5256Z" fill="#6A797D"/>
<path d="M26.8431 59.1414H27.6574V59.9493H26.8431V59.1414Z" fill="#6A797D"/>
<path d="M28.4717 59.9493H29.286V60.7572H28.4717V59.9493Z" fill="#6A797D"/>
<path d="M30.1003 59.9493H30.9146V60.7572H30.1003V59.9493Z" fill="#6A797D"/>
<path d="M30.9146 60.7572H31.7289V61.5651H30.9146V60.7572Z" fill="#6A797D"/>
<path d="M32.5432 60.7572H33.3575V61.5651H32.5432V60.7572Z" fill="#6A797D"/>
<path d="M33.3575 61.5651H34.1718V62.373H33.3575V61.5651Z" fill="#6A797D"/>
<path d="M34.1718 61.5651H34.9861V62.373H34.1718V61.5651Z" fill="#6A797D"/>
<path d="M35.8004 61.5651H36.6147V62.373H35.8004V61.5651Z" fill="#6A797D"/>
<path d="M36.6147 61.5651H37.429V62.373H36.6147V61.5651Z" fill="#6A797D"/>
<path d="M37.429 61.5651H38.2433V62.373H37.429V61.5651Z" fill="#6A797D"/>
<path d="M38.2433 61.5651H39.0576V62.373H38.2433V61.5651Z" fill="#6A797D"/>
<path d="M36.6147 10.667H37.429V11.4749H36.6147V10.667Z" fill="#6A797D"/>
<path d="M31.7289 11.4749H32.5432V12.2828H31.7289V11.4749Z" fill="#6A797D"/>
<path d="M29.286 12.2828H30.1003V13.0907H29.286V12.2828Z" fill="#6A797D"/>
<path d="M27.6574 13.0907H28.4717V13.8986H27.6574V13.0907Z" fill="#6A797D"/>
<path d="M26.0288 13.8986H26.8431V14.7065H26.0288V13.8986Z" fill="#6A797D"/>
<path d="M25.2145 14.7065H26.0288V15.5144H25.2145V14.7065Z" fill="#6A797D"/>
<path d="M23.5859 15.5144H24.4002V16.3223H23.5859V15.5144Z" fill="#6A797D"/>
<path d="M22.7716 16.3223H23.5859V17.1302H22.7716V16.3223Z" fill="#6A797D"/>
<path d="M21.9573 17.1302H22.7716V17.9382H21.9573V17.1302Z" fill="#6A797D"/>
<path d="M21.143 17.9382H21.9573V18.7461H21.143V17.9382Z" fill="#6A797D"/>
<path d="M20.3287 18.7461H21.143V19.554H20.3287V18.7461Z" fill="#6A797D"/>
<path d="M19.5144 19.554H20.3287V20.3619H19.5144V19.554Z" fill="#6A797D"/>
<path d="M18.7001 20.3619H19.5144V21.1698H18.7001V20.3619Z" fill="#6A797D"/>
<path d="M17.8858 21.1698H18.7001V21.9777H17.8858V21.1698Z" fill="#6A797D"/>
<path d="M17.0715 21.9777H17.8858V22.7856H17.0715V21.9777Z" fill="#6A797D"/>
<path d="M17.0715 22.7856H17.8858V23.5935H17.0715V22.7856Z" fill="#6A797D"/>
<path d="M16.2572 23.5935H17.0715V24.4014H16.2572V23.5935Z" fill="#6A797D"/>
<path d="M16.2572 24.4014H17.0715V25.2093H16.2572V24.4014Z" fill="#6A797D"/>
<path d="M15.4429 25.2093H16.2572V26.0172H15.4429V25.2093Z" fill="#6A797D"/>
<path d="M15.4429 26.0172H16.2572V26.8251H15.4429V26.0172Z" fill="#6A797D"/>
<path d="M14.6286 26.8251H15.4429V27.633H14.6286V26.8251Z" fill="#6A797D"/>
<path d="M14.6286 27.633H15.4429V28.4409H14.6286V27.633Z" fill="#6A797D"/>
<path d="M14.6286 28.4409H15.4429V29.2488H14.6286V28.4409Z" fill="#6A797D"/>
<path d="M13.8143 29.2488H14.6286V30.0568H13.8143V29.2488Z" fill="#6A797D"/>
<path d="M13.8143 30.0568H14.6286V30.8647H13.8143V30.0568Z" fill="#6A797D"/>
<path d="M13.8143 30.8647H14.6286V31.6726H13.8143V30.8647Z" fill="#6A797D"/>
<path d="M13.8143 31.6726H14.6286V32.4805H13.8143V31.6726Z" fill="#6A797D"/>
<path d="M13 32.4805H13.8143V33.2884H13V32.4805Z" fill="#6A797D"/>
<path d="M13 33.2884H13.8143V34.0963H13V33.2884Z" fill="#6A797D"/>
<path d="M13 34.0963H13.8143V34.9042H13V34.0963Z" fill="#6A797D"/>
<path d="M13 34.9042H13.8143V35.7121H13V34.9042Z" fill="#6A797D"/>
<path d="M13 35.7121H13.8143V36.52H13V35.7121Z" fill="#6A797D"/>
<path d="M24.4002 14.7065H25.2145V15.5144H24.4002V14.7065Z" fill="#6A797D"/>
<path d="M26.8431 13.8986H27.6574V14.7065H26.8431V13.8986Z" fill="#6A797D"/>
<path d="M28.4717 13.0907H29.286V13.8986H28.4717V13.0907Z" fill="#6A797D"/>
<path d="M30.1003 12.2828H30.9146V13.0907H30.1003V12.2828Z" fill="#6A797D"/>
<path d="M30.9146 11.4749H31.7289V12.2828H30.9146V11.4749Z" fill="#6A797D"/>
<path d="M32.5432 11.4749H33.3575V12.2828H32.5432V11.4749Z" fill="#6A797D"/>
<path d="M33.3575 11.4749H34.1718V12.2828H33.3575V11.4749Z" fill="#6A797D"/>
<path d="M34.1718 10.667H34.9861V11.4749H34.1718V10.667Z" fill="#6A797D"/>
<path d="M34.9861 10.667H35.8004V11.4749H34.9861V10.667Z" fill="#6A797D"/>
<path d="M35.8004 10.667H36.6147V11.4749H35.8004V10.667Z" fill="#6A797D"/>
<path d="M37.429 10.667H38.2433V11.4749H37.429V10.667Z" fill="#6A797D"/>
<path d="M38.2433 10.667H39.0576V11.4749H38.2433V10.667Z" fill="#6A797D"/>
<path d="M39.0576 10.667H39.8719V11.4749H39.0576V10.667Z" fill="#6A797D"/>
<path d="M41.5005 10.667H42.3148V11.4749H41.5005V10.667Z" fill="#6A797D"/>
<path d="M45.572 11.4749H46.3863V12.2828H45.572V11.4749Z" fill="#6A797D"/>
<path d="M48.0149 12.2828H48.8292V13.0907H48.0149V12.2828Z" fill="#6A797D"/>
<path d="M50.4578 13.0907H51.2721V13.8986H50.4578V13.0907Z" fill="#6A797D"/>
<path d="M52.0864 13.8986H52.9007V14.7065H52.0864V13.8986Z" fill="#6A797D"/>
<path d="M52.9007 14.7065H53.715V15.5144H52.9007V14.7065Z" fill="#6A797D"/>
<path d="M54.5293 15.5144H55.3436V16.3223H54.5293V15.5144Z" fill="#6A797D"/>
<path d="M55.3436 16.3223H56.1579V17.1302H55.3436V16.3223Z" fill="#6A797D"/>
<path d="M56.1579 17.1302H56.9722V17.9382H56.1579V17.1302Z" fill="#6A797D"/>
<path d="M56.9722 17.9382H57.7865V18.7461H56.9722V17.9382Z" fill="#6A797D"/>
<path d="M57.7865 18.7461H58.6008V19.554H57.7865V18.7461Z" fill="#6A797D"/>
<path d="M58.6008 19.554H59.4151V20.3619H58.6008V19.554Z" fill="#6A797D"/>
<path d="M59.4151 20.3619H60.2294V21.1698H59.4151V20.3619Z" fill="#6A797D"/>
<path d="M60.2294 21.1698H61.0437V21.9777H60.2294V21.1698Z" fill="#6A797D"/>
<path d="M60.2294 21.9777H61.0437V22.7856H60.2294V21.9777Z" fill="#6A797D"/>
<path d="M61.0437 22.7856H61.858V23.5935H61.0437V22.7856Z" fill="#6A797D"/>
<path d="M61.858 23.5935H62.6723V24.4014H61.858V23.5935Z" fill="#6A797D"/>
<path d="M61.858 24.4014H62.6723V25.2093H61.858V24.4014Z" fill="#6A797D"/>
<path d="M62.6723 25.2093H63.4866V26.0172H62.6723V25.2093Z" fill="#6A797D"/>
<path d="M62.6723 26.0172H63.4866V26.8251H62.6723V26.0172Z" fill="#6A797D"/>
<path d="M62.6723 26.8251H63.4866V27.633H62.6723V26.8251Z" fill="#6A797D"/>
<path d="M63.4866 27.633H64.3009V28.4409H63.4866V27.633Z" fill="#6A797D"/>
<path d="M63.4866 28.4409H64.3009V29.2488H63.4866V28.4409Z" fill="#6A797D"/>
<path d="M63.4866 29.2488H64.3009V30.0568H63.4866V29.2488Z" fill="#6A797D"/>
<path d="M64.3009 30.0568H65.1152V30.8647H64.3009V30.0568Z" fill="#6A797D"/>
<path d="M64.3009 30.8647H65.1152V31.6726H64.3009V30.8647Z" fill="#6A797D"/>
<path d="M64.3009 31.6726H65.1152V32.4805H64.3009V31.6726Z" fill="#6A797D"/>
<path d="M64.3009 32.4805H65.1152V33.2884H64.3009V32.4805Z" fill="#6A797D"/>
<path d="M64.3009 33.2884H65.1152V34.0963H64.3009V33.2884Z" fill="#6A797D"/>
<path d="M65.1152 34.0963H65.9295V34.9042H65.1152V34.0963Z" fill="#6A797D"/>
<path d="M65.1152 34.9042H65.9295V35.7121H65.1152V34.9042Z" fill="#6A797D"/>
<path d="M65.1152 35.7121H65.9295V36.52H65.1152V35.7121Z" fill="#6A797D"/>
<path d="M39.8719 10.667H40.6862V11.4749H39.8719V10.667Z" fill="#6A797D"/>
<path d="M40.6862 10.667H41.5005V11.4749H40.6862V10.667Z" fill="#6A797D"/>
<path d="M42.3148 10.667H43.1291V11.4749H42.3148V10.667Z" fill="#6A797D"/>
<path d="M43.1291 10.667H43.9434V11.4749H43.1291V10.667Z" fill="#6A797D"/>
<path d="M43.9434 10.667H44.7577V11.4749H43.9434V10.667Z" fill="#6A797D"/>
<path d="M44.7577 11.4749H45.572V12.2828H44.7577V11.4749Z" fill="#6A797D"/>
<path d="M46.3863 11.4749H47.2006V12.2828H46.3863V11.4749Z" fill="#6A797D"/>
<path d="M47.2006 11.4749H48.0149V12.2828H47.2006V11.4749Z" fill="#6A797D"/>
<path d="M48.8292 12.2828H49.6435V13.0907H48.8292V12.2828Z" fill="#6A797D"/>
<path d="M49.6435 13.0907H50.4578V13.8986H49.6435V13.0907Z" fill="#6A797D"/>
<path d="M51.2721 13.8986H52.0864V14.7065H51.2721V13.8986Z" fill="#6A797D"/>
<path d="M53.715 14.7065H54.5293V15.5144H53.715V14.7065Z" fill="#6A797D"/>
<rect x="65.1152" y="36.5205" width="0.814299" height="0.807907" fill="#6A797D"/>
<rect x="65.1152" y="37.3291" width="0.814299" height="0.807907" fill="#6A797D"/>
<rect x="65.1152" y="38.1362" width="0.814299" height="0.807907" fill="#6A797D"/>
<rect x="64.3008" y="38.9443" width="0.814299" height="0.807907" fill="#6A797D"/>
<rect x="64.3008" y="39.7515" width="0.814299" height="0.807907" fill="#6A797D"/>
<rect x="64.3008" y="40.5596" width="0.814299" height="0.807907" fill="#6A797D"/>
<rect x="64.3008" y="41.3682" width="0.814299" height="0.807907" fill="#6A797D"/>
<rect x="64.3008" y="42.1763" width="0.814299" height="0.807907" fill="#6A797D"/>
<rect x="64.3008" y="42.9834" width="0.814299" height="0.807907" fill="#6A797D"/>
<rect x="63.4863" y="43.7915" width="0.814299" height="0.807907" fill="#6A797D"/>
<rect x="63.4863" y="44.5996" width="0.814299" height="0.807907" fill="#6A797D"/>
<rect x="63.4863" y="45.4077" width="0.814299" height="0.807907" fill="#6A797D"/>
<rect x="62.6729" y="46.2153" width="0.814299" height="0.807907" fill="#6A797D"/>
<rect x="62.6729" y="47.0234" width="0.814299" height="0.807907" fill="#6A797D"/>
<rect x="61.8584" y="47.8306" width="0.814299" height="0.807907" fill="#6A797D"/>
<rect x="61.8584" y="48.6387" width="0.814299" height="0.807907" fill="#6A797D"/>
<rect x="61.0439" y="49.4468" width="0.814299" height="0.807907" fill="#6A797D"/>
<rect x="60.2295" y="50.2549" width="0.814299" height="0.807907" fill="#6A797D"/>
<rect x="60.2295" y="51.0625" width="0.814299" height="0.807907" fill="#6A797D"/>
<rect x="59.415" y="51.8706" width="0.814299" height="0.807907" fill="#6A797D"/>
<rect x="58.6006" y="52.6787" width="0.814299" height="0.807907" fill="#6A797D"/>
<rect x="57.7871" y="53.4868" width="0.814299" height="0.807907" fill="#6A797D"/>
<rect x="56.9727" y="54.2939" width="0.814299" height="0.807907" fill="#6A797D"/>
<rect x="56.1582" y="55.1021" width="0.814299" height="0.807907" fill="#6A797D"/>
<rect x="55.3438" y="55.9106" width="0.814299" height="0.807907" fill="#6A797D"/>
<rect x="54.5293" y="56.7188" width="0.814299" height="0.807907" fill="#6A797D"/>
<rect x="53.7148" y="57.5259" width="0.814299" height="0.807907" fill="#6A797D"/>
<rect x="52.0869" y="58.334" width="0.814299" height="0.807907" fill="#6A797D"/>
<rect x="50.458" y="59.1411" width="0.814299" height="0.807907" fill="#6A797D"/>
<rect x="48.8291" y="59.9492" width="0.814299" height="0.807907" fill="#6A797D"/>
<rect x="46.3867" y="60.7578" width="0.814299" height="0.807907" fill="#6A797D"/>
<rect x="43.1289" y="61.5659" width="0.814299" height="0.807907" fill="#6A797D"/>
<rect x="39.0576" y="61.5659" width="0.814299" height="0.807907" fill="#6A797D"/>
<rect x="39.8721" y="61.5659" width="0.814299" height="0.807907" fill="#6A797D"/>
<rect x="40.6865" y="61.5659" width="0.814299" height="0.807907" fill="#6A797D"/>
<rect x="41.501" y="61.5659" width="0.814299" height="0.807907" fill="#6A797D"/>
<rect x="42.3145" y="61.5659" width="0.814299" height="0.807907" fill="#6A797D"/>
<rect x="43.9434" y="61.5659" width="0.814299" height="0.807907" fill="#6A797D"/>
<rect x="44.7578" y="61.5659" width="0.814299" height="0.807907" fill="#6A797D"/>
<rect x="45.5723" y="60.7578" width="0.814299" height="0.807907" fill="#6A797D"/>
<rect x="47.2012" y="60.7578" width="0.814299" height="0.807907" fill="#6A797D"/>
<rect x="48.0146" y="59.9492" width="0.814299" height="0.807907" fill="#6A797D"/>
<rect x="49.6436" y="59.9492" width="0.814299" height="0.807907" fill="#6A797D"/>
<rect x="51.2725" y="59.1411" width="0.814299" height="0.807907" fill="#6A797D"/>
<rect x="52.9004" y="57.5259" width="0.814299" height="0.807907" fill="#6A797D"/>
<rect x="13" y="36.5205" width="0.814299" height="0.807907" fill="#6A797D"/>
<rect x="13" y="37.3291" width="0.814299" height="0.807907" fill="#6A797D"/>
<rect x="13" y="38.1362" width="0.814299" height="0.807907" fill="#6A797D"/>
<rect x="13" y="38.9443" width="0.814299" height="0.807907" fill="#6A797D"/>
<rect x="13" y="39.7515" width="0.814299" height="0.807907" fill="#6A797D"/>
<rect x="13.8145" y="40.5596" width="0.814299" height="0.807907" fill="#6A797D"/>
<rect x="13.8145" y="41.3682" width="0.814299" height="0.807907" fill="#6A797D"/>
<rect x="13.8145" y="42.1763" width="0.814299" height="0.807907" fill="#6A797D"/>
<rect x="13.8145" y="42.9834" width="0.814299" height="0.807907" fill="#6A797D"/>
<rect x="14.6289" y="43.7915" width="0.814299" height="0.807907" fill="#6A797D"/>
<rect x="14.6289" y="44.5996" width="0.814299" height="0.807907" fill="#6A797D"/>
<rect x="14.6289" y="45.4077" width="0.814299" height="0.807907" fill="#6A797D"/>
<rect x="15.4434" y="46.2153" width="0.814299" height="0.807907" fill="#6A797D"/>
<rect x="15.4434" y="47.0234" width="0.814299" height="0.807907" fill="#6A797D"/>
<rect x="16.2578" y="47.8306" width="0.814299" height="0.807907" fill="#6A797D"/>
<rect x="16.2578" y="48.6387" width="0.814299" height="0.807907" fill="#6A797D"/>
<rect x="17.0713" y="49.4468" width="0.814299" height="0.807907" fill="#6A797D"/>
<rect x="17.0713" y="50.2549" width="0.814299" height="0.807907" fill="#6A797D"/>
<rect x="17.8857" y="51.0625" width="0.814299" height="0.807907" fill="#6A797D"/>
<rect x="18.7002" y="51.8706" width="0.814299" height="0.807907" fill="#6A797D"/>
<rect x="19.5146" y="52.6787" width="0.814299" height="0.807907" fill="#6A797D"/>
<rect x="19.5146" y="53.4868" width="0.814299" height="0.807907" fill="#6A797D"/>
<rect x="20.3291" y="54.2939" width="0.814299" height="0.807907" fill="#6A797D"/>
<rect x="21.1436" y="55.1021" width="0.814299" height="0.807907" fill="#6A797D"/>
<rect x="22.7715" y="55.9106" width="0.814299" height="0.807907" fill="#6A797D"/>
<rect x="23.5859" y="56.7188" width="0.814299" height="0.807907" fill="#6A797D"/>
<rect x="24.4004" y="57.5259" width="0.814299" height="0.807907" fill="#6A797D"/>
<rect x="26.0293" y="58.334" width="0.814299" height="0.807907" fill="#6A797D"/>
<rect x="27.6572" y="59.1411" width="0.814299" height="0.807907" fill="#6A797D"/>
<rect x="29.2861" y="59.9492" width="0.814299" height="0.807907" fill="#6A797D"/>
<rect x="31.7295" y="60.7578" width="0.814299" height="0.807907" fill="#6A797D"/>
<rect x="34.9863" y="61.5659" width="0.814299" height="0.807907" fill="#6A797D"/>
<rect x="21.957" y="55.1021" width="0.814299" height="0.807907" fill="#6A797D"/>
<rect x="25.2148" y="57.5259" width="0.814299" height="0.807907" fill="#6A797D"/>
<rect x="26.8428" y="59.1411" width="0.814299" height="0.807907" fill="#6A797D"/>
<rect x="28.4717" y="59.9492" width="0.814299" height="0.807907" fill="#6A797D"/>
<rect x="30.1006" y="59.9492" width="0.814299" height="0.807907" fill="#6A797D"/>
<rect x="30.915" y="60.7578" width="0.814299" height="0.807907" fill="#6A797D"/>
<rect x="32.543" y="60.7578" width="0.814299" height="0.807907" fill="#6A797D"/>
<rect x="33.3574" y="61.5659" width="0.814299" height="0.807907" fill="#6A797D"/>
<rect x="34.1719" y="61.5659" width="0.814299" height="0.807907" fill="#6A797D"/>
<rect x="35.8008" y="61.5659" width="0.814299" height="0.807907" fill="#6A797D"/>
<rect x="36.6152" y="61.5659" width="0.814299" height="0.807907" fill="#6A797D"/>
<rect x="37.4287" y="61.5659" width="0.814299" height="0.807907" fill="#6A797D"/>
<rect x="38.2432" y="61.5659" width="0.814299" height="0.807907" fill="#6A797D"/>
<rect x="36.6152" y="10.6675" width="0.814299" height="0.807907" fill="#6A797D"/>
<rect x="31.7295" y="11.4746" width="0.814299" height="0.807907" fill="#6A797D"/>
<rect x="29.2861" y="12.2827" width="0.814299" height="0.807907" fill="#6A797D"/>
<rect x="27.6572" y="13.0913" width="0.814299" height="0.807907" fill="#6A797D"/>
<rect x="26.0293" y="13.8994" width="0.814299" height="0.807907" fill="#6A797D"/>
<rect x="25.2148" y="14.7075" width="0.814299" height="0.807907" fill="#6A797D"/>
<rect x="23.5859" y="15.5146" width="0.814299" height="0.807907" fill="#6A797D"/>
<rect x="22.7715" y="16.3228" width="0.814299" height="0.807907" fill="#6A797D"/>
<rect x="21.957" y="17.1309" width="0.814299" height="0.807907" fill="#6A797D"/>
<rect x="21.1436" y="17.939" width="0.814299" height="0.807907" fill="#6A797D"/>
<rect x="20.3291" y="18.7466" width="0.814299" height="0.807907" fill="#6A797D"/>
<rect x="19.5146" y="19.5547" width="0.814299" height="0.807907" fill="#6A797D"/>
<rect x="18.7002" y="20.3618" width="0.814299" height="0.807907" fill="#6A797D"/>
<rect x="17.8857" y="21.1699" width="0.814299" height="0.807907" fill="#6A797D"/>
<rect x="17.0713" y="21.978" width="0.814299" height="0.807907" fill="#6A797D"/>
<rect x="17.0713" y="22.7866" width="0.814299" height="0.807907" fill="#6A797D"/>
<rect x="16.2578" y="23.5938" width="0.814299" height="0.807907" fill="#6A797D"/>
<rect x="16.2578" y="24.4019" width="0.814299" height="0.807907" fill="#6A797D"/>
<rect x="15.4434" y="25.21" width="0.814299" height="0.807907" fill="#6A797D"/>
<rect x="15.4434" y="26.0181" width="0.814299" height="0.807907" fill="#6A797D"/>
<rect x="14.6289" y="26.8252" width="0.814299" height="0.807907" fill="#6A797D"/>
<rect x="14.6289" y="27.6338" width="0.814299" height="0.807907" fill="#6A797D"/>
<rect x="14.6289" y="28.4409" width="0.814299" height="0.807907" fill="#6A797D"/>
<rect x="13.8145" y="29.249" width="0.814299" height="0.807907" fill="#6A797D"/>
<rect x="13.8145" y="30.0571" width="0.814299" height="0.807907" fill="#6A797D"/>
<rect x="13.8145" y="30.8652" width="0.814299" height="0.807907" fill="#6A797D"/>
<rect x="13.8145" y="31.6729" width="0.814299" height="0.807907" fill="#6A797D"/>
<rect x="13" y="32.481" width="0.814299" height="0.807907" fill="#6A797D"/>
<rect x="13" y="33.2891" width="0.814299" height="0.807907" fill="#6A797D"/>
<rect x="13" y="34.0972" width="0.814299" height="0.807907" fill="#6A797D"/>
<rect x="13" y="34.9043" width="0.814299" height="0.807907" fill="#6A797D"/>
<rect x="13" y="35.7124" width="0.814299" height="0.807907" fill="#6A797D"/>
<rect x="24.4004" y="14.7075" width="0.814299" height="0.807907" fill="#6A797D"/>
<rect x="26.8428" y="13.8994" width="0.814299" height="0.807907" fill="#6A797D"/>
<rect x="28.4717" y="13.0913" width="0.814299" height="0.807907" fill="#6A797D"/>
<rect x="30.1006" y="12.2827" width="0.814299" height="0.807907" fill="#6A797D"/>
<rect x="30.915" y="11.4746" width="0.814299" height="0.807907" fill="#6A797D"/>
<rect x="32.543" y="11.4746" width="0.814299" height="0.807907" fill="#6A797D"/>
<rect x="33.3574" y="11.4746" width="0.814299" height="0.807907" fill="#6A797D"/>
<rect x="34.1719" y="10.6675" width="0.814299" height="0.807907" fill="#6A797D"/>
<rect x="34.9863" y="10.6675" width="0.814299" height="0.807907" fill="#6A797D"/>
<rect x="35.8008" y="10.6675" width="0.814299" height="0.807907" fill="#6A797D"/>
<rect x="37.4287" y="10.6675" width="0.814299" height="0.807907" fill="#6A797D"/>
<rect x="38.2432" y="10.6675" width="0.814299" height="0.807907" fill="#6A797D"/>
<rect x="39.0576" y="10.6675" width="0.814299" height="0.807907" fill="#6A797D"/>
<rect x="41.501" y="10.6675" width="0.814299" height="0.807907" fill="#6A797D"/>
<rect x="45.5723" y="11.4746" width="0.814299" height="0.807907" fill="#6A797D"/>
<rect x="48.0146" y="12.2827" width="0.814299" height="0.807907" fill="#6A797D"/>
<rect x="50.458" y="13.0913" width="0.814299" height="0.807907" fill="#6A797D"/>
<rect x="52.0869" y="13.8994" width="0.814299" height="0.807907" fill="#6A797D"/>
<rect x="52.9004" y="14.7075" width="0.814299" height="0.807907" fill="#6A797D"/>
<rect x="54.5293" y="15.5146" width="0.814299" height="0.807907" fill="#6A797D"/>
<rect x="55.3438" y="16.3228" width="0.814299" height="0.807907" fill="#6A797D"/>
<rect x="56.1582" y="17.1309" width="0.814299" height="0.807907" fill="#6A797D"/>
<rect x="56.9727" y="17.939" width="0.814299" height="0.807907" fill="#6A797D"/>
<rect x="57.7871" y="18.7466" width="0.814299" height="0.807907" fill="#6A797D"/>
<rect x="58.6006" y="19.5547" width="0.814299" height="0.807907" fill="#6A797D"/>
<rect x="59.415" y="20.3618" width="0.814299" height="0.807907" fill="#6A797D"/>
<rect x="60.2295" y="21.1699" width="0.814299" height="0.807907" fill="#6A797D"/>
<rect x="60.2295" y="21.978" width="0.814299" height="0.807907" fill="#6A797D"/>
<rect x="61.0439" y="22.7866" width="0.814299" height="0.807907" fill="#6A797D"/>
<rect x="61.8584" y="23.5938" width="0.814299" height="0.807907" fill="#6A797D"/>
<rect x="61.8584" y="24.4019" width="0.814299" height="0.807907" fill="#6A797D"/>
<rect x="62.6729" y="25.21" width="0.814299" height="0.807907" fill="#6A797D"/>
<rect x="62.6729" y="26.0181" width="0.814299" height="0.807907" fill="#6A797D"/>
<rect x="62.6729" y="26.8252" width="0.814299" height="0.807907" fill="#6A797D"/>
<rect x="63.4863" y="27.6338" width="0.814299" height="0.807907" fill="#6A797D"/>
<rect x="63.4863" y="28.4409" width="0.814299" height="0.807907" fill="#6A797D"/>
<rect x="63.4863" y="29.249" width="0.814299" height="0.807907" fill="#6A797D"/>
<rect x="64.3008" y="30.0571" width="0.814299" height="0.807907" fill="#6A797D"/>
<rect x="64.3008" y="30.8652" width="0.814299" height="0.807907" fill="#6A797D"/>
<rect x="64.3008" y="31.6729" width="0.814299" height="0.807907" fill="#6A797D"/>
<rect x="64.3008" y="32.481" width="0.814299" height="0.807907" fill="#6A797D"/>
<rect x="64.3008" y="33.2891" width="0.814299" height="0.807907" fill="#6A797D"/>
<rect x="65.1152" y="34.0972" width="0.814299" height="0.807907" fill="#6A797D"/>
<rect x="65.1152" y="34.9043" width="0.814299" height="0.807907" fill="#6A797D"/>
<rect x="65.1152" y="35.7124" width="0.814299" height="0.807907" fill="#6A797D"/>
<rect x="39.8721" y="10.6675" width="0.814299" height="0.807907" fill="#6A797D"/>
<rect x="40.6865" y="10.6675" width="0.814299" height="0.807907" fill="#6A797D"/>
<rect x="42.3145" y="10.6675" width="0.814299" height="0.807907" fill="#6A797D"/>
<rect x="43.1289" y="10.6675" width="0.814299" height="0.807907" fill="#6A797D"/>
<rect x="43.9434" y="10.6675" width="0.814299" height="0.807907" fill="#6A797D"/>
<rect x="44.7578" y="11.4746" width="0.814299" height="0.807907" fill="#6A797D"/>
<rect x="46.3867" y="11.4746" width="0.814299" height="0.807907" fill="#6A797D"/>
<rect x="47.2012" y="11.4746" width="0.814299" height="0.807907" fill="#6A797D"/>
<rect x="48.8291" y="12.2827" width="0.814299" height="0.807907" fill="#6A797D"/>
<rect x="49.6436" y="13.0913" width="0.814299" height="0.807907" fill="#6A797D"/>
<rect x="51.2725" y="13.8994" width="0.814299" height="0.807907" fill="#6A797D"/>
<rect x="53.7148" y="14.7075" width="0.814299" height="0.807907" fill="#6A797D"/>
<rect x="65.9297" y="36.5205" width="0.814299" height="0.807907" fill="#6A797D"/>
<rect x="65.9297" y="37.3291" width="0.814299" height="0.807907" fill="#6A797D"/>
<rect x="65.9297" y="38.1362" width="0.814299" height="0.807907" fill="#6A797D"/>
<rect x="65.9297" y="38.9443" width="0.814299" height="0.807907" fill="#6A797D"/>
<rect x="65.1152" y="38.9443" width="0.814299" height="0.807907" fill="#6A797D"/>
<rect x="65.1152" y="39.7515" width="0.814299" height="0.807907" fill="#6A797D"/>
<rect x="65.1152" y="40.5596" width="0.814299" height="0.807907" fill="#6A797D"/>
<rect x="65.1152" y="41.3682" width="0.814299" height="0.807907" fill="#6A797D"/>
<rect x="65.1152" y="42.1763" width="0.814299" height="0.807907" fill="#6A797D"/>
<rect x="65.1152" y="42.9834" width="0.814299" height="0.807907" fill="#6A797D"/>
<rect x="65.1152" y="43.7915" width="0.814299" height="0.807907" fill="#6A797D"/>
<rect x="64.3008" y="43.7915" width="0.814299" height="0.807907" fill="#6A797D"/>
<rect x="64.3008" y="44.5996" width="0.814299" height="0.807907" fill="#6A797D"/>
<rect x="64.3008" y="45.4077" width="0.814299" height="0.807907" fill="#6A797D"/>
<rect x="64.3008" y="46.2153" width="0.814299" height="0.807907" fill="#6A797D"/>
<rect x="63.4863" y="46.2153" width="0.814299" height="0.807907" fill="#6A797D"/>
<rect x="63.4863" y="47.0234" width="0.814299" height="0.807907" fill="#6A797D"/>
<rect x="63.4863" y="47.8306" width="0.814299" height="0.807907" fill="#6A797D"/>
<rect x="62.6729" y="47.8306" width="0.814299" height="0.807907" fill="#6A797D"/>
<rect x="62.6729" y="48.6387" width="0.814299" height="0.807907" fill="#6A797D"/>
<rect x="62.6729" y="49.4468" width="0.814299" height="0.807907" fill="#6A797D"/>
<rect x="61.8584" y="49.4468" width="0.814299" height="0.807907" fill="#6A797D"/>
<rect x="61.8584" y="50.2549" width="0.814299" height="0.807907" fill="#6A797D"/>
<rect x="61.0439" y="50.2549" width="0.814299" height="0.807907" fill="#6A797D"/>
<rect x="61.0439" y="51.0625" width="0.814299" height="0.807907" fill="#6A797D"/>
<rect x="61.0439" y="51.8706" width="0.814299" height="0.807907" fill="#6A797D"/>
<rect x="60.2295" y="51.8706" width="0.814299" height="0.807907" fill="#6A797D"/>
<rect x="60.2295" y="52.6787" width="0.814299" height="0.807907" fill="#6A797D"/>
<rect x="59.415" y="52.6787" width="0.814299" height="0.807907" fill="#6A797D"/>
<rect x="59.415" y="53.4868" width="0.814299" height="0.807907" fill="#6A797D"/>
<rect x="58.6006" y="53.4868" width="0.814299" height="0.807907" fill="#6A797D"/>
<rect x="58.6006" y="54.2939" width="0.814299" height="0.807907" fill="#6A797D"/>
<rect x="57.7871" y="54.2939" width="0.814299" height="0.807907" fill="#6A797D"/>
<rect x="57.7871" y="55.1021" width="0.814299" height="0.807907" fill="#6A797D"/>
<rect x="56.9727" y="55.1021" width="0.814299" height="0.807907" fill="#6A797D"/>
<rect x="56.9727" y="55.9106" width="0.814299" height="0.807907" fill="#6A797D"/>
<rect x="56.1582" y="55.9106" width="0.814299" height="0.807907" fill="#6A797D"/>
<rect x="56.1582" y="56.7188" width="0.814299" height="0.807907" fill="#6A797D"/>
<rect x="55.3438" y="56.7188" width="0.814299" height="0.807907" fill="#6A797D"/>
<rect x="55.3438" y="57.5259" width="0.814299" height="0.807907" fill="#6A797D"/>
<rect x="54.5293" y="57.5259" width="0.814299" height="0.807907" fill="#6A797D"/>
<rect x="54.5293" y="58.334" width="0.814299" height="0.807907" fill="#6A797D"/>
<rect x="53.7148" y="58.334" width="0.814299" height="0.807907" fill="#6A797D"/>
<rect x="52.0869" y="57.5259" width="0.814299" height="0.807907" fill="#6A797D"/>
<rect x="52.9004" y="58.334" width="0.814299" height="0.807907" fill="#6A797D"/>
<rect x="52.9004" y="59.1411" width="0.814299" height="0.807907" fill="#6A797D"/>
<rect x="52.0869" y="59.1411" width="0.814299" height="0.807907" fill="#6A797D"/>
<rect x="51.2725" y="59.9492" width="0.814299" height="0.807907" fill="#6A797D"/>
<rect x="50.458" y="59.9492" width="0.814299" height="0.807907" fill="#6A797D"/>
<rect x="49.6436" y="60.7578" width="0.814299" height="0.807907" fill="#6A797D"/>
<rect x="48.8291" y="60.7578" width="0.814299" height="0.807907" fill="#6A797D"/>
<rect x="47.2012" y="61.5659" width="0.814299" height="0.807907" fill="#6A797D"/>
<rect x="46.3867" y="61.5659" width="0.814299" height="0.807907" fill="#6A797D"/>
<rect x="43.9434" y="62.373" width="0.814299" height="0.807907" fill="#6A797D"/>
<rect x="43.1289" y="62.373" width="0.814299" height="0.807907" fill="#6A797D"/>
<rect x="39.8721" y="62.373" width="0.814299" height="0.807907" fill="#6A797D"/>
<rect x="39.0576" y="62.373" width="0.814299" height="0.807907" fill="#6A797D"/>
<rect x="40.6865" y="62.373" width="0.814299" height="0.807907" fill="#6A797D"/>
<rect x="41.501" y="62.373" width="0.814299" height="0.807907" fill="#6A797D"/>
<rect x="42.3145" y="62.373" width="0.814299" height="0.807907" fill="#6A797D"/>
<rect x="44.7578" y="62.373" width="0.814299" height="0.807907" fill="#6A797D"/>
<rect x="45.5723" y="61.5659" width="0.814299" height="0.807907" fill="#6A797D"/>
<rect x="45.5723" y="62.373" width="0.814299" height="0.807907" fill="#6A797D"/>
<rect x="48.0146" y="60.7578" width="0.814299" height="0.807907" fill="#6A797D"/>
<rect x="48.0146" y="61.5659" width="0.814299" height="0.807907" fill="#6A797D"/>
<rect x="50.458" y="60.7578" width="0.814299" height="0.807907" fill="#6A797D"/>
<rect x="52.0869" y="59.9492" width="0.814299" height="0.807907" fill="#6A797D"/>
<rect x="13.8145" y="36.5205" width="0.814299" height="0.807907" fill="#6A797D"/>
<rect x="13.8145" y="37.3291" width="0.814299" height="0.807907" fill="#6A797D"/>
<rect x="13.8145" y="38.1362" width="0.814299" height="0.807907" fill="#6A797D"/>
<rect x="13.8145" y="38.9443" width="0.814299" height="0.807907" fill="#6A797D"/>
<rect x="13.8145" y="39.7515" width="0.814299" height="0.807907" fill="#6A797D"/>
<rect x="13" y="40.5596" width="0.814299" height="0.807907" fill="#6A797D"/>
<rect x="14.6289" y="40.5596" width="0.814299" height="0.807907" fill="#6A797D"/>
<rect x="14.6289" y="41.3682" width="0.814299" height="0.807907" fill="#6A797D"/>
<rect x="14.6289" y="42.1763" width="0.814299" height="0.807907" fill="#6A797D"/>
<rect x="14.6289" y="42.9834" width="0.814299" height="0.807907" fill="#6A797D"/>
<rect x="13.8145" y="43.7915" width="0.814299" height="0.807907" fill="#6A797D"/>
<rect x="15.4434" y="43.7915" width="0.814299" height="0.807907" fill="#6A797D"/>
<rect x="15.4434" y="44.5996" width="0.814299" height="0.807907" fill="#6A797D"/>
<rect x="15.4434" y="45.4077" width="0.814299" height="0.807907" fill="#6A797D"/>
<rect x="14.6289" y="46.2153" width="0.814299" height="0.807907" fill="#6A797D"/>
<rect x="16.2578" y="46.2153" width="0.814299" height="0.807907" fill="#6A797D"/>
<rect x="16.2578" y="47.0234" width="0.814299" height="0.807907" fill="#6A797D"/>
<rect x="15.4434" y="47.8306" width="0.814299" height="0.807907" fill="#6A797D"/>
<rect x="17.0713" y="47.8306" width="0.814299" height="0.807907" fill="#6A797D"/>
<rect x="17.0713" y="48.6387" width="0.814299" height="0.807907" fill="#6A797D"/>
<rect x="16.2578" y="49.4468" width="0.814299" height="0.807907" fill="#6A797D"/>
<rect x="17.8857" y="49.4468" width="0.814299" height="0.807907" fill="#6A797D"/>
<rect x="17.8857" y="50.2549" width="0.814299" height="0.807907" fill="#6A797D"/>
<rect x="17.0713" y="51.0625" width="0.814299" height="0.807907" fill="#6A797D"/>
<rect x="18.7002" y="51.0625" width="0.814299" height="0.807907" fill="#6A797D"/>
<rect x="17.8857" y="51.8706" width="0.814299" height="0.807907" fill="#6A797D"/>
<rect x="19.5146" y="51.8706" width="0.814299" height="0.807907" fill="#6A797D"/>
<rect x="18.7002" y="52.6787" width="0.814299" height="0.807907" fill="#6A797D"/>
<rect x="20.3291" y="52.6787" width="0.814299" height="0.807907" fill="#6A797D"/>
<rect x="20.3291" y="53.4868" width="0.814299" height="0.807907" fill="#6A797D"/>
<rect x="19.5146" y="54.2939" width="0.814299" height="0.807907" fill="#6A797D"/>
<rect x="21.1436" y="54.2939" width="0.814299" height="0.807907" fill="#6A797D"/>
<rect x="20.3291" y="55.1021" width="0.814299" height="0.807907" fill="#6A797D"/>
<rect x="21.957" y="55.9106" width="0.814299" height="0.807907" fill="#6A797D"/>
<rect x="21.1436" y="55.9106" width="0.814299" height="0.807907" fill="#6A797D"/>
<rect x="23.5859" y="55.9106" width="0.814299" height="0.807907" fill="#6A797D"/>
<rect x="22.7715" y="56.7188" width="0.814299" height="0.807907" fill="#6A797D"/>
<rect x="24.4004" y="56.7188" width="0.814299" height="0.807907" fill="#6A797D"/>
<rect x="23.5859" y="57.5259" width="0.814299" height="0.807907" fill="#6A797D"/>
<rect x="25.2148" y="58.334" width="0.814299" height="0.807907" fill="#6A797D"/>
<rect x="24.4004" y="58.334" width="0.814299" height="0.807907" fill="#6A797D"/>
<rect x="26.0293" y="57.5259" width="0.814299" height="0.807907" fill="#6A797D"/>
<rect x="26.8428" y="58.334" width="0.814299" height="0.807907" fill="#6A797D"/>
<rect x="26.0293" y="59.1411" width="0.814299" height="0.807907" fill="#6A797D"/>
<rect x="28.4717" y="59.1411" width="0.814299" height="0.807907" fill="#6A797D"/>
<rect x="27.6572" y="59.9492" width="0.814299" height="0.807907" fill="#6A797D"/>
<rect x="30.1006" y="60.7578" width="0.814299" height="0.807907" fill="#6A797D"/>
<rect x="29.2861" y="60.7578" width="0.814299" height="0.807907" fill="#6A797D"/>
<rect x="32.543" y="61.5659" width="0.814299" height="0.807907" fill="#6A797D"/>
<rect x="31.7295" y="61.5659" width="0.814299" height="0.807907" fill="#6A797D"/>
<rect x="35.8008" y="62.373" width="0.814299" height="0.807907" fill="#6A797D"/>
<rect x="34.9863" y="62.373" width="0.814299" height="0.807907" fill="#6A797D"/>
<rect x="22.7715" y="55.1021" width="0.814299" height="0.807907" fill="#6A797D"/>
<rect x="26.8428" y="59.9492" width="0.814299" height="0.807907" fill="#6A797D"/>
<rect x="28.4717" y="60.7578" width="0.814299" height="0.807907" fill="#6A797D"/>
<rect x="30.915" y="59.9492" width="0.814299" height="0.807907" fill="#6A797D"/>
<rect x="30.915" y="61.5659" width="0.814299" height="0.807907" fill="#6A797D"/>
<rect x="33.3574" y="60.7578" width="0.814299" height="0.807907" fill="#6A797D"/>
<rect x="34.1719" y="62.373" width="0.814299" height="0.807907" fill="#6A797D"/>
<rect x="33.3574" y="62.373" width="0.814299" height="0.807907" fill="#6A797D"/>
<rect x="36.6152" y="62.373" width="0.814299" height="0.807907" fill="#6A797D"/>
<rect x="37.4287" y="62.373" width="0.814299" height="0.807907" fill="#6A797D"/>
<rect x="38.2432" y="62.373" width="0.814299" height="0.807907" fill="#6A797D"/>
<rect x="37.4287" y="11.4746" width="0.814299" height="0.807907" fill="#6A797D"/>
<rect x="36.6152" y="11.4746" width="0.814299" height="0.807907" fill="#6A797D"/>
<rect x="32.543" y="12.2827" width="0.814299" height="0.807907" fill="#6A797D"/>
<rect x="31.7295" y="12.2827" width="0.814299" height="0.807907" fill="#6A797D"/>
<rect x="30.1006" y="13.0913" width="0.814299" height="0.807907" fill="#6A797D"/>
<rect x="29.2861" y="13.0913" width="0.814299" height="0.807907" fill="#6A797D"/>
<rect x="28.4717" y="13.8994" width="0.814299" height="0.807907" fill="#6A797D"/>
<rect x="27.6572" y="13.8994" width="0.814299" height="0.807907" fill="#6A797D"/>
<rect x="26.8428" y="14.7075" width="0.814299" height="0.807907" fill="#6A797D"/>
<rect x="26.0293" y="14.7075" width="0.814299" height="0.807907" fill="#6A797D"/>
<rect x="26.0293" y="15.5146" width="0.814299" height="0.807907" fill="#6A797D"/>
<rect x="25.2148" y="15.5146" width="0.814299" height="0.807907" fill="#6A797D"/>
<rect x="24.4004" y="15.5146" width="0.814299" height="0.807907" fill="#6A797D"/>
<rect x="24.4004" y="16.3228" width="0.814299" height="0.807907" fill="#6A797D"/>
<rect x="23.5859" y="16.3228" width="0.814299" height="0.807907" fill="#6A797D"/>
<rect x="23.5859" y="17.1309" width="0.814299" height="0.807907" fill="#6A797D"/>
<rect x="22.7715" y="17.1309" width="0.814299" height="0.807907" fill="#6A797D"/>
<rect x="21.957" y="16.3228" width="0.814299" height="0.807907" fill="#6A797D"/>
<rect x="22.7715" y="17.939" width="0.814299" height="0.807907" fill="#6A797D"/>
<rect x="21.957" y="17.939" width="0.814299" height="0.807907" fill="#6A797D"/>
<rect x="21.957" y="18.7466" width="0.814299" height="0.807907" fill="#6A797D"/>
<rect x="21.1436" y="18.7466" width="0.814299" height="0.807907" fill="#6A797D"/>
<rect x="21.1436" y="19.5547" width="0.814299" height="0.807907" fill="#6A797D"/>
<rect x="20.3291" y="19.5547" width="0.814299" height="0.807907" fill="#6A797D"/>
<rect x="20.3291" y="20.3618" width="0.814299" height="0.807907" fill="#6A797D"/>
<rect x="19.5146" y="20.3618" width="0.814299" height="0.807907" fill="#6A797D"/>
<rect x="19.5146" y="21.1699" width="0.814299" height="0.807907" fill="#6A797D"/>
<rect x="18.7002" y="21.1699" width="0.814299" height="0.807907" fill="#6A797D"/>
<rect x="18.7002" y="21.978" width="0.814299" height="0.807907" fill="#6A797D"/>
<rect x="17.8857" y="21.978" width="0.814299" height="0.807907" fill="#6A797D"/>
<rect x="17.8857" y="22.7866" width="0.814299" height="0.807907" fill="#6A797D"/>
<rect x="17.8857" y="23.5938" width="0.814299" height="0.807907" fill="#6A797D"/>
<rect x="17.0713" y="23.5938" width="0.814299" height="0.807907" fill="#6A797D"/>
<rect x="16.2578" y="22.7866" width="0.814299" height="0.807907" fill="#6A797D"/>
<rect x="17.0713" y="24.4019" width="0.814299" height="0.807907" fill="#6A797D"/>
<rect x="17.0713" y="25.21" width="0.814299" height="0.807907" fill="#6A797D"/>
<rect x="16.2578" y="25.21" width="0.814299" height="0.807907" fill="#6A797D"/>
<rect x="16.2578" y="26.0181" width="0.814299" height="0.807907" fill="#6A797D"/>
<rect x="16.2578" y="26.8252" width="0.814299" height="0.807907" fill="#6A797D"/>
<rect x="15.4434" y="26.8252" width="0.814299" height="0.807907" fill="#6A797D"/>
<rect x="15.4434" y="27.6338" width="0.814299" height="0.807907" fill="#6A797D"/>
<rect x="15.4434" y="28.4409" width="0.814299" height="0.807907" fill="#6A797D"/>
<rect x="15.4434" y="29.249" width="0.814299" height="0.807907" fill="#6A797D"/>
<rect x="14.6289" y="29.249" width="0.814299" height="0.807907" fill="#6A797D"/>
<rect x="14.6289" y="30.0571" width="0.814299" height="0.807907" fill="#6A797D"/>
<rect x="14.6289" y="30.8652" width="0.814299" height="0.807907" fill="#6A797D"/>
<rect x="14.6289" y="31.6729" width="0.814299" height="0.807907" fill="#6A797D"/>
<rect x="14.6289" y="32.481" width="0.814299" height="0.807907" fill="#6A797D"/>
<rect x="13.8145" y="32.481" width="0.814299" height="0.807907" fill="#6A797D"/>
<rect x="13.8145" y="33.2891" width="0.814299" height="0.807907" fill="#6A797D"/>
<rect x="13.8145" y="34.0972" width="0.814299" height="0.807907" fill="#6A797D"/>
<rect x="13.8145" y="34.9043" width="0.814299" height="0.807907" fill="#6A797D"/>
<rect x="13.8145" y="35.7124" width="0.814299" height="0.807907" fill="#6A797D"/>
<rect x="27.6572" y="14.7075" width="0.814299" height="0.807907" fill="#6A797D"/>
<rect x="29.2861" y="13.8994" width="0.814299" height="0.807907" fill="#6A797D"/>
<rect x="30.915" y="12.2827" width="0.814299" height="0.807907" fill="#6A797D"/>
<rect x="30.915" y="13.0913" width="0.814299" height="0.807907" fill="#6A797D"/>
<rect x="33.3574" y="12.2827" width="0.814299" height="0.807907" fill="#6A797D"/>
<rect x="34.1719" y="11.4746" width="0.814299" height="0.807907" fill="#6A797D"/>
<rect x="34.1719" y="12.2827" width="0.814299" height="0.807907" fill="#6A797D"/>
<rect x="34.9863" y="11.4746" width="0.814299" height="0.807907" fill="#6A797D"/>
<rect x="35.8008" y="11.4746" width="0.814299" height="0.807907" fill="#6A797D"/>
<rect x="38.2432" y="11.4746" width="0.814299" height="0.807907" fill="#6A797D"/>
<rect x="39.0576" y="11.4746" width="0.814299" height="0.807907" fill="#6A797D"/>
<rect x="39.8721" y="11.4746" width="0.814299" height="0.807907" fill="#6A797D"/>
<rect x="42.3145" y="11.4746" width="0.814299" height="0.807907" fill="#6A797D"/>
<rect x="41.501" y="11.4746" width="0.814299" height="0.807907" fill="#6A797D"/>
<rect x="46.3867" y="12.2827" width="0.814299" height="0.807907" fill="#6A797D"/>
<rect x="45.5723" y="12.2827" width="0.814299" height="0.807907" fill="#6A797D"/>
<rect x="48.8291" y="13.0913" width="0.814299" height="0.807907" fill="#6A797D"/>
<rect x="48.0146" y="13.0913" width="0.814299" height="0.807907" fill="#6A797D"/>
<rect x="51.2725" y="13.0913" width="0.814299" height="0.807907" fill="#6A797D"/>
<rect x="50.458" y="13.8994" width="0.814299" height="0.807907" fill="#6A797D"/>
<rect x="52.9004" y="13.8994" width="0.814299" height="0.807907" fill="#6A797D"/>
<rect x="52.0869" y="14.7075" width="0.814299" height="0.807907" fill="#6A797D"/>
<rect x="53.7148" y="15.5146" width="0.814299" height="0.807907" fill="#6A797D"/>
<rect x="52.9004" y="15.5146" width="0.814299" height="0.807907" fill="#6A797D"/>
<rect x="55.3438" y="15.5146" width="0.814299" height="0.807907" fill="#6A797D"/>
<rect x="54.5293" y="16.3228" width="0.814299" height="0.807907" fill="#6A797D"/>
<rect x="56.1582" y="16.3228" width="0.814299" height="0.807907" fill="#6A797D"/>
<rect x="55.3438" y="17.1309" width="0.814299" height="0.807907" fill="#6A797D"/>
<rect x="56.9727" y="17.1309" width="0.814299" height="0.807907" fill="#6A797D"/>
<rect x="56.1582" y="17.939" width="0.814299" height="0.807907" fill="#6A797D"/>
<rect x="57.7871" y="17.939" width="0.814299" height="0.807907" fill="#6A797D"/>
<rect x="56.9727" y="18.7466" width="0.814299" height="0.807907" fill="#6A797D"/>
<rect x="58.6006" y="18.7466" width="0.814299" height="0.807907" fill="#6A797D"/>
<rect x="57.7871" y="19.5547" width="0.814299" height="0.807907" fill="#6A797D"/>
<rect x="59.415" y="19.5547" width="0.814299" height="0.807907" fill="#6A797D"/>
<rect x="58.6006" y="20.3618" width="0.814299" height="0.807907" fill="#6A797D"/>
<rect x="60.2295" y="20.3618" width="0.814299" height="0.807907" fill="#6A797D"/>
<rect x="59.415" y="21.1699" width="0.814299" height="0.807907" fill="#6A797D"/>
<rect x="61.0439" y="21.1699" width="0.814299" height="0.807907" fill="#6A797D"/>
<rect x="61.0439" y="21.978" width="0.814299" height="0.807907" fill="#6A797D"/>
<rect x="60.2295" y="22.7866" width="0.814299" height="0.807907" fill="#6A797D"/>
<rect x="61.8584" y="22.7866" width="0.814299" height="0.807907" fill="#6A797D"/>
<rect x="61.0439" y="23.5938" width="0.814299" height="0.807907" fill="#6A797D"/>
<rect x="62.6729" y="23.5938" width="0.814299" height="0.807907" fill="#6A797D"/>
<rect x="62.6729" y="24.4019" width="0.814299" height="0.807907" fill="#6A797D"/>
<rect x="61.8584" y="25.21" width="0.814299" height="0.807907" fill="#6A797D"/>
<rect x="63.4863" y="25.21" width="0.814299" height="0.807907" fill="#6A797D"/>
<rect x="63.4863" y="26.0181" width="0.814299" height="0.807907" fill="#6A797D"/>
<rect x="63.4863" y="26.8252" width="0.814299" height="0.807907" fill="#6A797D"/>
<rect x="62.6729" y="27.6338" width="0.814299" height="0.807907" fill="#6A797D"/>
<rect x="64.3008" y="27.6338" width="0.814299" height="0.807907" fill="#6A797D"/>
<rect x="64.3008" y="28.4409" width="0.814299" height="0.807907" fill="#6A797D"/>
<rect x="64.3008" y="29.249" width="0.814299" height="0.807907" fill="#6A797D"/>
<rect x="63.4863" y="30.0571" width="0.814299" height="0.807907" fill="#6A797D"/>
<rect x="65.1152" y="30.0571" width="0.814299" height="0.807907" fill="#6A797D"/>
<rect x="65.1152" y="30.8652" width="0.814299" height="0.807907" fill="#6A797D"/>
<rect x="65.1152" y="31.6729" width="0.814299" height="0.807907" fill="#6A797D"/>
<rect x="65.1152" y="32.481" width="0.814299" height="0.807907" fill="#6A797D"/>
<rect x="65.1152" y="33.2891" width="0.814299" height="0.807907" fill="#6A797D"/>
<rect x="64.3008" y="34.0972" width="0.814299" height="0.807907" fill="#6A797D"/>
<rect x="65.9297" y="34.0972" width="0.814299" height="0.807907" fill="#6A797D"/>
<rect x="65.9297" y="34.9043" width="0.814299" height="0.807907" fill="#6A797D"/>
<rect x="65.9297" y="35.7124" width="0.814299" height="0.807907" fill="#6A797D"/>
<rect x="40.6865" y="11.4746" width="0.814299" height="0.807907" fill="#6A797D"/>
<rect x="43.1289" y="11.4746" width="0.814299" height="0.807907" fill="#6A797D"/>
<rect x="43.9434" y="11.4746" width="0.814299" height="0.807907" fill="#6A797D"/>
<rect x="44.7578" y="10.6675" width="0.814299" height="0.807907" fill="#6A797D"/>
<rect x="44.7578" y="12.2827" width="0.814299" height="0.807907" fill="#6A797D"/>
<rect x="47.2012" y="12.2827" width="0.814299" height="0.807907" fill="#6A797D"/>
<rect x="48.0146" y="11.4746" width="0.814299" height="0.807907" fill="#6A797D"/>
<rect x="49.6436" y="12.2827" width="0.814299" height="0.807907" fill="#6A797D"/>
<rect x="49.6436" y="13.8994" width="0.814299" height="0.807907" fill="#6A797D"/>
<rect x="51.2725" y="14.7075" width="0.814299" height="0.807907" fill="#6A797D"/>
<rect x="54.5293" y="14.7075" width="0.814299" height="0.807907" fill="#6A797D"/>
<path d="M50.083 46.3525H52.001V50.6993H28.123C28.123 49.3695 28.1287 48.0389 28.1401 46.7075V46.3452H30.0411V48.8109H50.0952V46.3452L50.083 46.3525Z" fill="#6A797D"/>
<path d="M31.8987 37.0144H30.0537V27.6976H31.8987V25.8405H33.7827V23.9593H35.6666V22.1167H44.4292V23.9472H46.3229V25.8188H48.1971V27.6783H50.0591V37.0144H48.2165C48.2165 36.8937 48.1898 36.7729 48.1898 36.6546C48.1898 33.7873 48.1898 30.9207 48.1898 28.055V27.6783H46.2937V25.8212H44.4219V23.9955H35.6593V25.8429H33.7875V27.7H31.9133V28.1009C31.9133 30.9586 31.9133 33.8154 31.9133 36.6715C31.9133 36.7923 31.8963 36.913 31.8866 37.0313L31.8987 37.0144Z" fill="#6A797D"/>
<path d="M33.814 42.6071C33.814 42.3391 33.7897 42.071 33.7873 41.8006C33.7873 40.9457 33.7873 40.0884 33.7873 39.2335V38.9026H31.8984V37.0142H33.8286V38.8857H35.6931V40.7525H37.5625V42.6216H34.4517C34.2376 42.6216 34.0234 42.6047 33.8092 42.5951L33.814 42.6071Z" fill="#6A797D"/>
<path d="M48.2261 37.0142V38.893H46.3373V39.2335C46.3373 40.2478 46.3373 41.262 46.3373 42.2763C46.3373 42.3874 46.3202 42.4961 46.3105 42.6072C46.257 42.6207 46.2024 42.6296 46.1474 42.6337H42.7787C42.7117 42.6299 42.6451 42.6218 42.5791 42.6096V40.7452H44.4606V38.8785H46.3251V37.0262H48.2309L48.2261 37.0142Z" fill="#6A797D"/>
<path d="M31.8984 44.5075V42.6069H33.814V44.5075H31.8984Z" fill="#6A797D"/>
<path d="M46.3105 42.6069H48.2261V44.5075H46.3154V42.6069H46.3105Z" fill="#6A797D"/>
<path d="M30.041 46.3533V44.5083H31.8982V46.3509H30.041V46.3533Z" fill="#6A797D"/>
<path d="M48.2261 44.5083H50.0832V46.3533H48.2236V44.5107L48.2261 44.5083Z" fill="#6A797D"/>
<path d="M73 34.25V22H83.5V23.75H76.5V27.25H83.5V29H85.25V32.5H83.5V34.25H73ZM76.5 32.5H81.75V29H76.5V32.5ZM90.5 30.75H92.25V32.5H90.5V34.25H87V25.5H90.5V30.75ZM99.25 25.5V34.25H95.75V29H94V27.25H95.75V25.5H99.25ZM92.25 29H94V30.75H92.25V29ZM102.75 34.25V32.5H101V30.75H104.5V32.5H109.75V30.75H106.25V29H109.75V27.25H104.5V29H101V27.25H102.75V25.5H111.5V27.25H113.25V29H111.5V30.75H113.25V32.5H111.5V34.25H102.75ZM115 34.25V25.5H118.5V29H123.75V25.5H127.25V34.25H123.75V30.75H118.5V34.25H115ZM130.75 34.25V32.5H129V27.25H130.75V25.5H139.5V27.25H141.25V30.75H132.5V32.5H139.5V34.25H130.75ZM132.5 29H137.75V27.25H132.5V29ZM144.75 34.25V32.5H143V27.25H144.75V25.5H153.5V27.25H155.25V29H151.75V27.25H146.5V32.5H151.75V30.75H155.25V32.5H153.5V34.25H144.75ZM174.5 30.75H176.25V32.5H174.5V34.25H171V25.5H174.5V30.75ZM183.25 25.5V34.25H179.75V29H178V27.25H179.75V25.5H183.25ZM176.25 29H178V30.75H176.25V29ZM73 48.25V39.5H85.25V48.25H81.75V41.25H76.5V48.25H73ZM99.25 41.25V46.5H97.5V48.25H90.5V50H87V39.5H90.5V41.25H92.25V43H90.5V46.5H95.75V41.25H92.25V39.5H97.5V41.25H99.25ZM102.75 48.25V46.5H101V41.25H102.75V39.5H111.5V41.25H113.25V44.75H104.5V46.5H111.5V48.25H102.75ZM104.5 43H109.75V41.25H104.5V43ZM127.25 46.5H129V50H125.5V48.25H118.5V50H115V46.5H116.75V44.75H118.5V39.5H127.25V46.5ZM120.25 46.5H123.75V41.25H120.25V46.5ZM129 48.25V39.5H141.25V48.25H137.75V41.25H132.5V48.25H129ZM155.25 41.25V46.5H153.5V48.25H146.5V50H143V39.5H146.5V41.25H148.25V43H146.5V46.5H151.75V41.25H148.25V39.5H153.5V41.25H155.25ZM160.5 44.75H162.25V46.5H160.5V48.25H157V39.5H160.5V44.75ZM169.25 39.5V48.25H165.75V43H164V41.25H165.75V39.5H169.25ZM162.25 43H164V44.75H162.25V43ZM171 48.25V39.5H174.5V43H179.75V39.5H183.25V48.25H179.75V44.75H174.5V48.25H171ZM188.5 44.75H190.25V46.5H188.5V48.25H185V39.5H188.5V44.75ZM197.25 39.5V48.25H193.75V43H192V41.25H193.75V39.5H197.25ZM190.25 43H192V44.75H190.25V43ZM204.25 41.25V43H202.5V48.25H199V39.5H202.5V41.25H204.25ZM211.25 39.5V48.25H207.75V43H206V41.25H207.75V39.5H211.25ZM204.25 43H206V46.5H204.25V43ZM214.75 48.25V46.5H213V44.75H214.75V43H221.75V41.25H214.75V39.5H223.5V41.25H225.25V48.25H214.75ZM216.5 46.5H221.75V44.75H216.5V46.5ZM232.25 48.25V41.25H228.75V39.5H239.25V41.25H235.75V48.25H232.25ZM242.75 48.25V46.5H241V41.25H242.75V39.5H251.5V41.25H253.25V44.75H244.5V46.5H251.5V48.25H242.75ZM244.5 43H249.75V41.25H244.5V43ZM267.25 39.5V48.25H263.75V41.25H260.25V46.5H258.5V48.25H255V44.75H256.75V43H258.5V39.5H267.25ZM269 48.25V39.5H272.5V43H279.5V44.75H281.25V46.5H279.5V48.25H269ZM272.5 46.5H277.75V44.75H272.5V46.5ZM74.75 62.25V60.5H73V55.25H74.75V53.5H83.5V55.25H85.25V57H81.75V55.25H76.5V60.5H81.75V58.75H85.25V60.5H83.5V62.25H74.75ZM92.25 62.25V55.25H88.75V53.5H99.25V55.25H95.75V62.25H92.25ZM101 62.25V53.5H111.5V55.25H113.25V57H111.5V58.75H113.25V60.5H111.5V62.25H101ZM104.5 57H109.75V55.25H104.5V57ZM104.5 60.5H109.75V58.75H104.5V60.5ZM116.75 62.25V60.5H115V55.25H116.75V53.5H125.5V55.25H127.25V60.5H125.5V62.25H116.75ZM118.5 60.5H123.75V55.25H118.5V60.5Z" fill="black"/>
</svg>
