<svg width="301" height="76" viewBox="0 0 301 76" fill="none" xmlns="http://www.w3.org/2000/svg">
<path d="M287.609 74.4996L13.5227 74.4292V72.5729V71.0729H12.0227H7.56473L7.41122 68.9939L7.32958 67.8884L6.24877 67.6419C5.48925 67.4687 5.05554 67.3671 4.75687 67.2589C4.68984 67.2347 4.64312 67.2146 4.61181 67.1997C4.5965 67.1412 4.57346 67.0295 4.55451 66.8366C4.51348 66.419 4.50712 65.8457 4.49951 64.9475C4.49943 64.2285 4.48645 63.5677 4.40321 63.0057C4.31748 62.4268 4.13832 61.805 3.69612 61.2654C3.25156 60.7229 2.67689 60.4288 2.12826 60.2375C1.93235 60.1692 1.72193 60.1081 1.5 60.0518V15.7485C1.76564 15.7026 2.01894 15.6487 2.25035 15.5808C2.80208 15.4188 3.40737 15.1286 3.84856 14.515C4.25371 13.9516 4.38241 13.2991 4.44217 12.7393C4.50314 12.1681 4.51066 11.4617 4.51427 10.6555H4.51429V10.6488V10.6423V10.6359V10.6294V10.6229V10.6165V10.61V10.6035V10.5971V10.5906V10.5842V10.5777V10.5712V10.5648V10.5583V10.5518V10.5454V10.5389V10.5325V10.526V10.5195V10.5131V10.5066V10.5001V10.4937V10.4872V10.4808V10.4743V10.4678V10.4614V10.4549V10.4484V10.442V10.4355V10.429V10.4226V10.4161V10.4096V10.4032V10.3967V10.3903V10.3838V10.3773V10.3709V10.3644V10.3579V10.3515V10.345V10.3385V10.3321V10.3256V10.3191V10.3126V10.3062V10.2997V10.2932V10.2868V10.2803V10.2738V10.2674V10.2609V10.2544V10.248V10.2415V10.235V10.2285V10.2221V10.2156V10.2091V10.2026V10.1962V10.1897V10.1832V10.1768V10.1703V10.1638V10.1573V10.1509V10.1444V10.1379V10.1314V10.1249V10.1185V10.112V10.1055V10.099V10.0926V10.0861V10.0796V10.0731V10.0666V10.0601V10.0537V10.0472V10.0407V10.0342V10.0277V10.0213V10.0148V10.0083V10.0018V9.99531V9.98882V9.98234V9.97585V9.96936V9.96287V9.95638V9.94989V9.9434V9.93691V9.93042V9.92393V9.91744V9.91095V9.90445V9.89796V9.89147V9.88497V9.87848V9.87198V9.86548V9.85899V9.85249V9.84599V9.83949V9.83299V9.82649V9.81999V9.81349V9.80699V9.80049V9.79398V9.78748V9.78097V9.77447V9.76796V9.76146V9.75495V9.74844V9.74193V9.73542V9.72892V9.72241V9.71589V9.70938V9.70287V9.69636V9.68984V9.68333V9.67681V9.6703V9.66378V9.65726V9.65075V9.64423V9.63771V9.63119V9.62467V9.61814V9.61162V9.6051V9.59857V9.59205V9.58552V9.579V9.57247V9.56594V9.55941V9.55288V9.54635V9.53982V9.53329V9.52676V9.52022V9.51369V9.50715V9.50062V9.49408V9.48754V9.481V9.47446V9.46792V9.46138V9.45484V9.4483V9.44175V9.43521V9.42866V9.42212V9.41557V9.40902V9.40247V9.39592V9.38937V9.38282V9.37626V9.36971V9.36316V9.3566V9.35004V9.34348V9.33693V9.33037V9.32381V9.31724V9.31068V9.30412V9.29755V9.29099V9.28442V9.27785V9.27129V9.26472V9.25815V9.25157V9.245V9.23843V9.23185V9.22528V9.2187V9.21212V9.20554V9.19896V9.19238V9.1858V9.17922V9.17263V9.16605V9.15946V9.15287V9.14629V9.1397V9.1331V9.12651V9.11992V9.11333V9.10673V9.10013V9.09354V9.08694V9.08034V9.07374V9.06713V9.06053V9.05393V9.04732V9.04071V9.03411V9.0275V9.02089V9.01427V9.00766V9.00105V8.99443V8.98782V8.9812V8.97458V8.96796V8.96134V8.95472V8.94809V8.94147V8.93484V8.92821V8.92159V8.91496V8.90832V8.90169V8.89506V8.88842V8.88179V8.87515V8.86851V8.86187V8.85523V8.84858V8.84194V8.83529V8.82865V8.822V8.81535V8.8087V8.80205V8.79539V8.78874V8.78208V8.77542V8.76877V8.7621V8.75544V8.74878V8.74212V8.73545V8.72878V8.72211V8.71544V8.70877V8.7021V8.69542V8.68875V8.68207V8.67539V8.66871V8.66203V8.65535V8.64884L6.0566 8.5591L7.4148 8.48007L7.46831 7.12062L7.5495 5.0575H11.9291H13.3503L13.4269 3.63837L13.5424 1.5H287.569L287.738 3.67345L287.845 5.0575H289.233H293.594C293.624 5.75357 293.654 6.43093 293.69 7.18575L293.757 8.615H295.188H296.604V10.6251C296.604 11.4584 296.605 12.1878 296.663 12.7709C296.719 13.3444 296.847 14.0209 297.28 14.6012C297.742 15.2212 298.375 15.5016 298.93 15.6612C299.107 15.712 299.298 15.7564 299.5 15.7967V60.1326C299.279 60.1856 299.069 60.2436 298.876 60.3097C298.302 60.506 297.693 60.8305 297.259 61.4739C296.86 62.0648 296.735 62.7451 296.677 63.3532C296.619 63.9726 296.615 64.7475 296.614 65.6516V65.6536V65.6594V65.6652V65.6709V65.6767V65.6824V65.6882V65.694V65.6998V65.7055V65.7113V65.7171V65.7228V65.7286V65.7344V65.7401V65.7459V65.7517V65.7574V65.7632V65.769V65.7747V65.7805V65.7863V65.792V65.7978V65.8036V65.8093V65.8151V65.8209V65.8267V65.8324V65.8382V65.844V65.8497V65.8555V65.8613V65.8671V65.8728V65.8786V65.8844V65.8902V65.8959V65.9017V65.9075V65.9133V65.919V65.9248V65.9306V65.9364V65.9421V65.9479V65.9537V65.9595V65.9652V65.971V65.9768V65.9826V65.9884V65.9941V65.9999V66.0057V66.0115V66.0173V66.023V66.0288V66.0346V66.0404V66.0462V66.052V66.0577V66.0635V66.0693V66.0751V66.0809V66.0867V66.0925V66.0983V66.1041V66.1098V66.1156V66.1214V66.1272V66.133V66.1388V66.1446V66.1504V66.1562V66.162V66.1678V66.1736V66.1794V66.1852V66.191V66.1968V66.2026V66.2084V66.2142V66.22V66.2258V66.2316V66.2374V66.2432V66.249V66.2548V66.2606V66.2664V66.2723V66.2781V66.2839V66.2897V66.2955V66.3013V66.3071V66.313V66.3188V66.3246V66.3304V66.3362V66.3421V66.3479V66.3537V66.3595V66.3653V66.3712V66.377V66.3828V66.3887V66.3945V66.4003V66.4061V66.412V66.4178V66.4236V66.4295V66.4353V66.4412V66.447V66.4528V66.4587V66.4645V66.4704V66.4762V66.482V66.4879V66.4937V66.4996V66.5054V66.5113V66.5171V66.523V66.5288V66.5347V66.5406V66.5464V66.5523V66.5581V66.564V66.5699V66.5757V66.5816V66.5875V66.5933V66.5992V66.6051V66.6109V66.6168V66.6227V66.6286V66.6344V66.6403V66.6462V66.6521V66.6579V66.6638V66.6697V66.6756V66.6815V66.6874V66.6933V66.6992V66.705V66.7109V66.7168V66.7227V66.7286V66.7345V66.7404V66.7463V66.7522V66.7581V66.764V66.77V66.7759V66.7818V66.7877V66.7936V66.7995V66.8054V66.8114V66.8173V66.8232V66.8291V66.835V66.841V66.8469V66.8528V66.8588V66.8647V66.8706V66.8766V66.8825V66.8884V66.8944V66.9003V66.9063V66.9122V66.9182V66.9241V66.9301V66.936V66.942V66.9479V66.9539V66.9598V66.9658V66.9718V66.9777V66.9837V66.9897V66.9956V67.0016V67.0076V67.0135V67.0195V67.0255V67.0315V67.0375V67.0434V67.0494V67.0554V67.0614V67.0674V67.0734V67.0794V67.0854V67.0914V67.0974V67.1034V67.1094V67.1154V67.1214V67.1274V67.1334V67.1394V67.1455V67.1515V67.1575V67.1635V67.1695V67.1756V67.1816V67.1876V67.1936V67.1997V67.2057V67.2118V67.2178V67.2238V67.2299V67.2359V67.242V67.248V67.2541V67.2601V67.2662V67.2723V67.2783V67.2844V67.2904V67.2965V67.3026V67.3086V67.3147V67.3208V67.3269V67.333V67.339V67.3451V67.3512V67.3573V67.3634V67.3695V67.3756V67.3817V67.3878V67.3939V67.4V67.4061V67.4101L295.08 67.5514L293.788 67.6705L293.72 68.9665C293.684 69.6539 293.649 70.3077 293.613 71.0077H289.253H287.853L287.757 72.4046C287.704 73.1659 287.657 73.8354 287.609 74.4996ZM4.55717 67.1699C4.55725 67.1698 4.55871 67.1708 4.56127 67.1727C4.55836 67.1709 4.55709 67.1699 4.55717 67.1699Z" fill="#809DE3" stroke="#2B57E4" stroke-width="3"/>
<path d="M63.1152 37.8533H63.9295V38.6612H63.1152V37.8533Z" fill="white"/>
<path d="M63.1152 38.6612H63.9295V39.4691H63.1152V38.6612Z" fill="white"/>
<path d="M63.1152 39.4691H63.9295V40.277H63.1152V39.4691Z" fill="white"/>
<path d="M62.3009 40.277H63.1152V41.0849H62.3009V40.277Z" fill="white"/>
<path d="M62.3009 41.0849H63.1152V41.8928H62.3009V41.0849Z" fill="white"/>
<path d="M62.3009 41.8928H63.1152V42.7007H62.3009V41.8928Z" fill="white"/>
<path d="M62.3009 42.7007H63.1152V43.5086H62.3009V42.7007Z" fill="white"/>
<path d="M62.3009 43.5086H63.1152V44.3165H62.3009V43.5086Z" fill="white"/>
<path d="M62.3009 44.3165H63.1152V45.1244H62.3009V44.3165Z" fill="white"/>
<path d="M61.4866 45.1244H62.3009V45.9323H61.4866V45.1244Z" fill="white"/>
<path d="M61.4866 45.9323H62.3009V46.7402H61.4866V45.9323Z" fill="white"/>
<path d="M61.4866 46.7402H62.3009V47.5481H61.4866V46.7402Z" fill="white"/>
<path d="M60.6723 47.5481H61.4866V48.3561H60.6723V47.5481Z" fill="white"/>
<path d="M60.6723 48.3561H61.4866V49.164H60.6723V48.3561Z" fill="white"/>
<path d="M59.858 49.164H60.6723V49.9719H59.858V49.164Z" fill="white"/>
<path d="M59.858 49.9719H60.6723V50.7798H59.858V49.9719Z" fill="white"/>
<path d="M59.0437 50.7798H59.858V51.5877H59.0437V50.7798Z" fill="white"/>
<path d="M58.2294 51.5877H59.0437V52.3956H58.2294V51.5877Z" fill="white"/>
<path d="M58.2294 52.3956H59.0437V53.2035H58.2294V52.3956Z" fill="white"/>
<path d="M57.4151 53.2035H58.2294V54.0114H57.4151V53.2035Z" fill="white"/>
<path d="M56.6008 54.0114H57.4151V54.8193H56.6008V54.0114Z" fill="white"/>
<path d="M55.7865 54.8193H56.6008V55.6272H55.7865V54.8193Z" fill="white"/>
<path d="M54.9722 55.6272H55.7865V56.4351H54.9722V55.6272Z" fill="white"/>
<path d="M54.1579 56.4351H54.9722V57.243H54.1579V56.4351Z" fill="white"/>
<path d="M53.3436 57.243H54.1579V58.0509H53.3436V57.243Z" fill="white"/>
<path d="M52.5293 58.0509H53.3436V58.8588H52.5293V58.0509Z" fill="white"/>
<path d="M51.715 58.8588H52.5293V59.6667H51.715V58.8588Z" fill="white"/>
<path d="M50.0864 59.6667H50.9007V60.4747H50.0864V59.6667Z" fill="white"/>
<path d="M48.4578 60.4747H49.2721V61.2826H48.4578V60.4747Z" fill="white"/>
<path d="M46.8292 61.2826H47.6435V62.0905H46.8292V61.2826Z" fill="white"/>
<path d="M44.3863 62.0905H45.2006V62.8984H44.3863V62.0905Z" fill="white"/>
<path d="M41.1291 62.8984H41.9434V63.7063H41.1291V62.8984Z" fill="white"/>
<path d="M37.0576 62.8984H37.8719V63.7063H37.0576V62.8984Z" fill="white"/>
<path d="M37.8719 62.8984H38.6862V63.7063H37.8719V62.8984Z" fill="white"/>
<path d="M38.6862 62.8984H39.5005V63.7063H38.6862V62.8984Z" fill="white"/>
<path d="M39.5005 62.8984H40.3148V63.7063H39.5005V62.8984Z" fill="white"/>
<path d="M40.3148 62.8984H41.1291V63.7063H40.3148V62.8984Z" fill="white"/>
<path d="M41.9434 62.8984H42.7577V63.7063H41.9434V62.8984Z" fill="white"/>
<path d="M42.7577 62.8984H43.572V63.7063H42.7577V62.8984Z" fill="white"/>
<path d="M43.572 62.0905H44.3863V62.8984H43.572V62.0905Z" fill="white"/>
<path d="M45.2006 62.0905H46.0149V62.8984H45.2006V62.0905Z" fill="white"/>
<path d="M46.0149 61.2826H46.8292V62.0905H46.0149V61.2826Z" fill="white"/>
<path d="M47.6435 61.2826H48.4578V62.0905H47.6435V61.2826Z" fill="white"/>
<path d="M49.2721 60.4747H50.0864V61.2826H49.2721V60.4747Z" fill="white"/>
<path d="M50.9007 58.8588H51.715V59.6667H50.9007V58.8588Z" fill="white"/>
<path d="M11 37.8533H11.8143V38.6612H11V37.8533Z" fill="white"/>
<path d="M11 38.6612H11.8143V39.4691H11V38.6612Z" fill="white"/>
<path d="M11 39.4691H11.8143V40.277H11V39.4691Z" fill="white"/>
<path d="M11 40.277H11.8143V41.0849H11V40.277Z" fill="white"/>
<path d="M11 41.0849H11.8143V41.8928H11V41.0849Z" fill="white"/>
<path d="M11.8143 41.8928H12.6286V42.7007H11.8143V41.8928Z" fill="white"/>
<path d="M11.8143 42.7007H12.6286V43.5086H11.8143V42.7007Z" fill="white"/>
<path d="M11.8143 43.5086H12.6286V44.3165H11.8143V43.5086Z" fill="white"/>
<path d="M11.8143 44.3165H12.6286V45.1244H11.8143V44.3165Z" fill="white"/>
<path d="M12.6286 45.1244H13.4429V45.9323H12.6286V45.1244Z" fill="white"/>
<path d="M12.6286 45.9323H13.4429V46.7402H12.6286V45.9323Z" fill="white"/>
<path d="M12.6286 46.7402H13.4429V47.5481H12.6286V46.7402Z" fill="white"/>
<path d="M13.4429 47.5481H14.2572V48.3561H13.4429V47.5481Z" fill="white"/>
<path d="M13.4429 48.3561H14.2572V49.164H13.4429V48.3561Z" fill="white"/>
<path d="M14.2572 49.164H15.0715V49.9719H14.2572V49.164Z" fill="white"/>
<path d="M14.2572 49.9719H15.0715V50.7798H14.2572V49.9719Z" fill="white"/>
<path d="M15.0715 50.7798H15.8858V51.5877H15.0715V50.7798Z" fill="white"/>
<path d="M15.0715 51.5877H15.8858V52.3956H15.0715V51.5877Z" fill="white"/>
<path d="M15.8858 52.3956H16.7001V53.2035H15.8858V52.3956Z" fill="white"/>
<path d="M16.7001 53.2035H17.5144V54.0114H16.7001V53.2035Z" fill="white"/>
<path d="M17.5144 54.0114H18.3287V54.8193H17.5144V54.0114Z" fill="white"/>
<path d="M17.5144 54.8193H18.3287V55.6272H17.5144V54.8193Z" fill="white"/>
<path d="M18.3287 55.6272H19.143V56.4351H18.3287V55.6272Z" fill="white"/>
<path d="M19.143 56.4351H19.9573V57.243H19.143V56.4351Z" fill="white"/>
<path d="M20.7716 57.243H21.5859V58.0509H20.7716V57.243Z" fill="white"/>
<path d="M21.5859 58.0509H22.4002V58.8588H21.5859V58.0509Z" fill="white"/>
<path d="M22.4002 58.8588H23.2145V59.6667H22.4002V58.8588Z" fill="white"/>
<path d="M24.0288 59.6667H24.8431V60.4747H24.0288V59.6667Z" fill="white"/>
<path d="M25.6574 60.4747H26.4717V61.2826H25.6574V60.4747Z" fill="white"/>
<path d="M27.286 61.2826H28.1003V62.0905H27.286V61.2826Z" fill="white"/>
<path d="M29.7289 62.0905H30.5432V62.8984H29.7289V62.0905Z" fill="white"/>
<path d="M32.9861 62.8984H33.8004V63.7063H32.9861V62.8984Z" fill="white"/>
<path d="M19.9573 56.4351H20.7716V57.243H19.9573V56.4351Z" fill="white"/>
<path d="M23.2145 58.8588H24.0288V59.6667H23.2145V58.8588Z" fill="white"/>
<path d="M24.8431 60.4747H25.6574V61.2826H24.8431V60.4747Z" fill="white"/>
<path d="M26.4717 61.2826H27.286V62.0905H26.4717V61.2826Z" fill="white"/>
<path d="M28.1003 61.2826H28.9146V62.0905H28.1003V61.2826Z" fill="white"/>
<path d="M28.9146 62.0905H29.7289V62.8984H28.9146V62.0905Z" fill="white"/>
<path d="M30.5432 62.0905H31.3575V62.8984H30.5432V62.0905Z" fill="white"/>
<path d="M31.3575 62.8984H32.1718V63.7063H31.3575V62.8984Z" fill="white"/>
<path d="M32.1718 62.8984H32.9861V63.7063H32.1718V62.8984Z" fill="white"/>
<path d="M33.8004 62.8984H34.6147V63.7063H33.8004V62.8984Z" fill="white"/>
<path d="M34.6147 62.8984H35.429V63.7063H34.6147V62.8984Z" fill="white"/>
<path d="M35.429 62.8984H36.2433V63.7063H35.429V62.8984Z" fill="white"/>
<path d="M36.2433 62.8984H37.0576V63.7063H36.2433V62.8984Z" fill="white"/>
<path d="M34.6147 12.0002H35.429V12.8082H34.6147V12.0002Z" fill="white"/>
<path d="M29.7289 12.8082H30.5432V13.6161H29.7289V12.8082Z" fill="white"/>
<path d="M27.286 13.6161H28.1003V14.424H27.286V13.6161Z" fill="white"/>
<path d="M25.6574 14.424H26.4717V15.2319H25.6574V14.424Z" fill="white"/>
<path d="M24.0288 15.2319H24.8431V16.0398H24.0288V15.2319Z" fill="white"/>
<path d="M23.2145 16.0398H24.0288V16.8477H23.2145V16.0398Z" fill="white"/>
<path d="M21.5859 16.8477H22.4002V17.6556H21.5859V16.8477Z" fill="white"/>
<path d="M20.7716 17.6556H21.5859V18.4635H20.7716V17.6556Z" fill="white"/>
<path d="M19.9573 18.4635H20.7716V19.2714H19.9573V18.4635Z" fill="white"/>
<path d="M19.143 19.2714H19.9573V20.0793H19.143V19.2714Z" fill="white"/>
<path d="M18.3287 20.0793H19.143V20.8872H18.3287V20.0793Z" fill="white"/>
<path d="M17.5144 20.8872H18.3287V21.6951H17.5144V20.8872Z" fill="white"/>
<path d="M16.7001 21.6951H17.5144V22.503H16.7001V21.6951Z" fill="white"/>
<path d="M15.8858 22.503H16.7001V23.3109H15.8858V22.503Z" fill="white"/>
<path d="M15.0715 23.3109H15.8858V24.1188H15.0715V23.3109Z" fill="white"/>
<path d="M15.0715 24.1188H15.8858V24.9268H15.0715V24.1188Z" fill="white"/>
<path d="M14.2572 24.9268H15.0715V25.7347H14.2572V24.9268Z" fill="white"/>
<path d="M14.2572 25.7347H15.0715V26.5426H14.2572V25.7347Z" fill="white"/>
<path d="M13.4429 26.5426H14.2572V27.3505H13.4429V26.5426Z" fill="white"/>
<path d="M13.4429 27.3505H14.2572V28.1584H13.4429V27.3505Z" fill="white"/>
<path d="M12.6286 28.1584H13.4429V28.9663H12.6286V28.1584Z" fill="white"/>
<path d="M12.6286 28.9663H13.4429V29.7742H12.6286V28.9663Z" fill="white"/>
<path d="M12.6286 29.7742H13.4429V30.5821H12.6286V29.7742Z" fill="white"/>
<path d="M11.8143 30.5821H12.6286V31.39H11.8143V30.5821Z" fill="white"/>
<path d="M11.8143 31.39H12.6286V32.1979H11.8143V31.39Z" fill="white"/>
<path d="M11.8143 32.1979H12.6286V33.0058H11.8143V32.1979Z" fill="white"/>
<path d="M11.8143 33.0058H12.6286V33.8137H11.8143V33.0058Z" fill="white"/>
<path d="M11 33.8137H11.8143V34.6216H11V33.8137Z" fill="white"/>
<path d="M11 34.6216H11.8143V35.4295H11V34.6216Z" fill="white"/>
<path d="M11 35.4295H11.8143V36.2374H11V35.4295Z" fill="white"/>
<path d="M11 36.2374H11.8143V37.0454H11V36.2374Z" fill="white"/>
<path d="M11 37.0454H11.8143V37.8533H11V37.0454Z" fill="white"/>
<path d="M22.4002 16.0398H23.2145V16.8477H22.4002V16.0398Z" fill="white"/>
<path d="M24.8431 15.2319H25.6574V16.0398H24.8431V15.2319Z" fill="white"/>
<path d="M26.4717 14.424H27.286V15.2319H26.4717V14.424Z" fill="white"/>
<path d="M28.1003 13.6161H28.9146V14.424H28.1003V13.6161Z" fill="white"/>
<path d="M28.9146 12.8082H29.7289V13.6161H28.9146V12.8082Z" fill="white"/>
<path d="M30.5432 12.8082H31.3575V13.6161H30.5432V12.8082Z" fill="white"/>
<path d="M31.3575 12.8082H32.1718V13.6161H31.3575V12.8082Z" fill="white"/>
<path d="M32.1718 12.0002H32.9861V12.8082H32.1718V12.0002Z" fill="white"/>
<path d="M32.9861 12.0002H33.8004V12.8082H32.9861V12.0002Z" fill="white"/>
<path d="M33.8004 12.0002H34.6147V12.8082H33.8004V12.0002Z" fill="white"/>
<path d="M35.429 12.0002H36.2433V12.8082H35.429V12.0002Z" fill="white"/>
<path d="M36.2433 12.0002H37.0576V12.8082H36.2433V12.0002Z" fill="white"/>
<path d="M37.0576 12.0002H37.8719V12.8082H37.0576V12.0002Z" fill="white"/>
<path d="M39.5005 12.0002H40.3148V12.8082H39.5005V12.0002Z" fill="white"/>
<path d="M43.572 12.8082H44.3863V13.6161H43.572V12.8082Z" fill="white"/>
<path d="M46.0149 13.6161H46.8292V14.424H46.0149V13.6161Z" fill="white"/>
<path d="M48.4578 14.424H49.2721V15.2319H48.4578V14.424Z" fill="white"/>
<path d="M50.0864 15.2319H50.9007V16.0398H50.0864V15.2319Z" fill="white"/>
<path d="M50.9007 16.0398H51.715V16.8477H50.9007V16.0398Z" fill="white"/>
<path d="M52.5293 16.8477H53.3436V17.6556H52.5293V16.8477Z" fill="white"/>
<path d="M53.3436 17.6556H54.1579V18.4635H53.3436V17.6556Z" fill="white"/>
<path d="M54.1579 18.4635H54.9722V19.2714H54.1579V18.4635Z" fill="white"/>
<path d="M54.9722 19.2714H55.7865V20.0793H54.9722V19.2714Z" fill="white"/>
<path d="M55.7865 20.0793H56.6008V20.8872H55.7865V20.0793Z" fill="white"/>
<path d="M56.6008 20.8872H57.4151V21.6951H56.6008V20.8872Z" fill="white"/>
<path d="M57.4151 21.6951H58.2294V22.503H57.4151V21.6951Z" fill="white"/>
<path d="M58.2294 22.503H59.0437V23.3109H58.2294V22.503Z" fill="white"/>
<path d="M58.2294 23.3109H59.0437V24.1188H58.2294V23.3109Z" fill="white"/>
<path d="M59.0437 24.1188H59.858V24.9268H59.0437V24.1188Z" fill="white"/>
<path d="M59.858 24.9268H60.6723V25.7347H59.858V24.9268Z" fill="white"/>
<path d="M59.858 25.7347H60.6723V26.5426H59.858V25.7347Z" fill="white"/>
<path d="M60.6723 26.5426H61.4866V27.3505H60.6723V26.5426Z" fill="white"/>
<path d="M60.6723 27.3505H61.4866V28.1584H60.6723V27.3505Z" fill="white"/>
<path d="M60.6723 28.1584H61.4866V28.9663H60.6723V28.1584Z" fill="white"/>
<path d="M61.4866 28.9663H62.3009V29.7742H61.4866V28.9663Z" fill="white"/>
<path d="M61.4866 29.7742H62.3009V30.5821H61.4866V29.7742Z" fill="white"/>
<path d="M61.4866 30.5821H62.3009V31.39H61.4866V30.5821Z" fill="white"/>
<path d="M62.3009 31.39H63.1152V32.1979H62.3009V31.39Z" fill="white"/>
<path d="M62.3009 32.1979H63.1152V33.0058H62.3009V32.1979Z" fill="white"/>
<path d="M62.3009 33.0058H63.1152V33.8137H62.3009V33.0058Z" fill="white"/>
<path d="M62.3009 33.8137H63.1152V34.6216H62.3009V33.8137Z" fill="white"/>
<path d="M62.3009 34.6216H63.1152V35.4295H62.3009V34.6216Z" fill="white"/>
<path d="M63.1152 35.4295H63.9295V36.2374H63.1152V35.4295Z" fill="white"/>
<path d="M63.1152 36.2374H63.9295V37.0454H63.1152V36.2374Z" fill="white"/>
<path d="M63.1152 37.0454H63.9295V37.8533H63.1152V37.0454Z" fill="white"/>
<path d="M37.8719 12.0002H38.6862V12.8082H37.8719V12.0002Z" fill="white"/>
<path d="M38.6862 12.0002H39.5005V12.8082H38.6862V12.0002Z" fill="white"/>
<path d="M40.3148 12.0002H41.1291V12.8082H40.3148V12.0002Z" fill="white"/>
<path d="M41.1291 12.0002H41.9434V12.8082H41.1291V12.0002Z" fill="white"/>
<path d="M41.9434 12.0002H42.7577V12.8082H41.9434V12.0002Z" fill="white"/>
<path d="M42.7577 12.8082H43.572V13.6161H42.7577V12.8082Z" fill="white"/>
<path d="M44.3863 12.8082H45.2006V13.6161H44.3863V12.8082Z" fill="white"/>
<path d="M45.2006 12.8082H46.0149V13.6161H45.2006V12.8082Z" fill="white"/>
<path d="M46.8292 13.6161H47.6435V14.424H46.8292V13.6161Z" fill="white"/>
<path d="M47.6435 14.424H48.4578V15.2319H47.6435V14.424Z" fill="white"/>
<path d="M49.2721 15.2319H50.0864V16.0398H49.2721V15.2319Z" fill="white"/>
<path d="M51.715 16.0398H52.5293V16.8477H51.715V16.0398Z" fill="white"/>
<rect x="63.1152" y="37.8523" width="0.814299" height="0.807907" fill="white"/>
<rect x="63.1152" y="38.6614" width="0.814299" height="0.807907" fill="white"/>
<rect x="63.1152" y="39.4688" width="0.814299" height="0.807907" fill="white"/>
<rect x="62.3008" y="40.2769" width="0.814299" height="0.807907" fill="white"/>
<rect x="62.3008" y="41.084" width="0.814299" height="0.807907" fill="white"/>
<rect x="62.3008" y="41.8923" width="0.814299" height="0.807907" fill="white"/>
<rect x="62.3008" y="42.7004" width="0.814299" height="0.807907" fill="white"/>
<rect x="62.3008" y="43.5085" width="0.814299" height="0.807907" fill="white"/>
<rect x="62.3008" y="44.3159" width="0.814299" height="0.807907" fill="white"/>
<rect x="61.4863" y="45.124" width="0.814299" height="0.807907" fill="white"/>
<rect x="61.4863" y="45.9321" width="0.814299" height="0.807907" fill="white"/>
<rect x="61.4863" y="46.7405" width="0.814299" height="0.807907" fill="white"/>
<rect x="60.6719" y="47.5476" width="0.814299" height="0.807907" fill="white"/>
<rect x="60.6719" y="48.3557" width="0.814299" height="0.807907" fill="white"/>
<rect x="59.8584" y="49.1631" width="0.814299" height="0.807907" fill="white"/>
<rect x="59.8584" y="49.9712" width="0.814299" height="0.807907" fill="white"/>
<rect x="59.0439" y="50.7793" width="0.814299" height="0.807907" fill="white"/>
<rect x="58.2295" y="51.5876" width="0.814299" height="0.807907" fill="white"/>
<rect x="58.2295" y="52.3948" width="0.814299" height="0.807907" fill="white"/>
<rect x="57.415" y="53.2031" width="0.814299" height="0.807907" fill="white"/>
<rect x="56.6006" y="54.0112" width="0.814299" height="0.807907" fill="white"/>
<rect x="55.7861" y="54.8193" width="0.814299" height="0.807907" fill="white"/>
<rect x="54.9727" y="55.6267" width="0.814299" height="0.807907" fill="white"/>
<rect x="54.1572" y="56.4348" width="0.814299" height="0.807907" fill="white"/>
<rect x="53.3438" y="57.2419" width="0.814299" height="0.807907" fill="white"/>
<rect x="52.5293" y="58.051" width="0.814299" height="0.807907" fill="white"/>
<rect x="51.7148" y="58.8584" width="0.814299" height="0.807907" fill="white"/>
<rect x="50.0859" y="59.6665" width="0.814299" height="0.807907" fill="white"/>
<rect x="48.458" y="60.4739" width="0.814299" height="0.807907" fill="white"/>
<rect x="46.8291" y="61.282" width="0.814299" height="0.807907" fill="white"/>
<rect x="44.3857" y="62.0901" width="0.814299" height="0.807907" fill="white"/>
<rect x="41.1289" y="62.8984" width="0.814299" height="0.807907" fill="white"/>
<rect x="37.0576" y="62.8984" width="0.814299" height="0.807907" fill="white"/>
<rect x="37.8721" y="62.8984" width="0.814299" height="0.807907" fill="white"/>
<rect x="38.6865" y="62.8984" width="0.814299" height="0.807907" fill="white"/>
<rect x="39.5" y="62.8984" width="0.814299" height="0.807907" fill="white"/>
<rect x="40.3145" y="62.8984" width="0.814299" height="0.807907" fill="white"/>
<rect x="41.9434" y="62.8984" width="0.814299" height="0.807907" fill="white"/>
<rect x="42.7578" y="62.8984" width="0.814299" height="0.807907" fill="white"/>
<rect x="43.5723" y="62.0901" width="0.814299" height="0.807907" fill="white"/>
<rect x="45.2002" y="62.0901" width="0.814299" height="0.807907" fill="white"/>
<rect x="46.0146" y="61.282" width="0.814299" height="0.807907" fill="white"/>
<rect x="47.6436" y="61.282" width="0.814299" height="0.807907" fill="white"/>
<rect x="49.2725" y="60.4739" width="0.814299" height="0.807907" fill="white"/>
<rect x="50.9004" y="58.8584" width="0.814299" height="0.807907" fill="white"/>
<rect x="11" y="37.8523" width="0.814299" height="0.807907" fill="white"/>
<rect x="11" y="38.6614" width="0.814299" height="0.807907" fill="white"/>
<rect x="11" y="39.4688" width="0.814299" height="0.807907" fill="white"/>
<rect x="11" y="40.2769" width="0.814299" height="0.807907" fill="white"/>
<rect x="11" y="41.084" width="0.814299" height="0.807907" fill="white"/>
<rect x="11.8145" y="41.8923" width="0.814299" height="0.807907" fill="white"/>
<rect x="11.8145" y="42.7004" width="0.814299" height="0.807907" fill="white"/>
<rect x="11.8145" y="43.5085" width="0.814299" height="0.807907" fill="white"/>
<rect x="11.8145" y="44.3159" width="0.814299" height="0.807907" fill="white"/>
<rect x="12.6289" y="45.124" width="0.814299" height="0.807907" fill="white"/>
<rect x="12.6289" y="45.9321" width="0.814299" height="0.807907" fill="white"/>
<rect x="12.6289" y="46.7405" width="0.814299" height="0.807907" fill="white"/>
<rect x="13.4424" y="47.5476" width="0.814299" height="0.807907" fill="white"/>
<rect x="13.4424" y="48.3557" width="0.814299" height="0.807907" fill="white"/>
<rect x="14.2568" y="49.1631" width="0.814299" height="0.807907" fill="white"/>
<rect x="14.2568" y="49.9712" width="0.814299" height="0.807907" fill="white"/>
<rect x="15.0713" y="50.7793" width="0.814299" height="0.807907" fill="white"/>
<rect x="15.0713" y="51.5876" width="0.814299" height="0.807907" fill="white"/>
<rect x="15.8857" y="52.3948" width="0.814299" height="0.807907" fill="white"/>
<rect x="16.7002" y="53.2031" width="0.814299" height="0.807907" fill="white"/>
<rect x="17.5146" y="54.0112" width="0.814299" height="0.807907" fill="white"/>
<rect x="17.5146" y="54.8193" width="0.814299" height="0.807907" fill="white"/>
<rect x="18.3291" y="55.6267" width="0.814299" height="0.807907" fill="white"/>
<rect x="19.1426" y="56.4348" width="0.814299" height="0.807907" fill="white"/>
<rect x="20.7715" y="57.2419" width="0.814299" height="0.807907" fill="white"/>
<rect x="21.5859" y="58.051" width="0.814299" height="0.807907" fill="white"/>
<rect x="22.4004" y="58.8584" width="0.814299" height="0.807907" fill="white"/>
<rect x="24.0283" y="59.6665" width="0.814299" height="0.807907" fill="white"/>
<rect x="25.6572" y="60.4739" width="0.814299" height="0.807907" fill="white"/>
<rect x="27.2861" y="61.282" width="0.814299" height="0.807907" fill="white"/>
<rect x="29.7285" y="62.0901" width="0.814299" height="0.807907" fill="white"/>
<rect x="32.9863" y="62.8984" width="0.814299" height="0.807907" fill="white"/>
<rect x="19.957" y="56.4348" width="0.814299" height="0.807907" fill="white"/>
<rect x="23.2139" y="58.8584" width="0.814299" height="0.807907" fill="white"/>
<rect x="24.8428" y="60.4739" width="0.814299" height="0.807907" fill="white"/>
<rect x="26.4717" y="61.282" width="0.814299" height="0.807907" fill="white"/>
<rect x="28.1006" y="61.282" width="0.814299" height="0.807907" fill="white"/>
<rect x="28.9141" y="62.0901" width="0.814299" height="0.807907" fill="white"/>
<rect x="30.543" y="62.0901" width="0.814299" height="0.807907" fill="white"/>
<rect x="31.3574" y="62.8984" width="0.814299" height="0.807907" fill="white"/>
<rect x="32.1719" y="62.8984" width="0.814299" height="0.807907" fill="white"/>
<rect x="33.8008" y="62.8984" width="0.814299" height="0.807907" fill="white"/>
<rect x="34.6143" y="62.8984" width="0.814299" height="0.807907" fill="white"/>
<rect x="35.4287" y="62.8984" width="0.814299" height="0.807907" fill="white"/>
<rect x="36.2432" y="62.8984" width="0.814299" height="0.807907" fill="white"/>
<rect x="34.6143" y="12" width="0.814299" height="0.807907" fill="white"/>
<rect x="29.7285" y="12.8081" width="0.814299" height="0.807907" fill="white"/>
<rect x="27.2861" y="13.6155" width="0.814299" height="0.807907" fill="white"/>
<rect x="25.6572" y="14.4236" width="0.814299" height="0.807907" fill="white"/>
<rect x="24.0283" y="15.2317" width="0.814299" height="0.807907" fill="white"/>
<rect x="23.2139" y="16.0391" width="0.814299" height="0.807907" fill="white"/>
<rect x="21.5859" y="16.8472" width="0.814299" height="0.807907" fill="white"/>
<rect x="20.7715" y="17.6553" width="0.814299" height="0.807907" fill="white"/>
<rect x="19.957" y="18.4636" width="0.814299" height="0.807907" fill="white"/>
<rect x="19.1426" y="19.2717" width="0.814299" height="0.807907" fill="white"/>
<rect x="18.3291" y="20.0789" width="0.814299" height="0.807907" fill="white"/>
<rect x="17.5146" y="20.8872" width="0.814299" height="0.807907" fill="white"/>
<rect x="16.7002" y="21.6943" width="0.814299" height="0.807907" fill="white"/>
<rect x="15.8857" y="22.5027" width="0.814299" height="0.807907" fill="white"/>
<rect x="15.0713" y="23.3108" width="0.814299" height="0.807907" fill="white"/>
<rect x="15.0713" y="24.1189" width="0.814299" height="0.807907" fill="white"/>
<rect x="14.2568" y="24.9263" width="0.814299" height="0.807907" fill="white"/>
<rect x="14.2568" y="25.7344" width="0.814299" height="0.807907" fill="white"/>
<rect x="13.4424" y="26.5425" width="0.814299" height="0.807907" fill="white"/>
<rect x="13.4424" y="27.3506" width="0.814299" height="0.807907" fill="white"/>
<rect x="12.6289" y="28.158" width="0.814299" height="0.807907" fill="white"/>
<rect x="12.6289" y="28.9661" width="0.814299" height="0.807907" fill="white"/>
<rect x="12.6289" y="29.7734" width="0.814299" height="0.807907" fill="white"/>
<rect x="11.8145" y="30.5815" width="0.814299" height="0.807907" fill="white"/>
<rect x="11.8145" y="31.3896" width="0.814299" height="0.807907" fill="white"/>
<rect x="11.8145" y="32.198" width="0.814299" height="0.807907" fill="white"/>
<rect x="11.8145" y="33.0051" width="0.814299" height="0.807907" fill="white"/>
<rect x="11" y="33.8132" width="0.814299" height="0.807907" fill="white"/>
<rect x="11" y="34.6216" width="0.814299" height="0.807907" fill="white"/>
<rect x="11" y="35.4297" width="0.814299" height="0.807907" fill="white"/>
<rect x="11" y="36.2368" width="0.814299" height="0.807907" fill="white"/>
<rect x="11" y="37.0452" width="0.814299" height="0.807907" fill="white"/>
<rect x="22.4004" y="16.0391" width="0.814299" height="0.807907" fill="white"/>
<rect x="24.8428" y="15.2317" width="0.814299" height="0.807907" fill="white"/>
<rect x="26.4717" y="14.4236" width="0.814299" height="0.807907" fill="white"/>
<rect x="28.1006" y="13.6155" width="0.814299" height="0.807907" fill="white"/>
<rect x="28.9141" y="12.8081" width="0.814299" height="0.807907" fill="white"/>
<rect x="30.543" y="12.8081" width="0.814299" height="0.807907" fill="white"/>
<rect x="31.3574" y="12.8081" width="0.814299" height="0.807907" fill="white"/>
<rect x="32.1719" y="12" width="0.814299" height="0.807907" fill="white"/>
<rect x="32.9863" y="12" width="0.814299" height="0.807907" fill="white"/>
<rect x="33.8008" y="12" width="0.814299" height="0.807907" fill="white"/>
<rect x="35.4287" y="12" width="0.814299" height="0.807907" fill="white"/>
<rect x="36.2432" y="12" width="0.814299" height="0.807907" fill="white"/>
<rect x="37.0576" y="12" width="0.814299" height="0.807907" fill="white"/>
<rect x="39.5" y="12" width="0.814299" height="0.807907" fill="white"/>
<rect x="43.5723" y="12.8081" width="0.814299" height="0.807907" fill="white"/>
<rect x="46.0146" y="13.6155" width="0.814299" height="0.807907" fill="white"/>
<rect x="48.458" y="14.4236" width="0.814299" height="0.807907" fill="white"/>
<rect x="50.0859" y="15.2317" width="0.814299" height="0.807907" fill="white"/>
<rect x="50.9004" y="16.0391" width="0.814299" height="0.807907" fill="white"/>
<rect x="52.5293" y="16.8472" width="0.814299" height="0.807907" fill="white"/>
<rect x="53.3438" y="17.6553" width="0.814299" height="0.807907" fill="white"/>
<rect x="54.1572" y="18.4636" width="0.814299" height="0.807907" fill="white"/>
<rect x="54.9727" y="19.2717" width="0.814299" height="0.807907" fill="white"/>
<rect x="55.7861" y="20.0789" width="0.814299" height="0.807907" fill="white"/>
<rect x="56.6006" y="20.8872" width="0.814299" height="0.807907" fill="white"/>
<rect x="57.415" y="21.6943" width="0.814299" height="0.807907" fill="white"/>
<rect x="58.2295" y="22.5027" width="0.814299" height="0.807907" fill="white"/>
<rect x="58.2295" y="23.3108" width="0.814299" height="0.807907" fill="white"/>
<rect x="59.0439" y="24.1189" width="0.814299" height="0.807907" fill="white"/>
<rect x="59.8584" y="24.9263" width="0.814299" height="0.807907" fill="white"/>
<rect x="59.8584" y="25.7344" width="0.814299" height="0.807907" fill="white"/>
<rect x="60.6719" y="26.5425" width="0.814299" height="0.807907" fill="white"/>
<rect x="60.6719" y="27.3506" width="0.814299" height="0.807907" fill="white"/>
<rect x="60.6719" y="28.158" width="0.814299" height="0.807907" fill="white"/>
<rect x="61.4863" y="28.9661" width="0.814299" height="0.807907" fill="white"/>
<rect x="61.4863" y="29.7734" width="0.814299" height="0.807907" fill="white"/>
<rect x="61.4863" y="30.5815" width="0.814299" height="0.807907" fill="white"/>
<rect x="62.3008" y="31.3896" width="0.814299" height="0.807907" fill="white"/>
<rect x="62.3008" y="32.198" width="0.814299" height="0.807907" fill="white"/>
<rect x="62.3008" y="33.0051" width="0.814299" height="0.807907" fill="white"/>
<rect x="62.3008" y="33.8132" width="0.814299" height="0.807907" fill="white"/>
<rect x="62.3008" y="34.6216" width="0.814299" height="0.807907" fill="white"/>
<rect x="63.1152" y="35.4297" width="0.814299" height="0.807907" fill="white"/>
<rect x="63.1152" y="36.2368" width="0.814299" height="0.807907" fill="white"/>
<rect x="63.1152" y="37.0452" width="0.814299" height="0.807907" fill="white"/>
<rect x="37.8721" y="12" width="0.814299" height="0.807907" fill="white"/>
<rect x="38.6865" y="12" width="0.814299" height="0.807907" fill="white"/>
<rect x="40.3145" y="12" width="0.814299" height="0.807907" fill="white"/>
<rect x="41.1289" y="12" width="0.814299" height="0.807907" fill="white"/>
<rect x="41.9434" y="12" width="0.814299" height="0.807907" fill="white"/>
<rect x="42.7578" y="12.8081" width="0.814299" height="0.807907" fill="white"/>
<rect x="44.3857" y="12.8081" width="0.814299" height="0.807907" fill="white"/>
<rect x="45.2002" y="12.8081" width="0.814299" height="0.807907" fill="white"/>
<rect x="46.8291" y="13.6155" width="0.814299" height="0.807907" fill="white"/>
<rect x="47.6436" y="14.4236" width="0.814299" height="0.807907" fill="white"/>
<rect x="49.2725" y="15.2317" width="0.814299" height="0.807907" fill="white"/>
<rect x="51.7148" y="16.0391" width="0.814299" height="0.807907" fill="white"/>
<rect x="63.9297" y="37.8523" width="0.814299" height="0.807907" fill="white"/>
<rect x="63.9297" y="38.6614" width="0.814299" height="0.807907" fill="white"/>
<rect x="63.9297" y="39.4688" width="0.814299" height="0.807907" fill="white"/>
<rect x="63.9297" y="40.2769" width="0.814299" height="0.807907" fill="white"/>
<rect x="63.1152" y="40.2769" width="0.814299" height="0.807907" fill="white"/>
<rect x="63.1152" y="41.084" width="0.814299" height="0.807907" fill="white"/>
<rect x="63.1152" y="41.8923" width="0.814299" height="0.807907" fill="white"/>
<rect x="63.1152" y="42.7004" width="0.814299" height="0.807907" fill="white"/>
<rect x="63.1152" y="43.5085" width="0.814299" height="0.807907" fill="white"/>
<rect x="63.1152" y="44.3159" width="0.814299" height="0.807907" fill="white"/>
<rect x="63.1152" y="45.124" width="0.814299" height="0.807907" fill="white"/>
<rect x="62.3008" y="45.124" width="0.814299" height="0.807907" fill="white"/>
<rect x="62.3008" y="45.9321" width="0.814299" height="0.807907" fill="white"/>
<rect x="62.3008" y="46.7405" width="0.814299" height="0.807907" fill="white"/>
<rect x="62.3008" y="47.5476" width="0.814299" height="0.807907" fill="white"/>
<rect x="61.4863" y="47.5476" width="0.814299" height="0.807907" fill="white"/>
<rect x="61.4863" y="48.3557" width="0.814299" height="0.807907" fill="white"/>
<rect x="61.4863" y="49.1631" width="0.814299" height="0.807907" fill="white"/>
<rect x="60.6719" y="49.1631" width="0.814299" height="0.807907" fill="white"/>
<rect x="60.6719" y="49.9712" width="0.814299" height="0.807907" fill="white"/>
<rect x="60.6719" y="50.7793" width="0.814299" height="0.807907" fill="white"/>
<rect x="59.8584" y="50.7793" width="0.814299" height="0.807907" fill="white"/>
<rect x="59.8584" y="51.5876" width="0.814299" height="0.807907" fill="white"/>
<rect x="59.0439" y="51.5876" width="0.814299" height="0.807907" fill="white"/>
<rect x="59.0439" y="52.3948" width="0.814299" height="0.807907" fill="white"/>
<rect x="59.0439" y="53.2031" width="0.814299" height="0.807907" fill="white"/>
<rect x="58.2295" y="53.2031" width="0.814299" height="0.807907" fill="white"/>
<rect x="58.2295" y="54.0112" width="0.814299" height="0.807907" fill="white"/>
<rect x="57.415" y="54.0112" width="0.814299" height="0.807907" fill="white"/>
<rect x="57.415" y="54.8193" width="0.814299" height="0.807907" fill="white"/>
<rect x="56.6006" y="54.8193" width="0.814299" height="0.807907" fill="white"/>
<rect x="56.6006" y="55.6267" width="0.814299" height="0.807907" fill="white"/>
<rect x="55.7861" y="55.6267" width="0.814299" height="0.807907" fill="white"/>
<rect x="55.7861" y="56.4348" width="0.814299" height="0.807907" fill="white"/>
<rect x="54.9727" y="56.4348" width="0.814299" height="0.807907" fill="white"/>
<rect x="54.9727" y="57.2419" width="0.814299" height="0.807907" fill="white"/>
<rect x="54.1572" y="57.2419" width="0.814299" height="0.807907" fill="white"/>
<rect x="54.1572" y="58.051" width="0.814299" height="0.807907" fill="white"/>
<rect x="53.3438" y="58.051" width="0.814299" height="0.807907" fill="white"/>
<rect x="53.3438" y="58.8584" width="0.814299" height="0.807907" fill="white"/>
<rect x="52.5293" y="58.8584" width="0.814299" height="0.807907" fill="white"/>
<rect x="52.5293" y="59.6665" width="0.814299" height="0.807907" fill="white"/>
<rect x="51.7148" y="59.6665" width="0.814299" height="0.807907" fill="white"/>
<rect x="50.0859" y="58.8584" width="0.814299" height="0.807907" fill="white"/>
<rect x="50.9004" y="59.6665" width="0.814299" height="0.807907" fill="white"/>
<rect x="50.9004" y="60.4739" width="0.814299" height="0.807907" fill="white"/>
<rect x="50.0859" y="60.4739" width="0.814299" height="0.807907" fill="white"/>
<rect x="49.2725" y="61.282" width="0.814299" height="0.807907" fill="white"/>
<rect x="48.458" y="61.282" width="0.814299" height="0.807907" fill="white"/>
<rect x="47.6436" y="62.0901" width="0.814299" height="0.807907" fill="white"/>
<rect x="46.8291" y="62.0901" width="0.814299" height="0.807907" fill="white"/>
<rect x="45.2002" y="62.8984" width="0.814299" height="0.807907" fill="white"/>
<rect x="44.3857" y="62.8984" width="0.814299" height="0.807907" fill="white"/>
<rect x="41.9434" y="63.7056" width="0.814299" height="0.807907" fill="white"/>
<rect x="41.1289" y="63.7056" width="0.814299" height="0.807907" fill="white"/>
<rect x="37.8721" y="63.7056" width="0.814299" height="0.807907" fill="white"/>
<rect x="37.0576" y="63.7056" width="0.814299" height="0.807907" fill="white"/>
<rect x="38.6865" y="63.7056" width="0.814299" height="0.807907" fill="white"/>
<rect x="39.5" y="63.7056" width="0.814299" height="0.807907" fill="white"/>
<rect x="40.3145" y="63.7056" width="0.814299" height="0.807907" fill="white"/>
<rect x="42.7578" y="63.7056" width="0.814299" height="0.807907" fill="white"/>
<rect x="43.5723" y="62.8984" width="0.814299" height="0.807907" fill="white"/>
<rect x="43.5723" y="63.7056" width="0.814299" height="0.807907" fill="white"/>
<rect x="46.0146" y="62.0901" width="0.814299" height="0.807907" fill="white"/>
<rect x="46.0146" y="62.8984" width="0.814299" height="0.807907" fill="white"/>
<rect x="48.458" y="62.0901" width="0.814299" height="0.807907" fill="white"/>
<rect x="50.0859" y="61.282" width="0.814299" height="0.807907" fill="white"/>
<rect x="11.8145" y="37.8523" width="0.814299" height="0.807907" fill="white"/>
<rect x="11.8145" y="38.6614" width="0.814299" height="0.807907" fill="white"/>
<rect x="11.8145" y="39.4688" width="0.814299" height="0.807907" fill="white"/>
<rect x="11.8145" y="40.2769" width="0.814299" height="0.807907" fill="white"/>
<rect x="11.8145" y="41.084" width="0.814299" height="0.807907" fill="white"/>
<rect x="11" y="41.8923" width="0.814299" height="0.807907" fill="white"/>
<rect x="12.6289" y="41.8923" width="0.814299" height="0.807907" fill="white"/>
<rect x="12.6289" y="42.7004" width="0.814299" height="0.807907" fill="white"/>
<rect x="12.6289" y="43.5085" width="0.814299" height="0.807907" fill="white"/>
<rect x="12.6289" y="44.3159" width="0.814299" height="0.807907" fill="white"/>
<rect x="11.8145" y="45.124" width="0.814299" height="0.807907" fill="white"/>
<rect x="13.4424" y="45.124" width="0.814299" height="0.807907" fill="white"/>
<rect x="13.4424" y="45.9321" width="0.814299" height="0.807907" fill="white"/>
<rect x="13.4424" y="46.7405" width="0.814299" height="0.807907" fill="white"/>
<rect x="12.6289" y="47.5476" width="0.814299" height="0.807907" fill="white"/>
<rect x="14.2568" y="47.5476" width="0.814299" height="0.807907" fill="white"/>
<rect x="14.2568" y="48.3557" width="0.814299" height="0.807907" fill="white"/>
<rect x="13.4424" y="49.1631" width="0.814299" height="0.807907" fill="white"/>
<rect x="15.0713" y="49.1631" width="0.814299" height="0.807907" fill="white"/>
<rect x="15.0713" y="49.9712" width="0.814299" height="0.807907" fill="white"/>
<rect x="14.2568" y="50.7793" width="0.814299" height="0.807907" fill="white"/>
<rect x="15.8857" y="50.7793" width="0.814299" height="0.807907" fill="white"/>
<rect x="15.8857" y="51.5876" width="0.814299" height="0.807907" fill="white"/>
<rect x="15.0713" y="52.3948" width="0.814299" height="0.807907" fill="white"/>
<rect x="16.7002" y="52.3948" width="0.814299" height="0.807907" fill="white"/>
<rect x="15.8857" y="53.2031" width="0.814299" height="0.807907" fill="white"/>
<rect x="17.5146" y="53.2031" width="0.814299" height="0.807907" fill="white"/>
<rect x="16.7002" y="54.0112" width="0.814299" height="0.807907" fill="white"/>
<rect x="18.3291" y="54.0112" width="0.814299" height="0.807907" fill="white"/>
<rect x="18.3291" y="54.8193" width="0.814299" height="0.807907" fill="white"/>
<rect x="17.5146" y="55.6267" width="0.814299" height="0.807907" fill="white"/>
<rect x="19.1426" y="55.6267" width="0.814299" height="0.807907" fill="white"/>
<rect x="18.3291" y="56.4348" width="0.814299" height="0.807907" fill="white"/>
<rect x="19.957" y="57.2419" width="0.814299" height="0.807907" fill="white"/>
<rect x="19.1426" y="57.2419" width="0.814299" height="0.807907" fill="white"/>
<rect x="21.5859" y="57.2419" width="0.814299" height="0.807907" fill="white"/>
<rect x="20.7715" y="58.051" width="0.814299" height="0.807907" fill="white"/>
<rect x="22.4004" y="58.051" width="0.814299" height="0.807907" fill="white"/>
<rect x="21.5859" y="58.8584" width="0.814299" height="0.807907" fill="white"/>
<rect x="23.2139" y="59.6665" width="0.814299" height="0.807907" fill="white"/>
<rect x="22.4004" y="59.6665" width="0.814299" height="0.807907" fill="white"/>
<rect x="24.0283" y="58.8584" width="0.814299" height="0.807907" fill="white"/>
<rect x="24.8428" y="59.6665" width="0.814299" height="0.807907" fill="white"/>
<rect x="24.0283" y="60.4739" width="0.814299" height="0.807907" fill="white"/>
<rect x="26.4717" y="60.4739" width="0.814299" height="0.807907" fill="white"/>
<rect x="25.6572" y="61.282" width="0.814299" height="0.807907" fill="white"/>
<rect x="28.1006" y="62.0901" width="0.814299" height="0.807907" fill="white"/>
<rect x="27.2861" y="62.0901" width="0.814299" height="0.807907" fill="white"/>
<rect x="30.543" y="62.8984" width="0.814299" height="0.807907" fill="white"/>
<rect x="29.7285" y="62.8984" width="0.814299" height="0.807907" fill="white"/>
<rect x="33.8008" y="63.7056" width="0.814299" height="0.807907" fill="white"/>
<rect x="32.9863" y="63.7056" width="0.814299" height="0.807907" fill="white"/>
<rect x="20.7715" y="56.4348" width="0.814299" height="0.807907" fill="white"/>
<rect x="24.8428" y="61.282" width="0.814299" height="0.807907" fill="white"/>
<rect x="26.4717" y="62.0901" width="0.814299" height="0.807907" fill="white"/>
<rect x="28.9141" y="61.282" width="0.814299" height="0.807907" fill="white"/>
<rect x="28.9141" y="62.8984" width="0.814299" height="0.807907" fill="white"/>
<rect x="31.3574" y="62.0901" width="0.814299" height="0.807907" fill="white"/>
<rect x="32.1719" y="63.7056" width="0.814299" height="0.807907" fill="white"/>
<rect x="31.3574" y="63.7056" width="0.814299" height="0.807907" fill="white"/>
<rect x="34.6143" y="63.7056" width="0.814299" height="0.807907" fill="white"/>
<rect x="35.4287" y="63.7056" width="0.814299" height="0.807907" fill="white"/>
<rect x="36.2432" y="63.7056" width="0.814299" height="0.807907" fill="white"/>
<rect x="35.4287" y="12.8081" width="0.814299" height="0.807907" fill="white"/>
<rect x="34.6143" y="12.8081" width="0.814299" height="0.807907" fill="white"/>
<rect x="30.543" y="13.6155" width="0.814299" height="0.807907" fill="white"/>
<rect x="29.7285" y="13.6155" width="0.814299" height="0.807907" fill="white"/>
<rect x="28.1006" y="14.4236" width="0.814299" height="0.807907" fill="white"/>
<rect x="27.2861" y="14.4236" width="0.814299" height="0.807907" fill="white"/>
<rect x="26.4717" y="15.2317" width="0.814299" height="0.807907" fill="white"/>
<rect x="25.6572" y="15.2317" width="0.814299" height="0.807907" fill="white"/>
<rect x="24.8428" y="16.0391" width="0.814299" height="0.807907" fill="white"/>
<rect x="24.0283" y="16.0391" width="0.814299" height="0.807907" fill="white"/>
<rect x="24.0283" y="16.8472" width="0.814299" height="0.807907" fill="white"/>
<rect x="23.2139" y="16.8472" width="0.814299" height="0.807907" fill="white"/>
<rect x="22.4004" y="16.8472" width="0.814299" height="0.807907" fill="white"/>
<rect x="22.4004" y="17.6553" width="0.814299" height="0.807907" fill="white"/>
<rect x="21.5859" y="17.6553" width="0.814299" height="0.807907" fill="white"/>
<rect x="21.5859" y="18.4636" width="0.814299" height="0.807907" fill="white"/>
<rect x="20.7715" y="18.4636" width="0.814299" height="0.807907" fill="white"/>
<rect x="19.957" y="17.6553" width="0.814299" height="0.807907" fill="white"/>
<rect x="20.7715" y="19.2717" width="0.814299" height="0.807907" fill="white"/>
<rect x="19.957" y="19.2717" width="0.814299" height="0.807907" fill="white"/>
<rect x="19.957" y="20.0789" width="0.814299" height="0.807907" fill="white"/>
<rect x="19.1426" y="20.0789" width="0.814299" height="0.807907" fill="white"/>
<rect x="19.1426" y="20.8872" width="0.814299" height="0.807907" fill="white"/>
<rect x="18.3291" y="20.8872" width="0.814299" height="0.807907" fill="white"/>
<rect x="18.3291" y="21.6943" width="0.814299" height="0.807907" fill="white"/>
<rect x="17.5146" y="21.6943" width="0.814299" height="0.807907" fill="white"/>
<rect x="17.5146" y="22.5027" width="0.814299" height="0.807907" fill="white"/>
<rect x="16.7002" y="22.5027" width="0.814299" height="0.807907" fill="white"/>
<rect x="16.7002" y="23.3108" width="0.814299" height="0.807907" fill="white"/>
<rect x="15.8857" y="23.3108" width="0.814299" height="0.807907" fill="white"/>
<rect x="15.8857" y="24.1189" width="0.814299" height="0.807907" fill="white"/>
<rect x="15.8857" y="24.9263" width="0.814299" height="0.807907" fill="white"/>
<rect x="15.0713" y="24.9263" width="0.814299" height="0.807907" fill="white"/>
<rect x="14.2568" y="24.1189" width="0.814299" height="0.807907" fill="white"/>
<rect x="15.0713" y="25.7344" width="0.814299" height="0.807907" fill="white"/>
<rect x="15.0713" y="26.5425" width="0.814299" height="0.807907" fill="white"/>
<rect x="14.2568" y="26.5425" width="0.814299" height="0.807907" fill="white"/>
<rect x="14.2568" y="27.3506" width="0.814299" height="0.807907" fill="white"/>
<rect x="14.2568" y="28.158" width="0.814299" height="0.807907" fill="white"/>
<rect x="13.4424" y="28.158" width="0.814299" height="0.807907" fill="white"/>
<rect x="13.4424" y="28.9661" width="0.814299" height="0.807907" fill="white"/>
<rect x="13.4424" y="29.7734" width="0.814299" height="0.807907" fill="white"/>
<rect x="13.4424" y="30.5815" width="0.814299" height="0.807907" fill="white"/>
<rect x="12.6289" y="30.5815" width="0.814299" height="0.807907" fill="white"/>
<rect x="12.6289" y="31.3896" width="0.814299" height="0.807907" fill="white"/>
<rect x="12.6289" y="32.198" width="0.814299" height="0.807907" fill="white"/>
<rect x="12.6289" y="33.0051" width="0.814299" height="0.807907" fill="white"/>
<rect x="12.6289" y="33.8132" width="0.814299" height="0.807907" fill="white"/>
<rect x="11.8145" y="33.8132" width="0.814299" height="0.807907" fill="white"/>
<rect x="11.8145" y="34.6216" width="0.814299" height="0.807907" fill="white"/>
<rect x="11.8145" y="35.4297" width="0.814299" height="0.807907" fill="white"/>
<rect x="11.8145" y="36.2368" width="0.814299" height="0.807907" fill="white"/>
<rect x="11.8145" y="37.0452" width="0.814299" height="0.807907" fill="white"/>
<rect x="25.6572" y="16.0391" width="0.814299" height="0.807907" fill="white"/>
<rect x="27.2861" y="15.2317" width="0.814299" height="0.807907" fill="white"/>
<rect x="28.9141" y="13.6155" width="0.814299" height="0.807907" fill="white"/>
<rect x="28.9141" y="14.4236" width="0.814299" height="0.807907" fill="white"/>
<rect x="31.3574" y="13.6155" width="0.814299" height="0.807907" fill="white"/>
<rect x="32.1719" y="12.8081" width="0.814299" height="0.807907" fill="white"/>
<rect x="32.1719" y="13.6155" width="0.814299" height="0.807907" fill="white"/>
<rect x="32.9863" y="12.8081" width="0.814299" height="0.807907" fill="white"/>
<rect x="33.8008" y="12.8081" width="0.814299" height="0.807907" fill="white"/>
<rect x="36.2432" y="12.8081" width="0.814299" height="0.807907" fill="white"/>
<rect x="37.0576" y="12.8081" width="0.814299" height="0.807907" fill="white"/>
<rect x="37.8721" y="12.8081" width="0.814299" height="0.807907" fill="white"/>
<rect x="40.3145" y="12.8081" width="0.814299" height="0.807907" fill="white"/>
<rect x="39.5" y="12.8081" width="0.814299" height="0.807907" fill="white"/>
<rect x="44.3857" y="13.6155" width="0.814299" height="0.807907" fill="white"/>
<rect x="43.5723" y="13.6155" width="0.814299" height="0.807907" fill="white"/>
<rect x="46.8291" y="14.4236" width="0.814299" height="0.807907" fill="white"/>
<rect x="46.0146" y="14.4236" width="0.814299" height="0.807907" fill="white"/>
<rect x="49.2725" y="14.4236" width="0.814299" height="0.807907" fill="white"/>
<rect x="48.458" y="15.2317" width="0.814299" height="0.807907" fill="white"/>
<rect x="50.9004" y="15.2317" width="0.814299" height="0.807907" fill="white"/>
<rect x="50.0859" y="16.0391" width="0.814299" height="0.807907" fill="white"/>
<rect x="51.7148" y="16.8472" width="0.814299" height="0.807907" fill="white"/>
<rect x="50.9004" y="16.8472" width="0.814299" height="0.807907" fill="white"/>
<rect x="53.3438" y="16.8472" width="0.814299" height="0.807907" fill="white"/>
<rect x="52.5293" y="17.6553" width="0.814299" height="0.807907" fill="white"/>
<rect x="54.1572" y="17.6553" width="0.814299" height="0.807907" fill="white"/>
<rect x="53.3438" y="18.4636" width="0.814299" height="0.807907" fill="white"/>
<rect x="54.9727" y="18.4636" width="0.814299" height="0.807907" fill="white"/>
<rect x="54.1572" y="19.2717" width="0.814299" height="0.807907" fill="white"/>
<rect x="55.7861" y="19.2717" width="0.814299" height="0.807907" fill="white"/>
<rect x="54.9727" y="20.0789" width="0.814299" height="0.807907" fill="white"/>
<rect x="56.6006" y="20.0789" width="0.814299" height="0.807907" fill="white"/>
<rect x="55.7861" y="20.8872" width="0.814299" height="0.807907" fill="white"/>
<rect x="57.415" y="20.8872" width="0.814299" height="0.807907" fill="white"/>
<rect x="56.6006" y="21.6943" width="0.814299" height="0.807907" fill="white"/>
<rect x="58.2295" y="21.6943" width="0.814299" height="0.807907" fill="white"/>
<rect x="57.415" y="22.5027" width="0.814299" height="0.807907" fill="white"/>
<rect x="59.0439" y="22.5027" width="0.814299" height="0.807907" fill="white"/>
<rect x="59.0439" y="23.3108" width="0.814299" height="0.807907" fill="white"/>
<rect x="58.2295" y="24.1189" width="0.814299" height="0.807907" fill="white"/>
<rect x="59.8584" y="24.1189" width="0.814299" height="0.807907" fill="white"/>
<rect x="59.0439" y="24.9263" width="0.814299" height="0.807907" fill="white"/>
<rect x="60.6719" y="24.9263" width="0.814299" height="0.807907" fill="white"/>
<rect x="60.6719" y="25.7344" width="0.814299" height="0.807907" fill="white"/>
<rect x="59.8584" y="26.5425" width="0.814299" height="0.807907" fill="white"/>
<rect x="61.4863" y="26.5425" width="0.814299" height="0.807907" fill="white"/>
<rect x="61.4863" y="27.3506" width="0.814299" height="0.807907" fill="white"/>
<rect x="61.4863" y="28.158" width="0.814299" height="0.807907" fill="white"/>
<rect x="60.6719" y="28.9661" width="0.814299" height="0.807907" fill="white"/>
<rect x="62.3008" y="28.9661" width="0.814299" height="0.807907" fill="white"/>
<rect x="62.3008" y="29.7734" width="0.814299" height="0.807907" fill="white"/>
<rect x="62.3008" y="30.5815" width="0.814299" height="0.807907" fill="white"/>
<rect x="61.4863" y="31.3896" width="0.814299" height="0.807907" fill="white"/>
<rect x="63.1152" y="31.3896" width="0.814299" height="0.807907" fill="white"/>
<rect x="63.1152" y="32.198" width="0.814299" height="0.807907" fill="white"/>
<rect x="63.1152" y="33.0051" width="0.814299" height="0.807907" fill="white"/>
<rect x="63.1152" y="33.8132" width="0.814299" height="0.807907" fill="white"/>
<rect x="63.1152" y="34.6216" width="0.814299" height="0.807907" fill="white"/>
<rect x="62.3008" y="35.4297" width="0.814299" height="0.807907" fill="white"/>
<rect x="63.9297" y="35.4297" width="0.814299" height="0.807907" fill="white"/>
<rect x="63.9297" y="36.2368" width="0.814299" height="0.807907" fill="white"/>
<rect x="63.9297" y="37.0452" width="0.814299" height="0.807907" fill="white"/>
<rect x="38.6865" y="12.8081" width="0.814299" height="0.807907" fill="white"/>
<rect x="41.1289" y="12.8081" width="0.814299" height="0.807907" fill="white"/>
<rect x="41.9434" y="12.8081" width="0.814299" height="0.807907" fill="white"/>
<rect x="42.7578" y="12" width="0.814299" height="0.807907" fill="white"/>
<rect x="42.7578" y="13.6155" width="0.814299" height="0.807907" fill="white"/>
<rect x="45.2002" y="13.6155" width="0.814299" height="0.807907" fill="white"/>
<rect x="46.0146" y="12.8081" width="0.814299" height="0.807907" fill="white"/>
<rect x="47.6436" y="13.6155" width="0.814299" height="0.807907" fill="white"/>
<rect x="47.6436" y="15.2317" width="0.814299" height="0.807907" fill="white"/>
<rect x="49.2725" y="16.0391" width="0.814299" height="0.807907" fill="white"/>
<rect x="52.5293" y="16.0391" width="0.814299" height="0.807907" fill="white"/>
<path d="M35.6639 21.4768H40.5028V23.0509H42.0776V26.2137H43.6613V27.7965H46.8608C46.8608 28.361 46.8608 28.8876 46.8608 29.4143H43.6349V27.8518H32.4908V29.4114H29.2942V32.5683H27.7575V53.0609H48.3975V32.5392H46.8432V29.391H48.4591V32.5218H50.0398V38.8706H53.2335V40.4418H54.7907V49.9592H53.2217V51.5362H50.031V53.1103H48.4503V54.6554H27.7017V53.1103H26.1181V51.5188H22.9127V49.9505H21.3467V40.4156H22.9362V38.8531H26.124V32.5189H27.7135V29.359H29.3206V27.7733H32.5054V26.1962H34.1155V23.0305H35.6727L35.6639 21.4768ZM26.0947 49.9097V40.4913H22.9567V49.9097H26.0947ZM50.0545 40.4709V49.9097H53.1689V40.4767L50.0545 40.4709ZM40.4353 23.0742H35.7079V26.1962H40.4353V23.0742Z" fill="white"/>
<path d="M30.8658 42.0535V40.427H31.2735C35.8044 40.427 40.3383 40.427 44.8693 40.427C45.186 40.427 45.2886 40.5114 45.2652 40.8227C45.2388 41.2097 45.2652 41.5996 45.2652 42.0215H46.8253V49.9444H45.2681V51.5069H30.8981V49.9531H29.3203V42.0535H30.8717C30.8717 42.1786 30.9039 42.3066 30.9039 42.4346C30.9039 44.7992 30.9039 47.1667 30.9039 49.5371V49.9095H45.1918V42.036H31.1913C31.0799 42.0535 30.9743 42.0535 30.8658 42.0535Z" fill="white"/>
<path d="M34.1064 34.1398V32.5278H35.6695V30.9683H37.2942V32.5016H38.8603V30.9741H40.482V32.5133H42.0393V34.1107H40.4967V35.7022C40.0392 35.7022 39.6169 35.7022 39.2005 35.7022C38.9571 35.7022 38.872 35.7633 38.8837 36.0107C38.9013 36.4296 38.8837 36.8486 38.8837 37.2851H37.2737C37.2737 36.8544 37.2737 36.4296 37.2737 36.0019C37.2737 35.7808 37.218 35.6935 36.9804 35.711C36.5552 35.7284 36.1329 35.711 35.6754 35.711V34.1398H34.1064Z" fill="white"/>
<path d="M43.6442 43.6191V45.1932H35.6879V48.356H34.1072V45.199C33.6497 45.199 33.2274 45.199 32.7875 45.199C32.547 45.199 32.462 45.1379 32.4737 44.8906C32.4913 44.4716 32.4737 44.0526 32.4737 43.6133L43.6442 43.6191Z" fill="white"/>
<path d="M74.75 43.25V41.5H73V32.75H74.75V31H83.5V32.75H85.25V41.5H83.5V43.25H74.75ZM76.5 41.5H81.75V32.75H76.5V41.5ZM99.25 31V32.75H90.5V36.25H92.25V38H90.5V41.5H95.75V36.25H92.25V34.5H97.5V36.25H99.25V41.5H97.5V43.25H88.75V41.5H87V32.75H88.75V31H99.25ZM113.25 36.25V41.5H111.5V43.25H104.5V45H101V34.5H104.5V36.25H106.25V38H104.5V41.5H109.75V36.25H106.25V34.5H111.5V36.25H113.25ZM116.75 43.25V41.5H115V39.75H116.75V38H123.75V36.25H116.75V34.5H125.5V36.25H127.25V43.25H116.75ZM118.5 41.5H123.75V39.75H118.5V41.5ZM130.75 43.25V41.5H129V39.75H132.5V41.5H137.75V39.75H134.25V38H137.75V36.25H132.5V38H129V36.25H130.75V34.5H139.5V36.25H141.25V38H139.5V39.75H141.25V41.5H139.5V43.25H130.75ZM144.75 43.25V41.5H143V36.25H144.75V34.5H153.5V36.25H155.25V41.5H153.5V43.25H144.75ZM146.5 41.5H151.75V36.25H146.5V41.5ZM157 43.25V34.5H167.5V36.25H169.25V38H167.5V39.75H169.25V41.5H167.5V43.25H157ZM160.5 38H165.75V36.25H160.5V38ZM160.5 41.5H165.75V39.75H160.5V41.5ZM172.75 43.25V41.5H171V39.75H172.75V38H179.75V36.25H172.75V34.5H181.5V36.25H183.25V43.25H172.75ZM174.5 41.5H179.75V39.75H174.5V41.5ZM185 43.25V34.5H188.5V38H193.75V34.5H197.25V43.25H193.75V39.75H188.5V43.25H185ZM202.5 39.75H204.25V41.5H202.5V43.25H199V34.5H202.5V39.75ZM211.25 34.5V43.25H207.75V38H206V36.25H207.75V34.5H211.25ZM204.25 38H206V39.75H204.25V38ZM214.75 43.25V41.5H213V36.25H214.75V34.5H223.5V36.25H225.25V39.75H216.5V41.5H223.5V43.25H214.75ZM216.5 38H221.75V36.25H216.5V38Z" fill="white"/>
</svg>
