<svg width="301" height="76" viewBox="0 0 301 76" fill="none" xmlns="http://www.w3.org/2000/svg">
<path d="M12.0227 75.9289V72.5729H6.1714L5.91529 69.1044C3.02906 68.4462 3.02906 68.4463 2.99951 64.954C2.99951 62.0487 2.76309 61.7878 0 61.266V14.6806C0.147759 14.5502 0.226564 14.4138 0.315219 14.4019C2.90593 14.0758 2.99951 13.9454 3.01429 10.6488C3.01429 9.54595 3.01429 8.44313 3.01429 7.23358L5.96947 7.06163L6.10738 3.5575H11.9291L12.1212 0H288.958L289.233 3.5575H295.031C295.085 4.82634 295.129 5.86394 295.188 7.115H298.104V10.6251C298.104 14.058 298.148 14.1055 301 14.5205V61.3609C298.183 61.8767 298.119 61.9538 298.114 65.6536C298.114 66.6379 298.114 67.6221 298.114 68.7783L295.218 69.0451C295.159 70.1716 295.104 71.2092 295.035 72.5077H289.253C289.164 73.7943 289.091 74.8201 289.002 76L12.0227 75.9289Z" fill="white"/>
<path d="M63.1152 37.8533H63.9295V38.6612H63.1152V37.8533Z" fill="#ED7412"/>
<path d="M63.1152 38.6612H63.9295V39.4691H63.1152V38.6612Z" fill="#ED7412"/>
<path d="M63.1152 39.4691H63.9295V40.277H63.1152V39.4691Z" fill="#ED7412"/>
<path d="M62.3009 40.277H63.1152V41.0849H62.3009V40.277Z" fill="#ED7412"/>
<path d="M62.3009 41.0849H63.1152V41.8928H62.3009V41.0849Z" fill="#ED7412"/>
<path d="M62.3009 41.8928H63.1152V42.7007H62.3009V41.8928Z" fill="#ED7412"/>
<path d="M62.3009 42.7007H63.1152V43.5086H62.3009V42.7007Z" fill="#ED7412"/>
<path d="M62.3009 43.5086H63.1152V44.3165H62.3009V43.5086Z" fill="#ED7412"/>
<path d="M62.3009 44.3165H63.1152V45.1244H62.3009V44.3165Z" fill="#ED7412"/>
<path d="M61.4866 45.1244H62.3009V45.9323H61.4866V45.1244Z" fill="#ED7412"/>
<path d="M61.4866 45.9323H62.3009V46.7402H61.4866V45.9323Z" fill="#ED7412"/>
<path d="M61.4866 46.7402H62.3009V47.5481H61.4866V46.7402Z" fill="#ED7412"/>
<path d="M60.6723 47.5481H61.4866V48.3561H60.6723V47.5481Z" fill="#ED7412"/>
<path d="M60.6723 48.3561H61.4866V49.164H60.6723V48.3561Z" fill="#ED7412"/>
<path d="M59.858 49.164H60.6723V49.9719H59.858V49.164Z" fill="#ED7412"/>
<path d="M59.858 49.9719H60.6723V50.7798H59.858V49.9719Z" fill="#ED7412"/>
<path d="M59.0437 50.7798H59.858V51.5877H59.0437V50.7798Z" fill="#ED7412"/>
<path d="M58.2294 51.5877H59.0437V52.3956H58.2294V51.5877Z" fill="#ED7412"/>
<path d="M58.2294 52.3956H59.0437V53.2035H58.2294V52.3956Z" fill="#ED7412"/>
<path d="M57.4151 53.2035H58.2294V54.0114H57.4151V53.2035Z" fill="#ED7412"/>
<path d="M56.6008 54.0114H57.4151V54.8193H56.6008V54.0114Z" fill="#ED7412"/>
<path d="M55.7865 54.8193H56.6008V55.6272H55.7865V54.8193Z" fill="#ED7412"/>
<path d="M54.9722 55.6272H55.7865V56.4351H54.9722V55.6272Z" fill="#ED7412"/>
<path d="M54.1579 56.4351H54.9722V57.243H54.1579V56.4351Z" fill="#ED7412"/>
<path d="M53.3436 57.243H54.1579V58.0509H53.3436V57.243Z" fill="#ED7412"/>
<path d="M52.5293 58.0509H53.3436V58.8588H52.5293V58.0509Z" fill="#ED7412"/>
<path d="M51.715 58.8588H52.5293V59.6667H51.715V58.8588Z" fill="#ED7412"/>
<path d="M50.0864 59.6667H50.9007V60.4747H50.0864V59.6667Z" fill="#ED7412"/>
<path d="M48.4578 60.4747H49.2721V61.2826H48.4578V60.4747Z" fill="#ED7412"/>
<path d="M46.8292 61.2826H47.6435V62.0905H46.8292V61.2826Z" fill="#ED7412"/>
<path d="M44.3863 62.0905H45.2006V62.8984H44.3863V62.0905Z" fill="#ED7412"/>
<path d="M41.1291 62.8984H41.9434V63.7063H41.1291V62.8984Z" fill="#ED7412"/>
<path d="M37.0576 62.8984H37.8719V63.7063H37.0576V62.8984Z" fill="#ED7412"/>
<path d="M37.8719 62.8984H38.6862V63.7063H37.8719V62.8984Z" fill="#ED7412"/>
<path d="M38.6862 62.8984H39.5005V63.7063H38.6862V62.8984Z" fill="#ED7412"/>
<path d="M39.5005 62.8984H40.3148V63.7063H39.5005V62.8984Z" fill="#ED7412"/>
<path d="M40.3148 62.8984H41.1291V63.7063H40.3148V62.8984Z" fill="#ED7412"/>
<path d="M41.9434 62.8984H42.7577V63.7063H41.9434V62.8984Z" fill="#ED7412"/>
<path d="M42.7577 62.8984H43.572V63.7063H42.7577V62.8984Z" fill="#ED7412"/>
<path d="M43.572 62.0905H44.3863V62.8984H43.572V62.0905Z" fill="#ED7412"/>
<path d="M45.2006 62.0905H46.0149V62.8984H45.2006V62.0905Z" fill="#ED7412"/>
<path d="M46.0149 61.2826H46.8292V62.0905H46.0149V61.2826Z" fill="#ED7412"/>
<path d="M47.6435 61.2826H48.4578V62.0905H47.6435V61.2826Z" fill="#ED7412"/>
<path d="M49.2721 60.4747H50.0864V61.2826H49.2721V60.4747Z" fill="#ED7412"/>
<path d="M50.9007 58.8588H51.715V59.6667H50.9007V58.8588Z" fill="#ED7412"/>
<path d="M11 37.8533H11.8143V38.6612H11V37.8533Z" fill="#ED7412"/>
<path d="M11 38.6612H11.8143V39.4691H11V38.6612Z" fill="#ED7412"/>
<path d="M11 39.4691H11.8143V40.277H11V39.4691Z" fill="#ED7412"/>
<path d="M11 40.277H11.8143V41.0849H11V40.277Z" fill="#ED7412"/>
<path d="M11 41.0849H11.8143V41.8928H11V41.0849Z" fill="#ED7412"/>
<path d="M11.8143 41.8928H12.6286V42.7007H11.8143V41.8928Z" fill="#ED7412"/>
<path d="M11.8143 42.7007H12.6286V43.5086H11.8143V42.7007Z" fill="#ED7412"/>
<path d="M11.8143 43.5086H12.6286V44.3165H11.8143V43.5086Z" fill="#ED7412"/>
<path d="M11.8143 44.3165H12.6286V45.1244H11.8143V44.3165Z" fill="#ED7412"/>
<path d="M12.6286 45.1244H13.4429V45.9323H12.6286V45.1244Z" fill="#ED7412"/>
<path d="M12.6286 45.9323H13.4429V46.7402H12.6286V45.9323Z" fill="#ED7412"/>
<path d="M12.6286 46.7402H13.4429V47.5481H12.6286V46.7402Z" fill="#ED7412"/>
<path d="M13.4429 47.5481H14.2572V48.3561H13.4429V47.5481Z" fill="#ED7412"/>
<path d="M13.4429 48.3561H14.2572V49.164H13.4429V48.3561Z" fill="#ED7412"/>
<path d="M14.2572 49.164H15.0715V49.9719H14.2572V49.164Z" fill="#ED7412"/>
<path d="M14.2572 49.9719H15.0715V50.7798H14.2572V49.9719Z" fill="#ED7412"/>
<path d="M15.0715 50.7798H15.8858V51.5877H15.0715V50.7798Z" fill="#ED7412"/>
<path d="M15.0715 51.5877H15.8858V52.3956H15.0715V51.5877Z" fill="#ED7412"/>
<path d="M15.8858 52.3956H16.7001V53.2035H15.8858V52.3956Z" fill="#ED7412"/>
<path d="M16.7001 53.2035H17.5144V54.0114H16.7001V53.2035Z" fill="#ED7412"/>
<path d="M17.5144 54.0114H18.3287V54.8193H17.5144V54.0114Z" fill="#ED7412"/>
<path d="M17.5144 54.8193H18.3287V55.6272H17.5144V54.8193Z" fill="#ED7412"/>
<path d="M18.3287 55.6272H19.143V56.4351H18.3287V55.6272Z" fill="#ED7412"/>
<path d="M19.143 56.4351H19.9573V57.243H19.143V56.4351Z" fill="#ED7412"/>
<path d="M20.7716 57.243H21.5859V58.0509H20.7716V57.243Z" fill="#ED7412"/>
<path d="M21.5859 58.0509H22.4002V58.8588H21.5859V58.0509Z" fill="#ED7412"/>
<path d="M22.4002 58.8588H23.2145V59.6667H22.4002V58.8588Z" fill="#ED7412"/>
<path d="M24.0288 59.6667H24.8431V60.4747H24.0288V59.6667Z" fill="#ED7412"/>
<path d="M25.6574 60.4747H26.4717V61.2826H25.6574V60.4747Z" fill="#ED7412"/>
<path d="M27.286 61.2826H28.1003V62.0905H27.286V61.2826Z" fill="#ED7412"/>
<path d="M29.7289 62.0905H30.5432V62.8984H29.7289V62.0905Z" fill="#ED7412"/>
<path d="M32.9861 62.8984H33.8004V63.7063H32.9861V62.8984Z" fill="#ED7412"/>
<path d="M19.9573 56.4351H20.7716V57.243H19.9573V56.4351Z" fill="#ED7412"/>
<path d="M23.2145 58.8588H24.0288V59.6667H23.2145V58.8588Z" fill="#ED7412"/>
<path d="M24.8431 60.4747H25.6574V61.2826H24.8431V60.4747Z" fill="#ED7412"/>
<path d="M26.4717 61.2826H27.286V62.0905H26.4717V61.2826Z" fill="#ED7412"/>
<path d="M28.1003 61.2826H28.9146V62.0905H28.1003V61.2826Z" fill="#ED7412"/>
<path d="M28.9146 62.0905H29.7289V62.8984H28.9146V62.0905Z" fill="#ED7412"/>
<path d="M30.5432 62.0905H31.3575V62.8984H30.5432V62.0905Z" fill="#ED7412"/>
<path d="M31.3575 62.8984H32.1718V63.7063H31.3575V62.8984Z" fill="#ED7412"/>
<path d="M32.1718 62.8984H32.9861V63.7063H32.1718V62.8984Z" fill="#ED7412"/>
<path d="M33.8004 62.8984H34.6147V63.7063H33.8004V62.8984Z" fill="#ED7412"/>
<path d="M34.6147 62.8984H35.429V63.7063H34.6147V62.8984Z" fill="#ED7412"/>
<path d="M35.429 62.8984H36.2433V63.7063H35.429V62.8984Z" fill="#ED7412"/>
<path d="M36.2433 62.8984H37.0576V63.7063H36.2433V62.8984Z" fill="#ED7412"/>
<path d="M34.6147 12.0002H35.429V12.8082H34.6147V12.0002Z" fill="#ED7412"/>
<path d="M29.7289 12.8082H30.5432V13.6161H29.7289V12.8082Z" fill="#ED7412"/>
<path d="M27.286 13.6161H28.1003V14.424H27.286V13.6161Z" fill="#ED7412"/>
<path d="M25.6574 14.424H26.4717V15.2319H25.6574V14.424Z" fill="#ED7412"/>
<path d="M24.0288 15.2319H24.8431V16.0398H24.0288V15.2319Z" fill="#ED7412"/>
<path d="M23.2145 16.0398H24.0288V16.8477H23.2145V16.0398Z" fill="#ED7412"/>
<path d="M21.5859 16.8477H22.4002V17.6556H21.5859V16.8477Z" fill="#ED7412"/>
<path d="M20.7716 17.6556H21.5859V18.4635H20.7716V17.6556Z" fill="#ED7412"/>
<path d="M19.9573 18.4635H20.7716V19.2714H19.9573V18.4635Z" fill="#ED7412"/>
<path d="M19.143 19.2714H19.9573V20.0793H19.143V19.2714Z" fill="#ED7412"/>
<path d="M18.3287 20.0793H19.143V20.8872H18.3287V20.0793Z" fill="#ED7412"/>
<path d="M17.5144 20.8872H18.3287V21.6951H17.5144V20.8872Z" fill="#ED7412"/>
<path d="M16.7001 21.6951H17.5144V22.503H16.7001V21.6951Z" fill="#ED7412"/>
<path d="M15.8858 22.503H16.7001V23.3109H15.8858V22.503Z" fill="#ED7412"/>
<path d="M15.0715 23.3109H15.8858V24.1188H15.0715V23.3109Z" fill="#ED7412"/>
<path d="M15.0715 24.1188H15.8858V24.9268H15.0715V24.1188Z" fill="#ED7412"/>
<path d="M14.2572 24.9268H15.0715V25.7347H14.2572V24.9268Z" fill="#ED7412"/>
<path d="M14.2572 25.7347H15.0715V26.5426H14.2572V25.7347Z" fill="#ED7412"/>
<path d="M13.4429 26.5426H14.2572V27.3505H13.4429V26.5426Z" fill="#ED7412"/>
<path d="M13.4429 27.3505H14.2572V28.1584H13.4429V27.3505Z" fill="#ED7412"/>
<path d="M12.6286 28.1584H13.4429V28.9663H12.6286V28.1584Z" fill="#ED7412"/>
<path d="M12.6286 28.9663H13.4429V29.7742H12.6286V28.9663Z" fill="#ED7412"/>
<path d="M12.6286 29.7742H13.4429V30.5821H12.6286V29.7742Z" fill="#ED7412"/>
<path d="M11.8143 30.5821H12.6286V31.39H11.8143V30.5821Z" fill="#ED7412"/>
<path d="M11.8143 31.39H12.6286V32.1979H11.8143V31.39Z" fill="#ED7412"/>
<path d="M11.8143 32.1979H12.6286V33.0058H11.8143V32.1979Z" fill="#ED7412"/>
<path d="M11.8143 33.0058H12.6286V33.8137H11.8143V33.0058Z" fill="#ED7412"/>
<path d="M11 33.8137H11.8143V34.6216H11V33.8137Z" fill="#ED7412"/>
<path d="M11 34.6216H11.8143V35.4295H11V34.6216Z" fill="#ED7412"/>
<path d="M11 35.4295H11.8143V36.2374H11V35.4295Z" fill="#ED7412"/>
<path d="M11 36.2374H11.8143V37.0454H11V36.2374Z" fill="#ED7412"/>
<path d="M11 37.0454H11.8143V37.8533H11V37.0454Z" fill="#ED7412"/>
<path d="M22.4002 16.0398H23.2145V16.8477H22.4002V16.0398Z" fill="#ED7412"/>
<path d="M24.8431 15.2319H25.6574V16.0398H24.8431V15.2319Z" fill="#ED7412"/>
<path d="M26.4717 14.424H27.286V15.2319H26.4717V14.424Z" fill="#ED7412"/>
<path d="M28.1003 13.6161H28.9146V14.424H28.1003V13.6161Z" fill="#ED7412"/>
<path d="M28.9146 12.8082H29.7289V13.6161H28.9146V12.8082Z" fill="#ED7412"/>
<path d="M30.5432 12.8082H31.3575V13.6161H30.5432V12.8082Z" fill="#ED7412"/>
<path d="M31.3575 12.8082H32.1718V13.6161H31.3575V12.8082Z" fill="#ED7412"/>
<path d="M32.1718 12.0002H32.9861V12.8082H32.1718V12.0002Z" fill="#ED7412"/>
<path d="M32.9861 12.0002H33.8004V12.8082H32.9861V12.0002Z" fill="#ED7412"/>
<path d="M33.8004 12.0002H34.6147V12.8082H33.8004V12.0002Z" fill="#ED7412"/>
<path d="M35.429 12.0002H36.2433V12.8082H35.429V12.0002Z" fill="#ED7412"/>
<path d="M36.2433 12.0002H37.0576V12.8082H36.2433V12.0002Z" fill="#ED7412"/>
<path d="M37.0576 12.0002H37.8719V12.8082H37.0576V12.0002Z" fill="#ED7412"/>
<path d="M39.5005 12.0002H40.3148V12.8082H39.5005V12.0002Z" fill="#ED7412"/>
<path d="M43.572 12.8082H44.3863V13.6161H43.572V12.8082Z" fill="#ED7412"/>
<path d="M46.0149 13.6161H46.8292V14.424H46.0149V13.6161Z" fill="#ED7412"/>
<path d="M48.4578 14.424H49.2721V15.2319H48.4578V14.424Z" fill="#ED7412"/>
<path d="M50.0864 15.2319H50.9007V16.0398H50.0864V15.2319Z" fill="#ED7412"/>
<path d="M50.9007 16.0398H51.715V16.8477H50.9007V16.0398Z" fill="#ED7412"/>
<path d="M52.5293 16.8477H53.3436V17.6556H52.5293V16.8477Z" fill="#ED7412"/>
<path d="M53.3436 17.6556H54.1579V18.4635H53.3436V17.6556Z" fill="#ED7412"/>
<path d="M54.1579 18.4635H54.9722V19.2714H54.1579V18.4635Z" fill="#ED7412"/>
<path d="M54.9722 19.2714H55.7865V20.0793H54.9722V19.2714Z" fill="#ED7412"/>
<path d="M55.7865 20.0793H56.6008V20.8872H55.7865V20.0793Z" fill="#ED7412"/>
<path d="M56.6008 20.8872H57.4151V21.6951H56.6008V20.8872Z" fill="#ED7412"/>
<path d="M57.4151 21.6951H58.2294V22.503H57.4151V21.6951Z" fill="#ED7412"/>
<path d="M58.2294 22.503H59.0437V23.3109H58.2294V22.503Z" fill="#ED7412"/>
<path d="M58.2294 23.3109H59.0437V24.1188H58.2294V23.3109Z" fill="#ED7412"/>
<path d="M59.0437 24.1188H59.858V24.9268H59.0437V24.1188Z" fill="#ED7412"/>
<path d="M59.858 24.9268H60.6723V25.7347H59.858V24.9268Z" fill="#ED7412"/>
<path d="M59.858 25.7347H60.6723V26.5426H59.858V25.7347Z" fill="#ED7412"/>
<path d="M60.6723 26.5426H61.4866V27.3505H60.6723V26.5426Z" fill="#ED7412"/>
<path d="M60.6723 27.3505H61.4866V28.1584H60.6723V27.3505Z" fill="#ED7412"/>
<path d="M60.6723 28.1584H61.4866V28.9663H60.6723V28.1584Z" fill="#ED7412"/>
<path d="M61.4866 28.9663H62.3009V29.7742H61.4866V28.9663Z" fill="#ED7412"/>
<path d="M61.4866 29.7742H62.3009V30.5821H61.4866V29.7742Z" fill="#ED7412"/>
<path d="M61.4866 30.5821H62.3009V31.39H61.4866V30.5821Z" fill="#ED7412"/>
<path d="M62.3009 31.39H63.1152V32.1979H62.3009V31.39Z" fill="#ED7412"/>
<path d="M62.3009 32.1979H63.1152V33.0058H62.3009V32.1979Z" fill="#ED7412"/>
<path d="M62.3009 33.0058H63.1152V33.8137H62.3009V33.0058Z" fill="#ED7412"/>
<path d="M62.3009 33.8137H63.1152V34.6216H62.3009V33.8137Z" fill="#ED7412"/>
<path d="M62.3009 34.6216H63.1152V35.4295H62.3009V34.6216Z" fill="#ED7412"/>
<path d="M63.1152 35.4295H63.9295V36.2374H63.1152V35.4295Z" fill="#ED7412"/>
<path d="M63.1152 36.2374H63.9295V37.0454H63.1152V36.2374Z" fill="#ED7412"/>
<path d="M63.1152 37.0454H63.9295V37.8533H63.1152V37.0454Z" fill="#ED7412"/>
<path d="M37.8719 12.0002H38.6862V12.8082H37.8719V12.0002Z" fill="#ED7412"/>
<path d="M38.6862 12.0002H39.5005V12.8082H38.6862V12.0002Z" fill="#ED7412"/>
<path d="M40.3148 12.0002H41.1291V12.8082H40.3148V12.0002Z" fill="#ED7412"/>
<path d="M41.1291 12.0002H41.9434V12.8082H41.1291V12.0002Z" fill="#ED7412"/>
<path d="M41.9434 12.0002H42.7577V12.8082H41.9434V12.0002Z" fill="#ED7412"/>
<path d="M42.7577 12.8082H43.572V13.6161H42.7577V12.8082Z" fill="#ED7412"/>
<path d="M44.3863 12.8082H45.2006V13.6161H44.3863V12.8082Z" fill="#ED7412"/>
<path d="M45.2006 12.8082H46.0149V13.6161H45.2006V12.8082Z" fill="#ED7412"/>
<path d="M46.8292 13.6161H47.6435V14.424H46.8292V13.6161Z" fill="#ED7412"/>
<path d="M47.6435 14.424H48.4578V15.2319H47.6435V14.424Z" fill="#ED7412"/>
<path d="M49.2721 15.2319H50.0864V16.0398H49.2721V15.2319Z" fill="#ED7412"/>
<path d="M51.715 16.0398H52.5293V16.8477H51.715V16.0398Z" fill="#ED7412"/>
<rect x="63.1152" y="37.8523" width="0.814299" height="0.807907" fill="#ED7412"/>
<rect x="63.1152" y="38.6614" width="0.814299" height="0.807907" fill="#ED7412"/>
<rect x="63.1152" y="39.4688" width="0.814299" height="0.807907" fill="#ED7412"/>
<rect x="62.3008" y="40.2769" width="0.814299" height="0.807907" fill="#ED7412"/>
<rect x="62.3008" y="41.084" width="0.814299" height="0.807907" fill="#ED7412"/>
<rect x="62.3008" y="41.8923" width="0.814299" height="0.807907" fill="#ED7412"/>
<rect x="62.3008" y="42.7004" width="0.814299" height="0.807907" fill="#ED7412"/>
<rect x="62.3008" y="43.5085" width="0.814299" height="0.807907" fill="#ED7412"/>
<rect x="62.3008" y="44.3159" width="0.814299" height="0.807907" fill="#ED7412"/>
<rect x="61.4863" y="45.124" width="0.814299" height="0.807907" fill="#ED7412"/>
<rect x="61.4863" y="45.9321" width="0.814299" height="0.807907" fill="#ED7412"/>
<rect x="61.4863" y="46.7405" width="0.814299" height="0.807907" fill="#ED7412"/>
<rect x="60.6719" y="47.5476" width="0.814299" height="0.807907" fill="#ED7412"/>
<rect x="60.6719" y="48.3557" width="0.814299" height="0.807907" fill="#ED7412"/>
<rect x="59.8584" y="49.1631" width="0.814299" height="0.807907" fill="#ED7412"/>
<rect x="59.8584" y="49.9712" width="0.814299" height="0.807907" fill="#ED7412"/>
<rect x="59.0439" y="50.7793" width="0.814299" height="0.807907" fill="#ED7412"/>
<rect x="58.2295" y="51.5876" width="0.814299" height="0.807907" fill="#ED7412"/>
<rect x="58.2295" y="52.3948" width="0.814299" height="0.807907" fill="#ED7412"/>
<rect x="57.415" y="53.2031" width="0.814299" height="0.807907" fill="#ED7412"/>
<rect x="56.6006" y="54.0112" width="0.814299" height="0.807907" fill="#ED7412"/>
<rect x="55.7861" y="54.8193" width="0.814299" height="0.807907" fill="#ED7412"/>
<rect x="54.9727" y="55.6267" width="0.814299" height="0.807907" fill="#ED7412"/>
<rect x="54.1572" y="56.4348" width="0.814299" height="0.807907" fill="#ED7412"/>
<rect x="53.3438" y="57.2419" width="0.814299" height="0.807907" fill="#ED7412"/>
<rect x="52.5293" y="58.051" width="0.814299" height="0.807907" fill="#ED7412"/>
<rect x="51.7148" y="58.8584" width="0.814299" height="0.807907" fill="#ED7412"/>
<rect x="50.0859" y="59.6665" width="0.814299" height="0.807907" fill="#ED7412"/>
<rect x="48.458" y="60.4739" width="0.814299" height="0.807907" fill="#ED7412"/>
<rect x="46.8291" y="61.282" width="0.814299" height="0.807907" fill="#ED7412"/>
<rect x="44.3857" y="62.0901" width="0.814299" height="0.807907" fill="#ED7412"/>
<rect x="41.1289" y="62.8984" width="0.814299" height="0.807907" fill="#ED7412"/>
<rect x="37.0576" y="62.8984" width="0.814299" height="0.807907" fill="#ED7412"/>
<rect x="37.8721" y="62.8984" width="0.814299" height="0.807907" fill="#ED7412"/>
<rect x="38.6865" y="62.8984" width="0.814299" height="0.807907" fill="#ED7412"/>
<rect x="39.5" y="62.8984" width="0.814299" height="0.807907" fill="#ED7412"/>
<rect x="40.3145" y="62.8984" width="0.814299" height="0.807907" fill="#ED7412"/>
<rect x="41.9434" y="62.8984" width="0.814299" height="0.807907" fill="#ED7412"/>
<rect x="42.7578" y="62.8984" width="0.814299" height="0.807907" fill="#ED7412"/>
<rect x="43.5723" y="62.0901" width="0.814299" height="0.807907" fill="#ED7412"/>
<rect x="45.2002" y="62.0901" width="0.814299" height="0.807907" fill="#ED7412"/>
<rect x="46.0146" y="61.282" width="0.814299" height="0.807907" fill="#ED7412"/>
<rect x="47.6436" y="61.282" width="0.814299" height="0.807907" fill="#ED7412"/>
<rect x="49.2725" y="60.4739" width="0.814299" height="0.807907" fill="#ED7412"/>
<rect x="50.9004" y="58.8584" width="0.814299" height="0.807907" fill="#ED7412"/>
<rect x="11" y="37.8523" width="0.814299" height="0.807907" fill="#ED7412"/>
<rect x="11" y="38.6614" width="0.814299" height="0.807907" fill="#ED7412"/>
<rect x="11" y="39.4688" width="0.814299" height="0.807907" fill="#ED7412"/>
<rect x="11" y="40.2769" width="0.814299" height="0.807907" fill="#ED7412"/>
<rect x="11" y="41.084" width="0.814299" height="0.807907" fill="#ED7412"/>
<rect x="11.8145" y="41.8923" width="0.814299" height="0.807907" fill="#ED7412"/>
<rect x="11.8145" y="42.7004" width="0.814299" height="0.807907" fill="#ED7412"/>
<rect x="11.8145" y="43.5085" width="0.814299" height="0.807907" fill="#ED7412"/>
<rect x="11.8145" y="44.3159" width="0.814299" height="0.807907" fill="#ED7412"/>
<rect x="12.6289" y="45.124" width="0.814299" height="0.807907" fill="#ED7412"/>
<rect x="12.6289" y="45.9321" width="0.814299" height="0.807907" fill="#ED7412"/>
<rect x="12.6289" y="46.7405" width="0.814299" height="0.807907" fill="#ED7412"/>
<rect x="13.4424" y="47.5476" width="0.814299" height="0.807907" fill="#ED7412"/>
<rect x="13.4424" y="48.3557" width="0.814299" height="0.807907" fill="#ED7412"/>
<rect x="14.2568" y="49.1631" width="0.814299" height="0.807907" fill="#ED7412"/>
<rect x="14.2568" y="49.9712" width="0.814299" height="0.807907" fill="#ED7412"/>
<rect x="15.0713" y="50.7793" width="0.814299" height="0.807907" fill="#ED7412"/>
<rect x="15.0713" y="51.5876" width="0.814299" height="0.807907" fill="#ED7412"/>
<rect x="15.8857" y="52.3948" width="0.814299" height="0.807907" fill="#ED7412"/>
<rect x="16.7002" y="53.2031" width="0.814299" height="0.807907" fill="#ED7412"/>
<rect x="17.5146" y="54.0112" width="0.814299" height="0.807907" fill="#ED7412"/>
<rect x="17.5146" y="54.8193" width="0.814299" height="0.807907" fill="#ED7412"/>
<rect x="18.3291" y="55.6267" width="0.814299" height="0.807907" fill="#ED7412"/>
<rect x="19.1426" y="56.4348" width="0.814299" height="0.807907" fill="#ED7412"/>
<rect x="20.7715" y="57.2419" width="0.814299" height="0.807907" fill="#ED7412"/>
<rect x="21.5859" y="58.051" width="0.814299" height="0.807907" fill="#ED7412"/>
<rect x="22.4004" y="58.8584" width="0.814299" height="0.807907" fill="#ED7412"/>
<rect x="24.0283" y="59.6665" width="0.814299" height="0.807907" fill="#ED7412"/>
<rect x="25.6572" y="60.4739" width="0.814299" height="0.807907" fill="#ED7412"/>
<rect x="27.2861" y="61.282" width="0.814299" height="0.807907" fill="#ED7412"/>
<rect x="29.7285" y="62.0901" width="0.814299" height="0.807907" fill="#ED7412"/>
<rect x="32.9863" y="62.8984" width="0.814299" height="0.807907" fill="#ED7412"/>
<rect x="19.957" y="56.4348" width="0.814299" height="0.807907" fill="#ED7412"/>
<rect x="23.2139" y="58.8584" width="0.814299" height="0.807907" fill="#ED7412"/>
<rect x="24.8428" y="60.4739" width="0.814299" height="0.807907" fill="#ED7412"/>
<rect x="26.4717" y="61.282" width="0.814299" height="0.807907" fill="#ED7412"/>
<rect x="28.1006" y="61.282" width="0.814299" height="0.807907" fill="#ED7412"/>
<rect x="28.9141" y="62.0901" width="0.814299" height="0.807907" fill="#ED7412"/>
<rect x="30.543" y="62.0901" width="0.814299" height="0.807907" fill="#ED7412"/>
<rect x="31.3574" y="62.8984" width="0.814299" height="0.807907" fill="#ED7412"/>
<rect x="32.1719" y="62.8984" width="0.814299" height="0.807907" fill="#ED7412"/>
<rect x="33.8008" y="62.8984" width="0.814299" height="0.807907" fill="#ED7412"/>
<rect x="34.6143" y="62.8984" width="0.814299" height="0.807907" fill="#ED7412"/>
<rect x="35.4287" y="62.8984" width="0.814299" height="0.807907" fill="#ED7412"/>
<rect x="36.2432" y="62.8984" width="0.814299" height="0.807907" fill="#ED7412"/>
<rect x="34.6143" y="12" width="0.814299" height="0.807907" fill="#ED7412"/>
<rect x="29.7285" y="12.8081" width="0.814299" height="0.807907" fill="#ED7412"/>
<rect x="27.2861" y="13.6155" width="0.814299" height="0.807907" fill="#ED7412"/>
<rect x="25.6572" y="14.4236" width="0.814299" height="0.807907" fill="#ED7412"/>
<rect x="24.0283" y="15.2317" width="0.814299" height="0.807907" fill="#ED7412"/>
<rect x="23.2139" y="16.0391" width="0.814299" height="0.807907" fill="#ED7412"/>
<rect x="21.5859" y="16.8472" width="0.814299" height="0.807907" fill="#ED7412"/>
<rect x="20.7715" y="17.6553" width="0.814299" height="0.807907" fill="#ED7412"/>
<rect x="19.957" y="18.4636" width="0.814299" height="0.807907" fill="#ED7412"/>
<rect x="19.1426" y="19.2717" width="0.814299" height="0.807907" fill="#ED7412"/>
<rect x="18.3291" y="20.0789" width="0.814299" height="0.807907" fill="#ED7412"/>
<rect x="17.5146" y="20.8872" width="0.814299" height="0.807907" fill="#ED7412"/>
<rect x="16.7002" y="21.6943" width="0.814299" height="0.807907" fill="#ED7412"/>
<rect x="15.8857" y="22.5027" width="0.814299" height="0.807907" fill="#ED7412"/>
<rect x="15.0713" y="23.3108" width="0.814299" height="0.807907" fill="#ED7412"/>
<rect x="15.0713" y="24.1189" width="0.814299" height="0.807907" fill="#ED7412"/>
<rect x="14.2568" y="24.9263" width="0.814299" height="0.807907" fill="#ED7412"/>
<rect x="14.2568" y="25.7344" width="0.814299" height="0.807907" fill="#ED7412"/>
<rect x="13.4424" y="26.5425" width="0.814299" height="0.807907" fill="#ED7412"/>
<rect x="13.4424" y="27.3506" width="0.814299" height="0.807907" fill="#ED7412"/>
<rect x="12.6289" y="28.158" width="0.814299" height="0.807907" fill="#ED7412"/>
<rect x="12.6289" y="28.9661" width="0.814299" height="0.807907" fill="#ED7412"/>
<rect x="12.6289" y="29.7734" width="0.814299" height="0.807907" fill="#ED7412"/>
<rect x="11.8145" y="30.5815" width="0.814299" height="0.807907" fill="#ED7412"/>
<rect x="11.8145" y="31.3896" width="0.814299" height="0.807907" fill="#ED7412"/>
<rect x="11.8145" y="32.198" width="0.814299" height="0.807907" fill="#ED7412"/>
<rect x="11.8145" y="33.0051" width="0.814299" height="0.807907" fill="#ED7412"/>
<rect x="11" y="33.8132" width="0.814299" height="0.807907" fill="#ED7412"/>
<rect x="11" y="34.6216" width="0.814299" height="0.807907" fill="#ED7412"/>
<rect x="11" y="35.4297" width="0.814299" height="0.807907" fill="#ED7412"/>
<rect x="11" y="36.2368" width="0.814299" height="0.807907" fill="#ED7412"/>
<rect x="11" y="37.0452" width="0.814299" height="0.807907" fill="#ED7412"/>
<rect x="22.4004" y="16.0391" width="0.814299" height="0.807907" fill="#ED7412"/>
<rect x="24.8428" y="15.2317" width="0.814299" height="0.807907" fill="#ED7412"/>
<rect x="26.4717" y="14.4236" width="0.814299" height="0.807907" fill="#ED7412"/>
<rect x="28.1006" y="13.6155" width="0.814299" height="0.807907" fill="#ED7412"/>
<rect x="28.9141" y="12.8081" width="0.814299" height="0.807907" fill="#ED7412"/>
<rect x="30.543" y="12.8081" width="0.814299" height="0.807907" fill="#ED7412"/>
<rect x="31.3574" y="12.8081" width="0.814299" height="0.807907" fill="#ED7412"/>
<rect x="32.1719" y="12" width="0.814299" height="0.807907" fill="#ED7412"/>
<rect x="32.9863" y="12" width="0.814299" height="0.807907" fill="#ED7412"/>
<rect x="33.8008" y="12" width="0.814299" height="0.807907" fill="#ED7412"/>
<rect x="35.4287" y="12" width="0.814299" height="0.807907" fill="#ED7412"/>
<rect x="36.2432" y="12" width="0.814299" height="0.807907" fill="#ED7412"/>
<rect x="37.0576" y="12" width="0.814299" height="0.807907" fill="#ED7412"/>
<rect x="39.5" y="12" width="0.814299" height="0.807907" fill="#ED7412"/>
<rect x="43.5723" y="12.8081" width="0.814299" height="0.807907" fill="#ED7412"/>
<rect x="46.0146" y="13.6155" width="0.814299" height="0.807907" fill="#ED7412"/>
<rect x="48.458" y="14.4236" width="0.814299" height="0.807907" fill="#ED7412"/>
<rect x="50.0859" y="15.2317" width="0.814299" height="0.807907" fill="#ED7412"/>
<rect x="50.9004" y="16.0391" width="0.814299" height="0.807907" fill="#ED7412"/>
<rect x="52.5293" y="16.8472" width="0.814299" height="0.807907" fill="#ED7412"/>
<rect x="53.3438" y="17.6553" width="0.814299" height="0.807907" fill="#ED7412"/>
<rect x="54.1572" y="18.4636" width="0.814299" height="0.807907" fill="#ED7412"/>
<rect x="54.9727" y="19.2717" width="0.814299" height="0.807907" fill="#ED7412"/>
<rect x="55.7861" y="20.0789" width="0.814299" height="0.807907" fill="#ED7412"/>
<rect x="56.6006" y="20.8872" width="0.814299" height="0.807907" fill="#ED7412"/>
<rect x="57.415" y="21.6943" width="0.814299" height="0.807907" fill="#ED7412"/>
<rect x="58.2295" y="22.5027" width="0.814299" height="0.807907" fill="#ED7412"/>
<rect x="58.2295" y="23.3108" width="0.814299" height="0.807907" fill="#ED7412"/>
<rect x="59.0439" y="24.1189" width="0.814299" height="0.807907" fill="#ED7412"/>
<rect x="59.8584" y="24.9263" width="0.814299" height="0.807907" fill="#ED7412"/>
<rect x="59.8584" y="25.7344" width="0.814299" height="0.807907" fill="#ED7412"/>
<rect x="60.6719" y="26.5425" width="0.814299" height="0.807907" fill="#ED7412"/>
<rect x="60.6719" y="27.3506" width="0.814299" height="0.807907" fill="#ED7412"/>
<rect x="60.6719" y="28.158" width="0.814299" height="0.807907" fill="#ED7412"/>
<rect x="61.4863" y="28.9661" width="0.814299" height="0.807907" fill="#ED7412"/>
<rect x="61.4863" y="29.7734" width="0.814299" height="0.807907" fill="#ED7412"/>
<rect x="61.4863" y="30.5815" width="0.814299" height="0.807907" fill="#ED7412"/>
<rect x="62.3008" y="31.3896" width="0.814299" height="0.807907" fill="#ED7412"/>
<rect x="62.3008" y="32.198" width="0.814299" height="0.807907" fill="#ED7412"/>
<rect x="62.3008" y="33.0051" width="0.814299" height="0.807907" fill="#ED7412"/>
<rect x="62.3008" y="33.8132" width="0.814299" height="0.807907" fill="#ED7412"/>
<rect x="62.3008" y="34.6216" width="0.814299" height="0.807907" fill="#ED7412"/>
<rect x="63.1152" y="35.4297" width="0.814299" height="0.807907" fill="#ED7412"/>
<rect x="63.1152" y="36.2368" width="0.814299" height="0.807907" fill="#ED7412"/>
<rect x="63.1152" y="37.0452" width="0.814299" height="0.807907" fill="#ED7412"/>
<rect x="37.8721" y="12" width="0.814299" height="0.807907" fill="#ED7412"/>
<rect x="38.6865" y="12" width="0.814299" height="0.807907" fill="#ED7412"/>
<rect x="40.3145" y="12" width="0.814299" height="0.807907" fill="#ED7412"/>
<rect x="41.1289" y="12" width="0.814299" height="0.807907" fill="#ED7412"/>
<rect x="41.9434" y="12" width="0.814299" height="0.807907" fill="#ED7412"/>
<rect x="42.7578" y="12.8081" width="0.814299" height="0.807907" fill="#ED7412"/>
<rect x="44.3857" y="12.8081" width="0.814299" height="0.807907" fill="#ED7412"/>
<rect x="45.2002" y="12.8081" width="0.814299" height="0.807907" fill="#ED7412"/>
<rect x="46.8291" y="13.6155" width="0.814299" height="0.807907" fill="#ED7412"/>
<rect x="47.6436" y="14.4236" width="0.814299" height="0.807907" fill="#ED7412"/>
<rect x="49.2725" y="15.2317" width="0.814299" height="0.807907" fill="#ED7412"/>
<rect x="51.7148" y="16.0391" width="0.814299" height="0.807907" fill="#ED7412"/>
<rect x="63.9297" y="37.8523" width="0.814299" height="0.807907" fill="#ED7412"/>
<rect x="63.9297" y="38.6614" width="0.814299" height="0.807907" fill="#ED7412"/>
<rect x="63.9297" y="39.4688" width="0.814299" height="0.807907" fill="#ED7412"/>
<rect x="63.9297" y="40.2769" width="0.814299" height="0.807907" fill="#ED7412"/>
<rect x="63.1152" y="40.2769" width="0.814299" height="0.807907" fill="#ED7412"/>
<rect x="63.1152" y="41.084" width="0.814299" height="0.807907" fill="#ED7412"/>
<rect x="63.1152" y="41.8923" width="0.814299" height="0.807907" fill="#ED7412"/>
<rect x="63.1152" y="42.7004" width="0.814299" height="0.807907" fill="#ED7412"/>
<rect x="63.1152" y="43.5085" width="0.814299" height="0.807907" fill="#ED7412"/>
<rect x="63.1152" y="44.3159" width="0.814299" height="0.807907" fill="#ED7412"/>
<rect x="63.1152" y="45.124" width="0.814299" height="0.807907" fill="#ED7412"/>
<rect x="62.3008" y="45.124" width="0.814299" height="0.807907" fill="#ED7412"/>
<rect x="62.3008" y="45.9321" width="0.814299" height="0.807907" fill="#ED7412"/>
<rect x="62.3008" y="46.7405" width="0.814299" height="0.807907" fill="#ED7412"/>
<rect x="62.3008" y="47.5476" width="0.814299" height="0.807907" fill="#ED7412"/>
<rect x="61.4863" y="47.5476" width="0.814299" height="0.807907" fill="#ED7412"/>
<rect x="61.4863" y="48.3557" width="0.814299" height="0.807907" fill="#ED7412"/>
<rect x="61.4863" y="49.1631" width="0.814299" height="0.807907" fill="#ED7412"/>
<rect x="60.6719" y="49.1631" width="0.814299" height="0.807907" fill="#ED7412"/>
<rect x="60.6719" y="49.9712" width="0.814299" height="0.807907" fill="#ED7412"/>
<rect x="60.6719" y="50.7793" width="0.814299" height="0.807907" fill="#ED7412"/>
<rect x="59.8584" y="50.7793" width="0.814299" height="0.807907" fill="#ED7412"/>
<rect x="59.8584" y="51.5876" width="0.814299" height="0.807907" fill="#ED7412"/>
<rect x="59.0439" y="51.5876" width="0.814299" height="0.807907" fill="#ED7412"/>
<rect x="59.0439" y="52.3948" width="0.814299" height="0.807907" fill="#ED7412"/>
<rect x="59.0439" y="53.2031" width="0.814299" height="0.807907" fill="#ED7412"/>
<rect x="58.2295" y="53.2031" width="0.814299" height="0.807907" fill="#ED7412"/>
<rect x="58.2295" y="54.0112" width="0.814299" height="0.807907" fill="#ED7412"/>
<rect x="57.415" y="54.0112" width="0.814299" height="0.807907" fill="#ED7412"/>
<rect x="57.415" y="54.8193" width="0.814299" height="0.807907" fill="#ED7412"/>
<rect x="56.6006" y="54.8193" width="0.814299" height="0.807907" fill="#ED7412"/>
<rect x="56.6006" y="55.6267" width="0.814299" height="0.807907" fill="#ED7412"/>
<rect x="55.7861" y="55.6267" width="0.814299" height="0.807907" fill="#ED7412"/>
<rect x="55.7861" y="56.4348" width="0.814299" height="0.807907" fill="#ED7412"/>
<rect x="54.9727" y="56.4348" width="0.814299" height="0.807907" fill="#ED7412"/>
<rect x="54.9727" y="57.2419" width="0.814299" height="0.807907" fill="#ED7412"/>
<rect x="54.1572" y="57.2419" width="0.814299" height="0.807907" fill="#ED7412"/>
<rect x="54.1572" y="58.051" width="0.814299" height="0.807907" fill="#ED7412"/>
<rect x="53.3438" y="58.051" width="0.814299" height="0.807907" fill="#ED7412"/>
<rect x="53.3438" y="58.8584" width="0.814299" height="0.807907" fill="#ED7412"/>
<rect x="52.5293" y="58.8584" width="0.814299" height="0.807907" fill="#ED7412"/>
<rect x="52.5293" y="59.6665" width="0.814299" height="0.807907" fill="#ED7412"/>
<rect x="51.7148" y="59.6665" width="0.814299" height="0.807907" fill="#ED7412"/>
<rect x="50.0859" y="58.8584" width="0.814299" height="0.807907" fill="#ED7412"/>
<rect x="50.9004" y="59.6665" width="0.814299" height="0.807907" fill="#ED7412"/>
<rect x="50.9004" y="60.4739" width="0.814299" height="0.807907" fill="#ED7412"/>
<rect x="50.0859" y="60.4739" width="0.814299" height="0.807907" fill="#ED7412"/>
<rect x="49.2725" y="61.282" width="0.814299" height="0.807907" fill="#ED7412"/>
<rect x="48.458" y="61.282" width="0.814299" height="0.807907" fill="#ED7412"/>
<rect x="47.6436" y="62.0901" width="0.814299" height="0.807907" fill="#ED7412"/>
<rect x="46.8291" y="62.0901" width="0.814299" height="0.807907" fill="#ED7412"/>
<rect x="45.2002" y="62.8984" width="0.814299" height="0.807907" fill="#ED7412"/>
<rect x="44.3857" y="62.8984" width="0.814299" height="0.807907" fill="#ED7412"/>
<rect x="41.9434" y="63.7056" width="0.814299" height="0.807907" fill="#ED7412"/>
<rect x="41.1289" y="63.7056" width="0.814299" height="0.807907" fill="#ED7412"/>
<rect x="37.8721" y="63.7056" width="0.814299" height="0.807907" fill="#ED7412"/>
<rect x="37.0576" y="63.7056" width="0.814299" height="0.807907" fill="#ED7412"/>
<rect x="38.6865" y="63.7056" width="0.814299" height="0.807907" fill="#ED7412"/>
<rect x="39.5" y="63.7056" width="0.814299" height="0.807907" fill="#ED7412"/>
<rect x="40.3145" y="63.7056" width="0.814299" height="0.807907" fill="#ED7412"/>
<rect x="42.7578" y="63.7056" width="0.814299" height="0.807907" fill="#ED7412"/>
<rect x="43.5723" y="62.8984" width="0.814299" height="0.807907" fill="#ED7412"/>
<rect x="43.5723" y="63.7056" width="0.814299" height="0.807907" fill="#ED7412"/>
<rect x="46.0146" y="62.0901" width="0.814299" height="0.807907" fill="#ED7412"/>
<rect x="46.0146" y="62.8984" width="0.814299" height="0.807907" fill="#ED7412"/>
<rect x="48.458" y="62.0901" width="0.814299" height="0.807907" fill="#ED7412"/>
<rect x="50.0859" y="61.282" width="0.814299" height="0.807907" fill="#ED7412"/>
<rect x="11.8145" y="37.8523" width="0.814299" height="0.807907" fill="#ED7412"/>
<rect x="11.8145" y="38.6614" width="0.814299" height="0.807907" fill="#ED7412"/>
<rect x="11.8145" y="39.4688" width="0.814299" height="0.807907" fill="#ED7412"/>
<rect x="11.8145" y="40.2769" width="0.814299" height="0.807907" fill="#ED7412"/>
<rect x="11.8145" y="41.084" width="0.814299" height="0.807907" fill="#ED7412"/>
<rect x="11" y="41.8923" width="0.814299" height="0.807907" fill="#ED7412"/>
<rect x="12.6289" y="41.8923" width="0.814299" height="0.807907" fill="#ED7412"/>
<rect x="12.6289" y="42.7004" width="0.814299" height="0.807907" fill="#ED7412"/>
<rect x="12.6289" y="43.5085" width="0.814299" height="0.807907" fill="#ED7412"/>
<rect x="12.6289" y="44.3159" width="0.814299" height="0.807907" fill="#ED7412"/>
<rect x="11.8145" y="45.124" width="0.814299" height="0.807907" fill="#ED7412"/>
<rect x="13.4424" y="45.124" width="0.814299" height="0.807907" fill="#ED7412"/>
<rect x="13.4424" y="45.9321" width="0.814299" height="0.807907" fill="#ED7412"/>
<rect x="13.4424" y="46.7405" width="0.814299" height="0.807907" fill="#ED7412"/>
<rect x="12.6289" y="47.5476" width="0.814299" height="0.807907" fill="#ED7412"/>
<rect x="14.2568" y="47.5476" width="0.814299" height="0.807907" fill="#ED7412"/>
<rect x="14.2568" y="48.3557" width="0.814299" height="0.807907" fill="#ED7412"/>
<rect x="13.4424" y="49.1631" width="0.814299" height="0.807907" fill="#ED7412"/>
<rect x="15.0713" y="49.1631" width="0.814299" height="0.807907" fill="#ED7412"/>
<rect x="15.0713" y="49.9712" width="0.814299" height="0.807907" fill="#ED7412"/>
<rect x="14.2568" y="50.7793" width="0.814299" height="0.807907" fill="#ED7412"/>
<rect x="15.8857" y="50.7793" width="0.814299" height="0.807907" fill="#ED7412"/>
<rect x="15.8857" y="51.5876" width="0.814299" height="0.807907" fill="#ED7412"/>
<rect x="15.0713" y="52.3948" width="0.814299" height="0.807907" fill="#ED7412"/>
<rect x="16.7002" y="52.3948" width="0.814299" height="0.807907" fill="#ED7412"/>
<rect x="15.8857" y="53.2031" width="0.814299" height="0.807907" fill="#ED7412"/>
<rect x="17.5146" y="53.2031" width="0.814299" height="0.807907" fill="#ED7412"/>
<rect x="16.7002" y="54.0112" width="0.814299" height="0.807907" fill="#ED7412"/>
<rect x="18.3291" y="54.0112" width="0.814299" height="0.807907" fill="#ED7412"/>
<rect x="18.3291" y="54.8193" width="0.814299" height="0.807907" fill="#ED7412"/>
<rect x="17.5146" y="55.6267" width="0.814299" height="0.807907" fill="#ED7412"/>
<rect x="19.1426" y="55.6267" width="0.814299" height="0.807907" fill="#ED7412"/>
<rect x="18.3291" y="56.4348" width="0.814299" height="0.807907" fill="#ED7412"/>
<rect x="19.957" y="57.2419" width="0.814299" height="0.807907" fill="#ED7412"/>
<rect x="19.1426" y="57.2419" width="0.814299" height="0.807907" fill="#ED7412"/>
<rect x="21.5859" y="57.2419" width="0.814299" height="0.807907" fill="#ED7412"/>
<rect x="20.7715" y="58.051" width="0.814299" height="0.807907" fill="#ED7412"/>
<rect x="22.4004" y="58.051" width="0.814299" height="0.807907" fill="#ED7412"/>
<rect x="21.5859" y="58.8584" width="0.814299" height="0.807907" fill="#ED7412"/>
<rect x="23.2139" y="59.6665" width="0.814299" height="0.807907" fill="#ED7412"/>
<rect x="22.4004" y="59.6665" width="0.814299" height="0.807907" fill="#ED7412"/>
<rect x="24.0283" y="58.8584" width="0.814299" height="0.807907" fill="#ED7412"/>
<rect x="24.8428" y="59.6665" width="0.814299" height="0.807907" fill="#ED7412"/>
<rect x="24.0283" y="60.4739" width="0.814299" height="0.807907" fill="#ED7412"/>
<rect x="26.4717" y="60.4739" width="0.814299" height="0.807907" fill="#ED7412"/>
<rect x="25.6572" y="61.282" width="0.814299" height="0.807907" fill="#ED7412"/>
<rect x="28.1006" y="62.0901" width="0.814299" height="0.807907" fill="#ED7412"/>
<rect x="27.2861" y="62.0901" width="0.814299" height="0.807907" fill="#ED7412"/>
<rect x="30.543" y="62.8984" width="0.814299" height="0.807907" fill="#ED7412"/>
<rect x="29.7285" y="62.8984" width="0.814299" height="0.807907" fill="#ED7412"/>
<rect x="33.8008" y="63.7056" width="0.814299" height="0.807907" fill="#ED7412"/>
<rect x="32.9863" y="63.7056" width="0.814299" height="0.807907" fill="#ED7412"/>
<rect x="20.7715" y="56.4348" width="0.814299" height="0.807907" fill="#ED7412"/>
<rect x="24.8428" y="61.282" width="0.814299" height="0.807907" fill="#ED7412"/>
<rect x="26.4717" y="62.0901" width="0.814299" height="0.807907" fill="#ED7412"/>
<rect x="28.9141" y="61.282" width="0.814299" height="0.807907" fill="#ED7412"/>
<rect x="28.9141" y="62.8984" width="0.814299" height="0.807907" fill="#ED7412"/>
<rect x="31.3574" y="62.0901" width="0.814299" height="0.807907" fill="#ED7412"/>
<rect x="32.1719" y="63.7056" width="0.814299" height="0.807907" fill="#ED7412"/>
<rect x="31.3574" y="63.7056" width="0.814299" height="0.807907" fill="#ED7412"/>
<rect x="34.6143" y="63.7056" width="0.814299" height="0.807907" fill="#ED7412"/>
<rect x="35.4287" y="63.7056" width="0.814299" height="0.807907" fill="#ED7412"/>
<rect x="36.2432" y="63.7056" width="0.814299" height="0.807907" fill="#ED7412"/>
<rect x="35.4287" y="12.8081" width="0.814299" height="0.807907" fill="#ED7412"/>
<rect x="34.6143" y="12.8081" width="0.814299" height="0.807907" fill="#ED7412"/>
<rect x="30.543" y="13.6155" width="0.814299" height="0.807907" fill="#ED7412"/>
<rect x="29.7285" y="13.6155" width="0.814299" height="0.807907" fill="#ED7412"/>
<rect x="28.1006" y="14.4236" width="0.814299" height="0.807907" fill="#ED7412"/>
<rect x="27.2861" y="14.4236" width="0.814299" height="0.807907" fill="#ED7412"/>
<rect x="26.4717" y="15.2317" width="0.814299" height="0.807907" fill="#ED7412"/>
<rect x="25.6572" y="15.2317" width="0.814299" height="0.807907" fill="#ED7412"/>
<rect x="24.8428" y="16.0391" width="0.814299" height="0.807907" fill="#ED7412"/>
<rect x="24.0283" y="16.0391" width="0.814299" height="0.807907" fill="#ED7412"/>
<rect x="24.0283" y="16.8472" width="0.814299" height="0.807907" fill="#ED7412"/>
<rect x="23.2139" y="16.8472" width="0.814299" height="0.807907" fill="#ED7412"/>
<rect x="22.4004" y="16.8472" width="0.814299" height="0.807907" fill="#ED7412"/>
<rect x="22.4004" y="17.6553" width="0.814299" height="0.807907" fill="#ED7412"/>
<rect x="21.5859" y="17.6553" width="0.814299" height="0.807907" fill="#ED7412"/>
<rect x="21.5859" y="18.4636" width="0.814299" height="0.807907" fill="#ED7412"/>
<rect x="20.7715" y="18.4636" width="0.814299" height="0.807907" fill="#ED7412"/>
<rect x="19.957" y="17.6553" width="0.814299" height="0.807907" fill="#ED7412"/>
<rect x="20.7715" y="19.2717" width="0.814299" height="0.807907" fill="#ED7412"/>
<rect x="19.957" y="19.2717" width="0.814299" height="0.807907" fill="#ED7412"/>
<rect x="19.957" y="20.0789" width="0.814299" height="0.807907" fill="#ED7412"/>
<rect x="19.1426" y="20.0789" width="0.814299" height="0.807907" fill="#ED7412"/>
<rect x="19.1426" y="20.8872" width="0.814299" height="0.807907" fill="#ED7412"/>
<rect x="18.3291" y="20.8872" width="0.814299" height="0.807907" fill="#ED7412"/>
<rect x="18.3291" y="21.6943" width="0.814299" height="0.807907" fill="#ED7412"/>
<rect x="17.5146" y="21.6943" width="0.814299" height="0.807907" fill="#ED7412"/>
<rect x="17.5146" y="22.5027" width="0.814299" height="0.807907" fill="#ED7412"/>
<rect x="16.7002" y="22.5027" width="0.814299" height="0.807907" fill="#ED7412"/>
<rect x="16.7002" y="23.3108" width="0.814299" height="0.807907" fill="#ED7412"/>
<rect x="15.8857" y="23.3108" width="0.814299" height="0.807907" fill="#ED7412"/>
<rect x="15.8857" y="24.1189" width="0.814299" height="0.807907" fill="#ED7412"/>
<rect x="15.8857" y="24.9263" width="0.814299" height="0.807907" fill="#ED7412"/>
<rect x="15.0713" y="24.9263" width="0.814299" height="0.807907" fill="#ED7412"/>
<rect x="14.2568" y="24.1189" width="0.814299" height="0.807907" fill="#ED7412"/>
<rect x="15.0713" y="25.7344" width="0.814299" height="0.807907" fill="#ED7412"/>
<rect x="15.0713" y="26.5425" width="0.814299" height="0.807907" fill="#ED7412"/>
<rect x="14.2568" y="26.5425" width="0.814299" height="0.807907" fill="#ED7412"/>
<rect x="14.2568" y="27.3506" width="0.814299" height="0.807907" fill="#ED7412"/>
<rect x="14.2568" y="28.158" width="0.814299" height="0.807907" fill="#ED7412"/>
<rect x="13.4424" y="28.158" width="0.814299" height="0.807907" fill="#ED7412"/>
<rect x="13.4424" y="28.9661" width="0.814299" height="0.807907" fill="#ED7412"/>
<rect x="13.4424" y="29.7734" width="0.814299" height="0.807907" fill="#ED7412"/>
<rect x="13.4424" y="30.5815" width="0.814299" height="0.807907" fill="#ED7412"/>
<rect x="12.6289" y="30.5815" width="0.814299" height="0.807907" fill="#ED7412"/>
<rect x="12.6289" y="31.3896" width="0.814299" height="0.807907" fill="#ED7412"/>
<rect x="12.6289" y="32.198" width="0.814299" height="0.807907" fill="#ED7412"/>
<rect x="12.6289" y="33.0051" width="0.814299" height="0.807907" fill="#ED7412"/>
<rect x="12.6289" y="33.8132" width="0.814299" height="0.807907" fill="#ED7412"/>
<rect x="11.8145" y="33.8132" width="0.814299" height="0.807907" fill="#ED7412"/>
<rect x="11.8145" y="34.6216" width="0.814299" height="0.807907" fill="#ED7412"/>
<rect x="11.8145" y="35.4297" width="0.814299" height="0.807907" fill="#ED7412"/>
<rect x="11.8145" y="36.2368" width="0.814299" height="0.807907" fill="#ED7412"/>
<rect x="11.8145" y="37.0452" width="0.814299" height="0.807907" fill="#ED7412"/>
<rect x="25.6572" y="16.0391" width="0.814299" height="0.807907" fill="#ED7412"/>
<rect x="27.2861" y="15.2317" width="0.814299" height="0.807907" fill="#ED7412"/>
<rect x="28.9141" y="13.6155" width="0.814299" height="0.807907" fill="#ED7412"/>
<rect x="28.9141" y="14.4236" width="0.814299" height="0.807907" fill="#ED7412"/>
<rect x="31.3574" y="13.6155" width="0.814299" height="0.807907" fill="#ED7412"/>
<rect x="32.1719" y="12.8081" width="0.814299" height="0.807907" fill="#ED7412"/>
<rect x="32.1719" y="13.6155" width="0.814299" height="0.807907" fill="#ED7412"/>
<rect x="32.9863" y="12.8081" width="0.814299" height="0.807907" fill="#ED7412"/>
<rect x="33.8008" y="12.8081" width="0.814299" height="0.807907" fill="#ED7412"/>
<rect x="36.2432" y="12.8081" width="0.814299" height="0.807907" fill="#ED7412"/>
<rect x="37.0576" y="12.8081" width="0.814299" height="0.807907" fill="#ED7412"/>
<rect x="37.8721" y="12.8081" width="0.814299" height="0.807907" fill="#ED7412"/>
<rect x="40.3145" y="12.8081" width="0.814299" height="0.807907" fill="#ED7412"/>
<rect x="39.5" y="12.8081" width="0.814299" height="0.807907" fill="#ED7412"/>
<rect x="44.3857" y="13.6155" width="0.814299" height="0.807907" fill="#ED7412"/>
<rect x="43.5723" y="13.6155" width="0.814299" height="0.807907" fill="#ED7412"/>
<rect x="46.8291" y="14.4236" width="0.814299" height="0.807907" fill="#ED7412"/>
<rect x="46.0146" y="14.4236" width="0.814299" height="0.807907" fill="#ED7412"/>
<rect x="49.2725" y="14.4236" width="0.814299" height="0.807907" fill="#ED7412"/>
<rect x="48.458" y="15.2317" width="0.814299" height="0.807907" fill="#ED7412"/>
<rect x="50.9004" y="15.2317" width="0.814299" height="0.807907" fill="#ED7412"/>
<rect x="50.0859" y="16.0391" width="0.814299" height="0.807907" fill="#ED7412"/>
<rect x="51.7148" y="16.8472" width="0.814299" height="0.807907" fill="#ED7412"/>
<rect x="50.9004" y="16.8472" width="0.814299" height="0.807907" fill="#ED7412"/>
<rect x="53.3438" y="16.8472" width="0.814299" height="0.807907" fill="#ED7412"/>
<rect x="52.5293" y="17.6553" width="0.814299" height="0.807907" fill="#ED7412"/>
<rect x="54.1572" y="17.6553" width="0.814299" height="0.807907" fill="#ED7412"/>
<rect x="53.3438" y="18.4636" width="0.814299" height="0.807907" fill="#ED7412"/>
<rect x="54.9727" y="18.4636" width="0.814299" height="0.807907" fill="#ED7412"/>
<rect x="54.1572" y="19.2717" width="0.814299" height="0.807907" fill="#ED7412"/>
<rect x="55.7861" y="19.2717" width="0.814299" height="0.807907" fill="#ED7412"/>
<rect x="54.9727" y="20.0789" width="0.814299" height="0.807907" fill="#ED7412"/>
<rect x="56.6006" y="20.0789" width="0.814299" height="0.807907" fill="#ED7412"/>
<rect x="55.7861" y="20.8872" width="0.814299" height="0.807907" fill="#ED7412"/>
<rect x="57.415" y="20.8872" width="0.814299" height="0.807907" fill="#ED7412"/>
<rect x="56.6006" y="21.6943" width="0.814299" height="0.807907" fill="#ED7412"/>
<rect x="58.2295" y="21.6943" width="0.814299" height="0.807907" fill="#ED7412"/>
<rect x="57.415" y="22.5027" width="0.814299" height="0.807907" fill="#ED7412"/>
<rect x="59.0439" y="22.5027" width="0.814299" height="0.807907" fill="#ED7412"/>
<rect x="59.0439" y="23.3108" width="0.814299" height="0.807907" fill="#ED7412"/>
<rect x="58.2295" y="24.1189" width="0.814299" height="0.807907" fill="#ED7412"/>
<rect x="59.8584" y="24.1189" width="0.814299" height="0.807907" fill="#ED7412"/>
<rect x="59.0439" y="24.9263" width="0.814299" height="0.807907" fill="#ED7412"/>
<rect x="60.6719" y="24.9263" width="0.814299" height="0.807907" fill="#ED7412"/>
<rect x="60.6719" y="25.7344" width="0.814299" height="0.807907" fill="#ED7412"/>
<rect x="59.8584" y="26.5425" width="0.814299" height="0.807907" fill="#ED7412"/>
<rect x="61.4863" y="26.5425" width="0.814299" height="0.807907" fill="#ED7412"/>
<rect x="61.4863" y="27.3506" width="0.814299" height="0.807907" fill="#ED7412"/>
<rect x="61.4863" y="28.158" width="0.814299" height="0.807907" fill="#ED7412"/>
<rect x="60.6719" y="28.9661" width="0.814299" height="0.807907" fill="#ED7412"/>
<rect x="62.3008" y="28.9661" width="0.814299" height="0.807907" fill="#ED7412"/>
<rect x="62.3008" y="29.7734" width="0.814299" height="0.807907" fill="#ED7412"/>
<rect x="62.3008" y="30.5815" width="0.814299" height="0.807907" fill="#ED7412"/>
<rect x="61.4863" y="31.3896" width="0.814299" height="0.807907" fill="#ED7412"/>
<rect x="63.1152" y="31.3896" width="0.814299" height="0.807907" fill="#ED7412"/>
<rect x="63.1152" y="32.198" width="0.814299" height="0.807907" fill="#ED7412"/>
<rect x="63.1152" y="33.0051" width="0.814299" height="0.807907" fill="#ED7412"/>
<rect x="63.1152" y="33.8132" width="0.814299" height="0.807907" fill="#ED7412"/>
<rect x="63.1152" y="34.6216" width="0.814299" height="0.807907" fill="#ED7412"/>
<rect x="62.3008" y="35.4297" width="0.814299" height="0.807907" fill="#ED7412"/>
<rect x="63.9297" y="35.4297" width="0.814299" height="0.807907" fill="#ED7412"/>
<rect x="63.9297" y="36.2368" width="0.814299" height="0.807907" fill="#ED7412"/>
<rect x="63.9297" y="37.0452" width="0.814299" height="0.807907" fill="#ED7412"/>
<rect x="38.6865" y="12.8081" width="0.814299" height="0.807907" fill="#ED7412"/>
<rect x="41.1289" y="12.8081" width="0.814299" height="0.807907" fill="#ED7412"/>
<rect x="41.9434" y="12.8081" width="0.814299" height="0.807907" fill="#ED7412"/>
<rect x="42.7578" y="12" width="0.814299" height="0.807907" fill="#ED7412"/>
<rect x="42.7578" y="13.6155" width="0.814299" height="0.807907" fill="#ED7412"/>
<rect x="45.2002" y="13.6155" width="0.814299" height="0.807907" fill="#ED7412"/>
<rect x="46.0146" y="12.8081" width="0.814299" height="0.807907" fill="#ED7412"/>
<rect x="47.6436" y="13.6155" width="0.814299" height="0.807907" fill="#ED7412"/>
<rect x="47.6436" y="15.2317" width="0.814299" height="0.807907" fill="#ED7412"/>
<rect x="49.2725" y="16.0391" width="0.814299" height="0.807907" fill="#ED7412"/>
<rect x="52.5293" y="16.0391" width="0.814299" height="0.807907" fill="#ED7412"/>
<path d="M35.6639 21.4768H40.5028V23.0509H42.0776V26.2137H43.6613V27.7965H46.8608C46.8608 28.361 46.8608 28.8876 46.8608 29.4143H43.6349V27.8518H32.4908V29.4114H29.2942V32.5683H27.7575V53.0609H48.3975V32.5392H46.8432V29.391H48.4591V32.5218H50.0398V38.8706H53.2335V40.4418H54.7907V49.9592H53.2217V51.5362H50.031V53.1103H48.4503V54.6554H27.7017V53.1103H26.1181V51.5188H22.9127V49.9505H21.3467V40.4156H22.9362V38.8531H26.124V32.5189H27.7135V29.359H29.3206V27.7733H32.5054V26.1962H34.1155V23.0305H35.6727L35.6639 21.4768ZM26.0947 49.9097V40.4913H22.9567V49.9097H26.0947ZM50.0545 40.4709V49.9097H53.1689V40.4767L50.0545 40.4709ZM40.4353 23.0742H35.7079V26.1962H40.4353V23.0742Z" fill="#ED7412"/>
<path d="M30.8658 42.0535V40.427H31.2735C35.8044 40.427 40.3383 40.427 44.8693 40.427C45.186 40.427 45.2886 40.5114 45.2652 40.8227C45.2388 41.2097 45.2652 41.5996 45.2652 42.0215H46.8253V49.9444H45.2681V51.5069H30.8981V49.9531H29.3203V42.0535H30.8717C30.8717 42.1786 30.9039 42.3066 30.9039 42.4346C30.9039 44.7992 30.9039 47.1667 30.9039 49.5371V49.9095H45.1918V42.036H31.1913C31.0799 42.0535 30.9743 42.0535 30.8658 42.0535Z" fill="#ED7412"/>
<path d="M34.1064 34.1398V32.5278H35.6695V30.9683H37.2942V32.5016H38.8603V30.9741H40.482V32.5133H42.0393V34.1107H40.4967V35.7022C40.0392 35.7022 39.6169 35.7022 39.2005 35.7022C38.9571 35.7022 38.872 35.7633 38.8837 36.0107C38.9013 36.4296 38.8837 36.8486 38.8837 37.2851H37.2737C37.2737 36.8544 37.2737 36.4296 37.2737 36.0019C37.2737 35.7808 37.218 35.6935 36.9804 35.711C36.5552 35.7284 36.1329 35.711 35.6754 35.711V34.1398H34.1064Z" fill="#ED7412"/>
<path d="M43.6442 43.6191V45.1932H35.6879V48.356H34.1072V45.199C33.6497 45.199 33.2274 45.199 32.7875 45.199C32.547 45.199 32.462 45.1379 32.4737 44.8906C32.4913 44.4716 32.4737 44.0526 32.4737 43.6133L43.6442 43.6191Z" fill="#ED7412"/>
<path d="M74.75 43.25V41.5H73V32.75H74.75V31H83.5V32.75H85.25V41.5H83.5V43.25H74.75ZM76.5 41.5H81.75V32.75H76.5V41.5ZM99.25 31V32.75H90.5V36.25H92.25V38H90.5V41.5H95.75V36.25H92.25V34.5H97.5V36.25H99.25V41.5H97.5V43.25H88.75V41.5H87V32.75H88.75V31H99.25ZM113.25 36.25V41.5H111.5V43.25H104.5V45H101V34.5H104.5V36.25H106.25V38H104.5V41.5H109.75V36.25H106.25V34.5H111.5V36.25H113.25ZM116.75 43.25V41.5H115V39.75H116.75V38H123.75V36.25H116.75V34.5H125.5V36.25H127.25V43.25H116.75ZM118.5 41.5H123.75V39.75H118.5V41.5ZM130.75 43.25V41.5H129V39.75H132.5V41.5H137.75V39.75H134.25V38H137.75V36.25H132.5V38H129V36.25H130.75V34.5H139.5V36.25H141.25V38H139.5V39.75H141.25V41.5H139.5V43.25H130.75ZM144.75 43.25V41.5H143V36.25H144.75V34.5H153.5V36.25H155.25V41.5H153.5V43.25H144.75ZM146.5 41.5H151.75V36.25H146.5V41.5ZM157 43.25V34.5H167.5V36.25H169.25V38H167.5V39.75H169.25V41.5H167.5V43.25H157ZM160.5 38H165.75V36.25H160.5V38ZM160.5 41.5H165.75V39.75H160.5V41.5ZM172.75 43.25V41.5H171V39.75H172.75V38H179.75V36.25H172.75V34.5H181.5V36.25H183.25V43.25H172.75ZM174.5 41.5H179.75V39.75H174.5V41.5ZM185 43.25V34.5H188.5V38H193.75V34.5H197.25V43.25H193.75V39.75H188.5V43.25H185ZM202.5 39.75H204.25V41.5H202.5V43.25H199V34.5H202.5V39.75ZM211.25 34.5V43.25H207.75V38H206V36.25H207.75V34.5H211.25ZM204.25 38H206V39.75H204.25V38ZM214.75 43.25V41.5H213V36.25H214.75V34.5H223.5V36.25H225.25V39.75H216.5V41.5H223.5V43.25H214.75ZM216.5 38H221.75V36.25H216.5V38Z" fill="black"/>
</svg>
