<svg width="301" height="76" viewBox="0 0 301 76" fill="none" xmlns="http://www.w3.org/2000/svg">
<path d="M12.0227 75.9289V72.5729H6.1714L5.91529 69.1044C3.02906 68.4462 3.02906 68.4463 2.99951 64.954C2.99951 62.0487 2.76309 61.7878 0 61.266V14.6806C0.147759 14.5502 0.226564 14.4138 0.315219 14.4019C2.90593 14.0758 2.99951 13.9454 3.01429 10.6488C3.01429 9.54595 3.01429 8.44313 3.01429 7.23358L5.96947 7.06163L6.10738 3.5575H11.9291L12.1212 0H288.958L289.233 3.5575H295.031C295.085 4.82634 295.129 5.86394 295.188 7.115H298.104V10.6251C298.104 14.058 298.148 14.1055 301 14.5205V61.3609C298.183 61.8767 298.119 61.9538 298.114 65.6536C298.114 66.6379 298.114 67.6221 298.114 68.7783L295.218 69.0451C295.159 70.1716 295.104 71.2092 295.035 72.5077H289.253C289.164 73.7943 289.091 74.8201 289.002 76L12.0227 75.9289Z" fill="white"/>
<path d="M60.1152 37.853H60.9295V38.6609H60.1152V37.853Z" fill="#E8033A"/>
<path d="M60.1152 38.6609H60.9295V39.4688H60.1152V38.6609Z" fill="#E8033A"/>
<path d="M60.1152 39.4688H60.9295V40.2767H60.1152V39.4688Z" fill="#E8033A"/>
<path d="M59.3009 40.2767H60.1152V41.0846H59.3009V40.2767Z" fill="#E8033A"/>
<path d="M59.3009 41.0846H60.1152V41.8926H59.3009V41.0846Z" fill="#E8033A"/>
<path d="M59.3009 41.8926H60.1152V42.7005H59.3009V41.8926Z" fill="#E8033A"/>
<path d="M59.3009 42.7005H60.1152V43.5084H59.3009V42.7005Z" fill="#E8033A"/>
<path d="M59.3009 43.5084H60.1152V44.3163H59.3009V43.5084Z" fill="#E8033A"/>
<path d="M59.3009 44.3163H60.1152V45.1242H59.3009V44.3163Z" fill="#E8033A"/>
<path d="M58.4866 45.1242H59.3009V45.9321H58.4866V45.1242Z" fill="#E8033A"/>
<path d="M58.4866 45.9321H59.3009V46.74H58.4866V45.9321Z" fill="#E8033A"/>
<path d="M58.4866 46.74H59.3009V47.5479H58.4866V46.74Z" fill="#E8033A"/>
<path d="M57.6723 47.5479H58.4866V48.3558H57.6723V47.5479Z" fill="#E8033A"/>
<path d="M57.6723 48.3558H58.4866V49.1637H57.6723V48.3558Z" fill="#E8033A"/>
<path d="M56.858 49.1637H57.6723V49.9716H56.858V49.1637Z" fill="#E8033A"/>
<path d="M56.858 49.9716H57.6723V50.7795H56.858V49.9716Z" fill="#E8033A"/>
<path d="M56.0437 50.7795H56.858V51.5874H56.0437V50.7795Z" fill="#E8033A"/>
<path d="M55.2294 51.5874H56.0437V52.3953H55.2294V51.5874Z" fill="#E8033A"/>
<path d="M55.2294 52.3953H56.0437V53.2032H55.2294V52.3953Z" fill="#E8033A"/>
<path d="M54.4151 53.2032H55.2294V54.0112H54.4151V53.2032Z" fill="#E8033A"/>
<path d="M53.6008 54.0112H54.4151V54.8191H53.6008V54.0112Z" fill="#E8033A"/>
<path d="M52.7865 54.8191H53.6008V55.627H52.7865V54.8191Z" fill="#E8033A"/>
<path d="M51.9722 55.627H52.7865V56.4349H51.9722V55.627Z" fill="#E8033A"/>
<path d="M51.1579 56.4349H51.9722V57.2428H51.1579V56.4349Z" fill="#E8033A"/>
<path d="M50.3436 57.2428H51.1579V58.0507H50.3436V57.2428Z" fill="#E8033A"/>
<path d="M49.5293 58.0507H50.3436V58.8586H49.5293V58.0507Z" fill="#E8033A"/>
<path d="M48.715 58.8586H49.5293V59.6665H48.715V58.8586Z" fill="#E8033A"/>
<path d="M47.0864 59.6665H47.9007V60.4744H47.0864V59.6665Z" fill="#E8033A"/>
<path d="M45.4578 60.4744H46.2721V61.2823H45.4578V60.4744Z" fill="#E8033A"/>
<path d="M43.8292 61.2823H44.6435V62.0902H43.8292V61.2823Z" fill="#E8033A"/>
<path d="M41.3863 62.0902H42.2006V62.8981H41.3863V62.0902Z" fill="#E8033A"/>
<path d="M38.1291 62.8981H38.9434V63.706H38.1291V62.8981Z" fill="#E8033A"/>
<path d="M34.0576 62.8981H34.8719V63.706H34.0576V62.8981Z" fill="#E8033A"/>
<path d="M34.8719 62.8981H35.6862V63.706H34.8719V62.8981Z" fill="#E8033A"/>
<path d="M35.6862 62.8981H36.5005V63.706H35.6862V62.8981Z" fill="#E8033A"/>
<path d="M36.5005 62.8981H37.3148V63.706H36.5005V62.8981Z" fill="#E8033A"/>
<path d="M37.3148 62.8981H38.1291V63.706H37.3148V62.8981Z" fill="#E8033A"/>
<path d="M38.9434 62.8981H39.7577V63.706H38.9434V62.8981Z" fill="#E8033A"/>
<path d="M39.7577 62.8981H40.572V63.706H39.7577V62.8981Z" fill="#E8033A"/>
<path d="M40.572 62.0902H41.3863V62.8981H40.572V62.0902Z" fill="#E8033A"/>
<path d="M42.2006 62.0902H43.0149V62.8981H42.2006V62.0902Z" fill="#E8033A"/>
<path d="M43.0149 61.2823H43.8292V62.0902H43.0149V61.2823Z" fill="#E8033A"/>
<path d="M44.6435 61.2823H45.4578V62.0902H44.6435V61.2823Z" fill="#E8033A"/>
<path d="M46.2721 60.4744H47.0864V61.2823H46.2721V60.4744Z" fill="#E8033A"/>
<path d="M47.9007 58.8586H48.715V59.6665H47.9007V58.8586Z" fill="#E8033A"/>
<path d="M8 37.853H8.8143V38.6609H8V37.853Z" fill="#E8033A"/>
<path d="M8 38.6609H8.8143V39.4688H8V38.6609Z" fill="#E8033A"/>
<path d="M8 39.4688H8.8143V40.2767H8V39.4688Z" fill="#E8033A"/>
<path d="M8 40.2767H8.8143V41.0846H8V40.2767Z" fill="#E8033A"/>
<path d="M8 41.0846H8.8143V41.8926H8V41.0846Z" fill="#E8033A"/>
<path d="M8.8143 41.8926H9.6286V42.7005H8.8143V41.8926Z" fill="#E8033A"/>
<path d="M8.8143 42.7005H9.6286V43.5084H8.8143V42.7005Z" fill="#E8033A"/>
<path d="M8.8143 43.5084H9.6286V44.3163H8.8143V43.5084Z" fill="#E8033A"/>
<path d="M8.8143 44.3163H9.6286V45.1242H8.8143V44.3163Z" fill="#E8033A"/>
<path d="M9.6286 45.1242H10.4429V45.9321H9.6286V45.1242Z" fill="#E8033A"/>
<path d="M9.6286 45.9321H10.4429V46.74H9.6286V45.9321Z" fill="#E8033A"/>
<path d="M9.6286 46.74H10.4429V47.5479H9.6286V46.74Z" fill="#E8033A"/>
<path d="M10.4429 47.5479H11.2572V48.3558H10.4429V47.5479Z" fill="#E8033A"/>
<path d="M10.4429 48.3558H11.2572V49.1637H10.4429V48.3558Z" fill="#E8033A"/>
<path d="M11.2572 49.1637H12.0715V49.9716H11.2572V49.1637Z" fill="#E8033A"/>
<path d="M11.2572 49.9716H12.0715V50.7795H11.2572V49.9716Z" fill="#E8033A"/>
<path d="M12.0715 50.7795H12.8858V51.5874H12.0715V50.7795Z" fill="#E8033A"/>
<path d="M12.0715 51.5874H12.8858V52.3953H12.0715V51.5874Z" fill="#E8033A"/>
<path d="M12.8858 52.3953H13.7001V53.2032H12.8858V52.3953Z" fill="#E8033A"/>
<path d="M13.7001 53.2032H14.5144V54.0112H13.7001V53.2032Z" fill="#E8033A"/>
<path d="M14.5144 54.0112H15.3287V54.8191H14.5144V54.0112Z" fill="#E8033A"/>
<path d="M14.5144 54.8191H15.3287V55.627H14.5144V54.8191Z" fill="#E8033A"/>
<path d="M15.3287 55.627H16.143V56.4349H15.3287V55.627Z" fill="#E8033A"/>
<path d="M16.143 56.4349H16.9573V57.2428H16.143V56.4349Z" fill="#E8033A"/>
<path d="M17.7716 57.2428H18.5859V58.0507H17.7716V57.2428Z" fill="#E8033A"/>
<path d="M18.5859 58.0507H19.4002V58.8586H18.5859V58.0507Z" fill="#E8033A"/>
<path d="M19.4002 58.8586H20.2145V59.6665H19.4002V58.8586Z" fill="#E8033A"/>
<path d="M21.0288 59.6665H21.8431V60.4744H21.0288V59.6665Z" fill="#E8033A"/>
<path d="M22.6574 60.4744H23.4717V61.2823H22.6574V60.4744Z" fill="#E8033A"/>
<path d="M24.286 61.2823H25.1003V62.0902H24.286V61.2823Z" fill="#E8033A"/>
<path d="M26.7289 62.0902H27.5432V62.8981H26.7289V62.0902Z" fill="#E8033A"/>
<path d="M29.9861 62.8981H30.8004V63.706H29.9861V62.8981Z" fill="#E8033A"/>
<path d="M16.9573 56.4349H17.7716V57.2428H16.9573V56.4349Z" fill="#E8033A"/>
<path d="M20.2145 58.8586H21.0288V59.6665H20.2145V58.8586Z" fill="#E8033A"/>
<path d="M21.8431 60.4744H22.6574V61.2823H21.8431V60.4744Z" fill="#E8033A"/>
<path d="M23.4717 61.2823H24.286V62.0902H23.4717V61.2823Z" fill="#E8033A"/>
<path d="M25.1003 61.2823H25.9146V62.0902H25.1003V61.2823Z" fill="#E8033A"/>
<path d="M25.9146 62.0902H26.7289V62.8981H25.9146V62.0902Z" fill="#E8033A"/>
<path d="M27.5432 62.0902H28.3575V62.8981H27.5432V62.0902Z" fill="#E8033A"/>
<path d="M28.3575 62.8981H29.1718V63.706H28.3575V62.8981Z" fill="#E8033A"/>
<path d="M29.1718 62.8981H29.9861V63.706H29.1718V62.8981Z" fill="#E8033A"/>
<path d="M30.8004 62.8981H31.6147V63.706H30.8004V62.8981Z" fill="#E8033A"/>
<path d="M31.6147 62.8981H32.429V63.706H31.6147V62.8981Z" fill="#E8033A"/>
<path d="M32.429 62.8981H33.2433V63.706H32.429V62.8981Z" fill="#E8033A"/>
<path d="M33.2433 62.8981H34.0576V63.706H33.2433V62.8981Z" fill="#E8033A"/>
<path d="M31.6147 12H32.429V12.8079H31.6147V12Z" fill="#E8033A"/>
<path d="M26.7289 12.8079H27.5432V13.6158H26.7289V12.8079Z" fill="#E8033A"/>
<path d="M24.286 13.6158H25.1003V14.4237H24.286V13.6158Z" fill="#E8033A"/>
<path d="M22.6574 14.4237H23.4717V15.2316H22.6574V14.4237Z" fill="#E8033A"/>
<path d="M21.0288 15.2316H21.8431V16.0395H21.0288V15.2316Z" fill="#E8033A"/>
<path d="M20.2145 16.0395H21.0288V16.8474H20.2145V16.0395Z" fill="#E8033A"/>
<path d="M18.5859 16.8474H19.4002V17.6553H18.5859V16.8474Z" fill="#E8033A"/>
<path d="M17.7716 17.6553H18.5859V18.4633H17.7716V17.6553Z" fill="#E8033A"/>
<path d="M16.9573 18.4633H17.7716V19.2712H16.9573V18.4633Z" fill="#E8033A"/>
<path d="M16.143 19.2712H16.9573V20.0791H16.143V19.2712Z" fill="#E8033A"/>
<path d="M15.3287 20.0791H16.143V20.887H15.3287V20.0791Z" fill="#E8033A"/>
<path d="M14.5144 20.887H15.3287V21.6949H14.5144V20.887Z" fill="#E8033A"/>
<path d="M13.7001 21.6949H14.5144V22.5028H13.7001V21.6949Z" fill="#E8033A"/>
<path d="M12.8858 22.5028H13.7001V23.3107H12.8858V22.5028Z" fill="#E8033A"/>
<path d="M12.0715 23.3107H12.8858V24.1186H12.0715V23.3107Z" fill="#E8033A"/>
<path d="M12.0715 24.1186H12.8858V24.9265H12.0715V24.1186Z" fill="#E8033A"/>
<path d="M11.2572 24.9265H12.0715V25.7344H11.2572V24.9265Z" fill="#E8033A"/>
<path d="M11.2572 25.7344H12.0715V26.5423H11.2572V25.7344Z" fill="#E8033A"/>
<path d="M10.4429 26.5423H11.2572V27.3502H10.4429V26.5423Z" fill="#E8033A"/>
<path d="M10.4429 27.3502H11.2572V28.1581H10.4429V27.3502Z" fill="#E8033A"/>
<path d="M9.6286 28.1581H10.4429V28.966H9.6286V28.1581Z" fill="#E8033A"/>
<path d="M9.6286 28.966H10.4429V29.774H9.6286V28.966Z" fill="#E8033A"/>
<path d="M9.6286 29.774H10.4429V30.5819H9.6286V29.774Z" fill="#E8033A"/>
<path d="M8.8143 30.5819H9.6286V31.3898H8.8143V30.5819Z" fill="#E8033A"/>
<path d="M8.8143 31.3898H9.6286V32.1977H8.8143V31.3898Z" fill="#E8033A"/>
<path d="M8.8143 32.1977H9.6286V33.0056H8.8143V32.1977Z" fill="#E8033A"/>
<path d="M8.8143 33.0056H9.6286V33.8135H8.8143V33.0056Z" fill="#E8033A"/>
<path d="M8 33.8135H8.8143V34.6214H8V33.8135Z" fill="#E8033A"/>
<path d="M8 34.6214H8.8143V35.4293H8V34.6214Z" fill="#E8033A"/>
<path d="M8 35.4293H8.8143V36.2372H8V35.4293Z" fill="#E8033A"/>
<path d="M8 36.2372H8.8143V37.0451H8V36.2372Z" fill="#E8033A"/>
<path d="M8 37.0451H8.8143V37.853H8V37.0451Z" fill="#E8033A"/>
<path d="M19.4002 16.0395H20.2145V16.8474H19.4002V16.0395Z" fill="#E8033A"/>
<path d="M21.8431 15.2316H22.6574V16.0395H21.8431V15.2316Z" fill="#E8033A"/>
<path d="M23.4717 14.4237H24.286V15.2316H23.4717V14.4237Z" fill="#E8033A"/>
<path d="M25.1003 13.6158H25.9146V14.4237H25.1003V13.6158Z" fill="#E8033A"/>
<path d="M25.9146 12.8079H26.7289V13.6158H25.9146V12.8079Z" fill="#E8033A"/>
<path d="M27.5432 12.8079H28.3575V13.6158H27.5432V12.8079Z" fill="#E8033A"/>
<path d="M28.3575 12.8079H29.1718V13.6158H28.3575V12.8079Z" fill="#E8033A"/>
<path d="M29.1718 12H29.9861V12.8079H29.1718V12Z" fill="#E8033A"/>
<path d="M29.9861 12H30.8004V12.8079H29.9861V12Z" fill="#E8033A"/>
<path d="M30.8004 12H31.6147V12.8079H30.8004V12Z" fill="#E8033A"/>
<path d="M32.429 12H33.2433V12.8079H32.429V12Z" fill="#E8033A"/>
<path d="M33.2433 12H34.0576V12.8079H33.2433V12Z" fill="#E8033A"/>
<path d="M34.0576 12H34.8719V12.8079H34.0576V12Z" fill="#E8033A"/>
<path d="M36.5005 12H37.3148V12.8079H36.5005V12Z" fill="#E8033A"/>
<path d="M40.572 12.8079H41.3863V13.6158H40.572V12.8079Z" fill="#E8033A"/>
<path d="M43.0149 13.6158H43.8292V14.4237H43.0149V13.6158Z" fill="#E8033A"/>
<path d="M45.4578 14.4237H46.2721V15.2316H45.4578V14.4237Z" fill="#E8033A"/>
<path d="M47.0864 15.2316H47.9007V16.0395H47.0864V15.2316Z" fill="#E8033A"/>
<path d="M47.9007 16.0395H48.715V16.8474H47.9007V16.0395Z" fill="#E8033A"/>
<path d="M49.5293 16.8474H50.3436V17.6553H49.5293V16.8474Z" fill="#E8033A"/>
<path d="M50.3436 17.6553H51.1579V18.4633H50.3436V17.6553Z" fill="#E8033A"/>
<path d="M51.1579 18.4633H51.9722V19.2712H51.1579V18.4633Z" fill="#E8033A"/>
<path d="M51.9722 19.2712H52.7865V20.0791H51.9722V19.2712Z" fill="#E8033A"/>
<path d="M52.7865 20.0791H53.6008V20.887H52.7865V20.0791Z" fill="#E8033A"/>
<path d="M53.6008 20.887H54.4151V21.6949H53.6008V20.887Z" fill="#E8033A"/>
<path d="M54.4151 21.6949H55.2294V22.5028H54.4151V21.6949Z" fill="#E8033A"/>
<path d="M55.2294 22.5028H56.0437V23.3107H55.2294V22.5028Z" fill="#E8033A"/>
<path d="M55.2294 23.3107H56.0437V24.1186H55.2294V23.3107Z" fill="#E8033A"/>
<path d="M56.0437 24.1186H56.858V24.9265H56.0437V24.1186Z" fill="#E8033A"/>
<path d="M56.858 24.9265H57.6723V25.7344H56.858V24.9265Z" fill="#E8033A"/>
<path d="M56.858 25.7344H57.6723V26.5423H56.858V25.7344Z" fill="#E8033A"/>
<path d="M57.6723 26.5423H58.4866V27.3502H57.6723V26.5423Z" fill="#E8033A"/>
<path d="M57.6723 27.3502H58.4866V28.1581H57.6723V27.3502Z" fill="#E8033A"/>
<path d="M57.6723 28.1581H58.4866V28.966H57.6723V28.1581Z" fill="#E8033A"/>
<path d="M58.4866 28.966H59.3009V29.774H58.4866V28.966Z" fill="#E8033A"/>
<path d="M58.4866 29.774H59.3009V30.5819H58.4866V29.774Z" fill="#E8033A"/>
<path d="M58.4866 30.5819H59.3009V31.3898H58.4866V30.5819Z" fill="#E8033A"/>
<path d="M59.3009 31.3898H60.1152V32.1977H59.3009V31.3898Z" fill="#E8033A"/>
<path d="M59.3009 32.1977H60.1152V33.0056H59.3009V32.1977Z" fill="#E8033A"/>
<path d="M59.3009 33.0056H60.1152V33.8135H59.3009V33.0056Z" fill="#E8033A"/>
<path d="M59.3009 33.8135H60.1152V34.6214H59.3009V33.8135Z" fill="#E8033A"/>
<path d="M59.3009 34.6214H60.1152V35.4293H59.3009V34.6214Z" fill="#E8033A"/>
<path d="M60.1152 35.4293H60.9295V36.2372H60.1152V35.4293Z" fill="#E8033A"/>
<path d="M60.1152 36.2372H60.9295V37.0451H60.1152V36.2372Z" fill="#E8033A"/>
<path d="M60.1152 37.0451H60.9295V37.853H60.1152V37.0451Z" fill="#E8033A"/>
<path d="M34.8719 12H35.6862V12.8079H34.8719V12Z" fill="#E8033A"/>
<path d="M35.6862 12H36.5005V12.8079H35.6862V12Z" fill="#E8033A"/>
<path d="M37.3148 12H38.1291V12.8079H37.3148V12Z" fill="#E8033A"/>
<path d="M38.1291 12H38.9434V12.8079H38.1291V12Z" fill="#E8033A"/>
<path d="M38.9434 12H39.7577V12.8079H38.9434V12Z" fill="#E8033A"/>
<path d="M39.7577 12.8079H40.572V13.6158H39.7577V12.8079Z" fill="#E8033A"/>
<path d="M41.3863 12.8079H42.2006V13.6158H41.3863V12.8079Z" fill="#E8033A"/>
<path d="M42.2006 12.8079H43.0149V13.6158H42.2006V12.8079Z" fill="#E8033A"/>
<path d="M43.8292 13.6158H44.6435V14.4237H43.8292V13.6158Z" fill="#E8033A"/>
<path d="M44.6435 14.4237H45.4578V15.2316H44.6435V14.4237Z" fill="#E8033A"/>
<path d="M46.2721 15.2316H47.0864V16.0395H46.2721V15.2316Z" fill="#E8033A"/>
<path d="M48.715 16.0395H49.5293V16.8474H48.715V16.0395Z" fill="#E8033A"/>
<rect x="60.1152" y="37.8535" width="0.814299" height="0.807907" fill="#E8033A"/>
<rect x="60.1152" y="38.6616" width="0.814299" height="0.807907" fill="#E8033A"/>
<rect x="60.1152" y="39.469" width="0.814299" height="0.807907" fill="#E8033A"/>
<rect x="59.3008" y="40.2771" width="0.814299" height="0.807907" fill="#E8033A"/>
<rect x="59.3008" y="41.0842" width="0.814299" height="0.807907" fill="#E8033A"/>
<rect x="59.3008" y="41.8926" width="0.814299" height="0.807907" fill="#E8033A"/>
<rect x="59.3008" y="42.7007" width="0.814299" height="0.807907" fill="#E8033A"/>
<rect x="59.3008" y="43.5088" width="0.814299" height="0.807907" fill="#E8033A"/>
<rect x="59.3008" y="44.3162" width="0.814299" height="0.807907" fill="#E8033A"/>
<rect x="58.4863" y="45.1243" width="0.814299" height="0.807907" fill="#E8033A"/>
<rect x="58.4863" y="45.9324" width="0.814299" height="0.807907" fill="#E8033A"/>
<rect x="58.4863" y="46.7407" width="0.814299" height="0.807907" fill="#E8033A"/>
<rect x="57.6719" y="47.5479" width="0.814299" height="0.807907" fill="#E8033A"/>
<rect x="57.6719" y="48.356" width="0.814299" height="0.807907" fill="#E8033A"/>
<rect x="56.8584" y="49.1633" width="0.814299" height="0.807907" fill="#E8033A"/>
<rect x="56.8584" y="49.9724" width="0.814299" height="0.807907" fill="#E8033A"/>
<rect x="56.0439" y="50.7798" width="0.814299" height="0.807907" fill="#E8033A"/>
<rect x="55.2295" y="51.5879" width="0.814299" height="0.807907" fill="#E8033A"/>
<rect x="55.2295" y="52.395" width="0.814299" height="0.807907" fill="#E8033A"/>
<rect x="54.415" y="53.2034" width="0.814299" height="0.807907" fill="#E8033A"/>
<rect x="53.6006" y="54.0115" width="0.814299" height="0.807907" fill="#E8033A"/>
<rect x="52.7861" y="54.8196" width="0.814299" height="0.807907" fill="#E8033A"/>
<rect x="51.9727" y="55.627" width="0.814299" height="0.807907" fill="#E8033A"/>
<rect x="51.1572" y="56.4351" width="0.814299" height="0.807907" fill="#E8033A"/>
<rect x="50.3438" y="57.2432" width="0.814299" height="0.807907" fill="#E8033A"/>
<rect x="49.5293" y="58.0513" width="0.814299" height="0.807907" fill="#E8033A"/>
<rect x="48.7148" y="58.8586" width="0.814299" height="0.807907" fill="#E8033A"/>
<rect x="47.0859" y="59.6667" width="0.814299" height="0.807907" fill="#E8033A"/>
<rect x="45.458" y="60.4741" width="0.814299" height="0.807907" fill="#E8033A"/>
<rect x="43.8291" y="61.2822" width="0.814299" height="0.807907" fill="#E8033A"/>
<rect x="41.3857" y="62.0903" width="0.814299" height="0.807907" fill="#E8033A"/>
<rect x="38.1289" y="62.8987" width="0.814299" height="0.807907" fill="#E8033A"/>
<rect x="34.0576" y="62.8987" width="0.814299" height="0.807907" fill="#E8033A"/>
<rect x="34.8721" y="62.8987" width="0.814299" height="0.807907" fill="#E8033A"/>
<rect x="35.6865" y="62.8987" width="0.814299" height="0.807907" fill="#E8033A"/>
<rect x="36.5" y="62.8987" width="0.814299" height="0.807907" fill="#E8033A"/>
<rect x="37.3145" y="62.8987" width="0.814299" height="0.807907" fill="#E8033A"/>
<rect x="38.9434" y="62.8987" width="0.814299" height="0.807907" fill="#E8033A"/>
<rect x="39.7578" y="62.8987" width="0.814299" height="0.807907" fill="#E8033A"/>
<rect x="40.5723" y="62.0903" width="0.814299" height="0.807907" fill="#E8033A"/>
<rect x="42.2002" y="62.0903" width="0.814299" height="0.807907" fill="#E8033A"/>
<rect x="43.0146" y="61.2822" width="0.814299" height="0.807907" fill="#E8033A"/>
<rect x="44.6436" y="61.2822" width="0.814299" height="0.807907" fill="#E8033A"/>
<rect x="46.2725" y="60.4741" width="0.814299" height="0.807907" fill="#E8033A"/>
<rect x="47.9004" y="58.8586" width="0.814299" height="0.807907" fill="#E8033A"/>
<rect x="8" y="37.8535" width="0.814299" height="0.807907" fill="#E8033A"/>
<rect x="8" y="38.6616" width="0.814299" height="0.807907" fill="#E8033A"/>
<rect x="8" y="39.469" width="0.814299" height="0.807907" fill="#E8033A"/>
<rect x="8" y="40.2771" width="0.814299" height="0.807907" fill="#E8033A"/>
<rect x="8" y="41.0842" width="0.814299" height="0.807907" fill="#E8033A"/>
<rect x="8.81445" y="41.8926" width="0.814299" height="0.807907" fill="#E8033A"/>
<rect x="8.81445" y="42.7007" width="0.814299" height="0.807907" fill="#E8033A"/>
<rect x="8.81445" y="43.5088" width="0.814299" height="0.807907" fill="#E8033A"/>
<rect x="8.81445" y="44.3162" width="0.814299" height="0.807907" fill="#E8033A"/>
<rect x="9.62891" y="45.1243" width="0.814299" height="0.807907" fill="#E8033A"/>
<rect x="9.62891" y="45.9324" width="0.814299" height="0.807907" fill="#E8033A"/>
<rect x="9.62891" y="46.7407" width="0.814299" height="0.807907" fill="#E8033A"/>
<rect x="10.4424" y="47.5479" width="0.814299" height="0.807907" fill="#E8033A"/>
<rect x="10.4424" y="48.356" width="0.814299" height="0.807907" fill="#E8033A"/>
<rect x="11.2568" y="49.1633" width="0.814299" height="0.807907" fill="#E8033A"/>
<rect x="11.2568" y="49.9724" width="0.814299" height="0.807907" fill="#E8033A"/>
<rect x="12.0713" y="50.7798" width="0.814299" height="0.807907" fill="#E8033A"/>
<rect x="12.0713" y="51.5879" width="0.814299" height="0.807907" fill="#E8033A"/>
<rect x="12.8857" y="52.395" width="0.814299" height="0.807907" fill="#E8033A"/>
<rect x="13.7002" y="53.2034" width="0.814299" height="0.807907" fill="#E8033A"/>
<rect x="14.5146" y="54.0115" width="0.814299" height="0.807907" fill="#E8033A"/>
<rect x="14.5146" y="54.8196" width="0.814299" height="0.807907" fill="#E8033A"/>
<rect x="15.3291" y="55.627" width="0.814299" height="0.807907" fill="#E8033A"/>
<rect x="16.1426" y="56.4351" width="0.814299" height="0.807907" fill="#E8033A"/>
<rect x="17.7715" y="57.2432" width="0.814299" height="0.807907" fill="#E8033A"/>
<rect x="18.5859" y="58.0513" width="0.814299" height="0.807907" fill="#E8033A"/>
<rect x="19.4004" y="58.8586" width="0.814299" height="0.807907" fill="#E8033A"/>
<rect x="21.0283" y="59.6667" width="0.814299" height="0.807907" fill="#E8033A"/>
<rect x="22.6572" y="60.4741" width="0.814299" height="0.807907" fill="#E8033A"/>
<rect x="24.2861" y="61.2822" width="0.814299" height="0.807907" fill="#E8033A"/>
<rect x="26.7285" y="62.0903" width="0.814299" height="0.807907" fill="#E8033A"/>
<rect x="29.9863" y="62.8987" width="0.814299" height="0.807907" fill="#E8033A"/>
<rect x="16.957" y="56.4351" width="0.814299" height="0.807907" fill="#E8033A"/>
<rect x="20.2139" y="58.8586" width="0.814299" height="0.807907" fill="#E8033A"/>
<rect x="21.8428" y="60.4741" width="0.814299" height="0.807907" fill="#E8033A"/>
<rect x="23.4717" y="61.2822" width="0.814299" height="0.807907" fill="#E8033A"/>
<rect x="25.1006" y="61.2822" width="0.814299" height="0.807907" fill="#E8033A"/>
<rect x="25.9141" y="62.0903" width="0.814299" height="0.807907" fill="#E8033A"/>
<rect x="27.543" y="62.0903" width="0.814299" height="0.807907" fill="#E8033A"/>
<rect x="28.3574" y="62.8987" width="0.814299" height="0.807907" fill="#E8033A"/>
<rect x="29.1719" y="62.8987" width="0.814299" height="0.807907" fill="#E8033A"/>
<rect x="30.8008" y="62.8987" width="0.814299" height="0.807907" fill="#E8033A"/>
<rect x="31.6143" y="62.8987" width="0.814299" height="0.807907" fill="#E8033A"/>
<rect x="32.4287" y="62.8987" width="0.814299" height="0.807907" fill="#E8033A"/>
<rect x="33.2432" y="62.8987" width="0.814299" height="0.807907" fill="#E8033A"/>
<rect x="31.6143" y="12.0002" width="0.814299" height="0.807907" fill="#E8033A"/>
<rect x="26.7285" y="12.8083" width="0.814299" height="0.807907" fill="#E8033A"/>
<rect x="24.2861" y="13.6157" width="0.814299" height="0.807907" fill="#E8033A"/>
<rect x="22.6572" y="14.4238" width="0.814299" height="0.807907" fill="#E8033A"/>
<rect x="21.0283" y="15.2319" width="0.814299" height="0.807907" fill="#E8033A"/>
<rect x="20.2139" y="16.0403" width="0.814299" height="0.807907" fill="#E8033A"/>
<rect x="18.5859" y="16.8474" width="0.814299" height="0.807907" fill="#E8033A"/>
<rect x="17.7715" y="17.6555" width="0.814299" height="0.807907" fill="#E8033A"/>
<rect x="16.957" y="18.4639" width="0.814299" height="0.807907" fill="#E8033A"/>
<rect x="16.1426" y="19.272" width="0.814299" height="0.807907" fill="#E8033A"/>
<rect x="15.3291" y="20.0791" width="0.814299" height="0.807907" fill="#E8033A"/>
<rect x="14.5146" y="20.8875" width="0.814299" height="0.807907" fill="#E8033A"/>
<rect x="13.7002" y="21.6946" width="0.814299" height="0.807907" fill="#E8033A"/>
<rect x="12.8857" y="22.5029" width="0.814299" height="0.807907" fill="#E8033A"/>
<rect x="12.0713" y="23.311" width="0.814299" height="0.807907" fill="#E8033A"/>
<rect x="12.0713" y="24.1191" width="0.814299" height="0.807907" fill="#E8033A"/>
<rect x="11.2568" y="24.9265" width="0.814299" height="0.807907" fill="#E8033A"/>
<rect x="11.2568" y="25.7346" width="0.814299" height="0.807907" fill="#E8033A"/>
<rect x="10.4424" y="26.5427" width="0.814299" height="0.807907" fill="#E8033A"/>
<rect x="10.4424" y="27.3508" width="0.814299" height="0.807907" fill="#E8033A"/>
<rect x="9.62891" y="28.1582" width="0.814299" height="0.807907" fill="#E8033A"/>
<rect x="9.62891" y="28.9663" width="0.814299" height="0.807907" fill="#E8033A"/>
<rect x="9.62891" y="29.7737" width="0.814299" height="0.807907" fill="#E8033A"/>
<rect x="8.81445" y="30.5828" width="0.814299" height="0.807907" fill="#E8033A"/>
<rect x="8.81445" y="31.3899" width="0.814299" height="0.807907" fill="#E8033A"/>
<rect x="8.81445" y="32.1982" width="0.814299" height="0.807907" fill="#E8033A"/>
<rect x="8.81445" y="33.0054" width="0.814299" height="0.807907" fill="#E8033A"/>
<rect x="8" y="33.8135" width="0.814299" height="0.807907" fill="#E8033A"/>
<rect x="8" y="34.6218" width="0.814299" height="0.807907" fill="#E8033A"/>
<rect x="8" y="35.4299" width="0.814299" height="0.807907" fill="#E8033A"/>
<rect x="8" y="36.2371" width="0.814299" height="0.807907" fill="#E8033A"/>
<rect x="8" y="37.0454" width="0.814299" height="0.807907" fill="#E8033A"/>
<rect x="19.4004" y="16.0403" width="0.814299" height="0.807907" fill="#E8033A"/>
<rect x="21.8428" y="15.2319" width="0.814299" height="0.807907" fill="#E8033A"/>
<rect x="23.4717" y="14.4238" width="0.814299" height="0.807907" fill="#E8033A"/>
<rect x="25.1006" y="13.6157" width="0.814299" height="0.807907" fill="#E8033A"/>
<rect x="25.9141" y="12.8083" width="0.814299" height="0.807907" fill="#E8033A"/>
<rect x="27.543" y="12.8083" width="0.814299" height="0.807907" fill="#E8033A"/>
<rect x="28.3574" y="12.8083" width="0.814299" height="0.807907" fill="#E8033A"/>
<rect x="29.1719" y="12.0002" width="0.814299" height="0.807907" fill="#E8033A"/>
<rect x="29.9863" y="12.0002" width="0.814299" height="0.807907" fill="#E8033A"/>
<rect x="30.8008" y="12.0002" width="0.814299" height="0.807907" fill="#E8033A"/>
<rect x="32.4287" y="12.0002" width="0.814299" height="0.807907" fill="#E8033A"/>
<rect x="33.2432" y="12.0002" width="0.814299" height="0.807907" fill="#E8033A"/>
<rect x="34.0576" y="12.0002" width="0.814299" height="0.807907" fill="#E8033A"/>
<rect x="36.5" y="12.0002" width="0.814299" height="0.807907" fill="#E8033A"/>
<rect x="40.5723" y="12.8083" width="0.814299" height="0.807907" fill="#E8033A"/>
<rect x="43.0146" y="13.6157" width="0.814299" height="0.807907" fill="#E8033A"/>
<rect x="45.458" y="14.4238" width="0.814299" height="0.807907" fill="#E8033A"/>
<rect x="47.0859" y="15.2319" width="0.814299" height="0.807907" fill="#E8033A"/>
<rect x="47.9004" y="16.0403" width="0.814299" height="0.807907" fill="#E8033A"/>
<rect x="49.5293" y="16.8474" width="0.814299" height="0.807907" fill="#E8033A"/>
<rect x="50.3438" y="17.6555" width="0.814299" height="0.807907" fill="#E8033A"/>
<rect x="51.1572" y="18.4639" width="0.814299" height="0.807907" fill="#E8033A"/>
<rect x="51.9727" y="19.272" width="0.814299" height="0.807907" fill="#E8033A"/>
<rect x="52.7861" y="20.0791" width="0.814299" height="0.807907" fill="#E8033A"/>
<rect x="53.6006" y="20.8875" width="0.814299" height="0.807907" fill="#E8033A"/>
<rect x="54.415" y="21.6946" width="0.814299" height="0.807907" fill="#E8033A"/>
<rect x="55.2295" y="22.5029" width="0.814299" height="0.807907" fill="#E8033A"/>
<rect x="55.2295" y="23.311" width="0.814299" height="0.807907" fill="#E8033A"/>
<rect x="56.0439" y="24.1191" width="0.814299" height="0.807907" fill="#E8033A"/>
<rect x="56.8584" y="24.9265" width="0.814299" height="0.807907" fill="#E8033A"/>
<rect x="56.8584" y="25.7346" width="0.814299" height="0.807907" fill="#E8033A"/>
<rect x="57.6719" y="26.5427" width="0.814299" height="0.807907" fill="#E8033A"/>
<rect x="57.6719" y="27.3508" width="0.814299" height="0.807907" fill="#E8033A"/>
<rect x="57.6719" y="28.1582" width="0.814299" height="0.807907" fill="#E8033A"/>
<rect x="58.4863" y="28.9663" width="0.814299" height="0.807907" fill="#E8033A"/>
<rect x="58.4863" y="29.7737" width="0.814299" height="0.807907" fill="#E8033A"/>
<rect x="58.4863" y="30.5828" width="0.814299" height="0.807907" fill="#E8033A"/>
<rect x="59.3008" y="31.3899" width="0.814299" height="0.807907" fill="#E8033A"/>
<rect x="59.3008" y="32.1982" width="0.814299" height="0.807907" fill="#E8033A"/>
<rect x="59.3008" y="33.0054" width="0.814299" height="0.807907" fill="#E8033A"/>
<rect x="59.3008" y="33.8135" width="0.814299" height="0.807907" fill="#E8033A"/>
<rect x="59.3008" y="34.6218" width="0.814299" height="0.807907" fill="#E8033A"/>
<rect x="60.1152" y="35.4299" width="0.814299" height="0.807907" fill="#E8033A"/>
<rect x="60.1152" y="36.2371" width="0.814299" height="0.807907" fill="#E8033A"/>
<rect x="60.1152" y="37.0454" width="0.814299" height="0.807907" fill="#E8033A"/>
<rect x="34.8721" y="12.0002" width="0.814299" height="0.807907" fill="#E8033A"/>
<rect x="35.6865" y="12.0002" width="0.814299" height="0.807907" fill="#E8033A"/>
<rect x="37.3145" y="12.0002" width="0.814299" height="0.807907" fill="#E8033A"/>
<rect x="38.1289" y="12.0002" width="0.814299" height="0.807907" fill="#E8033A"/>
<rect x="38.9434" y="12.0002" width="0.814299" height="0.807907" fill="#E8033A"/>
<rect x="39.7578" y="12.8083" width="0.814299" height="0.807907" fill="#E8033A"/>
<rect x="41.3857" y="12.8083" width="0.814299" height="0.807907" fill="#E8033A"/>
<rect x="42.2002" y="12.8083" width="0.814299" height="0.807907" fill="#E8033A"/>
<rect x="43.8291" y="13.6157" width="0.814299" height="0.807907" fill="#E8033A"/>
<rect x="44.6436" y="14.4238" width="0.814299" height="0.807907" fill="#E8033A"/>
<rect x="46.2725" y="15.2319" width="0.814299" height="0.807907" fill="#E8033A"/>
<rect x="48.7148" y="16.0403" width="0.814299" height="0.807907" fill="#E8033A"/>
<rect x="60.9297" y="37.8535" width="0.814299" height="0.807907" fill="#E8033A"/>
<rect x="60.9297" y="38.6616" width="0.814299" height="0.807907" fill="#E8033A"/>
<rect x="60.9297" y="39.469" width="0.814299" height="0.807907" fill="#E8033A"/>
<rect x="60.9297" y="40.2771" width="0.814299" height="0.807907" fill="#E8033A"/>
<rect x="60.1152" y="40.2771" width="0.814299" height="0.807907" fill="#E8033A"/>
<rect x="60.1152" y="41.0842" width="0.814299" height="0.807907" fill="#E8033A"/>
<rect x="60.1152" y="41.8926" width="0.814299" height="0.807907" fill="#E8033A"/>
<rect x="60.1152" y="42.7007" width="0.814299" height="0.807907" fill="#E8033A"/>
<rect x="60.1152" y="43.5088" width="0.814299" height="0.807907" fill="#E8033A"/>
<rect x="60.1152" y="44.3162" width="0.814299" height="0.807907" fill="#E8033A"/>
<rect x="60.1152" y="45.1243" width="0.814299" height="0.807907" fill="#E8033A"/>
<rect x="59.3008" y="45.1243" width="0.814299" height="0.807907" fill="#E8033A"/>
<rect x="59.3008" y="45.9324" width="0.814299" height="0.807907" fill="#E8033A"/>
<rect x="59.3008" y="46.7407" width="0.814299" height="0.807907" fill="#E8033A"/>
<rect x="59.3008" y="47.5479" width="0.814299" height="0.807907" fill="#E8033A"/>
<rect x="58.4863" y="47.5479" width="0.814299" height="0.807907" fill="#E8033A"/>
<rect x="58.4863" y="48.356" width="0.814299" height="0.807907" fill="#E8033A"/>
<rect x="58.4863" y="49.1633" width="0.814299" height="0.807907" fill="#E8033A"/>
<rect x="57.6719" y="49.1633" width="0.814299" height="0.807907" fill="#E8033A"/>
<rect x="57.6719" y="49.9724" width="0.814299" height="0.807907" fill="#E8033A"/>
<rect x="57.6719" y="50.7798" width="0.814299" height="0.807907" fill="#E8033A"/>
<rect x="56.8584" y="50.7798" width="0.814299" height="0.807907" fill="#E8033A"/>
<rect x="56.8584" y="51.5879" width="0.814299" height="0.807907" fill="#E8033A"/>
<rect x="56.0439" y="51.5879" width="0.814299" height="0.807907" fill="#E8033A"/>
<rect x="56.0439" y="52.395" width="0.814299" height="0.807907" fill="#E8033A"/>
<rect x="56.0439" y="53.2034" width="0.814299" height="0.807907" fill="#E8033A"/>
<rect x="55.2295" y="53.2034" width="0.814299" height="0.807907" fill="#E8033A"/>
<rect x="55.2295" y="54.0115" width="0.814299" height="0.807907" fill="#E8033A"/>
<rect x="54.415" y="54.0115" width="0.814299" height="0.807907" fill="#E8033A"/>
<rect x="54.415" y="54.8196" width="0.814299" height="0.807907" fill="#E8033A"/>
<rect x="53.6006" y="54.8196" width="0.814299" height="0.807907" fill="#E8033A"/>
<rect x="53.6006" y="55.627" width="0.814299" height="0.807907" fill="#E8033A"/>
<rect x="52.7861" y="55.627" width="0.814299" height="0.807907" fill="#E8033A"/>
<rect x="52.7861" y="56.4351" width="0.814299" height="0.807907" fill="#E8033A"/>
<rect x="51.9727" y="56.4351" width="0.814299" height="0.807907" fill="#E8033A"/>
<rect x="51.9727" y="57.2432" width="0.814299" height="0.807907" fill="#E8033A"/>
<rect x="51.1572" y="57.2432" width="0.814299" height="0.807907" fill="#E8033A"/>
<rect x="51.1572" y="58.0513" width="0.814299" height="0.807907" fill="#E8033A"/>
<rect x="50.3438" y="58.0513" width="0.814299" height="0.807907" fill="#E8033A"/>
<rect x="50.3438" y="58.8586" width="0.814299" height="0.807907" fill="#E8033A"/>
<rect x="49.5293" y="58.8586" width="0.814299" height="0.807907" fill="#E8033A"/>
<rect x="49.5293" y="59.6667" width="0.814299" height="0.807907" fill="#E8033A"/>
<rect x="48.7148" y="59.6667" width="0.814299" height="0.807907" fill="#E8033A"/>
<rect x="47.0859" y="58.8586" width="0.814299" height="0.807907" fill="#E8033A"/>
<rect x="47.9004" y="59.6667" width="0.814299" height="0.807907" fill="#E8033A"/>
<rect x="47.9004" y="60.4741" width="0.814299" height="0.807907" fill="#E8033A"/>
<rect x="47.0859" y="60.4741" width="0.814299" height="0.807907" fill="#E8033A"/>
<rect x="46.2725" y="61.2822" width="0.814299" height="0.807907" fill="#E8033A"/>
<rect x="45.458" y="61.2822" width="0.814299" height="0.807907" fill="#E8033A"/>
<rect x="44.6436" y="62.0903" width="0.814299" height="0.807907" fill="#E8033A"/>
<rect x="43.8291" y="62.0903" width="0.814299" height="0.807907" fill="#E8033A"/>
<rect x="42.2002" y="62.8987" width="0.814299" height="0.807907" fill="#E8033A"/>
<rect x="41.3857" y="62.8987" width="0.814299" height="0.807907" fill="#E8033A"/>
<rect x="38.9434" y="63.7058" width="0.814299" height="0.807907" fill="#E8033A"/>
<rect x="38.1289" y="63.7058" width="0.814299" height="0.807907" fill="#E8033A"/>
<rect x="34.8721" y="63.7058" width="0.814299" height="0.807907" fill="#E8033A"/>
<rect x="34.0576" y="63.7058" width="0.814299" height="0.807907" fill="#E8033A"/>
<rect x="35.6865" y="63.7058" width="0.814299" height="0.807907" fill="#E8033A"/>
<rect x="36.5" y="63.7058" width="0.814299" height="0.807907" fill="#E8033A"/>
<rect x="37.3145" y="63.7058" width="0.814299" height="0.807907" fill="#E8033A"/>
<rect x="39.7578" y="63.7058" width="0.814299" height="0.807907" fill="#E8033A"/>
<rect x="40.5723" y="62.8987" width="0.814299" height="0.807907" fill="#E8033A"/>
<rect x="40.5723" y="63.7058" width="0.814299" height="0.807907" fill="#E8033A"/>
<rect x="43.0146" y="62.0903" width="0.814299" height="0.807907" fill="#E8033A"/>
<rect x="43.0146" y="62.8987" width="0.814299" height="0.807907" fill="#E8033A"/>
<rect x="45.458" y="62.0903" width="0.814299" height="0.807907" fill="#E8033A"/>
<rect x="47.0859" y="61.2822" width="0.814299" height="0.807907" fill="#E8033A"/>
<rect x="8.81445" y="37.8535" width="0.814299" height="0.807907" fill="#E8033A"/>
<rect x="8.81445" y="38.6616" width="0.814299" height="0.807907" fill="#E8033A"/>
<rect x="8.81445" y="39.469" width="0.814299" height="0.807907" fill="#E8033A"/>
<rect x="8.81445" y="40.2771" width="0.814299" height="0.807907" fill="#E8033A"/>
<rect x="8.81445" y="41.0842" width="0.814299" height="0.807907" fill="#E8033A"/>
<rect x="8" y="41.8926" width="0.814299" height="0.807907" fill="#E8033A"/>
<rect x="9.62891" y="41.8926" width="0.814299" height="0.807907" fill="#E8033A"/>
<rect x="9.62891" y="42.7007" width="0.814299" height="0.807907" fill="#E8033A"/>
<rect x="9.62891" y="43.5088" width="0.814299" height="0.807907" fill="#E8033A"/>
<rect x="9.62891" y="44.3162" width="0.814299" height="0.807907" fill="#E8033A"/>
<rect x="8.81445" y="45.1243" width="0.814299" height="0.807907" fill="#E8033A"/>
<rect x="10.4424" y="45.1243" width="0.814299" height="0.807907" fill="#E8033A"/>
<rect x="10.4424" y="45.9324" width="0.814299" height="0.807907" fill="#E8033A"/>
<rect x="10.4424" y="46.7407" width="0.814299" height="0.807907" fill="#E8033A"/>
<rect x="9.62891" y="47.5479" width="0.814299" height="0.807907" fill="#E8033A"/>
<rect x="11.2568" y="47.5479" width="0.814299" height="0.807907" fill="#E8033A"/>
<rect x="11.2568" y="48.356" width="0.814299" height="0.807907" fill="#E8033A"/>
<rect x="10.4424" y="49.1633" width="0.814299" height="0.807907" fill="#E8033A"/>
<rect x="12.0713" y="49.1633" width="0.814299" height="0.807907" fill="#E8033A"/>
<rect x="12.0713" y="49.9724" width="0.814299" height="0.807907" fill="#E8033A"/>
<rect x="11.2568" y="50.7798" width="0.814299" height="0.807907" fill="#E8033A"/>
<rect x="12.8857" y="50.7798" width="0.814299" height="0.807907" fill="#E8033A"/>
<rect x="12.8857" y="51.5879" width="0.814299" height="0.807907" fill="#E8033A"/>
<rect x="12.0713" y="52.395" width="0.814299" height="0.807907" fill="#E8033A"/>
<rect x="13.7002" y="52.395" width="0.814299" height="0.807907" fill="#E8033A"/>
<rect x="12.8857" y="53.2034" width="0.814299" height="0.807907" fill="#E8033A"/>
<rect x="14.5146" y="53.2034" width="0.814299" height="0.807907" fill="#E8033A"/>
<rect x="13.7002" y="54.0115" width="0.814299" height="0.807907" fill="#E8033A"/>
<rect x="15.3291" y="54.0115" width="0.814299" height="0.807907" fill="#E8033A"/>
<rect x="15.3291" y="54.8196" width="0.814299" height="0.807907" fill="#E8033A"/>
<rect x="14.5146" y="55.627" width="0.814299" height="0.807907" fill="#E8033A"/>
<rect x="16.1426" y="55.627" width="0.814299" height="0.807907" fill="#E8033A"/>
<rect x="15.3291" y="56.4351" width="0.814299" height="0.807907" fill="#E8033A"/>
<rect x="16.957" y="57.2432" width="0.814299" height="0.807907" fill="#E8033A"/>
<rect x="16.1426" y="57.2432" width="0.814299" height="0.807907" fill="#E8033A"/>
<rect x="18.5859" y="57.2432" width="0.814299" height="0.807907" fill="#E8033A"/>
<rect x="17.7715" y="58.0513" width="0.814299" height="0.807907" fill="#E8033A"/>
<rect x="19.4004" y="58.0513" width="0.814299" height="0.807907" fill="#E8033A"/>
<rect x="18.5859" y="58.8586" width="0.814299" height="0.807907" fill="#E8033A"/>
<rect x="20.2139" y="59.6667" width="0.814299" height="0.807907" fill="#E8033A"/>
<rect x="19.4004" y="59.6667" width="0.814299" height="0.807907" fill="#E8033A"/>
<rect x="21.0283" y="58.8586" width="0.814299" height="0.807907" fill="#E8033A"/>
<rect x="21.8428" y="59.6667" width="0.814299" height="0.807907" fill="#E8033A"/>
<rect x="21.0283" y="60.4741" width="0.814299" height="0.807907" fill="#E8033A"/>
<rect x="23.4717" y="60.4741" width="0.814299" height="0.807907" fill="#E8033A"/>
<rect x="22.6572" y="61.2822" width="0.814299" height="0.807907" fill="#E8033A"/>
<rect x="25.1006" y="62.0903" width="0.814299" height="0.807907" fill="#E8033A"/>
<rect x="24.2861" y="62.0903" width="0.814299" height="0.807907" fill="#E8033A"/>
<rect x="27.543" y="62.8987" width="0.814299" height="0.807907" fill="#E8033A"/>
<rect x="26.7285" y="62.8987" width="0.814299" height="0.807907" fill="#E8033A"/>
<rect x="30.8008" y="63.7058" width="0.814299" height="0.807907" fill="#E8033A"/>
<rect x="29.9863" y="63.7058" width="0.814299" height="0.807907" fill="#E8033A"/>
<rect x="17.7715" y="56.4351" width="0.814299" height="0.807907" fill="#E8033A"/>
<rect x="21.8428" y="61.2822" width="0.814299" height="0.807907" fill="#E8033A"/>
<rect x="23.4717" y="62.0903" width="0.814299" height="0.807907" fill="#E8033A"/>
<rect x="25.9141" y="61.2822" width="0.814299" height="0.807907" fill="#E8033A"/>
<rect x="25.9141" y="62.8987" width="0.814299" height="0.807907" fill="#E8033A"/>
<rect x="28.3574" y="62.0903" width="0.814299" height="0.807907" fill="#E8033A"/>
<rect x="29.1719" y="63.7058" width="0.814299" height="0.807907" fill="#E8033A"/>
<rect x="28.3574" y="63.7058" width="0.814299" height="0.807907" fill="#E8033A"/>
<rect x="31.6143" y="63.7058" width="0.814299" height="0.807907" fill="#E8033A"/>
<rect x="32.4287" y="63.7058" width="0.814299" height="0.807907" fill="#E8033A"/>
<rect x="33.2432" y="63.7058" width="0.814299" height="0.807907" fill="#E8033A"/>
<rect x="32.4287" y="12.8083" width="0.814299" height="0.807907" fill="#E8033A"/>
<rect x="31.6143" y="12.8083" width="0.814299" height="0.807907" fill="#E8033A"/>
<rect x="27.543" y="13.6157" width="0.814299" height="0.807907" fill="#E8033A"/>
<rect x="26.7285" y="13.6157" width="0.814299" height="0.807907" fill="#E8033A"/>
<rect x="25.1006" y="14.4238" width="0.814299" height="0.807907" fill="#E8033A"/>
<rect x="24.2861" y="14.4238" width="0.814299" height="0.807907" fill="#E8033A"/>
<rect x="23.4717" y="15.2319" width="0.814299" height="0.807907" fill="#E8033A"/>
<rect x="22.6572" y="15.2319" width="0.814299" height="0.807907" fill="#E8033A"/>
<rect x="21.8428" y="16.0403" width="0.814299" height="0.807907" fill="#E8033A"/>
<rect x="21.0283" y="16.0403" width="0.814299" height="0.807907" fill="#E8033A"/>
<rect x="21.0283" y="16.8474" width="0.814299" height="0.807907" fill="#E8033A"/>
<rect x="20.2139" y="16.8474" width="0.814299" height="0.807907" fill="#E8033A"/>
<rect x="19.4004" y="16.8474" width="0.814299" height="0.807907" fill="#E8033A"/>
<rect x="19.4004" y="17.6555" width="0.814299" height="0.807907" fill="#E8033A"/>
<rect x="18.5859" y="17.6555" width="0.814299" height="0.807907" fill="#E8033A"/>
<rect x="18.5859" y="18.4639" width="0.814299" height="0.807907" fill="#E8033A"/>
<rect x="17.7715" y="18.4639" width="0.814299" height="0.807907" fill="#E8033A"/>
<rect x="16.957" y="17.6555" width="0.814299" height="0.807907" fill="#E8033A"/>
<rect x="17.7715" y="19.272" width="0.814299" height="0.807907" fill="#E8033A"/>
<rect x="16.957" y="19.272" width="0.814299" height="0.807907" fill="#E8033A"/>
<rect x="16.957" y="20.0791" width="0.814299" height="0.807907" fill="#E8033A"/>
<rect x="16.1426" y="20.0791" width="0.814299" height="0.807907" fill="#E8033A"/>
<rect x="16.1426" y="20.8875" width="0.814299" height="0.807907" fill="#E8033A"/>
<rect x="15.3291" y="20.8875" width="0.814299" height="0.807907" fill="#E8033A"/>
<rect x="15.3291" y="21.6946" width="0.814299" height="0.807907" fill="#E8033A"/>
<rect x="14.5146" y="21.6946" width="0.814299" height="0.807907" fill="#E8033A"/>
<rect x="14.5146" y="22.5029" width="0.814299" height="0.807907" fill="#E8033A"/>
<rect x="13.7002" y="22.5029" width="0.814299" height="0.807907" fill="#E8033A"/>
<rect x="13.7002" y="23.311" width="0.814299" height="0.807907" fill="#E8033A"/>
<rect x="12.8857" y="23.311" width="0.814299" height="0.807907" fill="#E8033A"/>
<rect x="12.8857" y="24.1191" width="0.814299" height="0.807907" fill="#E8033A"/>
<rect x="12.8857" y="24.9265" width="0.814299" height="0.807907" fill="#E8033A"/>
<rect x="12.0713" y="24.9265" width="0.814299" height="0.807907" fill="#E8033A"/>
<rect x="11.2568" y="24.1191" width="0.814299" height="0.807907" fill="#E8033A"/>
<rect x="12.0713" y="25.7346" width="0.814299" height="0.807907" fill="#E8033A"/>
<rect x="12.0713" y="26.5427" width="0.814299" height="0.807907" fill="#E8033A"/>
<rect x="11.2568" y="26.5427" width="0.814299" height="0.807907" fill="#E8033A"/>
<rect x="11.2568" y="27.3508" width="0.814299" height="0.807907" fill="#E8033A"/>
<rect x="11.2568" y="28.1582" width="0.814299" height="0.807907" fill="#E8033A"/>
<rect x="10.4424" y="28.1582" width="0.814299" height="0.807907" fill="#E8033A"/>
<rect x="10.4424" y="28.9663" width="0.814299" height="0.807907" fill="#E8033A"/>
<rect x="10.4424" y="29.7737" width="0.814299" height="0.807907" fill="#E8033A"/>
<rect x="10.4424" y="30.5828" width="0.814299" height="0.807907" fill="#E8033A"/>
<rect x="9.62891" y="30.5828" width="0.814299" height="0.807907" fill="#E8033A"/>
<rect x="9.62891" y="31.3899" width="0.814299" height="0.807907" fill="#E8033A"/>
<rect x="9.62891" y="32.1982" width="0.814299" height="0.807907" fill="#E8033A"/>
<rect x="9.62891" y="33.0054" width="0.814299" height="0.807907" fill="#E8033A"/>
<rect x="9.62891" y="33.8135" width="0.814299" height="0.807907" fill="#E8033A"/>
<rect x="8.81445" y="33.8135" width="0.814299" height="0.807907" fill="#E8033A"/>
<rect x="8.81445" y="34.6218" width="0.814299" height="0.807907" fill="#E8033A"/>
<rect x="8.81445" y="35.4299" width="0.814299" height="0.807907" fill="#E8033A"/>
<rect x="8.81445" y="36.2371" width="0.814299" height="0.807907" fill="#E8033A"/>
<rect x="8.81445" y="37.0454" width="0.814299" height="0.807907" fill="#E8033A"/>
<rect x="22.6572" y="16.0403" width="0.814299" height="0.807907" fill="#E8033A"/>
<rect x="24.2861" y="15.2319" width="0.814299" height="0.807907" fill="#E8033A"/>
<rect x="25.9141" y="13.6157" width="0.814299" height="0.807907" fill="#E8033A"/>
<rect x="25.9141" y="14.4238" width="0.814299" height="0.807907" fill="#E8033A"/>
<rect x="28.3574" y="13.6157" width="0.814299" height="0.807907" fill="#E8033A"/>
<rect x="29.1719" y="12.8083" width="0.814299" height="0.807907" fill="#E8033A"/>
<rect x="29.1719" y="13.6157" width="0.814299" height="0.807907" fill="#E8033A"/>
<rect x="29.9863" y="12.8083" width="0.814299" height="0.807907" fill="#E8033A"/>
<rect x="30.8008" y="12.8083" width="0.814299" height="0.807907" fill="#E8033A"/>
<rect x="33.2432" y="12.8083" width="0.814299" height="0.807907" fill="#E8033A"/>
<rect x="34.0576" y="12.8083" width="0.814299" height="0.807907" fill="#E8033A"/>
<rect x="34.8721" y="12.8083" width="0.814299" height="0.807907" fill="#E8033A"/>
<rect x="37.3145" y="12.8083" width="0.814299" height="0.807907" fill="#E8033A"/>
<rect x="36.5" y="12.8083" width="0.814299" height="0.807907" fill="#E8033A"/>
<rect x="41.3857" y="13.6157" width="0.814299" height="0.807907" fill="#E8033A"/>
<rect x="40.5723" y="13.6157" width="0.814299" height="0.807907" fill="#E8033A"/>
<rect x="43.8291" y="14.4238" width="0.814299" height="0.807907" fill="#E8033A"/>
<rect x="43.0146" y="14.4238" width="0.814299" height="0.807907" fill="#E8033A"/>
<rect x="46.2725" y="14.4238" width="0.814299" height="0.807907" fill="#E8033A"/>
<rect x="45.458" y="15.2319" width="0.814299" height="0.807907" fill="#E8033A"/>
<rect x="47.9004" y="15.2319" width="0.814299" height="0.807907" fill="#E8033A"/>
<rect x="47.0859" y="16.0403" width="0.814299" height="0.807907" fill="#E8033A"/>
<rect x="48.7148" y="16.8474" width="0.814299" height="0.807907" fill="#E8033A"/>
<rect x="47.9004" y="16.8474" width="0.814299" height="0.807907" fill="#E8033A"/>
<rect x="50.3438" y="16.8474" width="0.814299" height="0.807907" fill="#E8033A"/>
<rect x="49.5293" y="17.6555" width="0.814299" height="0.807907" fill="#E8033A"/>
<rect x="51.1572" y="17.6555" width="0.814299" height="0.807907" fill="#E8033A"/>
<rect x="50.3438" y="18.4639" width="0.814299" height="0.807907" fill="#E8033A"/>
<rect x="51.9727" y="18.4639" width="0.814299" height="0.807907" fill="#E8033A"/>
<rect x="51.1572" y="19.272" width="0.814299" height="0.807907" fill="#E8033A"/>
<rect x="52.7861" y="19.272" width="0.814299" height="0.807907" fill="#E8033A"/>
<rect x="51.9727" y="20.0791" width="0.814299" height="0.807907" fill="#E8033A"/>
<rect x="53.6006" y="20.0791" width="0.814299" height="0.807907" fill="#E8033A"/>
<rect x="52.7861" y="20.8875" width="0.814299" height="0.807907" fill="#E8033A"/>
<rect x="54.415" y="20.8875" width="0.814299" height="0.807907" fill="#E8033A"/>
<rect x="53.6006" y="21.6946" width="0.814299" height="0.807907" fill="#E8033A"/>
<rect x="55.2295" y="21.6946" width="0.814299" height="0.807907" fill="#E8033A"/>
<rect x="54.415" y="22.5029" width="0.814299" height="0.807907" fill="#E8033A"/>
<rect x="56.0439" y="22.5029" width="0.814299" height="0.807907" fill="#E8033A"/>
<rect x="56.0439" y="23.311" width="0.814299" height="0.807907" fill="#E8033A"/>
<rect x="55.2295" y="24.1191" width="0.814299" height="0.807907" fill="#E8033A"/>
<rect x="56.8584" y="24.1191" width="0.814299" height="0.807907" fill="#E8033A"/>
<rect x="56.0439" y="24.9265" width="0.814299" height="0.807907" fill="#E8033A"/>
<rect x="57.6719" y="24.9265" width="0.814299" height="0.807907" fill="#E8033A"/>
<rect x="57.6719" y="25.7346" width="0.814299" height="0.807907" fill="#E8033A"/>
<rect x="56.8584" y="26.5427" width="0.814299" height="0.807907" fill="#E8033A"/>
<rect x="58.4863" y="26.5427" width="0.814299" height="0.807907" fill="#E8033A"/>
<rect x="58.4863" y="27.3508" width="0.814299" height="0.807907" fill="#E8033A"/>
<rect x="58.4863" y="28.1582" width="0.814299" height="0.807907" fill="#E8033A"/>
<rect x="57.6719" y="28.9663" width="0.814299" height="0.807907" fill="#E8033A"/>
<rect x="59.3008" y="28.9663" width="0.814299" height="0.807907" fill="#E8033A"/>
<rect x="59.3008" y="29.7737" width="0.814299" height="0.807907" fill="#E8033A"/>
<rect x="59.3008" y="30.5828" width="0.814299" height="0.807907" fill="#E8033A"/>
<rect x="58.4863" y="31.3899" width="0.814299" height="0.807907" fill="#E8033A"/>
<rect x="60.1152" y="31.3899" width="0.814299" height="0.807907" fill="#E8033A"/>
<rect x="60.1152" y="32.1982" width="0.814299" height="0.807907" fill="#E8033A"/>
<rect x="60.1152" y="33.0054" width="0.814299" height="0.807907" fill="#E8033A"/>
<rect x="60.1152" y="33.8135" width="0.814299" height="0.807907" fill="#E8033A"/>
<rect x="60.1152" y="34.6218" width="0.814299" height="0.807907" fill="#E8033A"/>
<rect x="59.3008" y="35.4299" width="0.814299" height="0.807907" fill="#E8033A"/>
<rect x="60.9297" y="35.4299" width="0.814299" height="0.807907" fill="#E8033A"/>
<rect x="60.9297" y="36.2371" width="0.814299" height="0.807907" fill="#E8033A"/>
<rect x="60.9297" y="37.0454" width="0.814299" height="0.807907" fill="#E8033A"/>
<rect x="35.6865" y="12.8083" width="0.814299" height="0.807907" fill="#E8033A"/>
<rect x="38.1289" y="12.8083" width="0.814299" height="0.807907" fill="#E8033A"/>
<rect x="38.9434" y="12.8083" width="0.814299" height="0.807907" fill="#E8033A"/>
<rect x="39.7578" y="12.0002" width="0.814299" height="0.807907" fill="#E8033A"/>
<rect x="39.7578" y="13.6157" width="0.814299" height="0.807907" fill="#E8033A"/>
<rect x="42.2002" y="13.6157" width="0.814299" height="0.807907" fill="#E8033A"/>
<rect x="43.0146" y="12.8083" width="0.814299" height="0.807907" fill="#E8033A"/>
<rect x="44.6436" y="13.6157" width="0.814299" height="0.807907" fill="#E8033A"/>
<rect x="44.6436" y="15.2319" width="0.814299" height="0.807907" fill="#E8033A"/>
<rect x="46.2725" y="16.0403" width="0.814299" height="0.807907" fill="#E8033A"/>
<rect x="49.5293" y="16.0403" width="0.814299" height="0.807907" fill="#E8033A"/>
<path d="M18.7451 28.8606H20.2802V27.3149H23.4326V24.1963H24.9791V22.6597H48.6105V24.1737H50.1844V47.6195H48.6219V49.1834H45.4901V52.3042H43.9162V53.8567H20.2916V52.3132H18.7451V28.8606ZM42.34 50.7562H40.7433V49.215H37.632V50.7562H36.0033V49.2173H32.9239V50.7562H34.475V52.2657H37.6206V50.7449H39.1853V52.268H42.3309V50.7449H43.8728V49.215H42.34V50.7562ZM21.8633 39.7733H23.4144V36.6932H21.8633V35.0932H23.4121V32.0244H21.877V30.4403H23.4189V28.9104H21.8861V30.4493H20.3373V33.5837H21.8724V35.1045H20.3373V38.2593H21.8724V39.7801H20.3418V42.9485H21.8952V44.4602H23.4098V41.3847H21.8633V39.7733ZM23.4166 50.7359H25.0385V52.268H28.1384V50.7562H26.5918V49.1947C26.1356 49.1947 25.725 49.1788 25.3099 49.1947C25.0453 49.2083 24.9791 49.1109 24.9906 48.8643C25.0065 48.4637 24.9906 48.0586 24.9906 47.6173H23.4258V46.0557H21.8656V44.5372H20.335V47.615H21.8884V49.172H23.4235V50.7562H21.8633V49.2309H20.335V52.2725H23.4121L23.4166 50.7359ZM48.59 24.2371H25.0453V47.5879H48.59V24.2371ZM31.3044 50.7562V49.2173H28.2114V50.7562H29.7624V52.2702H32.8418V50.7562H31.3044Z" fill="#E8033A"/>
<path d="M36.0309 30.4697V31.9724H37.5889V30.472H42.322V31.9724H43.8754V36.7023H42.3379V38.2571H40.7732V39.8119H39.1765V41.3802H37.6208V42.9169H36.0241V41.4006H34.4821V39.8164H32.8854V38.2571H31.3047V36.725H29.7764V32.0086H31.2841V30.4697H36.0309Z" fill="#E8033A"/>
<path d="M72.5 43.25V41.5H70.75V39.75H69V34.5H70.75V32.75H72.5V31H79.5V32.75H81.25V34.5H77.75V32.75H74.25V34.5H72.5V39.75H74.25V41.5H77.75V39.75H81.25V41.5H79.5V43.25H72.5ZM84.75 43.25V41.5H83V36.25H84.75V34.5H93.5V36.25H95.25V39.75H86.5V41.5H93.5V43.25H84.75ZM86.5 38H91.75V36.25H86.5V38ZM102.25 36.25V38H100.5V43.25H97V34.5H100.5V36.25H102.25ZM109.25 34.5V43.25H105.75V38H104V36.25H105.75V34.5H109.25ZM102.25 38H104V41.5H102.25V38ZM111 43.25V34.5H114.5V38H121.5V39.75H123.25V41.5H121.5V43.25H111ZM114.5 41.5H119.75V39.75H114.5V41.5ZM125 43.25V39.75H126.75V38H125V36.25H126.75V34.5H137.25V43.25H133.75V39.75H128.5V43.25H125ZM128.5 38H133.75V36.25H128.5V38Z" fill="black"/>
</svg>
