<svg width="301" height="76" viewBox="0 0 301 76" fill="none" xmlns="http://www.w3.org/2000/svg">
<path d="M12.0227 75.9289V72.5729H6.1714L5.91529 69.1044C3.02906 68.4462 3.02906 68.4463 2.99951 64.954C2.99951 62.0487 2.76309 61.7878 0 61.266V14.6806C0.147759 14.5502 0.226564 14.4138 0.315219 14.4019C2.90593 14.0758 2.99951 13.9454 3.01429 10.6488C3.01429 9.54595 3.01429 8.44313 3.01429 7.23358L5.96947 7.06163L6.10738 3.5575H11.9291L12.1212 0H288.958L289.233 3.5575H295.031C295.085 4.82634 295.129 5.86394 295.188 7.115H298.104V10.6251C298.104 14.058 298.148 14.1055 301 14.5205V61.3609C298.183 61.8767 298.119 61.9538 298.114 65.6536C298.114 66.6379 298.114 67.6221 298.114 68.7783L295.218 69.0451C295.159 70.1716 295.104 71.2092 295.035 72.5077H289.253C289.164 73.7943 289.091 74.8201 289.002 76L12.0227 75.9289Z" fill="white"/>
<path d="M70 36.25V24H73.5V31H75.25V29.25H77V27.5H78.75V24H82.25V36.25H78.75V31H77V32.75H75.25V34.5H73.5V36.25H70ZM89.25 29.25V31H87.5V36.25H84V27.5H87.5V29.25H89.25ZM96.25 27.5V36.25H92.75V31H91V29.25H92.75V27.5H96.25ZM89.25 31H91V34.5H89.25V31ZM99.75 38V36.25H106.75V34.5H99.75V32.75H98V27.5H101.5V32.75H106.75V27.5H110.25V36.25H108.5V38H99.75ZM122.5 38V36.25H112V27.5H115.5V34.5H117.25V27.5H119V34.5H120.75V27.5H124.25V34.5H126V38H122.5ZM127.75 36.25V34.5H126V29.25H127.75V27.5H136.5V29.25H138.25V32.75H129.5V34.5H136.5V36.25H127.75ZM129.5 31H134.75V29.25H129.5V31ZM141.75 36.25V34.5H140V29.25H141.75V27.5H150.5V29.25H152.25V31H148.75V29.25H143.5V34.5H148.75V32.75H152.25V34.5H150.5V36.25H141.75ZM159.25 36.25V29.25H155.75V27.5H166.25V29.25H162.75V36.25H159.25ZM168 36.25V27.5H178.5V29.25H180.25V31H178.5V32.75H180.25V34.5H178.5V36.25H168ZM171.5 31H176.75V29.25H171.5V31ZM171.5 34.5H176.75V32.75H171.5V34.5ZM183.75 36.25V34.5H182V29.25H183.75V27.5H192.5V29.25H194.25V32.75H185.5V34.5H192.5V36.25H183.75ZM185.5 31H190.75V29.25H185.5V31ZM196 36.25V27.5H199.5V31H204.75V27.5H208.25V36.25H204.75V32.75H199.5V36.25H196ZM210 36.25V27.5H213.5V31H218.75V27.5H222.25V36.25H218.75V32.75H213.5V36.25H210ZM224 36.25V27.5H227.5V31H231V36.25H224ZM232.75 36.25V27.5H236.25V36.25H232.75ZM227.5 34.5H229.25V32.75H227.5V34.5ZM239.75 36.25V34.5H238V29.25H239.75V27.5H248.5V29.25H250.25V32.75H241.5V34.5H248.5V36.25H239.75ZM241.5 31H246.75V29.25H241.5V31ZM71.75 50.25V48.5H70V43.25H71.75V41.5H80.5V43.25H82.25V48.5H80.5V50.25H71.75ZM73.5 48.5H78.75V43.25H73.5V48.5ZM89.25 50.25V43.25H85.75V41.5H96.25V43.25H92.75V50.25H89.25ZM98 50.25V41.5H101.5V45H106.75V41.5H110.25V50.25H106.75V46.75H101.5V50.25H98ZM113.75 50.25V48.5H112V43.25H113.75V41.5H122.5V43.25H124.25V48.5H122.5V50.25H113.75ZM115.5 48.5H120.75V43.25H115.5V48.5ZM126 50.25V41.5H129.5V48.5H131.25V41.5H133V48.5H134.75V41.5H138.25V50.25H126ZM141.75 50.25V48.5H140V43.25H141.75V41.5H150.5V43.25H152.25V46.75H143.5V48.5H150.5V50.25H141.75ZM143.5 45H148.75V43.25H143.5V45ZM154 50.25V41.5H157.5V45H162.75V41.5H166.25V50.25H162.75V46.75H157.5V50.25H154ZM171.5 46.75H173.25V48.5H171.5V50.25H168V41.5H171.5V46.75ZM180.25 41.5V50.25H176.75V45H175V43.25H176.75V41.5H180.25ZM173.25 45H175V46.75H173.25V45ZM182 50.25V46.75H183.75V45H182V43.25H183.75V41.5H194.25V50.25H190.75V46.75H185.5V50.25H182ZM185.5 45H190.75V43.25H185.5V45Z" fill="black"/>
<path d="M60.3724 37.1862H61.1595V37.9733H60.3724V37.1862Z" fill="#7E1B70"/>
<path d="M60.3724 37.9733H61.1595V38.7603H60.3724V37.9733Z" fill="#7E1B70"/>
<path d="M60.3724 38.7603H61.1595V39.5474H60.3724V38.7603Z" fill="#7E1B70"/>
<path d="M59.5853 39.5474H60.3724V40.3345H59.5853V39.5474Z" fill="#7E1B70"/>
<path d="M59.5853 40.3345H60.3724V41.1215H59.5853V40.3345Z" fill="#7E1B70"/>
<path d="M59.5853 41.1215H60.3724V41.9086H59.5853V41.1215Z" fill="#7E1B70"/>
<path d="M59.5853 41.9086H60.3724V42.6957H59.5853V41.9086Z" fill="#7E1B70"/>
<path d="M59.5853 42.6957H60.3724V43.4827H59.5853V42.6957Z" fill="#7E1B70"/>
<path d="M59.5853 43.4827H60.3724V44.2698H59.5853V43.4827Z" fill="#7E1B70"/>
<path d="M58.7983 44.2698H59.5853V45.0569H58.7983V44.2698Z" fill="#7E1B70"/>
<path d="M58.7983 45.0569H59.5853V45.8439H58.7983V45.0569Z" fill="#7E1B70"/>
<path d="M58.7983 45.8439H59.5853V46.631H58.7983V45.8439Z" fill="#7E1B70"/>
<path d="M58.0112 46.631H58.7983V47.4181H58.0112V46.631Z" fill="#7E1B70"/>
<path d="M58.0112 47.4181H58.7983V48.2052H58.0112V47.4181Z" fill="#7E1B70"/>
<path d="M57.2241 48.2052H58.0112V48.9922H57.2241V48.2052Z" fill="#7E1B70"/>
<path d="M57.2241 48.9922H58.0112V49.7793H57.2241V48.9922Z" fill="#7E1B70"/>
<path d="M56.437 49.7793H57.2241V50.5664H56.437V49.7793Z" fill="#7E1B70"/>
<path d="M55.65 50.5664H56.437V51.3534H55.65V50.5664Z" fill="#7E1B70"/>
<path d="M55.65 51.3534H56.437V52.1405H55.65V51.3534Z" fill="#7E1B70"/>
<path d="M54.8629 52.1405H55.65V52.9276H54.8629V52.1405Z" fill="#7E1B70"/>
<path d="M54.0758 52.9276H54.8629V53.7146H54.0758V52.9276Z" fill="#7E1B70"/>
<path d="M53.2888 53.7146H54.0758V54.5017H53.2888V53.7146Z" fill="#7E1B70"/>
<path d="M52.5017 54.5017H53.2888V55.2888H52.5017V54.5017Z" fill="#7E1B70"/>
<path d="M51.7146 55.2888H52.5017V56.0758H51.7146V55.2888Z" fill="#7E1B70"/>
<path d="M50.9276 56.0758H51.7146V56.8629H50.9276V56.0758Z" fill="#7E1B70"/>
<path d="M50.1405 56.8629H50.9276V57.65H50.1405V56.8629Z" fill="#7E1B70"/>
<path d="M49.3534 57.65H50.1405V58.437H49.3534V57.65Z" fill="#7E1B70"/>
<path d="M47.7793 58.437H48.5664V59.2241H47.7793V58.437Z" fill="#7E1B70"/>
<path d="M46.2052 59.2241H46.9922V60.0112H46.2052V59.2241Z" fill="#7E1B70"/>
<path d="M44.631 60.0112H45.4181V60.7983H44.631V60.0112Z" fill="#7E1B70"/>
<path d="M42.2698 60.7983H43.0569V61.5853H42.2698V60.7983Z" fill="#7E1B70"/>
<path d="M39.1215 61.5853H39.9086V62.3724H39.1215V61.5853Z" fill="#7E1B70"/>
<path d="M35.1862 61.5853H35.9733V62.3724H35.1862V61.5853Z" fill="#7E1B70"/>
<path d="M35.9733 61.5853H36.7603V62.3724H35.9733V61.5853Z" fill="#7E1B70"/>
<path d="M36.7603 61.5853H37.5474V62.3724H36.7603V61.5853Z" fill="#7E1B70"/>
<path d="M37.5474 61.5853H38.3345V62.3724H37.5474V61.5853Z" fill="#7E1B70"/>
<path d="M38.3345 61.5853H39.1215V62.3724H38.3345V61.5853Z" fill="#7E1B70"/>
<path d="M39.9086 61.5853H40.6957V62.3724H39.9086V61.5853Z" fill="#7E1B70"/>
<path d="M40.6957 61.5853H41.4827V62.3724H40.6957V61.5853Z" fill="#7E1B70"/>
<path d="M41.4827 60.7983H42.2698V61.5853H41.4827V60.7983Z" fill="#7E1B70"/>
<path d="M43.0569 60.7983H43.844V61.5853H43.0569V60.7983Z" fill="#7E1B70"/>
<path d="M43.844 60.0112H44.631V60.7983H43.844V60.0112Z" fill="#7E1B70"/>
<path d="M45.4181 60.0112H46.2052V60.7983H45.4181V60.0112Z" fill="#7E1B70"/>
<path d="M46.9922 59.2241H47.7793V60.0112H46.9922V59.2241Z" fill="#7E1B70"/>
<path d="M48.5664 57.65H49.3534V58.437H48.5664V57.65Z" fill="#7E1B70"/>
<path d="M10 37.1862H10.7871V37.9733H10V37.1862Z" fill="#7E1B70"/>
<path d="M10 37.9733H10.7871V38.7603H10V37.9733Z" fill="#7E1B70"/>
<path d="M10 38.7603H10.7871V39.5474H10V38.7603Z" fill="#7E1B70"/>
<path d="M10 39.5474H10.7871V40.3345H10V39.5474Z" fill="#7E1B70"/>
<path d="M10 40.3345H10.7871V41.1215H10V40.3345Z" fill="#7E1B70"/>
<path d="M10.7871 41.1215H11.5741V41.9086H10.7871V41.1215Z" fill="#7E1B70"/>
<path d="M10.7871 41.9086H11.5741V42.6957H10.7871V41.9086Z" fill="#7E1B70"/>
<path d="M10.7871 42.6957H11.5741V43.4827H10.7871V42.6957Z" fill="#7E1B70"/>
<path d="M10.7871 43.4827H11.5741V44.2698H10.7871V43.4827Z" fill="#7E1B70"/>
<path d="M11.5741 44.2698H12.3612V45.0569H11.5741V44.2698Z" fill="#7E1B70"/>
<path d="M11.5741 45.0569H12.3612V45.8439H11.5741V45.0569Z" fill="#7E1B70"/>
<path d="M11.5741 45.8439H12.3612V46.631H11.5741V45.8439Z" fill="#7E1B70"/>
<path d="M12.3612 46.631H13.1483V47.4181H12.3612V46.631Z" fill="#7E1B70"/>
<path d="M12.3612 47.4181H13.1483V48.2052H12.3612V47.4181Z" fill="#7E1B70"/>
<path d="M13.1483 48.2052H13.9353V48.9922H13.1483V48.2052Z" fill="#7E1B70"/>
<path d="M13.1483 48.9922H13.9353V49.7793H13.1483V48.9922Z" fill="#7E1B70"/>
<path d="M13.9353 49.7793H14.7224V50.5664H13.9353V49.7793Z" fill="#7E1B70"/>
<path d="M13.9353 50.5664H14.7224V51.3534H13.9353V50.5664Z" fill="#7E1B70"/>
<path d="M14.7224 51.3534H15.5095V52.1405H14.7224V51.3534Z" fill="#7E1B70"/>
<path d="M15.5095 52.1405H16.2965V52.9276H15.5095V52.1405Z" fill="#7E1B70"/>
<path d="M16.2965 52.9276H17.0836V53.7146H16.2965V52.9276Z" fill="#7E1B70"/>
<path d="M16.2965 53.7146H17.0836V54.5017H16.2965V53.7146Z" fill="#7E1B70"/>
<path d="M17.0836 54.5017H17.8707V55.2888H17.0836V54.5017Z" fill="#7E1B70"/>
<path d="M17.8707 55.2888H18.6578V56.0758H17.8707V55.2888Z" fill="#7E1B70"/>
<path d="M19.4448 56.0758H20.2319V56.8629H19.4448V56.0758Z" fill="#7E1B70"/>
<path d="M20.2319 56.8629H21.019V57.65H20.2319V56.8629Z" fill="#7E1B70"/>
<path d="M21.019 57.65H21.806V58.437H21.019V57.65Z" fill="#7E1B70"/>
<path d="M22.5931 58.437H23.3802V59.2241H22.5931V58.437Z" fill="#7E1B70"/>
<path d="M24.1672 59.2241H24.9543V60.0112H24.1672V59.2241Z" fill="#7E1B70"/>
<path d="M25.7414 60.0112H26.5284V60.7983H25.7414V60.0112Z" fill="#7E1B70"/>
<path d="M28.1026 60.7983H28.8896V61.5853H28.1026V60.7983Z" fill="#7E1B70"/>
<path d="M31.2509 61.5853H32.0379V62.3724H31.2509V61.5853Z" fill="#7E1B70"/>
<path d="M18.6578 55.2888H19.4448V56.0758H18.6578V55.2888Z" fill="#7E1B70"/>
<path d="M21.806 57.65H22.5931V58.437H21.806V57.65Z" fill="#7E1B70"/>
<path d="M23.3802 59.2241H24.1672V60.0112H23.3802V59.2241Z" fill="#7E1B70"/>
<path d="M24.9543 60.0112H25.7414V60.7983H24.9543V60.0112Z" fill="#7E1B70"/>
<path d="M26.5284 60.0112H27.3155V60.7983H26.5284V60.0112Z" fill="#7E1B70"/>
<path d="M27.3155 60.7983H28.1026V61.5853H27.3155V60.7983Z" fill="#7E1B70"/>
<path d="M28.8896 60.7983H29.6767V61.5853H28.8896V60.7983Z" fill="#7E1B70"/>
<path d="M29.6767 61.5853H30.4638V62.3724H29.6767V61.5853Z" fill="#7E1B70"/>
<path d="M30.4638 61.5853H31.2509V62.3724H30.4638V61.5853Z" fill="#7E1B70"/>
<path d="M32.0379 61.5853H32.825V62.3724H32.0379V61.5853Z" fill="#7E1B70"/>
<path d="M32.825 61.5853H33.6121V62.3724H32.825V61.5853Z" fill="#7E1B70"/>
<path d="M33.6121 61.5853H34.3991V62.3724H33.6121V61.5853Z" fill="#7E1B70"/>
<path d="M34.3991 61.5853H35.1862V62.3724H34.3991V61.5853Z" fill="#7E1B70"/>
<path d="M32.825 12H33.6121V12.7871H32.825V12Z" fill="#7E1B70"/>
<path d="M28.1026 12.7871H28.8896V13.5741H28.1026V12.7871Z" fill="#7E1B70"/>
<path d="M25.7414 13.5741H26.5284V14.3612H25.7414V13.5741Z" fill="#7E1B70"/>
<path d="M24.1672 14.3612H24.9543V15.1483H24.1672V14.3612Z" fill="#7E1B70"/>
<path d="M22.5931 15.1483H23.3802V15.9353H22.5931V15.1483Z" fill="#7E1B70"/>
<path d="M21.806 15.9353H22.5931V16.7224H21.806V15.9353Z" fill="#7E1B70"/>
<path d="M20.2319 16.7224H21.019V17.5095H20.2319V16.7224Z" fill="#7E1B70"/>
<path d="M19.4448 17.5095H20.2319V18.2965H19.4448V17.5095Z" fill="#7E1B70"/>
<path d="M18.6578 18.2965H19.4448V19.0836H18.6578V18.2965Z" fill="#7E1B70"/>
<path d="M17.8707 19.0836H18.6578V19.8707H17.8707V19.0836Z" fill="#7E1B70"/>
<path d="M17.0836 19.8707H17.8707V20.6578H17.0836V19.8707Z" fill="#7E1B70"/>
<path d="M16.2965 20.6578H17.0836V21.4448H16.2965V20.6578Z" fill="#7E1B70"/>
<path d="M15.5095 21.4448H16.2965V22.2319H15.5095V21.4448Z" fill="#7E1B70"/>
<path d="M14.7224 22.2319H15.5095V23.019H14.7224V22.2319Z" fill="#7E1B70"/>
<path d="M13.9353 23.019H14.7224V23.806H13.9353V23.019Z" fill="#7E1B70"/>
<path d="M13.9353 23.806H14.7224V24.5931H13.9353V23.806Z" fill="#7E1B70"/>
<path d="M13.1483 24.5931H13.9353V25.3802H13.1483V24.5931Z" fill="#7E1B70"/>
<path d="M13.1483 25.3802H13.9353V26.1672H13.1483V25.3802Z" fill="#7E1B70"/>
<path d="M12.3612 26.1672H13.1483V26.9543H12.3612V26.1672Z" fill="#7E1B70"/>
<path d="M12.3612 26.9543H13.1483V27.7414H12.3612V26.9543Z" fill="#7E1B70"/>
<path d="M11.5741 27.7414H12.3612V28.5284H11.5741V27.7414Z" fill="#7E1B70"/>
<path d="M11.5741 28.5284H12.3612V29.3155H11.5741V28.5284Z" fill="#7E1B70"/>
<path d="M11.5741 29.3155H12.3612V30.1026H11.5741V29.3155Z" fill="#7E1B70"/>
<path d="M10.7871 30.1026H11.5741V30.8896H10.7871V30.1026Z" fill="#7E1B70"/>
<path d="M10.7871 30.8896H11.5741V31.6767H10.7871V30.8896Z" fill="#7E1B70"/>
<path d="M10.7871 31.6767H11.5741V32.4638H10.7871V31.6767Z" fill="#7E1B70"/>
<path d="M10.7871 32.4638H11.5741V33.2509H10.7871V32.4638Z" fill="#7E1B70"/>
<path d="M10 33.2509H10.7871V34.0379H10V33.2509Z" fill="#7E1B70"/>
<path d="M10 34.0379H10.7871V34.825H10V34.0379Z" fill="#7E1B70"/>
<path d="M10 34.825H10.7871V35.6121H10V34.825Z" fill="#7E1B70"/>
<path d="M10 35.6121H10.7871V36.3991H10V35.6121Z" fill="#7E1B70"/>
<path d="M10 36.3991H10.7871V37.1862H10V36.3991Z" fill="#7E1B70"/>
<path d="M21.019 15.9353H21.806V16.7224H21.019V15.9353Z" fill="#7E1B70"/>
<path d="M23.3802 15.1483H24.1672V15.9353H23.3802V15.1483Z" fill="#7E1B70"/>
<path d="M24.9543 14.3612H25.7414V15.1483H24.9543V14.3612Z" fill="#7E1B70"/>
<path d="M26.5284 13.5741H27.3155V14.3612H26.5284V13.5741Z" fill="#7E1B70"/>
<path d="M27.3155 12.7871H28.1026V13.5741H27.3155V12.7871Z" fill="#7E1B70"/>
<path d="M28.8896 12.7871H29.6767V13.5741H28.8896V12.7871Z" fill="#7E1B70"/>
<path d="M29.6767 12.7871H30.4638V13.5741H29.6767V12.7871Z" fill="#7E1B70"/>
<path d="M30.4638 12H31.2509V12.7871H30.4638V12Z" fill="#7E1B70"/>
<path d="M31.2509 12H32.0379V12.7871H31.2509V12Z" fill="#7E1B70"/>
<path d="M32.0379 12H32.825V12.7871H32.0379V12Z" fill="#7E1B70"/>
<path d="M33.6121 12H34.3991V12.7871H33.6121V12Z" fill="#7E1B70"/>
<path d="M34.3991 12H35.1862V12.7871H34.3991V12Z" fill="#7E1B70"/>
<path d="M35.1862 12H35.9733V12.7871H35.1862V12Z" fill="#7E1B70"/>
<path d="M37.5474 12H38.3345V12.7871H37.5474V12Z" fill="#7E1B70"/>
<path d="M41.4827 12.7871H42.2698V13.5741H41.4827V12.7871Z" fill="#7E1B70"/>
<path d="M43.844 13.5741H44.631V14.3612H43.844V13.5741Z" fill="#7E1B70"/>
<path d="M46.2052 14.3612H46.9922V15.1483H46.2052V14.3612Z" fill="#7E1B70"/>
<path d="M47.7793 15.1483H48.5664V15.9353H47.7793V15.1483Z" fill="#7E1B70"/>
<path d="M48.5664 15.9353H49.3534V16.7224H48.5664V15.9353Z" fill="#7E1B70"/>
<path d="M50.1405 16.7224H50.9276V17.5095H50.1405V16.7224Z" fill="#7E1B70"/>
<path d="M50.9276 17.5095H51.7146V18.2965H50.9276V17.5095Z" fill="#7E1B70"/>
<path d="M51.7146 18.2965H52.5017V19.0836H51.7146V18.2965Z" fill="#7E1B70"/>
<path d="M52.5017 19.0836H53.2888V19.8707H52.5017V19.0836Z" fill="#7E1B70"/>
<path d="M53.2888 19.8707H54.0758V20.6578H53.2888V19.8707Z" fill="#7E1B70"/>
<path d="M54.0758 20.6578H54.8629V21.4448H54.0758V20.6578Z" fill="#7E1B70"/>
<path d="M54.8629 21.4448H55.65V22.2319H54.8629V21.4448Z" fill="#7E1B70"/>
<path d="M55.65 22.2319H56.437V23.019H55.65V22.2319Z" fill="#7E1B70"/>
<path d="M55.65 23.019H56.437V23.806H55.65V23.019Z" fill="#7E1B70"/>
<path d="M56.437 23.806H57.2241V24.5931H56.437V23.806Z" fill="#7E1B70"/>
<path d="M57.2241 24.5931H58.0112V25.3802H57.2241V24.5931Z" fill="#7E1B70"/>
<path d="M57.2241 25.3802H58.0112V26.1672H57.2241V25.3802Z" fill="#7E1B70"/>
<path d="M58.0112 26.1672H58.7983V26.9543H58.0112V26.1672Z" fill="#7E1B70"/>
<path d="M58.0112 26.9543H58.7983V27.7414H58.0112V26.9543Z" fill="#7E1B70"/>
<path d="M58.0112 27.7414H58.7983V28.5284H58.0112V27.7414Z" fill="#7E1B70"/>
<path d="M58.7983 28.5284H59.5853V29.3155H58.7983V28.5284Z" fill="#7E1B70"/>
<path d="M58.7983 29.3155H59.5853V30.1026H58.7983V29.3155Z" fill="#7E1B70"/>
<path d="M58.7983 30.1026H59.5853V30.8896H58.7983V30.1026Z" fill="#7E1B70"/>
<path d="M59.5853 30.8896H60.3724V31.6767H59.5853V30.8896Z" fill="#7E1B70"/>
<path d="M59.5853 31.6767H60.3724V32.4638H59.5853V31.6767Z" fill="#7E1B70"/>
<path d="M59.5853 32.4638H60.3724V33.2509H59.5853V32.4638Z" fill="#7E1B70"/>
<path d="M59.5853 33.2509H60.3724V34.0379H59.5853V33.2509Z" fill="#7E1B70"/>
<path d="M59.5853 34.0379H60.3724V34.825H59.5853V34.0379Z" fill="#7E1B70"/>
<path d="M60.3724 34.825H61.1595V35.6121H60.3724V34.825Z" fill="#7E1B70"/>
<path d="M60.3724 35.6121H61.1595V36.3991H60.3724V35.6121Z" fill="#7E1B70"/>
<path d="M60.3724 36.3991H61.1595V37.1862H60.3724V36.3991Z" fill="#7E1B70"/>
<path d="M35.9733 12H36.7603V12.7871H35.9733V12Z" fill="#7E1B70"/>
<path d="M36.7603 12H37.5474V12.7871H36.7603V12Z" fill="#7E1B70"/>
<path d="M38.3345 12H39.1215V12.7871H38.3345V12Z" fill="#7E1B70"/>
<path d="M39.1215 12H39.9086V12.7871H39.1215V12Z" fill="#7E1B70"/>
<path d="M39.9086 12H40.6957V12.7871H39.9086V12Z" fill="#7E1B70"/>
<path d="M40.6957 12.7871H41.4827V13.5741H40.6957V12.7871Z" fill="#7E1B70"/>
<path d="M42.2698 12.7871H43.0569V13.5741H42.2698V12.7871Z" fill="#7E1B70"/>
<path d="M43.0569 12.7871H43.844V13.5741H43.0569V12.7871Z" fill="#7E1B70"/>
<path d="M44.631 13.5741H45.4181V14.3612H44.631V13.5741Z" fill="#7E1B70"/>
<path d="M45.4181 14.3612H46.2052V15.1483H45.4181V14.3612Z" fill="#7E1B70"/>
<path d="M46.9922 15.1483H47.7793V15.9353H46.9922V15.1483Z" fill="#7E1B70"/>
<path d="M49.3534 15.9353H50.1405V16.7224H49.3534V15.9353Z" fill="#7E1B70"/>
<rect x="60.3721" y="37.186" width="0.787879" height="0.787879" fill="#7E1B70"/>
<rect x="60.3721" y="37.9734" width="0.787879" height="0.787879" fill="#7E1B70"/>
<rect x="60.3721" y="38.7603" width="0.787879" height="0.787879" fill="#7E1B70"/>
<rect x="59.585" y="39.5476" width="0.787879" height="0.787879" fill="#7E1B70"/>
<rect x="59.585" y="40.3345" width="0.787879" height="0.787879" fill="#7E1B70"/>
<rect x="59.585" y="41.1218" width="0.787879" height="0.787879" fill="#7E1B70"/>
<rect x="59.585" y="41.9084" width="0.787879" height="0.787879" fill="#7E1B70"/>
<rect x="59.585" y="42.6958" width="0.787879" height="0.787879" fill="#7E1B70"/>
<rect x="59.585" y="43.4827" width="0.787879" height="0.787879" fill="#7E1B70"/>
<rect x="58.7979" y="44.27" width="0.787879" height="0.787879" fill="#7E1B70"/>
<rect x="58.7979" y="45.0569" width="0.787879" height="0.787879" fill="#7E1B70"/>
<rect x="58.7979" y="45.8442" width="0.787879" height="0.787879" fill="#7E1B70"/>
<rect x="58.0107" y="46.6309" width="0.787879" height="0.787879" fill="#7E1B70"/>
<rect x="58.0107" y="47.4182" width="0.787879" height="0.787879" fill="#7E1B70"/>
<rect x="57.2236" y="48.2051" width="0.787879" height="0.787879" fill="#7E1B70"/>
<rect x="57.2236" y="48.9924" width="0.787879" height="0.787879" fill="#7E1B70"/>
<rect x="56.4375" y="49.7791" width="0.787879" height="0.787879" fill="#7E1B70"/>
<rect x="55.6504" y="50.5667" width="0.787879" height="0.787879" fill="#7E1B70"/>
<rect x="55.6504" y="51.3533" width="0.787879" height="0.787879" fill="#7E1B70"/>
<rect x="54.8633" y="52.1406" width="0.787879" height="0.787879" fill="#7E1B70"/>
<rect x="54.0762" y="52.9275" width="0.787879" height="0.787879" fill="#7E1B70"/>
<rect x="53.2891" y="53.7148" width="0.787879" height="0.787879" fill="#7E1B70"/>
<rect x="52.502" y="54.5015" width="0.787879" height="0.787879" fill="#7E1B70"/>
<rect x="51.7148" y="55.2888" width="0.787879" height="0.787879" fill="#7E1B70"/>
<rect x="50.9277" y="56.0757" width="0.787879" height="0.787879" fill="#7E1B70"/>
<rect x="50.1406" y="56.863" width="0.787879" height="0.787879" fill="#7E1B70"/>
<rect x="49.3535" y="57.6499" width="0.787879" height="0.787879" fill="#7E1B70"/>
<rect x="47.7793" y="58.4373" width="0.787879" height="0.787879" fill="#7E1B70"/>
<rect x="46.2051" y="59.2239" width="0.787879" height="0.787879" fill="#7E1B70"/>
<rect x="44.6309" y="60.0112" width="0.787879" height="0.787879" fill="#7E1B70"/>
<rect x="42.2695" y="60.7981" width="0.787879" height="0.787879" fill="#7E1B70"/>
<rect x="39.1221" y="61.5854" width="0.787879" height="0.787879" fill="#7E1B70"/>
<rect x="35.1865" y="61.5854" width="0.787879" height="0.787879" fill="#7E1B70"/>
<rect x="35.9736" y="61.5854" width="0.787879" height="0.787879" fill="#7E1B70"/>
<rect x="36.7607" y="61.5854" width="0.787879" height="0.787879" fill="#7E1B70"/>
<rect x="37.5469" y="61.5854" width="0.787879" height="0.787879" fill="#7E1B70"/>
<rect x="38.335" y="61.5854" width="0.787879" height="0.787879" fill="#7E1B70"/>
<rect x="39.9082" y="61.5854" width="0.787879" height="0.787879" fill="#7E1B70"/>
<rect x="40.6953" y="61.5854" width="0.787879" height="0.787879" fill="#7E1B70"/>
<rect x="41.4824" y="60.7981" width="0.787879" height="0.787879" fill="#7E1B70"/>
<rect x="43.0566" y="60.7981" width="0.787879" height="0.787879" fill="#7E1B70"/>
<rect x="43.8438" y="60.0112" width="0.787879" height="0.787879" fill="#7E1B70"/>
<rect x="45.418" y="60.0112" width="0.787879" height="0.787879" fill="#7E1B70"/>
<rect x="46.9922" y="59.2239" width="0.787879" height="0.787879" fill="#7E1B70"/>
<rect x="48.5664" y="57.6499" width="0.787879" height="0.787879" fill="#7E1B70"/>
<rect x="10" y="37.186" width="0.787879" height="0.787879" fill="#7E1B70"/>
<rect x="10" y="37.9734" width="0.787879" height="0.787879" fill="#7E1B70"/>
<rect x="10" y="38.7603" width="0.787879" height="0.787879" fill="#7E1B70"/>
<rect x="10" y="39.5476" width="0.787879" height="0.787879" fill="#7E1B70"/>
<rect x="10" y="40.3345" width="0.787879" height="0.787879" fill="#7E1B70"/>
<rect x="10.7871" y="41.1218" width="0.787879" height="0.787879" fill="#7E1B70"/>
<rect x="10.7871" y="41.9084" width="0.787879" height="0.787879" fill="#7E1B70"/>
<rect x="10.7871" y="42.6958" width="0.787879" height="0.787879" fill="#7E1B70"/>
<rect x="10.7871" y="43.4827" width="0.787879" height="0.787879" fill="#7E1B70"/>
<rect x="11.5742" y="44.27" width="0.787879" height="0.787879" fill="#7E1B70"/>
<rect x="11.5742" y="45.0569" width="0.787879" height="0.787879" fill="#7E1B70"/>
<rect x="11.5742" y="45.8442" width="0.787879" height="0.787879" fill="#7E1B70"/>
<rect x="12.3613" y="46.6309" width="0.787879" height="0.787879" fill="#7E1B70"/>
<rect x="12.3613" y="47.4182" width="0.787879" height="0.787879" fill="#7E1B70"/>
<rect x="13.1484" y="48.2051" width="0.787879" height="0.787879" fill="#7E1B70"/>
<rect x="13.1484" y="48.9924" width="0.787879" height="0.787879" fill="#7E1B70"/>
<rect x="13.9355" y="49.7791" width="0.787879" height="0.787879" fill="#7E1B70"/>
<rect x="13.9355" y="50.5667" width="0.787879" height="0.787879" fill="#7E1B70"/>
<rect x="14.7227" y="51.3533" width="0.787879" height="0.787879" fill="#7E1B70"/>
<rect x="15.5098" y="52.1406" width="0.787879" height="0.787879" fill="#7E1B70"/>
<rect x="16.2969" y="52.9275" width="0.787879" height="0.787879" fill="#7E1B70"/>
<rect x="16.2969" y="53.7148" width="0.787879" height="0.787879" fill="#7E1B70"/>
<rect x="17.084" y="54.5015" width="0.787879" height="0.787879" fill="#7E1B70"/>
<rect x="17.8711" y="55.2888" width="0.787879" height="0.787879" fill="#7E1B70"/>
<rect x="19.4453" y="56.0757" width="0.787879" height="0.787879" fill="#7E1B70"/>
<rect x="20.2314" y="56.863" width="0.787879" height="0.787879" fill="#7E1B70"/>
<rect x="21.0186" y="57.6499" width="0.787879" height="0.787879" fill="#7E1B70"/>
<rect x="22.5928" y="58.4373" width="0.787879" height="0.787879" fill="#7E1B70"/>
<rect x="24.167" y="59.2239" width="0.787879" height="0.787879" fill="#7E1B70"/>
<rect x="25.7412" y="60.0112" width="0.787879" height="0.787879" fill="#7E1B70"/>
<rect x="28.1025" y="60.7981" width="0.787879" height="0.787879" fill="#7E1B70"/>
<rect x="31.251" y="61.5854" width="0.787879" height="0.787879" fill="#7E1B70"/>
<rect x="18.6582" y="55.2888" width="0.787879" height="0.787879" fill="#7E1B70"/>
<rect x="21.8057" y="57.6499" width="0.787879" height="0.787879" fill="#7E1B70"/>
<rect x="23.3799" y="59.2239" width="0.787879" height="0.787879" fill="#7E1B70"/>
<rect x="24.9541" y="60.0112" width="0.787879" height="0.787879" fill="#7E1B70"/>
<rect x="26.5283" y="60.0112" width="0.787879" height="0.787879" fill="#7E1B70"/>
<rect x="27.3154" y="60.7981" width="0.787879" height="0.787879" fill="#7E1B70"/>
<rect x="28.8896" y="60.7981" width="0.787879" height="0.787879" fill="#7E1B70"/>
<rect x="29.6768" y="61.5854" width="0.787879" height="0.787879" fill="#7E1B70"/>
<rect x="30.4639" y="61.5854" width="0.787879" height="0.787879" fill="#7E1B70"/>
<rect x="32.0381" y="61.5854" width="0.787879" height="0.787879" fill="#7E1B70"/>
<rect x="32.8252" y="61.5854" width="0.787879" height="0.787879" fill="#7E1B70"/>
<rect x="33.6123" y="61.5854" width="0.787879" height="0.787879" fill="#7E1B70"/>
<rect x="34.3994" y="61.5854" width="0.787879" height="0.787879" fill="#7E1B70"/>
<rect x="32.8252" y="12" width="0.787879" height="0.787879" fill="#7E1B70"/>
<rect x="28.1025" y="12.7869" width="0.787879" height="0.787879" fill="#7E1B70"/>
<rect x="25.7412" y="13.5742" width="0.787879" height="0.787879" fill="#7E1B70"/>
<rect x="24.167" y="14.3608" width="0.787879" height="0.787879" fill="#7E1B70"/>
<rect x="22.5928" y="15.1482" width="0.787879" height="0.787879" fill="#7E1B70"/>
<rect x="21.8057" y="15.9351" width="0.787879" height="0.787879" fill="#7E1B70"/>
<rect x="20.2314" y="16.7224" width="0.787879" height="0.787879" fill="#7E1B70"/>
<rect x="19.4453" y="17.5098" width="0.787879" height="0.787879" fill="#7E1B70"/>
<rect x="18.6582" y="18.2966" width="0.787879" height="0.787879" fill="#7E1B70"/>
<rect x="17.8711" y="19.084" width="0.787879" height="0.787879" fill="#7E1B70"/>
<rect x="17.084" y="19.8706" width="0.787879" height="0.787879" fill="#7E1B70"/>
<rect x="16.2969" y="20.6575" width="0.787879" height="0.787879" fill="#7E1B70"/>
<rect x="15.5098" y="21.4448" width="0.787879" height="0.787879" fill="#7E1B70"/>
<rect x="14.7227" y="22.2322" width="0.787879" height="0.787879" fill="#7E1B70"/>
<rect x="13.9355" y="23.019" width="0.787879" height="0.787879" fill="#7E1B70"/>
<rect x="13.9355" y="23.8064" width="0.787879" height="0.787879" fill="#7E1B70"/>
<rect x="13.1484" y="24.593" width="0.787879" height="0.787879" fill="#7E1B70"/>
<rect x="13.1484" y="25.3804" width="0.787879" height="0.787879" fill="#7E1B70"/>
<rect x="12.3613" y="26.1672" width="0.787879" height="0.787879" fill="#7E1B70"/>
<rect x="12.3613" y="26.9546" width="0.787879" height="0.787879" fill="#7E1B70"/>
<rect x="11.5742" y="27.7412" width="0.787879" height="0.787879" fill="#7E1B70"/>
<rect x="11.5742" y="28.5286" width="0.787879" height="0.787879" fill="#7E1B70"/>
<rect x="11.5742" y="29.3154" width="0.787879" height="0.787879" fill="#7E1B70"/>
<rect x="10.7871" y="30.1028" width="0.787879" height="0.787879" fill="#7E1B70"/>
<rect x="10.7871" y="30.8896" width="0.787879" height="0.787879" fill="#7E1B70"/>
<rect x="10.7871" y="31.677" width="0.787879" height="0.787879" fill="#7E1B70"/>
<rect x="10.7871" y="32.4636" width="0.787879" height="0.787879" fill="#7E1B70"/>
<rect x="10" y="33.251" width="0.787879" height="0.787879" fill="#7E1B70"/>
<rect x="10" y="34.0378" width="0.787879" height="0.787879" fill="#7E1B70"/>
<rect x="10" y="34.8252" width="0.787879" height="0.787879" fill="#7E1B70"/>
<rect x="10" y="35.6121" width="0.787879" height="0.787879" fill="#7E1B70"/>
<rect x="10" y="36.3994" width="0.787879" height="0.787879" fill="#7E1B70"/>
<rect x="21.0186" y="15.9351" width="0.787879" height="0.787879" fill="#7E1B70"/>
<rect x="23.3799" y="15.1482" width="0.787879" height="0.787879" fill="#7E1B70"/>
<rect x="24.9541" y="14.3608" width="0.787879" height="0.787879" fill="#7E1B70"/>
<rect x="26.5283" y="13.5742" width="0.787879" height="0.787879" fill="#7E1B70"/>
<rect x="27.3154" y="12.7869" width="0.787879" height="0.787879" fill="#7E1B70"/>
<rect x="28.8896" y="12.7869" width="0.787879" height="0.787879" fill="#7E1B70"/>
<rect x="29.6768" y="12.7869" width="0.787879" height="0.787879" fill="#7E1B70"/>
<rect x="30.4639" y="12" width="0.787879" height="0.787879" fill="#7E1B70"/>
<rect x="31.251" y="12" width="0.787879" height="0.787879" fill="#7E1B70"/>
<rect x="32.0381" y="12" width="0.787879" height="0.787879" fill="#7E1B70"/>
<rect x="33.6123" y="12" width="0.787879" height="0.787879" fill="#7E1B70"/>
<rect x="34.3994" y="12" width="0.787879" height="0.787879" fill="#7E1B70"/>
<rect x="35.1865" y="12" width="0.787879" height="0.787879" fill="#7E1B70"/>
<rect x="37.5469" y="12" width="0.787879" height="0.787879" fill="#7E1B70"/>
<rect x="41.4824" y="12.7869" width="0.787879" height="0.787879" fill="#7E1B70"/>
<rect x="43.8438" y="13.5742" width="0.787879" height="0.787879" fill="#7E1B70"/>
<rect x="46.2051" y="14.3608" width="0.787879" height="0.787879" fill="#7E1B70"/>
<rect x="47.7793" y="15.1482" width="0.787879" height="0.787879" fill="#7E1B70"/>
<rect x="48.5664" y="15.9351" width="0.787879" height="0.787879" fill="#7E1B70"/>
<rect x="50.1406" y="16.7224" width="0.787879" height="0.787879" fill="#7E1B70"/>
<rect x="50.9277" y="17.5098" width="0.787879" height="0.787879" fill="#7E1B70"/>
<rect x="51.7148" y="18.2966" width="0.787879" height="0.787879" fill="#7E1B70"/>
<rect x="52.502" y="19.084" width="0.787879" height="0.787879" fill="#7E1B70"/>
<rect x="53.2891" y="19.8706" width="0.787879" height="0.787879" fill="#7E1B70"/>
<rect x="54.0762" y="20.6575" width="0.787879" height="0.787879" fill="#7E1B70"/>
<rect x="54.8633" y="21.4448" width="0.787879" height="0.787879" fill="#7E1B70"/>
<rect x="55.6504" y="22.2322" width="0.787879" height="0.787879" fill="#7E1B70"/>
<rect x="55.6504" y="23.019" width="0.787879" height="0.787879" fill="#7E1B70"/>
<rect x="56.4375" y="23.8064" width="0.787879" height="0.787879" fill="#7E1B70"/>
<rect x="57.2236" y="24.593" width="0.787879" height="0.787879" fill="#7E1B70"/>
<rect x="57.2236" y="25.3804" width="0.787879" height="0.787879" fill="#7E1B70"/>
<rect x="58.0107" y="26.1672" width="0.787879" height="0.787879" fill="#7E1B70"/>
<rect x="58.0107" y="26.9546" width="0.787879" height="0.787879" fill="#7E1B70"/>
<rect x="58.0107" y="27.7412" width="0.787879" height="0.787879" fill="#7E1B70"/>
<rect x="58.7979" y="28.5286" width="0.787879" height="0.787879" fill="#7E1B70"/>
<rect x="58.7979" y="29.3154" width="0.787879" height="0.787879" fill="#7E1B70"/>
<rect x="58.7979" y="30.1028" width="0.787879" height="0.787879" fill="#7E1B70"/>
<rect x="59.585" y="30.8896" width="0.787879" height="0.787879" fill="#7E1B70"/>
<rect x="59.585" y="31.677" width="0.787879" height="0.787879" fill="#7E1B70"/>
<rect x="59.585" y="32.4636" width="0.787879" height="0.787879" fill="#7E1B70"/>
<rect x="59.585" y="33.251" width="0.787879" height="0.787879" fill="#7E1B70"/>
<rect x="59.585" y="34.0378" width="0.787879" height="0.787879" fill="#7E1B70"/>
<rect x="60.3721" y="34.8252" width="0.787879" height="0.787879" fill="#7E1B70"/>
<rect x="60.3721" y="35.6121" width="0.787879" height="0.787879" fill="#7E1B70"/>
<rect x="60.3721" y="36.3994" width="0.787879" height="0.787879" fill="#7E1B70"/>
<rect x="35.9736" y="12" width="0.787879" height="0.787879" fill="#7E1B70"/>
<rect x="36.7607" y="12" width="0.787879" height="0.787879" fill="#7E1B70"/>
<rect x="38.335" y="12" width="0.787879" height="0.787879" fill="#7E1B70"/>
<rect x="39.1221" y="12" width="0.787879" height="0.787879" fill="#7E1B70"/>
<rect x="39.9082" y="12" width="0.787879" height="0.787879" fill="#7E1B70"/>
<rect x="40.6953" y="12.7869" width="0.787879" height="0.787879" fill="#7E1B70"/>
<rect x="42.2695" y="12.7869" width="0.787879" height="0.787879" fill="#7E1B70"/>
<rect x="43.0566" y="12.7869" width="0.787879" height="0.787879" fill="#7E1B70"/>
<rect x="44.6309" y="13.5742" width="0.787879" height="0.787879" fill="#7E1B70"/>
<rect x="45.418" y="14.3608" width="0.787879" height="0.787879" fill="#7E1B70"/>
<rect x="46.9922" y="15.1482" width="0.787879" height="0.787879" fill="#7E1B70"/>
<rect x="49.3535" y="15.9351" width="0.787879" height="0.787879" fill="#7E1B70"/>
<rect x="61.1592" y="37.186" width="0.787879" height="0.787879" fill="#7E1B70"/>
<rect x="61.1592" y="37.9734" width="0.787879" height="0.787879" fill="#7E1B70"/>
<rect x="61.1592" y="38.7603" width="0.787879" height="0.787879" fill="#7E1B70"/>
<rect x="61.1592" y="39.5476" width="0.787879" height="0.787879" fill="#7E1B70"/>
<rect x="60.3721" y="39.5476" width="0.787879" height="0.787879" fill="#7E1B70"/>
<rect x="60.3721" y="40.3345" width="0.787879" height="0.787879" fill="#7E1B70"/>
<rect x="60.3721" y="41.1218" width="0.787879" height="0.787879" fill="#7E1B70"/>
<rect x="60.3721" y="41.9084" width="0.787879" height="0.787879" fill="#7E1B70"/>
<rect x="60.3721" y="42.6958" width="0.787879" height="0.787879" fill="#7E1B70"/>
<rect x="60.3721" y="43.4827" width="0.787879" height="0.787879" fill="#7E1B70"/>
<rect x="60.3721" y="44.27" width="0.787879" height="0.787879" fill="#7E1B70"/>
<rect x="59.585" y="44.27" width="0.787879" height="0.787879" fill="#7E1B70"/>
<rect x="59.585" y="45.0569" width="0.787879" height="0.787879" fill="#7E1B70"/>
<rect x="59.585" y="45.8442" width="0.787879" height="0.787879" fill="#7E1B70"/>
<rect x="59.585" y="46.6309" width="0.787879" height="0.787879" fill="#7E1B70"/>
<rect x="58.7979" y="46.6309" width="0.787879" height="0.787879" fill="#7E1B70"/>
<rect x="58.7979" y="47.4182" width="0.787879" height="0.787879" fill="#7E1B70"/>
<rect x="58.7979" y="48.2051" width="0.787879" height="0.787879" fill="#7E1B70"/>
<rect x="58.0107" y="48.2051" width="0.787879" height="0.787879" fill="#7E1B70"/>
<rect x="58.0107" y="48.9924" width="0.787879" height="0.787879" fill="#7E1B70"/>
<rect x="58.0107" y="49.7791" width="0.787879" height="0.787879" fill="#7E1B70"/>
<rect x="57.2236" y="49.7791" width="0.787879" height="0.787879" fill="#7E1B70"/>
<rect x="57.2236" y="50.5667" width="0.787879" height="0.787879" fill="#7E1B70"/>
<rect x="56.4375" y="50.5667" width="0.787879" height="0.787879" fill="#7E1B70"/>
<rect x="56.4375" y="51.3533" width="0.787879" height="0.787879" fill="#7E1B70"/>
<rect x="56.4375" y="52.1406" width="0.787879" height="0.787879" fill="#7E1B70"/>
<rect x="55.6504" y="52.1406" width="0.787879" height="0.787879" fill="#7E1B70"/>
<rect x="55.6504" y="52.9275" width="0.787879" height="0.787879" fill="#7E1B70"/>
<rect x="54.8633" y="52.9275" width="0.787879" height="0.787879" fill="#7E1B70"/>
<rect x="54.8633" y="53.7148" width="0.787879" height="0.787879" fill="#7E1B70"/>
<rect x="54.0762" y="53.7148" width="0.787879" height="0.787879" fill="#7E1B70"/>
<rect x="54.0762" y="54.5015" width="0.787879" height="0.787879" fill="#7E1B70"/>
<rect x="53.2891" y="54.5015" width="0.787879" height="0.787879" fill="#7E1B70"/>
<rect x="53.2891" y="55.2888" width="0.787879" height="0.787879" fill="#7E1B70"/>
<rect x="52.502" y="55.2888" width="0.787879" height="0.787879" fill="#7E1B70"/>
<rect x="52.502" y="56.0757" width="0.787879" height="0.787879" fill="#7E1B70"/>
<rect x="51.7148" y="56.0757" width="0.787879" height="0.787879" fill="#7E1B70"/>
<rect x="51.7148" y="56.863" width="0.787879" height="0.787879" fill="#7E1B70"/>
<rect x="50.9277" y="56.863" width="0.787879" height="0.787879" fill="#7E1B70"/>
<rect x="50.9277" y="57.6499" width="0.787879" height="0.787879" fill="#7E1B70"/>
<rect x="50.1406" y="57.6499" width="0.787879" height="0.787879" fill="#7E1B70"/>
<rect x="50.1406" y="58.4373" width="0.787879" height="0.787879" fill="#7E1B70"/>
<rect x="49.3535" y="58.4373" width="0.787879" height="0.787879" fill="#7E1B70"/>
<rect x="47.7793" y="57.6499" width="0.787879" height="0.787879" fill="#7E1B70"/>
<rect x="48.5664" y="58.4373" width="0.787879" height="0.787879" fill="#7E1B70"/>
<rect x="48.5664" y="59.2239" width="0.787879" height="0.787879" fill="#7E1B70"/>
<rect x="47.7793" y="59.2239" width="0.787879" height="0.787879" fill="#7E1B70"/>
<rect x="46.9922" y="60.0112" width="0.787879" height="0.787879" fill="#7E1B70"/>
<rect x="46.2051" y="60.0112" width="0.787879" height="0.787879" fill="#7E1B70"/>
<rect x="45.418" y="60.7981" width="0.787879" height="0.787879" fill="#7E1B70"/>
<rect x="44.6309" y="60.7981" width="0.787879" height="0.787879" fill="#7E1B70"/>
<rect x="43.0566" y="61.5854" width="0.787879" height="0.787879" fill="#7E1B70"/>
<rect x="42.2695" y="61.5854" width="0.787879" height="0.787879" fill="#7E1B70"/>
<rect x="39.9082" y="62.3723" width="0.787879" height="0.787879" fill="#7E1B70"/>
<rect x="39.1221" y="62.3723" width="0.787879" height="0.787879" fill="#7E1B70"/>
<rect x="35.9736" y="62.3723" width="0.787879" height="0.787879" fill="#7E1B70"/>
<rect x="35.1865" y="62.3723" width="0.787879" height="0.787879" fill="#7E1B70"/>
<rect x="36.7607" y="62.3723" width="0.787879" height="0.787879" fill="#7E1B70"/>
<rect x="37.5469" y="62.3723" width="0.787879" height="0.787879" fill="#7E1B70"/>
<rect x="38.335" y="62.3723" width="0.787879" height="0.787879" fill="#7E1B70"/>
<rect x="40.6953" y="62.3723" width="0.787879" height="0.787879" fill="#7E1B70"/>
<rect x="41.4824" y="61.5854" width="0.787879" height="0.787879" fill="#7E1B70"/>
<rect x="41.4824" y="62.3723" width="0.787879" height="0.787879" fill="#7E1B70"/>
<rect x="43.8438" y="60.7981" width="0.787879" height="0.787879" fill="#7E1B70"/>
<rect x="43.8438" y="61.5854" width="0.787879" height="0.787879" fill="#7E1B70"/>
<rect x="46.2051" y="60.7981" width="0.787879" height="0.787879" fill="#7E1B70"/>
<rect x="47.7793" y="60.0112" width="0.787879" height="0.787879" fill="#7E1B70"/>
<rect x="10.7871" y="37.186" width="0.787879" height="0.787879" fill="#7E1B70"/>
<rect x="10.7871" y="37.9734" width="0.787879" height="0.787879" fill="#7E1B70"/>
<rect x="10.7871" y="38.7603" width="0.787879" height="0.787879" fill="#7E1B70"/>
<rect x="10.7871" y="39.5476" width="0.787879" height="0.787879" fill="#7E1B70"/>
<rect x="10.7871" y="40.3345" width="0.787879" height="0.787879" fill="#7E1B70"/>
<rect x="10" y="41.1218" width="0.787879" height="0.787879" fill="#7E1B70"/>
<rect x="11.5742" y="41.1218" width="0.787879" height="0.787879" fill="#7E1B70"/>
<rect x="11.5742" y="41.9084" width="0.787879" height="0.787879" fill="#7E1B70"/>
<rect x="11.5742" y="42.6958" width="0.787879" height="0.787879" fill="#7E1B70"/>
<rect x="11.5742" y="43.4827" width="0.787879" height="0.787879" fill="#7E1B70"/>
<rect x="10.7871" y="44.27" width="0.787879" height="0.787879" fill="#7E1B70"/>
<rect x="12.3613" y="44.27" width="0.787879" height="0.787879" fill="#7E1B70"/>
<rect x="12.3613" y="45.0569" width="0.787879" height="0.787879" fill="#7E1B70"/>
<rect x="12.3613" y="45.8442" width="0.787879" height="0.787879" fill="#7E1B70"/>
<rect x="11.5742" y="46.6309" width="0.787879" height="0.787879" fill="#7E1B70"/>
<rect x="13.1484" y="46.6309" width="0.787879" height="0.787879" fill="#7E1B70"/>
<rect x="13.1484" y="47.4182" width="0.787879" height="0.787879" fill="#7E1B70"/>
<rect x="12.3613" y="48.2051" width="0.787879" height="0.787879" fill="#7E1B70"/>
<rect x="13.9355" y="48.2051" width="0.787879" height="0.787879" fill="#7E1B70"/>
<rect x="13.9355" y="48.9924" width="0.787879" height="0.787879" fill="#7E1B70"/>
<rect x="13.1484" y="49.7791" width="0.787879" height="0.787879" fill="#7E1B70"/>
<rect x="14.7227" y="49.7791" width="0.787879" height="0.787879" fill="#7E1B70"/>
<rect x="14.7227" y="50.5667" width="0.787879" height="0.787879" fill="#7E1B70"/>
<rect x="13.9355" y="51.3533" width="0.787879" height="0.787879" fill="#7E1B70"/>
<rect x="15.5098" y="51.3533" width="0.787879" height="0.787879" fill="#7E1B70"/>
<rect x="14.7227" y="52.1406" width="0.787879" height="0.787879" fill="#7E1B70"/>
<rect x="16.2969" y="52.1406" width="0.787879" height="0.787879" fill="#7E1B70"/>
<rect x="15.5098" y="52.9275" width="0.787879" height="0.787879" fill="#7E1B70"/>
<rect x="17.084" y="52.9275" width="0.787879" height="0.787879" fill="#7E1B70"/>
<rect x="17.084" y="53.7148" width="0.787879" height="0.787879" fill="#7E1B70"/>
<rect x="16.2969" y="54.5015" width="0.787879" height="0.787879" fill="#7E1B70"/>
<rect x="17.8711" y="54.5015" width="0.787879" height="0.787879" fill="#7E1B70"/>
<rect x="17.084" y="55.2888" width="0.787879" height="0.787879" fill="#7E1B70"/>
<rect x="18.6582" y="56.0757" width="0.787879" height="0.787879" fill="#7E1B70"/>
<rect x="17.8711" y="56.0757" width="0.787879" height="0.787879" fill="#7E1B70"/>
<rect x="20.2314" y="56.0757" width="0.787879" height="0.787879" fill="#7E1B70"/>
<rect x="19.4453" y="56.863" width="0.787879" height="0.787879" fill="#7E1B70"/>
<rect x="21.0186" y="56.863" width="0.787879" height="0.787879" fill="#7E1B70"/>
<rect x="20.2314" y="57.6499" width="0.787879" height="0.787879" fill="#7E1B70"/>
<rect x="21.8057" y="58.4373" width="0.787879" height="0.787879" fill="#7E1B70"/>
<rect x="21.0186" y="58.4373" width="0.787879" height="0.787879" fill="#7E1B70"/>
<rect x="22.5928" y="57.6499" width="0.787879" height="0.787879" fill="#7E1B70"/>
<rect x="23.3799" y="58.4373" width="0.787879" height="0.787879" fill="#7E1B70"/>
<rect x="22.5928" y="59.2239" width="0.787879" height="0.787879" fill="#7E1B70"/>
<rect x="24.9541" y="59.2239" width="0.787879" height="0.787879" fill="#7E1B70"/>
<rect x="24.167" y="60.0112" width="0.787879" height="0.787879" fill="#7E1B70"/>
<rect x="26.5283" y="60.7981" width="0.787879" height="0.787879" fill="#7E1B70"/>
<rect x="25.7412" y="60.7981" width="0.787879" height="0.787879" fill="#7E1B70"/>
<rect x="28.8896" y="61.5854" width="0.787879" height="0.787879" fill="#7E1B70"/>
<rect x="28.1025" y="61.5854" width="0.787879" height="0.787879" fill="#7E1B70"/>
<rect x="32.0381" y="62.3723" width="0.787879" height="0.787879" fill="#7E1B70"/>
<rect x="31.251" y="62.3723" width="0.787879" height="0.787879" fill="#7E1B70"/>
<rect x="19.4453" y="55.2888" width="0.787879" height="0.787879" fill="#7E1B70"/>
<rect x="23.3799" y="60.0112" width="0.787879" height="0.787879" fill="#7E1B70"/>
<rect x="24.9541" y="60.7981" width="0.787879" height="0.787879" fill="#7E1B70"/>
<rect x="27.3154" y="60.0112" width="0.787879" height="0.787879" fill="#7E1B70"/>
<rect x="27.3154" y="61.5854" width="0.787879" height="0.787879" fill="#7E1B70"/>
<rect x="29.6768" y="60.7981" width="0.787879" height="0.787879" fill="#7E1B70"/>
<rect x="30.4639" y="62.3723" width="0.787879" height="0.787879" fill="#7E1B70"/>
<rect x="29.6768" y="62.3723" width="0.787879" height="0.787879" fill="#7E1B70"/>
<rect x="32.8252" y="62.3723" width="0.787879" height="0.787879" fill="#7E1B70"/>
<rect x="33.6123" y="62.3723" width="0.787879" height="0.787879" fill="#7E1B70"/>
<rect x="34.3994" y="62.3723" width="0.787879" height="0.787879" fill="#7E1B70"/>
<rect x="33.6123" y="12.7869" width="0.787879" height="0.787879" fill="#7E1B70"/>
<rect x="32.8252" y="12.7869" width="0.787879" height="0.787879" fill="#7E1B70"/>
<rect x="28.8896" y="13.5742" width="0.787879" height="0.787879" fill="#7E1B70"/>
<rect x="28.1025" y="13.5742" width="0.787879" height="0.787879" fill="#7E1B70"/>
<rect x="26.5283" y="14.3608" width="0.787879" height="0.787879" fill="#7E1B70"/>
<rect x="25.7412" y="14.3608" width="0.787879" height="0.787879" fill="#7E1B70"/>
<rect x="24.9541" y="15.1482" width="0.787879" height="0.787879" fill="#7E1B70"/>
<rect x="24.167" y="15.1482" width="0.787879" height="0.787879" fill="#7E1B70"/>
<rect x="23.3799" y="15.9351" width="0.787879" height="0.787879" fill="#7E1B70"/>
<rect x="22.5928" y="15.9351" width="0.787879" height="0.787879" fill="#7E1B70"/>
<rect x="22.5928" y="16.7224" width="0.787879" height="0.787879" fill="#7E1B70"/>
<rect x="21.8057" y="16.7224" width="0.787879" height="0.787879" fill="#7E1B70"/>
<rect x="21.0186" y="16.7224" width="0.787879" height="0.787879" fill="#7E1B70"/>
<rect x="21.0186" y="17.5098" width="0.787879" height="0.787879" fill="#7E1B70"/>
<rect x="20.2314" y="17.5098" width="0.787879" height="0.787879" fill="#7E1B70"/>
<rect x="20.2314" y="18.2966" width="0.787879" height="0.787879" fill="#7E1B70"/>
<rect x="19.4453" y="18.2966" width="0.787879" height="0.787879" fill="#7E1B70"/>
<rect x="18.6582" y="17.5098" width="0.787879" height="0.787879" fill="#7E1B70"/>
<rect x="19.4453" y="19.084" width="0.787879" height="0.787879" fill="#7E1B70"/>
<rect x="18.6582" y="19.084" width="0.787879" height="0.787879" fill="#7E1B70"/>
<rect x="18.6582" y="19.8706" width="0.787879" height="0.787879" fill="#7E1B70"/>
<rect x="17.8711" y="19.8706" width="0.787879" height="0.787879" fill="#7E1B70"/>
<rect x="17.8711" y="20.6575" width="0.787879" height="0.787879" fill="#7E1B70"/>
<rect x="17.084" y="20.6575" width="0.787879" height="0.787879" fill="#7E1B70"/>
<rect x="17.084" y="21.4448" width="0.787879" height="0.787879" fill="#7E1B70"/>
<rect x="16.2969" y="21.4448" width="0.787879" height="0.787879" fill="#7E1B70"/>
<rect x="16.2969" y="22.2322" width="0.787879" height="0.787879" fill="#7E1B70"/>
<rect x="15.5098" y="22.2322" width="0.787879" height="0.787879" fill="#7E1B70"/>
<rect x="15.5098" y="23.019" width="0.787879" height="0.787879" fill="#7E1B70"/>
<rect x="14.7227" y="23.019" width="0.787879" height="0.787879" fill="#7E1B70"/>
<rect x="14.7227" y="23.8064" width="0.787879" height="0.787879" fill="#7E1B70"/>
<rect x="14.7227" y="24.593" width="0.787879" height="0.787879" fill="#7E1B70"/>
<rect x="13.9355" y="24.593" width="0.787879" height="0.787879" fill="#7E1B70"/>
<rect x="13.1484" y="23.8064" width="0.787879" height="0.787879" fill="#7E1B70"/>
<rect x="13.9355" y="25.3804" width="0.787879" height="0.787879" fill="#7E1B70"/>
<rect x="13.9355" y="26.1672" width="0.787879" height="0.787879" fill="#7E1B70"/>
<rect x="13.1484" y="26.1672" width="0.787879" height="0.787879" fill="#7E1B70"/>
<rect x="13.1484" y="26.9546" width="0.787879" height="0.787879" fill="#7E1B70"/>
<rect x="13.1484" y="27.7412" width="0.787879" height="0.787879" fill="#7E1B70"/>
<rect x="12.3613" y="27.7412" width="0.787879" height="0.787879" fill="#7E1B70"/>
<rect x="12.3613" y="28.5286" width="0.787879" height="0.787879" fill="#7E1B70"/>
<rect x="12.3613" y="29.3154" width="0.787879" height="0.787879" fill="#7E1B70"/>
<rect x="12.3613" y="30.1028" width="0.787879" height="0.787879" fill="#7E1B70"/>
<rect x="11.5742" y="30.1028" width="0.787879" height="0.787879" fill="#7E1B70"/>
<rect x="11.5742" y="30.8896" width="0.787879" height="0.787879" fill="#7E1B70"/>
<rect x="11.5742" y="31.677" width="0.787879" height="0.787879" fill="#7E1B70"/>
<rect x="11.5742" y="32.4636" width="0.787879" height="0.787879" fill="#7E1B70"/>
<rect x="11.5742" y="33.251" width="0.787879" height="0.787879" fill="#7E1B70"/>
<rect x="10.7871" y="33.251" width="0.787879" height="0.787879" fill="#7E1B70"/>
<rect x="10.7871" y="34.0378" width="0.787879" height="0.787879" fill="#7E1B70"/>
<rect x="10.7871" y="34.8252" width="0.787879" height="0.787879" fill="#7E1B70"/>
<rect x="10.7871" y="35.6121" width="0.787879" height="0.787879" fill="#7E1B70"/>
<rect x="10.7871" y="36.3994" width="0.787879" height="0.787879" fill="#7E1B70"/>
<rect x="24.167" y="15.9351" width="0.787879" height="0.787879" fill="#7E1B70"/>
<rect x="25.7412" y="15.1482" width="0.787879" height="0.787879" fill="#7E1B70"/>
<rect x="27.3154" y="13.5742" width="0.787879" height="0.787879" fill="#7E1B70"/>
<rect x="27.3154" y="14.3608" width="0.787879" height="0.787879" fill="#7E1B70"/>
<rect x="29.6768" y="13.5742" width="0.787879" height="0.787879" fill="#7E1B70"/>
<rect x="30.4639" y="12.7869" width="0.787879" height="0.787879" fill="#7E1B70"/>
<rect x="30.4639" y="13.5742" width="0.787879" height="0.787879" fill="#7E1B70"/>
<rect x="31.251" y="12.7869" width="0.787879" height="0.787879" fill="#7E1B70"/>
<rect x="32.0381" y="12.7869" width="0.787879" height="0.787879" fill="#7E1B70"/>
<rect x="34.3994" y="12.7869" width="0.787879" height="0.787879" fill="#7E1B70"/>
<rect x="35.1865" y="12.7869" width="0.787879" height="0.787879" fill="#7E1B70"/>
<rect x="35.9736" y="12.7869" width="0.787879" height="0.787879" fill="#7E1B70"/>
<rect x="38.335" y="12.7869" width="0.787879" height="0.787879" fill="#7E1B70"/>
<rect x="37.5469" y="12.7869" width="0.787879" height="0.787879" fill="#7E1B70"/>
<rect x="42.2695" y="13.5742" width="0.787879" height="0.787879" fill="#7E1B70"/>
<rect x="41.4824" y="13.5742" width="0.787879" height="0.787879" fill="#7E1B70"/>
<rect x="44.6309" y="14.3608" width="0.787879" height="0.787879" fill="#7E1B70"/>
<rect x="43.8438" y="14.3608" width="0.787879" height="0.787879" fill="#7E1B70"/>
<rect x="46.9922" y="14.3608" width="0.787879" height="0.787879" fill="#7E1B70"/>
<rect x="46.2051" y="15.1482" width="0.787879" height="0.787879" fill="#7E1B70"/>
<rect x="48.5664" y="15.1482" width="0.787879" height="0.787879" fill="#7E1B70"/>
<rect x="47.7793" y="15.9351" width="0.787879" height="0.787879" fill="#7E1B70"/>
<rect x="49.3535" y="16.7224" width="0.787879" height="0.787879" fill="#7E1B70"/>
<rect x="48.5664" y="16.7224" width="0.787879" height="0.787879" fill="#7E1B70"/>
<rect x="50.9277" y="16.7224" width="0.787879" height="0.787879" fill="#7E1B70"/>
<rect x="50.1406" y="17.5098" width="0.787879" height="0.787879" fill="#7E1B70"/>
<rect x="51.7148" y="17.5098" width="0.787879" height="0.787879" fill="#7E1B70"/>
<rect x="50.9277" y="18.2966" width="0.787879" height="0.787879" fill="#7E1B70"/>
<rect x="52.502" y="18.2966" width="0.787879" height="0.787879" fill="#7E1B70"/>
<rect x="51.7148" y="19.084" width="0.787879" height="0.787879" fill="#7E1B70"/>
<rect x="53.2891" y="19.084" width="0.787879" height="0.787879" fill="#7E1B70"/>
<rect x="52.502" y="19.8706" width="0.787879" height="0.787879" fill="#7E1B70"/>
<rect x="54.0762" y="19.8706" width="0.787879" height="0.787879" fill="#7E1B70"/>
<rect x="53.2891" y="20.6575" width="0.787879" height="0.787879" fill="#7E1B70"/>
<rect x="54.8633" y="20.6575" width="0.787879" height="0.787879" fill="#7E1B70"/>
<rect x="54.0762" y="21.4448" width="0.787879" height="0.787879" fill="#7E1B70"/>
<rect x="55.6504" y="21.4448" width="0.787879" height="0.787879" fill="#7E1B70"/>
<rect x="54.8633" y="22.2322" width="0.787879" height="0.787879" fill="#7E1B70"/>
<rect x="56.4375" y="22.2322" width="0.787879" height="0.787879" fill="#7E1B70"/>
<rect x="56.4375" y="23.019" width="0.787879" height="0.787879" fill="#7E1B70"/>
<rect x="55.6504" y="23.8064" width="0.787879" height="0.787879" fill="#7E1B70"/>
<rect x="57.2236" y="23.8064" width="0.787879" height="0.787879" fill="#7E1B70"/>
<rect x="56.4375" y="24.593" width="0.787879" height="0.787879" fill="#7E1B70"/>
<rect x="58.0107" y="24.593" width="0.787879" height="0.787879" fill="#7E1B70"/>
<rect x="58.0107" y="25.3804" width="0.787879" height="0.787879" fill="#7E1B70"/>
<rect x="57.2236" y="26.1672" width="0.787879" height="0.787879" fill="#7E1B70"/>
<rect x="58.7979" y="26.1672" width="0.787879" height="0.787879" fill="#7E1B70"/>
<rect x="58.7979" y="26.9546" width="0.787879" height="0.787879" fill="#7E1B70"/>
<rect x="58.7979" y="27.7412" width="0.787879" height="0.787879" fill="#7E1B70"/>
<rect x="58.0107" y="28.5286" width="0.787879" height="0.787879" fill="#7E1B70"/>
<rect x="59.585" y="28.5286" width="0.787879" height="0.787879" fill="#7E1B70"/>
<rect x="59.585" y="29.3154" width="0.787879" height="0.787879" fill="#7E1B70"/>
<rect x="59.585" y="30.1028" width="0.787879" height="0.787879" fill="#7E1B70"/>
<rect x="58.7979" y="30.8896" width="0.787879" height="0.787879" fill="#7E1B70"/>
<rect x="60.3721" y="30.8896" width="0.787879" height="0.787879" fill="#7E1B70"/>
<rect x="60.3721" y="31.677" width="0.787879" height="0.787879" fill="#7E1B70"/>
<rect x="60.3721" y="32.4636" width="0.787879" height="0.787879" fill="#7E1B70"/>
<rect x="60.3721" y="33.251" width="0.787879" height="0.787879" fill="#7E1B70"/>
<rect x="60.3721" y="34.0378" width="0.787879" height="0.787879" fill="#7E1B70"/>
<rect x="59.585" y="34.8252" width="0.787879" height="0.787879" fill="#7E1B70"/>
<rect x="61.1592" y="34.8252" width="0.787879" height="0.787879" fill="#7E1B70"/>
<rect x="61.1592" y="35.6121" width="0.787879" height="0.787879" fill="#7E1B70"/>
<rect x="61.1592" y="36.3994" width="0.787879" height="0.787879" fill="#7E1B70"/>
<rect x="36.7607" y="12.7869" width="0.787879" height="0.787879" fill="#7E1B70"/>
<rect x="39.1221" y="12.7869" width="0.787879" height="0.787879" fill="#7E1B70"/>
<rect x="39.9082" y="12.7869" width="0.787879" height="0.787879" fill="#7E1B70"/>
<rect x="40.6953" y="12" width="0.787879" height="0.787879" fill="#7E1B70"/>
<rect x="40.6953" y="13.5742" width="0.787879" height="0.787879" fill="#7E1B70"/>
<rect x="43.0566" y="13.5742" width="0.787879" height="0.787879" fill="#7E1B70"/>
<rect x="43.8438" y="12.7869" width="0.787879" height="0.787879" fill="#7E1B70"/>
<rect x="45.418" y="13.5742" width="0.787879" height="0.787879" fill="#7E1B70"/>
<rect x="45.418" y="15.1482" width="0.787879" height="0.787879" fill="#7E1B70"/>
<rect x="46.9922" y="15.9351" width="0.787879" height="0.787879" fill="#7E1B70"/>
<rect x="50.1406" y="15.9351" width="0.787879" height="0.787879" fill="#7E1B70"/>
<path d="M31.777 53.5558H22.0419C22.0419 53.5143 22.0419 53.4728 22.0419 53.4313V38.5443C22.0419 38.4645 22.0419 38.3846 22.0227 38.2696H20.001V36.1712H22.0547V34.0728H24.1435V32.0223H26.2036V34.0728H28.2669V32.0319H26.194V29.9207H28.2924V27.8191H30.4068V29.8951H32.435V27.8287H30.4068V25.7494H32.4829V23.6574H34.5685V21.6165H37.3568V23.6733H39.4457V25.7366H41.5249V21.6165H47.7786V34.0952H49.8675V36.2H51.9276V38.2601H49.8611V52.8308C49.8611 53.0703 49.8611 53.3099 49.8611 53.5494H40.1355C40.1355 53.4121 40.1355 53.2779 40.1355 53.1438C40.1355 49.2578 40.1355 45.3708 40.1355 41.4827V41.0995H31.793V53.1438C31.793 53.2779 31.7802 53.4121 31.777 53.5558ZM47.7467 36.2095V38.2249H49.81V36.2127H47.718V34.1303H45.6994V36.2064L47.7467 36.2095ZM24.1818 36.2095H26.2068V34.1335H24.1914V36.2127H22.1026V38.2249H24.1754L24.1818 36.2095ZM34.6005 25.7909H37.3249V27.8223H39.4137V25.7941H37.3057V23.7213H34.6228C34.6228 24.4271 34.6228 25.1106 34.6228 25.7941H32.5148V27.8191H34.5653C34.5653 27.6626 34.5653 27.5316 34.5653 27.3975L34.6005 25.7909ZM43.6297 32.0191V34.0728H45.6547V23.7181H43.6074V29.9526H41.5345V32.0127L43.6297 32.0191ZM39.4776 29.8983H41.5121V27.8702H39.4776V29.8983ZM30.4068 29.975H28.3723V32.0063H30.4068V29.975Z" fill="#7E1B70"/>
</svg>
