<svg width="301" height="76" viewBox="0 0 301 76" fill="none" xmlns="http://www.w3.org/2000/svg">
<rect x="50.1406" y="56.863" width="0.787879" height="0.787879" fill="white"/>
<rect x="49.3535" y="57.6499" width="0.787879" height="0.787879" fill="white"/>
<rect x="47.7793" y="58.4373" width="0.787879" height="0.787879" fill="white"/>
<rect x="46.2051" y="59.2239" width="0.787879" height="0.787879" fill="white"/>
<rect x="44.6318" y="60.0112" width="0.787879" height="0.787879" fill="white"/>
<rect x="42.2705" y="60.7981" width="0.787879" height="0.787879" fill="white"/>
<rect x="39.1221" y="61.5854" width="0.787879" height="0.787879" fill="white"/>
<rect x="35.1865" y="61.5854" width="0.787879" height="0.787879" fill="white"/>
<rect x="35.9736" y="61.5854" width="0.787879" height="0.787879" fill="white"/>
<rect x="36.7607" y="61.5854" width="0.787879" height="0.787879" fill="white"/>
<rect x="37.5479" y="61.5854" width="0.787879" height="0.787879" fill="white"/>
<rect x="38.335" y="61.5854" width="0.787879" height="0.787879" fill="white"/>
<rect x="39.9092" y="61.5854" width="0.787879" height="0.787879" fill="white"/>
<rect x="40.6963" y="61.5854" width="0.787879" height="0.787879" fill="white"/>
<rect x="41.4834" y="60.7981" width="0.787879" height="0.787879" fill="white"/>
<rect x="43.0576" y="60.7981" width="0.787879" height="0.787879" fill="white"/>
<rect x="43.8447" y="60.0112" width="0.787879" height="0.787879" fill="white"/>
<rect x="45.418" y="60.0112" width="0.787879" height="0.787879" fill="white"/>
<rect x="46.9922" y="59.2239" width="0.787879" height="0.787879" fill="white"/>
<rect x="48.5664" y="57.6499" width="0.787879" height="0.787879" fill="white"/>
<rect x="20.2324" y="56.863" width="0.787879" height="0.787879" fill="white"/>
<rect x="21.0195" y="57.6499" width="0.787879" height="0.787879" fill="white"/>
<rect x="22.5938" y="58.4373" width="0.787879" height="0.787879" fill="white"/>
<rect x="24.168" y="59.2239" width="0.787879" height="0.787879" fill="white"/>
<rect x="25.7422" y="60.0112" width="0.787879" height="0.787879" fill="white"/>
<rect x="28.1025" y="60.7981" width="0.787879" height="0.787879" fill="white"/>
<rect x="31.251" y="61.5854" width="0.787879" height="0.787879" fill="white"/>
<rect x="21.8066" y="57.6499" width="0.787879" height="0.787879" fill="white"/>
<rect x="23.3809" y="59.2239" width="0.787879" height="0.787879" fill="white"/>
<rect x="24.9551" y="60.0112" width="0.787879" height="0.787879" fill="white"/>
<rect x="26.5293" y="60.0112" width="0.787879" height="0.787879" fill="white"/>
<rect x="27.3154" y="60.7981" width="0.787879" height="0.787879" fill="white"/>
<rect x="28.8896" y="60.7981" width="0.787879" height="0.787879" fill="white"/>
<rect x="29.6768" y="61.5854" width="0.787879" height="0.787879" fill="white"/>
<rect x="30.4639" y="61.5854" width="0.787879" height="0.787879" fill="white"/>
<rect x="32.0381" y="61.5854" width="0.787879" height="0.787879" fill="white"/>
<rect x="32.8252" y="61.5854" width="0.787879" height="0.787879" fill="white"/>
<rect x="33.6123" y="61.5854" width="0.787879" height="0.787879" fill="white"/>
<rect x="34.3994" y="61.5854" width="0.787879" height="0.787879" fill="white"/>
<rect x="51.7148" y="56.863" width="0.787879" height="0.787879" fill="white"/>
<rect x="50.9277" y="56.863" width="0.787879" height="0.787879" fill="white"/>
<rect x="50.9277" y="57.6499" width="0.787879" height="0.787879" fill="white"/>
<rect x="50.1406" y="57.6499" width="0.787879" height="0.787879" fill="white"/>
<rect x="50.1406" y="58.4373" width="0.787879" height="0.787879" fill="white"/>
<rect x="49.3535" y="58.4373" width="0.787879" height="0.787879" fill="white"/>
<rect x="47.7793" y="57.6499" width="0.787879" height="0.787879" fill="white"/>
<rect x="48.5664" y="58.4373" width="0.787879" height="0.787879" fill="white"/>
<rect x="48.5664" y="59.2239" width="0.787879" height="0.787879" fill="white"/>
<rect x="47.7793" y="59.2239" width="0.787879" height="0.787879" fill="white"/>
<rect x="46.9922" y="60.0112" width="0.787879" height="0.787879" fill="white"/>
<rect x="46.2051" y="60.0112" width="0.787879" height="0.787879" fill="white"/>
<rect x="45.418" y="60.7981" width="0.787879" height="0.787879" fill="white"/>
<rect x="44.6318" y="60.7981" width="0.787879" height="0.787879" fill="white"/>
<rect x="43.0576" y="61.5854" width="0.787879" height="0.787879" fill="white"/>
<rect x="42.2705" y="61.5854" width="0.787879" height="0.787879" fill="white"/>
<rect x="39.9092" y="62.3723" width="0.787879" height="0.787879" fill="white"/>
<rect x="39.1221" y="62.3723" width="0.787879" height="0.787879" fill="white"/>
<rect x="35.9736" y="62.3723" width="0.787879" height="0.787879" fill="white"/>
<rect x="35.1865" y="62.3723" width="0.787879" height="0.787879" fill="white"/>
<rect x="36.7607" y="62.3723" width="0.787879" height="0.787879" fill="white"/>
<rect x="37.5479" y="62.3723" width="0.787879" height="0.787879" fill="white"/>
<rect x="38.335" y="62.3723" width="0.787879" height="0.787879" fill="white"/>
<rect x="40.6963" y="62.3723" width="0.787879" height="0.787879" fill="white"/>
<rect x="41.4834" y="61.5854" width="0.787879" height="0.787879" fill="white"/>
<rect x="41.4834" y="62.3723" width="0.787879" height="0.787879" fill="white"/>
<rect x="43.8447" y="60.7981" width="0.787879" height="0.787879" fill="white"/>
<rect x="43.8447" y="61.5854" width="0.787879" height="0.787879" fill="white"/>
<rect x="46.2051" y="60.7981" width="0.787879" height="0.787879" fill="white"/>
<rect x="47.7793" y="60.0112" width="0.787879" height="0.787879" fill="white"/>
<rect x="19.4453" y="56.863" width="0.787879" height="0.787879" fill="white"/>
<rect x="21.0195" y="56.863" width="0.787879" height="0.787879" fill="white"/>
<rect x="20.2324" y="57.6499" width="0.787879" height="0.787879" fill="white"/>
<rect x="21.8066" y="58.4373" width="0.787879" height="0.787879" fill="white"/>
<rect x="21.0195" y="58.4373" width="0.787879" height="0.787879" fill="white"/>
<rect x="22.5938" y="57.6499" width="0.787879" height="0.787879" fill="white"/>
<rect x="23.3809" y="58.4373" width="0.787879" height="0.787879" fill="white"/>
<rect x="22.5938" y="59.2239" width="0.787879" height="0.787879" fill="white"/>
<rect x="24.9551" y="59.2239" width="0.787879" height="0.787879" fill="white"/>
<rect x="24.168" y="60.0112" width="0.787879" height="0.787879" fill="white"/>
<rect x="26.5293" y="60.7981" width="0.787879" height="0.787879" fill="white"/>
<rect x="25.7422" y="60.7981" width="0.787879" height="0.787879" fill="white"/>
<rect x="28.8896" y="61.5854" width="0.787879" height="0.787879" fill="white"/>
<rect x="28.1025" y="61.5854" width="0.787879" height="0.787879" fill="white"/>
<rect x="32.0381" y="62.3723" width="0.787879" height="0.787879" fill="white"/>
<rect x="31.251" y="62.3723" width="0.787879" height="0.787879" fill="white"/>
<rect x="23.3809" y="60.0112" width="0.787879" height="0.787879" fill="white"/>
<rect x="24.9551" y="60.7981" width="0.787879" height="0.787879" fill="white"/>
<rect x="27.3154" y="60.0112" width="0.787879" height="0.787879" fill="white"/>
<rect x="27.3154" y="61.5854" width="0.787879" height="0.787879" fill="white"/>
<rect x="29.6768" y="60.7981" width="0.787879" height="0.787879" fill="white"/>
<rect x="30.4639" y="62.3723" width="0.787879" height="0.787879" fill="white"/>
<rect x="29.6768" y="62.3723" width="0.787879" height="0.787879" fill="white"/>
<rect x="32.8252" y="62.3723" width="0.787879" height="0.787879" fill="white"/>
<rect x="33.6123" y="62.3723" width="0.787879" height="0.787879" fill="white"/>
<rect x="34.3994" y="62.3723" width="0.787879" height="0.787879" fill="white"/>
<path d="M287.609 74.4996L13.5227 74.4292V72.5729V71.0729H12.0227H7.56473L7.41122 68.9939L7.32958 67.8884L6.24877 67.6419C5.48925 67.4687 5.05554 67.3671 4.75687 67.2589C4.68984 67.2347 4.64312 67.2146 4.61181 67.1997C4.5965 67.1412 4.57346 67.0295 4.55451 66.8366C4.51348 66.419 4.50712 65.8457 4.49951 64.9475C4.49943 64.2285 4.48645 63.5677 4.40321 63.0057C4.31748 62.4268 4.13832 61.805 3.69612 61.2654C3.25156 60.7229 2.67689 60.4288 2.12826 60.2375C1.93235 60.1692 1.72193 60.1081 1.5 60.0518V15.7485C1.76564 15.7026 2.01894 15.6487 2.25035 15.5808C2.80208 15.4188 3.40737 15.1286 3.84856 14.515C4.25371 13.9516 4.38241 13.2991 4.44217 12.7393C4.50314 12.1681 4.51066 11.4617 4.51427 10.6555H4.51429V10.6488V10.6423V10.6359V10.6294V10.6229V10.6165V10.61V10.6035V10.5971V10.5906V10.5842V10.5777V10.5712V10.5648V10.5583V10.5518V10.5454V10.5389V10.5325V10.526V10.5195V10.5131V10.5066V10.5001V10.4937V10.4872V10.4808V10.4743V10.4678V10.4614V10.4549V10.4484V10.442V10.4355V10.429V10.4226V10.4161V10.4096V10.4032V10.3967V10.3903V10.3838V10.3773V10.3709V10.3644V10.3579V10.3515V10.345V10.3385V10.3321V10.3256V10.3191V10.3126V10.3062V10.2997V10.2932V10.2868V10.2803V10.2738V10.2674V10.2609V10.2544V10.248V10.2415V10.235V10.2285V10.2221V10.2156V10.2091V10.2026V10.1962V10.1897V10.1832V10.1768V10.1703V10.1638V10.1573V10.1509V10.1444V10.1379V10.1314V10.1249V10.1185V10.112V10.1055V10.099V10.0926V10.0861V10.0796V10.0731V10.0666V10.0601V10.0537V10.0472V10.0407V10.0342V10.0277V10.0213V10.0148V10.0083V10.0018V9.99531V9.98882V9.98234V9.97585V9.96936V9.96287V9.95638V9.94989V9.9434V9.93691V9.93042V9.92393V9.91744V9.91095V9.90445V9.89796V9.89147V9.88497V9.87848V9.87198V9.86548V9.85899V9.85249V9.84599V9.83949V9.83299V9.82649V9.81999V9.81349V9.80699V9.80049V9.79398V9.78748V9.78097V9.77447V9.76796V9.76146V9.75495V9.74844V9.74193V9.73542V9.72892V9.72241V9.71589V9.70938V9.70287V9.69636V9.68984V9.68333V9.67681V9.6703V9.66378V9.65726V9.65075V9.64423V9.63771V9.63119V9.62467V9.61814V9.61162V9.6051V9.59857V9.59205V9.58552V9.579V9.57247V9.56594V9.55941V9.55288V9.54635V9.53982V9.53329V9.52676V9.52022V9.51369V9.50715V9.50062V9.49408V9.48754V9.481V9.47446V9.46792V9.46138V9.45484V9.4483V9.44175V9.43521V9.42866V9.42212V9.41557V9.40902V9.40247V9.39592V9.38937V9.38282V9.37626V9.36971V9.36316V9.3566V9.35004V9.34348V9.33693V9.33037V9.32381V9.31724V9.31068V9.30412V9.29755V9.29099V9.28442V9.27785V9.27129V9.26472V9.25815V9.25157V9.245V9.23843V9.23185V9.22528V9.2187V9.21212V9.20554V9.19896V9.19238V9.1858V9.17922V9.17263V9.16605V9.15946V9.15287V9.14629V9.1397V9.1331V9.12651V9.11992V9.11333V9.10673V9.10013V9.09354V9.08694V9.08034V9.07374V9.06713V9.06053V9.05393V9.04732V9.04071V9.03411V9.0275V9.02089V9.01427V9.00766V9.00105V8.99443V8.98782V8.9812V8.97458V8.96796V8.96134V8.95472V8.94809V8.94147V8.93484V8.92821V8.92159V8.91496V8.90832V8.90169V8.89506V8.88842V8.88179V8.87515V8.86851V8.86187V8.85523V8.84858V8.84194V8.83529V8.82865V8.822V8.81535V8.8087V8.80205V8.79539V8.78874V8.78208V8.77542V8.76877V8.7621V8.75544V8.74878V8.74212V8.73545V8.72878V8.72211V8.71544V8.70877V8.7021V8.69542V8.68875V8.68207V8.67539V8.66871V8.66203V8.65535V8.64884L6.0566 8.5591L7.4148 8.48007L7.46831 7.12062L7.5495 5.0575H11.9291H13.3503L13.4269 3.63837L13.5424 1.5H287.569L287.738 3.67345L287.845 5.0575H289.233H293.594C293.624 5.75357 293.654 6.43093 293.69 7.18575L293.757 8.615H295.188H296.604V10.6251C296.604 11.4584 296.605 12.1878 296.663 12.7709C296.719 13.3444 296.847 14.0209 297.28 14.6012C297.742 15.2212 298.375 15.5016 298.93 15.6612C299.107 15.712 299.298 15.7564 299.5 15.7967V60.1326C299.279 60.1856 299.069 60.2436 298.876 60.3097C298.302 60.506 297.693 60.8305 297.259 61.4739C296.86 62.0648 296.735 62.7451 296.677 63.3532C296.619 63.9726 296.615 64.7475 296.614 65.6516V65.6536V65.6594V65.6652V65.6709V65.6767V65.6824V65.6882V65.694V65.6998V65.7055V65.7113V65.7171V65.7228V65.7286V65.7344V65.7401V65.7459V65.7517V65.7574V65.7632V65.769V65.7747V65.7805V65.7863V65.792V65.7978V65.8036V65.8093V65.8151V65.8209V65.8267V65.8324V65.8382V65.844V65.8497V65.8555V65.8613V65.8671V65.8728V65.8786V65.8844V65.8902V65.8959V65.9017V65.9075V65.9133V65.919V65.9248V65.9306V65.9364V65.9421V65.9479V65.9537V65.9595V65.9652V65.971V65.9768V65.9826V65.9884V65.9941V65.9999V66.0057V66.0115V66.0173V66.023V66.0288V66.0346V66.0404V66.0462V66.052V66.0577V66.0635V66.0693V66.0751V66.0809V66.0867V66.0925V66.0983V66.1041V66.1098V66.1156V66.1214V66.1272V66.133V66.1388V66.1446V66.1504V66.1562V66.162V66.1678V66.1736V66.1794V66.1852V66.191V66.1968V66.2026V66.2084V66.2142V66.22V66.2258V66.2316V66.2374V66.2432V66.249V66.2548V66.2606V66.2664V66.2723V66.2781V66.2839V66.2897V66.2955V66.3013V66.3071V66.313V66.3188V66.3246V66.3304V66.3362V66.3421V66.3479V66.3537V66.3595V66.3653V66.3712V66.377V66.3828V66.3887V66.3945V66.4003V66.4061V66.412V66.4178V66.4236V66.4295V66.4353V66.4412V66.447V66.4528V66.4587V66.4645V66.4704V66.4762V66.482V66.4879V66.4937V66.4996V66.5054V66.5113V66.5171V66.523V66.5288V66.5347V66.5406V66.5464V66.5523V66.5581V66.564V66.5699V66.5757V66.5816V66.5875V66.5933V66.5992V66.6051V66.6109V66.6168V66.6227V66.6286V66.6344V66.6403V66.6462V66.6521V66.6579V66.6638V66.6697V66.6756V66.6815V66.6874V66.6933V66.6992V66.705V66.7109V66.7168V66.7227V66.7286V66.7345V66.7404V66.7463V66.7522V66.7581V66.764V66.77V66.7759V66.7818V66.7877V66.7936V66.7995V66.8054V66.8114V66.8173V66.8232V66.8291V66.835V66.841V66.8469V66.8528V66.8588V66.8647V66.8706V66.8766V66.8825V66.8884V66.8944V66.9003V66.9063V66.9122V66.9182V66.9241V66.9301V66.936V66.942V66.9479V66.9539V66.9598V66.9658V66.9718V66.9777V66.9837V66.9897V66.9956V67.0016V67.0076V67.0135V67.0195V67.0255V67.0315V67.0375V67.0434V67.0494V67.0554V67.0614V67.0674V67.0734V67.0794V67.0854V67.0914V67.0974V67.1034V67.1094V67.1154V67.1214V67.1274V67.1334V67.1394V67.1455V67.1515V67.1575V67.1635V67.1695V67.1756V67.1816V67.1876V67.1936V67.1997V67.2057V67.2118V67.2178V67.2238V67.2299V67.2359V67.242V67.248V67.2541V67.2601V67.2662V67.2723V67.2783V67.2844V67.2904V67.2965V67.3026V67.3086V67.3147V67.3208V67.3269V67.333V67.339V67.3451V67.3512V67.3573V67.3634V67.3695V67.3756V67.3817V67.3878V67.3939V67.4V67.4061V67.4101L295.08 67.5514L293.788 67.6705L293.72 68.9665C293.684 69.6539 293.649 70.3077 293.613 71.0077H289.253H287.853L287.757 72.4046C287.704 73.1659 287.657 73.8354 287.609 74.4996ZM4.55717 67.1699C4.55725 67.1698 4.55871 67.1708 4.56127 67.1727C4.55836 67.1709 4.55709 67.1699 4.55717 67.1699Z" fill="#809DE3" stroke="#2B57E4" stroke-width="3"/>
<path d="M70 36.25V24H73.5V31H75.25V29.25H77V27.5H78.75V24H82.25V36.25H78.75V31H77V32.75H75.25V34.5H73.5V36.25H70ZM89.25 29.25V31H87.5V36.25H84V27.5H87.5V29.25H89.25ZM96.25 27.5V36.25H92.75V31H91V29.25H92.75V27.5H96.25ZM89.25 31H91V34.5H89.25V31ZM99.75 38V36.25H106.75V34.5H99.75V32.75H98V27.5H101.5V32.75H106.75V27.5H110.25V36.25H108.5V38H99.75ZM122.5 38V36.25H112V27.5H115.5V34.5H117.25V27.5H119V34.5H120.75V27.5H124.25V34.5H126V38H122.5ZM127.75 36.25V34.5H126V29.25H127.75V27.5H136.5V29.25H138.25V32.75H129.5V34.5H136.5V36.25H127.75ZM129.5 31H134.75V29.25H129.5V31ZM141.75 36.25V34.5H140V29.25H141.75V27.5H150.5V29.25H152.25V31H148.75V29.25H143.5V34.5H148.75V32.75H152.25V34.5H150.5V36.25H141.75ZM159.25 36.25V29.25H155.75V27.5H166.25V29.25H162.75V36.25H159.25ZM168 36.25V27.5H178.5V29.25H180.25V31H178.5V32.75H180.25V34.5H178.5V36.25H168ZM171.5 31H176.75V29.25H171.5V31ZM171.5 34.5H176.75V32.75H171.5V34.5ZM183.75 36.25V34.5H182V29.25H183.75V27.5H192.5V29.25H194.25V32.75H185.5V34.5H192.5V36.25H183.75ZM185.5 31H190.75V29.25H185.5V31ZM196 36.25V27.5H199.5V31H204.75V27.5H208.25V36.25H204.75V32.75H199.5V36.25H196ZM210 36.25V27.5H213.5V31H218.75V27.5H222.25V36.25H218.75V32.75H213.5V36.25H210ZM224 36.25V27.5H227.5V31H231V36.25H224ZM232.75 36.25V27.5H236.25V36.25H232.75ZM227.5 34.5H229.25V32.75H227.5V34.5ZM239.75 36.25V34.5H238V29.25H239.75V27.5H248.5V29.25H250.25V32.75H241.5V34.5H248.5V36.25H239.75ZM241.5 31H246.75V29.25H241.5V31ZM71.75 50.25V48.5H70V43.25H71.75V41.5H80.5V43.25H82.25V48.5H80.5V50.25H71.75ZM73.5 48.5H78.75V43.25H73.5V48.5ZM89.25 50.25V43.25H85.75V41.5H96.25V43.25H92.75V50.25H89.25ZM98 50.25V41.5H101.5V45H106.75V41.5H110.25V50.25H106.75V46.75H101.5V50.25H98ZM113.75 50.25V48.5H112V43.25H113.75V41.5H122.5V43.25H124.25V48.5H122.5V50.25H113.75ZM115.5 48.5H120.75V43.25H115.5V48.5ZM126 50.25V41.5H129.5V48.5H131.25V41.5H133V48.5H134.75V41.5H138.25V50.25H126ZM141.75 50.25V48.5H140V43.25H141.75V41.5H150.5V43.25H152.25V46.75H143.5V48.5H150.5V50.25H141.75ZM143.5 45H148.75V43.25H143.5V45ZM154 50.25V41.5H157.5V45H162.75V41.5H166.25V50.25H162.75V46.75H157.5V50.25H154ZM171.5 46.75H173.25V48.5H171.5V50.25H168V41.5H171.5V46.75ZM180.25 41.5V50.25H176.75V45H175V43.25H176.75V41.5H180.25ZM173.25 45H175V46.75H173.25V45ZM182 50.25V46.75H183.75V45H182V43.25H183.75V41.5H194.25V50.25H190.75V46.75H185.5V50.25H182ZM185.5 45H190.75V43.25H185.5V45Z" fill="white"/>
<path d="M60.3724 37.1862H61.1595V37.9733H60.3724V37.1862Z" fill="white"/>
<path d="M60.3724 37.9733H61.1595V38.7603H60.3724V37.9733Z" fill="white"/>
<path d="M60.3724 38.7603H61.1595V39.5474H60.3724V38.7603Z" fill="white"/>
<path d="M59.5853 39.5474H60.3724V40.3345H59.5853V39.5474Z" fill="white"/>
<path d="M59.5853 40.3345H60.3724V41.1215H59.5853V40.3345Z" fill="white"/>
<path d="M59.5853 41.1215H60.3724V41.9086H59.5853V41.1215Z" fill="white"/>
<path d="M59.5853 41.9086H60.3724V42.6957H59.5853V41.9086Z" fill="white"/>
<path d="M59.5853 42.6957H60.3724V43.4827H59.5853V42.6957Z" fill="white"/>
<path d="M59.5853 43.4827H60.3724V44.2698H59.5853V43.4827Z" fill="white"/>
<path d="M58.7983 44.2698H59.5853V45.0569H58.7983V44.2698Z" fill="white"/>
<path d="M58.7983 45.0569H59.5853V45.8439H58.7983V45.0569Z" fill="white"/>
<path d="M58.7983 45.8439H59.5853V46.631H58.7983V45.8439Z" fill="white"/>
<path d="M58.0112 46.631H58.7983V47.4181H58.0112V46.631Z" fill="white"/>
<path d="M58.0112 47.4181H58.7983V48.2052H58.0112V47.4181Z" fill="white"/>
<path d="M57.2241 48.2052H58.0112V48.9922H57.2241V48.2052Z" fill="white"/>
<path d="M57.2241 48.9922H58.0112V49.7793H57.2241V48.9922Z" fill="white"/>
<path d="M56.437 49.7793H57.2241V50.5664H56.437V49.7793Z" fill="white"/>
<path d="M55.65 50.5664H56.437V51.3534H55.65V50.5664Z" fill="white"/>
<path d="M55.65 51.3534H56.437V52.1405H55.65V51.3534Z" fill="white"/>
<path d="M54.8629 52.1405H55.65V52.9276H54.8629V52.1405Z" fill="white"/>
<path d="M54.0758 52.9276H54.8629V53.7146H54.0758V52.9276Z" fill="white"/>
<path d="M53.2888 53.7146H54.0758V54.5017H53.2888V53.7146Z" fill="white"/>
<path d="M52.5017 54.5017H53.2888V55.2888H52.5017V54.5017Z" fill="white"/>
<path d="M51.7146 55.2888H52.5017V56.0758H51.7146V55.2888Z" fill="white"/>
<path d="M50.9276 56.0758H51.7146V56.8629H50.9276V56.0758Z" fill="white"/>
<path d="M50.1405 56.8629H50.9276V57.65H50.1405V56.8629Z" fill="white"/>
<path d="M49.3534 57.65H50.1405V58.437H49.3534V57.65Z" fill="white"/>
<path d="M47.7793 58.437H48.5664V59.2241H47.7793V58.437Z" fill="white"/>
<path d="M46.2052 59.2241H46.9922V60.0112H46.2052V59.2241Z" fill="white"/>
<path d="M44.631 60.0112H45.4181V60.7983H44.631V60.0112Z" fill="white"/>
<path d="M42.2698 60.7983H43.0569V61.5853H42.2698V60.7983Z" fill="white"/>
<path d="M39.1215 61.5853H39.9086V62.3724H39.1215V61.5853Z" fill="white"/>
<path d="M35.1862 61.5853H35.9733V62.3724H35.1862V61.5853Z" fill="white"/>
<path d="M35.9733 61.5853H36.7603V62.3724H35.9733V61.5853Z" fill="white"/>
<path d="M36.7603 61.5853H37.5474V62.3724H36.7603V61.5853Z" fill="white"/>
<path d="M37.5474 61.5853H38.3345V62.3724H37.5474V61.5853Z" fill="white"/>
<path d="M38.3345 61.5853H39.1215V62.3724H38.3345V61.5853Z" fill="white"/>
<path d="M39.9086 61.5853H40.6957V62.3724H39.9086V61.5853Z" fill="white"/>
<path d="M40.6957 61.5853H41.4827V62.3724H40.6957V61.5853Z" fill="white"/>
<path d="M41.4827 60.7983H42.2698V61.5853H41.4827V60.7983Z" fill="white"/>
<path d="M43.0569 60.7983H43.844V61.5853H43.0569V60.7983Z" fill="white"/>
<path d="M43.844 60.0112H44.631V60.7983H43.844V60.0112Z" fill="white"/>
<path d="M45.4181 60.0112H46.2052V60.7983H45.4181V60.0112Z" fill="white"/>
<path d="M46.9922 59.2241H47.7793V60.0112H46.9922V59.2241Z" fill="white"/>
<path d="M48.5664 57.65H49.3534V58.437H48.5664V57.65Z" fill="white"/>
<path d="M10 37.1862H10.7871V37.9733H10V37.1862Z" fill="white"/>
<path d="M10 37.9733H10.7871V38.7603H10V37.9733Z" fill="white"/>
<path d="M10 38.7603H10.7871V39.5474H10V38.7603Z" fill="white"/>
<path d="M10 39.5474H10.7871V40.3345H10V39.5474Z" fill="white"/>
<path d="M10 40.3345H10.7871V41.1215H10V40.3345Z" fill="white"/>
<path d="M10.7871 41.1215H11.5741V41.9086H10.7871V41.1215Z" fill="white"/>
<path d="M10.7871 41.9086H11.5741V42.6957H10.7871V41.9086Z" fill="white"/>
<path d="M10.7871 42.6957H11.5741V43.4827H10.7871V42.6957Z" fill="white"/>
<path d="M10.7871 43.4827H11.5741V44.2698H10.7871V43.4827Z" fill="white"/>
<path d="M11.5741 44.2698H12.3612V45.0569H11.5741V44.2698Z" fill="white"/>
<path d="M11.5741 45.0569H12.3612V45.8439H11.5741V45.0569Z" fill="white"/>
<path d="M11.5741 45.8439H12.3612V46.631H11.5741V45.8439Z" fill="white"/>
<path d="M12.3612 46.631H13.1483V47.4181H12.3612V46.631Z" fill="white"/>
<path d="M12.3612 47.4181H13.1483V48.2052H12.3612V47.4181Z" fill="white"/>
<path d="M13.1483 48.2052H13.9353V48.9922H13.1483V48.2052Z" fill="white"/>
<path d="M13.1483 48.9922H13.9353V49.7793H13.1483V48.9922Z" fill="white"/>
<path d="M13.9353 49.7793H14.7224V50.5664H13.9353V49.7793Z" fill="white"/>
<path d="M13.9353 50.5664H14.7224V51.3534H13.9353V50.5664Z" fill="white"/>
<path d="M14.7224 51.3534H15.5095V52.1405H14.7224V51.3534Z" fill="white"/>
<path d="M15.5095 52.1405H16.2965V52.9276H15.5095V52.1405Z" fill="white"/>
<path d="M16.2965 52.9276H17.0836V53.7146H16.2965V52.9276Z" fill="white"/>
<path d="M16.2965 53.7146H17.0836V54.5017H16.2965V53.7146Z" fill="white"/>
<path d="M17.0836 54.5017H17.8707V55.2888H17.0836V54.5017Z" fill="white"/>
<path d="M17.8707 55.2888H18.6578V56.0758H17.8707V55.2888Z" fill="white"/>
<path d="M19.4448 56.0758H20.2319V56.8629H19.4448V56.0758Z" fill="white"/>
<path d="M20.2319 56.8629H21.019V57.65H20.2319V56.8629Z" fill="white"/>
<path d="M21.019 57.65H21.806V58.437H21.019V57.65Z" fill="white"/>
<path d="M22.5931 58.437H23.3802V59.2241H22.5931V58.437Z" fill="white"/>
<path d="M24.1672 59.2241H24.9543V60.0112H24.1672V59.2241Z" fill="white"/>
<path d="M25.7414 60.0112H26.5284V60.7983H25.7414V60.0112Z" fill="white"/>
<path d="M28.1026 60.7983H28.8896V61.5853H28.1026V60.7983Z" fill="white"/>
<path d="M31.2509 61.5853H32.0379V62.3724H31.2509V61.5853Z" fill="white"/>
<path d="M18.6578 55.2888H19.4448V56.0758H18.6578V55.2888Z" fill="white"/>
<path d="M21.806 57.65H22.5931V58.437H21.806V57.65Z" fill="white"/>
<path d="M23.3802 59.2241H24.1672V60.0112H23.3802V59.2241Z" fill="white"/>
<path d="M24.9543 60.0112H25.7414V60.7983H24.9543V60.0112Z" fill="white"/>
<path d="M26.5284 60.0112H27.3155V60.7983H26.5284V60.0112Z" fill="white"/>
<path d="M27.3155 60.7983H28.1026V61.5853H27.3155V60.7983Z" fill="white"/>
<path d="M28.8896 60.7983H29.6767V61.5853H28.8896V60.7983Z" fill="white"/>
<path d="M29.6767 61.5853H30.4638V62.3724H29.6767V61.5853Z" fill="white"/>
<path d="M30.4638 61.5853H31.2509V62.3724H30.4638V61.5853Z" fill="white"/>
<path d="M32.0379 61.5853H32.825V62.3724H32.0379V61.5853Z" fill="white"/>
<path d="M32.825 61.5853H33.6121V62.3724H32.825V61.5853Z" fill="white"/>
<path d="M33.6121 61.5853H34.3991V62.3724H33.6121V61.5853Z" fill="white"/>
<path d="M34.3991 61.5853H35.1862V62.3724H34.3991V61.5853Z" fill="white"/>
<path d="M32.825 12H33.6121V12.7871H32.825V12Z" fill="white"/>
<path d="M28.1026 12.7871H28.8896V13.5741H28.1026V12.7871Z" fill="white"/>
<path d="M25.7414 13.5741H26.5284V14.3612H25.7414V13.5741Z" fill="white"/>
<path d="M24.1672 14.3612H24.9543V15.1483H24.1672V14.3612Z" fill="white"/>
<path d="M22.5931 15.1483H23.3802V15.9353H22.5931V15.1483Z" fill="white"/>
<path d="M21.806 15.9353H22.5931V16.7224H21.806V15.9353Z" fill="white"/>
<path d="M20.2319 16.7224H21.019V17.5095H20.2319V16.7224Z" fill="white"/>
<path d="M19.4448 17.5095H20.2319V18.2965H19.4448V17.5095Z" fill="white"/>
<path d="M18.6578 18.2965H19.4448V19.0836H18.6578V18.2965Z" fill="white"/>
<path d="M17.8707 19.0836H18.6578V19.8707H17.8707V19.0836Z" fill="white"/>
<path d="M17.0836 19.8707H17.8707V20.6578H17.0836V19.8707Z" fill="white"/>
<path d="M16.2965 20.6578H17.0836V21.4448H16.2965V20.6578Z" fill="white"/>
<path d="M15.5095 21.4448H16.2965V22.2319H15.5095V21.4448Z" fill="white"/>
<path d="M14.7224 22.2319H15.5095V23.019H14.7224V22.2319Z" fill="white"/>
<path d="M13.9353 23.019H14.7224V23.806H13.9353V23.019Z" fill="white"/>
<path d="M13.9353 23.806H14.7224V24.5931H13.9353V23.806Z" fill="white"/>
<path d="M13.1483 24.5931H13.9353V25.3802H13.1483V24.5931Z" fill="white"/>
<path d="M13.1483 25.3802H13.9353V26.1672H13.1483V25.3802Z" fill="white"/>
<path d="M12.3612 26.1672H13.1483V26.9543H12.3612V26.1672Z" fill="white"/>
<path d="M12.3612 26.9543H13.1483V27.7414H12.3612V26.9543Z" fill="white"/>
<path d="M11.5741 27.7414H12.3612V28.5284H11.5741V27.7414Z" fill="white"/>
<path d="M11.5741 28.5284H12.3612V29.3155H11.5741V28.5284Z" fill="white"/>
<path d="M11.5741 29.3155H12.3612V30.1026H11.5741V29.3155Z" fill="white"/>
<path d="M10.7871 30.1026H11.5741V30.8896H10.7871V30.1026Z" fill="white"/>
<path d="M10.7871 30.8896H11.5741V31.6767H10.7871V30.8896Z" fill="white"/>
<path d="M10.7871 31.6767H11.5741V32.4638H10.7871V31.6767Z" fill="white"/>
<path d="M10.7871 32.4638H11.5741V33.2509H10.7871V32.4638Z" fill="white"/>
<path d="M10 33.2509H10.7871V34.0379H10V33.2509Z" fill="white"/>
<path d="M10 34.0379H10.7871V34.825H10V34.0379Z" fill="white"/>
<path d="M10 34.825H10.7871V35.6121H10V34.825Z" fill="white"/>
<path d="M10 35.6121H10.7871V36.3991H10V35.6121Z" fill="white"/>
<path d="M10 36.3991H10.7871V37.1862H10V36.3991Z" fill="white"/>
<path d="M21.019 15.9353H21.806V16.7224H21.019V15.9353Z" fill="white"/>
<path d="M23.3802 15.1483H24.1672V15.9353H23.3802V15.1483Z" fill="white"/>
<path d="M24.9543 14.3612H25.7414V15.1483H24.9543V14.3612Z" fill="white"/>
<path d="M26.5284 13.5741H27.3155V14.3612H26.5284V13.5741Z" fill="white"/>
<path d="M27.3155 12.7871H28.1026V13.5741H27.3155V12.7871Z" fill="white"/>
<path d="M28.8896 12.7871H29.6767V13.5741H28.8896V12.7871Z" fill="white"/>
<path d="M29.6767 12.7871H30.4638V13.5741H29.6767V12.7871Z" fill="white"/>
<path d="M30.4638 12H31.2509V12.7871H30.4638V12Z" fill="white"/>
<path d="M31.2509 12H32.0379V12.7871H31.2509V12Z" fill="white"/>
<path d="M32.0379 12H32.825V12.7871H32.0379V12Z" fill="white"/>
<path d="M33.6121 12H34.3991V12.7871H33.6121V12Z" fill="white"/>
<path d="M34.3991 12H35.1862V12.7871H34.3991V12Z" fill="white"/>
<path d="M35.1862 12H35.9733V12.7871H35.1862V12Z" fill="white"/>
<path d="M37.5474 12H38.3345V12.7871H37.5474V12Z" fill="white"/>
<path d="M41.4827 12.7871H42.2698V13.5741H41.4827V12.7871Z" fill="white"/>
<path d="M43.844 13.5741H44.631V14.3612H43.844V13.5741Z" fill="white"/>
<path d="M46.2052 14.3612H46.9922V15.1483H46.2052V14.3612Z" fill="white"/>
<path d="M47.7793 15.1483H48.5664V15.9353H47.7793V15.1483Z" fill="white"/>
<path d="M48.5664 15.9353H49.3534V16.7224H48.5664V15.9353Z" fill="white"/>
<path d="M50.1405 16.7224H50.9276V17.5095H50.1405V16.7224Z" fill="white"/>
<path d="M50.9276 17.5095H51.7146V18.2965H50.9276V17.5095Z" fill="white"/>
<path d="M51.7146 18.2965H52.5017V19.0836H51.7146V18.2965Z" fill="white"/>
<path d="M52.5017 19.0836H53.2888V19.8707H52.5017V19.0836Z" fill="white"/>
<path d="M53.2888 19.8707H54.0758V20.6578H53.2888V19.8707Z" fill="white"/>
<path d="M54.0758 20.6578H54.8629V21.4448H54.0758V20.6578Z" fill="white"/>
<path d="M54.8629 21.4448H55.65V22.2319H54.8629V21.4448Z" fill="white"/>
<path d="M55.65 22.2319H56.437V23.019H55.65V22.2319Z" fill="white"/>
<path d="M55.65 23.019H56.437V23.806H55.65V23.019Z" fill="white"/>
<path d="M56.437 23.806H57.2241V24.5931H56.437V23.806Z" fill="white"/>
<path d="M57.2241 24.5931H58.0112V25.3802H57.2241V24.5931Z" fill="white"/>
<path d="M57.2241 25.3802H58.0112V26.1672H57.2241V25.3802Z" fill="white"/>
<path d="M58.0112 26.1672H58.7983V26.9543H58.0112V26.1672Z" fill="white"/>
<path d="M58.0112 26.9543H58.7983V27.7414H58.0112V26.9543Z" fill="white"/>
<path d="M58.0112 27.7414H58.7983V28.5284H58.0112V27.7414Z" fill="white"/>
<path d="M58.7983 28.5284H59.5853V29.3155H58.7983V28.5284Z" fill="white"/>
<path d="M58.7983 29.3155H59.5853V30.1026H58.7983V29.3155Z" fill="white"/>
<path d="M58.7983 30.1026H59.5853V30.8896H58.7983V30.1026Z" fill="white"/>
<path d="M59.5853 30.8896H60.3724V31.6767H59.5853V30.8896Z" fill="white"/>
<path d="M59.5853 31.6767H60.3724V32.4638H59.5853V31.6767Z" fill="white"/>
<path d="M59.5853 32.4638H60.3724V33.2509H59.5853V32.4638Z" fill="white"/>
<path d="M59.5853 33.2509H60.3724V34.0379H59.5853V33.2509Z" fill="white"/>
<path d="M59.5853 34.0379H60.3724V34.825H59.5853V34.0379Z" fill="white"/>
<path d="M60.3724 34.825H61.1595V35.6121H60.3724V34.825Z" fill="white"/>
<path d="M60.3724 35.6121H61.1595V36.3991H60.3724V35.6121Z" fill="white"/>
<path d="M60.3724 36.3991H61.1595V37.1862H60.3724V36.3991Z" fill="white"/>
<path d="M35.9733 12H36.7603V12.7871H35.9733V12Z" fill="white"/>
<path d="M36.7603 12H37.5474V12.7871H36.7603V12Z" fill="white"/>
<path d="M38.3345 12H39.1215V12.7871H38.3345V12Z" fill="white"/>
<path d="M39.1215 12H39.9086V12.7871H39.1215V12Z" fill="white"/>
<path d="M39.9086 12H40.6957V12.7871H39.9086V12Z" fill="white"/>
<path d="M40.6957 12.7871H41.4827V13.5741H40.6957V12.7871Z" fill="white"/>
<path d="M42.2698 12.7871H43.0569V13.5741H42.2698V12.7871Z" fill="white"/>
<path d="M43.0569 12.7871H43.844V13.5741H43.0569V12.7871Z" fill="white"/>
<path d="M44.631 13.5741H45.4181V14.3612H44.631V13.5741Z" fill="white"/>
<path d="M45.4181 14.3612H46.2052V15.1483H45.4181V14.3612Z" fill="white"/>
<path d="M46.9922 15.1483H47.7793V15.9353H46.9922V15.1483Z" fill="white"/>
<path d="M49.3534 15.9353H50.1405V16.7224H49.3534V15.9353Z" fill="white"/>
<rect x="60.3721" y="37.186" width="0.787879" height="0.787879" fill="white"/>
<rect x="60.3721" y="37.9734" width="0.787879" height="0.787879" fill="white"/>
<rect x="60.3721" y="38.7603" width="0.787879" height="0.787879" fill="white"/>
<rect x="59.585" y="39.5476" width="0.787879" height="0.787879" fill="white"/>
<rect x="59.585" y="40.3345" width="0.787879" height="0.787879" fill="white"/>
<rect x="59.585" y="41.1218" width="0.787879" height="0.787879" fill="white"/>
<rect x="59.585" y="41.9084" width="0.787879" height="0.787879" fill="white"/>
<rect x="59.585" y="42.6958" width="0.787879" height="0.787879" fill="white"/>
<rect x="59.585" y="43.4827" width="0.787879" height="0.787879" fill="white"/>
<rect x="58.7979" y="44.27" width="0.787879" height="0.787879" fill="white"/>
<rect x="58.7979" y="45.0569" width="0.787879" height="0.787879" fill="white"/>
<rect x="58.7979" y="45.8442" width="0.787879" height="0.787879" fill="white"/>
<rect x="58.0107" y="46.6309" width="0.787879" height="0.787879" fill="white"/>
<rect x="58.0107" y="47.4182" width="0.787879" height="0.787879" fill="white"/>
<rect x="57.2236" y="48.2051" width="0.787879" height="0.787879" fill="white"/>
<rect x="57.2236" y="48.9924" width="0.787879" height="0.787879" fill="white"/>
<rect x="56.4375" y="49.7791" width="0.787879" height="0.787879" fill="white"/>
<rect x="55.6504" y="50.5667" width="0.787879" height="0.787879" fill="white"/>
<rect x="55.6504" y="51.3533" width="0.787879" height="0.787879" fill="white"/>
<rect x="54.8633" y="52.1406" width="0.787879" height="0.787879" fill="white"/>
<rect x="54.0762" y="52.9275" width="0.787879" height="0.787879" fill="white"/>
<rect x="53.2891" y="53.7148" width="0.787879" height="0.787879" fill="white"/>
<rect x="52.502" y="54.5015" width="0.787879" height="0.787879" fill="white"/>
<rect x="51.7148" y="55.2888" width="0.787879" height="0.787879" fill="white"/>
<rect x="50.9277" y="56.0757" width="0.787879" height="0.787879" fill="white"/>
<rect x="10" y="37.186" width="0.787879" height="0.787879" fill="white"/>
<rect x="10" y="37.9734" width="0.787879" height="0.787879" fill="white"/>
<rect x="10" y="38.7603" width="0.787879" height="0.787879" fill="white"/>
<rect x="10" y="39.5476" width="0.787879" height="0.787879" fill="white"/>
<rect x="10" y="40.3345" width="0.787879" height="0.787879" fill="white"/>
<rect x="10.7871" y="41.1218" width="0.787879" height="0.787879" fill="white"/>
<rect x="10.7871" y="41.9084" width="0.787879" height="0.787879" fill="white"/>
<rect x="10.7871" y="42.6958" width="0.787879" height="0.787879" fill="white"/>
<rect x="10.7871" y="43.4827" width="0.787879" height="0.787879" fill="white"/>
<rect x="11.5742" y="44.27" width="0.787879" height="0.787879" fill="white"/>
<rect x="11.5742" y="45.0569" width="0.787879" height="0.787879" fill="white"/>
<rect x="11.5742" y="45.8442" width="0.787879" height="0.787879" fill="white"/>
<rect x="12.3613" y="46.6309" width="0.787879" height="0.787879" fill="white"/>
<rect x="12.3613" y="47.4182" width="0.787879" height="0.787879" fill="white"/>
<rect x="13.1484" y="48.2051" width="0.787879" height="0.787879" fill="white"/>
<rect x="13.1484" y="48.9924" width="0.787879" height="0.787879" fill="white"/>
<rect x="13.9355" y="49.7791" width="0.787879" height="0.787879" fill="white"/>
<rect x="13.9355" y="50.5667" width="0.787879" height="0.787879" fill="white"/>
<rect x="14.7227" y="51.3533" width="0.787879" height="0.787879" fill="white"/>
<rect x="15.5098" y="52.1406" width="0.787879" height="0.787879" fill="white"/>
<rect x="16.2969" y="52.9275" width="0.787879" height="0.787879" fill="white"/>
<rect x="16.2969" y="53.7148" width="0.787879" height="0.787879" fill="white"/>
<rect x="17.084" y="54.5015" width="0.787879" height="0.787879" fill="white"/>
<rect x="17.8711" y="55.2888" width="0.787879" height="0.787879" fill="white"/>
<rect x="19.4453" y="56.0757" width="0.787879" height="0.787879" fill="white"/>
<rect x="18.6582" y="55.2888" width="0.787879" height="0.787879" fill="white"/>
<rect x="32.8252" y="12" width="0.787879" height="0.787879" fill="white"/>
<rect x="28.1025" y="12.7869" width="0.787879" height="0.787879" fill="white"/>
<rect x="25.7412" y="13.5742" width="0.787879" height="0.787879" fill="white"/>
<rect x="24.167" y="14.3608" width="0.787879" height="0.787879" fill="white"/>
<rect x="22.5928" y="15.1482" width="0.787879" height="0.787879" fill="white"/>
<rect x="21.8057" y="15.9351" width="0.787879" height="0.787879" fill="white"/>
<rect x="20.2314" y="16.7224" width="0.787879" height="0.787879" fill="white"/>
<rect x="19.4453" y="17.5098" width="0.787879" height="0.787879" fill="white"/>
<rect x="18.6582" y="18.2966" width="0.787879" height="0.787879" fill="white"/>
<rect x="17.8711" y="19.084" width="0.787879" height="0.787879" fill="white"/>
<rect x="17.084" y="19.8706" width="0.787879" height="0.787879" fill="white"/>
<rect x="16.2969" y="20.6575" width="0.787879" height="0.787879" fill="white"/>
<rect x="15.5098" y="21.4448" width="0.787879" height="0.787879" fill="white"/>
<rect x="14.7227" y="22.2322" width="0.787879" height="0.787879" fill="white"/>
<rect x="13.9355" y="23.019" width="0.787879" height="0.787879" fill="white"/>
<rect x="13.9355" y="23.8064" width="0.787879" height="0.787879" fill="white"/>
<rect x="13.1484" y="24.593" width="0.787879" height="0.787879" fill="white"/>
<rect x="13.1484" y="25.3804" width="0.787879" height="0.787879" fill="white"/>
<rect x="12.3613" y="26.1672" width="0.787879" height="0.787879" fill="white"/>
<rect x="12.3613" y="26.9546" width="0.787879" height="0.787879" fill="white"/>
<rect x="11.5742" y="27.7412" width="0.787879" height="0.787879" fill="white"/>
<rect x="11.5742" y="28.5286" width="0.787879" height="0.787879" fill="white"/>
<rect x="11.5742" y="29.3154" width="0.787879" height="0.787879" fill="white"/>
<rect x="10.7871" y="30.1028" width="0.787879" height="0.787879" fill="white"/>
<rect x="10.7871" y="30.8896" width="0.787879" height="0.787879" fill="white"/>
<rect x="10.7871" y="31.677" width="0.787879" height="0.787879" fill="white"/>
<rect x="10.7871" y="32.4636" width="0.787879" height="0.787879" fill="white"/>
<rect x="10" y="33.251" width="0.787879" height="0.787879" fill="white"/>
<rect x="10" y="34.0378" width="0.787879" height="0.787879" fill="white"/>
<rect x="10" y="34.8252" width="0.787879" height="0.787879" fill="white"/>
<rect x="10" y="35.6121" width="0.787879" height="0.787879" fill="white"/>
<rect x="10" y="36.3994" width="0.787879" height="0.787879" fill="white"/>
<rect x="21.0186" y="15.9351" width="0.787879" height="0.787879" fill="white"/>
<rect x="23.3799" y="15.1482" width="0.787879" height="0.787879" fill="white"/>
<rect x="24.9541" y="14.3608" width="0.787879" height="0.787879" fill="white"/>
<rect x="26.5283" y="13.5742" width="0.787879" height="0.787879" fill="white"/>
<rect x="27.3154" y="12.7869" width="0.787879" height="0.787879" fill="white"/>
<rect x="28.8896" y="12.7869" width="0.787879" height="0.787879" fill="white"/>
<rect x="29.6768" y="12.7869" width="0.787879" height="0.787879" fill="white"/>
<rect x="30.4639" y="12" width="0.787879" height="0.787879" fill="white"/>
<rect x="31.251" y="12" width="0.787879" height="0.787879" fill="white"/>
<rect x="32.0381" y="12" width="0.787879" height="0.787879" fill="white"/>
<rect x="33.6123" y="12" width="0.787879" height="0.787879" fill="white"/>
<rect x="34.3994" y="12" width="0.787879" height="0.787879" fill="white"/>
<rect x="35.1865" y="12" width="0.787879" height="0.787879" fill="white"/>
<rect x="37.5469" y="12" width="0.787879" height="0.787879" fill="white"/>
<rect x="41.4824" y="12.7869" width="0.787879" height="0.787879" fill="white"/>
<rect x="43.8438" y="13.5742" width="0.787879" height="0.787879" fill="white"/>
<rect x="46.2051" y="14.3608" width="0.787879" height="0.787879" fill="white"/>
<rect x="47.7793" y="15.1482" width="0.787879" height="0.787879" fill="white"/>
<rect x="48.5664" y="15.9351" width="0.787879" height="0.787879" fill="white"/>
<rect x="50.1406" y="16.7224" width="0.787879" height="0.787879" fill="white"/>
<rect x="50.9277" y="17.5098" width="0.787879" height="0.787879" fill="white"/>
<rect x="51.7148" y="18.2966" width="0.787879" height="0.787879" fill="white"/>
<rect x="52.502" y="19.084" width="0.787879" height="0.787879" fill="white"/>
<rect x="53.2891" y="19.8706" width="0.787879" height="0.787879" fill="white"/>
<rect x="54.0762" y="20.6575" width="0.787879" height="0.787879" fill="white"/>
<rect x="54.8633" y="21.4448" width="0.787879" height="0.787879" fill="white"/>
<rect x="55.6504" y="22.2322" width="0.787879" height="0.787879" fill="white"/>
<rect x="55.6504" y="23.019" width="0.787879" height="0.787879" fill="white"/>
<rect x="56.4375" y="23.8064" width="0.787879" height="0.787879" fill="white"/>
<rect x="57.2236" y="24.593" width="0.787879" height="0.787879" fill="white"/>
<rect x="57.2236" y="25.3804" width="0.787879" height="0.787879" fill="white"/>
<rect x="58.0107" y="26.1672" width="0.787879" height="0.787879" fill="white"/>
<rect x="58.0107" y="26.9546" width="0.787879" height="0.787879" fill="white"/>
<rect x="58.0107" y="27.7412" width="0.787879" height="0.787879" fill="white"/>
<rect x="58.7979" y="28.5286" width="0.787879" height="0.787879" fill="white"/>
<rect x="58.7979" y="29.3154" width="0.787879" height="0.787879" fill="white"/>
<rect x="58.7979" y="30.1028" width="0.787879" height="0.787879" fill="white"/>
<rect x="59.585" y="30.8896" width="0.787879" height="0.787879" fill="white"/>
<rect x="59.585" y="31.677" width="0.787879" height="0.787879" fill="white"/>
<rect x="59.585" y="32.4636" width="0.787879" height="0.787879" fill="white"/>
<rect x="59.585" y="33.251" width="0.787879" height="0.787879" fill="white"/>
<rect x="59.585" y="34.0378" width="0.787879" height="0.787879" fill="white"/>
<rect x="60.3721" y="34.8252" width="0.787879" height="0.787879" fill="white"/>
<rect x="60.3721" y="35.6121" width="0.787879" height="0.787879" fill="white"/>
<rect x="60.3721" y="36.3994" width="0.787879" height="0.787879" fill="white"/>
<rect x="35.9736" y="12" width="0.787879" height="0.787879" fill="white"/>
<rect x="36.7607" y="12" width="0.787879" height="0.787879" fill="white"/>
<rect x="38.335" y="12" width="0.787879" height="0.787879" fill="white"/>
<rect x="39.1221" y="12" width="0.787879" height="0.787879" fill="white"/>
<rect x="39.9082" y="12" width="0.787879" height="0.787879" fill="white"/>
<rect x="40.6953" y="12.7869" width="0.787879" height="0.787879" fill="white"/>
<rect x="42.2695" y="12.7869" width="0.787879" height="0.787879" fill="white"/>
<rect x="43.0566" y="12.7869" width="0.787879" height="0.787879" fill="white"/>
<rect x="44.6309" y="13.5742" width="0.787879" height="0.787879" fill="white"/>
<rect x="45.418" y="14.3608" width="0.787879" height="0.787879" fill="white"/>
<rect x="46.9922" y="15.1482" width="0.787879" height="0.787879" fill="white"/>
<rect x="49.3535" y="15.9351" width="0.787879" height="0.787879" fill="white"/>
<rect x="61.1592" y="37.186" width="0.787879" height="0.787879" fill="white"/>
<rect x="61.1592" y="37.9734" width="0.787879" height="0.787879" fill="white"/>
<rect x="61.1592" y="38.7603" width="0.787879" height="0.787879" fill="white"/>
<rect x="61.1592" y="39.5476" width="0.787879" height="0.787879" fill="white"/>
<rect x="60.3721" y="39.5476" width="0.787879" height="0.787879" fill="white"/>
<rect x="60.3721" y="40.3345" width="0.787879" height="0.787879" fill="white"/>
<rect x="60.3721" y="41.1218" width="0.787879" height="0.787879" fill="white"/>
<rect x="60.3721" y="41.9084" width="0.787879" height="0.787879" fill="white"/>
<rect x="60.3721" y="42.6958" width="0.787879" height="0.787879" fill="white"/>
<rect x="60.3721" y="43.4827" width="0.787879" height="0.787879" fill="white"/>
<rect x="60.3721" y="44.27" width="0.787879" height="0.787879" fill="white"/>
<rect x="59.585" y="44.27" width="0.787879" height="0.787879" fill="white"/>
<rect x="59.585" y="45.0569" width="0.787879" height="0.787879" fill="white"/>
<rect x="59.585" y="45.8442" width="0.787879" height="0.787879" fill="white"/>
<rect x="59.585" y="46.6309" width="0.787879" height="0.787879" fill="white"/>
<rect x="58.7979" y="46.6309" width="0.787879" height="0.787879" fill="white"/>
<rect x="58.7979" y="47.4182" width="0.787879" height="0.787879" fill="white"/>
<rect x="58.7979" y="48.2051" width="0.787879" height="0.787879" fill="white"/>
<rect x="58.0107" y="48.2051" width="0.787879" height="0.787879" fill="white"/>
<rect x="58.0107" y="48.9924" width="0.787879" height="0.787879" fill="white"/>
<rect x="58.0107" y="49.7791" width="0.787879" height="0.787879" fill="white"/>
<rect x="57.2236" y="49.7791" width="0.787879" height="0.787879" fill="white"/>
<rect x="57.2236" y="50.5667" width="0.787879" height="0.787879" fill="white"/>
<rect x="56.4375" y="50.5667" width="0.787879" height="0.787879" fill="white"/>
<rect x="56.4375" y="51.3533" width="0.787879" height="0.787879" fill="white"/>
<rect x="56.4375" y="52.1406" width="0.787879" height="0.787879" fill="white"/>
<rect x="55.6504" y="52.1406" width="0.787879" height="0.787879" fill="white"/>
<rect x="55.6504" y="52.9275" width="0.787879" height="0.787879" fill="white"/>
<rect x="54.8633" y="52.9275" width="0.787879" height="0.787879" fill="white"/>
<rect x="54.8633" y="53.7148" width="0.787879" height="0.787879" fill="white"/>
<rect x="54.0762" y="53.7148" width="0.787879" height="0.787879" fill="white"/>
<rect x="54.0762" y="54.5015" width="0.787879" height="0.787879" fill="white"/>
<rect x="53.2891" y="54.5015" width="0.787879" height="0.787879" fill="white"/>
<rect x="53.2891" y="55.2888" width="0.787879" height="0.787879" fill="white"/>
<rect x="52.502" y="55.2888" width="0.787879" height="0.787879" fill="white"/>
<rect x="52.502" y="56.0757" width="0.787879" height="0.787879" fill="white"/>
<rect x="51.7148" y="56.0757" width="0.787879" height="0.787879" fill="white"/>
<rect x="10.7871" y="37.186" width="0.787879" height="0.787879" fill="white"/>
<rect x="10.7871" y="37.9734" width="0.787879" height="0.787879" fill="white"/>
<rect x="10.7871" y="38.7603" width="0.787879" height="0.787879" fill="white"/>
<rect x="10.7871" y="39.5476" width="0.787879" height="0.787879" fill="white"/>
<rect x="10.7871" y="40.3345" width="0.787879" height="0.787879" fill="white"/>
<rect x="10" y="41.1218" width="0.787879" height="0.787879" fill="white"/>
<rect x="11.5742" y="41.1218" width="0.787879" height="0.787879" fill="white"/>
<rect x="11.5742" y="41.9084" width="0.787879" height="0.787879" fill="white"/>
<rect x="11.5742" y="42.6958" width="0.787879" height="0.787879" fill="white"/>
<rect x="11.5742" y="43.4827" width="0.787879" height="0.787879" fill="white"/>
<rect x="10.7871" y="44.27" width="0.787879" height="0.787879" fill="white"/>
<rect x="12.3613" y="44.27" width="0.787879" height="0.787879" fill="white"/>
<rect x="12.3613" y="45.0569" width="0.787879" height="0.787879" fill="white"/>
<rect x="12.3613" y="45.8442" width="0.787879" height="0.787879" fill="white"/>
<rect x="11.5742" y="46.6309" width="0.787879" height="0.787879" fill="white"/>
<rect x="13.1484" y="46.6309" width="0.787879" height="0.787879" fill="white"/>
<rect x="13.1484" y="47.4182" width="0.787879" height="0.787879" fill="white"/>
<rect x="12.3613" y="48.2051" width="0.787879" height="0.787879" fill="white"/>
<rect x="13.9355" y="48.2051" width="0.787879" height="0.787879" fill="white"/>
<rect x="13.9355" y="48.9924" width="0.787879" height="0.787879" fill="white"/>
<rect x="13.1484" y="49.7791" width="0.787879" height="0.787879" fill="white"/>
<rect x="14.7227" y="49.7791" width="0.787879" height="0.787879" fill="white"/>
<rect x="14.7227" y="50.5667" width="0.787879" height="0.787879" fill="white"/>
<rect x="13.9355" y="51.3533" width="0.787879" height="0.787879" fill="white"/>
<rect x="15.5098" y="51.3533" width="0.787879" height="0.787879" fill="white"/>
<rect x="14.7227" y="52.1406" width="0.787879" height="0.787879" fill="white"/>
<rect x="16.2969" y="52.1406" width="0.787879" height="0.787879" fill="white"/>
<rect x="15.5098" y="52.9275" width="0.787879" height="0.787879" fill="white"/>
<rect x="17.084" y="52.9275" width="0.787879" height="0.787879" fill="white"/>
<rect x="17.084" y="53.7148" width="0.787879" height="0.787879" fill="white"/>
<rect x="16.2969" y="54.5015" width="0.787879" height="0.787879" fill="white"/>
<rect x="17.8711" y="54.5015" width="0.787879" height="0.787879" fill="white"/>
<rect x="17.084" y="55.2888" width="0.787879" height="0.787879" fill="white"/>
<rect x="18.6582" y="56.0757" width="0.787879" height="0.787879" fill="white"/>
<rect x="17.8711" y="56.0757" width="0.787879" height="0.787879" fill="white"/>
<rect x="20.2314" y="56.0757" width="0.787879" height="0.787879" fill="white"/>
<rect x="19.4453" y="55.2888" width="0.787879" height="0.787879" fill="white"/>
<rect x="33.6123" y="12.7869" width="0.787879" height="0.787879" fill="white"/>
<rect x="32.8252" y="12.7869" width="0.787879" height="0.787879" fill="white"/>
<rect x="28.8896" y="13.5742" width="0.787879" height="0.787879" fill="white"/>
<rect x="28.1025" y="13.5742" width="0.787879" height="0.787879" fill="white"/>
<rect x="26.5283" y="14.3608" width="0.787879" height="0.787879" fill="white"/>
<rect x="25.7412" y="14.3608" width="0.787879" height="0.787879" fill="white"/>
<rect x="24.9541" y="15.1482" width="0.787879" height="0.787879" fill="white"/>
<rect x="24.167" y="15.1482" width="0.787879" height="0.787879" fill="white"/>
<rect x="23.3799" y="15.9351" width="0.787879" height="0.787879" fill="white"/>
<rect x="22.5928" y="15.9351" width="0.787879" height="0.787879" fill="white"/>
<rect x="22.5928" y="16.7224" width="0.787879" height="0.787879" fill="white"/>
<rect x="21.8057" y="16.7224" width="0.787879" height="0.787879" fill="white"/>
<rect x="21.0186" y="16.7224" width="0.787879" height="0.787879" fill="white"/>
<rect x="21.0186" y="17.5098" width="0.787879" height="0.787879" fill="white"/>
<rect x="20.2314" y="17.5098" width="0.787879" height="0.787879" fill="white"/>
<rect x="20.2314" y="18.2966" width="0.787879" height="0.787879" fill="white"/>
<rect x="19.4453" y="18.2966" width="0.787879" height="0.787879" fill="white"/>
<rect x="18.6582" y="17.5098" width="0.787879" height="0.787879" fill="white"/>
<rect x="19.4453" y="19.084" width="0.787879" height="0.787879" fill="white"/>
<rect x="18.6582" y="19.084" width="0.787879" height="0.787879" fill="white"/>
<rect x="18.6582" y="19.8706" width="0.787879" height="0.787879" fill="white"/>
<rect x="17.8711" y="19.8706" width="0.787879" height="0.787879" fill="white"/>
<rect x="17.8711" y="20.6575" width="0.787879" height="0.787879" fill="white"/>
<rect x="17.084" y="20.6575" width="0.787879" height="0.787879" fill="white"/>
<rect x="17.084" y="21.4448" width="0.787879" height="0.787879" fill="white"/>
<rect x="16.2969" y="21.4448" width="0.787879" height="0.787879" fill="white"/>
<rect x="16.2969" y="22.2322" width="0.787879" height="0.787879" fill="white"/>
<rect x="15.5098" y="22.2322" width="0.787879" height="0.787879" fill="white"/>
<rect x="15.5098" y="23.019" width="0.787879" height="0.787879" fill="white"/>
<rect x="14.7227" y="23.019" width="0.787879" height="0.787879" fill="white"/>
<rect x="14.7227" y="23.8064" width="0.787879" height="0.787879" fill="white"/>
<rect x="14.7227" y="24.593" width="0.787879" height="0.787879" fill="white"/>
<rect x="13.9355" y="24.593" width="0.787879" height="0.787879" fill="white"/>
<rect x="13.1484" y="23.8064" width="0.787879" height="0.787879" fill="white"/>
<rect x="13.9355" y="25.3804" width="0.787879" height="0.787879" fill="white"/>
<rect x="13.9355" y="26.1672" width="0.787879" height="0.787879" fill="white"/>
<rect x="13.1484" y="26.1672" width="0.787879" height="0.787879" fill="white"/>
<rect x="13.1484" y="26.9546" width="0.787879" height="0.787879" fill="white"/>
<rect x="13.1484" y="27.7412" width="0.787879" height="0.787879" fill="white"/>
<rect x="12.3613" y="27.7412" width="0.787879" height="0.787879" fill="white"/>
<rect x="12.3613" y="28.5286" width="0.787879" height="0.787879" fill="white"/>
<rect x="12.3613" y="29.3154" width="0.787879" height="0.787879" fill="white"/>
<rect x="12.3613" y="30.1028" width="0.787879" height="0.787879" fill="white"/>
<rect x="11.5742" y="30.1028" width="0.787879" height="0.787879" fill="white"/>
<rect x="11.5742" y="30.8896" width="0.787879" height="0.787879" fill="white"/>
<rect x="11.5742" y="31.677" width="0.787879" height="0.787879" fill="white"/>
<rect x="11.5742" y="32.4636" width="0.787879" height="0.787879" fill="white"/>
<rect x="11.5742" y="33.251" width="0.787879" height="0.787879" fill="white"/>
<rect x="10.7871" y="33.251" width="0.787879" height="0.787879" fill="white"/>
<rect x="10.7871" y="34.0378" width="0.787879" height="0.787879" fill="white"/>
<rect x="10.7871" y="34.8252" width="0.787879" height="0.787879" fill="white"/>
<rect x="10.7871" y="35.6121" width="0.787879" height="0.787879" fill="white"/>
<rect x="10.7871" y="36.3994" width="0.787879" height="0.787879" fill="white"/>
<rect x="24.167" y="15.9351" width="0.787879" height="0.787879" fill="white"/>
<rect x="25.7412" y="15.1482" width="0.787879" height="0.787879" fill="white"/>
<rect x="27.3154" y="13.5742" width="0.787879" height="0.787879" fill="white"/>
<rect x="27.3154" y="14.3608" width="0.787879" height="0.787879" fill="white"/>
<rect x="29.6768" y="13.5742" width="0.787879" height="0.787879" fill="white"/>
<rect x="30.4639" y="12.7869" width="0.787879" height="0.787879" fill="white"/>
<rect x="30.4639" y="13.5742" width="0.787879" height="0.787879" fill="white"/>
<rect x="31.251" y="12.7869" width="0.787879" height="0.787879" fill="white"/>
<rect x="32.0381" y="12.7869" width="0.787879" height="0.787879" fill="white"/>
<rect x="34.3994" y="12.7869" width="0.787879" height="0.787879" fill="white"/>
<rect x="35.1865" y="12.7869" width="0.787879" height="0.787879" fill="white"/>
<rect x="35.9736" y="12.7869" width="0.787879" height="0.787879" fill="white"/>
<rect x="38.335" y="12.7869" width="0.787879" height="0.787879" fill="white"/>
<rect x="37.5469" y="12.7869" width="0.787879" height="0.787879" fill="white"/>
<rect x="42.2695" y="13.5742" width="0.787879" height="0.787879" fill="white"/>
<rect x="41.4824" y="13.5742" width="0.787879" height="0.787879" fill="white"/>
<rect x="44.6309" y="14.3608" width="0.787879" height="0.787879" fill="white"/>
<rect x="43.8438" y="14.3608" width="0.787879" height="0.787879" fill="white"/>
<rect x="46.9922" y="14.3608" width="0.787879" height="0.787879" fill="white"/>
<rect x="46.2051" y="15.1482" width="0.787879" height="0.787879" fill="white"/>
<rect x="48.5664" y="15.1482" width="0.787879" height="0.787879" fill="white"/>
<rect x="47.7793" y="15.9351" width="0.787879" height="0.787879" fill="white"/>
<rect x="49.3535" y="16.7224" width="0.787879" height="0.787879" fill="white"/>
<rect x="48.5664" y="16.7224" width="0.787879" height="0.787879" fill="white"/>
<rect x="50.9277" y="16.7224" width="0.787879" height="0.787879" fill="white"/>
<rect x="50.1406" y="17.5098" width="0.787879" height="0.787879" fill="white"/>
<rect x="51.7148" y="17.5098" width="0.787879" height="0.787879" fill="white"/>
<rect x="50.9277" y="18.2966" width="0.787879" height="0.787879" fill="white"/>
<rect x="52.502" y="18.2966" width="0.787879" height="0.787879" fill="white"/>
<rect x="51.7148" y="19.084" width="0.787879" height="0.787879" fill="white"/>
<rect x="53.2891" y="19.084" width="0.787879" height="0.787879" fill="white"/>
<rect x="52.502" y="19.8706" width="0.787879" height="0.787879" fill="white"/>
<rect x="54.0762" y="19.8706" width="0.787879" height="0.787879" fill="white"/>
<rect x="53.2891" y="20.6575" width="0.787879" height="0.787879" fill="white"/>
<rect x="54.8633" y="20.6575" width="0.787879" height="0.787879" fill="white"/>
<rect x="54.0762" y="21.4448" width="0.787879" height="0.787879" fill="white"/>
<rect x="55.6504" y="21.4448" width="0.787879" height="0.787879" fill="white"/>
<rect x="54.8633" y="22.2322" width="0.787879" height="0.787879" fill="white"/>
<rect x="56.4375" y="22.2322" width="0.787879" height="0.787879" fill="white"/>
<rect x="56.4375" y="23.019" width="0.787879" height="0.787879" fill="white"/>
<rect x="55.6504" y="23.8064" width="0.787879" height="0.787879" fill="white"/>
<rect x="57.2236" y="23.8064" width="0.787879" height="0.787879" fill="white"/>
<rect x="56.4375" y="24.593" width="0.787879" height="0.787879" fill="white"/>
<rect x="58.0107" y="24.593" width="0.787879" height="0.787879" fill="white"/>
<rect x="58.0107" y="25.3804" width="0.787879" height="0.787879" fill="white"/>
<rect x="57.2236" y="26.1672" width="0.787879" height="0.787879" fill="white"/>
<rect x="58.7979" y="26.1672" width="0.787879" height="0.787879" fill="white"/>
<rect x="58.7979" y="26.9546" width="0.787879" height="0.787879" fill="white"/>
<rect x="58.7979" y="27.7412" width="0.787879" height="0.787879" fill="white"/>
<rect x="58.0107" y="28.5286" width="0.787879" height="0.787879" fill="white"/>
<rect x="59.585" y="28.5286" width="0.787879" height="0.787879" fill="white"/>
<rect x="59.585" y="29.3154" width="0.787879" height="0.787879" fill="white"/>
<rect x="59.585" y="30.1028" width="0.787879" height="0.787879" fill="white"/>
<rect x="58.7979" y="30.8896" width="0.787879" height="0.787879" fill="white"/>
<rect x="60.3721" y="30.8896" width="0.787879" height="0.787879" fill="white"/>
<rect x="60.3721" y="31.677" width="0.787879" height="0.787879" fill="white"/>
<rect x="60.3721" y="32.4636" width="0.787879" height="0.787879" fill="white"/>
<rect x="60.3721" y="33.251" width="0.787879" height="0.787879" fill="white"/>
<rect x="60.3721" y="34.0378" width="0.787879" height="0.787879" fill="white"/>
<rect x="59.585" y="34.8252" width="0.787879" height="0.787879" fill="white"/>
<rect x="61.1592" y="34.8252" width="0.787879" height="0.787879" fill="white"/>
<rect x="61.1592" y="35.6121" width="0.787879" height="0.787879" fill="white"/>
<rect x="61.1592" y="36.3994" width="0.787879" height="0.787879" fill="white"/>
<rect x="36.7607" y="12.7869" width="0.787879" height="0.787879" fill="white"/>
<rect x="39.1221" y="12.7869" width="0.787879" height="0.787879" fill="white"/>
<rect x="39.9082" y="12.7869" width="0.787879" height="0.787879" fill="white"/>
<rect x="40.6953" y="12" width="0.787879" height="0.787879" fill="white"/>
<rect x="40.6953" y="13.5742" width="0.787879" height="0.787879" fill="white"/>
<rect x="43.0566" y="13.5742" width="0.787879" height="0.787879" fill="white"/>
<rect x="43.8438" y="12.7869" width="0.787879" height="0.787879" fill="white"/>
<rect x="45.418" y="13.5742" width="0.787879" height="0.787879" fill="white"/>
<rect x="45.418" y="15.1482" width="0.787879" height="0.787879" fill="white"/>
<rect x="46.9922" y="15.9351" width="0.787879" height="0.787879" fill="white"/>
<rect x="50.1406" y="15.9351" width="0.787879" height="0.787879" fill="white"/>
<path d="M31.777 53.5558H22.0419C22.0419 53.5143 22.0419 53.4728 22.0419 53.4313V38.5443C22.0419 38.4645 22.0419 38.3846 22.0227 38.2696H20.001V36.1712H22.0547V34.0728H24.1435V32.0223H26.2036V34.0728H28.2669V32.0319H26.194V29.9207H28.2924V27.8191H30.4068V29.8951H32.435V27.8287H30.4068V25.7494H32.4829V23.6574H34.5685V21.6165H37.3568V23.6733H39.4457V25.7366H41.5249V21.6165H47.7786V34.0952H49.8675V36.2H51.9276V38.2601H49.8611V52.8308C49.8611 53.0703 49.8611 53.3099 49.8611 53.5494H40.1355C40.1355 53.4121 40.1355 53.2779 40.1355 53.1438C40.1355 49.2578 40.1355 45.3708 40.1355 41.4827V41.0995H31.793V53.1438C31.793 53.2779 31.7802 53.4121 31.777 53.5558ZM47.7467 36.2095V38.2249H49.81V36.2127H47.718V34.1303H45.6994V36.2064L47.7467 36.2095ZM24.1818 36.2095H26.2068V34.1335H24.1914V36.2127H22.1026V38.2249H24.1754L24.1818 36.2095ZM34.6005 25.7909H37.3249V27.8223H39.4137V25.7941H37.3057V23.7213H34.6228C34.6228 24.4271 34.6228 25.1106 34.6228 25.7941H32.5148V27.8191H34.5653C34.5653 27.6626 34.5653 27.5316 34.5653 27.3975L34.6005 25.7909ZM43.6297 32.0191V34.0728H45.6547V23.7181H43.6074V29.9526H41.5345V32.0127L43.6297 32.0191ZM39.4776 29.8983H41.5121V27.8702H39.4776V29.8983ZM30.4068 29.975H28.3723V32.0063H30.4068V29.975Z" fill="white"/>
</svg>
