<svg width="301" height="76" viewBox="0 0 301 76" fill="none" xmlns="http://www.w3.org/2000/svg">
<path d="M12.0227 75.9289V72.5729H6.1714L5.91529 69.1044C3.02906 68.4462 3.02906 68.4463 2.99951 64.954C2.99951 62.0487 2.76309 61.7878 0 61.266V14.6806C0.147759 14.5502 0.226564 14.4138 0.315219 14.4019C2.90593 14.0758 2.99951 13.9454 3.01429 10.6488C3.01429 9.54595 3.01429 8.44313 3.01429 7.23358L5.96947 7.06163L6.10738 3.5575H11.9291L12.1212 0H288.958L289.233 3.5575H295.031C295.085 4.82634 295.129 5.86394 295.188 7.115H298.104V10.6251C298.104 14.058 298.148 14.1055 301 14.5205V61.3609C298.183 61.8767 298.119 61.9538 298.114 65.6536C298.114 66.6379 298.114 67.6221 298.114 68.7783L295.218 69.0451C295.159 70.1716 295.104 71.2092 295.035 72.5077H289.253C289.164 73.7943 289.091 74.8201 289.002 76L12.0227 75.9289Z" fill="white"/>
<path d="M63.1152 38.853H63.9295V39.6609H63.1152V38.853Z" fill="#4CC8CD"/>
<path d="M63.1152 39.6609H63.9295V40.4688H63.1152V39.6609Z" fill="#4CC8CD"/>
<path d="M63.1152 40.4688H63.9295V41.2767H63.1152V40.4688Z" fill="#4CC8CD"/>
<path d="M62.3009 41.2767H63.1152V42.0846H62.3009V41.2767Z" fill="#4CC8CD"/>
<path d="M62.3009 42.0846H63.1152V42.8926H62.3009V42.0846Z" fill="#4CC8CD"/>
<path d="M62.3009 42.8926H63.1152V43.7005H62.3009V42.8926Z" fill="#4CC8CD"/>
<path d="M62.3009 43.7005H63.1152V44.5084H62.3009V43.7005Z" fill="#4CC8CD"/>
<path d="M62.3009 44.5084H63.1152V45.3163H62.3009V44.5084Z" fill="#4CC8CD"/>
<path d="M62.3009 45.3163H63.1152V46.1242H62.3009V45.3163Z" fill="#4CC8CD"/>
<path d="M61.4866 46.1242H62.3009V46.9321H61.4866V46.1242Z" fill="#4CC8CD"/>
<path d="M61.4866 46.9321H62.3009V47.74H61.4866V46.9321Z" fill="#4CC8CD"/>
<path d="M61.4866 47.74H62.3009V48.5479H61.4866V47.74Z" fill="#4CC8CD"/>
<path d="M60.6723 48.5479H61.4866V49.3558H60.6723V48.5479Z" fill="#4CC8CD"/>
<path d="M60.6723 49.3558H61.4866V50.1637H60.6723V49.3558Z" fill="#4CC8CD"/>
<path d="M59.858 50.1637H60.6723V50.9716H59.858V50.1637Z" fill="#4CC8CD"/>
<path d="M59.858 50.9716H60.6723V51.7795H59.858V50.9716Z" fill="#4CC8CD"/>
<path d="M59.0437 51.7795H59.858V52.5874H59.0437V51.7795Z" fill="#4CC8CD"/>
<path d="M58.2294 52.5874H59.0437V53.3953H58.2294V52.5874Z" fill="#4CC8CD"/>
<path d="M58.2294 53.3953H59.0437V54.2032H58.2294V53.3953Z" fill="#4CC8CD"/>
<path d="M57.4151 54.2032H58.2294V55.0112H57.4151V54.2032Z" fill="#4CC8CD"/>
<path d="M56.6008 55.0112H57.4151V55.8191H56.6008V55.0112Z" fill="#4CC8CD"/>
<path d="M55.7865 55.8191H56.6008V56.627H55.7865V55.8191Z" fill="#4CC8CD"/>
<path d="M54.9722 56.627H55.7865V57.4349H54.9722V56.627Z" fill="#4CC8CD"/>
<path d="M54.1579 57.4349H54.9722V58.2428H54.1579V57.4349Z" fill="#4CC8CD"/>
<path d="M53.3436 58.2428H54.1579V59.0507H53.3436V58.2428Z" fill="#4CC8CD"/>
<path d="M52.5293 59.0507H53.3436V59.8586H52.5293V59.0507Z" fill="#4CC8CD"/>
<path d="M51.715 59.8586H52.5293V60.6665H51.715V59.8586Z" fill="#4CC8CD"/>
<path d="M50.0864 60.6665H50.9007V61.4744H50.0864V60.6665Z" fill="#4CC8CD"/>
<path d="M48.4578 61.4744H49.2721V62.2823H48.4578V61.4744Z" fill="#4CC8CD"/>
<path d="M46.8292 62.2823H47.6435V63.0902H46.8292V62.2823Z" fill="#4CC8CD"/>
<path d="M44.3863 63.0902H45.2006V63.8981H44.3863V63.0902Z" fill="#4CC8CD"/>
<path d="M41.1291 63.8981H41.9434V64.706H41.1291V63.8981Z" fill="#4CC8CD"/>
<path d="M37.0576 63.8981H37.8719V64.706H37.0576V63.8981Z" fill="#4CC8CD"/>
<path d="M37.8719 63.8981H38.6862V64.706H37.8719V63.8981Z" fill="#4CC8CD"/>
<path d="M38.6862 63.8981H39.5005V64.706H38.6862V63.8981Z" fill="#4CC8CD"/>
<path d="M39.5005 63.8981H40.3148V64.706H39.5005V63.8981Z" fill="#4CC8CD"/>
<path d="M40.3148 63.8981H41.1291V64.706H40.3148V63.8981Z" fill="#4CC8CD"/>
<path d="M41.9434 63.8981H42.7577V64.706H41.9434V63.8981Z" fill="#4CC8CD"/>
<path d="M42.7577 63.8981H43.572V64.706H42.7577V63.8981Z" fill="#4CC8CD"/>
<path d="M43.572 63.0902H44.3863V63.8981H43.572V63.0902Z" fill="#4CC8CD"/>
<path d="M45.2006 63.0902H46.0149V63.8981H45.2006V63.0902Z" fill="#4CC8CD"/>
<path d="M46.0149 62.2823H46.8292V63.0902H46.0149V62.2823Z" fill="#4CC8CD"/>
<path d="M47.6435 62.2823H48.4578V63.0902H47.6435V62.2823Z" fill="#4CC8CD"/>
<path d="M49.2721 61.4744H50.0864V62.2823H49.2721V61.4744Z" fill="#4CC8CD"/>
<path d="M50.9007 59.8586H51.715V60.6665H50.9007V59.8586Z" fill="#4CC8CD"/>
<path d="M11 38.853H11.8143V39.6609H11V38.853Z" fill="#4CC8CD"/>
<path d="M11 39.6609H11.8143V40.4688H11V39.6609Z" fill="#4CC8CD"/>
<path d="M11 40.4688H11.8143V41.2767H11V40.4688Z" fill="#4CC8CD"/>
<path d="M11 41.2767H11.8143V42.0846H11V41.2767Z" fill="#4CC8CD"/>
<path d="M11 42.0846H11.8143V42.8926H11V42.0846Z" fill="#4CC8CD"/>
<path d="M11.8143 42.8926H12.6286V43.7005H11.8143V42.8926Z" fill="#4CC8CD"/>
<path d="M11.8143 43.7005H12.6286V44.5084H11.8143V43.7005Z" fill="#4CC8CD"/>
<path d="M11.8143 44.5084H12.6286V45.3163H11.8143V44.5084Z" fill="#4CC8CD"/>
<path d="M11.8143 45.3163H12.6286V46.1242H11.8143V45.3163Z" fill="#4CC8CD"/>
<path d="M12.6286 46.1242H13.4429V46.9321H12.6286V46.1242Z" fill="#4CC8CD"/>
<path d="M12.6286 46.9321H13.4429V47.74H12.6286V46.9321Z" fill="#4CC8CD"/>
<path d="M12.6286 47.74H13.4429V48.5479H12.6286V47.74Z" fill="#4CC8CD"/>
<path d="M13.4429 48.5479H14.2572V49.3558H13.4429V48.5479Z" fill="#4CC8CD"/>
<path d="M13.4429 49.3558H14.2572V50.1637H13.4429V49.3558Z" fill="#4CC8CD"/>
<path d="M14.2572 50.1637H15.0715V50.9716H14.2572V50.1637Z" fill="#4CC8CD"/>
<path d="M14.2572 50.9716H15.0715V51.7795H14.2572V50.9716Z" fill="#4CC8CD"/>
<path d="M15.0715 51.7795H15.8858V52.5874H15.0715V51.7795Z" fill="#4CC8CD"/>
<path d="M15.0715 52.5874H15.8858V53.3953H15.0715V52.5874Z" fill="#4CC8CD"/>
<path d="M15.8858 53.3953H16.7001V54.2032H15.8858V53.3953Z" fill="#4CC8CD"/>
<path d="M16.7001 54.2032H17.5144V55.0112H16.7001V54.2032Z" fill="#4CC8CD"/>
<path d="M17.5144 55.0112H18.3287V55.8191H17.5144V55.0112Z" fill="#4CC8CD"/>
<path d="M17.5144 55.8191H18.3287V56.627H17.5144V55.8191Z" fill="#4CC8CD"/>
<path d="M18.3287 56.627H19.143V57.4349H18.3287V56.627Z" fill="#4CC8CD"/>
<path d="M19.143 57.4349H19.9573V58.2428H19.143V57.4349Z" fill="#4CC8CD"/>
<path d="M20.7716 58.2428H21.5859V59.0507H20.7716V58.2428Z" fill="#4CC8CD"/>
<path d="M21.5859 59.0507H22.4002V59.8586H21.5859V59.0507Z" fill="#4CC8CD"/>
<path d="M22.4002 59.8586H23.2145V60.6665H22.4002V59.8586Z" fill="#4CC8CD"/>
<path d="M24.0288 60.6665H24.8431V61.4744H24.0288V60.6665Z" fill="#4CC8CD"/>
<path d="M25.6574 61.4744H26.4717V62.2823H25.6574V61.4744Z" fill="#4CC8CD"/>
<path d="M27.286 62.2823H28.1003V63.0902H27.286V62.2823Z" fill="#4CC8CD"/>
<path d="M29.7289 63.0902H30.5432V63.8981H29.7289V63.0902Z" fill="#4CC8CD"/>
<path d="M32.9861 63.8981H33.8004V64.706H32.9861V63.8981Z" fill="#4CC8CD"/>
<path d="M19.9573 57.4349H20.7716V58.2428H19.9573V57.4349Z" fill="#4CC8CD"/>
<path d="M23.2145 59.8586H24.0288V60.6665H23.2145V59.8586Z" fill="#4CC8CD"/>
<path d="M24.8431 61.4744H25.6574V62.2823H24.8431V61.4744Z" fill="#4CC8CD"/>
<path d="M26.4717 62.2823H27.286V63.0902H26.4717V62.2823Z" fill="#4CC8CD"/>
<path d="M28.1003 62.2823H28.9146V63.0902H28.1003V62.2823Z" fill="#4CC8CD"/>
<path d="M28.9146 63.0902H29.7289V63.8981H28.9146V63.0902Z" fill="#4CC8CD"/>
<path d="M30.5432 63.0902H31.3575V63.8981H30.5432V63.0902Z" fill="#4CC8CD"/>
<path d="M31.3575 63.8981H32.1718V64.706H31.3575V63.8981Z" fill="#4CC8CD"/>
<path d="M32.1718 63.8981H32.9861V64.706H32.1718V63.8981Z" fill="#4CC8CD"/>
<path d="M33.8004 63.8981H34.6147V64.706H33.8004V63.8981Z" fill="#4CC8CD"/>
<path d="M34.6147 63.8981H35.429V64.706H34.6147V63.8981Z" fill="#4CC8CD"/>
<path d="M35.429 63.8981H36.2433V64.706H35.429V63.8981Z" fill="#4CC8CD"/>
<path d="M36.2433 63.8981H37.0576V64.706H36.2433V63.8981Z" fill="#4CC8CD"/>
<path d="M34.6147 13H35.429V13.8079H34.6147V13Z" fill="#4CC8CD"/>
<path d="M29.7289 13.8079H30.5432V14.6158H29.7289V13.8079Z" fill="#4CC8CD"/>
<path d="M27.286 14.6158H28.1003V15.4237H27.286V14.6158Z" fill="#4CC8CD"/>
<path d="M25.6574 15.4237H26.4717V16.2316H25.6574V15.4237Z" fill="#4CC8CD"/>
<path d="M24.0288 16.2316H24.8431V17.0395H24.0288V16.2316Z" fill="#4CC8CD"/>
<path d="M23.2145 17.0395H24.0288V17.8474H23.2145V17.0395Z" fill="#4CC8CD"/>
<path d="M21.5859 17.8474H22.4002V18.6553H21.5859V17.8474Z" fill="#4CC8CD"/>
<path d="M20.7716 18.6553H21.5859V19.4633H20.7716V18.6553Z" fill="#4CC8CD"/>
<path d="M19.9573 19.4633H20.7716V20.2712H19.9573V19.4633Z" fill="#4CC8CD"/>
<path d="M19.143 20.2712H19.9573V21.0791H19.143V20.2712Z" fill="#4CC8CD"/>
<path d="M18.3287 21.0791H19.143V21.887H18.3287V21.0791Z" fill="#4CC8CD"/>
<path d="M17.5144 21.887H18.3287V22.6949H17.5144V21.887Z" fill="#4CC8CD"/>
<path d="M16.7001 22.6949H17.5144V23.5028H16.7001V22.6949Z" fill="#4CC8CD"/>
<path d="M15.8858 23.5028H16.7001V24.3107H15.8858V23.5028Z" fill="#4CC8CD"/>
<path d="M15.0715 24.3107H15.8858V25.1186H15.0715V24.3107Z" fill="#4CC8CD"/>
<path d="M15.0715 25.1186H15.8858V25.9265H15.0715V25.1186Z" fill="#4CC8CD"/>
<path d="M14.2572 25.9265H15.0715V26.7344H14.2572V25.9265Z" fill="#4CC8CD"/>
<path d="M14.2572 26.7344H15.0715V27.5423H14.2572V26.7344Z" fill="#4CC8CD"/>
<path d="M13.4429 27.5423H14.2572V28.3502H13.4429V27.5423Z" fill="#4CC8CD"/>
<path d="M13.4429 28.3502H14.2572V29.1581H13.4429V28.3502Z" fill="#4CC8CD"/>
<path d="M12.6286 29.1581H13.4429V29.966H12.6286V29.1581Z" fill="#4CC8CD"/>
<path d="M12.6286 29.966H13.4429V30.774H12.6286V29.966Z" fill="#4CC8CD"/>
<path d="M12.6286 30.774H13.4429V31.5819H12.6286V30.774Z" fill="#4CC8CD"/>
<path d="M11.8143 31.5819H12.6286V32.3898H11.8143V31.5819Z" fill="#4CC8CD"/>
<path d="M11.8143 32.3898H12.6286V33.1977H11.8143V32.3898Z" fill="#4CC8CD"/>
<path d="M11.8143 33.1977H12.6286V34.0056H11.8143V33.1977Z" fill="#4CC8CD"/>
<path d="M11.8143 34.0056H12.6286V34.8135H11.8143V34.0056Z" fill="#4CC8CD"/>
<path d="M11 34.8135H11.8143V35.6214H11V34.8135Z" fill="#4CC8CD"/>
<path d="M11 35.6214H11.8143V36.4293H11V35.6214Z" fill="#4CC8CD"/>
<path d="M11 36.4293H11.8143V37.2372H11V36.4293Z" fill="#4CC8CD"/>
<path d="M11 37.2372H11.8143V38.0451H11V37.2372Z" fill="#4CC8CD"/>
<path d="M11 38.0451H11.8143V38.853H11V38.0451Z" fill="#4CC8CD"/>
<path d="M22.4002 17.0395H23.2145V17.8474H22.4002V17.0395Z" fill="#4CC8CD"/>
<path d="M24.8431 16.2316H25.6574V17.0395H24.8431V16.2316Z" fill="#4CC8CD"/>
<path d="M26.4717 15.4237H27.286V16.2316H26.4717V15.4237Z" fill="#4CC8CD"/>
<path d="M28.1003 14.6158H28.9146V15.4237H28.1003V14.6158Z" fill="#4CC8CD"/>
<path d="M28.9146 13.8079H29.7289V14.6158H28.9146V13.8079Z" fill="#4CC8CD"/>
<path d="M30.5432 13.8079H31.3575V14.6158H30.5432V13.8079Z" fill="#4CC8CD"/>
<path d="M31.3575 13.8079H32.1718V14.6158H31.3575V13.8079Z" fill="#4CC8CD"/>
<path d="M32.1718 13H32.9861V13.8079H32.1718V13Z" fill="#4CC8CD"/>
<path d="M32.9861 13H33.8004V13.8079H32.9861V13Z" fill="#4CC8CD"/>
<path d="M33.8004 13H34.6147V13.8079H33.8004V13Z" fill="#4CC8CD"/>
<path d="M35.429 13H36.2433V13.8079H35.429V13Z" fill="#4CC8CD"/>
<path d="M36.2433 13H37.0576V13.8079H36.2433V13Z" fill="#4CC8CD"/>
<path d="M37.0576 13H37.8719V13.8079H37.0576V13Z" fill="#4CC8CD"/>
<path d="M39.5005 13H40.3148V13.8079H39.5005V13Z" fill="#4CC8CD"/>
<path d="M43.572 13.8079H44.3863V14.6158H43.572V13.8079Z" fill="#4CC8CD"/>
<path d="M46.0149 14.6158H46.8292V15.4237H46.0149V14.6158Z" fill="#4CC8CD"/>
<path d="M48.4578 15.4237H49.2721V16.2316H48.4578V15.4237Z" fill="#4CC8CD"/>
<path d="M50.0864 16.2316H50.9007V17.0395H50.0864V16.2316Z" fill="#4CC8CD"/>
<path d="M50.9007 17.0395H51.715V17.8474H50.9007V17.0395Z" fill="#4CC8CD"/>
<path d="M52.5293 17.8474H53.3436V18.6553H52.5293V17.8474Z" fill="#4CC8CD"/>
<path d="M53.3436 18.6553H54.1579V19.4633H53.3436V18.6553Z" fill="#4CC8CD"/>
<path d="M54.1579 19.4633H54.9722V20.2712H54.1579V19.4633Z" fill="#4CC8CD"/>
<path d="M54.9722 20.2712H55.7865V21.0791H54.9722V20.2712Z" fill="#4CC8CD"/>
<path d="M55.7865 21.0791H56.6008V21.887H55.7865V21.0791Z" fill="#4CC8CD"/>
<path d="M56.6008 21.887H57.4151V22.6949H56.6008V21.887Z" fill="#4CC8CD"/>
<path d="M57.4151 22.6949H58.2294V23.5028H57.4151V22.6949Z" fill="#4CC8CD"/>
<path d="M58.2294 23.5028H59.0437V24.3107H58.2294V23.5028Z" fill="#4CC8CD"/>
<path d="M58.2294 24.3107H59.0437V25.1186H58.2294V24.3107Z" fill="#4CC8CD"/>
<path d="M59.0437 25.1186H59.858V25.9265H59.0437V25.1186Z" fill="#4CC8CD"/>
<path d="M59.858 25.9265H60.6723V26.7344H59.858V25.9265Z" fill="#4CC8CD"/>
<path d="M59.858 26.7344H60.6723V27.5423H59.858V26.7344Z" fill="#4CC8CD"/>
<path d="M60.6723 27.5423H61.4866V28.3502H60.6723V27.5423Z" fill="#4CC8CD"/>
<path d="M60.6723 28.3502H61.4866V29.1581H60.6723V28.3502Z" fill="#4CC8CD"/>
<path d="M60.6723 29.1581H61.4866V29.966H60.6723V29.1581Z" fill="#4CC8CD"/>
<path d="M61.4866 29.966H62.3009V30.774H61.4866V29.966Z" fill="#4CC8CD"/>
<path d="M61.4866 30.774H62.3009V31.5819H61.4866V30.774Z" fill="#4CC8CD"/>
<path d="M61.4866 31.5819H62.3009V32.3898H61.4866V31.5819Z" fill="#4CC8CD"/>
<path d="M62.3009 32.3898H63.1152V33.1977H62.3009V32.3898Z" fill="#4CC8CD"/>
<path d="M62.3009 33.1977H63.1152V34.0056H62.3009V33.1977Z" fill="#4CC8CD"/>
<path d="M62.3009 34.0056H63.1152V34.8135H62.3009V34.0056Z" fill="#4CC8CD"/>
<path d="M62.3009 34.8135H63.1152V35.6214H62.3009V34.8135Z" fill="#4CC8CD"/>
<path d="M62.3009 35.6214H63.1152V36.4293H62.3009V35.6214Z" fill="#4CC8CD"/>
<path d="M63.1152 36.4293H63.9295V37.2372H63.1152V36.4293Z" fill="#4CC8CD"/>
<path d="M63.1152 37.2372H63.9295V38.0451H63.1152V37.2372Z" fill="#4CC8CD"/>
<path d="M63.1152 38.0451H63.9295V38.853H63.1152V38.0451Z" fill="#4CC8CD"/>
<path d="M37.8719 13H38.6862V13.8079H37.8719V13Z" fill="#4CC8CD"/>
<path d="M38.6862 13H39.5005V13.8079H38.6862V13Z" fill="#4CC8CD"/>
<path d="M40.3148 13H41.1291V13.8079H40.3148V13Z" fill="#4CC8CD"/>
<path d="M41.1291 13H41.9434V13.8079H41.1291V13Z" fill="#4CC8CD"/>
<path d="M41.9434 13H42.7577V13.8079H41.9434V13Z" fill="#4CC8CD"/>
<path d="M42.7577 13.8079H43.572V14.6158H42.7577V13.8079Z" fill="#4CC8CD"/>
<path d="M44.3863 13.8079H45.2006V14.6158H44.3863V13.8079Z" fill="#4CC8CD"/>
<path d="M45.2006 13.8079H46.0149V14.6158H45.2006V13.8079Z" fill="#4CC8CD"/>
<path d="M46.8292 14.6158H47.6435V15.4237H46.8292V14.6158Z" fill="#4CC8CD"/>
<path d="M47.6435 15.4237H48.4578V16.2316H47.6435V15.4237Z" fill="#4CC8CD"/>
<path d="M49.2721 16.2316H50.0864V17.0395H49.2721V16.2316Z" fill="#4CC8CD"/>
<path d="M51.715 17.0395H52.5293V17.8474H51.715V17.0395Z" fill="#4CC8CD"/>
<rect x="63.1152" y="38.8535" width="0.814299" height="0.807907" fill="#4CC8CD"/>
<rect x="63.1152" y="39.6616" width="0.814299" height="0.807907" fill="#4CC8CD"/>
<rect x="63.1152" y="40.469" width="0.814299" height="0.807907" fill="#4CC8CD"/>
<rect x="62.3008" y="41.2771" width="0.814299" height="0.807907" fill="#4CC8CD"/>
<rect x="62.3008" y="42.0842" width="0.814299" height="0.807907" fill="#4CC8CD"/>
<rect x="62.3008" y="42.8936" width="0.814299" height="0.807907" fill="#4CC8CD"/>
<rect x="62.3008" y="43.7007" width="0.814299" height="0.807907" fill="#4CC8CD"/>
<rect x="62.3008" y="44.5088" width="0.814299" height="0.807907" fill="#4CC8CD"/>
<rect x="62.3008" y="45.3159" width="0.814299" height="0.807907" fill="#4CC8CD"/>
<rect x="61.4863" y="46.1245" width="0.814299" height="0.807907" fill="#4CC8CD"/>
<rect x="61.4863" y="46.9326" width="0.814299" height="0.807907" fill="#4CC8CD"/>
<rect x="61.4863" y="47.7407" width="0.814299" height="0.807907" fill="#4CC8CD"/>
<rect x="60.6719" y="48.5479" width="0.814299" height="0.807907" fill="#4CC8CD"/>
<rect x="60.6719" y="49.356" width="0.814299" height="0.807907" fill="#4CC8CD"/>
<rect x="59.8584" y="50.1641" width="0.814299" height="0.807907" fill="#4CC8CD"/>
<rect x="59.8584" y="50.9727" width="0.814299" height="0.807907" fill="#4CC8CD"/>
<rect x="59.0439" y="51.7798" width="0.814299" height="0.807907" fill="#4CC8CD"/>
<rect x="58.2295" y="52.5879" width="0.814299" height="0.807907" fill="#4CC8CD"/>
<rect x="58.2295" y="53.395" width="0.814299" height="0.807907" fill="#4CC8CD"/>
<rect x="57.415" y="54.2031" width="0.814299" height="0.807907" fill="#4CC8CD"/>
<rect x="56.6006" y="55.0112" width="0.814299" height="0.807907" fill="#4CC8CD"/>
<rect x="55.7861" y="55.8198" width="0.814299" height="0.807907" fill="#4CC8CD"/>
<rect x="54.9727" y="56.627" width="0.814299" height="0.807907" fill="#4CC8CD"/>
<rect x="54.1582" y="57.4351" width="0.814299" height="0.807907" fill="#4CC8CD"/>
<rect x="53.3438" y="58.2432" width="0.814299" height="0.807907" fill="#4CC8CD"/>
<rect x="52.5293" y="59.0513" width="0.814299" height="0.807907" fill="#4CC8CD"/>
<rect x="51.7148" y="59.8584" width="0.814299" height="0.807907" fill="#4CC8CD"/>
<rect x="50.0859" y="60.667" width="0.814299" height="0.807907" fill="#4CC8CD"/>
<rect x="48.458" y="61.4741" width="0.814299" height="0.807907" fill="#4CC8CD"/>
<rect x="46.8291" y="62.2832" width="0.814299" height="0.807907" fill="#4CC8CD"/>
<rect x="44.3867" y="63.0903" width="0.814299" height="0.807907" fill="#4CC8CD"/>
<rect x="41.1289" y="63.8984" width="0.814299" height="0.807907" fill="#4CC8CD"/>
<rect x="37.0576" y="63.8984" width="0.814299" height="0.807907" fill="#4CC8CD"/>
<rect x="37.8721" y="63.8984" width="0.814299" height="0.807907" fill="#4CC8CD"/>
<rect x="38.6865" y="63.8984" width="0.814299" height="0.807907" fill="#4CC8CD"/>
<rect x="39.5" y="63.8984" width="0.814299" height="0.807907" fill="#4CC8CD"/>
<rect x="40.3145" y="63.8984" width="0.814299" height="0.807907" fill="#4CC8CD"/>
<rect x="41.9434" y="63.8984" width="0.814299" height="0.807907" fill="#4CC8CD"/>
<rect x="42.7578" y="63.8984" width="0.814299" height="0.807907" fill="#4CC8CD"/>
<rect x="43.5723" y="63.0903" width="0.814299" height="0.807907" fill="#4CC8CD"/>
<rect x="45.2002" y="63.0903" width="0.814299" height="0.807907" fill="#4CC8CD"/>
<rect x="46.0146" y="62.2832" width="0.814299" height="0.807907" fill="#4CC8CD"/>
<rect x="47.6436" y="62.2832" width="0.814299" height="0.807907" fill="#4CC8CD"/>
<rect x="49.2725" y="61.4741" width="0.814299" height="0.807907" fill="#4CC8CD"/>
<rect x="50.9004" y="59.8584" width="0.814299" height="0.807907" fill="#4CC8CD"/>
<rect x="11" y="38.8535" width="0.814299" height="0.807907" fill="#4CC8CD"/>
<rect x="11" y="39.6616" width="0.814299" height="0.807907" fill="#4CC8CD"/>
<rect x="11" y="40.469" width="0.814299" height="0.807907" fill="#4CC8CD"/>
<rect x="11" y="41.2771" width="0.814299" height="0.807907" fill="#4CC8CD"/>
<rect x="11" y="42.0842" width="0.814299" height="0.807907" fill="#4CC8CD"/>
<rect x="11.8145" y="42.8936" width="0.814299" height="0.807907" fill="#4CC8CD"/>
<rect x="11.8145" y="43.7007" width="0.814299" height="0.807907" fill="#4CC8CD"/>
<rect x="11.8145" y="44.5088" width="0.814299" height="0.807907" fill="#4CC8CD"/>
<rect x="11.8145" y="45.3159" width="0.814299" height="0.807907" fill="#4CC8CD"/>
<rect x="12.6289" y="46.1245" width="0.814299" height="0.807907" fill="#4CC8CD"/>
<rect x="12.6289" y="46.9326" width="0.814299" height="0.807907" fill="#4CC8CD"/>
<rect x="12.6289" y="47.7407" width="0.814299" height="0.807907" fill="#4CC8CD"/>
<rect x="13.4434" y="48.5479" width="0.814299" height="0.807907" fill="#4CC8CD"/>
<rect x="13.4434" y="49.356" width="0.814299" height="0.807907" fill="#4CC8CD"/>
<rect x="14.2568" y="50.1641" width="0.814299" height="0.807907" fill="#4CC8CD"/>
<rect x="14.2568" y="50.9727" width="0.814299" height="0.807907" fill="#4CC8CD"/>
<rect x="15.0713" y="51.7798" width="0.814299" height="0.807907" fill="#4CC8CD"/>
<rect x="15.0713" y="52.5879" width="0.814299" height="0.807907" fill="#4CC8CD"/>
<rect x="15.8857" y="53.395" width="0.814299" height="0.807907" fill="#4CC8CD"/>
<rect x="16.7002" y="54.2031" width="0.814299" height="0.807907" fill="#4CC8CD"/>
<rect x="17.5146" y="55.0112" width="0.814299" height="0.807907" fill="#4CC8CD"/>
<rect x="17.5146" y="55.8198" width="0.814299" height="0.807907" fill="#4CC8CD"/>
<rect x="18.3291" y="56.627" width="0.814299" height="0.807907" fill="#4CC8CD"/>
<rect x="19.1426" y="57.4351" width="0.814299" height="0.807907" fill="#4CC8CD"/>
<rect x="20.7715" y="58.2432" width="0.814299" height="0.807907" fill="#4CC8CD"/>
<rect x="21.5859" y="59.0513" width="0.814299" height="0.807907" fill="#4CC8CD"/>
<rect x="22.4004" y="59.8584" width="0.814299" height="0.807907" fill="#4CC8CD"/>
<rect x="24.0283" y="60.667" width="0.814299" height="0.807907" fill="#4CC8CD"/>
<rect x="25.6572" y="61.4741" width="0.814299" height="0.807907" fill="#4CC8CD"/>
<rect x="27.2861" y="62.2832" width="0.814299" height="0.807907" fill="#4CC8CD"/>
<rect x="29.7285" y="63.0903" width="0.814299" height="0.807907" fill="#4CC8CD"/>
<rect x="32.9863" y="63.8984" width="0.814299" height="0.807907" fill="#4CC8CD"/>
<rect x="19.957" y="57.4351" width="0.814299" height="0.807907" fill="#4CC8CD"/>
<rect x="23.2148" y="59.8584" width="0.814299" height="0.807907" fill="#4CC8CD"/>
<rect x="24.8428" y="61.4741" width="0.814299" height="0.807907" fill="#4CC8CD"/>
<rect x="26.4717" y="62.2832" width="0.814299" height="0.807907" fill="#4CC8CD"/>
<rect x="28.1006" y="62.2832" width="0.814299" height="0.807907" fill="#4CC8CD"/>
<rect x="28.915" y="63.0903" width="0.814299" height="0.807907" fill="#4CC8CD"/>
<rect x="30.543" y="63.0903" width="0.814299" height="0.807907" fill="#4CC8CD"/>
<rect x="31.3574" y="63.8984" width="0.814299" height="0.807907" fill="#4CC8CD"/>
<rect x="32.1719" y="63.8984" width="0.814299" height="0.807907" fill="#4CC8CD"/>
<rect x="33.8008" y="63.8984" width="0.814299" height="0.807907" fill="#4CC8CD"/>
<rect x="34.6143" y="63.8984" width="0.814299" height="0.807907" fill="#4CC8CD"/>
<rect x="35.4287" y="63.8984" width="0.814299" height="0.807907" fill="#4CC8CD"/>
<rect x="36.2432" y="63.8984" width="0.814299" height="0.807907" fill="#4CC8CD"/>
<rect x="34.6143" y="13.0002" width="0.814299" height="0.807907" fill="#4CC8CD"/>
<rect x="29.7285" y="13.8083" width="0.814299" height="0.807907" fill="#4CC8CD"/>
<rect x="27.2861" y="14.6157" width="0.814299" height="0.807907" fill="#4CC8CD"/>
<rect x="25.6572" y="15.4238" width="0.814299" height="0.807907" fill="#4CC8CD"/>
<rect x="24.0283" y="16.2319" width="0.814299" height="0.807907" fill="#4CC8CD"/>
<rect x="23.2148" y="17.0403" width="0.814299" height="0.807907" fill="#4CC8CD"/>
<rect x="21.5859" y="17.8474" width="0.814299" height="0.807907" fill="#4CC8CD"/>
<rect x="20.7715" y="18.6555" width="0.814299" height="0.807907" fill="#4CC8CD"/>
<rect x="19.957" y="19.4639" width="0.814299" height="0.807907" fill="#4CC8CD"/>
<rect x="19.1426" y="20.272" width="0.814299" height="0.807907" fill="#4CC8CD"/>
<rect x="18.3291" y="21.0791" width="0.814299" height="0.807907" fill="#4CC8CD"/>
<rect x="17.5146" y="21.8875" width="0.814299" height="0.807907" fill="#4CC8CD"/>
<rect x="16.7002" y="22.6946" width="0.814299" height="0.807907" fill="#4CC8CD"/>
<rect x="15.8857" y="23.5037" width="0.814299" height="0.807907" fill="#4CC8CD"/>
<rect x="15.0713" y="24.311" width="0.814299" height="0.807907" fill="#4CC8CD"/>
<rect x="15.0713" y="25.1191" width="0.814299" height="0.807907" fill="#4CC8CD"/>
<rect x="14.2568" y="25.9265" width="0.814299" height="0.807907" fill="#4CC8CD"/>
<rect x="14.2568" y="26.7346" width="0.814299" height="0.807907" fill="#4CC8CD"/>
<rect x="13.4434" y="27.5427" width="0.814299" height="0.807907" fill="#4CC8CD"/>
<rect x="13.4434" y="28.3508" width="0.814299" height="0.807907" fill="#4CC8CD"/>
<rect x="12.6289" y="29.1582" width="0.814299" height="0.807907" fill="#4CC8CD"/>
<rect x="12.6289" y="29.9663" width="0.814299" height="0.807907" fill="#4CC8CD"/>
<rect x="12.6289" y="30.7744" width="0.814299" height="0.807907" fill="#4CC8CD"/>
<rect x="11.8145" y="31.5828" width="0.814299" height="0.807907" fill="#4CC8CD"/>
<rect x="11.8145" y="32.3899" width="0.814299" height="0.807907" fill="#4CC8CD"/>
<rect x="11.8145" y="33.1982" width="0.814299" height="0.807907" fill="#4CC8CD"/>
<rect x="11.8145" y="34.0054" width="0.814299" height="0.807907" fill="#4CC8CD"/>
<rect x="11" y="34.8135" width="0.814299" height="0.807907" fill="#4CC8CD"/>
<rect x="11" y="35.6218" width="0.814299" height="0.807907" fill="#4CC8CD"/>
<rect x="11" y="36.4299" width="0.814299" height="0.807907" fill="#4CC8CD"/>
<rect x="11" y="37.2371" width="0.814299" height="0.807907" fill="#4CC8CD"/>
<rect x="11" y="38.0454" width="0.814299" height="0.807907" fill="#4CC8CD"/>
<rect x="22.4004" y="17.0403" width="0.814299" height="0.807907" fill="#4CC8CD"/>
<rect x="24.8428" y="16.2319" width="0.814299" height="0.807907" fill="#4CC8CD"/>
<rect x="26.4717" y="15.4238" width="0.814299" height="0.807907" fill="#4CC8CD"/>
<rect x="28.1006" y="14.6157" width="0.814299" height="0.807907" fill="#4CC8CD"/>
<rect x="28.915" y="13.8083" width="0.814299" height="0.807907" fill="#4CC8CD"/>
<rect x="30.543" y="13.8083" width="0.814299" height="0.807907" fill="#4CC8CD"/>
<rect x="31.3574" y="13.8083" width="0.814299" height="0.807907" fill="#4CC8CD"/>
<rect x="32.1719" y="13.0002" width="0.814299" height="0.807907" fill="#4CC8CD"/>
<rect x="32.9863" y="13.0002" width="0.814299" height="0.807907" fill="#4CC8CD"/>
<rect x="33.8008" y="13.0002" width="0.814299" height="0.807907" fill="#4CC8CD"/>
<rect x="35.4287" y="13.0002" width="0.814299" height="0.807907" fill="#4CC8CD"/>
<rect x="36.2432" y="13.0002" width="0.814299" height="0.807907" fill="#4CC8CD"/>
<rect x="37.0576" y="13.0002" width="0.814299" height="0.807907" fill="#4CC8CD"/>
<rect x="39.5" y="13.0002" width="0.814299" height="0.807907" fill="#4CC8CD"/>
<rect x="43.5723" y="13.8083" width="0.814299" height="0.807907" fill="#4CC8CD"/>
<rect x="46.0146" y="14.6157" width="0.814299" height="0.807907" fill="#4CC8CD"/>
<rect x="48.458" y="15.4238" width="0.814299" height="0.807907" fill="#4CC8CD"/>
<rect x="50.0859" y="16.2319" width="0.814299" height="0.807907" fill="#4CC8CD"/>
<rect x="50.9004" y="17.0403" width="0.814299" height="0.807907" fill="#4CC8CD"/>
<rect x="52.5293" y="17.8474" width="0.814299" height="0.807907" fill="#4CC8CD"/>
<rect x="53.3438" y="18.6555" width="0.814299" height="0.807907" fill="#4CC8CD"/>
<rect x="54.1582" y="19.4639" width="0.814299" height="0.807907" fill="#4CC8CD"/>
<rect x="54.9727" y="20.272" width="0.814299" height="0.807907" fill="#4CC8CD"/>
<rect x="55.7861" y="21.0791" width="0.814299" height="0.807907" fill="#4CC8CD"/>
<rect x="56.6006" y="21.8875" width="0.814299" height="0.807907" fill="#4CC8CD"/>
<rect x="57.415" y="22.6946" width="0.814299" height="0.807907" fill="#4CC8CD"/>
<rect x="58.2295" y="23.5037" width="0.814299" height="0.807907" fill="#4CC8CD"/>
<rect x="58.2295" y="24.311" width="0.814299" height="0.807907" fill="#4CC8CD"/>
<rect x="59.0439" y="25.1191" width="0.814299" height="0.807907" fill="#4CC8CD"/>
<rect x="59.8584" y="25.9265" width="0.814299" height="0.807907" fill="#4CC8CD"/>
<rect x="59.8584" y="26.7346" width="0.814299" height="0.807907" fill="#4CC8CD"/>
<rect x="60.6719" y="27.5427" width="0.814299" height="0.807907" fill="#4CC8CD"/>
<rect x="60.6719" y="28.3508" width="0.814299" height="0.807907" fill="#4CC8CD"/>
<rect x="60.6719" y="29.1582" width="0.814299" height="0.807907" fill="#4CC8CD"/>
<rect x="61.4863" y="29.9663" width="0.814299" height="0.807907" fill="#4CC8CD"/>
<rect x="61.4863" y="30.7744" width="0.814299" height="0.807907" fill="#4CC8CD"/>
<rect x="61.4863" y="31.5828" width="0.814299" height="0.807907" fill="#4CC8CD"/>
<rect x="62.3008" y="32.3899" width="0.814299" height="0.807907" fill="#4CC8CD"/>
<rect x="62.3008" y="33.1982" width="0.814299" height="0.807907" fill="#4CC8CD"/>
<rect x="62.3008" y="34.0054" width="0.814299" height="0.807907" fill="#4CC8CD"/>
<rect x="62.3008" y="34.8135" width="0.814299" height="0.807907" fill="#4CC8CD"/>
<rect x="62.3008" y="35.6218" width="0.814299" height="0.807907" fill="#4CC8CD"/>
<rect x="63.1152" y="36.4299" width="0.814299" height="0.807907" fill="#4CC8CD"/>
<rect x="63.1152" y="37.2371" width="0.814299" height="0.807907" fill="#4CC8CD"/>
<rect x="63.1152" y="38.0454" width="0.814299" height="0.807907" fill="#4CC8CD"/>
<rect x="37.8721" y="13.0002" width="0.814299" height="0.807907" fill="#4CC8CD"/>
<rect x="38.6865" y="13.0002" width="0.814299" height="0.807907" fill="#4CC8CD"/>
<rect x="40.3145" y="13.0002" width="0.814299" height="0.807907" fill="#4CC8CD"/>
<rect x="41.1289" y="13.0002" width="0.814299" height="0.807907" fill="#4CC8CD"/>
<rect x="41.9434" y="13.0002" width="0.814299" height="0.807907" fill="#4CC8CD"/>
<rect x="42.7578" y="13.8083" width="0.814299" height="0.807907" fill="#4CC8CD"/>
<rect x="44.3867" y="13.8083" width="0.814299" height="0.807907" fill="#4CC8CD"/>
<rect x="45.2002" y="13.8083" width="0.814299" height="0.807907" fill="#4CC8CD"/>
<rect x="46.8291" y="14.6157" width="0.814299" height="0.807907" fill="#4CC8CD"/>
<rect x="47.6436" y="15.4238" width="0.814299" height="0.807907" fill="#4CC8CD"/>
<rect x="49.2725" y="16.2319" width="0.814299" height="0.807907" fill="#4CC8CD"/>
<rect x="51.7148" y="17.0403" width="0.814299" height="0.807907" fill="#4CC8CD"/>
<rect x="63.9297" y="38.8535" width="0.814299" height="0.807907" fill="#4CC8CD"/>
<rect x="63.9297" y="39.6616" width="0.814299" height="0.807907" fill="#4CC8CD"/>
<rect x="63.9297" y="40.469" width="0.814299" height="0.807907" fill="#4CC8CD"/>
<rect x="63.9297" y="41.2771" width="0.814299" height="0.807907" fill="#4CC8CD"/>
<rect x="63.1152" y="41.2771" width="0.814299" height="0.807907" fill="#4CC8CD"/>
<rect x="63.1152" y="42.0842" width="0.814299" height="0.807907" fill="#4CC8CD"/>
<rect x="63.1152" y="42.8936" width="0.814299" height="0.807907" fill="#4CC8CD"/>
<rect x="63.1152" y="43.7007" width="0.814299" height="0.807907" fill="#4CC8CD"/>
<rect x="63.1152" y="44.5088" width="0.814299" height="0.807907" fill="#4CC8CD"/>
<rect x="63.1152" y="45.3159" width="0.814299" height="0.807907" fill="#4CC8CD"/>
<rect x="63.1152" y="46.1245" width="0.814299" height="0.807907" fill="#4CC8CD"/>
<rect x="62.3008" y="46.1245" width="0.814299" height="0.807907" fill="#4CC8CD"/>
<rect x="62.3008" y="46.9326" width="0.814299" height="0.807907" fill="#4CC8CD"/>
<rect x="62.3008" y="47.7407" width="0.814299" height="0.807907" fill="#4CC8CD"/>
<rect x="62.3008" y="48.5479" width="0.814299" height="0.807907" fill="#4CC8CD"/>
<rect x="61.4863" y="48.5479" width="0.814299" height="0.807907" fill="#4CC8CD"/>
<rect x="61.4863" y="49.356" width="0.814299" height="0.807907" fill="#4CC8CD"/>
<rect x="61.4863" y="50.1641" width="0.814299" height="0.807907" fill="#4CC8CD"/>
<rect x="60.6719" y="50.1641" width="0.814299" height="0.807907" fill="#4CC8CD"/>
<rect x="60.6719" y="50.9727" width="0.814299" height="0.807907" fill="#4CC8CD"/>
<rect x="60.6719" y="51.7798" width="0.814299" height="0.807907" fill="#4CC8CD"/>
<rect x="59.8584" y="51.7798" width="0.814299" height="0.807907" fill="#4CC8CD"/>
<rect x="59.8584" y="52.5879" width="0.814299" height="0.807907" fill="#4CC8CD"/>
<rect x="59.0439" y="52.5879" width="0.814299" height="0.807907" fill="#4CC8CD"/>
<rect x="59.0439" y="53.395" width="0.814299" height="0.807907" fill="#4CC8CD"/>
<rect x="59.0439" y="54.2031" width="0.814299" height="0.807907" fill="#4CC8CD"/>
<rect x="58.2295" y="54.2031" width="0.814299" height="0.807907" fill="#4CC8CD"/>
<rect x="58.2295" y="55.0112" width="0.814299" height="0.807907" fill="#4CC8CD"/>
<rect x="57.415" y="55.0112" width="0.814299" height="0.807907" fill="#4CC8CD"/>
<rect x="57.415" y="55.8198" width="0.814299" height="0.807907" fill="#4CC8CD"/>
<rect x="56.6006" y="55.8198" width="0.814299" height="0.807907" fill="#4CC8CD"/>
<rect x="56.6006" y="56.627" width="0.814299" height="0.807907" fill="#4CC8CD"/>
<rect x="55.7861" y="56.627" width="0.814299" height="0.807907" fill="#4CC8CD"/>
<rect x="55.7861" y="57.4351" width="0.814299" height="0.807907" fill="#4CC8CD"/>
<rect x="54.9727" y="57.4351" width="0.814299" height="0.807907" fill="#4CC8CD"/>
<rect x="54.9727" y="58.2432" width="0.814299" height="0.807907" fill="#4CC8CD"/>
<rect x="54.1582" y="58.2432" width="0.814299" height="0.807907" fill="#4CC8CD"/>
<rect x="54.1582" y="59.0513" width="0.814299" height="0.807907" fill="#4CC8CD"/>
<rect x="53.3438" y="59.0513" width="0.814299" height="0.807907" fill="#4CC8CD"/>
<rect x="53.3438" y="59.8584" width="0.814299" height="0.807907" fill="#4CC8CD"/>
<rect x="52.5293" y="59.8584" width="0.814299" height="0.807907" fill="#4CC8CD"/>
<rect x="52.5293" y="60.667" width="0.814299" height="0.807907" fill="#4CC8CD"/>
<rect x="51.7148" y="60.667" width="0.814299" height="0.807907" fill="#4CC8CD"/>
<rect x="50.0859" y="59.8584" width="0.814299" height="0.807907" fill="#4CC8CD"/>
<rect x="50.9004" y="60.667" width="0.814299" height="0.807907" fill="#4CC8CD"/>
<rect x="50.9004" y="61.4741" width="0.814299" height="0.807907" fill="#4CC8CD"/>
<rect x="50.0859" y="61.4741" width="0.814299" height="0.807907" fill="#4CC8CD"/>
<rect x="49.2725" y="62.2832" width="0.814299" height="0.807907" fill="#4CC8CD"/>
<rect x="48.458" y="62.2832" width="0.814299" height="0.807907" fill="#4CC8CD"/>
<rect x="47.6436" y="63.0903" width="0.814299" height="0.807907" fill="#4CC8CD"/>
<rect x="46.8291" y="63.0903" width="0.814299" height="0.807907" fill="#4CC8CD"/>
<rect x="45.2002" y="63.8984" width="0.814299" height="0.807907" fill="#4CC8CD"/>
<rect x="44.3867" y="63.8984" width="0.814299" height="0.807907" fill="#4CC8CD"/>
<rect x="41.9434" y="64.7061" width="0.814299" height="0.807907" fill="#4CC8CD"/>
<rect x="41.1289" y="64.7061" width="0.814299" height="0.807907" fill="#4CC8CD"/>
<rect x="37.8721" y="64.7061" width="0.814299" height="0.807907" fill="#4CC8CD"/>
<rect x="37.0576" y="64.7061" width="0.814299" height="0.807907" fill="#4CC8CD"/>
<rect x="38.6865" y="64.7061" width="0.814299" height="0.807907" fill="#4CC8CD"/>
<rect x="39.5" y="64.7061" width="0.814299" height="0.807907" fill="#4CC8CD"/>
<rect x="40.3145" y="64.7061" width="0.814299" height="0.807907" fill="#4CC8CD"/>
<rect x="42.7578" y="64.7061" width="0.814299" height="0.807907" fill="#4CC8CD"/>
<rect x="43.5723" y="63.8984" width="0.814299" height="0.807907" fill="#4CC8CD"/>
<rect x="43.5723" y="64.7061" width="0.814299" height="0.807907" fill="#4CC8CD"/>
<rect x="46.0146" y="63.0903" width="0.814299" height="0.807907" fill="#4CC8CD"/>
<rect x="46.0146" y="63.8984" width="0.814299" height="0.807907" fill="#4CC8CD"/>
<rect x="48.458" y="63.0903" width="0.814299" height="0.807907" fill="#4CC8CD"/>
<rect x="50.0859" y="62.2832" width="0.814299" height="0.807907" fill="#4CC8CD"/>
<rect x="11.8145" y="38.8535" width="0.814299" height="0.807907" fill="#4CC8CD"/>
<rect x="11.8145" y="39.6616" width="0.814299" height="0.807907" fill="#4CC8CD"/>
<rect x="11.8145" y="40.469" width="0.814299" height="0.807907" fill="#4CC8CD"/>
<rect x="11.8145" y="41.2771" width="0.814299" height="0.807907" fill="#4CC8CD"/>
<rect x="11.8145" y="42.0842" width="0.814299" height="0.807907" fill="#4CC8CD"/>
<rect x="11" y="42.8936" width="0.814299" height="0.807907" fill="#4CC8CD"/>
<rect x="12.6289" y="42.8936" width="0.814299" height="0.807907" fill="#4CC8CD"/>
<rect x="12.6289" y="43.7007" width="0.814299" height="0.807907" fill="#4CC8CD"/>
<rect x="12.6289" y="44.5088" width="0.814299" height="0.807907" fill="#4CC8CD"/>
<rect x="12.6289" y="45.3159" width="0.814299" height="0.807907" fill="#4CC8CD"/>
<rect x="11.8145" y="46.1245" width="0.814299" height="0.807907" fill="#4CC8CD"/>
<rect x="13.4434" y="46.1245" width="0.814299" height="0.807907" fill="#4CC8CD"/>
<rect x="13.4434" y="46.9326" width="0.814299" height="0.807907" fill="#4CC8CD"/>
<rect x="13.4434" y="47.7407" width="0.814299" height="0.807907" fill="#4CC8CD"/>
<rect x="12.6289" y="48.5479" width="0.814299" height="0.807907" fill="#4CC8CD"/>
<rect x="14.2568" y="48.5479" width="0.814299" height="0.807907" fill="#4CC8CD"/>
<rect x="14.2568" y="49.356" width="0.814299" height="0.807907" fill="#4CC8CD"/>
<rect x="13.4434" y="50.1641" width="0.814299" height="0.807907" fill="#4CC8CD"/>
<rect x="15.0713" y="50.1641" width="0.814299" height="0.807907" fill="#4CC8CD"/>
<rect x="15.0713" y="50.9727" width="0.814299" height="0.807907" fill="#4CC8CD"/>
<rect x="14.2568" y="51.7798" width="0.814299" height="0.807907" fill="#4CC8CD"/>
<rect x="15.8857" y="51.7798" width="0.814299" height="0.807907" fill="#4CC8CD"/>
<rect x="15.8857" y="52.5879" width="0.814299" height="0.807907" fill="#4CC8CD"/>
<rect x="15.0713" y="53.395" width="0.814299" height="0.807907" fill="#4CC8CD"/>
<rect x="16.7002" y="53.395" width="0.814299" height="0.807907" fill="#4CC8CD"/>
<rect x="15.8857" y="54.2031" width="0.814299" height="0.807907" fill="#4CC8CD"/>
<rect x="17.5146" y="54.2031" width="0.814299" height="0.807907" fill="#4CC8CD"/>
<rect x="16.7002" y="55.0112" width="0.814299" height="0.807907" fill="#4CC8CD"/>
<rect x="18.3291" y="55.0112" width="0.814299" height="0.807907" fill="#4CC8CD"/>
<rect x="18.3291" y="55.8198" width="0.814299" height="0.807907" fill="#4CC8CD"/>
<rect x="17.5146" y="56.627" width="0.814299" height="0.807907" fill="#4CC8CD"/>
<rect x="19.1426" y="56.627" width="0.814299" height="0.807907" fill="#4CC8CD"/>
<rect x="18.3291" y="57.4351" width="0.814299" height="0.807907" fill="#4CC8CD"/>
<rect x="19.957" y="58.2432" width="0.814299" height="0.807907" fill="#4CC8CD"/>
<rect x="19.1426" y="58.2432" width="0.814299" height="0.807907" fill="#4CC8CD"/>
<rect x="21.5859" y="58.2432" width="0.814299" height="0.807907" fill="#4CC8CD"/>
<rect x="20.7715" y="59.0513" width="0.814299" height="0.807907" fill="#4CC8CD"/>
<rect x="22.4004" y="59.0513" width="0.814299" height="0.807907" fill="#4CC8CD"/>
<rect x="21.5859" y="59.8584" width="0.814299" height="0.807907" fill="#4CC8CD"/>
<rect x="23.2148" y="60.667" width="0.814299" height="0.807907" fill="#4CC8CD"/>
<rect x="22.4004" y="60.667" width="0.814299" height="0.807907" fill="#4CC8CD"/>
<rect x="24.0283" y="59.8584" width="0.814299" height="0.807907" fill="#4CC8CD"/>
<rect x="24.8428" y="60.667" width="0.814299" height="0.807907" fill="#4CC8CD"/>
<rect x="24.0283" y="61.4741" width="0.814299" height="0.807907" fill="#4CC8CD"/>
<rect x="26.4717" y="61.4741" width="0.814299" height="0.807907" fill="#4CC8CD"/>
<rect x="25.6572" y="62.2832" width="0.814299" height="0.807907" fill="#4CC8CD"/>
<rect x="28.1006" y="63.0903" width="0.814299" height="0.807907" fill="#4CC8CD"/>
<rect x="27.2861" y="63.0903" width="0.814299" height="0.807907" fill="#4CC8CD"/>
<rect x="30.543" y="63.8984" width="0.814299" height="0.807907" fill="#4CC8CD"/>
<rect x="29.7285" y="63.8984" width="0.814299" height="0.807907" fill="#4CC8CD"/>
<rect x="33.8008" y="64.7061" width="0.814299" height="0.807907" fill="#4CC8CD"/>
<rect x="32.9863" y="64.7061" width="0.814299" height="0.807907" fill="#4CC8CD"/>
<rect x="20.7715" y="57.4351" width="0.814299" height="0.807907" fill="#4CC8CD"/>
<rect x="24.8428" y="62.2832" width="0.814299" height="0.807907" fill="#4CC8CD"/>
<rect x="26.4717" y="63.0903" width="0.814299" height="0.807907" fill="#4CC8CD"/>
<rect x="28.915" y="62.2832" width="0.814299" height="0.807907" fill="#4CC8CD"/>
<rect x="28.915" y="63.8984" width="0.814299" height="0.807907" fill="#4CC8CD"/>
<rect x="31.3574" y="63.0903" width="0.814299" height="0.807907" fill="#4CC8CD"/>
<rect x="32.1719" y="64.7061" width="0.814299" height="0.807907" fill="#4CC8CD"/>
<rect x="31.3574" y="64.7061" width="0.814299" height="0.807907" fill="#4CC8CD"/>
<rect x="34.6143" y="64.7061" width="0.814299" height="0.807907" fill="#4CC8CD"/>
<rect x="35.4287" y="64.7061" width="0.814299" height="0.807907" fill="#4CC8CD"/>
<rect x="36.2432" y="64.7061" width="0.814299" height="0.807907" fill="#4CC8CD"/>
<rect x="35.4287" y="13.8083" width="0.814299" height="0.807907" fill="#4CC8CD"/>
<rect x="34.6143" y="13.8083" width="0.814299" height="0.807907" fill="#4CC8CD"/>
<rect x="30.543" y="14.6157" width="0.814299" height="0.807907" fill="#4CC8CD"/>
<rect x="29.7285" y="14.6157" width="0.814299" height="0.807907" fill="#4CC8CD"/>
<rect x="28.1006" y="15.4238" width="0.814299" height="0.807907" fill="#4CC8CD"/>
<rect x="27.2861" y="15.4238" width="0.814299" height="0.807907" fill="#4CC8CD"/>
<rect x="26.4717" y="16.2319" width="0.814299" height="0.807907" fill="#4CC8CD"/>
<rect x="25.6572" y="16.2319" width="0.814299" height="0.807907" fill="#4CC8CD"/>
<rect x="24.8428" y="17.0403" width="0.814299" height="0.807907" fill="#4CC8CD"/>
<rect x="24.0283" y="17.0403" width="0.814299" height="0.807907" fill="#4CC8CD"/>
<rect x="24.0283" y="17.8474" width="0.814299" height="0.807907" fill="#4CC8CD"/>
<rect x="23.2148" y="17.8474" width="0.814299" height="0.807907" fill="#4CC8CD"/>
<rect x="22.4004" y="17.8474" width="0.814299" height="0.807907" fill="#4CC8CD"/>
<rect x="22.4004" y="18.6555" width="0.814299" height="0.807907" fill="#4CC8CD"/>
<rect x="21.5859" y="18.6555" width="0.814299" height="0.807907" fill="#4CC8CD"/>
<rect x="21.5859" y="19.4639" width="0.814299" height="0.807907" fill="#4CC8CD"/>
<rect x="20.7715" y="19.4639" width="0.814299" height="0.807907" fill="#4CC8CD"/>
<rect x="19.957" y="18.6555" width="0.814299" height="0.807907" fill="#4CC8CD"/>
<rect x="20.7715" y="20.272" width="0.814299" height="0.807907" fill="#4CC8CD"/>
<rect x="19.957" y="20.272" width="0.814299" height="0.807907" fill="#4CC8CD"/>
<rect x="19.957" y="21.0791" width="0.814299" height="0.807907" fill="#4CC8CD"/>
<rect x="19.1426" y="21.0791" width="0.814299" height="0.807907" fill="#4CC8CD"/>
<rect x="19.1426" y="21.8875" width="0.814299" height="0.807907" fill="#4CC8CD"/>
<rect x="18.3291" y="21.8875" width="0.814299" height="0.807907" fill="#4CC8CD"/>
<rect x="18.3291" y="22.6946" width="0.814299" height="0.807907" fill="#4CC8CD"/>
<rect x="17.5146" y="22.6946" width="0.814299" height="0.807907" fill="#4CC8CD"/>
<rect x="17.5146" y="23.5037" width="0.814299" height="0.807907" fill="#4CC8CD"/>
<rect x="16.7002" y="23.5037" width="0.814299" height="0.807907" fill="#4CC8CD"/>
<rect x="16.7002" y="24.311" width="0.814299" height="0.807907" fill="#4CC8CD"/>
<rect x="15.8857" y="24.311" width="0.814299" height="0.807907" fill="#4CC8CD"/>
<rect x="15.8857" y="25.1191" width="0.814299" height="0.807907" fill="#4CC8CD"/>
<rect x="15.8857" y="25.9265" width="0.814299" height="0.807907" fill="#4CC8CD"/>
<rect x="15.0713" y="25.9265" width="0.814299" height="0.807907" fill="#4CC8CD"/>
<rect x="14.2568" y="25.1191" width="0.814299" height="0.807907" fill="#4CC8CD"/>
<rect x="15.0713" y="26.7346" width="0.814299" height="0.807907" fill="#4CC8CD"/>
<rect x="15.0713" y="27.5427" width="0.814299" height="0.807907" fill="#4CC8CD"/>
<rect x="14.2568" y="27.5427" width="0.814299" height="0.807907" fill="#4CC8CD"/>
<rect x="14.2568" y="28.3508" width="0.814299" height="0.807907" fill="#4CC8CD"/>
<rect x="14.2568" y="29.1582" width="0.814299" height="0.807907" fill="#4CC8CD"/>
<rect x="13.4434" y="29.1582" width="0.814299" height="0.807907" fill="#4CC8CD"/>
<rect x="13.4434" y="29.9663" width="0.814299" height="0.807907" fill="#4CC8CD"/>
<rect x="13.4434" y="30.7744" width="0.814299" height="0.807907" fill="#4CC8CD"/>
<rect x="13.4434" y="31.5828" width="0.814299" height="0.807907" fill="#4CC8CD"/>
<rect x="12.6289" y="31.5828" width="0.814299" height="0.807907" fill="#4CC8CD"/>
<rect x="12.6289" y="32.3899" width="0.814299" height="0.807907" fill="#4CC8CD"/>
<rect x="12.6289" y="33.1982" width="0.814299" height="0.807907" fill="#4CC8CD"/>
<rect x="12.6289" y="34.0054" width="0.814299" height="0.807907" fill="#4CC8CD"/>
<rect x="12.6289" y="34.8135" width="0.814299" height="0.807907" fill="#4CC8CD"/>
<rect x="11.8145" y="34.8135" width="0.814299" height="0.807907" fill="#4CC8CD"/>
<rect x="11.8145" y="35.6218" width="0.814299" height="0.807907" fill="#4CC8CD"/>
<rect x="11.8145" y="36.4299" width="0.814299" height="0.807907" fill="#4CC8CD"/>
<rect x="11.8145" y="37.2371" width="0.814299" height="0.807907" fill="#4CC8CD"/>
<rect x="11.8145" y="38.0454" width="0.814299" height="0.807907" fill="#4CC8CD"/>
<rect x="25.6572" y="17.0403" width="0.814299" height="0.807907" fill="#4CC8CD"/>
<rect x="27.2861" y="16.2319" width="0.814299" height="0.807907" fill="#4CC8CD"/>
<rect x="28.915" y="14.6157" width="0.814299" height="0.807907" fill="#4CC8CD"/>
<rect x="28.915" y="15.4238" width="0.814299" height="0.807907" fill="#4CC8CD"/>
<rect x="31.3574" y="14.6157" width="0.814299" height="0.807907" fill="#4CC8CD"/>
<rect x="32.1719" y="13.8083" width="0.814299" height="0.807907" fill="#4CC8CD"/>
<rect x="32.1719" y="14.6157" width="0.814299" height="0.807907" fill="#4CC8CD"/>
<rect x="32.9863" y="13.8083" width="0.814299" height="0.807907" fill="#4CC8CD"/>
<rect x="33.8008" y="13.8083" width="0.814299" height="0.807907" fill="#4CC8CD"/>
<rect x="36.2432" y="13.8083" width="0.814299" height="0.807907" fill="#4CC8CD"/>
<rect x="37.0576" y="13.8083" width="0.814299" height="0.807907" fill="#4CC8CD"/>
<rect x="37.8721" y="13.8083" width="0.814299" height="0.807907" fill="#4CC8CD"/>
<rect x="40.3145" y="13.8083" width="0.814299" height="0.807907" fill="#4CC8CD"/>
<rect x="39.5" y="13.8083" width="0.814299" height="0.807907" fill="#4CC8CD"/>
<rect x="44.3867" y="14.6157" width="0.814299" height="0.807907" fill="#4CC8CD"/>
<rect x="43.5723" y="14.6157" width="0.814299" height="0.807907" fill="#4CC8CD"/>
<rect x="46.8291" y="15.4238" width="0.814299" height="0.807907" fill="#4CC8CD"/>
<rect x="46.0146" y="15.4238" width="0.814299" height="0.807907" fill="#4CC8CD"/>
<rect x="49.2725" y="15.4238" width="0.814299" height="0.807907" fill="#4CC8CD"/>
<rect x="48.458" y="16.2319" width="0.814299" height="0.807907" fill="#4CC8CD"/>
<rect x="50.9004" y="16.2319" width="0.814299" height="0.807907" fill="#4CC8CD"/>
<rect x="50.0859" y="17.0403" width="0.814299" height="0.807907" fill="#4CC8CD"/>
<rect x="51.7148" y="17.8474" width="0.814299" height="0.807907" fill="#4CC8CD"/>
<rect x="50.9004" y="17.8474" width="0.814299" height="0.807907" fill="#4CC8CD"/>
<rect x="53.3438" y="17.8474" width="0.814299" height="0.807907" fill="#4CC8CD"/>
<rect x="52.5293" y="18.6555" width="0.814299" height="0.807907" fill="#4CC8CD"/>
<rect x="54.1582" y="18.6555" width="0.814299" height="0.807907" fill="#4CC8CD"/>
<rect x="53.3438" y="19.4639" width="0.814299" height="0.807907" fill="#4CC8CD"/>
<rect x="54.9727" y="19.4639" width="0.814299" height="0.807907" fill="#4CC8CD"/>
<rect x="54.1582" y="20.272" width="0.814299" height="0.807907" fill="#4CC8CD"/>
<rect x="55.7861" y="20.272" width="0.814299" height="0.807907" fill="#4CC8CD"/>
<rect x="54.9727" y="21.0791" width="0.814299" height="0.807907" fill="#4CC8CD"/>
<rect x="56.6006" y="21.0791" width="0.814299" height="0.807907" fill="#4CC8CD"/>
<rect x="55.7861" y="21.8875" width="0.814299" height="0.807907" fill="#4CC8CD"/>
<rect x="57.415" y="21.8875" width="0.814299" height="0.807907" fill="#4CC8CD"/>
<rect x="56.6006" y="22.6946" width="0.814299" height="0.807907" fill="#4CC8CD"/>
<rect x="58.2295" y="22.6946" width="0.814299" height="0.807907" fill="#4CC8CD"/>
<rect x="57.415" y="23.5037" width="0.814299" height="0.807907" fill="#4CC8CD"/>
<rect x="59.0439" y="23.5037" width="0.814299" height="0.807907" fill="#4CC8CD"/>
<rect x="59.0439" y="24.311" width="0.814299" height="0.807907" fill="#4CC8CD"/>
<rect x="58.2295" y="25.1191" width="0.814299" height="0.807907" fill="#4CC8CD"/>
<rect x="59.8584" y="25.1191" width="0.814299" height="0.807907" fill="#4CC8CD"/>
<rect x="59.0439" y="25.9265" width="0.814299" height="0.807907" fill="#4CC8CD"/>
<rect x="60.6719" y="25.9265" width="0.814299" height="0.807907" fill="#4CC8CD"/>
<rect x="60.6719" y="26.7346" width="0.814299" height="0.807907" fill="#4CC8CD"/>
<rect x="59.8584" y="27.5427" width="0.814299" height="0.807907" fill="#4CC8CD"/>
<rect x="61.4863" y="27.5427" width="0.814299" height="0.807907" fill="#4CC8CD"/>
<rect x="61.4863" y="28.3508" width="0.814299" height="0.807907" fill="#4CC8CD"/>
<rect x="61.4863" y="29.1582" width="0.814299" height="0.807907" fill="#4CC8CD"/>
<rect x="60.6719" y="29.9663" width="0.814299" height="0.807907" fill="#4CC8CD"/>
<rect x="62.3008" y="29.9663" width="0.814299" height="0.807907" fill="#4CC8CD"/>
<rect x="62.3008" y="30.7744" width="0.814299" height="0.807907" fill="#4CC8CD"/>
<rect x="62.3008" y="31.5828" width="0.814299" height="0.807907" fill="#4CC8CD"/>
<rect x="61.4863" y="32.3899" width="0.814299" height="0.807907" fill="#4CC8CD"/>
<rect x="63.1152" y="32.3899" width="0.814299" height="0.807907" fill="#4CC8CD"/>
<rect x="63.1152" y="33.1982" width="0.814299" height="0.807907" fill="#4CC8CD"/>
<rect x="63.1152" y="34.0054" width="0.814299" height="0.807907" fill="#4CC8CD"/>
<rect x="63.1152" y="34.8135" width="0.814299" height="0.807907" fill="#4CC8CD"/>
<rect x="63.1152" y="35.6218" width="0.814299" height="0.807907" fill="#4CC8CD"/>
<rect x="62.3008" y="36.4299" width="0.814299" height="0.807907" fill="#4CC8CD"/>
<rect x="63.9297" y="36.4299" width="0.814299" height="0.807907" fill="#4CC8CD"/>
<rect x="63.9297" y="37.2371" width="0.814299" height="0.807907" fill="#4CC8CD"/>
<rect x="63.9297" y="38.0454" width="0.814299" height="0.807907" fill="#4CC8CD"/>
<rect x="38.6865" y="13.8083" width="0.814299" height="0.807907" fill="#4CC8CD"/>
<rect x="41.1289" y="13.8083" width="0.814299" height="0.807907" fill="#4CC8CD"/>
<rect x="41.9434" y="13.8083" width="0.814299" height="0.807907" fill="#4CC8CD"/>
<rect x="42.7578" y="13.0002" width="0.814299" height="0.807907" fill="#4CC8CD"/>
<rect x="42.7578" y="14.6157" width="0.814299" height="0.807907" fill="#4CC8CD"/>
<rect x="45.2002" y="14.6157" width="0.814299" height="0.807907" fill="#4CC8CD"/>
<rect x="46.0146" y="13.8083" width="0.814299" height="0.807907" fill="#4CC8CD"/>
<rect x="47.6436" y="14.6157" width="0.814299" height="0.807907" fill="#4CC8CD"/>
<rect x="47.6436" y="16.2319" width="0.814299" height="0.807907" fill="#4CC8CD"/>
<rect x="49.2725" y="17.0403" width="0.814299" height="0.807907" fill="#4CC8CD"/>
<rect x="52.5293" y="17.0403" width="0.814299" height="0.807907" fill="#4CC8CD"/>
<path d="M24.9287 55.2646V23.2661H48.8004C48.8004 23.3285 48.784 23.3881 48.784 23.4505C48.784 26.3141 48.784 29.1786 48.784 32.044C48.789 32.123 48.7982 32.2018 48.8113 32.2799H50.8694V30.2326H55.1004V32.3097H57.164V36.4939H55.0867V38.582H52.9603V40.6673H50.8667V42.7553H48.7731V55.2591L24.9287 55.2646ZM42.4211 49.0276V46.9206H40.333V44.8434H38.2885V49.0005C38.7341 49.0005 39.1522 49.0005 39.5704 49.0005L42.4293 49.0222V51.0722H29.8567V48.9896H36.143V44.8271H38.2339V42.7309H40.3658V40.6348H42.4485V38.5657H44.5557V36.4614H46.6439V25.3758H27.0688V53.144H46.6412V46.9531H44.5639V49.033L42.4211 49.0276ZM52.9712 34.3842V36.4343H55.0321V32.3369H50.894V34.3924L52.9712 34.3842Z" fill="#4CC8CD"/>
<path d="M43.8556 28.158V30.208H29.8535V28.158H43.8556Z" fill="#4CC8CD"/>
<path d="M43.8556 33.0256V35.0757H29.8535V33.0256H43.8556Z" fill="#4CC8CD"/>
<path d="M74.75 35.25V33.5H73V24.75H74.75V23H83.5V24.75H85.25V33.5H83.5V35.25H74.75ZM76.5 33.5H81.75V24.75H76.5V33.5ZM92.25 37V35.25H88.75V33.5H87V28.25H88.75V26.5H92.25V24.75H94V26.5H97.5V28.25H99.25V33.5H97.5V35.25H94V37H92.25ZM90.5 33.5H92.25V28.25H90.5V33.5ZM94 33.5H95.75V28.25H94V33.5ZM102.75 35.25V33.5H101V28.25H102.75V26.5H111.5V28.25H113.25V33.5H111.5V35.25H102.75ZM104.5 33.5H109.75V28.25H104.5V33.5ZM127.25 28.25V33.5H125.5V35.25H118.5V37H115V26.5H118.5V28.25H120.25V30H118.5V33.5H123.75V28.25H120.25V26.5H125.5V28.25H127.25ZM134.25 28.25V30H132.5V35.25H129V26.5H132.5V28.25H134.25ZM141.25 26.5V35.25H137.75V30H136V28.25H137.75V26.5H141.25ZM134.25 30H136V33.5H134.25V30ZM155.25 26.5V35.25H151.75V28.25H148.25V33.5H146.5V35.25H143V31.75H144.75V30H146.5V26.5H155.25ZM158.75 35.25V33.5H157V28.25H158.75V26.5H167.5V28.25H169.25V31.75H160.5V33.5H167.5V35.25H158.75ZM160.5 30H165.75V28.25H160.5V30ZM171 35.25V26.5H174.5V30H179.75V26.5H183.25V35.25H179.75V31.75H174.5V35.25H171ZM188.5 31.75H190.25V33.5H188.5V35.25H185V26.5H188.5V31.75ZM197.25 26.5V35.25H193.75V30H192V28.25H193.75V26.5H197.25ZM190.25 30H192V31.75H190.25V30ZM200.75 35.25V33.5H199V28.25H200.75V26.5H209.5V28.25H211.25V31.75H202.5V33.5H209.5V35.25H200.75ZM202.5 30H207.75V28.25H202.5V30ZM85.25 47.5H87V51H83.5V49.25H76.5V51H73V47.5H74.75V45.75H76.5V40.5H85.25V47.5ZM78.25 47.5H81.75V42.25H78.25V47.5ZM88.75 49.25V47.5H87V42.25H88.75V40.5H97.5V42.25H99.25V47.5H97.5V49.25H88.75ZM90.5 47.5H95.75V42.25H90.5V47.5ZM108 42.25H109.75V44H111.5V45.75H113.25V49.25H109.75V45.75H104.5V49.25H101V40.5H104.5V44H108V42.25ZM113.25 40.5V42.25H109.75V40.5H113.25ZM116.75 51V49.25H123.75V47.5H116.75V45.75H115V40.5H118.5V45.75H123.75V40.5H127.25V49.25H125.5V51H116.75ZM134.25 42.25V44H132.5V49.25H129V40.5H132.5V42.25H134.25ZM141.25 40.5V49.25H137.75V44H136V42.25H137.75V40.5H141.25ZM134.25 44H136V47.5H134.25V44ZM144.75 49.25V47.5H143V42.25H144.75V40.5H153.5V42.25H155.25V45.75H146.5V47.5H153.5V49.25H144.75ZM146.5 44H151.75V42.25H146.5V44ZM157 49.25V40.5H160.5V44H165.75V40.5H169.25V49.25H165.75V45.75H160.5V49.25H157ZM176.25 49.25V42.25H172.75V40.5H183.25V42.25H179.75V49.25H176.25ZM186.75 49.25V47.5H185V42.25H186.75V40.5H195.5V42.25H197.25V47.5H195.5V49.25H186.75ZM188.5 47.5H193.75V42.25H188.5V47.5ZM199 49.25V40.5H209.5V42.25H211.25V44H209.5V45.75H211.25V47.5H209.5V49.25H199ZM202.5 44H207.75V42.25H202.5V44ZM202.5 47.5H207.75V45.75H202.5V47.5Z" fill="black"/>
</svg>
