<svg width="301" height="76" viewBox="0 0 301 76" fill="none" xmlns="http://www.w3.org/2000/svg">
<path d="M287.609 74.4996L13.5227 74.4292V72.5729V71.0729H12.0227H7.56473L7.41122 68.9939L7.32958 67.8884L6.24877 67.6419C5.48925 67.4687 5.05554 67.3671 4.75687 67.2589C4.68984 67.2347 4.64312 67.2146 4.61181 67.1997C4.5965 67.1412 4.57346 67.0295 4.55451 66.8366C4.51348 66.419 4.50712 65.8457 4.49951 64.9475C4.49943 64.2285 4.48645 63.5677 4.40321 63.0057C4.31748 62.4268 4.13832 61.805 3.69612 61.2654C3.25156 60.7229 2.67689 60.4288 2.12826 60.2375C1.93235 60.1692 1.72193 60.1081 1.5 60.0518V15.7485C1.76564 15.7026 2.01894 15.6487 2.25035 15.5808C2.80208 15.4188 3.40737 15.1286 3.84856 14.515C4.25371 13.9516 4.38241 13.2991 4.44217 12.7393C4.50314 12.1681 4.51066 11.4617 4.51427 10.6555H4.51429V10.6488V10.6423V10.6359V10.6294V10.6229V10.6165V10.61V10.6035V10.5971V10.5906V10.5842V10.5777V10.5712V10.5648V10.5583V10.5518V10.5454V10.5389V10.5325V10.526V10.5195V10.5131V10.5066V10.5001V10.4937V10.4872V10.4808V10.4743V10.4678V10.4614V10.4549V10.4484V10.442V10.4355V10.429V10.4226V10.4161V10.4096V10.4032V10.3967V10.3903V10.3838V10.3773V10.3709V10.3644V10.3579V10.3515V10.345V10.3385V10.3321V10.3256V10.3191V10.3126V10.3062V10.2997V10.2932V10.2868V10.2803V10.2738V10.2674V10.2609V10.2544V10.248V10.2415V10.235V10.2285V10.2221V10.2156V10.2091V10.2026V10.1962V10.1897V10.1832V10.1768V10.1703V10.1638V10.1573V10.1509V10.1444V10.1379V10.1314V10.1249V10.1185V10.112V10.1055V10.099V10.0926V10.0861V10.0796V10.0731V10.0666V10.0601V10.0537V10.0472V10.0407V10.0342V10.0277V10.0213V10.0148V10.0083V10.0018V9.99531V9.98882V9.98234V9.97585V9.96936V9.96287V9.95638V9.94989V9.9434V9.93691V9.93042V9.92393V9.91744V9.91095V9.90445V9.89796V9.89147V9.88497V9.87848V9.87198V9.86548V9.85899V9.85249V9.84599V9.83949V9.83299V9.82649V9.81999V9.81349V9.80699V9.80049V9.79398V9.78748V9.78097V9.77447V9.76796V9.76146V9.75495V9.74844V9.74193V9.73542V9.72892V9.72241V9.71589V9.70938V9.70287V9.69636V9.68984V9.68333V9.67681V9.6703V9.66378V9.65726V9.65075V9.64423V9.63771V9.63119V9.62467V9.61814V9.61162V9.6051V9.59857V9.59205V9.58552V9.579V9.57247V9.56594V9.55941V9.55288V9.54635V9.53982V9.53329V9.52676V9.52022V9.51369V9.50715V9.50062V9.49408V9.48754V9.481V9.47446V9.46792V9.46138V9.45484V9.4483V9.44175V9.43521V9.42866V9.42212V9.41557V9.40902V9.40247V9.39592V9.38937V9.38282V9.37626V9.36971V9.36316V9.3566V9.35004V9.34348V9.33693V9.33037V9.32381V9.31724V9.31068V9.30412V9.29755V9.29099V9.28442V9.27785V9.27129V9.26472V9.25815V9.25157V9.245V9.23843V9.23185V9.22528V9.2187V9.21212V9.20554V9.19896V9.19238V9.1858V9.17922V9.17263V9.16605V9.15946V9.15287V9.14629V9.1397V9.1331V9.12651V9.11992V9.11333V9.10673V9.10013V9.09354V9.08694V9.08034V9.07374V9.06713V9.06053V9.05393V9.04732V9.04071V9.03411V9.0275V9.02089V9.01427V9.00766V9.00105V8.99443V8.98782V8.9812V8.97458V8.96796V8.96134V8.95472V8.94809V8.94147V8.93484V8.92821V8.92159V8.91496V8.90832V8.90169V8.89506V8.88842V8.88179V8.87515V8.86851V8.86187V8.85523V8.84858V8.84194V8.83529V8.82865V8.822V8.81535V8.8087V8.80205V8.79539V8.78874V8.78208V8.77542V8.76877V8.7621V8.75544V8.74878V8.74212V8.73545V8.72878V8.72211V8.71544V8.70877V8.7021V8.69542V8.68875V8.68207V8.67539V8.66871V8.66203V8.65535V8.64884L6.0566 8.5591L7.4148 8.48007L7.46831 7.12062L7.5495 5.0575H11.9291H13.3503L13.4269 3.63837L13.5424 1.5H287.569L287.738 3.67345L287.845 5.0575H289.233H293.594C293.624 5.75357 293.654 6.43093 293.69 7.18575L293.757 8.615H295.188H296.604V10.6251C296.604 11.4584 296.605 12.1878 296.663 12.7709C296.719 13.3444 296.847 14.0209 297.28 14.6012C297.742 15.2212 298.375 15.5016 298.93 15.6612C299.107 15.712 299.298 15.7564 299.5 15.7967V60.1326C299.279 60.1856 299.069 60.2436 298.876 60.3097C298.302 60.506 297.693 60.8305 297.259 61.4739C296.86 62.0648 296.735 62.7451 296.677 63.3532C296.619 63.9726 296.615 64.7475 296.614 65.6516V65.6536V65.6594V65.6652V65.6709V65.6767V65.6824V65.6882V65.694V65.6998V65.7055V65.7113V65.7171V65.7228V65.7286V65.7344V65.7401V65.7459V65.7517V65.7574V65.7632V65.769V65.7747V65.7805V65.7863V65.792V65.7978V65.8036V65.8093V65.8151V65.8209V65.8267V65.8324V65.8382V65.844V65.8497V65.8555V65.8613V65.8671V65.8728V65.8786V65.8844V65.8902V65.8959V65.9017V65.9075V65.9133V65.919V65.9248V65.9306V65.9364V65.9421V65.9479V65.9537V65.9595V65.9652V65.971V65.9768V65.9826V65.9884V65.9941V65.9999V66.0057V66.0115V66.0173V66.023V66.0288V66.0346V66.0404V66.0462V66.052V66.0577V66.0635V66.0693V66.0751V66.0809V66.0867V66.0925V66.0983V66.1041V66.1098V66.1156V66.1214V66.1272V66.133V66.1388V66.1446V66.1504V66.1562V66.162V66.1678V66.1736V66.1794V66.1852V66.191V66.1968V66.2026V66.2084V66.2142V66.22V66.2258V66.2316V66.2374V66.2432V66.249V66.2548V66.2606V66.2664V66.2723V66.2781V66.2839V66.2897V66.2955V66.3013V66.3071V66.313V66.3188V66.3246V66.3304V66.3362V66.3421V66.3479V66.3537V66.3595V66.3653V66.3712V66.377V66.3828V66.3887V66.3945V66.4003V66.4061V66.412V66.4178V66.4236V66.4295V66.4353V66.4412V66.447V66.4528V66.4587V66.4645V66.4704V66.4762V66.482V66.4879V66.4937V66.4996V66.5054V66.5113V66.5171V66.523V66.5288V66.5347V66.5406V66.5464V66.5523V66.5581V66.564V66.5699V66.5757V66.5816V66.5875V66.5933V66.5992V66.6051V66.6109V66.6168V66.6227V66.6286V66.6344V66.6403V66.6462V66.6521V66.6579V66.6638V66.6697V66.6756V66.6815V66.6874V66.6933V66.6992V66.705V66.7109V66.7168V66.7227V66.7286V66.7345V66.7404V66.7463V66.7522V66.7581V66.764V66.77V66.7759V66.7818V66.7877V66.7936V66.7995V66.8054V66.8114V66.8173V66.8232V66.8291V66.835V66.841V66.8469V66.8528V66.8588V66.8647V66.8706V66.8766V66.8825V66.8884V66.8944V66.9003V66.9063V66.9122V66.9182V66.9241V66.9301V66.936V66.942V66.9479V66.9539V66.9598V66.9658V66.9718V66.9777V66.9837V66.9897V66.9956V67.0016V67.0076V67.0135V67.0195V67.0255V67.0315V67.0375V67.0434V67.0494V67.0554V67.0614V67.0674V67.0734V67.0794V67.0854V67.0914V67.0974V67.1034V67.1094V67.1154V67.1214V67.1274V67.1334V67.1394V67.1455V67.1515V67.1575V67.1635V67.1695V67.1756V67.1816V67.1876V67.1936V67.1997V67.2057V67.2118V67.2178V67.2238V67.2299V67.2359V67.242V67.248V67.2541V67.2601V67.2662V67.2723V67.2783V67.2844V67.2904V67.2965V67.3026V67.3086V67.3147V67.3208V67.3269V67.333V67.339V67.3451V67.3512V67.3573V67.3634V67.3695V67.3756V67.3817V67.3878V67.3939V67.4V67.4061V67.4101L295.08 67.5514L293.788 67.6705L293.72 68.9665C293.684 69.6539 293.649 70.3077 293.613 71.0077H289.253H287.853L287.757 72.4046C287.704 73.1659 287.657 73.8354 287.609 74.4996ZM4.55717 67.1699C4.55725 67.1698 4.55871 67.1708 4.56127 67.1727C4.55836 67.1709 4.55709 67.1699 4.55717 67.1699Z" fill="#809DE3" stroke="#2B57E4" stroke-width="3"/>
<path d="M63.1152 38.853H63.9295V39.6609H63.1152V38.853Z" fill="white"/>
<path d="M63.1152 39.6609H63.9295V40.4688H63.1152V39.6609Z" fill="white"/>
<path d="M63.1152 40.4688H63.9295V41.2767H63.1152V40.4688Z" fill="white"/>
<path d="M62.3009 41.2767H63.1152V42.0846H62.3009V41.2767Z" fill="white"/>
<path d="M62.3009 42.0846H63.1152V42.8926H62.3009V42.0846Z" fill="white"/>
<path d="M62.3009 42.8926H63.1152V43.7005H62.3009V42.8926Z" fill="white"/>
<path d="M62.3009 43.7005H63.1152V44.5084H62.3009V43.7005Z" fill="white"/>
<path d="M62.3009 44.5084H63.1152V45.3163H62.3009V44.5084Z" fill="white"/>
<path d="M62.3009 45.3163H63.1152V46.1242H62.3009V45.3163Z" fill="white"/>
<path d="M61.4866 46.1242H62.3009V46.9321H61.4866V46.1242Z" fill="white"/>
<path d="M61.4866 46.9321H62.3009V47.74H61.4866V46.9321Z" fill="white"/>
<path d="M61.4866 47.74H62.3009V48.5479H61.4866V47.74Z" fill="white"/>
<path d="M60.6723 48.5479H61.4866V49.3558H60.6723V48.5479Z" fill="white"/>
<path d="M60.6723 49.3558H61.4866V50.1637H60.6723V49.3558Z" fill="white"/>
<path d="M59.858 50.1637H60.6723V50.9716H59.858V50.1637Z" fill="white"/>
<path d="M59.858 50.9716H60.6723V51.7795H59.858V50.9716Z" fill="white"/>
<path d="M59.0437 51.7795H59.858V52.5874H59.0437V51.7795Z" fill="white"/>
<path d="M58.2294 52.5874H59.0437V53.3953H58.2294V52.5874Z" fill="white"/>
<path d="M58.2294 53.3953H59.0437V54.2032H58.2294V53.3953Z" fill="white"/>
<path d="M57.4151 54.2032H58.2294V55.0112H57.4151V54.2032Z" fill="white"/>
<path d="M56.6008 55.0112H57.4151V55.8191H56.6008V55.0112Z" fill="white"/>
<path d="M55.7865 55.8191H56.6008V56.627H55.7865V55.8191Z" fill="white"/>
<path d="M54.9722 56.627H55.7865V57.4349H54.9722V56.627Z" fill="white"/>
<path d="M54.1579 57.4349H54.9722V58.2428H54.1579V57.4349Z" fill="white"/>
<path d="M53.3436 58.2428H54.1579V59.0507H53.3436V58.2428Z" fill="white"/>
<path d="M52.5293 59.0507H53.3436V59.8586H52.5293V59.0507Z" fill="white"/>
<path d="M51.715 59.8586H52.5293V60.6665H51.715V59.8586Z" fill="white"/>
<path d="M50.0864 60.6665H50.9007V61.4744H50.0864V60.6665Z" fill="white"/>
<path d="M48.4578 61.4744H49.2721V62.2823H48.4578V61.4744Z" fill="white"/>
<path d="M46.8292 62.2823H47.6435V63.0902H46.8292V62.2823Z" fill="white"/>
<path d="M44.3863 63.0902H45.2006V63.8981H44.3863V63.0902Z" fill="white"/>
<path d="M41.1291 63.8981H41.9434V64.706H41.1291V63.8981Z" fill="white"/>
<path d="M37.0576 63.8981H37.8719V64.706H37.0576V63.8981Z" fill="white"/>
<path d="M37.8719 63.8981H38.6862V64.706H37.8719V63.8981Z" fill="white"/>
<path d="M38.6862 63.8981H39.5005V64.706H38.6862V63.8981Z" fill="white"/>
<path d="M39.5005 63.8981H40.3148V64.706H39.5005V63.8981Z" fill="white"/>
<path d="M40.3148 63.8981H41.1291V64.706H40.3148V63.8981Z" fill="white"/>
<path d="M41.9434 63.8981H42.7577V64.706H41.9434V63.8981Z" fill="white"/>
<path d="M42.7577 63.8981H43.572V64.706H42.7577V63.8981Z" fill="white"/>
<path d="M43.572 63.0902H44.3863V63.8981H43.572V63.0902Z" fill="white"/>
<path d="M45.2006 63.0902H46.0149V63.8981H45.2006V63.0902Z" fill="white"/>
<path d="M46.0149 62.2823H46.8292V63.0902H46.0149V62.2823Z" fill="white"/>
<path d="M47.6435 62.2823H48.4578V63.0902H47.6435V62.2823Z" fill="white"/>
<path d="M49.2721 61.4744H50.0864V62.2823H49.2721V61.4744Z" fill="white"/>
<path d="M50.9007 59.8586H51.715V60.6665H50.9007V59.8586Z" fill="white"/>
<path d="M11 38.853H11.8143V39.6609H11V38.853Z" fill="white"/>
<path d="M11 39.6609H11.8143V40.4688H11V39.6609Z" fill="white"/>
<path d="M11 40.4688H11.8143V41.2767H11V40.4688Z" fill="white"/>
<path d="M11 41.2767H11.8143V42.0846H11V41.2767Z" fill="white"/>
<path d="M11 42.0846H11.8143V42.8926H11V42.0846Z" fill="white"/>
<path d="M11.8143 42.8926H12.6286V43.7005H11.8143V42.8926Z" fill="white"/>
<path d="M11.8143 43.7005H12.6286V44.5084H11.8143V43.7005Z" fill="white"/>
<path d="M11.8143 44.5084H12.6286V45.3163H11.8143V44.5084Z" fill="white"/>
<path d="M11.8143 45.3163H12.6286V46.1242H11.8143V45.3163Z" fill="white"/>
<path d="M12.6286 46.1242H13.4429V46.9321H12.6286V46.1242Z" fill="white"/>
<path d="M12.6286 46.9321H13.4429V47.74H12.6286V46.9321Z" fill="white"/>
<path d="M12.6286 47.74H13.4429V48.5479H12.6286V47.74Z" fill="white"/>
<path d="M13.4429 48.5479H14.2572V49.3558H13.4429V48.5479Z" fill="white"/>
<path d="M13.4429 49.3558H14.2572V50.1637H13.4429V49.3558Z" fill="white"/>
<path d="M14.2572 50.1637H15.0715V50.9716H14.2572V50.1637Z" fill="white"/>
<path d="M14.2572 50.9716H15.0715V51.7795H14.2572V50.9716Z" fill="white"/>
<path d="M15.0715 51.7795H15.8858V52.5874H15.0715V51.7795Z" fill="white"/>
<path d="M15.0715 52.5874H15.8858V53.3953H15.0715V52.5874Z" fill="white"/>
<path d="M15.8858 53.3953H16.7001V54.2032H15.8858V53.3953Z" fill="white"/>
<path d="M16.7001 54.2032H17.5144V55.0112H16.7001V54.2032Z" fill="white"/>
<path d="M17.5144 55.0112H18.3287V55.8191H17.5144V55.0112Z" fill="white"/>
<path d="M17.5144 55.8191H18.3287V56.627H17.5144V55.8191Z" fill="white"/>
<path d="M18.3287 56.627H19.143V57.4349H18.3287V56.627Z" fill="white"/>
<path d="M19.143 57.4349H19.9573V58.2428H19.143V57.4349Z" fill="white"/>
<path d="M20.7716 58.2428H21.5859V59.0507H20.7716V58.2428Z" fill="white"/>
<path d="M21.5859 59.0507H22.4002V59.8586H21.5859V59.0507Z" fill="white"/>
<path d="M22.4002 59.8586H23.2145V60.6665H22.4002V59.8586Z" fill="white"/>
<path d="M24.0288 60.6665H24.8431V61.4744H24.0288V60.6665Z" fill="white"/>
<path d="M25.6574 61.4744H26.4717V62.2823H25.6574V61.4744Z" fill="white"/>
<path d="M27.286 62.2823H28.1003V63.0902H27.286V62.2823Z" fill="white"/>
<path d="M29.7289 63.0902H30.5432V63.8981H29.7289V63.0902Z" fill="white"/>
<path d="M32.9861 63.8981H33.8004V64.706H32.9861V63.8981Z" fill="white"/>
<path d="M19.9573 57.4349H20.7716V58.2428H19.9573V57.4349Z" fill="white"/>
<path d="M23.2145 59.8586H24.0288V60.6665H23.2145V59.8586Z" fill="white"/>
<path d="M24.8431 61.4744H25.6574V62.2823H24.8431V61.4744Z" fill="white"/>
<path d="M26.4717 62.2823H27.286V63.0902H26.4717V62.2823Z" fill="white"/>
<path d="M28.1003 62.2823H28.9146V63.0902H28.1003V62.2823Z" fill="white"/>
<path d="M28.9146 63.0902H29.7289V63.8981H28.9146V63.0902Z" fill="white"/>
<path d="M30.5432 63.0902H31.3575V63.8981H30.5432V63.0902Z" fill="white"/>
<path d="M31.3575 63.8981H32.1718V64.706H31.3575V63.8981Z" fill="white"/>
<path d="M32.1718 63.8981H32.9861V64.706H32.1718V63.8981Z" fill="white"/>
<path d="M33.8004 63.8981H34.6147V64.706H33.8004V63.8981Z" fill="white"/>
<path d="M34.6147 63.8981H35.429V64.706H34.6147V63.8981Z" fill="white"/>
<path d="M35.429 63.8981H36.2433V64.706H35.429V63.8981Z" fill="white"/>
<path d="M36.2433 63.8981H37.0576V64.706H36.2433V63.8981Z" fill="white"/>
<path d="M34.6147 13H35.429V13.8079H34.6147V13Z" fill="white"/>
<path d="M29.7289 13.8079H30.5432V14.6158H29.7289V13.8079Z" fill="white"/>
<path d="M27.286 14.6158H28.1003V15.4237H27.286V14.6158Z" fill="white"/>
<path d="M25.6574 15.4237H26.4717V16.2316H25.6574V15.4237Z" fill="white"/>
<path d="M24.0288 16.2316H24.8431V17.0395H24.0288V16.2316Z" fill="white"/>
<path d="M23.2145 17.0395H24.0288V17.8474H23.2145V17.0395Z" fill="white"/>
<path d="M21.5859 17.8474H22.4002V18.6553H21.5859V17.8474Z" fill="white"/>
<path d="M20.7716 18.6553H21.5859V19.4633H20.7716V18.6553Z" fill="white"/>
<path d="M19.9573 19.4633H20.7716V20.2712H19.9573V19.4633Z" fill="white"/>
<path d="M19.143 20.2712H19.9573V21.0791H19.143V20.2712Z" fill="white"/>
<path d="M18.3287 21.0791H19.143V21.887H18.3287V21.0791Z" fill="white"/>
<path d="M17.5144 21.887H18.3287V22.6949H17.5144V21.887Z" fill="white"/>
<path d="M16.7001 22.6949H17.5144V23.5028H16.7001V22.6949Z" fill="white"/>
<path d="M15.8858 23.5028H16.7001V24.3107H15.8858V23.5028Z" fill="white"/>
<path d="M15.0715 24.3107H15.8858V25.1186H15.0715V24.3107Z" fill="white"/>
<path d="M15.0715 25.1186H15.8858V25.9265H15.0715V25.1186Z" fill="white"/>
<path d="M14.2572 25.9265H15.0715V26.7344H14.2572V25.9265Z" fill="white"/>
<path d="M14.2572 26.7344H15.0715V27.5423H14.2572V26.7344Z" fill="white"/>
<path d="M13.4429 27.5423H14.2572V28.3502H13.4429V27.5423Z" fill="white"/>
<path d="M13.4429 28.3502H14.2572V29.1581H13.4429V28.3502Z" fill="white"/>
<path d="M12.6286 29.1581H13.4429V29.966H12.6286V29.1581Z" fill="white"/>
<path d="M12.6286 29.966H13.4429V30.774H12.6286V29.966Z" fill="white"/>
<path d="M12.6286 30.774H13.4429V31.5819H12.6286V30.774Z" fill="white"/>
<path d="M11.8143 31.5819H12.6286V32.3898H11.8143V31.5819Z" fill="white"/>
<path d="M11.8143 32.3898H12.6286V33.1977H11.8143V32.3898Z" fill="white"/>
<path d="M11.8143 33.1977H12.6286V34.0056H11.8143V33.1977Z" fill="white"/>
<path d="M11.8143 34.0056H12.6286V34.8135H11.8143V34.0056Z" fill="white"/>
<path d="M11 34.8135H11.8143V35.6214H11V34.8135Z" fill="white"/>
<path d="M11 35.6214H11.8143V36.4293H11V35.6214Z" fill="white"/>
<path d="M11 36.4293H11.8143V37.2372H11V36.4293Z" fill="white"/>
<path d="M11 37.2372H11.8143V38.0451H11V37.2372Z" fill="white"/>
<path d="M11 38.0451H11.8143V38.853H11V38.0451Z" fill="white"/>
<path d="M22.4002 17.0395H23.2145V17.8474H22.4002V17.0395Z" fill="white"/>
<path d="M24.8431 16.2316H25.6574V17.0395H24.8431V16.2316Z" fill="white"/>
<path d="M26.4717 15.4237H27.286V16.2316H26.4717V15.4237Z" fill="white"/>
<path d="M28.1003 14.6158H28.9146V15.4237H28.1003V14.6158Z" fill="white"/>
<path d="M28.9146 13.8079H29.7289V14.6158H28.9146V13.8079Z" fill="white"/>
<path d="M30.5432 13.8079H31.3575V14.6158H30.5432V13.8079Z" fill="white"/>
<path d="M31.3575 13.8079H32.1718V14.6158H31.3575V13.8079Z" fill="white"/>
<path d="M32.1718 13H32.9861V13.8079H32.1718V13Z" fill="white"/>
<path d="M32.9861 13H33.8004V13.8079H32.9861V13Z" fill="white"/>
<path d="M33.8004 13H34.6147V13.8079H33.8004V13Z" fill="white"/>
<path d="M35.429 13H36.2433V13.8079H35.429V13Z" fill="white"/>
<path d="M36.2433 13H37.0576V13.8079H36.2433V13Z" fill="white"/>
<path d="M37.0576 13H37.8719V13.8079H37.0576V13Z" fill="white"/>
<path d="M39.5005 13H40.3148V13.8079H39.5005V13Z" fill="white"/>
<path d="M43.572 13.8079H44.3863V14.6158H43.572V13.8079Z" fill="white"/>
<path d="M46.0149 14.6158H46.8292V15.4237H46.0149V14.6158Z" fill="white"/>
<path d="M48.4578 15.4237H49.2721V16.2316H48.4578V15.4237Z" fill="white"/>
<path d="M50.0864 16.2316H50.9007V17.0395H50.0864V16.2316Z" fill="white"/>
<path d="M50.9007 17.0395H51.715V17.8474H50.9007V17.0395Z" fill="white"/>
<path d="M52.5293 17.8474H53.3436V18.6553H52.5293V17.8474Z" fill="white"/>
<path d="M53.3436 18.6553H54.1579V19.4633H53.3436V18.6553Z" fill="white"/>
<path d="M54.1579 19.4633H54.9722V20.2712H54.1579V19.4633Z" fill="white"/>
<path d="M54.9722 20.2712H55.7865V21.0791H54.9722V20.2712Z" fill="white"/>
<path d="M55.7865 21.0791H56.6008V21.887H55.7865V21.0791Z" fill="white"/>
<path d="M56.6008 21.887H57.4151V22.6949H56.6008V21.887Z" fill="white"/>
<path d="M57.4151 22.6949H58.2294V23.5028H57.4151V22.6949Z" fill="white"/>
<path d="M58.2294 23.5028H59.0437V24.3107H58.2294V23.5028Z" fill="white"/>
<path d="M58.2294 24.3107H59.0437V25.1186H58.2294V24.3107Z" fill="white"/>
<path d="M59.0437 25.1186H59.858V25.9265H59.0437V25.1186Z" fill="white"/>
<path d="M59.858 25.9265H60.6723V26.7344H59.858V25.9265Z" fill="white"/>
<path d="M59.858 26.7344H60.6723V27.5423H59.858V26.7344Z" fill="white"/>
<path d="M60.6723 27.5423H61.4866V28.3502H60.6723V27.5423Z" fill="white"/>
<path d="M60.6723 28.3502H61.4866V29.1581H60.6723V28.3502Z" fill="white"/>
<path d="M60.6723 29.1581H61.4866V29.966H60.6723V29.1581Z" fill="white"/>
<path d="M61.4866 29.966H62.3009V30.774H61.4866V29.966Z" fill="white"/>
<path d="M61.4866 30.774H62.3009V31.5819H61.4866V30.774Z" fill="white"/>
<path d="M61.4866 31.5819H62.3009V32.3898H61.4866V31.5819Z" fill="white"/>
<path d="M62.3009 32.3898H63.1152V33.1977H62.3009V32.3898Z" fill="white"/>
<path d="M62.3009 33.1977H63.1152V34.0056H62.3009V33.1977Z" fill="white"/>
<path d="M62.3009 34.0056H63.1152V34.8135H62.3009V34.0056Z" fill="white"/>
<path d="M62.3009 34.8135H63.1152V35.6214H62.3009V34.8135Z" fill="white"/>
<path d="M62.3009 35.6214H63.1152V36.4293H62.3009V35.6214Z" fill="white"/>
<path d="M63.1152 36.4293H63.9295V37.2372H63.1152V36.4293Z" fill="white"/>
<path d="M63.1152 37.2372H63.9295V38.0451H63.1152V37.2372Z" fill="white"/>
<path d="M63.1152 38.0451H63.9295V38.853H63.1152V38.0451Z" fill="white"/>
<path d="M37.8719 13H38.6862V13.8079H37.8719V13Z" fill="white"/>
<path d="M38.6862 13H39.5005V13.8079H38.6862V13Z" fill="white"/>
<path d="M40.3148 13H41.1291V13.8079H40.3148V13Z" fill="white"/>
<path d="M41.1291 13H41.9434V13.8079H41.1291V13Z" fill="white"/>
<path d="M41.9434 13H42.7577V13.8079H41.9434V13Z" fill="white"/>
<path d="M42.7577 13.8079H43.572V14.6158H42.7577V13.8079Z" fill="white"/>
<path d="M44.3863 13.8079H45.2006V14.6158H44.3863V13.8079Z" fill="white"/>
<path d="M45.2006 13.8079H46.0149V14.6158H45.2006V13.8079Z" fill="white"/>
<path d="M46.8292 14.6158H47.6435V15.4237H46.8292V14.6158Z" fill="white"/>
<path d="M47.6435 15.4237H48.4578V16.2316H47.6435V15.4237Z" fill="white"/>
<path d="M49.2721 16.2316H50.0864V17.0395H49.2721V16.2316Z" fill="white"/>
<path d="M51.715 17.0395H52.5293V17.8474H51.715V17.0395Z" fill="white"/>
<rect x="63.1152" y="38.8535" width="0.814299" height="0.807907" fill="white"/>
<rect x="63.1152" y="39.6616" width="0.814299" height="0.807907" fill="white"/>
<rect x="63.1152" y="40.469" width="0.814299" height="0.807907" fill="white"/>
<rect x="62.3008" y="41.2771" width="0.814299" height="0.807907" fill="white"/>
<rect x="62.3008" y="42.0842" width="0.814299" height="0.807907" fill="white"/>
<rect x="62.3008" y="42.8936" width="0.814299" height="0.807907" fill="white"/>
<rect x="62.3008" y="43.7007" width="0.814299" height="0.807907" fill="white"/>
<rect x="62.3008" y="44.5088" width="0.814299" height="0.807907" fill="white"/>
<rect x="62.3008" y="45.3159" width="0.814299" height="0.807907" fill="white"/>
<rect x="61.4863" y="46.1245" width="0.814299" height="0.807907" fill="white"/>
<rect x="61.4863" y="46.9326" width="0.814299" height="0.807907" fill="white"/>
<rect x="61.4863" y="47.7407" width="0.814299" height="0.807907" fill="white"/>
<rect x="60.6719" y="48.5479" width="0.814299" height="0.807907" fill="white"/>
<rect x="60.6719" y="49.356" width="0.814299" height="0.807907" fill="white"/>
<rect x="59.8584" y="50.1641" width="0.814299" height="0.807907" fill="white"/>
<rect x="59.8584" y="50.9727" width="0.814299" height="0.807907" fill="white"/>
<rect x="59.0439" y="51.7798" width="0.814299" height="0.807907" fill="white"/>
<rect x="58.2295" y="52.5879" width="0.814299" height="0.807907" fill="white"/>
<rect x="58.2295" y="53.395" width="0.814299" height="0.807907" fill="white"/>
<rect x="57.415" y="54.2031" width="0.814299" height="0.807907" fill="white"/>
<rect x="56.6006" y="55.0112" width="0.814299" height="0.807907" fill="white"/>
<rect x="55.7861" y="55.8198" width="0.814299" height="0.807907" fill="white"/>
<rect x="54.9727" y="56.627" width="0.814299" height="0.807907" fill="white"/>
<rect x="54.1582" y="57.4351" width="0.814299" height="0.807907" fill="white"/>
<rect x="53.3438" y="58.2432" width="0.814299" height="0.807907" fill="white"/>
<rect x="52.5293" y="59.0513" width="0.814299" height="0.807907" fill="white"/>
<rect x="51.7148" y="59.8584" width="0.814299" height="0.807907" fill="white"/>
<rect x="50.0859" y="60.667" width="0.814299" height="0.807907" fill="white"/>
<rect x="48.458" y="61.4741" width="0.814299" height="0.807907" fill="white"/>
<rect x="46.8291" y="62.2832" width="0.814299" height="0.807907" fill="white"/>
<rect x="44.3867" y="63.0903" width="0.814299" height="0.807907" fill="white"/>
<rect x="41.1289" y="63.8984" width="0.814299" height="0.807907" fill="white"/>
<rect x="37.0576" y="63.8984" width="0.814299" height="0.807907" fill="white"/>
<rect x="37.8721" y="63.8984" width="0.814299" height="0.807907" fill="white"/>
<rect x="38.6865" y="63.8984" width="0.814299" height="0.807907" fill="white"/>
<rect x="39.5" y="63.8984" width="0.814299" height="0.807907" fill="white"/>
<rect x="40.3145" y="63.8984" width="0.814299" height="0.807907" fill="white"/>
<rect x="41.9434" y="63.8984" width="0.814299" height="0.807907" fill="white"/>
<rect x="42.7578" y="63.8984" width="0.814299" height="0.807907" fill="white"/>
<rect x="43.5723" y="63.0903" width="0.814299" height="0.807907" fill="white"/>
<rect x="45.2002" y="63.0903" width="0.814299" height="0.807907" fill="white"/>
<rect x="46.0146" y="62.2832" width="0.814299" height="0.807907" fill="white"/>
<rect x="47.6436" y="62.2832" width="0.814299" height="0.807907" fill="white"/>
<rect x="49.2725" y="61.4741" width="0.814299" height="0.807907" fill="white"/>
<rect x="50.9004" y="59.8584" width="0.814299" height="0.807907" fill="white"/>
<rect x="11" y="38.8535" width="0.814299" height="0.807907" fill="white"/>
<rect x="11" y="39.6616" width="0.814299" height="0.807907" fill="white"/>
<rect x="11" y="40.469" width="0.814299" height="0.807907" fill="white"/>
<rect x="11" y="41.2771" width="0.814299" height="0.807907" fill="white"/>
<rect x="11" y="42.0842" width="0.814299" height="0.807907" fill="white"/>
<rect x="11.8145" y="42.8936" width="0.814299" height="0.807907" fill="white"/>
<rect x="11.8145" y="43.7007" width="0.814299" height="0.807907" fill="white"/>
<rect x="11.8145" y="44.5088" width="0.814299" height="0.807907" fill="white"/>
<rect x="11.8145" y="45.3159" width="0.814299" height="0.807907" fill="white"/>
<rect x="12.6289" y="46.1245" width="0.814299" height="0.807907" fill="white"/>
<rect x="12.6289" y="46.9326" width="0.814299" height="0.807907" fill="white"/>
<rect x="12.6289" y="47.7407" width="0.814299" height="0.807907" fill="white"/>
<rect x="13.4434" y="48.5479" width="0.814299" height="0.807907" fill="white"/>
<rect x="13.4434" y="49.356" width="0.814299" height="0.807907" fill="white"/>
<rect x="14.2568" y="50.1641" width="0.814299" height="0.807907" fill="white"/>
<rect x="14.2568" y="50.9727" width="0.814299" height="0.807907" fill="white"/>
<rect x="15.0713" y="51.7798" width="0.814299" height="0.807907" fill="white"/>
<rect x="15.0713" y="52.5879" width="0.814299" height="0.807907" fill="white"/>
<rect x="15.8857" y="53.395" width="0.814299" height="0.807907" fill="white"/>
<rect x="16.7002" y="54.2031" width="0.814299" height="0.807907" fill="white"/>
<rect x="17.5146" y="55.0112" width="0.814299" height="0.807907" fill="white"/>
<rect x="17.5146" y="55.8198" width="0.814299" height="0.807907" fill="white"/>
<rect x="18.3291" y="56.627" width="0.814299" height="0.807907" fill="white"/>
<rect x="19.1426" y="57.4351" width="0.814299" height="0.807907" fill="white"/>
<rect x="20.7715" y="58.2432" width="0.814299" height="0.807907" fill="white"/>
<rect x="21.5859" y="59.0513" width="0.814299" height="0.807907" fill="white"/>
<rect x="22.4004" y="59.8584" width="0.814299" height="0.807907" fill="white"/>
<rect x="24.0283" y="60.667" width="0.814299" height="0.807907" fill="white"/>
<rect x="25.6572" y="61.4741" width="0.814299" height="0.807907" fill="white"/>
<rect x="27.2861" y="62.2832" width="0.814299" height="0.807907" fill="white"/>
<rect x="29.7285" y="63.0903" width="0.814299" height="0.807907" fill="white"/>
<rect x="32.9863" y="63.8984" width="0.814299" height="0.807907" fill="white"/>
<rect x="19.957" y="57.4351" width="0.814299" height="0.807907" fill="white"/>
<rect x="23.2148" y="59.8584" width="0.814299" height="0.807907" fill="white"/>
<rect x="24.8428" y="61.4741" width="0.814299" height="0.807907" fill="white"/>
<rect x="26.4717" y="62.2832" width="0.814299" height="0.807907" fill="white"/>
<rect x="28.1006" y="62.2832" width="0.814299" height="0.807907" fill="white"/>
<rect x="28.915" y="63.0903" width="0.814299" height="0.807907" fill="white"/>
<rect x="30.543" y="63.0903" width="0.814299" height="0.807907" fill="white"/>
<rect x="31.3574" y="63.8984" width="0.814299" height="0.807907" fill="white"/>
<rect x="32.1719" y="63.8984" width="0.814299" height="0.807907" fill="white"/>
<rect x="33.8008" y="63.8984" width="0.814299" height="0.807907" fill="white"/>
<rect x="34.6143" y="63.8984" width="0.814299" height="0.807907" fill="white"/>
<rect x="35.4287" y="63.8984" width="0.814299" height="0.807907" fill="white"/>
<rect x="36.2432" y="63.8984" width="0.814299" height="0.807907" fill="white"/>
<rect x="34.6143" y="13.0002" width="0.814299" height="0.807907" fill="white"/>
<rect x="29.7285" y="13.8083" width="0.814299" height="0.807907" fill="white"/>
<rect x="27.2861" y="14.6157" width="0.814299" height="0.807907" fill="white"/>
<rect x="25.6572" y="15.4238" width="0.814299" height="0.807907" fill="white"/>
<rect x="24.0283" y="16.2319" width="0.814299" height="0.807907" fill="white"/>
<rect x="23.2148" y="17.0403" width="0.814299" height="0.807907" fill="white"/>
<rect x="21.5859" y="17.8474" width="0.814299" height="0.807907" fill="white"/>
<rect x="20.7715" y="18.6555" width="0.814299" height="0.807907" fill="white"/>
<rect x="19.957" y="19.4639" width="0.814299" height="0.807907" fill="white"/>
<rect x="19.1426" y="20.272" width="0.814299" height="0.807907" fill="white"/>
<rect x="18.3291" y="21.0791" width="0.814299" height="0.807907" fill="white"/>
<rect x="17.5146" y="21.8875" width="0.814299" height="0.807907" fill="white"/>
<rect x="16.7002" y="22.6946" width="0.814299" height="0.807907" fill="white"/>
<rect x="15.8857" y="23.5037" width="0.814299" height="0.807907" fill="white"/>
<rect x="15.0713" y="24.311" width="0.814299" height="0.807907" fill="white"/>
<rect x="15.0713" y="25.1191" width="0.814299" height="0.807907" fill="white"/>
<rect x="14.2568" y="25.9265" width="0.814299" height="0.807907" fill="white"/>
<rect x="14.2568" y="26.7346" width="0.814299" height="0.807907" fill="white"/>
<rect x="13.4434" y="27.5427" width="0.814299" height="0.807907" fill="white"/>
<rect x="13.4434" y="28.3508" width="0.814299" height="0.807907" fill="white"/>
<rect x="12.6289" y="29.1582" width="0.814299" height="0.807907" fill="white"/>
<rect x="12.6289" y="29.9663" width="0.814299" height="0.807907" fill="white"/>
<rect x="12.6289" y="30.7744" width="0.814299" height="0.807907" fill="white"/>
<rect x="11.8145" y="31.5828" width="0.814299" height="0.807907" fill="white"/>
<rect x="11.8145" y="32.3899" width="0.814299" height="0.807907" fill="white"/>
<rect x="11.8145" y="33.1982" width="0.814299" height="0.807907" fill="white"/>
<rect x="11.8145" y="34.0054" width="0.814299" height="0.807907" fill="white"/>
<rect x="11" y="34.8135" width="0.814299" height="0.807907" fill="white"/>
<rect x="11" y="35.6218" width="0.814299" height="0.807907" fill="white"/>
<rect x="11" y="36.4299" width="0.814299" height="0.807907" fill="white"/>
<rect x="11" y="37.2371" width="0.814299" height="0.807907" fill="white"/>
<rect x="11" y="38.0454" width="0.814299" height="0.807907" fill="white"/>
<rect x="22.4004" y="17.0403" width="0.814299" height="0.807907" fill="white"/>
<rect x="24.8428" y="16.2319" width="0.814299" height="0.807907" fill="white"/>
<rect x="26.4717" y="15.4238" width="0.814299" height="0.807907" fill="white"/>
<rect x="28.1006" y="14.6157" width="0.814299" height="0.807907" fill="white"/>
<rect x="28.915" y="13.8083" width="0.814299" height="0.807907" fill="white"/>
<rect x="30.543" y="13.8083" width="0.814299" height="0.807907" fill="white"/>
<rect x="31.3574" y="13.8083" width="0.814299" height="0.807907" fill="white"/>
<rect x="32.1719" y="13.0002" width="0.814299" height="0.807907" fill="white"/>
<rect x="32.9863" y="13.0002" width="0.814299" height="0.807907" fill="white"/>
<rect x="33.8008" y="13.0002" width="0.814299" height="0.807907" fill="white"/>
<rect x="35.4287" y="13.0002" width="0.814299" height="0.807907" fill="white"/>
<rect x="36.2432" y="13.0002" width="0.814299" height="0.807907" fill="white"/>
<rect x="37.0576" y="13.0002" width="0.814299" height="0.807907" fill="white"/>
<rect x="39.5" y="13.0002" width="0.814299" height="0.807907" fill="white"/>
<rect x="43.5723" y="13.8083" width="0.814299" height="0.807907" fill="white"/>
<rect x="46.0146" y="14.6157" width="0.814299" height="0.807907" fill="white"/>
<rect x="48.458" y="15.4238" width="0.814299" height="0.807907" fill="white"/>
<rect x="50.0859" y="16.2319" width="0.814299" height="0.807907" fill="white"/>
<rect x="50.9004" y="17.0403" width="0.814299" height="0.807907" fill="white"/>
<rect x="52.5293" y="17.8474" width="0.814299" height="0.807907" fill="white"/>
<rect x="53.3438" y="18.6555" width="0.814299" height="0.807907" fill="white"/>
<rect x="54.1582" y="19.4639" width="0.814299" height="0.807907" fill="white"/>
<rect x="54.9727" y="20.272" width="0.814299" height="0.807907" fill="white"/>
<rect x="55.7861" y="21.0791" width="0.814299" height="0.807907" fill="white"/>
<rect x="56.6006" y="21.8875" width="0.814299" height="0.807907" fill="white"/>
<rect x="57.415" y="22.6946" width="0.814299" height="0.807907" fill="white"/>
<rect x="58.2295" y="23.5037" width="0.814299" height="0.807907" fill="white"/>
<rect x="58.2295" y="24.311" width="0.814299" height="0.807907" fill="white"/>
<rect x="59.0439" y="25.1191" width="0.814299" height="0.807907" fill="white"/>
<rect x="59.8584" y="25.9265" width="0.814299" height="0.807907" fill="white"/>
<rect x="59.8584" y="26.7346" width="0.814299" height="0.807907" fill="white"/>
<rect x="60.6719" y="27.5427" width="0.814299" height="0.807907" fill="white"/>
<rect x="60.6719" y="28.3508" width="0.814299" height="0.807907" fill="white"/>
<rect x="60.6719" y="29.1582" width="0.814299" height="0.807907" fill="white"/>
<rect x="61.4863" y="29.9663" width="0.814299" height="0.807907" fill="white"/>
<rect x="61.4863" y="30.7744" width="0.814299" height="0.807907" fill="white"/>
<rect x="61.4863" y="31.5828" width="0.814299" height="0.807907" fill="white"/>
<rect x="62.3008" y="32.3899" width="0.814299" height="0.807907" fill="white"/>
<rect x="62.3008" y="33.1982" width="0.814299" height="0.807907" fill="white"/>
<rect x="62.3008" y="34.0054" width="0.814299" height="0.807907" fill="white"/>
<rect x="62.3008" y="34.8135" width="0.814299" height="0.807907" fill="white"/>
<rect x="62.3008" y="35.6218" width="0.814299" height="0.807907" fill="white"/>
<rect x="63.1152" y="36.4299" width="0.814299" height="0.807907" fill="white"/>
<rect x="63.1152" y="37.2371" width="0.814299" height="0.807907" fill="white"/>
<rect x="63.1152" y="38.0454" width="0.814299" height="0.807907" fill="white"/>
<rect x="37.8721" y="13.0002" width="0.814299" height="0.807907" fill="white"/>
<rect x="38.6865" y="13.0002" width="0.814299" height="0.807907" fill="white"/>
<rect x="40.3145" y="13.0002" width="0.814299" height="0.807907" fill="white"/>
<rect x="41.1289" y="13.0002" width="0.814299" height="0.807907" fill="white"/>
<rect x="41.9434" y="13.0002" width="0.814299" height="0.807907" fill="white"/>
<rect x="42.7578" y="13.8083" width="0.814299" height="0.807907" fill="white"/>
<rect x="44.3867" y="13.8083" width="0.814299" height="0.807907" fill="white"/>
<rect x="45.2002" y="13.8083" width="0.814299" height="0.807907" fill="white"/>
<rect x="46.8291" y="14.6157" width="0.814299" height="0.807907" fill="white"/>
<rect x="47.6436" y="15.4238" width="0.814299" height="0.807907" fill="white"/>
<rect x="49.2725" y="16.2319" width="0.814299" height="0.807907" fill="white"/>
<rect x="51.7148" y="17.0403" width="0.814299" height="0.807907" fill="white"/>
<rect x="63.9297" y="38.8535" width="0.814299" height="0.807907" fill="white"/>
<rect x="63.9297" y="39.6616" width="0.814299" height="0.807907" fill="white"/>
<rect x="63.9297" y="40.469" width="0.814299" height="0.807907" fill="white"/>
<rect x="63.9297" y="41.2771" width="0.814299" height="0.807907" fill="white"/>
<rect x="63.1152" y="41.2771" width="0.814299" height="0.807907" fill="white"/>
<rect x="63.1152" y="42.0842" width="0.814299" height="0.807907" fill="white"/>
<rect x="63.1152" y="42.8936" width="0.814299" height="0.807907" fill="white"/>
<rect x="63.1152" y="43.7007" width="0.814299" height="0.807907" fill="white"/>
<rect x="63.1152" y="44.5088" width="0.814299" height="0.807907" fill="white"/>
<rect x="63.1152" y="45.3159" width="0.814299" height="0.807907" fill="white"/>
<rect x="63.1152" y="46.1245" width="0.814299" height="0.807907" fill="white"/>
<rect x="62.3008" y="46.1245" width="0.814299" height="0.807907" fill="white"/>
<rect x="62.3008" y="46.9326" width="0.814299" height="0.807907" fill="white"/>
<rect x="62.3008" y="47.7407" width="0.814299" height="0.807907" fill="white"/>
<rect x="62.3008" y="48.5479" width="0.814299" height="0.807907" fill="white"/>
<rect x="61.4863" y="48.5479" width="0.814299" height="0.807907" fill="white"/>
<rect x="61.4863" y="49.356" width="0.814299" height="0.807907" fill="white"/>
<rect x="61.4863" y="50.1641" width="0.814299" height="0.807907" fill="white"/>
<rect x="60.6719" y="50.1641" width="0.814299" height="0.807907" fill="white"/>
<rect x="60.6719" y="50.9727" width="0.814299" height="0.807907" fill="white"/>
<rect x="60.6719" y="51.7798" width="0.814299" height="0.807907" fill="white"/>
<rect x="59.8584" y="51.7798" width="0.814299" height="0.807907" fill="white"/>
<rect x="59.8584" y="52.5879" width="0.814299" height="0.807907" fill="white"/>
<rect x="59.0439" y="52.5879" width="0.814299" height="0.807907" fill="white"/>
<rect x="59.0439" y="53.395" width="0.814299" height="0.807907" fill="white"/>
<rect x="59.0439" y="54.2031" width="0.814299" height="0.807907" fill="white"/>
<rect x="58.2295" y="54.2031" width="0.814299" height="0.807907" fill="white"/>
<rect x="58.2295" y="55.0112" width="0.814299" height="0.807907" fill="white"/>
<rect x="57.415" y="55.0112" width="0.814299" height="0.807907" fill="white"/>
<rect x="57.415" y="55.8198" width="0.814299" height="0.807907" fill="white"/>
<rect x="56.6006" y="55.8198" width="0.814299" height="0.807907" fill="white"/>
<rect x="56.6006" y="56.627" width="0.814299" height="0.807907" fill="white"/>
<rect x="55.7861" y="56.627" width="0.814299" height="0.807907" fill="white"/>
<rect x="55.7861" y="57.4351" width="0.814299" height="0.807907" fill="white"/>
<rect x="54.9727" y="57.4351" width="0.814299" height="0.807907" fill="white"/>
<rect x="54.9727" y="58.2432" width="0.814299" height="0.807907" fill="white"/>
<rect x="54.1582" y="58.2432" width="0.814299" height="0.807907" fill="white"/>
<rect x="54.1582" y="59.0513" width="0.814299" height="0.807907" fill="white"/>
<rect x="53.3438" y="59.0513" width="0.814299" height="0.807907" fill="white"/>
<rect x="53.3438" y="59.8584" width="0.814299" height="0.807907" fill="white"/>
<rect x="52.5293" y="59.8584" width="0.814299" height="0.807907" fill="white"/>
<rect x="52.5293" y="60.667" width="0.814299" height="0.807907" fill="white"/>
<rect x="51.7148" y="60.667" width="0.814299" height="0.807907" fill="white"/>
<rect x="50.0859" y="59.8584" width="0.814299" height="0.807907" fill="white"/>
<rect x="50.9004" y="60.667" width="0.814299" height="0.807907" fill="white"/>
<rect x="50.9004" y="61.4741" width="0.814299" height="0.807907" fill="white"/>
<rect x="50.0859" y="61.4741" width="0.814299" height="0.807907" fill="white"/>
<rect x="49.2725" y="62.2832" width="0.814299" height="0.807907" fill="white"/>
<rect x="48.458" y="62.2832" width="0.814299" height="0.807907" fill="white"/>
<rect x="47.6436" y="63.0903" width="0.814299" height="0.807907" fill="white"/>
<rect x="46.8291" y="63.0903" width="0.814299" height="0.807907" fill="white"/>
<rect x="45.2002" y="63.8984" width="0.814299" height="0.807907" fill="white"/>
<rect x="44.3867" y="63.8984" width="0.814299" height="0.807907" fill="white"/>
<rect x="41.9434" y="64.7061" width="0.814299" height="0.807907" fill="white"/>
<rect x="41.1289" y="64.7061" width="0.814299" height="0.807907" fill="white"/>
<rect x="37.8721" y="64.7061" width="0.814299" height="0.807907" fill="white"/>
<rect x="37.0576" y="64.7061" width="0.814299" height="0.807907" fill="white"/>
<rect x="38.6865" y="64.7061" width="0.814299" height="0.807907" fill="white"/>
<rect x="39.5" y="64.7061" width="0.814299" height="0.807907" fill="white"/>
<rect x="40.3145" y="64.7061" width="0.814299" height="0.807907" fill="white"/>
<rect x="42.7578" y="64.7061" width="0.814299" height="0.807907" fill="white"/>
<rect x="43.5723" y="63.8984" width="0.814299" height="0.807907" fill="white"/>
<rect x="43.5723" y="64.7061" width="0.814299" height="0.807907" fill="white"/>
<rect x="46.0146" y="63.0903" width="0.814299" height="0.807907" fill="white"/>
<rect x="46.0146" y="63.8984" width="0.814299" height="0.807907" fill="white"/>
<rect x="48.458" y="63.0903" width="0.814299" height="0.807907" fill="white"/>
<rect x="50.0859" y="62.2832" width="0.814299" height="0.807907" fill="white"/>
<rect x="11.8145" y="38.8535" width="0.814299" height="0.807907" fill="white"/>
<rect x="11.8145" y="39.6616" width="0.814299" height="0.807907" fill="white"/>
<rect x="11.8145" y="40.469" width="0.814299" height="0.807907" fill="white"/>
<rect x="11.8145" y="41.2771" width="0.814299" height="0.807907" fill="white"/>
<rect x="11.8145" y="42.0842" width="0.814299" height="0.807907" fill="white"/>
<rect x="11" y="42.8936" width="0.814299" height="0.807907" fill="white"/>
<rect x="12.6289" y="42.8936" width="0.814299" height="0.807907" fill="white"/>
<rect x="12.6289" y="43.7007" width="0.814299" height="0.807907" fill="white"/>
<rect x="12.6289" y="44.5088" width="0.814299" height="0.807907" fill="white"/>
<rect x="12.6289" y="45.3159" width="0.814299" height="0.807907" fill="white"/>
<rect x="11.8145" y="46.1245" width="0.814299" height="0.807907" fill="white"/>
<rect x="13.4434" y="46.1245" width="0.814299" height="0.807907" fill="white"/>
<rect x="13.4434" y="46.9326" width="0.814299" height="0.807907" fill="white"/>
<rect x="13.4434" y="47.7407" width="0.814299" height="0.807907" fill="white"/>
<rect x="12.6289" y="48.5479" width="0.814299" height="0.807907" fill="white"/>
<rect x="14.2568" y="48.5479" width="0.814299" height="0.807907" fill="white"/>
<rect x="14.2568" y="49.356" width="0.814299" height="0.807907" fill="white"/>
<rect x="13.4434" y="50.1641" width="0.814299" height="0.807907" fill="white"/>
<rect x="15.0713" y="50.1641" width="0.814299" height="0.807907" fill="white"/>
<rect x="15.0713" y="50.9727" width="0.814299" height="0.807907" fill="white"/>
<rect x="14.2568" y="51.7798" width="0.814299" height="0.807907" fill="white"/>
<rect x="15.8857" y="51.7798" width="0.814299" height="0.807907" fill="white"/>
<rect x="15.8857" y="52.5879" width="0.814299" height="0.807907" fill="white"/>
<rect x="15.0713" y="53.395" width="0.814299" height="0.807907" fill="white"/>
<rect x="16.7002" y="53.395" width="0.814299" height="0.807907" fill="white"/>
<rect x="15.8857" y="54.2031" width="0.814299" height="0.807907" fill="white"/>
<rect x="17.5146" y="54.2031" width="0.814299" height="0.807907" fill="white"/>
<rect x="16.7002" y="55.0112" width="0.814299" height="0.807907" fill="white"/>
<rect x="18.3291" y="55.0112" width="0.814299" height="0.807907" fill="white"/>
<rect x="18.3291" y="55.8198" width="0.814299" height="0.807907" fill="white"/>
<rect x="17.5146" y="56.627" width="0.814299" height="0.807907" fill="white"/>
<rect x="19.1426" y="56.627" width="0.814299" height="0.807907" fill="white"/>
<rect x="18.3291" y="57.4351" width="0.814299" height="0.807907" fill="white"/>
<rect x="19.957" y="58.2432" width="0.814299" height="0.807907" fill="white"/>
<rect x="19.1426" y="58.2432" width="0.814299" height="0.807907" fill="white"/>
<rect x="21.5859" y="58.2432" width="0.814299" height="0.807907" fill="white"/>
<rect x="20.7715" y="59.0513" width="0.814299" height="0.807907" fill="white"/>
<rect x="22.4004" y="59.0513" width="0.814299" height="0.807907" fill="white"/>
<rect x="21.5859" y="59.8584" width="0.814299" height="0.807907" fill="white"/>
<rect x="23.2148" y="60.667" width="0.814299" height="0.807907" fill="white"/>
<rect x="22.4004" y="60.667" width="0.814299" height="0.807907" fill="white"/>
<rect x="24.0283" y="59.8584" width="0.814299" height="0.807907" fill="white"/>
<rect x="24.8428" y="60.667" width="0.814299" height="0.807907" fill="white"/>
<rect x="24.0283" y="61.4741" width="0.814299" height="0.807907" fill="white"/>
<rect x="26.4717" y="61.4741" width="0.814299" height="0.807907" fill="white"/>
<rect x="25.6572" y="62.2832" width="0.814299" height="0.807907" fill="white"/>
<rect x="28.1006" y="63.0903" width="0.814299" height="0.807907" fill="white"/>
<rect x="27.2861" y="63.0903" width="0.814299" height="0.807907" fill="white"/>
<rect x="30.543" y="63.8984" width="0.814299" height="0.807907" fill="white"/>
<rect x="29.7285" y="63.8984" width="0.814299" height="0.807907" fill="white"/>
<rect x="33.8008" y="64.7061" width="0.814299" height="0.807907" fill="white"/>
<rect x="32.9863" y="64.7061" width="0.814299" height="0.807907" fill="white"/>
<rect x="20.7715" y="57.4351" width="0.814299" height="0.807907" fill="white"/>
<rect x="24.8428" y="62.2832" width="0.814299" height="0.807907" fill="white"/>
<rect x="26.4717" y="63.0903" width="0.814299" height="0.807907" fill="white"/>
<rect x="28.915" y="62.2832" width="0.814299" height="0.807907" fill="white"/>
<rect x="28.915" y="63.8984" width="0.814299" height="0.807907" fill="white"/>
<rect x="31.3574" y="63.0903" width="0.814299" height="0.807907" fill="white"/>
<rect x="32.1719" y="64.7061" width="0.814299" height="0.807907" fill="white"/>
<rect x="31.3574" y="64.7061" width="0.814299" height="0.807907" fill="white"/>
<rect x="34.6143" y="64.7061" width="0.814299" height="0.807907" fill="white"/>
<rect x="35.4287" y="64.7061" width="0.814299" height="0.807907" fill="white"/>
<rect x="36.2432" y="64.7061" width="0.814299" height="0.807907" fill="white"/>
<rect x="35.4287" y="13.8083" width="0.814299" height="0.807907" fill="white"/>
<rect x="34.6143" y="13.8083" width="0.814299" height="0.807907" fill="white"/>
<rect x="30.543" y="14.6157" width="0.814299" height="0.807907" fill="white"/>
<rect x="29.7285" y="14.6157" width="0.814299" height="0.807907" fill="white"/>
<rect x="28.1006" y="15.4238" width="0.814299" height="0.807907" fill="white"/>
<rect x="27.2861" y="15.4238" width="0.814299" height="0.807907" fill="white"/>
<rect x="26.4717" y="16.2319" width="0.814299" height="0.807907" fill="white"/>
<rect x="25.6572" y="16.2319" width="0.814299" height="0.807907" fill="white"/>
<rect x="24.8428" y="17.0403" width="0.814299" height="0.807907" fill="white"/>
<rect x="24.0283" y="17.0403" width="0.814299" height="0.807907" fill="white"/>
<rect x="24.0283" y="17.8474" width="0.814299" height="0.807907" fill="white"/>
<rect x="23.2148" y="17.8474" width="0.814299" height="0.807907" fill="white"/>
<rect x="22.4004" y="17.8474" width="0.814299" height="0.807907" fill="white"/>
<rect x="22.4004" y="18.6555" width="0.814299" height="0.807907" fill="white"/>
<rect x="21.5859" y="18.6555" width="0.814299" height="0.807907" fill="white"/>
<rect x="21.5859" y="19.4639" width="0.814299" height="0.807907" fill="white"/>
<rect x="20.7715" y="19.4639" width="0.814299" height="0.807907" fill="white"/>
<rect x="19.957" y="18.6555" width="0.814299" height="0.807907" fill="white"/>
<rect x="20.7715" y="20.272" width="0.814299" height="0.807907" fill="white"/>
<rect x="19.957" y="20.272" width="0.814299" height="0.807907" fill="white"/>
<rect x="19.957" y="21.0791" width="0.814299" height="0.807907" fill="white"/>
<rect x="19.1426" y="21.0791" width="0.814299" height="0.807907" fill="white"/>
<rect x="19.1426" y="21.8875" width="0.814299" height="0.807907" fill="white"/>
<rect x="18.3291" y="21.8875" width="0.814299" height="0.807907" fill="white"/>
<rect x="18.3291" y="22.6946" width="0.814299" height="0.807907" fill="white"/>
<rect x="17.5146" y="22.6946" width="0.814299" height="0.807907" fill="white"/>
<rect x="17.5146" y="23.5037" width="0.814299" height="0.807907" fill="white"/>
<rect x="16.7002" y="23.5037" width="0.814299" height="0.807907" fill="white"/>
<rect x="16.7002" y="24.311" width="0.814299" height="0.807907" fill="white"/>
<rect x="15.8857" y="24.311" width="0.814299" height="0.807907" fill="white"/>
<rect x="15.8857" y="25.1191" width="0.814299" height="0.807907" fill="white"/>
<rect x="15.8857" y="25.9265" width="0.814299" height="0.807907" fill="white"/>
<rect x="15.0713" y="25.9265" width="0.814299" height="0.807907" fill="white"/>
<rect x="14.2568" y="25.1191" width="0.814299" height="0.807907" fill="white"/>
<rect x="15.0713" y="26.7346" width="0.814299" height="0.807907" fill="white"/>
<rect x="15.0713" y="27.5427" width="0.814299" height="0.807907" fill="white"/>
<rect x="14.2568" y="27.5427" width="0.814299" height="0.807907" fill="white"/>
<rect x="14.2568" y="28.3508" width="0.814299" height="0.807907" fill="white"/>
<rect x="14.2568" y="29.1582" width="0.814299" height="0.807907" fill="white"/>
<rect x="13.4434" y="29.1582" width="0.814299" height="0.807907" fill="white"/>
<rect x="13.4434" y="29.9663" width="0.814299" height="0.807907" fill="white"/>
<rect x="13.4434" y="30.7744" width="0.814299" height="0.807907" fill="white"/>
<rect x="13.4434" y="31.5828" width="0.814299" height="0.807907" fill="white"/>
<rect x="12.6289" y="31.5828" width="0.814299" height="0.807907" fill="white"/>
<rect x="12.6289" y="32.3899" width="0.814299" height="0.807907" fill="white"/>
<rect x="12.6289" y="33.1982" width="0.814299" height="0.807907" fill="white"/>
<rect x="12.6289" y="34.0054" width="0.814299" height="0.807907" fill="white"/>
<rect x="12.6289" y="34.8135" width="0.814299" height="0.807907" fill="white"/>
<rect x="11.8145" y="34.8135" width="0.814299" height="0.807907" fill="white"/>
<rect x="11.8145" y="35.6218" width="0.814299" height="0.807907" fill="white"/>
<rect x="11.8145" y="36.4299" width="0.814299" height="0.807907" fill="white"/>
<rect x="11.8145" y="37.2371" width="0.814299" height="0.807907" fill="white"/>
<rect x="11.8145" y="38.0454" width="0.814299" height="0.807907" fill="white"/>
<rect x="25.6572" y="17.0403" width="0.814299" height="0.807907" fill="white"/>
<rect x="27.2861" y="16.2319" width="0.814299" height="0.807907" fill="white"/>
<rect x="28.915" y="14.6157" width="0.814299" height="0.807907" fill="white"/>
<rect x="28.915" y="15.4238" width="0.814299" height="0.807907" fill="white"/>
<rect x="31.3574" y="14.6157" width="0.814299" height="0.807907" fill="white"/>
<rect x="32.1719" y="13.8083" width="0.814299" height="0.807907" fill="white"/>
<rect x="32.1719" y="14.6157" width="0.814299" height="0.807907" fill="white"/>
<rect x="32.9863" y="13.8083" width="0.814299" height="0.807907" fill="white"/>
<rect x="33.8008" y="13.8083" width="0.814299" height="0.807907" fill="white"/>
<rect x="36.2432" y="13.8083" width="0.814299" height="0.807907" fill="white"/>
<rect x="37.0576" y="13.8083" width="0.814299" height="0.807907" fill="white"/>
<rect x="37.8721" y="13.8083" width="0.814299" height="0.807907" fill="white"/>
<rect x="40.3145" y="13.8083" width="0.814299" height="0.807907" fill="white"/>
<rect x="39.5" y="13.8083" width="0.814299" height="0.807907" fill="white"/>
<rect x="44.3867" y="14.6157" width="0.814299" height="0.807907" fill="white"/>
<rect x="43.5723" y="14.6157" width="0.814299" height="0.807907" fill="white"/>
<rect x="46.8291" y="15.4238" width="0.814299" height="0.807907" fill="white"/>
<rect x="46.0146" y="15.4238" width="0.814299" height="0.807907" fill="white"/>
<rect x="49.2725" y="15.4238" width="0.814299" height="0.807907" fill="white"/>
<rect x="48.458" y="16.2319" width="0.814299" height="0.807907" fill="white"/>
<rect x="50.9004" y="16.2319" width="0.814299" height="0.807907" fill="white"/>
<rect x="50.0859" y="17.0403" width="0.814299" height="0.807907" fill="white"/>
<rect x="51.7148" y="17.8474" width="0.814299" height="0.807907" fill="white"/>
<rect x="50.9004" y="17.8474" width="0.814299" height="0.807907" fill="white"/>
<rect x="53.3438" y="17.8474" width="0.814299" height="0.807907" fill="white"/>
<rect x="52.5293" y="18.6555" width="0.814299" height="0.807907" fill="white"/>
<rect x="54.1582" y="18.6555" width="0.814299" height="0.807907" fill="white"/>
<rect x="53.3438" y="19.4639" width="0.814299" height="0.807907" fill="white"/>
<rect x="54.9727" y="19.4639" width="0.814299" height="0.807907" fill="white"/>
<rect x="54.1582" y="20.272" width="0.814299" height="0.807907" fill="white"/>
<rect x="55.7861" y="20.272" width="0.814299" height="0.807907" fill="white"/>
<rect x="54.9727" y="21.0791" width="0.814299" height="0.807907" fill="white"/>
<rect x="56.6006" y="21.0791" width="0.814299" height="0.807907" fill="white"/>
<rect x="55.7861" y="21.8875" width="0.814299" height="0.807907" fill="white"/>
<rect x="57.415" y="21.8875" width="0.814299" height="0.807907" fill="white"/>
<rect x="56.6006" y="22.6946" width="0.814299" height="0.807907" fill="white"/>
<rect x="58.2295" y="22.6946" width="0.814299" height="0.807907" fill="white"/>
<rect x="57.415" y="23.5037" width="0.814299" height="0.807907" fill="white"/>
<rect x="59.0439" y="23.5037" width="0.814299" height="0.807907" fill="white"/>
<rect x="59.0439" y="24.311" width="0.814299" height="0.807907" fill="white"/>
<rect x="58.2295" y="25.1191" width="0.814299" height="0.807907" fill="white"/>
<rect x="59.8584" y="25.1191" width="0.814299" height="0.807907" fill="white"/>
<rect x="59.0439" y="25.9265" width="0.814299" height="0.807907" fill="white"/>
<rect x="60.6719" y="25.9265" width="0.814299" height="0.807907" fill="white"/>
<rect x="60.6719" y="26.7346" width="0.814299" height="0.807907" fill="white"/>
<rect x="59.8584" y="27.5427" width="0.814299" height="0.807907" fill="white"/>
<rect x="61.4863" y="27.5427" width="0.814299" height="0.807907" fill="white"/>
<rect x="61.4863" y="28.3508" width="0.814299" height="0.807907" fill="white"/>
<rect x="61.4863" y="29.1582" width="0.814299" height="0.807907" fill="white"/>
<rect x="60.6719" y="29.9663" width="0.814299" height="0.807907" fill="white"/>
<rect x="62.3008" y="29.9663" width="0.814299" height="0.807907" fill="white"/>
<rect x="62.3008" y="30.7744" width="0.814299" height="0.807907" fill="white"/>
<rect x="62.3008" y="31.5828" width="0.814299" height="0.807907" fill="white"/>
<rect x="61.4863" y="32.3899" width="0.814299" height="0.807907" fill="white"/>
<rect x="63.1152" y="32.3899" width="0.814299" height="0.807907" fill="white"/>
<rect x="63.1152" y="33.1982" width="0.814299" height="0.807907" fill="white"/>
<rect x="63.1152" y="34.0054" width="0.814299" height="0.807907" fill="white"/>
<rect x="63.1152" y="34.8135" width="0.814299" height="0.807907" fill="white"/>
<rect x="63.1152" y="35.6218" width="0.814299" height="0.807907" fill="white"/>
<rect x="62.3008" y="36.4299" width="0.814299" height="0.807907" fill="white"/>
<rect x="63.9297" y="36.4299" width="0.814299" height="0.807907" fill="white"/>
<rect x="63.9297" y="37.2371" width="0.814299" height="0.807907" fill="white"/>
<rect x="63.9297" y="38.0454" width="0.814299" height="0.807907" fill="white"/>
<rect x="38.6865" y="13.8083" width="0.814299" height="0.807907" fill="white"/>
<rect x="41.1289" y="13.8083" width="0.814299" height="0.807907" fill="white"/>
<rect x="41.9434" y="13.8083" width="0.814299" height="0.807907" fill="white"/>
<rect x="42.7578" y="13.0002" width="0.814299" height="0.807907" fill="white"/>
<rect x="42.7578" y="14.6157" width="0.814299" height="0.807907" fill="white"/>
<rect x="45.2002" y="14.6157" width="0.814299" height="0.807907" fill="white"/>
<rect x="46.0146" y="13.8083" width="0.814299" height="0.807907" fill="white"/>
<rect x="47.6436" y="14.6157" width="0.814299" height="0.807907" fill="white"/>
<rect x="47.6436" y="16.2319" width="0.814299" height="0.807907" fill="white"/>
<rect x="49.2725" y="17.0403" width="0.814299" height="0.807907" fill="white"/>
<rect x="52.5293" y="17.0403" width="0.814299" height="0.807907" fill="white"/>
<path d="M24.9287 55.2646V23.2661H48.8004C48.8004 23.3285 48.784 23.3881 48.784 23.4505C48.784 26.3141 48.784 29.1786 48.784 32.044C48.789 32.123 48.7982 32.2018 48.8113 32.2799H50.8694V30.2326H55.1004V32.3097H57.164V36.4939H55.0867V38.582H52.9603V40.6673H50.8667V42.7553H48.7731V55.2591L24.9287 55.2646ZM42.4211 49.0276V46.9206H40.333V44.8434H38.2885V49.0005C38.7341 49.0005 39.1522 49.0005 39.5704 49.0005L42.4293 49.0222V51.0722H29.8567V48.9896H36.143V44.8271H38.2339V42.7309H40.3658V40.6348H42.4485V38.5657H44.5557V36.4614H46.6439V25.3758H27.0688V53.144H46.6412V46.9531H44.5639V49.033L42.4211 49.0276ZM52.9712 34.3842V36.4343H55.0321V32.3369H50.894V34.3924L52.9712 34.3842Z" fill="white"/>
<path d="M43.8556 28.158V30.208H29.8535V28.158H43.8556Z" fill="white"/>
<path d="M43.8556 33.0256V35.0757H29.8535V33.0256H43.8556Z" fill="white"/>
<path d="M74.75 35.25V33.5H73V24.75H74.75V23H83.5V24.75H85.25V33.5H83.5V35.25H74.75ZM76.5 33.5H81.75V24.75H76.5V33.5ZM92.25 37V35.25H88.75V33.5H87V28.25H88.75V26.5H92.25V24.75H94V26.5H97.5V28.25H99.25V33.5H97.5V35.25H94V37H92.25ZM90.5 33.5H92.25V28.25H90.5V33.5ZM94 33.5H95.75V28.25H94V33.5ZM102.75 35.25V33.5H101V28.25H102.75V26.5H111.5V28.25H113.25V33.5H111.5V35.25H102.75ZM104.5 33.5H109.75V28.25H104.5V33.5ZM127.25 28.25V33.5H125.5V35.25H118.5V37H115V26.5H118.5V28.25H120.25V30H118.5V33.5H123.75V28.25H120.25V26.5H125.5V28.25H127.25ZM134.25 28.25V30H132.5V35.25H129V26.5H132.5V28.25H134.25ZM141.25 26.5V35.25H137.75V30H136V28.25H137.75V26.5H141.25ZM134.25 30H136V33.5H134.25V30ZM155.25 26.5V35.25H151.75V28.25H148.25V33.5H146.5V35.25H143V31.75H144.75V30H146.5V26.5H155.25ZM158.75 35.25V33.5H157V28.25H158.75V26.5H167.5V28.25H169.25V31.75H160.5V33.5H167.5V35.25H158.75ZM160.5 30H165.75V28.25H160.5V30ZM171 35.25V26.5H174.5V30H179.75V26.5H183.25V35.25H179.75V31.75H174.5V35.25H171ZM188.5 31.75H190.25V33.5H188.5V35.25H185V26.5H188.5V31.75ZM197.25 26.5V35.25H193.75V30H192V28.25H193.75V26.5H197.25ZM190.25 30H192V31.75H190.25V30ZM200.75 35.25V33.5H199V28.25H200.75V26.5H209.5V28.25H211.25V31.75H202.5V33.5H209.5V35.25H200.75ZM202.5 30H207.75V28.25H202.5V30ZM85.25 47.5H87V51H83.5V49.25H76.5V51H73V47.5H74.75V45.75H76.5V40.5H85.25V47.5ZM78.25 47.5H81.75V42.25H78.25V47.5ZM88.75 49.25V47.5H87V42.25H88.75V40.5H97.5V42.25H99.25V47.5H97.5V49.25H88.75ZM90.5 47.5H95.75V42.25H90.5V47.5ZM108 42.25H109.75V44H111.5V45.75H113.25V49.25H109.75V45.75H104.5V49.25H101V40.5H104.5V44H108V42.25ZM113.25 40.5V42.25H109.75V40.5H113.25ZM116.75 51V49.25H123.75V47.5H116.75V45.75H115V40.5H118.5V45.75H123.75V40.5H127.25V49.25H125.5V51H116.75ZM134.25 42.25V44H132.5V49.25H129V40.5H132.5V42.25H134.25ZM141.25 40.5V49.25H137.75V44H136V42.25H137.75V40.5H141.25ZM134.25 44H136V47.5H134.25V44ZM144.75 49.25V47.5H143V42.25H144.75V40.5H153.5V42.25H155.25V45.75H146.5V47.5H153.5V49.25H144.75ZM146.5 44H151.75V42.25H146.5V44ZM157 49.25V40.5H160.5V44H165.75V40.5H169.25V49.25H165.75V45.75H160.5V49.25H157ZM176.25 49.25V42.25H172.75V40.5H183.25V42.25H179.75V49.25H176.25ZM186.75 49.25V47.5H185V42.25H186.75V40.5H195.5V42.25H197.25V47.5H195.5V49.25H186.75ZM188.5 47.5H193.75V42.25H188.5V47.5ZM199 49.25V40.5H209.5V42.25H211.25V44H209.5V45.75H211.25V47.5H209.5V49.25H199ZM202.5 44H207.75V42.25H202.5V44ZM202.5 47.5H207.75V45.75H202.5V47.5Z" fill="white"/>
</svg>
