<svg width="301" height="76" viewBox="0 0 301 76" fill="none" xmlns="http://www.w3.org/2000/svg">
<path d="M12.0227 75.9289V72.5729H6.1714L5.91529 69.1044C3.02906 68.4462 3.02906 68.4463 2.99951 64.954C2.99951 62.0487 2.76309 61.7878 0 61.266V14.6806C0.147759 14.5502 0.226564 14.4138 0.315219 14.4019C2.90593 14.0758 2.99951 13.9454 3.01429 10.6488C3.01429 9.54595 3.01429 8.44313 3.01429 7.23358L5.96947 7.06163L6.10738 3.5575H11.9291L12.1212 0H288.958L289.233 3.5575H295.031C295.085 4.82634 295.129 5.86394 295.188 7.115H298.104V10.6251C298.104 14.058 298.148 14.1055 301 14.5205V61.3609C298.183 61.8767 298.119 61.9538 298.114 65.6536C298.114 66.6379 298.114 67.6221 298.114 68.7783L295.218 69.0451C295.159 70.1716 295.104 71.2092 295.035 72.5077H289.253C289.164 73.7943 289.091 74.8201 289.002 76L12.0227 75.9289Z" fill="white"/>
<path d="M63.1152 37.853H63.9295V38.6609H63.1152V37.853Z" fill="#167BB7"/>
<path d="M63.1152 38.6609H63.9295V39.4688H63.1152V38.6609Z" fill="#167BB7"/>
<path d="M63.1152 39.4688H63.9295V40.2767H63.1152V39.4688Z" fill="#167BB7"/>
<path d="M62.3009 40.2767H63.1152V41.0846H62.3009V40.2767Z" fill="#167BB7"/>
<path d="M62.3009 41.0846H63.1152V41.8926H62.3009V41.0846Z" fill="#167BB7"/>
<path d="M62.3009 41.8926H63.1152V42.7005H62.3009V41.8926Z" fill="#167BB7"/>
<path d="M62.3009 42.7005H63.1152V43.5084H62.3009V42.7005Z" fill="#167BB7"/>
<path d="M62.3009 43.5084H63.1152V44.3163H62.3009V43.5084Z" fill="#167BB7"/>
<path d="M62.3009 44.3163H63.1152V45.1242H62.3009V44.3163Z" fill="#167BB7"/>
<path d="M61.4866 45.1242H62.3009V45.9321H61.4866V45.1242Z" fill="#167BB7"/>
<path d="M61.4866 45.9321H62.3009V46.74H61.4866V45.9321Z" fill="#167BB7"/>
<path d="M61.4866 46.74H62.3009V47.5479H61.4866V46.74Z" fill="#167BB7"/>
<path d="M60.6723 47.5479H61.4866V48.3558H60.6723V47.5479Z" fill="#167BB7"/>
<path d="M60.6723 48.3558H61.4866V49.1637H60.6723V48.3558Z" fill="#167BB7"/>
<path d="M59.858 49.1637H60.6723V49.9716H59.858V49.1637Z" fill="#167BB7"/>
<path d="M59.858 49.9716H60.6723V50.7795H59.858V49.9716Z" fill="#167BB7"/>
<path d="M59.0437 50.7795H59.858V51.5874H59.0437V50.7795Z" fill="#167BB7"/>
<path d="M58.2294 51.5874H59.0437V52.3953H58.2294V51.5874Z" fill="#167BB7"/>
<path d="M58.2294 52.3953H59.0437V53.2032H58.2294V52.3953Z" fill="#167BB7"/>
<path d="M57.4151 53.2032H58.2294V54.0112H57.4151V53.2032Z" fill="#167BB7"/>
<path d="M56.6008 54.0112H57.4151V54.8191H56.6008V54.0112Z" fill="#167BB7"/>
<path d="M55.7865 54.8191H56.6008V55.627H55.7865V54.8191Z" fill="#167BB7"/>
<path d="M54.9722 55.627H55.7865V56.4349H54.9722V55.627Z" fill="#167BB7"/>
<path d="M54.1579 56.4349H54.9722V57.2428H54.1579V56.4349Z" fill="#167BB7"/>
<path d="M53.3436 57.2428H54.1579V58.0507H53.3436V57.2428Z" fill="#167BB7"/>
<path d="M52.5293 58.0507H53.3436V58.8586H52.5293V58.0507Z" fill="#167BB7"/>
<path d="M51.715 58.8586H52.5293V59.6665H51.715V58.8586Z" fill="#167BB7"/>
<path d="M50.0864 59.6665H50.9007V60.4744H50.0864V59.6665Z" fill="#167BB7"/>
<path d="M48.4578 60.4744H49.2721V61.2823H48.4578V60.4744Z" fill="#167BB7"/>
<path d="M46.8292 61.2823H47.6435V62.0902H46.8292V61.2823Z" fill="#167BB7"/>
<path d="M44.3863 62.0902H45.2006V62.8981H44.3863V62.0902Z" fill="#167BB7"/>
<path d="M41.1291 62.8981H41.9434V63.706H41.1291V62.8981Z" fill="#167BB7"/>
<path d="M37.0576 62.8981H37.8719V63.706H37.0576V62.8981Z" fill="#167BB7"/>
<path d="M37.8719 62.8981H38.6862V63.706H37.8719V62.8981Z" fill="#167BB7"/>
<path d="M38.6862 62.8981H39.5005V63.706H38.6862V62.8981Z" fill="#167BB7"/>
<path d="M39.5005 62.8981H40.3148V63.706H39.5005V62.8981Z" fill="#167BB7"/>
<path d="M40.3148 62.8981H41.1291V63.706H40.3148V62.8981Z" fill="#167BB7"/>
<path d="M41.9434 62.8981H42.7577V63.706H41.9434V62.8981Z" fill="#167BB7"/>
<path d="M42.7577 62.8981H43.572V63.706H42.7577V62.8981Z" fill="#167BB7"/>
<path d="M43.572 62.0902H44.3863V62.8981H43.572V62.0902Z" fill="#167BB7"/>
<path d="M45.2006 62.0902H46.0149V62.8981H45.2006V62.0902Z" fill="#167BB7"/>
<path d="M46.0149 61.2823H46.8292V62.0902H46.0149V61.2823Z" fill="#167BB7"/>
<path d="M47.6435 61.2823H48.4578V62.0902H47.6435V61.2823Z" fill="#167BB7"/>
<path d="M49.2721 60.4744H50.0864V61.2823H49.2721V60.4744Z" fill="#167BB7"/>
<path d="M50.9007 58.8586H51.715V59.6665H50.9007V58.8586Z" fill="#167BB7"/>
<path d="M11 37.853H11.8143V38.6609H11V37.853Z" fill="#167BB7"/>
<path d="M11 38.6609H11.8143V39.4688H11V38.6609Z" fill="#167BB7"/>
<path d="M11 39.4688H11.8143V40.2767H11V39.4688Z" fill="#167BB7"/>
<path d="M11 40.2767H11.8143V41.0846H11V40.2767Z" fill="#167BB7"/>
<path d="M11 41.0846H11.8143V41.8926H11V41.0846Z" fill="#167BB7"/>
<path d="M11.8143 41.8926H12.6286V42.7005H11.8143V41.8926Z" fill="#167BB7"/>
<path d="M11.8143 42.7005H12.6286V43.5084H11.8143V42.7005Z" fill="#167BB7"/>
<path d="M11.8143 43.5084H12.6286V44.3163H11.8143V43.5084Z" fill="#167BB7"/>
<path d="M11.8143 44.3163H12.6286V45.1242H11.8143V44.3163Z" fill="#167BB7"/>
<path d="M12.6286 45.1242H13.4429V45.9321H12.6286V45.1242Z" fill="#167BB7"/>
<path d="M12.6286 45.9321H13.4429V46.74H12.6286V45.9321Z" fill="#167BB7"/>
<path d="M12.6286 46.74H13.4429V47.5479H12.6286V46.74Z" fill="#167BB7"/>
<path d="M13.4429 47.5479H14.2572V48.3558H13.4429V47.5479Z" fill="#167BB7"/>
<path d="M13.4429 48.3558H14.2572V49.1637H13.4429V48.3558Z" fill="#167BB7"/>
<path d="M14.2572 49.1637H15.0715V49.9716H14.2572V49.1637Z" fill="#167BB7"/>
<path d="M14.2572 49.9716H15.0715V50.7795H14.2572V49.9716Z" fill="#167BB7"/>
<path d="M15.0715 50.7795H15.8858V51.5874H15.0715V50.7795Z" fill="#167BB7"/>
<path d="M15.0715 51.5874H15.8858V52.3953H15.0715V51.5874Z" fill="#167BB7"/>
<path d="M15.8858 52.3953H16.7001V53.2032H15.8858V52.3953Z" fill="#167BB7"/>
<path d="M16.7001 53.2032H17.5144V54.0112H16.7001V53.2032Z" fill="#167BB7"/>
<path d="M17.5144 54.0112H18.3287V54.8191H17.5144V54.0112Z" fill="#167BB7"/>
<path d="M17.5144 54.8191H18.3287V55.627H17.5144V54.8191Z" fill="#167BB7"/>
<path d="M18.3287 55.627H19.143V56.4349H18.3287V55.627Z" fill="#167BB7"/>
<path d="M19.143 56.4349H19.9573V57.2428H19.143V56.4349Z" fill="#167BB7"/>
<path d="M20.7716 57.2428H21.5859V58.0507H20.7716V57.2428Z" fill="#167BB7"/>
<path d="M21.5859 58.0507H22.4002V58.8586H21.5859V58.0507Z" fill="#167BB7"/>
<path d="M22.4002 58.8586H23.2145V59.6665H22.4002V58.8586Z" fill="#167BB7"/>
<path d="M24.0288 59.6665H24.8431V60.4744H24.0288V59.6665Z" fill="#167BB7"/>
<path d="M25.6574 60.4744H26.4717V61.2823H25.6574V60.4744Z" fill="#167BB7"/>
<path d="M27.286 61.2823H28.1003V62.0902H27.286V61.2823Z" fill="#167BB7"/>
<path d="M29.7289 62.0902H30.5432V62.8981H29.7289V62.0902Z" fill="#167BB7"/>
<path d="M32.9861 62.8981H33.8004V63.706H32.9861V62.8981Z" fill="#167BB7"/>
<path d="M19.9573 56.4349H20.7716V57.2428H19.9573V56.4349Z" fill="#167BB7"/>
<path d="M23.2145 58.8586H24.0288V59.6665H23.2145V58.8586Z" fill="#167BB7"/>
<path d="M24.8431 60.4744H25.6574V61.2823H24.8431V60.4744Z" fill="#167BB7"/>
<path d="M26.4717 61.2823H27.286V62.0902H26.4717V61.2823Z" fill="#167BB7"/>
<path d="M28.1003 61.2823H28.9146V62.0902H28.1003V61.2823Z" fill="#167BB7"/>
<path d="M28.9146 62.0902H29.7289V62.8981H28.9146V62.0902Z" fill="#167BB7"/>
<path d="M30.5432 62.0902H31.3575V62.8981H30.5432V62.0902Z" fill="#167BB7"/>
<path d="M31.3575 62.8981H32.1718V63.706H31.3575V62.8981Z" fill="#167BB7"/>
<path d="M32.1718 62.8981H32.9861V63.706H32.1718V62.8981Z" fill="#167BB7"/>
<path d="M33.8004 62.8981H34.6147V63.706H33.8004V62.8981Z" fill="#167BB7"/>
<path d="M34.6147 62.8981H35.429V63.706H34.6147V62.8981Z" fill="#167BB7"/>
<path d="M35.429 62.8981H36.2433V63.706H35.429V62.8981Z" fill="#167BB7"/>
<path d="M36.2433 62.8981H37.0576V63.706H36.2433V62.8981Z" fill="#167BB7"/>
<path d="M34.6147 12H35.429V12.8079H34.6147V12Z" fill="#167BB7"/>
<path d="M29.7289 12.8079H30.5432V13.6158H29.7289V12.8079Z" fill="#167BB7"/>
<path d="M27.286 13.6158H28.1003V14.4237H27.286V13.6158Z" fill="#167BB7"/>
<path d="M25.6574 14.4237H26.4717V15.2316H25.6574V14.4237Z" fill="#167BB7"/>
<path d="M24.0288 15.2316H24.8431V16.0395H24.0288V15.2316Z" fill="#167BB7"/>
<path d="M23.2145 16.0395H24.0288V16.8474H23.2145V16.0395Z" fill="#167BB7"/>
<path d="M21.5859 16.8474H22.4002V17.6553H21.5859V16.8474Z" fill="#167BB7"/>
<path d="M20.7716 17.6553H21.5859V18.4633H20.7716V17.6553Z" fill="#167BB7"/>
<path d="M19.9573 18.4633H20.7716V19.2712H19.9573V18.4633Z" fill="#167BB7"/>
<path d="M19.143 19.2712H19.9573V20.0791H19.143V19.2712Z" fill="#167BB7"/>
<path d="M18.3287 20.0791H19.143V20.887H18.3287V20.0791Z" fill="#167BB7"/>
<path d="M17.5144 20.887H18.3287V21.6949H17.5144V20.887Z" fill="#167BB7"/>
<path d="M16.7001 21.6949H17.5144V22.5028H16.7001V21.6949Z" fill="#167BB7"/>
<path d="M15.8858 22.5028H16.7001V23.3107H15.8858V22.5028Z" fill="#167BB7"/>
<path d="M15.0715 23.3107H15.8858V24.1186H15.0715V23.3107Z" fill="#167BB7"/>
<path d="M15.0715 24.1186H15.8858V24.9265H15.0715V24.1186Z" fill="#167BB7"/>
<path d="M14.2572 24.9265H15.0715V25.7344H14.2572V24.9265Z" fill="#167BB7"/>
<path d="M14.2572 25.7344H15.0715V26.5423H14.2572V25.7344Z" fill="#167BB7"/>
<path d="M13.4429 26.5423H14.2572V27.3502H13.4429V26.5423Z" fill="#167BB7"/>
<path d="M13.4429 27.3502H14.2572V28.1581H13.4429V27.3502Z" fill="#167BB7"/>
<path d="M12.6286 28.1581H13.4429V28.966H12.6286V28.1581Z" fill="#167BB7"/>
<path d="M12.6286 28.966H13.4429V29.774H12.6286V28.966Z" fill="#167BB7"/>
<path d="M12.6286 29.774H13.4429V30.5819H12.6286V29.774Z" fill="#167BB7"/>
<path d="M11.8143 30.5819H12.6286V31.3898H11.8143V30.5819Z" fill="#167BB7"/>
<path d="M11.8143 31.3898H12.6286V32.1977H11.8143V31.3898Z" fill="#167BB7"/>
<path d="M11.8143 32.1977H12.6286V33.0056H11.8143V32.1977Z" fill="#167BB7"/>
<path d="M11.8143 33.0056H12.6286V33.8135H11.8143V33.0056Z" fill="#167BB7"/>
<path d="M11 33.8135H11.8143V34.6214H11V33.8135Z" fill="#167BB7"/>
<path d="M11 34.6214H11.8143V35.4293H11V34.6214Z" fill="#167BB7"/>
<path d="M11 35.4293H11.8143V36.2372H11V35.4293Z" fill="#167BB7"/>
<path d="M11 36.2372H11.8143V37.0451H11V36.2372Z" fill="#167BB7"/>
<path d="M11 37.0451H11.8143V37.853H11V37.0451Z" fill="#167BB7"/>
<path d="M22.4002 16.0395H23.2145V16.8474H22.4002V16.0395Z" fill="#167BB7"/>
<path d="M24.8431 15.2316H25.6574V16.0395H24.8431V15.2316Z" fill="#167BB7"/>
<path d="M26.4717 14.4237H27.286V15.2316H26.4717V14.4237Z" fill="#167BB7"/>
<path d="M28.1003 13.6158H28.9146V14.4237H28.1003V13.6158Z" fill="#167BB7"/>
<path d="M28.9146 12.8079H29.7289V13.6158H28.9146V12.8079Z" fill="#167BB7"/>
<path d="M30.5432 12.8079H31.3575V13.6158H30.5432V12.8079Z" fill="#167BB7"/>
<path d="M31.3575 12.8079H32.1718V13.6158H31.3575V12.8079Z" fill="#167BB7"/>
<path d="M32.1718 12H32.9861V12.8079H32.1718V12Z" fill="#167BB7"/>
<path d="M32.9861 12H33.8004V12.8079H32.9861V12Z" fill="#167BB7"/>
<path d="M33.8004 12H34.6147V12.8079H33.8004V12Z" fill="#167BB7"/>
<path d="M35.429 12H36.2433V12.8079H35.429V12Z" fill="#167BB7"/>
<path d="M36.2433 12H37.0576V12.8079H36.2433V12Z" fill="#167BB7"/>
<path d="M37.0576 12H37.8719V12.8079H37.0576V12Z" fill="#167BB7"/>
<path d="M39.5005 12H40.3148V12.8079H39.5005V12Z" fill="#167BB7"/>
<path d="M43.572 12.8079H44.3863V13.6158H43.572V12.8079Z" fill="#167BB7"/>
<path d="M46.0149 13.6158H46.8292V14.4237H46.0149V13.6158Z" fill="#167BB7"/>
<path d="M48.4578 14.4237H49.2721V15.2316H48.4578V14.4237Z" fill="#167BB7"/>
<path d="M50.0864 15.2316H50.9007V16.0395H50.0864V15.2316Z" fill="#167BB7"/>
<path d="M50.9007 16.0395H51.715V16.8474H50.9007V16.0395Z" fill="#167BB7"/>
<path d="M52.5293 16.8474H53.3436V17.6553H52.5293V16.8474Z" fill="#167BB7"/>
<path d="M53.3436 17.6553H54.1579V18.4633H53.3436V17.6553Z" fill="#167BB7"/>
<path d="M54.1579 18.4633H54.9722V19.2712H54.1579V18.4633Z" fill="#167BB7"/>
<path d="M54.9722 19.2712H55.7865V20.0791H54.9722V19.2712Z" fill="#167BB7"/>
<path d="M55.7865 20.0791H56.6008V20.887H55.7865V20.0791Z" fill="#167BB7"/>
<path d="M56.6008 20.887H57.4151V21.6949H56.6008V20.887Z" fill="#167BB7"/>
<path d="M57.4151 21.6949H58.2294V22.5028H57.4151V21.6949Z" fill="#167BB7"/>
<path d="M58.2294 22.5028H59.0437V23.3107H58.2294V22.5028Z" fill="#167BB7"/>
<path d="M58.2294 23.3107H59.0437V24.1186H58.2294V23.3107Z" fill="#167BB7"/>
<path d="M59.0437 24.1186H59.858V24.9265H59.0437V24.1186Z" fill="#167BB7"/>
<path d="M59.858 24.9265H60.6723V25.7344H59.858V24.9265Z" fill="#167BB7"/>
<path d="M59.858 25.7344H60.6723V26.5423H59.858V25.7344Z" fill="#167BB7"/>
<path d="M60.6723 26.5423H61.4866V27.3502H60.6723V26.5423Z" fill="#167BB7"/>
<path d="M60.6723 27.3502H61.4866V28.1581H60.6723V27.3502Z" fill="#167BB7"/>
<path d="M60.6723 28.1581H61.4866V28.966H60.6723V28.1581Z" fill="#167BB7"/>
<path d="M61.4866 28.966H62.3009V29.774H61.4866V28.966Z" fill="#167BB7"/>
<path d="M61.4866 29.774H62.3009V30.5819H61.4866V29.774Z" fill="#167BB7"/>
<path d="M61.4866 30.5819H62.3009V31.3898H61.4866V30.5819Z" fill="#167BB7"/>
<path d="M62.3009 31.3898H63.1152V32.1977H62.3009V31.3898Z" fill="#167BB7"/>
<path d="M62.3009 32.1977H63.1152V33.0056H62.3009V32.1977Z" fill="#167BB7"/>
<path d="M62.3009 33.0056H63.1152V33.8135H62.3009V33.0056Z" fill="#167BB7"/>
<path d="M62.3009 33.8135H63.1152V34.6214H62.3009V33.8135Z" fill="#167BB7"/>
<path d="M62.3009 34.6214H63.1152V35.4293H62.3009V34.6214Z" fill="#167BB7"/>
<path d="M63.1152 35.4293H63.9295V36.2372H63.1152V35.4293Z" fill="#167BB7"/>
<path d="M63.1152 36.2372H63.9295V37.0451H63.1152V36.2372Z" fill="#167BB7"/>
<path d="M63.1152 37.0451H63.9295V37.853H63.1152V37.0451Z" fill="#167BB7"/>
<path d="M37.8719 12H38.6862V12.8079H37.8719V12Z" fill="#167BB7"/>
<path d="M38.6862 12H39.5005V12.8079H38.6862V12Z" fill="#167BB7"/>
<path d="M40.3148 12H41.1291V12.8079H40.3148V12Z" fill="#167BB7"/>
<path d="M41.1291 12H41.9434V12.8079H41.1291V12Z" fill="#167BB7"/>
<path d="M41.9434 12H42.7577V12.8079H41.9434V12Z" fill="#167BB7"/>
<path d="M42.7577 12.8079H43.572V13.6158H42.7577V12.8079Z" fill="#167BB7"/>
<path d="M44.3863 12.8079H45.2006V13.6158H44.3863V12.8079Z" fill="#167BB7"/>
<path d="M45.2006 12.8079H46.0149V13.6158H45.2006V12.8079Z" fill="#167BB7"/>
<path d="M46.8292 13.6158H47.6435V14.4237H46.8292V13.6158Z" fill="#167BB7"/>
<path d="M47.6435 14.4237H48.4578V15.2316H47.6435V14.4237Z" fill="#167BB7"/>
<path d="M49.2721 15.2316H50.0864V16.0395H49.2721V15.2316Z" fill="#167BB7"/>
<path d="M51.715 16.0395H52.5293V16.8474H51.715V16.0395Z" fill="#167BB7"/>
<rect x="63.1152" y="37.853" width="0.814299" height="0.807907" fill="#167BB7"/>
<rect x="63.1152" y="38.6611" width="0.814299" height="0.807907" fill="#167BB7"/>
<rect x="63.1152" y="39.4688" width="0.814299" height="0.807907" fill="#167BB7"/>
<rect x="62.3008" y="40.2769" width="0.814299" height="0.807907" fill="#167BB7"/>
<rect x="62.3008" y="41.084" width="0.814299" height="0.807907" fill="#167BB7"/>
<rect x="62.3008" y="41.8931" width="0.814299" height="0.807907" fill="#167BB7"/>
<rect x="62.3008" y="42.7002" width="0.814299" height="0.807907" fill="#167BB7"/>
<rect x="62.3008" y="43.5088" width="0.814299" height="0.807907" fill="#167BB7"/>
<rect x="62.3008" y="44.3159" width="0.814299" height="0.807907" fill="#167BB7"/>
<rect x="61.4863" y="45.124" width="0.814299" height="0.807907" fill="#167BB7"/>
<rect x="61.4863" y="45.9321" width="0.814299" height="0.807907" fill="#167BB7"/>
<rect x="61.4863" y="46.7402" width="0.814299" height="0.807907" fill="#167BB7"/>
<rect x="60.6719" y="47.5474" width="0.814299" height="0.807907" fill="#167BB7"/>
<rect x="60.6719" y="48.356" width="0.814299" height="0.807907" fill="#167BB7"/>
<rect x="59.8584" y="49.1641" width="0.814299" height="0.807907" fill="#167BB7"/>
<rect x="59.8584" y="49.9722" width="0.814299" height="0.807907" fill="#167BB7"/>
<rect x="59.0439" y="50.7793" width="0.814299" height="0.807907" fill="#167BB7"/>
<rect x="58.2295" y="51.5874" width="0.814299" height="0.807907" fill="#167BB7"/>
<rect x="58.2295" y="52.395" width="0.814299" height="0.807907" fill="#167BB7"/>
<rect x="57.415" y="53.2031" width="0.814299" height="0.807907" fill="#167BB7"/>
<rect x="56.6006" y="54.0112" width="0.814299" height="0.807907" fill="#167BB7"/>
<rect x="55.7861" y="54.8193" width="0.814299" height="0.807907" fill="#167BB7"/>
<rect x="54.9727" y="55.6265" width="0.814299" height="0.807907" fill="#167BB7"/>
<rect x="54.1582" y="56.4346" width="0.814299" height="0.807907" fill="#167BB7"/>
<rect x="53.3438" y="57.2427" width="0.814299" height="0.807907" fill="#167BB7"/>
<rect x="52.5293" y="58.0513" width="0.814299" height="0.807907" fill="#167BB7"/>
<rect x="51.7148" y="58.8584" width="0.814299" height="0.807907" fill="#167BB7"/>
<rect x="50.0859" y="59.6665" width="0.814299" height="0.807907" fill="#167BB7"/>
<rect x="48.458" y="60.4736" width="0.814299" height="0.807907" fill="#167BB7"/>
<rect x="46.8291" y="61.2827" width="0.814299" height="0.807907" fill="#167BB7"/>
<rect x="44.3867" y="62.0903" width="0.814299" height="0.807907" fill="#167BB7"/>
<rect x="41.1289" y="62.8984" width="0.814299" height="0.807907" fill="#167BB7"/>
<rect x="37.0576" y="62.8984" width="0.814299" height="0.807907" fill="#167BB7"/>
<rect x="37.8721" y="62.8984" width="0.814299" height="0.807907" fill="#167BB7"/>
<rect x="38.6865" y="62.8984" width="0.814299" height="0.807907" fill="#167BB7"/>
<rect x="39.5" y="62.8984" width="0.814299" height="0.807907" fill="#167BB7"/>
<rect x="40.3145" y="62.8984" width="0.814299" height="0.807907" fill="#167BB7"/>
<rect x="41.9434" y="62.8984" width="0.814299" height="0.807907" fill="#167BB7"/>
<rect x="42.7578" y="62.8984" width="0.814299" height="0.807907" fill="#167BB7"/>
<rect x="43.5723" y="62.0903" width="0.814299" height="0.807907" fill="#167BB7"/>
<rect x="45.2002" y="62.0903" width="0.814299" height="0.807907" fill="#167BB7"/>
<rect x="46.0146" y="61.2827" width="0.814299" height="0.807907" fill="#167BB7"/>
<rect x="47.6436" y="61.2827" width="0.814299" height="0.807907" fill="#167BB7"/>
<rect x="49.2725" y="60.4736" width="0.814299" height="0.807907" fill="#167BB7"/>
<rect x="50.9004" y="58.8584" width="0.814299" height="0.807907" fill="#167BB7"/>
<rect x="11" y="37.853" width="0.814299" height="0.807907" fill="#167BB7"/>
<rect x="11" y="38.6611" width="0.814299" height="0.807907" fill="#167BB7"/>
<rect x="11" y="39.4688" width="0.814299" height="0.807907" fill="#167BB7"/>
<rect x="11" y="40.2769" width="0.814299" height="0.807907" fill="#167BB7"/>
<rect x="11" y="41.084" width="0.814299" height="0.807907" fill="#167BB7"/>
<rect x="11.8145" y="41.8931" width="0.814299" height="0.807907" fill="#167BB7"/>
<rect x="11.8145" y="42.7002" width="0.814299" height="0.807907" fill="#167BB7"/>
<rect x="11.8145" y="43.5088" width="0.814299" height="0.807907" fill="#167BB7"/>
<rect x="11.8145" y="44.3159" width="0.814299" height="0.807907" fill="#167BB7"/>
<rect x="12.6289" y="45.124" width="0.814299" height="0.807907" fill="#167BB7"/>
<rect x="12.6289" y="45.9321" width="0.814299" height="0.807907" fill="#167BB7"/>
<rect x="12.6289" y="46.7402" width="0.814299" height="0.807907" fill="#167BB7"/>
<rect x="13.4434" y="47.5474" width="0.814299" height="0.807907" fill="#167BB7"/>
<rect x="13.4434" y="48.356" width="0.814299" height="0.807907" fill="#167BB7"/>
<rect x="14.2568" y="49.1641" width="0.814299" height="0.807907" fill="#167BB7"/>
<rect x="14.2568" y="49.9722" width="0.814299" height="0.807907" fill="#167BB7"/>
<rect x="15.0713" y="50.7793" width="0.814299" height="0.807907" fill="#167BB7"/>
<rect x="15.0713" y="51.5874" width="0.814299" height="0.807907" fill="#167BB7"/>
<rect x="15.8857" y="52.395" width="0.814299" height="0.807907" fill="#167BB7"/>
<rect x="16.7002" y="53.2031" width="0.814299" height="0.807907" fill="#167BB7"/>
<rect x="17.5146" y="54.0112" width="0.814299" height="0.807907" fill="#167BB7"/>
<rect x="17.5146" y="54.8193" width="0.814299" height="0.807907" fill="#167BB7"/>
<rect x="18.3291" y="55.6265" width="0.814299" height="0.807907" fill="#167BB7"/>
<rect x="19.1426" y="56.4346" width="0.814299" height="0.807907" fill="#167BB7"/>
<rect x="20.7715" y="57.2427" width="0.814299" height="0.807907" fill="#167BB7"/>
<rect x="21.5859" y="58.0513" width="0.814299" height="0.807907" fill="#167BB7"/>
<rect x="22.4004" y="58.8584" width="0.814299" height="0.807907" fill="#167BB7"/>
<rect x="24.0283" y="59.6665" width="0.814299" height="0.807907" fill="#167BB7"/>
<rect x="25.6572" y="60.4736" width="0.814299" height="0.807907" fill="#167BB7"/>
<rect x="27.2861" y="61.2827" width="0.814299" height="0.807907" fill="#167BB7"/>
<rect x="29.7285" y="62.0903" width="0.814299" height="0.807907" fill="#167BB7"/>
<rect x="32.9863" y="62.8984" width="0.814299" height="0.807907" fill="#167BB7"/>
<rect x="19.957" y="56.4346" width="0.814299" height="0.807907" fill="#167BB7"/>
<rect x="23.2148" y="58.8584" width="0.814299" height="0.807907" fill="#167BB7"/>
<rect x="24.8428" y="60.4736" width="0.814299" height="0.807907" fill="#167BB7"/>
<rect x="26.4717" y="61.2827" width="0.814299" height="0.807907" fill="#167BB7"/>
<rect x="28.1006" y="61.2827" width="0.814299" height="0.807907" fill="#167BB7"/>
<rect x="28.915" y="62.0903" width="0.814299" height="0.807907" fill="#167BB7"/>
<rect x="30.543" y="62.0903" width="0.814299" height="0.807907" fill="#167BB7"/>
<rect x="31.3574" y="62.8984" width="0.814299" height="0.807907" fill="#167BB7"/>
<rect x="32.1719" y="62.8984" width="0.814299" height="0.807907" fill="#167BB7"/>
<rect x="33.8008" y="62.8984" width="0.814299" height="0.807907" fill="#167BB7"/>
<rect x="34.6143" y="62.8984" width="0.814299" height="0.807907" fill="#167BB7"/>
<rect x="35.4287" y="62.8984" width="0.814299" height="0.807907" fill="#167BB7"/>
<rect x="36.2432" y="62.8984" width="0.814299" height="0.807907" fill="#167BB7"/>
<rect x="34.6143" y="12" width="0.814299" height="0.807907" fill="#167BB7"/>
<rect x="29.7285" y="12.8081" width="0.814299" height="0.807907" fill="#167BB7"/>
<rect x="27.2861" y="13.6152" width="0.814299" height="0.807907" fill="#167BB7"/>
<rect x="25.6572" y="14.4233" width="0.814299" height="0.807907" fill="#167BB7"/>
<rect x="24.0283" y="15.2319" width="0.814299" height="0.807907" fill="#167BB7"/>
<rect x="23.2148" y="16.0391" width="0.814299" height="0.807907" fill="#167BB7"/>
<rect x="21.5859" y="16.8472" width="0.814299" height="0.807907" fill="#167BB7"/>
<rect x="20.7715" y="17.6553" width="0.814299" height="0.807907" fill="#167BB7"/>
<rect x="19.957" y="18.4634" width="0.814299" height="0.807907" fill="#167BB7"/>
<rect x="19.1426" y="19.2715" width="0.814299" height="0.807907" fill="#167BB7"/>
<rect x="18.3291" y="20.0791" width="0.814299" height="0.807907" fill="#167BB7"/>
<rect x="17.5146" y="20.8872" width="0.814299" height="0.807907" fill="#167BB7"/>
<rect x="16.7002" y="21.6943" width="0.814299" height="0.807907" fill="#167BB7"/>
<rect x="15.8857" y="22.5034" width="0.814299" height="0.807907" fill="#167BB7"/>
<rect x="15.0713" y="23.3105" width="0.814299" height="0.807907" fill="#167BB7"/>
<rect x="15.0713" y="24.1187" width="0.814299" height="0.807907" fill="#167BB7"/>
<rect x="14.2568" y="24.9263" width="0.814299" height="0.807907" fill="#167BB7"/>
<rect x="14.2568" y="25.7344" width="0.814299" height="0.807907" fill="#167BB7"/>
<rect x="13.4434" y="26.5425" width="0.814299" height="0.807907" fill="#167BB7"/>
<rect x="13.4434" y="27.3506" width="0.814299" height="0.807907" fill="#167BB7"/>
<rect x="12.6289" y="28.1577" width="0.814299" height="0.807907" fill="#167BB7"/>
<rect x="12.6289" y="28.9658" width="0.814299" height="0.807907" fill="#167BB7"/>
<rect x="12.6289" y="29.7744" width="0.814299" height="0.807907" fill="#167BB7"/>
<rect x="11.8145" y="30.5825" width="0.814299" height="0.807907" fill="#167BB7"/>
<rect x="11.8145" y="31.3896" width="0.814299" height="0.807907" fill="#167BB7"/>
<rect x="11.8145" y="32.1978" width="0.814299" height="0.807907" fill="#167BB7"/>
<rect x="11.8145" y="33.0049" width="0.814299" height="0.807907" fill="#167BB7"/>
<rect x="11" y="33.8135" width="0.814299" height="0.807907" fill="#167BB7"/>
<rect x="11" y="34.6216" width="0.814299" height="0.807907" fill="#167BB7"/>
<rect x="11" y="35.4297" width="0.814299" height="0.807907" fill="#167BB7"/>
<rect x="11" y="36.2368" width="0.814299" height="0.807907" fill="#167BB7"/>
<rect x="11" y="37.0449" width="0.814299" height="0.807907" fill="#167BB7"/>
<rect x="22.4004" y="16.0391" width="0.814299" height="0.807907" fill="#167BB7"/>
<rect x="24.8428" y="15.2319" width="0.814299" height="0.807907" fill="#167BB7"/>
<rect x="26.4717" y="14.4233" width="0.814299" height="0.807907" fill="#167BB7"/>
<rect x="28.1006" y="13.6152" width="0.814299" height="0.807907" fill="#167BB7"/>
<rect x="28.915" y="12.8081" width="0.814299" height="0.807907" fill="#167BB7"/>
<rect x="30.543" y="12.8081" width="0.814299" height="0.807907" fill="#167BB7"/>
<rect x="31.3574" y="12.8081" width="0.814299" height="0.807907" fill="#167BB7"/>
<rect x="32.1719" y="12" width="0.814299" height="0.807907" fill="#167BB7"/>
<rect x="32.9863" y="12" width="0.814299" height="0.807907" fill="#167BB7"/>
<rect x="33.8008" y="12" width="0.814299" height="0.807907" fill="#167BB7"/>
<rect x="35.4287" y="12" width="0.814299" height="0.807907" fill="#167BB7"/>
<rect x="36.2432" y="12" width="0.814299" height="0.807907" fill="#167BB7"/>
<rect x="37.0576" y="12" width="0.814299" height="0.807907" fill="#167BB7"/>
<rect x="39.5" y="12" width="0.814299" height="0.807907" fill="#167BB7"/>
<rect x="43.5723" y="12.8081" width="0.814299" height="0.807907" fill="#167BB7"/>
<rect x="46.0146" y="13.6152" width="0.814299" height="0.807907" fill="#167BB7"/>
<rect x="48.458" y="14.4233" width="0.814299" height="0.807907" fill="#167BB7"/>
<rect x="50.0859" y="15.2319" width="0.814299" height="0.807907" fill="#167BB7"/>
<rect x="50.9004" y="16.0391" width="0.814299" height="0.807907" fill="#167BB7"/>
<rect x="52.5293" y="16.8472" width="0.814299" height="0.807907" fill="#167BB7"/>
<rect x="53.3438" y="17.6553" width="0.814299" height="0.807907" fill="#167BB7"/>
<rect x="54.1582" y="18.4634" width="0.814299" height="0.807907" fill="#167BB7"/>
<rect x="54.9727" y="19.2715" width="0.814299" height="0.807907" fill="#167BB7"/>
<rect x="55.7861" y="20.0791" width="0.814299" height="0.807907" fill="#167BB7"/>
<rect x="56.6006" y="20.8872" width="0.814299" height="0.807907" fill="#167BB7"/>
<rect x="57.415" y="21.6943" width="0.814299" height="0.807907" fill="#167BB7"/>
<rect x="58.2295" y="22.5034" width="0.814299" height="0.807907" fill="#167BB7"/>
<rect x="58.2295" y="23.3105" width="0.814299" height="0.807907" fill="#167BB7"/>
<rect x="59.0439" y="24.1187" width="0.814299" height="0.807907" fill="#167BB7"/>
<rect x="59.8584" y="24.9263" width="0.814299" height="0.807907" fill="#167BB7"/>
<rect x="59.8584" y="25.7344" width="0.814299" height="0.807907" fill="#167BB7"/>
<rect x="60.6719" y="26.5425" width="0.814299" height="0.807907" fill="#167BB7"/>
<rect x="60.6719" y="27.3506" width="0.814299" height="0.807907" fill="#167BB7"/>
<rect x="60.6719" y="28.1577" width="0.814299" height="0.807907" fill="#167BB7"/>
<rect x="61.4863" y="28.9658" width="0.814299" height="0.807907" fill="#167BB7"/>
<rect x="61.4863" y="29.7744" width="0.814299" height="0.807907" fill="#167BB7"/>
<rect x="61.4863" y="30.5825" width="0.814299" height="0.807907" fill="#167BB7"/>
<rect x="62.3008" y="31.3896" width="0.814299" height="0.807907" fill="#167BB7"/>
<rect x="62.3008" y="32.1978" width="0.814299" height="0.807907" fill="#167BB7"/>
<rect x="62.3008" y="33.0049" width="0.814299" height="0.807907" fill="#167BB7"/>
<rect x="62.3008" y="33.8135" width="0.814299" height="0.807907" fill="#167BB7"/>
<rect x="62.3008" y="34.6216" width="0.814299" height="0.807907" fill="#167BB7"/>
<rect x="63.1152" y="35.4297" width="0.814299" height="0.807907" fill="#167BB7"/>
<rect x="63.1152" y="36.2368" width="0.814299" height="0.807907" fill="#167BB7"/>
<rect x="63.1152" y="37.0449" width="0.814299" height="0.807907" fill="#167BB7"/>
<rect x="37.8721" y="12" width="0.814299" height="0.807907" fill="#167BB7"/>
<rect x="38.6865" y="12" width="0.814299" height="0.807907" fill="#167BB7"/>
<rect x="40.3145" y="12" width="0.814299" height="0.807907" fill="#167BB7"/>
<rect x="41.1289" y="12" width="0.814299" height="0.807907" fill="#167BB7"/>
<rect x="41.9434" y="12" width="0.814299" height="0.807907" fill="#167BB7"/>
<rect x="42.7578" y="12.8081" width="0.814299" height="0.807907" fill="#167BB7"/>
<rect x="44.3867" y="12.8081" width="0.814299" height="0.807907" fill="#167BB7"/>
<rect x="45.2002" y="12.8081" width="0.814299" height="0.807907" fill="#167BB7"/>
<rect x="46.8291" y="13.6152" width="0.814299" height="0.807907" fill="#167BB7"/>
<rect x="47.6436" y="14.4233" width="0.814299" height="0.807907" fill="#167BB7"/>
<rect x="49.2725" y="15.2319" width="0.814299" height="0.807907" fill="#167BB7"/>
<rect x="51.7148" y="16.0391" width="0.814299" height="0.807907" fill="#167BB7"/>
<rect x="63.9297" y="37.853" width="0.814299" height="0.807907" fill="#167BB7"/>
<rect x="63.9297" y="38.6611" width="0.814299" height="0.807907" fill="#167BB7"/>
<rect x="63.9297" y="39.4688" width="0.814299" height="0.807907" fill="#167BB7"/>
<rect x="63.9297" y="40.2769" width="0.814299" height="0.807907" fill="#167BB7"/>
<rect x="63.1152" y="40.2769" width="0.814299" height="0.807907" fill="#167BB7"/>
<rect x="63.1152" y="41.084" width="0.814299" height="0.807907" fill="#167BB7"/>
<rect x="63.1152" y="41.8931" width="0.814299" height="0.807907" fill="#167BB7"/>
<rect x="63.1152" y="42.7002" width="0.814299" height="0.807907" fill="#167BB7"/>
<rect x="63.1152" y="43.5088" width="0.814299" height="0.807907" fill="#167BB7"/>
<rect x="63.1152" y="44.3159" width="0.814299" height="0.807907" fill="#167BB7"/>
<rect x="63.1152" y="45.124" width="0.814299" height="0.807907" fill="#167BB7"/>
<rect x="62.3008" y="45.124" width="0.814299" height="0.807907" fill="#167BB7"/>
<rect x="62.3008" y="45.9321" width="0.814299" height="0.807907" fill="#167BB7"/>
<rect x="62.3008" y="46.7402" width="0.814299" height="0.807907" fill="#167BB7"/>
<rect x="62.3008" y="47.5474" width="0.814299" height="0.807907" fill="#167BB7"/>
<rect x="61.4863" y="47.5474" width="0.814299" height="0.807907" fill="#167BB7"/>
<rect x="61.4863" y="48.356" width="0.814299" height="0.807907" fill="#167BB7"/>
<rect x="61.4863" y="49.1641" width="0.814299" height="0.807907" fill="#167BB7"/>
<rect x="60.6719" y="49.1641" width="0.814299" height="0.807907" fill="#167BB7"/>
<rect x="60.6719" y="49.9722" width="0.814299" height="0.807907" fill="#167BB7"/>
<rect x="60.6719" y="50.7793" width="0.814299" height="0.807907" fill="#167BB7"/>
<rect x="59.8584" y="50.7793" width="0.814299" height="0.807907" fill="#167BB7"/>
<rect x="59.8584" y="51.5874" width="0.814299" height="0.807907" fill="#167BB7"/>
<rect x="59.0439" y="51.5874" width="0.814299" height="0.807907" fill="#167BB7"/>
<rect x="59.0439" y="52.395" width="0.814299" height="0.807907" fill="#167BB7"/>
<rect x="59.0439" y="53.2031" width="0.814299" height="0.807907" fill="#167BB7"/>
<rect x="58.2295" y="53.2031" width="0.814299" height="0.807907" fill="#167BB7"/>
<rect x="58.2295" y="54.0112" width="0.814299" height="0.807907" fill="#167BB7"/>
<rect x="57.415" y="54.0112" width="0.814299" height="0.807907" fill="#167BB7"/>
<rect x="57.415" y="54.8193" width="0.814299" height="0.807907" fill="#167BB7"/>
<rect x="56.6006" y="54.8193" width="0.814299" height="0.807907" fill="#167BB7"/>
<rect x="56.6006" y="55.6265" width="0.814299" height="0.807907" fill="#167BB7"/>
<rect x="55.7861" y="55.6265" width="0.814299" height="0.807907" fill="#167BB7"/>
<rect x="55.7861" y="56.4346" width="0.814299" height="0.807907" fill="#167BB7"/>
<rect x="54.9727" y="56.4346" width="0.814299" height="0.807907" fill="#167BB7"/>
<rect x="54.9727" y="57.2427" width="0.814299" height="0.807907" fill="#167BB7"/>
<rect x="54.1582" y="57.2427" width="0.814299" height="0.807907" fill="#167BB7"/>
<rect x="54.1582" y="58.0513" width="0.814299" height="0.807907" fill="#167BB7"/>
<rect x="53.3438" y="58.0513" width="0.814299" height="0.807907" fill="#167BB7"/>
<rect x="53.3438" y="58.8584" width="0.814299" height="0.807907" fill="#167BB7"/>
<rect x="52.5293" y="58.8584" width="0.814299" height="0.807907" fill="#167BB7"/>
<rect x="52.5293" y="59.6665" width="0.814299" height="0.807907" fill="#167BB7"/>
<rect x="51.7148" y="59.6665" width="0.814299" height="0.807907" fill="#167BB7"/>
<rect x="50.0859" y="58.8584" width="0.814299" height="0.807907" fill="#167BB7"/>
<rect x="50.9004" y="59.6665" width="0.814299" height="0.807907" fill="#167BB7"/>
<rect x="50.9004" y="60.4736" width="0.814299" height="0.807907" fill="#167BB7"/>
<rect x="50.0859" y="60.4736" width="0.814299" height="0.807907" fill="#167BB7"/>
<rect x="49.2725" y="61.2827" width="0.814299" height="0.807907" fill="#167BB7"/>
<rect x="48.458" y="61.2827" width="0.814299" height="0.807907" fill="#167BB7"/>
<rect x="47.6436" y="62.0903" width="0.814299" height="0.807907" fill="#167BB7"/>
<rect x="46.8291" y="62.0903" width="0.814299" height="0.807907" fill="#167BB7"/>
<rect x="45.2002" y="62.8984" width="0.814299" height="0.807907" fill="#167BB7"/>
<rect x="44.3867" y="62.8984" width="0.814299" height="0.807907" fill="#167BB7"/>
<rect x="41.9434" y="63.7056" width="0.814299" height="0.807907" fill="#167BB7"/>
<rect x="41.1289" y="63.7056" width="0.814299" height="0.807907" fill="#167BB7"/>
<rect x="37.8721" y="63.7056" width="0.814299" height="0.807907" fill="#167BB7"/>
<rect x="37.0576" y="63.7056" width="0.814299" height="0.807907" fill="#167BB7"/>
<rect x="38.6865" y="63.7056" width="0.814299" height="0.807907" fill="#167BB7"/>
<rect x="39.5" y="63.7056" width="0.814299" height="0.807907" fill="#167BB7"/>
<rect x="40.3145" y="63.7056" width="0.814299" height="0.807907" fill="#167BB7"/>
<rect x="42.7578" y="63.7056" width="0.814299" height="0.807907" fill="#167BB7"/>
<rect x="43.5723" y="62.8984" width="0.814299" height="0.807907" fill="#167BB7"/>
<rect x="43.5723" y="63.7056" width="0.814299" height="0.807907" fill="#167BB7"/>
<rect x="46.0146" y="62.0903" width="0.814299" height="0.807907" fill="#167BB7"/>
<rect x="46.0146" y="62.8984" width="0.814299" height="0.807907" fill="#167BB7"/>
<rect x="48.458" y="62.0903" width="0.814299" height="0.807907" fill="#167BB7"/>
<rect x="50.0859" y="61.2827" width="0.814299" height="0.807907" fill="#167BB7"/>
<rect x="11.8145" y="37.853" width="0.814299" height="0.807907" fill="#167BB7"/>
<rect x="11.8145" y="38.6611" width="0.814299" height="0.807907" fill="#167BB7"/>
<rect x="11.8145" y="39.4688" width="0.814299" height="0.807907" fill="#167BB7"/>
<rect x="11.8145" y="40.2769" width="0.814299" height="0.807907" fill="#167BB7"/>
<rect x="11.8145" y="41.084" width="0.814299" height="0.807907" fill="#167BB7"/>
<rect x="11" y="41.8931" width="0.814299" height="0.807907" fill="#167BB7"/>
<rect x="12.6289" y="41.8931" width="0.814299" height="0.807907" fill="#167BB7"/>
<rect x="12.6289" y="42.7002" width="0.814299" height="0.807907" fill="#167BB7"/>
<rect x="12.6289" y="43.5088" width="0.814299" height="0.807907" fill="#167BB7"/>
<rect x="12.6289" y="44.3159" width="0.814299" height="0.807907" fill="#167BB7"/>
<rect x="11.8145" y="45.124" width="0.814299" height="0.807907" fill="#167BB7"/>
<rect x="13.4434" y="45.124" width="0.814299" height="0.807907" fill="#167BB7"/>
<rect x="13.4434" y="45.9321" width="0.814299" height="0.807907" fill="#167BB7"/>
<rect x="13.4434" y="46.7402" width="0.814299" height="0.807907" fill="#167BB7"/>
<rect x="12.6289" y="47.5474" width="0.814299" height="0.807907" fill="#167BB7"/>
<rect x="14.2568" y="47.5474" width="0.814299" height="0.807907" fill="#167BB7"/>
<rect x="14.2568" y="48.356" width="0.814299" height="0.807907" fill="#167BB7"/>
<rect x="13.4434" y="49.1641" width="0.814299" height="0.807907" fill="#167BB7"/>
<rect x="15.0713" y="49.1641" width="0.814299" height="0.807907" fill="#167BB7"/>
<rect x="15.0713" y="49.9722" width="0.814299" height="0.807907" fill="#167BB7"/>
<rect x="14.2568" y="50.7793" width="0.814299" height="0.807907" fill="#167BB7"/>
<rect x="15.8857" y="50.7793" width="0.814299" height="0.807907" fill="#167BB7"/>
<rect x="15.8857" y="51.5874" width="0.814299" height="0.807907" fill="#167BB7"/>
<rect x="15.0713" y="52.395" width="0.814299" height="0.807907" fill="#167BB7"/>
<rect x="16.7002" y="52.395" width="0.814299" height="0.807907" fill="#167BB7"/>
<rect x="15.8857" y="53.2031" width="0.814299" height="0.807907" fill="#167BB7"/>
<rect x="17.5146" y="53.2031" width="0.814299" height="0.807907" fill="#167BB7"/>
<rect x="16.7002" y="54.0112" width="0.814299" height="0.807907" fill="#167BB7"/>
<rect x="18.3291" y="54.0112" width="0.814299" height="0.807907" fill="#167BB7"/>
<rect x="18.3291" y="54.8193" width="0.814299" height="0.807907" fill="#167BB7"/>
<rect x="17.5146" y="55.6265" width="0.814299" height="0.807907" fill="#167BB7"/>
<rect x="19.1426" y="55.6265" width="0.814299" height="0.807907" fill="#167BB7"/>
<rect x="18.3291" y="56.4346" width="0.814299" height="0.807907" fill="#167BB7"/>
<rect x="19.957" y="57.2427" width="0.814299" height="0.807907" fill="#167BB7"/>
<rect x="19.1426" y="57.2427" width="0.814299" height="0.807907" fill="#167BB7"/>
<rect x="21.5859" y="57.2427" width="0.814299" height="0.807907" fill="#167BB7"/>
<rect x="20.7715" y="58.0513" width="0.814299" height="0.807907" fill="#167BB7"/>
<rect x="22.4004" y="58.0513" width="0.814299" height="0.807907" fill="#167BB7"/>
<rect x="21.5859" y="58.8584" width="0.814299" height="0.807907" fill="#167BB7"/>
<rect x="23.2148" y="59.6665" width="0.814299" height="0.807907" fill="#167BB7"/>
<rect x="22.4004" y="59.6665" width="0.814299" height="0.807907" fill="#167BB7"/>
<rect x="24.0283" y="58.8584" width="0.814299" height="0.807907" fill="#167BB7"/>
<rect x="24.8428" y="59.6665" width="0.814299" height="0.807907" fill="#167BB7"/>
<rect x="24.0283" y="60.4736" width="0.814299" height="0.807907" fill="#167BB7"/>
<rect x="26.4717" y="60.4736" width="0.814299" height="0.807907" fill="#167BB7"/>
<rect x="25.6572" y="61.2827" width="0.814299" height="0.807907" fill="#167BB7"/>
<rect x="28.1006" y="62.0903" width="0.814299" height="0.807907" fill="#167BB7"/>
<rect x="27.2861" y="62.0903" width="0.814299" height="0.807907" fill="#167BB7"/>
<rect x="30.543" y="62.8984" width="0.814299" height="0.807907" fill="#167BB7"/>
<rect x="29.7285" y="62.8984" width="0.814299" height="0.807907" fill="#167BB7"/>
<rect x="33.8008" y="63.7056" width="0.814299" height="0.807907" fill="#167BB7"/>
<rect x="32.9863" y="63.7056" width="0.814299" height="0.807907" fill="#167BB7"/>
<rect x="20.7715" y="56.4346" width="0.814299" height="0.807907" fill="#167BB7"/>
<rect x="24.8428" y="61.2827" width="0.814299" height="0.807907" fill="#167BB7"/>
<rect x="26.4717" y="62.0903" width="0.814299" height="0.807907" fill="#167BB7"/>
<rect x="28.915" y="61.2827" width="0.814299" height="0.807907" fill="#167BB7"/>
<rect x="28.915" y="62.8984" width="0.814299" height="0.807907" fill="#167BB7"/>
<rect x="31.3574" y="62.0903" width="0.814299" height="0.807907" fill="#167BB7"/>
<rect x="32.1719" y="63.7056" width="0.814299" height="0.807907" fill="#167BB7"/>
<rect x="31.3574" y="63.7056" width="0.814299" height="0.807907" fill="#167BB7"/>
<rect x="34.6143" y="63.7056" width="0.814299" height="0.807907" fill="#167BB7"/>
<rect x="35.4287" y="63.7056" width="0.814299" height="0.807907" fill="#167BB7"/>
<rect x="36.2432" y="63.7056" width="0.814299" height="0.807907" fill="#167BB7"/>
<rect x="35.4287" y="12.8081" width="0.814299" height="0.807907" fill="#167BB7"/>
<rect x="34.6143" y="12.8081" width="0.814299" height="0.807907" fill="#167BB7"/>
<rect x="30.543" y="13.6152" width="0.814299" height="0.807907" fill="#167BB7"/>
<rect x="29.7285" y="13.6152" width="0.814299" height="0.807907" fill="#167BB7"/>
<rect x="28.1006" y="14.4233" width="0.814299" height="0.807907" fill="#167BB7"/>
<rect x="27.2861" y="14.4233" width="0.814299" height="0.807907" fill="#167BB7"/>
<rect x="26.4717" y="15.2319" width="0.814299" height="0.807907" fill="#167BB7"/>
<rect x="25.6572" y="15.2319" width="0.814299" height="0.807907" fill="#167BB7"/>
<rect x="24.8428" y="16.0391" width="0.814299" height="0.807907" fill="#167BB7"/>
<rect x="24.0283" y="16.0391" width="0.814299" height="0.807907" fill="#167BB7"/>
<rect x="24.0283" y="16.8472" width="0.814299" height="0.807907" fill="#167BB7"/>
<rect x="23.2148" y="16.8472" width="0.814299" height="0.807907" fill="#167BB7"/>
<rect x="22.4004" y="16.8472" width="0.814299" height="0.807907" fill="#167BB7"/>
<rect x="22.4004" y="17.6553" width="0.814299" height="0.807907" fill="#167BB7"/>
<rect x="21.5859" y="17.6553" width="0.814299" height="0.807907" fill="#167BB7"/>
<rect x="21.5859" y="18.4634" width="0.814299" height="0.807907" fill="#167BB7"/>
<rect x="20.7715" y="18.4634" width="0.814299" height="0.807907" fill="#167BB7"/>
<rect x="19.957" y="17.6553" width="0.814299" height="0.807907" fill="#167BB7"/>
<rect x="20.7715" y="19.2715" width="0.814299" height="0.807907" fill="#167BB7"/>
<rect x="19.957" y="19.2715" width="0.814299" height="0.807907" fill="#167BB7"/>
<rect x="19.957" y="20.0791" width="0.814299" height="0.807907" fill="#167BB7"/>
<rect x="19.1426" y="20.0791" width="0.814299" height="0.807907" fill="#167BB7"/>
<rect x="19.1426" y="20.8872" width="0.814299" height="0.807907" fill="#167BB7"/>
<rect x="18.3291" y="20.8872" width="0.814299" height="0.807907" fill="#167BB7"/>
<rect x="18.3291" y="21.6943" width="0.814299" height="0.807907" fill="#167BB7"/>
<rect x="17.5146" y="21.6943" width="0.814299" height="0.807907" fill="#167BB7"/>
<rect x="17.5146" y="22.5034" width="0.814299" height="0.807907" fill="#167BB7"/>
<rect x="16.7002" y="22.5034" width="0.814299" height="0.807907" fill="#167BB7"/>
<rect x="16.7002" y="23.3105" width="0.814299" height="0.807907" fill="#167BB7"/>
<rect x="15.8857" y="23.3105" width="0.814299" height="0.807907" fill="#167BB7"/>
<rect x="15.8857" y="24.1187" width="0.814299" height="0.807907" fill="#167BB7"/>
<rect x="15.8857" y="24.9263" width="0.814299" height="0.807907" fill="#167BB7"/>
<rect x="15.0713" y="24.9263" width="0.814299" height="0.807907" fill="#167BB7"/>
<rect x="14.2568" y="24.1187" width="0.814299" height="0.807907" fill="#167BB7"/>
<rect x="15.0713" y="25.7344" width="0.814299" height="0.807907" fill="#167BB7"/>
<rect x="15.0713" y="26.5425" width="0.814299" height="0.807907" fill="#167BB7"/>
<rect x="14.2568" y="26.5425" width="0.814299" height="0.807907" fill="#167BB7"/>
<rect x="14.2568" y="27.3506" width="0.814299" height="0.807907" fill="#167BB7"/>
<rect x="14.2568" y="28.1577" width="0.814299" height="0.807907" fill="#167BB7"/>
<rect x="13.4434" y="28.1577" width="0.814299" height="0.807907" fill="#167BB7"/>
<rect x="13.4434" y="28.9658" width="0.814299" height="0.807907" fill="#167BB7"/>
<rect x="13.4434" y="29.7744" width="0.814299" height="0.807907" fill="#167BB7"/>
<rect x="13.4434" y="30.5825" width="0.814299" height="0.807907" fill="#167BB7"/>
<rect x="12.6289" y="30.5825" width="0.814299" height="0.807907" fill="#167BB7"/>
<rect x="12.6289" y="31.3896" width="0.814299" height="0.807907" fill="#167BB7"/>
<rect x="12.6289" y="32.1978" width="0.814299" height="0.807907" fill="#167BB7"/>
<rect x="12.6289" y="33.0049" width="0.814299" height="0.807907" fill="#167BB7"/>
<rect x="12.6289" y="33.8135" width="0.814299" height="0.807907" fill="#167BB7"/>
<rect x="11.8145" y="33.8135" width="0.814299" height="0.807907" fill="#167BB7"/>
<rect x="11.8145" y="34.6216" width="0.814299" height="0.807907" fill="#167BB7"/>
<rect x="11.8145" y="35.4297" width="0.814299" height="0.807907" fill="#167BB7"/>
<rect x="11.8145" y="36.2368" width="0.814299" height="0.807907" fill="#167BB7"/>
<rect x="11.8145" y="37.0449" width="0.814299" height="0.807907" fill="#167BB7"/>
<rect x="25.6572" y="16.0391" width="0.814299" height="0.807907" fill="#167BB7"/>
<rect x="27.2861" y="15.2319" width="0.814299" height="0.807907" fill="#167BB7"/>
<rect x="28.915" y="13.6152" width="0.814299" height="0.807907" fill="#167BB7"/>
<rect x="28.915" y="14.4233" width="0.814299" height="0.807907" fill="#167BB7"/>
<rect x="31.3574" y="13.6152" width="0.814299" height="0.807907" fill="#167BB7"/>
<rect x="32.1719" y="12.8081" width="0.814299" height="0.807907" fill="#167BB7"/>
<rect x="32.1719" y="13.6152" width="0.814299" height="0.807907" fill="#167BB7"/>
<rect x="32.9863" y="12.8081" width="0.814299" height="0.807907" fill="#167BB7"/>
<rect x="33.8008" y="12.8081" width="0.814299" height="0.807907" fill="#167BB7"/>
<rect x="36.2432" y="12.8081" width="0.814299" height="0.807907" fill="#167BB7"/>
<rect x="37.0576" y="12.8081" width="0.814299" height="0.807907" fill="#167BB7"/>
<rect x="37.8721" y="12.8081" width="0.814299" height="0.807907" fill="#167BB7"/>
<rect x="40.3145" y="12.8081" width="0.814299" height="0.807907" fill="#167BB7"/>
<rect x="39.5" y="12.8081" width="0.814299" height="0.807907" fill="#167BB7"/>
<rect x="44.3867" y="13.6152" width="0.814299" height="0.807907" fill="#167BB7"/>
<rect x="43.5723" y="13.6152" width="0.814299" height="0.807907" fill="#167BB7"/>
<rect x="46.8291" y="14.4233" width="0.814299" height="0.807907" fill="#167BB7"/>
<rect x="46.0146" y="14.4233" width="0.814299" height="0.807907" fill="#167BB7"/>
<rect x="49.2725" y="14.4233" width="0.814299" height="0.807907" fill="#167BB7"/>
<rect x="48.458" y="15.2319" width="0.814299" height="0.807907" fill="#167BB7"/>
<rect x="50.9004" y="15.2319" width="0.814299" height="0.807907" fill="#167BB7"/>
<rect x="50.0859" y="16.0391" width="0.814299" height="0.807907" fill="#167BB7"/>
<rect x="51.7148" y="16.8472" width="0.814299" height="0.807907" fill="#167BB7"/>
<rect x="50.9004" y="16.8472" width="0.814299" height="0.807907" fill="#167BB7"/>
<rect x="53.3438" y="16.8472" width="0.814299" height="0.807907" fill="#167BB7"/>
<rect x="52.5293" y="17.6553" width="0.814299" height="0.807907" fill="#167BB7"/>
<rect x="54.1582" y="17.6553" width="0.814299" height="0.807907" fill="#167BB7"/>
<rect x="53.3438" y="18.4634" width="0.814299" height="0.807907" fill="#167BB7"/>
<rect x="54.9727" y="18.4634" width="0.814299" height="0.807907" fill="#167BB7"/>
<rect x="54.1582" y="19.2715" width="0.814299" height="0.807907" fill="#167BB7"/>
<rect x="55.7861" y="19.2715" width="0.814299" height="0.807907" fill="#167BB7"/>
<rect x="54.9727" y="20.0791" width="0.814299" height="0.807907" fill="#167BB7"/>
<rect x="56.6006" y="20.0791" width="0.814299" height="0.807907" fill="#167BB7"/>
<rect x="55.7861" y="20.8872" width="0.814299" height="0.807907" fill="#167BB7"/>
<rect x="57.415" y="20.8872" width="0.814299" height="0.807907" fill="#167BB7"/>
<rect x="56.6006" y="21.6943" width="0.814299" height="0.807907" fill="#167BB7"/>
<rect x="58.2295" y="21.6943" width="0.814299" height="0.807907" fill="#167BB7"/>
<rect x="57.415" y="22.5034" width="0.814299" height="0.807907" fill="#167BB7"/>
<rect x="59.0439" y="22.5034" width="0.814299" height="0.807907" fill="#167BB7"/>
<rect x="59.0439" y="23.3105" width="0.814299" height="0.807907" fill="#167BB7"/>
<rect x="58.2295" y="24.1187" width="0.814299" height="0.807907" fill="#167BB7"/>
<rect x="59.8584" y="24.1187" width="0.814299" height="0.807907" fill="#167BB7"/>
<rect x="59.0439" y="24.9263" width="0.814299" height="0.807907" fill="#167BB7"/>
<rect x="60.6719" y="24.9263" width="0.814299" height="0.807907" fill="#167BB7"/>
<rect x="60.6719" y="25.7344" width="0.814299" height="0.807907" fill="#167BB7"/>
<rect x="59.8584" y="26.5425" width="0.814299" height="0.807907" fill="#167BB7"/>
<rect x="61.4863" y="26.5425" width="0.814299" height="0.807907" fill="#167BB7"/>
<rect x="61.4863" y="27.3506" width="0.814299" height="0.807907" fill="#167BB7"/>
<rect x="61.4863" y="28.1577" width="0.814299" height="0.807907" fill="#167BB7"/>
<rect x="60.6719" y="28.9658" width="0.814299" height="0.807907" fill="#167BB7"/>
<rect x="62.3008" y="28.9658" width="0.814299" height="0.807907" fill="#167BB7"/>
<rect x="62.3008" y="29.7744" width="0.814299" height="0.807907" fill="#167BB7"/>
<rect x="62.3008" y="30.5825" width="0.814299" height="0.807907" fill="#167BB7"/>
<rect x="61.4863" y="31.3896" width="0.814299" height="0.807907" fill="#167BB7"/>
<rect x="63.1152" y="31.3896" width="0.814299" height="0.807907" fill="#167BB7"/>
<rect x="63.1152" y="32.1978" width="0.814299" height="0.807907" fill="#167BB7"/>
<rect x="63.1152" y="33.0049" width="0.814299" height="0.807907" fill="#167BB7"/>
<rect x="63.1152" y="33.8135" width="0.814299" height="0.807907" fill="#167BB7"/>
<rect x="63.1152" y="34.6216" width="0.814299" height="0.807907" fill="#167BB7"/>
<rect x="62.3008" y="35.4297" width="0.814299" height="0.807907" fill="#167BB7"/>
<rect x="63.9297" y="35.4297" width="0.814299" height="0.807907" fill="#167BB7"/>
<rect x="63.9297" y="36.2368" width="0.814299" height="0.807907" fill="#167BB7"/>
<rect x="63.9297" y="37.0449" width="0.814299" height="0.807907" fill="#167BB7"/>
<rect x="38.6865" y="12.8081" width="0.814299" height="0.807907" fill="#167BB7"/>
<rect x="41.1289" y="12.8081" width="0.814299" height="0.807907" fill="#167BB7"/>
<rect x="41.9434" y="12.8081" width="0.814299" height="0.807907" fill="#167BB7"/>
<rect x="42.7578" y="12" width="0.814299" height="0.807907" fill="#167BB7"/>
<rect x="42.7578" y="13.6152" width="0.814299" height="0.807907" fill="#167BB7"/>
<rect x="45.2002" y="13.6152" width="0.814299" height="0.807907" fill="#167BB7"/>
<rect x="46.0146" y="12.8081" width="0.814299" height="0.807907" fill="#167BB7"/>
<rect x="47.6436" y="13.6152" width="0.814299" height="0.807907" fill="#167BB7"/>
<rect x="47.6436" y="15.2319" width="0.814299" height="0.807907" fill="#167BB7"/>
<rect x="49.2725" y="16.0391" width="0.814299" height="0.807907" fill="#167BB7"/>
<rect x="52.5293" y="16.0391" width="0.814299" height="0.807907" fill="#167BB7"/>
<path d="M50.3684 48.1353H42.988V47.7129C42.988 40.7033 42.9848 33.6938 42.9785 26.6843C42.9785 26.2975 43.0883 26.213 43.4611 26.2149C45.6411 26.2336 47.8136 26.228 50.0031 26.2149C50.2775 26.2149 50.3987 26.2599 50.3987 26.5772C50.3898 33.6656 50.3898 40.7528 50.3987 47.8387C50.3816 47.9194 50.3741 48.0077 50.3684 48.1353ZM47.8855 28.6989H45.4784V45.6814H47.8818L47.8855 28.6989Z" fill="#167BB7"/>
<path d="M40.5218 48.1426H33.1963V31.1338H40.5218V48.1426ZM35.6659 33.5821V45.6811H38.0522V33.5821H35.6659Z" fill="#167BB7"/>
<path d="M23.3594 48.1352V35.9912H30.7171V48.1334L23.3594 48.1352ZM25.8347 38.4471V45.67H28.2418V38.4471H25.8347Z" fill="#167BB7"/>
<path d="M23.3939 50.6099H50.3778C50.3778 51.3759 50.3778 52.1307 50.3626 52.8836C50.3626 52.9418 50.1412 53.0394 50.022 53.0413C48.4059 53.0507 46.7898 53.0413 45.1737 53.0413H23.8178C23.3371 53.0413 23.3352 53.0413 23.3371 52.5513C23.3371 51.9254 23.3409 51.3039 23.3485 50.6868C23.3485 50.6718 23.3712 50.6493 23.3939 50.6099Z" fill="#167BB7"/>
<path d="M73 30.25V18H85.25V30.25H81.75V19.75H76.5V30.25H73ZM99.25 23.25V28.5H97.5V30.25H90.5V32H87V21.5H90.5V23.25H92.25V25H90.5V28.5H95.75V23.25H92.25V21.5H97.5V23.25H99.25ZM102.75 30.25V28.5H101V23.25H102.75V21.5H111.5V23.25H113.25V28.5H111.5V30.25H102.75ZM104.5 28.5H109.75V23.25H104.5V28.5ZM116.75 30.25V21.5H127.25V25H125.5V23.25H120.25V30.25H116.75ZM141.25 23.25V28.5H139.5V30.25H132.5V32H129V21.5H132.5V23.25H134.25V25H132.5V28.5H137.75V23.25H134.25V21.5H139.5V23.25H141.25ZM144.75 30.25V28.5H143V26.75H144.75V25H151.75V23.25H144.75V21.5H153.5V23.25H155.25V30.25H144.75ZM146.5 28.5H151.75V26.75H146.5V28.5ZM162.25 23.25V25H160.5V30.25H157V21.5H160.5V23.25H162.25ZM169.25 21.5V30.25H165.75V25H164V23.25H165.75V21.5H169.25ZM162.25 25H164V28.5H162.25V25ZM176.25 23.25V25H174.5V30.25H171V21.5H174.5V23.25H176.25ZM183.25 21.5V30.25H179.75V25H178V23.25H179.75V21.5H183.25ZM176.25 25H178V28.5H176.25V25ZM185 30.25V21.5H188.5V25H192V30.25H185ZM193.75 30.25V21.5H197.25V30.25H193.75ZM188.5 28.5H190.25V26.75H188.5V28.5ZM73 44.25V35.5H85.25V44.25H81.75V37.25H76.5V44.25H73ZM88.75 44.25V42.5H87V37.25H88.75V35.5H97.5V37.25H99.25V42.5H97.5V44.25H88.75ZM90.5 42.5H95.75V37.25H90.5V42.5ZM113.25 42.5H115V46H111.5V44.25H104.5V46H101V42.5H102.75V40.75H104.5V35.5H113.25V42.5ZM106.25 42.5H109.75V37.25H106.25V42.5ZM127.25 42.5H129V46H125.5V44.25H118.5V46H115V42.5H116.75V40.75H118.5V35.5H127.25V42.5ZM120.25 42.5H123.75V37.25H120.25V42.5ZM130.75 44.25V42.5H129V37.25H130.75V35.5H139.5V37.25H141.25V40.75H132.5V42.5H139.5V44.25H130.75ZM132.5 39H137.75V37.25H132.5V39ZM155.25 37.25V42.5H153.5V44.25H146.5V46H143V35.5H146.5V37.25H148.25V39H146.5V42.5H151.75V37.25H148.25V35.5H153.5V37.25H155.25ZM157 44.25V40.75H158.75V39H157V35.5H160.5V39H162.25V35.5H164V39H165.75V35.5H169.25V39H167.5V40.75H169.25V44.25H165.75V40.75H164V44.25H162.25V40.75H160.5V44.25H157ZM178 37.25H179.75V39H181.5V40.75H183.25V44.25H179.75V40.75H174.5V44.25H171V35.5H174.5V39H178V37.25ZM183.25 35.5V37.25H179.75V35.5H183.25ZM188.5 40.75H190.25V42.5H188.5V44.25H185V35.5H188.5V40.75ZM197.25 35.5V44.25H193.75V39H192V37.25H193.75V35.5H197.25ZM190.25 39H192V40.75H190.25V39ZM73 58.25V49.5H76.5V53H81.75V49.5H85.25V58.25H81.75V54.75H76.5V58.25H73ZM88.75 58.25V56.5H87V54.75H88.75V53H95.75V51.25H88.75V49.5H97.5V51.25H99.25V58.25H88.75ZM90.5 56.5H95.75V54.75H90.5V56.5ZM102.75 58.25V56.5H101V51.25H102.75V49.5H111.5V51.25H113.25V53H109.75V51.25H104.5V56.5H109.75V54.75H113.25V56.5H111.5V58.25H102.75ZM116.75 58.25V56.5H115V51.25H116.75V49.5H125.5V51.25H127.25V54.75H118.5V56.5H125.5V58.25H116.75ZM118.5 53H123.75V51.25H118.5V53ZM141.25 49.5V58.25H137.75V51.25H134.25V56.5H132.5V58.25H129V54.75H130.75V53H132.5V49.5H141.25ZM144.75 58.25V56.5H143V51.25H144.75V49.5H153.5V51.25H155.25V54.75H146.5V56.5H153.5V58.25H144.75ZM146.5 53H151.75V51.25H146.5V53ZM157 58.25V49.5H160.5V53H165.75V49.5H169.25V58.25H165.75V54.75H160.5V58.25H157ZM174.5 54.75H176.25V56.5H174.5V58.25H171V49.5H174.5V54.75ZM183.25 49.5V58.25H179.75V53H178V51.25H179.75V49.5H183.25ZM176.25 53H178V54.75H176.25V53ZM185 58.25V54.75H186.75V53H185V51.25H186.75V49.5H197.25V58.25H193.75V54.75H188.5V58.25H185ZM188.5 53H193.75V51.25H188.5V53Z" fill="black"/>
</svg>
