<svg width="301" height="76" viewBox="0 0 301 76" fill="none" xmlns="http://www.w3.org/2000/svg">
<path d="M287.609 74.4996L13.5227 74.4292V72.5729V71.0729H12.0227H7.56473L7.41122 68.9939L7.32958 67.8884L6.24877 67.6419C5.48925 67.4687 5.05554 67.3671 4.75687 67.2589C4.68984 67.2347 4.64312 67.2146 4.61181 67.1997C4.5965 67.1412 4.57346 67.0295 4.55451 66.8366C4.51348 66.419 4.50712 65.8457 4.49951 64.9475C4.49943 64.2285 4.48645 63.5677 4.40321 63.0057C4.31748 62.4268 4.13832 61.805 3.69612 61.2654C3.25156 60.7229 2.67689 60.4288 2.12826 60.2375C1.93235 60.1692 1.72193 60.1081 1.5 60.0518V15.7485C1.76564 15.7026 2.01894 15.6487 2.25035 15.5808C2.80208 15.4188 3.40737 15.1286 3.84856 14.515C4.25371 13.9516 4.38241 13.2991 4.44217 12.7393C4.50314 12.1681 4.51066 11.4617 4.51427 10.6555H4.51429V10.6488V10.6423V10.6359V10.6294V10.6229V10.6165V10.61V10.6035V10.5971V10.5906V10.5842V10.5777V10.5712V10.5648V10.5583V10.5518V10.5454V10.5389V10.5325V10.526V10.5195V10.5131V10.5066V10.5001V10.4937V10.4872V10.4808V10.4743V10.4678V10.4614V10.4549V10.4484V10.442V10.4355V10.429V10.4226V10.4161V10.4096V10.4032V10.3967V10.3903V10.3838V10.3773V10.3709V10.3644V10.3579V10.3515V10.345V10.3385V10.3321V10.3256V10.3191V10.3126V10.3062V10.2997V10.2932V10.2868V10.2803V10.2738V10.2674V10.2609V10.2544V10.248V10.2415V10.235V10.2285V10.2221V10.2156V10.2091V10.2026V10.1962V10.1897V10.1832V10.1768V10.1703V10.1638V10.1573V10.1509V10.1444V10.1379V10.1314V10.1249V10.1185V10.112V10.1055V10.099V10.0926V10.0861V10.0796V10.0731V10.0666V10.0601V10.0537V10.0472V10.0407V10.0342V10.0277V10.0213V10.0148V10.0083V10.0018V9.99531V9.98882V9.98234V9.97585V9.96936V9.96287V9.95638V9.94989V9.9434V9.93691V9.93042V9.92393V9.91744V9.91095V9.90445V9.89796V9.89147V9.88497V9.87848V9.87198V9.86548V9.85899V9.85249V9.84599V9.83949V9.83299V9.82649V9.81999V9.81349V9.80699V9.80049V9.79398V9.78748V9.78097V9.77447V9.76796V9.76146V9.75495V9.74844V9.74193V9.73542V9.72892V9.72241V9.71589V9.70938V9.70287V9.69636V9.68984V9.68333V9.67681V9.6703V9.66378V9.65726V9.65075V9.64423V9.63771V9.63119V9.62467V9.61814V9.61162V9.6051V9.59857V9.59205V9.58552V9.579V9.57247V9.56594V9.55941V9.55288V9.54635V9.53982V9.53329V9.52676V9.52022V9.51369V9.50715V9.50062V9.49408V9.48754V9.481V9.47446V9.46792V9.46138V9.45484V9.4483V9.44175V9.43521V9.42866V9.42212V9.41557V9.40902V9.40247V9.39592V9.38937V9.38282V9.37626V9.36971V9.36316V9.3566V9.35004V9.34348V9.33693V9.33037V9.32381V9.31724V9.31068V9.30412V9.29755V9.29099V9.28442V9.27785V9.27129V9.26472V9.25815V9.25157V9.245V9.23843V9.23185V9.22528V9.2187V9.21212V9.20554V9.19896V9.19238V9.1858V9.17922V9.17263V9.16605V9.15946V9.15287V9.14629V9.1397V9.1331V9.12651V9.11992V9.11333V9.10673V9.10013V9.09354V9.08694V9.08034V9.07374V9.06713V9.06053V9.05393V9.04732V9.04071V9.03411V9.0275V9.02089V9.01427V9.00766V9.00105V8.99443V8.98782V8.9812V8.97458V8.96796V8.96134V8.95472V8.94809V8.94147V8.93484V8.92821V8.92159V8.91496V8.90832V8.90169V8.89506V8.88842V8.88179V8.87515V8.86851V8.86187V8.85523V8.84858V8.84194V8.83529V8.82865V8.822V8.81535V8.8087V8.80205V8.79539V8.78874V8.78208V8.77542V8.76877V8.7621V8.75544V8.74878V8.74212V8.73545V8.72878V8.72211V8.71544V8.70877V8.7021V8.69542V8.68875V8.68207V8.67539V8.66871V8.66203V8.65535V8.64884L6.0566 8.5591L7.4148 8.48007L7.46831 7.12062L7.5495 5.0575H11.9291H13.3503L13.4269 3.63837L13.5424 1.5H287.569L287.738 3.67345L287.845 5.0575H289.233H293.594C293.624 5.75357 293.654 6.43093 293.69 7.18575L293.757 8.615H295.188H296.604V10.6251C296.604 11.4584 296.605 12.1878 296.663 12.7709C296.719 13.3444 296.847 14.0209 297.28 14.6012C297.742 15.2212 298.375 15.5016 298.93 15.6612C299.107 15.712 299.298 15.7564 299.5 15.7967V60.1326C299.279 60.1856 299.069 60.2436 298.876 60.3097C298.302 60.506 297.693 60.8305 297.259 61.4739C296.86 62.0648 296.735 62.7451 296.677 63.3532C296.619 63.9726 296.615 64.7475 296.614 65.6516V65.6536V65.6594V65.6652V65.6709V65.6767V65.6824V65.6882V65.694V65.6998V65.7055V65.7113V65.7171V65.7228V65.7286V65.7344V65.7401V65.7459V65.7517V65.7574V65.7632V65.769V65.7747V65.7805V65.7863V65.792V65.7978V65.8036V65.8093V65.8151V65.8209V65.8267V65.8324V65.8382V65.844V65.8497V65.8555V65.8613V65.8671V65.8728V65.8786V65.8844V65.8902V65.8959V65.9017V65.9075V65.9133V65.919V65.9248V65.9306V65.9364V65.9421V65.9479V65.9537V65.9595V65.9652V65.971V65.9768V65.9826V65.9884V65.9941V65.9999V66.0057V66.0115V66.0173V66.023V66.0288V66.0346V66.0404V66.0462V66.052V66.0577V66.0635V66.0693V66.0751V66.0809V66.0867V66.0925V66.0983V66.1041V66.1098V66.1156V66.1214V66.1272V66.133V66.1388V66.1446V66.1504V66.1562V66.162V66.1678V66.1736V66.1794V66.1852V66.191V66.1968V66.2026V66.2084V66.2142V66.22V66.2258V66.2316V66.2374V66.2432V66.249V66.2548V66.2606V66.2664V66.2723V66.2781V66.2839V66.2897V66.2955V66.3013V66.3071V66.313V66.3188V66.3246V66.3304V66.3362V66.3421V66.3479V66.3537V66.3595V66.3653V66.3712V66.377V66.3828V66.3887V66.3945V66.4003V66.4061V66.412V66.4178V66.4236V66.4295V66.4353V66.4412V66.447V66.4528V66.4587V66.4645V66.4704V66.4762V66.482V66.4879V66.4937V66.4996V66.5054V66.5113V66.5171V66.523V66.5288V66.5347V66.5406V66.5464V66.5523V66.5581V66.564V66.5699V66.5757V66.5816V66.5875V66.5933V66.5992V66.6051V66.6109V66.6168V66.6227V66.6286V66.6344V66.6403V66.6462V66.6521V66.6579V66.6638V66.6697V66.6756V66.6815V66.6874V66.6933V66.6992V66.705V66.7109V66.7168V66.7227V66.7286V66.7345V66.7404V66.7463V66.7522V66.7581V66.764V66.77V66.7759V66.7818V66.7877V66.7936V66.7995V66.8054V66.8114V66.8173V66.8232V66.8291V66.835V66.841V66.8469V66.8528V66.8588V66.8647V66.8706V66.8766V66.8825V66.8884V66.8944V66.9003V66.9063V66.9122V66.9182V66.9241V66.9301V66.936V66.942V66.9479V66.9539V66.9598V66.9658V66.9718V66.9777V66.9837V66.9897V66.9956V67.0016V67.0076V67.0135V67.0195V67.0255V67.0315V67.0375V67.0434V67.0494V67.0554V67.0614V67.0674V67.0734V67.0794V67.0854V67.0914V67.0974V67.1034V67.1094V67.1154V67.1214V67.1274V67.1334V67.1394V67.1455V67.1515V67.1575V67.1635V67.1695V67.1756V67.1816V67.1876V67.1936V67.1997V67.2057V67.2118V67.2178V67.2238V67.2299V67.2359V67.242V67.248V67.2541V67.2601V67.2662V67.2723V67.2783V67.2844V67.2904V67.2965V67.3026V67.3086V67.3147V67.3208V67.3269V67.333V67.339V67.3451V67.3512V67.3573V67.3634V67.3695V67.3756V67.3817V67.3878V67.3939V67.4V67.4061V67.4101L295.08 67.5514L293.788 67.6705L293.72 68.9665C293.684 69.6539 293.649 70.3077 293.613 71.0077H289.253H287.853L287.757 72.4046C287.704 73.1659 287.657 73.8354 287.609 74.4996ZM4.55717 67.1699C4.55725 67.1698 4.55871 67.1708 4.56127 67.1727C4.55836 67.1709 4.55709 67.1699 4.55717 67.1699Z" fill="#809DE3" stroke="#2B57E4" stroke-width="3"/>
<path d="M63.1152 37.853H63.9295V38.6609H63.1152V37.853Z" fill="white"/>
<path d="M63.1152 38.6609H63.9295V39.4688H63.1152V38.6609Z" fill="white"/>
<path d="M63.1152 39.4688H63.9295V40.2767H63.1152V39.4688Z" fill="white"/>
<path d="M62.3009 40.2767H63.1152V41.0846H62.3009V40.2767Z" fill="white"/>
<path d="M62.3009 41.0846H63.1152V41.8926H62.3009V41.0846Z" fill="white"/>
<path d="M62.3009 41.8926H63.1152V42.7005H62.3009V41.8926Z" fill="white"/>
<path d="M62.3009 42.7005H63.1152V43.5084H62.3009V42.7005Z" fill="white"/>
<path d="M62.3009 43.5084H63.1152V44.3163H62.3009V43.5084Z" fill="white"/>
<path d="M62.3009 44.3163H63.1152V45.1242H62.3009V44.3163Z" fill="white"/>
<path d="M61.4866 45.1242H62.3009V45.9321H61.4866V45.1242Z" fill="white"/>
<path d="M61.4866 45.9321H62.3009V46.74H61.4866V45.9321Z" fill="white"/>
<path d="M61.4866 46.74H62.3009V47.5479H61.4866V46.74Z" fill="white"/>
<path d="M60.6723 47.5479H61.4866V48.3558H60.6723V47.5479Z" fill="white"/>
<path d="M60.6723 48.3558H61.4866V49.1637H60.6723V48.3558Z" fill="white"/>
<path d="M59.858 49.1637H60.6723V49.9716H59.858V49.1637Z" fill="white"/>
<path d="M59.858 49.9716H60.6723V50.7795H59.858V49.9716Z" fill="white"/>
<path d="M59.0437 50.7795H59.858V51.5874H59.0437V50.7795Z" fill="white"/>
<path d="M58.2294 51.5874H59.0437V52.3953H58.2294V51.5874Z" fill="white"/>
<path d="M58.2294 52.3953H59.0437V53.2032H58.2294V52.3953Z" fill="white"/>
<path d="M57.4151 53.2032H58.2294V54.0112H57.4151V53.2032Z" fill="white"/>
<path d="M56.6008 54.0112H57.4151V54.8191H56.6008V54.0112Z" fill="white"/>
<path d="M55.7865 54.8191H56.6008V55.627H55.7865V54.8191Z" fill="white"/>
<path d="M54.9722 55.627H55.7865V56.4349H54.9722V55.627Z" fill="white"/>
<path d="M54.1579 56.4349H54.9722V57.2428H54.1579V56.4349Z" fill="white"/>
<path d="M53.3436 57.2428H54.1579V58.0507H53.3436V57.2428Z" fill="white"/>
<path d="M52.5293 58.0507H53.3436V58.8586H52.5293V58.0507Z" fill="white"/>
<path d="M51.715 58.8586H52.5293V59.6665H51.715V58.8586Z" fill="white"/>
<path d="M50.0864 59.6665H50.9007V60.4744H50.0864V59.6665Z" fill="white"/>
<path d="M48.4578 60.4744H49.2721V61.2823H48.4578V60.4744Z" fill="white"/>
<path d="M46.8292 61.2823H47.6435V62.0902H46.8292V61.2823Z" fill="white"/>
<path d="M44.3863 62.0902H45.2006V62.8981H44.3863V62.0902Z" fill="white"/>
<path d="M41.1291 62.8981H41.9434V63.706H41.1291V62.8981Z" fill="white"/>
<path d="M37.0576 62.8981H37.8719V63.706H37.0576V62.8981Z" fill="white"/>
<path d="M37.8719 62.8981H38.6862V63.706H37.8719V62.8981Z" fill="white"/>
<path d="M38.6862 62.8981H39.5005V63.706H38.6862V62.8981Z" fill="white"/>
<path d="M39.5005 62.8981H40.3148V63.706H39.5005V62.8981Z" fill="white"/>
<path d="M40.3148 62.8981H41.1291V63.706H40.3148V62.8981Z" fill="white"/>
<path d="M41.9434 62.8981H42.7577V63.706H41.9434V62.8981Z" fill="white"/>
<path d="M42.7577 62.8981H43.572V63.706H42.7577V62.8981Z" fill="white"/>
<path d="M43.572 62.0902H44.3863V62.8981H43.572V62.0902Z" fill="white"/>
<path d="M45.2006 62.0902H46.0149V62.8981H45.2006V62.0902Z" fill="white"/>
<path d="M46.0149 61.2823H46.8292V62.0902H46.0149V61.2823Z" fill="white"/>
<path d="M47.6435 61.2823H48.4578V62.0902H47.6435V61.2823Z" fill="white"/>
<path d="M49.2721 60.4744H50.0864V61.2823H49.2721V60.4744Z" fill="white"/>
<path d="M50.9007 58.8586H51.715V59.6665H50.9007V58.8586Z" fill="white"/>
<path d="M11 37.853H11.8143V38.6609H11V37.853Z" fill="white"/>
<path d="M11 38.6609H11.8143V39.4688H11V38.6609Z" fill="white"/>
<path d="M11 39.4688H11.8143V40.2767H11V39.4688Z" fill="white"/>
<path d="M11 40.2767H11.8143V41.0846H11V40.2767Z" fill="white"/>
<path d="M11 41.0846H11.8143V41.8926H11V41.0846Z" fill="white"/>
<path d="M11.8143 41.8926H12.6286V42.7005H11.8143V41.8926Z" fill="white"/>
<path d="M11.8143 42.7005H12.6286V43.5084H11.8143V42.7005Z" fill="white"/>
<path d="M11.8143 43.5084H12.6286V44.3163H11.8143V43.5084Z" fill="white"/>
<path d="M11.8143 44.3163H12.6286V45.1242H11.8143V44.3163Z" fill="white"/>
<path d="M12.6286 45.1242H13.4429V45.9321H12.6286V45.1242Z" fill="white"/>
<path d="M12.6286 45.9321H13.4429V46.74H12.6286V45.9321Z" fill="white"/>
<path d="M12.6286 46.74H13.4429V47.5479H12.6286V46.74Z" fill="white"/>
<path d="M13.4429 47.5479H14.2572V48.3558H13.4429V47.5479Z" fill="white"/>
<path d="M13.4429 48.3558H14.2572V49.1637H13.4429V48.3558Z" fill="white"/>
<path d="M14.2572 49.1637H15.0715V49.9716H14.2572V49.1637Z" fill="white"/>
<path d="M14.2572 49.9716H15.0715V50.7795H14.2572V49.9716Z" fill="white"/>
<path d="M15.0715 50.7795H15.8858V51.5874H15.0715V50.7795Z" fill="white"/>
<path d="M15.0715 51.5874H15.8858V52.3953H15.0715V51.5874Z" fill="white"/>
<path d="M15.8858 52.3953H16.7001V53.2032H15.8858V52.3953Z" fill="white"/>
<path d="M16.7001 53.2032H17.5144V54.0112H16.7001V53.2032Z" fill="white"/>
<path d="M17.5144 54.0112H18.3287V54.8191H17.5144V54.0112Z" fill="white"/>
<path d="M17.5144 54.8191H18.3287V55.627H17.5144V54.8191Z" fill="white"/>
<path d="M18.3287 55.627H19.143V56.4349H18.3287V55.627Z" fill="white"/>
<path d="M19.143 56.4349H19.9573V57.2428H19.143V56.4349Z" fill="white"/>
<path d="M20.7716 57.2428H21.5859V58.0507H20.7716V57.2428Z" fill="white"/>
<path d="M21.5859 58.0507H22.4002V58.8586H21.5859V58.0507Z" fill="white"/>
<path d="M22.4002 58.8586H23.2145V59.6665H22.4002V58.8586Z" fill="white"/>
<path d="M24.0288 59.6665H24.8431V60.4744H24.0288V59.6665Z" fill="white"/>
<path d="M25.6574 60.4744H26.4717V61.2823H25.6574V60.4744Z" fill="white"/>
<path d="M27.286 61.2823H28.1003V62.0902H27.286V61.2823Z" fill="white"/>
<path d="M29.7289 62.0902H30.5432V62.8981H29.7289V62.0902Z" fill="white"/>
<path d="M32.9861 62.8981H33.8004V63.706H32.9861V62.8981Z" fill="white"/>
<path d="M19.9573 56.4349H20.7716V57.2428H19.9573V56.4349Z" fill="white"/>
<path d="M23.2145 58.8586H24.0288V59.6665H23.2145V58.8586Z" fill="white"/>
<path d="M24.8431 60.4744H25.6574V61.2823H24.8431V60.4744Z" fill="white"/>
<path d="M26.4717 61.2823H27.286V62.0902H26.4717V61.2823Z" fill="white"/>
<path d="M28.1003 61.2823H28.9146V62.0902H28.1003V61.2823Z" fill="white"/>
<path d="M28.9146 62.0902H29.7289V62.8981H28.9146V62.0902Z" fill="white"/>
<path d="M30.5432 62.0902H31.3575V62.8981H30.5432V62.0902Z" fill="white"/>
<path d="M31.3575 62.8981H32.1718V63.706H31.3575V62.8981Z" fill="white"/>
<path d="M32.1718 62.8981H32.9861V63.706H32.1718V62.8981Z" fill="white"/>
<path d="M33.8004 62.8981H34.6147V63.706H33.8004V62.8981Z" fill="white"/>
<path d="M34.6147 62.8981H35.429V63.706H34.6147V62.8981Z" fill="white"/>
<path d="M35.429 62.8981H36.2433V63.706H35.429V62.8981Z" fill="white"/>
<path d="M36.2433 62.8981H37.0576V63.706H36.2433V62.8981Z" fill="white"/>
<path d="M34.6147 12H35.429V12.8079H34.6147V12Z" fill="white"/>
<path d="M29.7289 12.8079H30.5432V13.6158H29.7289V12.8079Z" fill="white"/>
<path d="M27.286 13.6158H28.1003V14.4237H27.286V13.6158Z" fill="white"/>
<path d="M25.6574 14.4237H26.4717V15.2316H25.6574V14.4237Z" fill="white"/>
<path d="M24.0288 15.2316H24.8431V16.0395H24.0288V15.2316Z" fill="white"/>
<path d="M23.2145 16.0395H24.0288V16.8474H23.2145V16.0395Z" fill="white"/>
<path d="M21.5859 16.8474H22.4002V17.6553H21.5859V16.8474Z" fill="white"/>
<path d="M20.7716 17.6553H21.5859V18.4633H20.7716V17.6553Z" fill="white"/>
<path d="M19.9573 18.4633H20.7716V19.2712H19.9573V18.4633Z" fill="white"/>
<path d="M19.143 19.2712H19.9573V20.0791H19.143V19.2712Z" fill="white"/>
<path d="M18.3287 20.0791H19.143V20.887H18.3287V20.0791Z" fill="white"/>
<path d="M17.5144 20.887H18.3287V21.6949H17.5144V20.887Z" fill="white"/>
<path d="M16.7001 21.6949H17.5144V22.5028H16.7001V21.6949Z" fill="white"/>
<path d="M15.8858 22.5028H16.7001V23.3107H15.8858V22.5028Z" fill="white"/>
<path d="M15.0715 23.3107H15.8858V24.1186H15.0715V23.3107Z" fill="white"/>
<path d="M15.0715 24.1186H15.8858V24.9265H15.0715V24.1186Z" fill="white"/>
<path d="M14.2572 24.9265H15.0715V25.7344H14.2572V24.9265Z" fill="white"/>
<path d="M14.2572 25.7344H15.0715V26.5423H14.2572V25.7344Z" fill="white"/>
<path d="M13.4429 26.5423H14.2572V27.3502H13.4429V26.5423Z" fill="white"/>
<path d="M13.4429 27.3502H14.2572V28.1581H13.4429V27.3502Z" fill="white"/>
<path d="M12.6286 28.1581H13.4429V28.966H12.6286V28.1581Z" fill="white"/>
<path d="M12.6286 28.966H13.4429V29.774H12.6286V28.966Z" fill="white"/>
<path d="M12.6286 29.774H13.4429V30.5819H12.6286V29.774Z" fill="white"/>
<path d="M11.8143 30.5819H12.6286V31.3898H11.8143V30.5819Z" fill="white"/>
<path d="M11.8143 31.3898H12.6286V32.1977H11.8143V31.3898Z" fill="white"/>
<path d="M11.8143 32.1977H12.6286V33.0056H11.8143V32.1977Z" fill="white"/>
<path d="M11.8143 33.0056H12.6286V33.8135H11.8143V33.0056Z" fill="white"/>
<path d="M11 33.8135H11.8143V34.6214H11V33.8135Z" fill="white"/>
<path d="M11 34.6214H11.8143V35.4293H11V34.6214Z" fill="white"/>
<path d="M11 35.4293H11.8143V36.2372H11V35.4293Z" fill="white"/>
<path d="M11 36.2372H11.8143V37.0451H11V36.2372Z" fill="white"/>
<path d="M11 37.0451H11.8143V37.853H11V37.0451Z" fill="white"/>
<path d="M22.4002 16.0395H23.2145V16.8474H22.4002V16.0395Z" fill="white"/>
<path d="M24.8431 15.2316H25.6574V16.0395H24.8431V15.2316Z" fill="white"/>
<path d="M26.4717 14.4237H27.286V15.2316H26.4717V14.4237Z" fill="white"/>
<path d="M28.1003 13.6158H28.9146V14.4237H28.1003V13.6158Z" fill="white"/>
<path d="M28.9146 12.8079H29.7289V13.6158H28.9146V12.8079Z" fill="white"/>
<path d="M30.5432 12.8079H31.3575V13.6158H30.5432V12.8079Z" fill="white"/>
<path d="M31.3575 12.8079H32.1718V13.6158H31.3575V12.8079Z" fill="white"/>
<path d="M32.1718 12H32.9861V12.8079H32.1718V12Z" fill="white"/>
<path d="M32.9861 12H33.8004V12.8079H32.9861V12Z" fill="white"/>
<path d="M33.8004 12H34.6147V12.8079H33.8004V12Z" fill="white"/>
<path d="M35.429 12H36.2433V12.8079H35.429V12Z" fill="white"/>
<path d="M36.2433 12H37.0576V12.8079H36.2433V12Z" fill="white"/>
<path d="M37.0576 12H37.8719V12.8079H37.0576V12Z" fill="white"/>
<path d="M39.5005 12H40.3148V12.8079H39.5005V12Z" fill="white"/>
<path d="M43.572 12.8079H44.3863V13.6158H43.572V12.8079Z" fill="white"/>
<path d="M46.0149 13.6158H46.8292V14.4237H46.0149V13.6158Z" fill="white"/>
<path d="M48.4578 14.4237H49.2721V15.2316H48.4578V14.4237Z" fill="white"/>
<path d="M50.0864 15.2316H50.9007V16.0395H50.0864V15.2316Z" fill="white"/>
<path d="M50.9007 16.0395H51.715V16.8474H50.9007V16.0395Z" fill="white"/>
<path d="M52.5293 16.8474H53.3436V17.6553H52.5293V16.8474Z" fill="white"/>
<path d="M53.3436 17.6553H54.1579V18.4633H53.3436V17.6553Z" fill="white"/>
<path d="M54.1579 18.4633H54.9722V19.2712H54.1579V18.4633Z" fill="white"/>
<path d="M54.9722 19.2712H55.7865V20.0791H54.9722V19.2712Z" fill="white"/>
<path d="M55.7865 20.0791H56.6008V20.887H55.7865V20.0791Z" fill="white"/>
<path d="M56.6008 20.887H57.4151V21.6949H56.6008V20.887Z" fill="white"/>
<path d="M57.4151 21.6949H58.2294V22.5028H57.4151V21.6949Z" fill="white"/>
<path d="M58.2294 22.5028H59.0437V23.3107H58.2294V22.5028Z" fill="white"/>
<path d="M58.2294 23.3107H59.0437V24.1186H58.2294V23.3107Z" fill="white"/>
<path d="M59.0437 24.1186H59.858V24.9265H59.0437V24.1186Z" fill="white"/>
<path d="M59.858 24.9265H60.6723V25.7344H59.858V24.9265Z" fill="white"/>
<path d="M59.858 25.7344H60.6723V26.5423H59.858V25.7344Z" fill="white"/>
<path d="M60.6723 26.5423H61.4866V27.3502H60.6723V26.5423Z" fill="white"/>
<path d="M60.6723 27.3502H61.4866V28.1581H60.6723V27.3502Z" fill="white"/>
<path d="M60.6723 28.1581H61.4866V28.966H60.6723V28.1581Z" fill="white"/>
<path d="M61.4866 28.966H62.3009V29.774H61.4866V28.966Z" fill="white"/>
<path d="M61.4866 29.774H62.3009V30.5819H61.4866V29.774Z" fill="white"/>
<path d="M61.4866 30.5819H62.3009V31.3898H61.4866V30.5819Z" fill="white"/>
<path d="M62.3009 31.3898H63.1152V32.1977H62.3009V31.3898Z" fill="white"/>
<path d="M62.3009 32.1977H63.1152V33.0056H62.3009V32.1977Z" fill="white"/>
<path d="M62.3009 33.0056H63.1152V33.8135H62.3009V33.0056Z" fill="white"/>
<path d="M62.3009 33.8135H63.1152V34.6214H62.3009V33.8135Z" fill="white"/>
<path d="M62.3009 34.6214H63.1152V35.4293H62.3009V34.6214Z" fill="white"/>
<path d="M63.1152 35.4293H63.9295V36.2372H63.1152V35.4293Z" fill="white"/>
<path d="M63.1152 36.2372H63.9295V37.0451H63.1152V36.2372Z" fill="white"/>
<path d="M63.1152 37.0451H63.9295V37.853H63.1152V37.0451Z" fill="white"/>
<path d="M37.8719 12H38.6862V12.8079H37.8719V12Z" fill="white"/>
<path d="M38.6862 12H39.5005V12.8079H38.6862V12Z" fill="white"/>
<path d="M40.3148 12H41.1291V12.8079H40.3148V12Z" fill="white"/>
<path d="M41.1291 12H41.9434V12.8079H41.1291V12Z" fill="white"/>
<path d="M41.9434 12H42.7577V12.8079H41.9434V12Z" fill="white"/>
<path d="M42.7577 12.8079H43.572V13.6158H42.7577V12.8079Z" fill="white"/>
<path d="M44.3863 12.8079H45.2006V13.6158H44.3863V12.8079Z" fill="white"/>
<path d="M45.2006 12.8079H46.0149V13.6158H45.2006V12.8079Z" fill="white"/>
<path d="M46.8292 13.6158H47.6435V14.4237H46.8292V13.6158Z" fill="white"/>
<path d="M47.6435 14.4237H48.4578V15.2316H47.6435V14.4237Z" fill="white"/>
<path d="M49.2721 15.2316H50.0864V16.0395H49.2721V15.2316Z" fill="white"/>
<path d="M51.715 16.0395H52.5293V16.8474H51.715V16.0395Z" fill="white"/>
<rect x="63.1152" y="37.853" width="0.814299" height="0.807907" fill="white"/>
<rect x="63.1152" y="38.6611" width="0.814299" height="0.807907" fill="white"/>
<rect x="63.1152" y="39.4688" width="0.814299" height="0.807907" fill="white"/>
<rect x="62.3008" y="40.2769" width="0.814299" height="0.807907" fill="white"/>
<rect x="62.3008" y="41.084" width="0.814299" height="0.807907" fill="white"/>
<rect x="62.3008" y="41.8931" width="0.814299" height="0.807907" fill="white"/>
<rect x="62.3008" y="42.7002" width="0.814299" height="0.807907" fill="white"/>
<rect x="62.3008" y="43.5088" width="0.814299" height="0.807907" fill="white"/>
<rect x="62.3008" y="44.3159" width="0.814299" height="0.807907" fill="white"/>
<rect x="61.4863" y="45.124" width="0.814299" height="0.807907" fill="white"/>
<rect x="61.4863" y="45.9321" width="0.814299" height="0.807907" fill="white"/>
<rect x="61.4863" y="46.7402" width="0.814299" height="0.807907" fill="white"/>
<rect x="60.6719" y="47.5474" width="0.814299" height="0.807907" fill="white"/>
<rect x="60.6719" y="48.356" width="0.814299" height="0.807907" fill="white"/>
<rect x="59.8584" y="49.1641" width="0.814299" height="0.807907" fill="white"/>
<rect x="59.8584" y="49.9722" width="0.814299" height="0.807907" fill="white"/>
<rect x="59.0439" y="50.7793" width="0.814299" height="0.807907" fill="white"/>
<rect x="58.2295" y="51.5874" width="0.814299" height="0.807907" fill="white"/>
<rect x="58.2295" y="52.395" width="0.814299" height="0.807907" fill="white"/>
<rect x="57.415" y="53.2031" width="0.814299" height="0.807907" fill="white"/>
<rect x="56.6006" y="54.0112" width="0.814299" height="0.807907" fill="white"/>
<rect x="55.7861" y="54.8193" width="0.814299" height="0.807907" fill="white"/>
<rect x="54.9727" y="55.6265" width="0.814299" height="0.807907" fill="white"/>
<rect x="54.1582" y="56.4346" width="0.814299" height="0.807907" fill="white"/>
<rect x="53.3438" y="57.2427" width="0.814299" height="0.807907" fill="white"/>
<rect x="52.5293" y="58.0513" width="0.814299" height="0.807907" fill="white"/>
<rect x="51.7148" y="58.8584" width="0.814299" height="0.807907" fill="white"/>
<rect x="50.0859" y="59.6665" width="0.814299" height="0.807907" fill="white"/>
<rect x="48.458" y="60.4736" width="0.814299" height="0.807907" fill="white"/>
<rect x="46.8291" y="61.2827" width="0.814299" height="0.807907" fill="white"/>
<rect x="44.3867" y="62.0903" width="0.814299" height="0.807907" fill="white"/>
<rect x="41.1289" y="62.8984" width="0.814299" height="0.807907" fill="white"/>
<rect x="37.0576" y="62.8984" width="0.814299" height="0.807907" fill="white"/>
<rect x="37.8721" y="62.8984" width="0.814299" height="0.807907" fill="white"/>
<rect x="38.6865" y="62.8984" width="0.814299" height="0.807907" fill="white"/>
<rect x="39.5" y="62.8984" width="0.814299" height="0.807907" fill="white"/>
<rect x="40.3145" y="62.8984" width="0.814299" height="0.807907" fill="white"/>
<rect x="41.9434" y="62.8984" width="0.814299" height="0.807907" fill="white"/>
<rect x="42.7578" y="62.8984" width="0.814299" height="0.807907" fill="white"/>
<rect x="43.5723" y="62.0903" width="0.814299" height="0.807907" fill="white"/>
<rect x="45.2002" y="62.0903" width="0.814299" height="0.807907" fill="white"/>
<rect x="46.0146" y="61.2827" width="0.814299" height="0.807907" fill="white"/>
<rect x="47.6436" y="61.2827" width="0.814299" height="0.807907" fill="white"/>
<rect x="49.2725" y="60.4736" width="0.814299" height="0.807907" fill="white"/>
<rect x="50.9004" y="58.8584" width="0.814299" height="0.807907" fill="white"/>
<rect x="11" y="37.853" width="0.814299" height="0.807907" fill="white"/>
<rect x="11" y="38.6611" width="0.814299" height="0.807907" fill="white"/>
<rect x="11" y="39.4688" width="0.814299" height="0.807907" fill="white"/>
<rect x="11" y="40.2769" width="0.814299" height="0.807907" fill="white"/>
<rect x="11" y="41.084" width="0.814299" height="0.807907" fill="white"/>
<rect x="11.8145" y="41.8931" width="0.814299" height="0.807907" fill="white"/>
<rect x="11.8145" y="42.7002" width="0.814299" height="0.807907" fill="white"/>
<rect x="11.8145" y="43.5088" width="0.814299" height="0.807907" fill="white"/>
<rect x="11.8145" y="44.3159" width="0.814299" height="0.807907" fill="white"/>
<rect x="12.6289" y="45.124" width="0.814299" height="0.807907" fill="white"/>
<rect x="12.6289" y="45.9321" width="0.814299" height="0.807907" fill="white"/>
<rect x="12.6289" y="46.7402" width="0.814299" height="0.807907" fill="white"/>
<rect x="13.4434" y="47.5474" width="0.814299" height="0.807907" fill="white"/>
<rect x="13.4434" y="48.356" width="0.814299" height="0.807907" fill="white"/>
<rect x="14.2568" y="49.1641" width="0.814299" height="0.807907" fill="white"/>
<rect x="14.2568" y="49.9722" width="0.814299" height="0.807907" fill="white"/>
<rect x="15.0713" y="50.7793" width="0.814299" height="0.807907" fill="white"/>
<rect x="15.0713" y="51.5874" width="0.814299" height="0.807907" fill="white"/>
<rect x="15.8857" y="52.395" width="0.814299" height="0.807907" fill="white"/>
<rect x="16.7002" y="53.2031" width="0.814299" height="0.807907" fill="white"/>
<rect x="17.5146" y="54.0112" width="0.814299" height="0.807907" fill="white"/>
<rect x="17.5146" y="54.8193" width="0.814299" height="0.807907" fill="white"/>
<rect x="18.3291" y="55.6265" width="0.814299" height="0.807907" fill="white"/>
<rect x="19.1426" y="56.4346" width="0.814299" height="0.807907" fill="white"/>
<rect x="20.7715" y="57.2427" width="0.814299" height="0.807907" fill="white"/>
<rect x="21.5859" y="58.0513" width="0.814299" height="0.807907" fill="white"/>
<rect x="22.4004" y="58.8584" width="0.814299" height="0.807907" fill="white"/>
<rect x="24.0283" y="59.6665" width="0.814299" height="0.807907" fill="white"/>
<rect x="25.6572" y="60.4736" width="0.814299" height="0.807907" fill="white"/>
<rect x="27.2861" y="61.2827" width="0.814299" height="0.807907" fill="white"/>
<rect x="29.7285" y="62.0903" width="0.814299" height="0.807907" fill="white"/>
<rect x="32.9863" y="62.8984" width="0.814299" height="0.807907" fill="white"/>
<rect x="19.957" y="56.4346" width="0.814299" height="0.807907" fill="white"/>
<rect x="23.2148" y="58.8584" width="0.814299" height="0.807907" fill="white"/>
<rect x="24.8428" y="60.4736" width="0.814299" height="0.807907" fill="white"/>
<rect x="26.4717" y="61.2827" width="0.814299" height="0.807907" fill="white"/>
<rect x="28.1006" y="61.2827" width="0.814299" height="0.807907" fill="white"/>
<rect x="28.915" y="62.0903" width="0.814299" height="0.807907" fill="white"/>
<rect x="30.543" y="62.0903" width="0.814299" height="0.807907" fill="white"/>
<rect x="31.3574" y="62.8984" width="0.814299" height="0.807907" fill="white"/>
<rect x="32.1719" y="62.8984" width="0.814299" height="0.807907" fill="white"/>
<rect x="33.8008" y="62.8984" width="0.814299" height="0.807907" fill="white"/>
<rect x="34.6143" y="62.8984" width="0.814299" height="0.807907" fill="white"/>
<rect x="35.4287" y="62.8984" width="0.814299" height="0.807907" fill="white"/>
<rect x="36.2432" y="62.8984" width="0.814299" height="0.807907" fill="white"/>
<rect x="34.6143" y="12" width="0.814299" height="0.807907" fill="white"/>
<rect x="29.7285" y="12.8081" width="0.814299" height="0.807907" fill="white"/>
<rect x="27.2861" y="13.6152" width="0.814299" height="0.807907" fill="white"/>
<rect x="25.6572" y="14.4233" width="0.814299" height="0.807907" fill="white"/>
<rect x="24.0283" y="15.2319" width="0.814299" height="0.807907" fill="white"/>
<rect x="23.2148" y="16.0391" width="0.814299" height="0.807907" fill="white"/>
<rect x="21.5859" y="16.8472" width="0.814299" height="0.807907" fill="white"/>
<rect x="20.7715" y="17.6553" width="0.814299" height="0.807907" fill="white"/>
<rect x="19.957" y="18.4634" width="0.814299" height="0.807907" fill="white"/>
<rect x="19.1426" y="19.2715" width="0.814299" height="0.807907" fill="white"/>
<rect x="18.3291" y="20.0791" width="0.814299" height="0.807907" fill="white"/>
<rect x="17.5146" y="20.8872" width="0.814299" height="0.807907" fill="white"/>
<rect x="16.7002" y="21.6943" width="0.814299" height="0.807907" fill="white"/>
<rect x="15.8857" y="22.5034" width="0.814299" height="0.807907" fill="white"/>
<rect x="15.0713" y="23.3105" width="0.814299" height="0.807907" fill="white"/>
<rect x="15.0713" y="24.1187" width="0.814299" height="0.807907" fill="white"/>
<rect x="14.2568" y="24.9263" width="0.814299" height="0.807907" fill="white"/>
<rect x="14.2568" y="25.7344" width="0.814299" height="0.807907" fill="white"/>
<rect x="13.4434" y="26.5425" width="0.814299" height="0.807907" fill="white"/>
<rect x="13.4434" y="27.3506" width="0.814299" height="0.807907" fill="white"/>
<rect x="12.6289" y="28.1577" width="0.814299" height="0.807907" fill="white"/>
<rect x="12.6289" y="28.9658" width="0.814299" height="0.807907" fill="white"/>
<rect x="12.6289" y="29.7744" width="0.814299" height="0.807907" fill="white"/>
<rect x="11.8145" y="30.5825" width="0.814299" height="0.807907" fill="white"/>
<rect x="11.8145" y="31.3896" width="0.814299" height="0.807907" fill="white"/>
<rect x="11.8145" y="32.1978" width="0.814299" height="0.807907" fill="white"/>
<rect x="11.8145" y="33.0049" width="0.814299" height="0.807907" fill="white"/>
<rect x="11" y="33.8135" width="0.814299" height="0.807907" fill="white"/>
<rect x="11" y="34.6216" width="0.814299" height="0.807907" fill="white"/>
<rect x="11" y="35.4297" width="0.814299" height="0.807907" fill="white"/>
<rect x="11" y="36.2368" width="0.814299" height="0.807907" fill="white"/>
<rect x="11" y="37.0449" width="0.814299" height="0.807907" fill="white"/>
<rect x="22.4004" y="16.0391" width="0.814299" height="0.807907" fill="white"/>
<rect x="24.8428" y="15.2319" width="0.814299" height="0.807907" fill="white"/>
<rect x="26.4717" y="14.4233" width="0.814299" height="0.807907" fill="white"/>
<rect x="28.1006" y="13.6152" width="0.814299" height="0.807907" fill="white"/>
<rect x="28.915" y="12.8081" width="0.814299" height="0.807907" fill="white"/>
<rect x="30.543" y="12.8081" width="0.814299" height="0.807907" fill="white"/>
<rect x="31.3574" y="12.8081" width="0.814299" height="0.807907" fill="white"/>
<rect x="32.1719" y="12" width="0.814299" height="0.807907" fill="white"/>
<rect x="32.9863" y="12" width="0.814299" height="0.807907" fill="white"/>
<rect x="33.8008" y="12" width="0.814299" height="0.807907" fill="white"/>
<rect x="35.4287" y="12" width="0.814299" height="0.807907" fill="white"/>
<rect x="36.2432" y="12" width="0.814299" height="0.807907" fill="white"/>
<rect x="37.0576" y="12" width="0.814299" height="0.807907" fill="white"/>
<rect x="39.5" y="12" width="0.814299" height="0.807907" fill="white"/>
<rect x="43.5723" y="12.8081" width="0.814299" height="0.807907" fill="white"/>
<rect x="46.0146" y="13.6152" width="0.814299" height="0.807907" fill="white"/>
<rect x="48.458" y="14.4233" width="0.814299" height="0.807907" fill="white"/>
<rect x="50.0859" y="15.2319" width="0.814299" height="0.807907" fill="white"/>
<rect x="50.9004" y="16.0391" width="0.814299" height="0.807907" fill="white"/>
<rect x="52.5293" y="16.8472" width="0.814299" height="0.807907" fill="white"/>
<rect x="53.3438" y="17.6553" width="0.814299" height="0.807907" fill="white"/>
<rect x="54.1582" y="18.4634" width="0.814299" height="0.807907" fill="white"/>
<rect x="54.9727" y="19.2715" width="0.814299" height="0.807907" fill="white"/>
<rect x="55.7861" y="20.0791" width="0.814299" height="0.807907" fill="white"/>
<rect x="56.6006" y="20.8872" width="0.814299" height="0.807907" fill="white"/>
<rect x="57.415" y="21.6943" width="0.814299" height="0.807907" fill="white"/>
<rect x="58.2295" y="22.5034" width="0.814299" height="0.807907" fill="white"/>
<rect x="58.2295" y="23.3105" width="0.814299" height="0.807907" fill="white"/>
<rect x="59.0439" y="24.1187" width="0.814299" height="0.807907" fill="white"/>
<rect x="59.8584" y="24.9263" width="0.814299" height="0.807907" fill="white"/>
<rect x="59.8584" y="25.7344" width="0.814299" height="0.807907" fill="white"/>
<rect x="60.6719" y="26.5425" width="0.814299" height="0.807907" fill="white"/>
<rect x="60.6719" y="27.3506" width="0.814299" height="0.807907" fill="white"/>
<rect x="60.6719" y="28.1577" width="0.814299" height="0.807907" fill="white"/>
<rect x="61.4863" y="28.9658" width="0.814299" height="0.807907" fill="white"/>
<rect x="61.4863" y="29.7744" width="0.814299" height="0.807907" fill="white"/>
<rect x="61.4863" y="30.5825" width="0.814299" height="0.807907" fill="white"/>
<rect x="62.3008" y="31.3896" width="0.814299" height="0.807907" fill="white"/>
<rect x="62.3008" y="32.1978" width="0.814299" height="0.807907" fill="white"/>
<rect x="62.3008" y="33.0049" width="0.814299" height="0.807907" fill="white"/>
<rect x="62.3008" y="33.8135" width="0.814299" height="0.807907" fill="white"/>
<rect x="62.3008" y="34.6216" width="0.814299" height="0.807907" fill="white"/>
<rect x="63.1152" y="35.4297" width="0.814299" height="0.807907" fill="white"/>
<rect x="63.1152" y="36.2368" width="0.814299" height="0.807907" fill="white"/>
<rect x="63.1152" y="37.0449" width="0.814299" height="0.807907" fill="white"/>
<rect x="37.8721" y="12" width="0.814299" height="0.807907" fill="white"/>
<rect x="38.6865" y="12" width="0.814299" height="0.807907" fill="white"/>
<rect x="40.3145" y="12" width="0.814299" height="0.807907" fill="white"/>
<rect x="41.1289" y="12" width="0.814299" height="0.807907" fill="white"/>
<rect x="41.9434" y="12" width="0.814299" height="0.807907" fill="white"/>
<rect x="42.7578" y="12.8081" width="0.814299" height="0.807907" fill="white"/>
<rect x="44.3867" y="12.8081" width="0.814299" height="0.807907" fill="white"/>
<rect x="45.2002" y="12.8081" width="0.814299" height="0.807907" fill="white"/>
<rect x="46.8291" y="13.6152" width="0.814299" height="0.807907" fill="white"/>
<rect x="47.6436" y="14.4233" width="0.814299" height="0.807907" fill="white"/>
<rect x="49.2725" y="15.2319" width="0.814299" height="0.807907" fill="white"/>
<rect x="51.7148" y="16.0391" width="0.814299" height="0.807907" fill="white"/>
<rect x="63.9297" y="37.853" width="0.814299" height="0.807907" fill="white"/>
<rect x="63.9297" y="38.6611" width="0.814299" height="0.807907" fill="white"/>
<rect x="63.9297" y="39.4688" width="0.814299" height="0.807907" fill="white"/>
<rect x="63.9297" y="40.2769" width="0.814299" height="0.807907" fill="white"/>
<rect x="63.1152" y="40.2769" width="0.814299" height="0.807907" fill="white"/>
<rect x="63.1152" y="41.084" width="0.814299" height="0.807907" fill="white"/>
<rect x="63.1152" y="41.8931" width="0.814299" height="0.807907" fill="white"/>
<rect x="63.1152" y="42.7002" width="0.814299" height="0.807907" fill="white"/>
<rect x="63.1152" y="43.5088" width="0.814299" height="0.807907" fill="white"/>
<rect x="63.1152" y="44.3159" width="0.814299" height="0.807907" fill="white"/>
<rect x="63.1152" y="45.124" width="0.814299" height="0.807907" fill="white"/>
<rect x="62.3008" y="45.124" width="0.814299" height="0.807907" fill="white"/>
<rect x="62.3008" y="45.9321" width="0.814299" height="0.807907" fill="white"/>
<rect x="62.3008" y="46.7402" width="0.814299" height="0.807907" fill="white"/>
<rect x="62.3008" y="47.5474" width="0.814299" height="0.807907" fill="white"/>
<rect x="61.4863" y="47.5474" width="0.814299" height="0.807907" fill="white"/>
<rect x="61.4863" y="48.356" width="0.814299" height="0.807907" fill="white"/>
<rect x="61.4863" y="49.1641" width="0.814299" height="0.807907" fill="white"/>
<rect x="60.6719" y="49.1641" width="0.814299" height="0.807907" fill="white"/>
<rect x="60.6719" y="49.9722" width="0.814299" height="0.807907" fill="white"/>
<rect x="60.6719" y="50.7793" width="0.814299" height="0.807907" fill="white"/>
<rect x="59.8584" y="50.7793" width="0.814299" height="0.807907" fill="white"/>
<rect x="59.8584" y="51.5874" width="0.814299" height="0.807907" fill="white"/>
<rect x="59.0439" y="51.5874" width="0.814299" height="0.807907" fill="white"/>
<rect x="59.0439" y="52.395" width="0.814299" height="0.807907" fill="white"/>
<rect x="59.0439" y="53.2031" width="0.814299" height="0.807907" fill="white"/>
<rect x="58.2295" y="53.2031" width="0.814299" height="0.807907" fill="white"/>
<rect x="58.2295" y="54.0112" width="0.814299" height="0.807907" fill="white"/>
<rect x="57.415" y="54.0112" width="0.814299" height="0.807907" fill="white"/>
<rect x="57.415" y="54.8193" width="0.814299" height="0.807907" fill="white"/>
<rect x="56.6006" y="54.8193" width="0.814299" height="0.807907" fill="white"/>
<rect x="56.6006" y="55.6265" width="0.814299" height="0.807907" fill="white"/>
<rect x="55.7861" y="55.6265" width="0.814299" height="0.807907" fill="white"/>
<rect x="55.7861" y="56.4346" width="0.814299" height="0.807907" fill="white"/>
<rect x="54.9727" y="56.4346" width="0.814299" height="0.807907" fill="white"/>
<rect x="54.9727" y="57.2427" width="0.814299" height="0.807907" fill="white"/>
<rect x="54.1582" y="57.2427" width="0.814299" height="0.807907" fill="white"/>
<rect x="54.1582" y="58.0513" width="0.814299" height="0.807907" fill="white"/>
<rect x="53.3438" y="58.0513" width="0.814299" height="0.807907" fill="white"/>
<rect x="53.3438" y="58.8584" width="0.814299" height="0.807907" fill="white"/>
<rect x="52.5293" y="58.8584" width="0.814299" height="0.807907" fill="white"/>
<rect x="52.5293" y="59.6665" width="0.814299" height="0.807907" fill="white"/>
<rect x="51.7148" y="59.6665" width="0.814299" height="0.807907" fill="white"/>
<rect x="50.0859" y="58.8584" width="0.814299" height="0.807907" fill="white"/>
<rect x="50.9004" y="59.6665" width="0.814299" height="0.807907" fill="white"/>
<rect x="50.9004" y="60.4736" width="0.814299" height="0.807907" fill="white"/>
<rect x="50.0859" y="60.4736" width="0.814299" height="0.807907" fill="white"/>
<rect x="49.2725" y="61.2827" width="0.814299" height="0.807907" fill="white"/>
<rect x="48.458" y="61.2827" width="0.814299" height="0.807907" fill="white"/>
<rect x="47.6436" y="62.0903" width="0.814299" height="0.807907" fill="white"/>
<rect x="46.8291" y="62.0903" width="0.814299" height="0.807907" fill="white"/>
<rect x="45.2002" y="62.8984" width="0.814299" height="0.807907" fill="white"/>
<rect x="44.3867" y="62.8984" width="0.814299" height="0.807907" fill="white"/>
<rect x="41.9434" y="63.7056" width="0.814299" height="0.807907" fill="white"/>
<rect x="41.1289" y="63.7056" width="0.814299" height="0.807907" fill="white"/>
<rect x="37.8721" y="63.7056" width="0.814299" height="0.807907" fill="white"/>
<rect x="37.0576" y="63.7056" width="0.814299" height="0.807907" fill="white"/>
<rect x="38.6865" y="63.7056" width="0.814299" height="0.807907" fill="white"/>
<rect x="39.5" y="63.7056" width="0.814299" height="0.807907" fill="white"/>
<rect x="40.3145" y="63.7056" width="0.814299" height="0.807907" fill="white"/>
<rect x="42.7578" y="63.7056" width="0.814299" height="0.807907" fill="white"/>
<rect x="43.5723" y="62.8984" width="0.814299" height="0.807907" fill="white"/>
<rect x="43.5723" y="63.7056" width="0.814299" height="0.807907" fill="white"/>
<rect x="46.0146" y="62.0903" width="0.814299" height="0.807907" fill="white"/>
<rect x="46.0146" y="62.8984" width="0.814299" height="0.807907" fill="white"/>
<rect x="48.458" y="62.0903" width="0.814299" height="0.807907" fill="white"/>
<rect x="50.0859" y="61.2827" width="0.814299" height="0.807907" fill="white"/>
<rect x="11.8145" y="37.853" width="0.814299" height="0.807907" fill="white"/>
<rect x="11.8145" y="38.6611" width="0.814299" height="0.807907" fill="white"/>
<rect x="11.8145" y="39.4688" width="0.814299" height="0.807907" fill="white"/>
<rect x="11.8145" y="40.2769" width="0.814299" height="0.807907" fill="white"/>
<rect x="11.8145" y="41.084" width="0.814299" height="0.807907" fill="white"/>
<rect x="11" y="41.8931" width="0.814299" height="0.807907" fill="white"/>
<rect x="12.6289" y="41.8931" width="0.814299" height="0.807907" fill="white"/>
<rect x="12.6289" y="42.7002" width="0.814299" height="0.807907" fill="white"/>
<rect x="12.6289" y="43.5088" width="0.814299" height="0.807907" fill="white"/>
<rect x="12.6289" y="44.3159" width="0.814299" height="0.807907" fill="white"/>
<rect x="11.8145" y="45.124" width="0.814299" height="0.807907" fill="white"/>
<rect x="13.4434" y="45.124" width="0.814299" height="0.807907" fill="white"/>
<rect x="13.4434" y="45.9321" width="0.814299" height="0.807907" fill="white"/>
<rect x="13.4434" y="46.7402" width="0.814299" height="0.807907" fill="white"/>
<rect x="12.6289" y="47.5474" width="0.814299" height="0.807907" fill="white"/>
<rect x="14.2568" y="47.5474" width="0.814299" height="0.807907" fill="white"/>
<rect x="14.2568" y="48.356" width="0.814299" height="0.807907" fill="white"/>
<rect x="13.4434" y="49.1641" width="0.814299" height="0.807907" fill="white"/>
<rect x="15.0713" y="49.1641" width="0.814299" height="0.807907" fill="white"/>
<rect x="15.0713" y="49.9722" width="0.814299" height="0.807907" fill="white"/>
<rect x="14.2568" y="50.7793" width="0.814299" height="0.807907" fill="white"/>
<rect x="15.8857" y="50.7793" width="0.814299" height="0.807907" fill="white"/>
<rect x="15.8857" y="51.5874" width="0.814299" height="0.807907" fill="white"/>
<rect x="15.0713" y="52.395" width="0.814299" height="0.807907" fill="white"/>
<rect x="16.7002" y="52.395" width="0.814299" height="0.807907" fill="white"/>
<rect x="15.8857" y="53.2031" width="0.814299" height="0.807907" fill="white"/>
<rect x="17.5146" y="53.2031" width="0.814299" height="0.807907" fill="white"/>
<rect x="16.7002" y="54.0112" width="0.814299" height="0.807907" fill="white"/>
<rect x="18.3291" y="54.0112" width="0.814299" height="0.807907" fill="white"/>
<rect x="18.3291" y="54.8193" width="0.814299" height="0.807907" fill="white"/>
<rect x="17.5146" y="55.6265" width="0.814299" height="0.807907" fill="white"/>
<rect x="19.1426" y="55.6265" width="0.814299" height="0.807907" fill="white"/>
<rect x="18.3291" y="56.4346" width="0.814299" height="0.807907" fill="white"/>
<rect x="19.957" y="57.2427" width="0.814299" height="0.807907" fill="white"/>
<rect x="19.1426" y="57.2427" width="0.814299" height="0.807907" fill="white"/>
<rect x="21.5859" y="57.2427" width="0.814299" height="0.807907" fill="white"/>
<rect x="20.7715" y="58.0513" width="0.814299" height="0.807907" fill="white"/>
<rect x="22.4004" y="58.0513" width="0.814299" height="0.807907" fill="white"/>
<rect x="21.5859" y="58.8584" width="0.814299" height="0.807907" fill="white"/>
<rect x="23.2148" y="59.6665" width="0.814299" height="0.807907" fill="white"/>
<rect x="22.4004" y="59.6665" width="0.814299" height="0.807907" fill="white"/>
<rect x="24.0283" y="58.8584" width="0.814299" height="0.807907" fill="white"/>
<rect x="24.8428" y="59.6665" width="0.814299" height="0.807907" fill="white"/>
<rect x="24.0283" y="60.4736" width="0.814299" height="0.807907" fill="white"/>
<rect x="26.4717" y="60.4736" width="0.814299" height="0.807907" fill="white"/>
<rect x="25.6572" y="61.2827" width="0.814299" height="0.807907" fill="white"/>
<rect x="28.1006" y="62.0903" width="0.814299" height="0.807907" fill="white"/>
<rect x="27.2861" y="62.0903" width="0.814299" height="0.807907" fill="white"/>
<rect x="30.543" y="62.8984" width="0.814299" height="0.807907" fill="white"/>
<rect x="29.7285" y="62.8984" width="0.814299" height="0.807907" fill="white"/>
<rect x="33.8008" y="63.7056" width="0.814299" height="0.807907" fill="white"/>
<rect x="32.9863" y="63.7056" width="0.814299" height="0.807907" fill="white"/>
<rect x="20.7715" y="56.4346" width="0.814299" height="0.807907" fill="white"/>
<rect x="24.8428" y="61.2827" width="0.814299" height="0.807907" fill="white"/>
<rect x="26.4717" y="62.0903" width="0.814299" height="0.807907" fill="white"/>
<rect x="28.915" y="61.2827" width="0.814299" height="0.807907" fill="white"/>
<rect x="28.915" y="62.8984" width="0.814299" height="0.807907" fill="white"/>
<rect x="31.3574" y="62.0903" width="0.814299" height="0.807907" fill="white"/>
<rect x="32.1719" y="63.7056" width="0.814299" height="0.807907" fill="white"/>
<rect x="31.3574" y="63.7056" width="0.814299" height="0.807907" fill="white"/>
<rect x="34.6143" y="63.7056" width="0.814299" height="0.807907" fill="white"/>
<rect x="35.4287" y="63.7056" width="0.814299" height="0.807907" fill="white"/>
<rect x="36.2432" y="63.7056" width="0.814299" height="0.807907" fill="white"/>
<rect x="35.4287" y="12.8081" width="0.814299" height="0.807907" fill="white"/>
<rect x="34.6143" y="12.8081" width="0.814299" height="0.807907" fill="white"/>
<rect x="30.543" y="13.6152" width="0.814299" height="0.807907" fill="white"/>
<rect x="29.7285" y="13.6152" width="0.814299" height="0.807907" fill="white"/>
<rect x="28.1006" y="14.4233" width="0.814299" height="0.807907" fill="white"/>
<rect x="27.2861" y="14.4233" width="0.814299" height="0.807907" fill="white"/>
<rect x="26.4717" y="15.2319" width="0.814299" height="0.807907" fill="white"/>
<rect x="25.6572" y="15.2319" width="0.814299" height="0.807907" fill="white"/>
<rect x="24.8428" y="16.0391" width="0.814299" height="0.807907" fill="white"/>
<rect x="24.0283" y="16.0391" width="0.814299" height="0.807907" fill="white"/>
<rect x="24.0283" y="16.8472" width="0.814299" height="0.807907" fill="white"/>
<rect x="23.2148" y="16.8472" width="0.814299" height="0.807907" fill="white"/>
<rect x="22.4004" y="16.8472" width="0.814299" height="0.807907" fill="white"/>
<rect x="22.4004" y="17.6553" width="0.814299" height="0.807907" fill="white"/>
<rect x="21.5859" y="17.6553" width="0.814299" height="0.807907" fill="white"/>
<rect x="21.5859" y="18.4634" width="0.814299" height="0.807907" fill="white"/>
<rect x="20.7715" y="18.4634" width="0.814299" height="0.807907" fill="white"/>
<rect x="19.957" y="17.6553" width="0.814299" height="0.807907" fill="white"/>
<rect x="20.7715" y="19.2715" width="0.814299" height="0.807907" fill="white"/>
<rect x="19.957" y="19.2715" width="0.814299" height="0.807907" fill="white"/>
<rect x="19.957" y="20.0791" width="0.814299" height="0.807907" fill="white"/>
<rect x="19.1426" y="20.0791" width="0.814299" height="0.807907" fill="white"/>
<rect x="19.1426" y="20.8872" width="0.814299" height="0.807907" fill="white"/>
<rect x="18.3291" y="20.8872" width="0.814299" height="0.807907" fill="white"/>
<rect x="18.3291" y="21.6943" width="0.814299" height="0.807907" fill="white"/>
<rect x="17.5146" y="21.6943" width="0.814299" height="0.807907" fill="white"/>
<rect x="17.5146" y="22.5034" width="0.814299" height="0.807907" fill="white"/>
<rect x="16.7002" y="22.5034" width="0.814299" height="0.807907" fill="white"/>
<rect x="16.7002" y="23.3105" width="0.814299" height="0.807907" fill="white"/>
<rect x="15.8857" y="23.3105" width="0.814299" height="0.807907" fill="white"/>
<rect x="15.8857" y="24.1187" width="0.814299" height="0.807907" fill="white"/>
<rect x="15.8857" y="24.9263" width="0.814299" height="0.807907" fill="white"/>
<rect x="15.0713" y="24.9263" width="0.814299" height="0.807907" fill="white"/>
<rect x="14.2568" y="24.1187" width="0.814299" height="0.807907" fill="white"/>
<rect x="15.0713" y="25.7344" width="0.814299" height="0.807907" fill="white"/>
<rect x="15.0713" y="26.5425" width="0.814299" height="0.807907" fill="white"/>
<rect x="14.2568" y="26.5425" width="0.814299" height="0.807907" fill="white"/>
<rect x="14.2568" y="27.3506" width="0.814299" height="0.807907" fill="white"/>
<rect x="14.2568" y="28.1577" width="0.814299" height="0.807907" fill="white"/>
<rect x="13.4434" y="28.1577" width="0.814299" height="0.807907" fill="white"/>
<rect x="13.4434" y="28.9658" width="0.814299" height="0.807907" fill="white"/>
<rect x="13.4434" y="29.7744" width="0.814299" height="0.807907" fill="white"/>
<rect x="13.4434" y="30.5825" width="0.814299" height="0.807907" fill="white"/>
<rect x="12.6289" y="30.5825" width="0.814299" height="0.807907" fill="white"/>
<rect x="12.6289" y="31.3896" width="0.814299" height="0.807907" fill="white"/>
<rect x="12.6289" y="32.1978" width="0.814299" height="0.807907" fill="white"/>
<rect x="12.6289" y="33.0049" width="0.814299" height="0.807907" fill="white"/>
<rect x="12.6289" y="33.8135" width="0.814299" height="0.807907" fill="white"/>
<rect x="11.8145" y="33.8135" width="0.814299" height="0.807907" fill="white"/>
<rect x="11.8145" y="34.6216" width="0.814299" height="0.807907" fill="white"/>
<rect x="11.8145" y="35.4297" width="0.814299" height="0.807907" fill="white"/>
<rect x="11.8145" y="36.2368" width="0.814299" height="0.807907" fill="white"/>
<rect x="11.8145" y="37.0449" width="0.814299" height="0.807907" fill="white"/>
<rect x="25.6572" y="16.0391" width="0.814299" height="0.807907" fill="white"/>
<rect x="27.2861" y="15.2319" width="0.814299" height="0.807907" fill="white"/>
<rect x="28.915" y="13.6152" width="0.814299" height="0.807907" fill="white"/>
<rect x="28.915" y="14.4233" width="0.814299" height="0.807907" fill="white"/>
<rect x="31.3574" y="13.6152" width="0.814299" height="0.807907" fill="white"/>
<rect x="32.1719" y="12.8081" width="0.814299" height="0.807907" fill="white"/>
<rect x="32.1719" y="13.6152" width="0.814299" height="0.807907" fill="white"/>
<rect x="32.9863" y="12.8081" width="0.814299" height="0.807907" fill="white"/>
<rect x="33.8008" y="12.8081" width="0.814299" height="0.807907" fill="white"/>
<rect x="36.2432" y="12.8081" width="0.814299" height="0.807907" fill="white"/>
<rect x="37.0576" y="12.8081" width="0.814299" height="0.807907" fill="white"/>
<rect x="37.8721" y="12.8081" width="0.814299" height="0.807907" fill="white"/>
<rect x="40.3145" y="12.8081" width="0.814299" height="0.807907" fill="white"/>
<rect x="39.5" y="12.8081" width="0.814299" height="0.807907" fill="white"/>
<rect x="44.3867" y="13.6152" width="0.814299" height="0.807907" fill="white"/>
<rect x="43.5723" y="13.6152" width="0.814299" height="0.807907" fill="white"/>
<rect x="46.8291" y="14.4233" width="0.814299" height="0.807907" fill="white"/>
<rect x="46.0146" y="14.4233" width="0.814299" height="0.807907" fill="white"/>
<rect x="49.2725" y="14.4233" width="0.814299" height="0.807907" fill="white"/>
<rect x="48.458" y="15.2319" width="0.814299" height="0.807907" fill="white"/>
<rect x="50.9004" y="15.2319" width="0.814299" height="0.807907" fill="white"/>
<rect x="50.0859" y="16.0391" width="0.814299" height="0.807907" fill="white"/>
<rect x="51.7148" y="16.8472" width="0.814299" height="0.807907" fill="white"/>
<rect x="50.9004" y="16.8472" width="0.814299" height="0.807907" fill="white"/>
<rect x="53.3438" y="16.8472" width="0.814299" height="0.807907" fill="white"/>
<rect x="52.5293" y="17.6553" width="0.814299" height="0.807907" fill="white"/>
<rect x="54.1582" y="17.6553" width="0.814299" height="0.807907" fill="white"/>
<rect x="53.3438" y="18.4634" width="0.814299" height="0.807907" fill="white"/>
<rect x="54.9727" y="18.4634" width="0.814299" height="0.807907" fill="white"/>
<rect x="54.1582" y="19.2715" width="0.814299" height="0.807907" fill="white"/>
<rect x="55.7861" y="19.2715" width="0.814299" height="0.807907" fill="white"/>
<rect x="54.9727" y="20.0791" width="0.814299" height="0.807907" fill="white"/>
<rect x="56.6006" y="20.0791" width="0.814299" height="0.807907" fill="white"/>
<rect x="55.7861" y="20.8872" width="0.814299" height="0.807907" fill="white"/>
<rect x="57.415" y="20.8872" width="0.814299" height="0.807907" fill="white"/>
<rect x="56.6006" y="21.6943" width="0.814299" height="0.807907" fill="white"/>
<rect x="58.2295" y="21.6943" width="0.814299" height="0.807907" fill="white"/>
<rect x="57.415" y="22.5034" width="0.814299" height="0.807907" fill="white"/>
<rect x="59.0439" y="22.5034" width="0.814299" height="0.807907" fill="white"/>
<rect x="59.0439" y="23.3105" width="0.814299" height="0.807907" fill="white"/>
<rect x="58.2295" y="24.1187" width="0.814299" height="0.807907" fill="white"/>
<rect x="59.8584" y="24.1187" width="0.814299" height="0.807907" fill="white"/>
<rect x="59.0439" y="24.9263" width="0.814299" height="0.807907" fill="white"/>
<rect x="60.6719" y="24.9263" width="0.814299" height="0.807907" fill="white"/>
<rect x="60.6719" y="25.7344" width="0.814299" height="0.807907" fill="white"/>
<rect x="59.8584" y="26.5425" width="0.814299" height="0.807907" fill="white"/>
<rect x="61.4863" y="26.5425" width="0.814299" height="0.807907" fill="white"/>
<rect x="61.4863" y="27.3506" width="0.814299" height="0.807907" fill="white"/>
<rect x="61.4863" y="28.1577" width="0.814299" height="0.807907" fill="white"/>
<rect x="60.6719" y="28.9658" width="0.814299" height="0.807907" fill="white"/>
<rect x="62.3008" y="28.9658" width="0.814299" height="0.807907" fill="white"/>
<rect x="62.3008" y="29.7744" width="0.814299" height="0.807907" fill="white"/>
<rect x="62.3008" y="30.5825" width="0.814299" height="0.807907" fill="white"/>
<rect x="61.4863" y="31.3896" width="0.814299" height="0.807907" fill="white"/>
<rect x="63.1152" y="31.3896" width="0.814299" height="0.807907" fill="white"/>
<rect x="63.1152" y="32.1978" width="0.814299" height="0.807907" fill="white"/>
<rect x="63.1152" y="33.0049" width="0.814299" height="0.807907" fill="white"/>
<rect x="63.1152" y="33.8135" width="0.814299" height="0.807907" fill="white"/>
<rect x="63.1152" y="34.6216" width="0.814299" height="0.807907" fill="white"/>
<rect x="62.3008" y="35.4297" width="0.814299" height="0.807907" fill="white"/>
<rect x="63.9297" y="35.4297" width="0.814299" height="0.807907" fill="white"/>
<rect x="63.9297" y="36.2368" width="0.814299" height="0.807907" fill="white"/>
<rect x="63.9297" y="37.0449" width="0.814299" height="0.807907" fill="white"/>
<rect x="38.6865" y="12.8081" width="0.814299" height="0.807907" fill="white"/>
<rect x="41.1289" y="12.8081" width="0.814299" height="0.807907" fill="white"/>
<rect x="41.9434" y="12.8081" width="0.814299" height="0.807907" fill="white"/>
<rect x="42.7578" y="12" width="0.814299" height="0.807907" fill="white"/>
<rect x="42.7578" y="13.6152" width="0.814299" height="0.807907" fill="white"/>
<rect x="45.2002" y="13.6152" width="0.814299" height="0.807907" fill="white"/>
<rect x="46.0146" y="12.8081" width="0.814299" height="0.807907" fill="white"/>
<rect x="47.6436" y="13.6152" width="0.814299" height="0.807907" fill="white"/>
<rect x="47.6436" y="15.2319" width="0.814299" height="0.807907" fill="white"/>
<rect x="49.2725" y="16.0391" width="0.814299" height="0.807907" fill="white"/>
<rect x="52.5293" y="16.0391" width="0.814299" height="0.807907" fill="white"/>
<path d="M50.3684 48.1353H42.988V47.7129C42.988 40.7033 42.9848 33.6938 42.9785 26.6843C42.9785 26.2975 43.0883 26.213 43.4611 26.2149C45.6411 26.2336 47.8136 26.228 50.0031 26.2149C50.2775 26.2149 50.3987 26.2599 50.3987 26.5772C50.3898 33.6656 50.3898 40.7528 50.3987 47.8387C50.3816 47.9194 50.3741 48.0077 50.3684 48.1353ZM47.8855 28.6989H45.4784V45.6814H47.8818L47.8855 28.6989Z" fill="white"/>
<path d="M40.5218 48.1426H33.1963V31.1338H40.5218V48.1426ZM35.6659 33.5821V45.6811H38.0522V33.5821H35.6659Z" fill="white"/>
<path d="M23.3594 48.1352V35.9912H30.7171V48.1334L23.3594 48.1352ZM25.8347 38.4471V45.67H28.2418V38.4471H25.8347Z" fill="white"/>
<path d="M23.3939 50.6099H50.3778C50.3778 51.3759 50.3778 52.1307 50.3626 52.8836C50.3626 52.9418 50.1412 53.0394 50.022 53.0413C48.4059 53.0507 46.7898 53.0413 45.1737 53.0413H23.8178C23.3371 53.0413 23.3352 53.0413 23.3371 52.5513C23.3371 51.9254 23.3409 51.3039 23.3485 50.6868C23.3485 50.6718 23.3712 50.6493 23.3939 50.6099Z" fill="white"/>
<path d="M73 30.25V18H85.25V30.25H81.75V19.75H76.5V30.25H73ZM99.25 23.25V28.5H97.5V30.25H90.5V32H87V21.5H90.5V23.25H92.25V25H90.5V28.5H95.75V23.25H92.25V21.5H97.5V23.25H99.25ZM102.75 30.25V28.5H101V23.25H102.75V21.5H111.5V23.25H113.25V28.5H111.5V30.25H102.75ZM104.5 28.5H109.75V23.25H104.5V28.5ZM116.75 30.25V21.5H127.25V25H125.5V23.25H120.25V30.25H116.75ZM141.25 23.25V28.5H139.5V30.25H132.5V32H129V21.5H132.5V23.25H134.25V25H132.5V28.5H137.75V23.25H134.25V21.5H139.5V23.25H141.25ZM144.75 30.25V28.5H143V26.75H144.75V25H151.75V23.25H144.75V21.5H153.5V23.25H155.25V30.25H144.75ZM146.5 28.5H151.75V26.75H146.5V28.5ZM162.25 23.25V25H160.5V30.25H157V21.5H160.5V23.25H162.25ZM169.25 21.5V30.25H165.75V25H164V23.25H165.75V21.5H169.25ZM162.25 25H164V28.5H162.25V25ZM176.25 23.25V25H174.5V30.25H171V21.5H174.5V23.25H176.25ZM183.25 21.5V30.25H179.75V25H178V23.25H179.75V21.5H183.25ZM176.25 25H178V28.5H176.25V25ZM185 30.25V21.5H188.5V25H192V30.25H185ZM193.75 30.25V21.5H197.25V30.25H193.75ZM188.5 28.5H190.25V26.75H188.5V28.5ZM73 44.25V35.5H85.25V44.25H81.75V37.25H76.5V44.25H73ZM88.75 44.25V42.5H87V37.25H88.75V35.5H97.5V37.25H99.25V42.5H97.5V44.25H88.75ZM90.5 42.5H95.75V37.25H90.5V42.5ZM113.25 42.5H115V46H111.5V44.25H104.5V46H101V42.5H102.75V40.75H104.5V35.5H113.25V42.5ZM106.25 42.5H109.75V37.25H106.25V42.5ZM127.25 42.5H129V46H125.5V44.25H118.5V46H115V42.5H116.75V40.75H118.5V35.5H127.25V42.5ZM120.25 42.5H123.75V37.25H120.25V42.5ZM130.75 44.25V42.5H129V37.25H130.75V35.5H139.5V37.25H141.25V40.75H132.5V42.5H139.5V44.25H130.75ZM132.5 39H137.75V37.25H132.5V39ZM155.25 37.25V42.5H153.5V44.25H146.5V46H143V35.5H146.5V37.25H148.25V39H146.5V42.5H151.75V37.25H148.25V35.5H153.5V37.25H155.25ZM157 44.25V40.75H158.75V39H157V35.5H160.5V39H162.25V35.5H164V39H165.75V35.5H169.25V39H167.5V40.75H169.25V44.25H165.75V40.75H164V44.25H162.25V40.75H160.5V44.25H157ZM178 37.25H179.75V39H181.5V40.75H183.25V44.25H179.75V40.75H174.5V44.25H171V35.5H174.5V39H178V37.25ZM183.25 35.5V37.25H179.75V35.5H183.25ZM188.5 40.75H190.25V42.5H188.5V44.25H185V35.5H188.5V40.75ZM197.25 35.5V44.25H193.75V39H192V37.25H193.75V35.5H197.25ZM190.25 39H192V40.75H190.25V39ZM73 58.25V49.5H76.5V53H81.75V49.5H85.25V58.25H81.75V54.75H76.5V58.25H73ZM88.75 58.25V56.5H87V54.75H88.75V53H95.75V51.25H88.75V49.5H97.5V51.25H99.25V58.25H88.75ZM90.5 56.5H95.75V54.75H90.5V56.5ZM102.75 58.25V56.5H101V51.25H102.75V49.5H111.5V51.25H113.25V53H109.75V51.25H104.5V56.5H109.75V54.75H113.25V56.5H111.5V58.25H102.75ZM116.75 58.25V56.5H115V51.25H116.75V49.5H125.5V51.25H127.25V54.75H118.5V56.5H125.5V58.25H116.75ZM118.5 53H123.75V51.25H118.5V53ZM141.25 49.5V58.25H137.75V51.25H134.25V56.5H132.5V58.25H129V54.75H130.75V53H132.5V49.5H141.25ZM144.75 58.25V56.5H143V51.25H144.75V49.5H153.5V51.25H155.25V54.75H146.5V56.5H153.5V58.25H144.75ZM146.5 53H151.75V51.25H146.5V53ZM157 58.25V49.5H160.5V53H165.75V49.5H169.25V58.25H165.75V54.75H160.5V58.25H157ZM174.5 54.75H176.25V56.5H174.5V58.25H171V49.5H174.5V54.75ZM183.25 49.5V58.25H179.75V53H178V51.25H179.75V49.5H183.25ZM176.25 53H178V54.75H176.25V53ZM185 58.25V54.75H186.75V53H185V51.25H186.75V49.5H197.25V58.25H193.75V54.75H188.5V58.25H185ZM188.5 53H193.75V51.25H188.5V53Z" fill="white"/>
</svg>
