<svg width="301" height="76" viewBox="0 0 301 76" fill="none" xmlns="http://www.w3.org/2000/svg">
<path d="M12.0227 75.9289V72.5729H6.1714L5.91529 69.1044C3.02906 68.4462 3.02906 68.4463 2.99951 64.954C2.99951 62.0487 2.76309 61.7878 0 61.266V14.6806C0.147759 14.5502 0.226564 14.4138 0.315219 14.4019C2.90593 14.0758 2.99951 13.9454 3.01429 10.6488C3.01429 9.54595 3.01429 8.44313 3.01429 7.23358L5.96947 7.06163L6.10738 3.5575H11.9291L12.1212 0H288.958L289.233 3.5575H295.031C295.085 4.82634 295.129 5.86394 295.188 7.115H298.104V10.6251C298.104 14.058 298.148 14.1055 301 14.5205V61.3609C298.183 61.8767 298.119 61.9538 298.114 65.6536C298.114 66.6379 298.114 67.6221 298.114 68.7783L295.218 69.0451C295.159 70.1716 295.104 71.2092 295.035 72.5077H289.253C289.164 73.7943 289.091 74.8201 289.002 76L12.0227 75.9289Z" fill="white"/>
<path d="M62.1152 38.853H62.9295V39.6609H62.1152V38.853Z" fill="#007D52"/>
<path d="M62.1152 39.6609H62.9295V40.4688H62.1152V39.6609Z" fill="#007D52"/>
<path d="M62.1152 40.4688H62.9295V41.2767H62.1152V40.4688Z" fill="#007D52"/>
<path d="M61.3009 41.2767H62.1152V42.0846H61.3009V41.2767Z" fill="#007D52"/>
<path d="M61.3009 42.0846H62.1152V42.8926H61.3009V42.0846Z" fill="#007D52"/>
<path d="M61.3009 42.8926H62.1152V43.7005H61.3009V42.8926Z" fill="#007D52"/>
<path d="M61.3009 43.7005H62.1152V44.5084H61.3009V43.7005Z" fill="#007D52"/>
<path d="M61.3009 44.5084H62.1152V45.3163H61.3009V44.5084Z" fill="#007D52"/>
<path d="M61.3009 45.3163H62.1152V46.1242H61.3009V45.3163Z" fill="#007D52"/>
<path d="M60.4866 46.1242H61.3009V46.9321H60.4866V46.1242Z" fill="#007D52"/>
<path d="M60.4866 46.9321H61.3009V47.74H60.4866V46.9321Z" fill="#007D52"/>
<path d="M60.4866 47.74H61.3009V48.5479H60.4866V47.74Z" fill="#007D52"/>
<path d="M59.6723 48.5479H60.4866V49.3558H59.6723V48.5479Z" fill="#007D52"/>
<path d="M59.6723 49.3558H60.4866V50.1637H59.6723V49.3558Z" fill="#007D52"/>
<path d="M58.858 50.1637H59.6723V50.9716H58.858V50.1637Z" fill="#007D52"/>
<path d="M58.858 50.9716H59.6723V51.7795H58.858V50.9716Z" fill="#007D52"/>
<path d="M58.0437 51.7795H58.858V52.5874H58.0437V51.7795Z" fill="#007D52"/>
<path d="M57.2294 52.5874H58.0437V53.3953H57.2294V52.5874Z" fill="#007D52"/>
<path d="M57.2294 53.3953H58.0437V54.2032H57.2294V53.3953Z" fill="#007D52"/>
<path d="M56.4151 54.2032H57.2294V55.0112H56.4151V54.2032Z" fill="#007D52"/>
<path d="M55.6008 55.0112H56.4151V55.8191H55.6008V55.0112Z" fill="#007D52"/>
<path d="M54.7865 55.8191H55.6008V56.627H54.7865V55.8191Z" fill="#007D52"/>
<path d="M53.9722 56.627H54.7865V57.4349H53.9722V56.627Z" fill="#007D52"/>
<path d="M53.1579 57.4349H53.9722V58.2428H53.1579V57.4349Z" fill="#007D52"/>
<path d="M52.3436 58.2428H53.1579V59.0507H52.3436V58.2428Z" fill="#007D52"/>
<path d="M51.5293 59.0507H52.3436V59.8586H51.5293V59.0507Z" fill="#007D52"/>
<path d="M50.715 59.8586H51.5293V60.6665H50.715V59.8586Z" fill="#007D52"/>
<path d="M49.0864 60.6665H49.9007V61.4744H49.0864V60.6665Z" fill="#007D52"/>
<path d="M47.4578 61.4744H48.2721V62.2823H47.4578V61.4744Z" fill="#007D52"/>
<path d="M45.8292 62.2823H46.6435V63.0902H45.8292V62.2823Z" fill="#007D52"/>
<path d="M43.3863 63.0902H44.2006V63.8981H43.3863V63.0902Z" fill="#007D52"/>
<path d="M40.1291 63.8981H40.9434V64.706H40.1291V63.8981Z" fill="#007D52"/>
<path d="M36.0576 63.8981H36.8719V64.706H36.0576V63.8981Z" fill="#007D52"/>
<path d="M36.8719 63.8981H37.6862V64.706H36.8719V63.8981Z" fill="#007D52"/>
<path d="M37.6862 63.8981H38.5005V64.706H37.6862V63.8981Z" fill="#007D52"/>
<path d="M38.5005 63.8981H39.3148V64.706H38.5005V63.8981Z" fill="#007D52"/>
<path d="M39.3148 63.8981H40.1291V64.706H39.3148V63.8981Z" fill="#007D52"/>
<path d="M40.9434 63.8981H41.7577V64.706H40.9434V63.8981Z" fill="#007D52"/>
<path d="M41.7577 63.8981H42.572V64.706H41.7577V63.8981Z" fill="#007D52"/>
<path d="M42.572 63.0902H43.3863V63.8981H42.572V63.0902Z" fill="#007D52"/>
<path d="M44.2006 63.0902H45.0149V63.8981H44.2006V63.0902Z" fill="#007D52"/>
<path d="M45.0149 62.2823H45.8292V63.0902H45.0149V62.2823Z" fill="#007D52"/>
<path d="M46.6435 62.2823H47.4578V63.0902H46.6435V62.2823Z" fill="#007D52"/>
<path d="M48.2721 61.4744H49.0864V62.2823H48.2721V61.4744Z" fill="#007D52"/>
<path d="M49.9007 59.8586H50.715V60.6665H49.9007V59.8586Z" fill="#007D52"/>
<path d="M10 38.853H10.8143V39.6609H10V38.853Z" fill="#007D52"/>
<path d="M10 39.6609H10.8143V40.4688H10V39.6609Z" fill="#007D52"/>
<path d="M10 40.4688H10.8143V41.2767H10V40.4688Z" fill="#007D52"/>
<path d="M10 41.2767H10.8143V42.0846H10V41.2767Z" fill="#007D52"/>
<path d="M10 42.0846H10.8143V42.8926H10V42.0846Z" fill="#007D52"/>
<path d="M10.8143 42.8926H11.6286V43.7005H10.8143V42.8926Z" fill="#007D52"/>
<path d="M10.8143 43.7005H11.6286V44.5084H10.8143V43.7005Z" fill="#007D52"/>
<path d="M10.8143 44.5084H11.6286V45.3163H10.8143V44.5084Z" fill="#007D52"/>
<path d="M10.8143 45.3163H11.6286V46.1242H10.8143V45.3163Z" fill="#007D52"/>
<path d="M11.6286 46.1242H12.4429V46.9321H11.6286V46.1242Z" fill="#007D52"/>
<path d="M11.6286 46.9321H12.4429V47.74H11.6286V46.9321Z" fill="#007D52"/>
<path d="M11.6286 47.74H12.4429V48.5479H11.6286V47.74Z" fill="#007D52"/>
<path d="M12.4429 48.5479H13.2572V49.3558H12.4429V48.5479Z" fill="#007D52"/>
<path d="M12.4429 49.3558H13.2572V50.1637H12.4429V49.3558Z" fill="#007D52"/>
<path d="M13.2572 50.1637H14.0715V50.9716H13.2572V50.1637Z" fill="#007D52"/>
<path d="M13.2572 50.9716H14.0715V51.7795H13.2572V50.9716Z" fill="#007D52"/>
<path d="M14.0715 51.7795H14.8858V52.5874H14.0715V51.7795Z" fill="#007D52"/>
<path d="M14.0715 52.5874H14.8858V53.3953H14.0715V52.5874Z" fill="#007D52"/>
<path d="M14.8858 53.3953H15.7001V54.2032H14.8858V53.3953Z" fill="#007D52"/>
<path d="M15.7001 54.2032H16.5144V55.0112H15.7001V54.2032Z" fill="#007D52"/>
<path d="M16.5144 55.0112H17.3287V55.8191H16.5144V55.0112Z" fill="#007D52"/>
<path d="M16.5144 55.8191H17.3287V56.627H16.5144V55.8191Z" fill="#007D52"/>
<path d="M17.3287 56.627H18.143V57.4349H17.3287V56.627Z" fill="#007D52"/>
<path d="M18.143 57.4349H18.9573V58.2428H18.143V57.4349Z" fill="#007D52"/>
<path d="M19.7716 58.2428H20.5859V59.0507H19.7716V58.2428Z" fill="#007D52"/>
<path d="M20.5859 59.0507H21.4002V59.8586H20.5859V59.0507Z" fill="#007D52"/>
<path d="M21.4002 59.8586H22.2145V60.6665H21.4002V59.8586Z" fill="#007D52"/>
<path d="M23.0288 60.6665H23.8431V61.4744H23.0288V60.6665Z" fill="#007D52"/>
<path d="M24.6574 61.4744H25.4717V62.2823H24.6574V61.4744Z" fill="#007D52"/>
<path d="M26.286 62.2823H27.1003V63.0902H26.286V62.2823Z" fill="#007D52"/>
<path d="M28.7289 63.0902H29.5432V63.8981H28.7289V63.0902Z" fill="#007D52"/>
<path d="M31.9861 63.8981H32.8004V64.706H31.9861V63.8981Z" fill="#007D52"/>
<path d="M18.9573 57.4349H19.7716V58.2428H18.9573V57.4349Z" fill="#007D52"/>
<path d="M22.2145 59.8586H23.0288V60.6665H22.2145V59.8586Z" fill="#007D52"/>
<path d="M23.8431 61.4744H24.6574V62.2823H23.8431V61.4744Z" fill="#007D52"/>
<path d="M25.4717 62.2823H26.286V63.0902H25.4717V62.2823Z" fill="#007D52"/>
<path d="M27.1003 62.2823H27.9146V63.0902H27.1003V62.2823Z" fill="#007D52"/>
<path d="M27.9146 63.0902H28.7289V63.8981H27.9146V63.0902Z" fill="#007D52"/>
<path d="M29.5432 63.0902H30.3575V63.8981H29.5432V63.0902Z" fill="#007D52"/>
<path d="M30.3575 63.8981H31.1718V64.706H30.3575V63.8981Z" fill="#007D52"/>
<path d="M31.1718 63.8981H31.9861V64.706H31.1718V63.8981Z" fill="#007D52"/>
<path d="M32.8004 63.8981H33.6147V64.706H32.8004V63.8981Z" fill="#007D52"/>
<path d="M33.6147 63.8981H34.429V64.706H33.6147V63.8981Z" fill="#007D52"/>
<path d="M34.429 63.8981H35.2433V64.706H34.429V63.8981Z" fill="#007D52"/>
<path d="M35.2433 63.8981H36.0576V64.706H35.2433V63.8981Z" fill="#007D52"/>
<path d="M33.6147 13H34.429V13.8079H33.6147V13Z" fill="#007D52"/>
<path d="M28.7289 13.8079H29.5432V14.6158H28.7289V13.8079Z" fill="#007D52"/>
<path d="M26.286 14.6158H27.1003V15.4237H26.286V14.6158Z" fill="#007D52"/>
<path d="M24.6574 15.4237H25.4717V16.2316H24.6574V15.4237Z" fill="#007D52"/>
<path d="M23.0288 16.2316H23.8431V17.0395H23.0288V16.2316Z" fill="#007D52"/>
<path d="M22.2145 17.0395H23.0288V17.8474H22.2145V17.0395Z" fill="#007D52"/>
<path d="M20.5859 17.8474H21.4002V18.6553H20.5859V17.8474Z" fill="#007D52"/>
<path d="M19.7716 18.6553H20.5859V19.4633H19.7716V18.6553Z" fill="#007D52"/>
<path d="M18.9573 19.4633H19.7716V20.2712H18.9573V19.4633Z" fill="#007D52"/>
<path d="M18.143 20.2712H18.9573V21.0791H18.143V20.2712Z" fill="#007D52"/>
<path d="M17.3287 21.0791H18.143V21.887H17.3287V21.0791Z" fill="#007D52"/>
<path d="M16.5144 21.887H17.3287V22.6949H16.5144V21.887Z" fill="#007D52"/>
<path d="M15.7001 22.6949H16.5144V23.5028H15.7001V22.6949Z" fill="#007D52"/>
<path d="M14.8858 23.5028H15.7001V24.3107H14.8858V23.5028Z" fill="#007D52"/>
<path d="M14.0715 24.3107H14.8858V25.1186H14.0715V24.3107Z" fill="#007D52"/>
<path d="M14.0715 25.1186H14.8858V25.9265H14.0715V25.1186Z" fill="#007D52"/>
<path d="M13.2572 25.9265H14.0715V26.7344H13.2572V25.9265Z" fill="#007D52"/>
<path d="M13.2572 26.7344H14.0715V27.5423H13.2572V26.7344Z" fill="#007D52"/>
<path d="M12.4429 27.5423H13.2572V28.3502H12.4429V27.5423Z" fill="#007D52"/>
<path d="M12.4429 28.3502H13.2572V29.1581H12.4429V28.3502Z" fill="#007D52"/>
<path d="M11.6286 29.1581H12.4429V29.966H11.6286V29.1581Z" fill="#007D52"/>
<path d="M11.6286 29.966H12.4429V30.774H11.6286V29.966Z" fill="#007D52"/>
<path d="M11.6286 30.774H12.4429V31.5819H11.6286V30.774Z" fill="#007D52"/>
<path d="M10.8143 31.5819H11.6286V32.3898H10.8143V31.5819Z" fill="#007D52"/>
<path d="M10.8143 32.3898H11.6286V33.1977H10.8143V32.3898Z" fill="#007D52"/>
<path d="M10.8143 33.1977H11.6286V34.0056H10.8143V33.1977Z" fill="#007D52"/>
<path d="M10.8143 34.0056H11.6286V34.8135H10.8143V34.0056Z" fill="#007D52"/>
<path d="M10 34.8135H10.8143V35.6214H10V34.8135Z" fill="#007D52"/>
<path d="M10 35.6214H10.8143V36.4293H10V35.6214Z" fill="#007D52"/>
<path d="M10 36.4293H10.8143V37.2372H10V36.4293Z" fill="#007D52"/>
<path d="M10 37.2372H10.8143V38.0451H10V37.2372Z" fill="#007D52"/>
<path d="M10 38.0451H10.8143V38.853H10V38.0451Z" fill="#007D52"/>
<path d="M21.4002 17.0395H22.2145V17.8474H21.4002V17.0395Z" fill="#007D52"/>
<path d="M23.8431 16.2316H24.6574V17.0395H23.8431V16.2316Z" fill="#007D52"/>
<path d="M25.4717 15.4237H26.286V16.2316H25.4717V15.4237Z" fill="#007D52"/>
<path d="M27.1003 14.6158H27.9146V15.4237H27.1003V14.6158Z" fill="#007D52"/>
<path d="M27.9146 13.8079H28.7289V14.6158H27.9146V13.8079Z" fill="#007D52"/>
<path d="M29.5432 13.8079H30.3575V14.6158H29.5432V13.8079Z" fill="#007D52"/>
<path d="M30.3575 13.8079H31.1718V14.6158H30.3575V13.8079Z" fill="#007D52"/>
<path d="M31.1718 13H31.9861V13.8079H31.1718V13Z" fill="#007D52"/>
<path d="M31.9861 13H32.8004V13.8079H31.9861V13Z" fill="#007D52"/>
<path d="M32.8004 13H33.6147V13.8079H32.8004V13Z" fill="#007D52"/>
<path d="M34.429 13H35.2433V13.8079H34.429V13Z" fill="#007D52"/>
<path d="M35.2433 13H36.0576V13.8079H35.2433V13Z" fill="#007D52"/>
<path d="M36.0576 13H36.8719V13.8079H36.0576V13Z" fill="#007D52"/>
<path d="M38.5005 13H39.3148V13.8079H38.5005V13Z" fill="#007D52"/>
<path d="M42.572 13.8079H43.3863V14.6158H42.572V13.8079Z" fill="#007D52"/>
<path d="M45.0149 14.6158H45.8292V15.4237H45.0149V14.6158Z" fill="#007D52"/>
<path d="M47.4578 15.4237H48.2721V16.2316H47.4578V15.4237Z" fill="#007D52"/>
<path d="M49.0864 16.2316H49.9007V17.0395H49.0864V16.2316Z" fill="#007D52"/>
<path d="M49.9007 17.0395H50.715V17.8474H49.9007V17.0395Z" fill="#007D52"/>
<path d="M51.5293 17.8474H52.3436V18.6553H51.5293V17.8474Z" fill="#007D52"/>
<path d="M52.3436 18.6553H53.1579V19.4633H52.3436V18.6553Z" fill="#007D52"/>
<path d="M53.1579 19.4633H53.9722V20.2712H53.1579V19.4633Z" fill="#007D52"/>
<path d="M53.9722 20.2712H54.7865V21.0791H53.9722V20.2712Z" fill="#007D52"/>
<path d="M54.7865 21.0791H55.6008V21.887H54.7865V21.0791Z" fill="#007D52"/>
<path d="M55.6008 21.887H56.4151V22.6949H55.6008V21.887Z" fill="#007D52"/>
<path d="M56.4151 22.6949H57.2294V23.5028H56.4151V22.6949Z" fill="#007D52"/>
<path d="M57.2294 23.5028H58.0437V24.3107H57.2294V23.5028Z" fill="#007D52"/>
<path d="M57.2294 24.3107H58.0437V25.1186H57.2294V24.3107Z" fill="#007D52"/>
<path d="M58.0437 25.1186H58.858V25.9265H58.0437V25.1186Z" fill="#007D52"/>
<path d="M58.858 25.9265H59.6723V26.7344H58.858V25.9265Z" fill="#007D52"/>
<path d="M58.858 26.7344H59.6723V27.5423H58.858V26.7344Z" fill="#007D52"/>
<path d="M59.6723 27.5423H60.4866V28.3502H59.6723V27.5423Z" fill="#007D52"/>
<path d="M59.6723 28.3502H60.4866V29.1581H59.6723V28.3502Z" fill="#007D52"/>
<path d="M59.6723 29.1581H60.4866V29.966H59.6723V29.1581Z" fill="#007D52"/>
<path d="M60.4866 29.966H61.3009V30.774H60.4866V29.966Z" fill="#007D52"/>
<path d="M60.4866 30.774H61.3009V31.5819H60.4866V30.774Z" fill="#007D52"/>
<path d="M60.4866 31.5819H61.3009V32.3898H60.4866V31.5819Z" fill="#007D52"/>
<path d="M61.3009 32.3898H62.1152V33.1977H61.3009V32.3898Z" fill="#007D52"/>
<path d="M61.3009 33.1977H62.1152V34.0056H61.3009V33.1977Z" fill="#007D52"/>
<path d="M61.3009 34.0056H62.1152V34.8135H61.3009V34.0056Z" fill="#007D52"/>
<path d="M61.3009 34.8135H62.1152V35.6214H61.3009V34.8135Z" fill="#007D52"/>
<path d="M61.3009 35.6214H62.1152V36.4293H61.3009V35.6214Z" fill="#007D52"/>
<path d="M62.1152 36.4293H62.9295V37.2372H62.1152V36.4293Z" fill="#007D52"/>
<path d="M62.1152 37.2372H62.9295V38.0451H62.1152V37.2372Z" fill="#007D52"/>
<path d="M62.1152 38.0451H62.9295V38.853H62.1152V38.0451Z" fill="#007D52"/>
<path d="M36.8719 13H37.6862V13.8079H36.8719V13Z" fill="#007D52"/>
<path d="M37.6862 13H38.5005V13.8079H37.6862V13Z" fill="#007D52"/>
<path d="M39.3148 13H40.1291V13.8079H39.3148V13Z" fill="#007D52"/>
<path d="M40.1291 13H40.9434V13.8079H40.1291V13Z" fill="#007D52"/>
<path d="M40.9434 13H41.7577V13.8079H40.9434V13Z" fill="#007D52"/>
<path d="M41.7577 13.8079H42.572V14.6158H41.7577V13.8079Z" fill="#007D52"/>
<path d="M43.3863 13.8079H44.2006V14.6158H43.3863V13.8079Z" fill="#007D52"/>
<path d="M44.2006 13.8079H45.0149V14.6158H44.2006V13.8079Z" fill="#007D52"/>
<path d="M45.8292 14.6158H46.6435V15.4237H45.8292V14.6158Z" fill="#007D52"/>
<path d="M46.6435 15.4237H47.4578V16.2316H46.6435V15.4237Z" fill="#007D52"/>
<path d="M48.2721 16.2316H49.0864V17.0395H48.2721V16.2316Z" fill="#007D52"/>
<path d="M50.715 17.0395H51.5293V17.8474H50.715V17.0395Z" fill="#007D52"/>
<rect x="62.1152" y="38.853" width="0.814299" height="0.807907" fill="#007D52"/>
<rect x="62.1152" y="39.6616" width="0.814299" height="0.807907" fill="#007D52"/>
<rect x="62.1152" y="40.4688" width="0.814299" height="0.807907" fill="#007D52"/>
<rect x="61.3008" y="41.2769" width="0.814299" height="0.807907" fill="#007D52"/>
<rect x="61.3008" y="42.084" width="0.814299" height="0.807907" fill="#007D52"/>
<rect x="61.3008" y="42.8931" width="0.814299" height="0.807907" fill="#007D52"/>
<rect x="61.3008" y="43.7007" width="0.814299" height="0.807907" fill="#007D52"/>
<rect x="61.3008" y="44.5088" width="0.814299" height="0.807907" fill="#007D52"/>
<rect x="61.3008" y="45.3159" width="0.814299" height="0.807907" fill="#007D52"/>
<rect x="60.4863" y="46.124" width="0.814299" height="0.807907" fill="#007D52"/>
<rect x="60.4863" y="46.9321" width="0.814299" height="0.807907" fill="#007D52"/>
<rect x="60.4863" y="47.7402" width="0.814299" height="0.807907" fill="#007D52"/>
<rect x="59.6719" y="48.5479" width="0.814299" height="0.807907" fill="#007D52"/>
<rect x="59.6719" y="49.356" width="0.814299" height="0.807907" fill="#007D52"/>
<rect x="58.8584" y="50.1641" width="0.814299" height="0.807907" fill="#007D52"/>
<rect x="58.8584" y="50.9722" width="0.814299" height="0.807907" fill="#007D52"/>
<rect x="58.0439" y="51.7793" width="0.814299" height="0.807907" fill="#007D52"/>
<rect x="57.2295" y="52.5874" width="0.814299" height="0.807907" fill="#007D52"/>
<rect x="57.2295" y="53.395" width="0.814299" height="0.807907" fill="#007D52"/>
<rect x="56.415" y="54.2031" width="0.814299" height="0.807907" fill="#007D52"/>
<rect x="55.6006" y="55.0112" width="0.814299" height="0.807907" fill="#007D52"/>
<rect x="54.7861" y="55.8193" width="0.814299" height="0.807907" fill="#007D52"/>
<rect x="53.9727" y="56.6265" width="0.814299" height="0.807907" fill="#007D52"/>
<rect x="53.1582" y="57.4346" width="0.814299" height="0.807907" fill="#007D52"/>
<rect x="52.3438" y="58.2432" width="0.814299" height="0.807907" fill="#007D52"/>
<rect x="51.5293" y="59.0513" width="0.814299" height="0.807907" fill="#007D52"/>
<rect x="50.7148" y="59.8584" width="0.814299" height="0.807907" fill="#007D52"/>
<rect x="49.0859" y="60.6665" width="0.814299" height="0.807907" fill="#007D52"/>
<rect x="47.458" y="61.4736" width="0.814299" height="0.807907" fill="#007D52"/>
<rect x="45.8291" y="62.2827" width="0.814299" height="0.807907" fill="#007D52"/>
<rect x="43.3867" y="63.0903" width="0.814299" height="0.807907" fill="#007D52"/>
<rect x="40.1289" y="63.8984" width="0.814299" height="0.807907" fill="#007D52"/>
<rect x="36.0576" y="63.8984" width="0.814299" height="0.807907" fill="#007D52"/>
<rect x="36.8721" y="63.8984" width="0.814299" height="0.807907" fill="#007D52"/>
<rect x="37.6865" y="63.8984" width="0.814299" height="0.807907" fill="#007D52"/>
<rect x="38.501" y="63.8984" width="0.814299" height="0.807907" fill="#007D52"/>
<rect x="39.3145" y="63.8984" width="0.814299" height="0.807907" fill="#007D52"/>
<rect x="40.9434" y="63.8984" width="0.814299" height="0.807907" fill="#007D52"/>
<rect x="41.7578" y="63.8984" width="0.814299" height="0.807907" fill="#007D52"/>
<rect x="42.5723" y="63.0903" width="0.814299" height="0.807907" fill="#007D52"/>
<rect x="44.2002" y="63.0903" width="0.814299" height="0.807907" fill="#007D52"/>
<rect x="45.0146" y="62.2827" width="0.814299" height="0.807907" fill="#007D52"/>
<rect x="46.6436" y="62.2827" width="0.814299" height="0.807907" fill="#007D52"/>
<rect x="48.2725" y="61.4736" width="0.814299" height="0.807907" fill="#007D52"/>
<rect x="49.9004" y="59.8584" width="0.814299" height="0.807907" fill="#007D52"/>
<rect x="10" y="38.853" width="0.814299" height="0.807907" fill="#007D52"/>
<rect x="10" y="39.6616" width="0.814299" height="0.807907" fill="#007D52"/>
<rect x="10" y="40.4688" width="0.814299" height="0.807907" fill="#007D52"/>
<rect x="10" y="41.2769" width="0.814299" height="0.807907" fill="#007D52"/>
<rect x="10" y="42.084" width="0.814299" height="0.807907" fill="#007D52"/>
<rect x="10.8145" y="42.8931" width="0.814299" height="0.807907" fill="#007D52"/>
<rect x="10.8145" y="43.7007" width="0.814299" height="0.807907" fill="#007D52"/>
<rect x="10.8145" y="44.5088" width="0.814299" height="0.807907" fill="#007D52"/>
<rect x="10.8145" y="45.3159" width="0.814299" height="0.807907" fill="#007D52"/>
<rect x="11.6289" y="46.124" width="0.814299" height="0.807907" fill="#007D52"/>
<rect x="11.6289" y="46.9321" width="0.814299" height="0.807907" fill="#007D52"/>
<rect x="11.6289" y="47.7402" width="0.814299" height="0.807907" fill="#007D52"/>
<rect x="12.4434" y="48.5479" width="0.814299" height="0.807907" fill="#007D52"/>
<rect x="12.4434" y="49.356" width="0.814299" height="0.807907" fill="#007D52"/>
<rect x="13.2568" y="50.1641" width="0.814299" height="0.807907" fill="#007D52"/>
<rect x="13.2568" y="50.9722" width="0.814299" height="0.807907" fill="#007D52"/>
<rect x="14.0713" y="51.7793" width="0.814299" height="0.807907" fill="#007D52"/>
<rect x="14.0713" y="52.5874" width="0.814299" height="0.807907" fill="#007D52"/>
<rect x="14.8857" y="53.395" width="0.814299" height="0.807907" fill="#007D52"/>
<rect x="15.7002" y="54.2031" width="0.814299" height="0.807907" fill="#007D52"/>
<rect x="16.5146" y="55.0112" width="0.814299" height="0.807907" fill="#007D52"/>
<rect x="16.5146" y="55.8193" width="0.814299" height="0.807907" fill="#007D52"/>
<rect x="17.3291" y="56.6265" width="0.814299" height="0.807907" fill="#007D52"/>
<rect x="18.1426" y="57.4346" width="0.814299" height="0.807907" fill="#007D52"/>
<rect x="19.7715" y="58.2432" width="0.814299" height="0.807907" fill="#007D52"/>
<rect x="20.5859" y="59.0513" width="0.814299" height="0.807907" fill="#007D52"/>
<rect x="21.4004" y="59.8584" width="0.814299" height="0.807907" fill="#007D52"/>
<rect x="23.0283" y="60.6665" width="0.814299" height="0.807907" fill="#007D52"/>
<rect x="24.6572" y="61.4736" width="0.814299" height="0.807907" fill="#007D52"/>
<rect x="26.2861" y="62.2827" width="0.814299" height="0.807907" fill="#007D52"/>
<rect x="28.7295" y="63.0903" width="0.814299" height="0.807907" fill="#007D52"/>
<rect x="31.9863" y="63.8984" width="0.814299" height="0.807907" fill="#007D52"/>
<rect x="18.957" y="57.4346" width="0.814299" height="0.807907" fill="#007D52"/>
<rect x="22.2148" y="59.8584" width="0.814299" height="0.807907" fill="#007D52"/>
<rect x="23.8428" y="61.4736" width="0.814299" height="0.807907" fill="#007D52"/>
<rect x="25.4717" y="62.2827" width="0.814299" height="0.807907" fill="#007D52"/>
<rect x="27.1006" y="62.2827" width="0.814299" height="0.807907" fill="#007D52"/>
<rect x="27.915" y="63.0903" width="0.814299" height="0.807907" fill="#007D52"/>
<rect x="29.543" y="63.0903" width="0.814299" height="0.807907" fill="#007D52"/>
<rect x="30.3574" y="63.8984" width="0.814299" height="0.807907" fill="#007D52"/>
<rect x="31.1719" y="63.8984" width="0.814299" height="0.807907" fill="#007D52"/>
<rect x="32.8008" y="63.8984" width="0.814299" height="0.807907" fill="#007D52"/>
<rect x="33.6143" y="63.8984" width="0.814299" height="0.807907" fill="#007D52"/>
<rect x="34.4287" y="63.8984" width="0.814299" height="0.807907" fill="#007D52"/>
<rect x="35.2432" y="63.8984" width="0.814299" height="0.807907" fill="#007D52"/>
<rect x="33.6143" y="13" width="0.814299" height="0.807907" fill="#007D52"/>
<rect x="28.7295" y="13.8081" width="0.814299" height="0.807907" fill="#007D52"/>
<rect x="26.2861" y="14.6152" width="0.814299" height="0.807907" fill="#007D52"/>
<rect x="24.6572" y="15.4238" width="0.814299" height="0.807907" fill="#007D52"/>
<rect x="23.0283" y="16.2319" width="0.814299" height="0.807907" fill="#007D52"/>
<rect x="22.2148" y="17.04" width="0.814299" height="0.807907" fill="#007D52"/>
<rect x="20.5859" y="17.8472" width="0.814299" height="0.807907" fill="#007D52"/>
<rect x="19.7715" y="18.6553" width="0.814299" height="0.807907" fill="#007D52"/>
<rect x="18.957" y="19.4634" width="0.814299" height="0.807907" fill="#007D52"/>
<rect x="18.1426" y="20.2715" width="0.814299" height="0.807907" fill="#007D52"/>
<rect x="17.3291" y="21.0791" width="0.814299" height="0.807907" fill="#007D52"/>
<rect x="16.5146" y="21.8872" width="0.814299" height="0.807907" fill="#007D52"/>
<rect x="15.7002" y="22.6943" width="0.814299" height="0.807907" fill="#007D52"/>
<rect x="14.8857" y="23.5034" width="0.814299" height="0.807907" fill="#007D52"/>
<rect x="14.0713" y="24.3105" width="0.814299" height="0.807907" fill="#007D52"/>
<rect x="14.0713" y="25.1191" width="0.814299" height="0.807907" fill="#007D52"/>
<rect x="13.2568" y="25.9263" width="0.814299" height="0.807907" fill="#007D52"/>
<rect x="13.2568" y="26.7344" width="0.814299" height="0.807907" fill="#007D52"/>
<rect x="12.4434" y="27.5425" width="0.814299" height="0.807907" fill="#007D52"/>
<rect x="12.4434" y="28.3506" width="0.814299" height="0.807907" fill="#007D52"/>
<rect x="11.6289" y="29.1577" width="0.814299" height="0.807907" fill="#007D52"/>
<rect x="11.6289" y="29.9663" width="0.814299" height="0.807907" fill="#007D52"/>
<rect x="11.6289" y="30.7744" width="0.814299" height="0.807907" fill="#007D52"/>
<rect x="10.8145" y="31.5825" width="0.814299" height="0.807907" fill="#007D52"/>
<rect x="10.8145" y="32.3896" width="0.814299" height="0.807907" fill="#007D52"/>
<rect x="10.8145" y="33.1978" width="0.814299" height="0.807907" fill="#007D52"/>
<rect x="10.8145" y="34.0054" width="0.814299" height="0.807907" fill="#007D52"/>
<rect x="10" y="34.8135" width="0.814299" height="0.807907" fill="#007D52"/>
<rect x="10" y="35.6216" width="0.814299" height="0.807907" fill="#007D52"/>
<rect x="10" y="36.4297" width="0.814299" height="0.807907" fill="#007D52"/>
<rect x="10" y="37.2368" width="0.814299" height="0.807907" fill="#007D52"/>
<rect x="10" y="38.0449" width="0.814299" height="0.807907" fill="#007D52"/>
<rect x="21.4004" y="17.04" width="0.814299" height="0.807907" fill="#007D52"/>
<rect x="23.8428" y="16.2319" width="0.814299" height="0.807907" fill="#007D52"/>
<rect x="25.4717" y="15.4238" width="0.814299" height="0.807907" fill="#007D52"/>
<rect x="27.1006" y="14.6152" width="0.814299" height="0.807907" fill="#007D52"/>
<rect x="27.915" y="13.8081" width="0.814299" height="0.807907" fill="#007D52"/>
<rect x="29.543" y="13.8081" width="0.814299" height="0.807907" fill="#007D52"/>
<rect x="30.3574" y="13.8081" width="0.814299" height="0.807907" fill="#007D52"/>
<rect x="31.1719" y="13" width="0.814299" height="0.807907" fill="#007D52"/>
<rect x="31.9863" y="13" width="0.814299" height="0.807907" fill="#007D52"/>
<rect x="32.8008" y="13" width="0.814299" height="0.807907" fill="#007D52"/>
<rect x="34.4287" y="13" width="0.814299" height="0.807907" fill="#007D52"/>
<rect x="35.2432" y="13" width="0.814299" height="0.807907" fill="#007D52"/>
<rect x="36.0576" y="13" width="0.814299" height="0.807907" fill="#007D52"/>
<rect x="38.501" y="13" width="0.814299" height="0.807907" fill="#007D52"/>
<rect x="42.5723" y="13.8081" width="0.814299" height="0.807907" fill="#007D52"/>
<rect x="45.0146" y="14.6152" width="0.814299" height="0.807907" fill="#007D52"/>
<rect x="47.458" y="15.4238" width="0.814299" height="0.807907" fill="#007D52"/>
<rect x="49.0859" y="16.2319" width="0.814299" height="0.807907" fill="#007D52"/>
<rect x="49.9004" y="17.04" width="0.814299" height="0.807907" fill="#007D52"/>
<rect x="51.5293" y="17.8472" width="0.814299" height="0.807907" fill="#007D52"/>
<rect x="52.3438" y="18.6553" width="0.814299" height="0.807907" fill="#007D52"/>
<rect x="53.1582" y="19.4634" width="0.814299" height="0.807907" fill="#007D52"/>
<rect x="53.9727" y="20.2715" width="0.814299" height="0.807907" fill="#007D52"/>
<rect x="54.7861" y="21.0791" width="0.814299" height="0.807907" fill="#007D52"/>
<rect x="55.6006" y="21.8872" width="0.814299" height="0.807907" fill="#007D52"/>
<rect x="56.415" y="22.6943" width="0.814299" height="0.807907" fill="#007D52"/>
<rect x="57.2295" y="23.5034" width="0.814299" height="0.807907" fill="#007D52"/>
<rect x="57.2295" y="24.3105" width="0.814299" height="0.807907" fill="#007D52"/>
<rect x="58.0439" y="25.1191" width="0.814299" height="0.807907" fill="#007D52"/>
<rect x="58.8584" y="25.9263" width="0.814299" height="0.807907" fill="#007D52"/>
<rect x="58.8584" y="26.7344" width="0.814299" height="0.807907" fill="#007D52"/>
<rect x="59.6719" y="27.5425" width="0.814299" height="0.807907" fill="#007D52"/>
<rect x="59.6719" y="28.3506" width="0.814299" height="0.807907" fill="#007D52"/>
<rect x="59.6719" y="29.1577" width="0.814299" height="0.807907" fill="#007D52"/>
<rect x="60.4863" y="29.9663" width="0.814299" height="0.807907" fill="#007D52"/>
<rect x="60.4863" y="30.7744" width="0.814299" height="0.807907" fill="#007D52"/>
<rect x="60.4863" y="31.5825" width="0.814299" height="0.807907" fill="#007D52"/>
<rect x="61.3008" y="32.3896" width="0.814299" height="0.807907" fill="#007D52"/>
<rect x="61.3008" y="33.1978" width="0.814299" height="0.807907" fill="#007D52"/>
<rect x="61.3008" y="34.0054" width="0.814299" height="0.807907" fill="#007D52"/>
<rect x="61.3008" y="34.8135" width="0.814299" height="0.807907" fill="#007D52"/>
<rect x="61.3008" y="35.6216" width="0.814299" height="0.807907" fill="#007D52"/>
<rect x="62.1152" y="36.4297" width="0.814299" height="0.807907" fill="#007D52"/>
<rect x="62.1152" y="37.2368" width="0.814299" height="0.807907" fill="#007D52"/>
<rect x="62.1152" y="38.0449" width="0.814299" height="0.807907" fill="#007D52"/>
<rect x="36.8721" y="13" width="0.814299" height="0.807907" fill="#007D52"/>
<rect x="37.6865" y="13" width="0.814299" height="0.807907" fill="#007D52"/>
<rect x="39.3145" y="13" width="0.814299" height="0.807907" fill="#007D52"/>
<rect x="40.1289" y="13" width="0.814299" height="0.807907" fill="#007D52"/>
<rect x="40.9434" y="13" width="0.814299" height="0.807907" fill="#007D52"/>
<rect x="41.7578" y="13.8081" width="0.814299" height="0.807907" fill="#007D52"/>
<rect x="43.3867" y="13.8081" width="0.814299" height="0.807907" fill="#007D52"/>
<rect x="44.2002" y="13.8081" width="0.814299" height="0.807907" fill="#007D52"/>
<rect x="45.8291" y="14.6152" width="0.814299" height="0.807907" fill="#007D52"/>
<rect x="46.6436" y="15.4238" width="0.814299" height="0.807907" fill="#007D52"/>
<rect x="48.2725" y="16.2319" width="0.814299" height="0.807907" fill="#007D52"/>
<rect x="50.7148" y="17.04" width="0.814299" height="0.807907" fill="#007D52"/>
<rect x="62.9297" y="38.853" width="0.814299" height="0.807907" fill="#007D52"/>
<rect x="62.9297" y="39.6616" width="0.814299" height="0.807907" fill="#007D52"/>
<rect x="62.9297" y="40.4688" width="0.814299" height="0.807907" fill="#007D52"/>
<rect x="62.9297" y="41.2769" width="0.814299" height="0.807907" fill="#007D52"/>
<rect x="62.1152" y="41.2769" width="0.814299" height="0.807907" fill="#007D52"/>
<rect x="62.1152" y="42.084" width="0.814299" height="0.807907" fill="#007D52"/>
<rect x="62.1152" y="42.8931" width="0.814299" height="0.807907" fill="#007D52"/>
<rect x="62.1152" y="43.7007" width="0.814299" height="0.807907" fill="#007D52"/>
<rect x="62.1152" y="44.5088" width="0.814299" height="0.807907" fill="#007D52"/>
<rect x="62.1152" y="45.3159" width="0.814299" height="0.807907" fill="#007D52"/>
<rect x="62.1152" y="46.124" width="0.814299" height="0.807907" fill="#007D52"/>
<rect x="61.3008" y="46.124" width="0.814299" height="0.807907" fill="#007D52"/>
<rect x="61.3008" y="46.9321" width="0.814299" height="0.807907" fill="#007D52"/>
<rect x="61.3008" y="47.7402" width="0.814299" height="0.807907" fill="#007D52"/>
<rect x="61.3008" y="48.5479" width="0.814299" height="0.807907" fill="#007D52"/>
<rect x="60.4863" y="48.5479" width="0.814299" height="0.807907" fill="#007D52"/>
<rect x="60.4863" y="49.356" width="0.814299" height="0.807907" fill="#007D52"/>
<rect x="60.4863" y="50.1641" width="0.814299" height="0.807907" fill="#007D52"/>
<rect x="59.6719" y="50.1641" width="0.814299" height="0.807907" fill="#007D52"/>
<rect x="59.6719" y="50.9722" width="0.814299" height="0.807907" fill="#007D52"/>
<rect x="59.6719" y="51.7793" width="0.814299" height="0.807907" fill="#007D52"/>
<rect x="58.8584" y="51.7793" width="0.814299" height="0.807907" fill="#007D52"/>
<rect x="58.8584" y="52.5874" width="0.814299" height="0.807907" fill="#007D52"/>
<rect x="58.0439" y="52.5874" width="0.814299" height="0.807907" fill="#007D52"/>
<rect x="58.0439" y="53.395" width="0.814299" height="0.807907" fill="#007D52"/>
<rect x="58.0439" y="54.2031" width="0.814299" height="0.807907" fill="#007D52"/>
<rect x="57.2295" y="54.2031" width="0.814299" height="0.807907" fill="#007D52"/>
<rect x="57.2295" y="55.0112" width="0.814299" height="0.807907" fill="#007D52"/>
<rect x="56.415" y="55.0112" width="0.814299" height="0.807907" fill="#007D52"/>
<rect x="56.415" y="55.8193" width="0.814299" height="0.807907" fill="#007D52"/>
<rect x="55.6006" y="55.8193" width="0.814299" height="0.807907" fill="#007D52"/>
<rect x="55.6006" y="56.6265" width="0.814299" height="0.807907" fill="#007D52"/>
<rect x="54.7861" y="56.6265" width="0.814299" height="0.807907" fill="#007D52"/>
<rect x="54.7861" y="57.4346" width="0.814299" height="0.807907" fill="#007D52"/>
<rect x="53.9727" y="57.4346" width="0.814299" height="0.807907" fill="#007D52"/>
<rect x="53.9727" y="58.2432" width="0.814299" height="0.807907" fill="#007D52"/>
<rect x="53.1582" y="58.2432" width="0.814299" height="0.807907" fill="#007D52"/>
<rect x="53.1582" y="59.0513" width="0.814299" height="0.807907" fill="#007D52"/>
<rect x="52.3438" y="59.0513" width="0.814299" height="0.807907" fill="#007D52"/>
<rect x="52.3438" y="59.8584" width="0.814299" height="0.807907" fill="#007D52"/>
<rect x="51.5293" y="59.8584" width="0.814299" height="0.807907" fill="#007D52"/>
<rect x="51.5293" y="60.6665" width="0.814299" height="0.807907" fill="#007D52"/>
<rect x="50.7148" y="60.6665" width="0.814299" height="0.807907" fill="#007D52"/>
<rect x="49.0859" y="59.8584" width="0.814299" height="0.807907" fill="#007D52"/>
<rect x="49.9004" y="60.6665" width="0.814299" height="0.807907" fill="#007D52"/>
<rect x="49.9004" y="61.4736" width="0.814299" height="0.807907" fill="#007D52"/>
<rect x="49.0859" y="61.4736" width="0.814299" height="0.807907" fill="#007D52"/>
<rect x="48.2725" y="62.2827" width="0.814299" height="0.807907" fill="#007D52"/>
<rect x="47.458" y="62.2827" width="0.814299" height="0.807907" fill="#007D52"/>
<rect x="46.6436" y="63.0903" width="0.814299" height="0.807907" fill="#007D52"/>
<rect x="45.8291" y="63.0903" width="0.814299" height="0.807907" fill="#007D52"/>
<rect x="44.2002" y="63.8984" width="0.814299" height="0.807907" fill="#007D52"/>
<rect x="43.3867" y="63.8984" width="0.814299" height="0.807907" fill="#007D52"/>
<rect x="40.9434" y="64.7056" width="0.814299" height="0.807907" fill="#007D52"/>
<rect x="40.1289" y="64.7056" width="0.814299" height="0.807907" fill="#007D52"/>
<rect x="36.8721" y="64.7056" width="0.814299" height="0.807907" fill="#007D52"/>
<rect x="36.0576" y="64.7056" width="0.814299" height="0.807907" fill="#007D52"/>
<rect x="37.6865" y="64.7056" width="0.814299" height="0.807907" fill="#007D52"/>
<rect x="38.501" y="64.7056" width="0.814299" height="0.807907" fill="#007D52"/>
<rect x="39.3145" y="64.7056" width="0.814299" height="0.807907" fill="#007D52"/>
<rect x="41.7578" y="64.7056" width="0.814299" height="0.807907" fill="#007D52"/>
<rect x="42.5723" y="63.8984" width="0.814299" height="0.807907" fill="#007D52"/>
<rect x="42.5723" y="64.7056" width="0.814299" height="0.807907" fill="#007D52"/>
<rect x="45.0146" y="63.0903" width="0.814299" height="0.807907" fill="#007D52"/>
<rect x="45.0146" y="63.8984" width="0.814299" height="0.807907" fill="#007D52"/>
<rect x="47.458" y="63.0903" width="0.814299" height="0.807907" fill="#007D52"/>
<rect x="49.0859" y="62.2827" width="0.814299" height="0.807907" fill="#007D52"/>
<rect x="10.8145" y="38.853" width="0.814299" height="0.807907" fill="#007D52"/>
<rect x="10.8145" y="39.6616" width="0.814299" height="0.807907" fill="#007D52"/>
<rect x="10.8145" y="40.4688" width="0.814299" height="0.807907" fill="#007D52"/>
<rect x="10.8145" y="41.2769" width="0.814299" height="0.807907" fill="#007D52"/>
<rect x="10.8145" y="42.084" width="0.814299" height="0.807907" fill="#007D52"/>
<rect x="10" y="42.8931" width="0.814299" height="0.807907" fill="#007D52"/>
<rect x="11.6289" y="42.8931" width="0.814299" height="0.807907" fill="#007D52"/>
<rect x="11.6289" y="43.7007" width="0.814299" height="0.807907" fill="#007D52"/>
<rect x="11.6289" y="44.5088" width="0.814299" height="0.807907" fill="#007D52"/>
<rect x="11.6289" y="45.3159" width="0.814299" height="0.807907" fill="#007D52"/>
<rect x="10.8145" y="46.124" width="0.814299" height="0.807907" fill="#007D52"/>
<rect x="12.4434" y="46.124" width="0.814299" height="0.807907" fill="#007D52"/>
<rect x="12.4434" y="46.9321" width="0.814299" height="0.807907" fill="#007D52"/>
<rect x="12.4434" y="47.7402" width="0.814299" height="0.807907" fill="#007D52"/>
<rect x="11.6289" y="48.5479" width="0.814299" height="0.807907" fill="#007D52"/>
<rect x="13.2568" y="48.5479" width="0.814299" height="0.807907" fill="#007D52"/>
<rect x="13.2568" y="49.356" width="0.814299" height="0.807907" fill="#007D52"/>
<rect x="12.4434" y="50.1641" width="0.814299" height="0.807907" fill="#007D52"/>
<rect x="14.0713" y="50.1641" width="0.814299" height="0.807907" fill="#007D52"/>
<rect x="14.0713" y="50.9722" width="0.814299" height="0.807907" fill="#007D52"/>
<rect x="13.2568" y="51.7793" width="0.814299" height="0.807907" fill="#007D52"/>
<rect x="14.8857" y="51.7793" width="0.814299" height="0.807907" fill="#007D52"/>
<rect x="14.8857" y="52.5874" width="0.814299" height="0.807907" fill="#007D52"/>
<rect x="14.0713" y="53.395" width="0.814299" height="0.807907" fill="#007D52"/>
<rect x="15.7002" y="53.395" width="0.814299" height="0.807907" fill="#007D52"/>
<rect x="14.8857" y="54.2031" width="0.814299" height="0.807907" fill="#007D52"/>
<rect x="16.5146" y="54.2031" width="0.814299" height="0.807907" fill="#007D52"/>
<rect x="15.7002" y="55.0112" width="0.814299" height="0.807907" fill="#007D52"/>
<rect x="17.3291" y="55.0112" width="0.814299" height="0.807907" fill="#007D52"/>
<rect x="17.3291" y="55.8193" width="0.814299" height="0.807907" fill="#007D52"/>
<rect x="16.5146" y="56.6265" width="0.814299" height="0.807907" fill="#007D52"/>
<rect x="18.1426" y="56.6265" width="0.814299" height="0.807907" fill="#007D52"/>
<rect x="17.3291" y="57.4346" width="0.814299" height="0.807907" fill="#007D52"/>
<rect x="18.957" y="58.2432" width="0.814299" height="0.807907" fill="#007D52"/>
<rect x="18.1426" y="58.2432" width="0.814299" height="0.807907" fill="#007D52"/>
<rect x="20.5859" y="58.2432" width="0.814299" height="0.807907" fill="#007D52"/>
<rect x="19.7715" y="59.0513" width="0.814299" height="0.807907" fill="#007D52"/>
<rect x="21.4004" y="59.0513" width="0.814299" height="0.807907" fill="#007D52"/>
<rect x="20.5859" y="59.8584" width="0.814299" height="0.807907" fill="#007D52"/>
<rect x="22.2148" y="60.6665" width="0.814299" height="0.807907" fill="#007D52"/>
<rect x="21.4004" y="60.6665" width="0.814299" height="0.807907" fill="#007D52"/>
<rect x="23.0283" y="59.8584" width="0.814299" height="0.807907" fill="#007D52"/>
<rect x="23.8428" y="60.6665" width="0.814299" height="0.807907" fill="#007D52"/>
<rect x="23.0283" y="61.4736" width="0.814299" height="0.807907" fill="#007D52"/>
<rect x="25.4717" y="61.4736" width="0.814299" height="0.807907" fill="#007D52"/>
<rect x="24.6572" y="62.2827" width="0.814299" height="0.807907" fill="#007D52"/>
<rect x="27.1006" y="63.0903" width="0.814299" height="0.807907" fill="#007D52"/>
<rect x="26.2861" y="63.0903" width="0.814299" height="0.807907" fill="#007D52"/>
<rect x="29.543" y="63.8984" width="0.814299" height="0.807907" fill="#007D52"/>
<rect x="28.7295" y="63.8984" width="0.814299" height="0.807907" fill="#007D52"/>
<rect x="32.8008" y="64.7056" width="0.814299" height="0.807907" fill="#007D52"/>
<rect x="31.9863" y="64.7056" width="0.814299" height="0.807907" fill="#007D52"/>
<rect x="19.7715" y="57.4346" width="0.814299" height="0.807907" fill="#007D52"/>
<rect x="23.8428" y="62.2827" width="0.814299" height="0.807907" fill="#007D52"/>
<rect x="25.4717" y="63.0903" width="0.814299" height="0.807907" fill="#007D52"/>
<rect x="27.915" y="62.2827" width="0.814299" height="0.807907" fill="#007D52"/>
<rect x="27.915" y="63.8984" width="0.814299" height="0.807907" fill="#007D52"/>
<rect x="30.3574" y="63.0903" width="0.814299" height="0.807907" fill="#007D52"/>
<rect x="31.1719" y="64.7056" width="0.814299" height="0.807907" fill="#007D52"/>
<rect x="30.3574" y="64.7056" width="0.814299" height="0.807907" fill="#007D52"/>
<rect x="33.6143" y="64.7056" width="0.814299" height="0.807907" fill="#007D52"/>
<rect x="34.4287" y="64.7056" width="0.814299" height="0.807907" fill="#007D52"/>
<rect x="35.2432" y="64.7056" width="0.814299" height="0.807907" fill="#007D52"/>
<rect x="34.4287" y="13.8081" width="0.814299" height="0.807907" fill="#007D52"/>
<rect x="33.6143" y="13.8081" width="0.814299" height="0.807907" fill="#007D52"/>
<rect x="29.543" y="14.6152" width="0.814299" height="0.807907" fill="#007D52"/>
<rect x="28.7295" y="14.6152" width="0.814299" height="0.807907" fill="#007D52"/>
<rect x="27.1006" y="15.4238" width="0.814299" height="0.807907" fill="#007D52"/>
<rect x="26.2861" y="15.4238" width="0.814299" height="0.807907" fill="#007D52"/>
<rect x="25.4717" y="16.2319" width="0.814299" height="0.807907" fill="#007D52"/>
<rect x="24.6572" y="16.2319" width="0.814299" height="0.807907" fill="#007D52"/>
<rect x="23.8428" y="17.04" width="0.814299" height="0.807907" fill="#007D52"/>
<rect x="23.0283" y="17.04" width="0.814299" height="0.807907" fill="#007D52"/>
<rect x="23.0283" y="17.8472" width="0.814299" height="0.807907" fill="#007D52"/>
<rect x="22.2148" y="17.8472" width="0.814299" height="0.807907" fill="#007D52"/>
<rect x="21.4004" y="17.8472" width="0.814299" height="0.807907" fill="#007D52"/>
<rect x="21.4004" y="18.6553" width="0.814299" height="0.807907" fill="#007D52"/>
<rect x="20.5859" y="18.6553" width="0.814299" height="0.807907" fill="#007D52"/>
<rect x="20.5859" y="19.4634" width="0.814299" height="0.807907" fill="#007D52"/>
<rect x="19.7715" y="19.4634" width="0.814299" height="0.807907" fill="#007D52"/>
<rect x="18.957" y="18.6553" width="0.814299" height="0.807907" fill="#007D52"/>
<rect x="19.7715" y="20.2715" width="0.814299" height="0.807907" fill="#007D52"/>
<rect x="18.957" y="20.2715" width="0.814299" height="0.807907" fill="#007D52"/>
<rect x="18.957" y="21.0791" width="0.814299" height="0.807907" fill="#007D52"/>
<rect x="18.1426" y="21.0791" width="0.814299" height="0.807907" fill="#007D52"/>
<rect x="18.1426" y="21.8872" width="0.814299" height="0.807907" fill="#007D52"/>
<rect x="17.3291" y="21.8872" width="0.814299" height="0.807907" fill="#007D52"/>
<rect x="17.3291" y="22.6943" width="0.814299" height="0.807907" fill="#007D52"/>
<rect x="16.5146" y="22.6943" width="0.814299" height="0.807907" fill="#007D52"/>
<rect x="16.5146" y="23.5034" width="0.814299" height="0.807907" fill="#007D52"/>
<rect x="15.7002" y="23.5034" width="0.814299" height="0.807907" fill="#007D52"/>
<rect x="15.7002" y="24.3105" width="0.814299" height="0.807907" fill="#007D52"/>
<rect x="14.8857" y="24.3105" width="0.814299" height="0.807907" fill="#007D52"/>
<rect x="14.8857" y="25.1191" width="0.814299" height="0.807907" fill="#007D52"/>
<rect x="14.8857" y="25.9263" width="0.814299" height="0.807907" fill="#007D52"/>
<rect x="14.0713" y="25.9263" width="0.814299" height="0.807907" fill="#007D52"/>
<rect x="13.2568" y="25.1191" width="0.814299" height="0.807907" fill="#007D52"/>
<rect x="14.0713" y="26.7344" width="0.814299" height="0.807907" fill="#007D52"/>
<rect x="14.0713" y="27.5425" width="0.814299" height="0.807907" fill="#007D52"/>
<rect x="13.2568" y="27.5425" width="0.814299" height="0.807907" fill="#007D52"/>
<rect x="13.2568" y="28.3506" width="0.814299" height="0.807907" fill="#007D52"/>
<rect x="13.2568" y="29.1577" width="0.814299" height="0.807907" fill="#007D52"/>
<rect x="12.4434" y="29.1577" width="0.814299" height="0.807907" fill="#007D52"/>
<rect x="12.4434" y="29.9663" width="0.814299" height="0.807907" fill="#007D52"/>
<rect x="12.4434" y="30.7744" width="0.814299" height="0.807907" fill="#007D52"/>
<rect x="12.4434" y="31.5825" width="0.814299" height="0.807907" fill="#007D52"/>
<rect x="11.6289" y="31.5825" width="0.814299" height="0.807907" fill="#007D52"/>
<rect x="11.6289" y="32.3896" width="0.814299" height="0.807907" fill="#007D52"/>
<rect x="11.6289" y="33.1978" width="0.814299" height="0.807907" fill="#007D52"/>
<rect x="11.6289" y="34.0054" width="0.814299" height="0.807907" fill="#007D52"/>
<rect x="11.6289" y="34.8135" width="0.814299" height="0.807907" fill="#007D52"/>
<rect x="10.8145" y="34.8135" width="0.814299" height="0.807907" fill="#007D52"/>
<rect x="10.8145" y="35.6216" width="0.814299" height="0.807907" fill="#007D52"/>
<rect x="10.8145" y="36.4297" width="0.814299" height="0.807907" fill="#007D52"/>
<rect x="10.8145" y="37.2368" width="0.814299" height="0.807907" fill="#007D52"/>
<rect x="10.8145" y="38.0449" width="0.814299" height="0.807907" fill="#007D52"/>
<rect x="24.6572" y="17.04" width="0.814299" height="0.807907" fill="#007D52"/>
<rect x="26.2861" y="16.2319" width="0.814299" height="0.807907" fill="#007D52"/>
<rect x="27.915" y="14.6152" width="0.814299" height="0.807907" fill="#007D52"/>
<rect x="27.915" y="15.4238" width="0.814299" height="0.807907" fill="#007D52"/>
<rect x="30.3574" y="14.6152" width="0.814299" height="0.807907" fill="#007D52"/>
<rect x="31.1719" y="13.8081" width="0.814299" height="0.807907" fill="#007D52"/>
<rect x="31.1719" y="14.6152" width="0.814299" height="0.807907" fill="#007D52"/>
<rect x="31.9863" y="13.8081" width="0.814299" height="0.807907" fill="#007D52"/>
<rect x="32.8008" y="13.8081" width="0.814299" height="0.807907" fill="#007D52"/>
<rect x="35.2432" y="13.8081" width="0.814299" height="0.807907" fill="#007D52"/>
<rect x="36.0576" y="13.8081" width="0.814299" height="0.807907" fill="#007D52"/>
<rect x="36.8721" y="13.8081" width="0.814299" height="0.807907" fill="#007D52"/>
<rect x="39.3145" y="13.8081" width="0.814299" height="0.807907" fill="#007D52"/>
<rect x="38.501" y="13.8081" width="0.814299" height="0.807907" fill="#007D52"/>
<rect x="43.3867" y="14.6152" width="0.814299" height="0.807907" fill="#007D52"/>
<rect x="42.5723" y="14.6152" width="0.814299" height="0.807907" fill="#007D52"/>
<rect x="45.8291" y="15.4238" width="0.814299" height="0.807907" fill="#007D52"/>
<rect x="45.0146" y="15.4238" width="0.814299" height="0.807907" fill="#007D52"/>
<rect x="48.2725" y="15.4238" width="0.814299" height="0.807907" fill="#007D52"/>
<rect x="47.458" y="16.2319" width="0.814299" height="0.807907" fill="#007D52"/>
<rect x="49.9004" y="16.2319" width="0.814299" height="0.807907" fill="#007D52"/>
<rect x="49.0859" y="17.04" width="0.814299" height="0.807907" fill="#007D52"/>
<rect x="50.7148" y="17.8472" width="0.814299" height="0.807907" fill="#007D52"/>
<rect x="49.9004" y="17.8472" width="0.814299" height="0.807907" fill="#007D52"/>
<rect x="52.3438" y="17.8472" width="0.814299" height="0.807907" fill="#007D52"/>
<rect x="51.5293" y="18.6553" width="0.814299" height="0.807907" fill="#007D52"/>
<rect x="53.1582" y="18.6553" width="0.814299" height="0.807907" fill="#007D52"/>
<rect x="52.3438" y="19.4634" width="0.814299" height="0.807907" fill="#007D52"/>
<rect x="53.9727" y="19.4634" width="0.814299" height="0.807907" fill="#007D52"/>
<rect x="53.1582" y="20.2715" width="0.814299" height="0.807907" fill="#007D52"/>
<rect x="54.7861" y="20.2715" width="0.814299" height="0.807907" fill="#007D52"/>
<rect x="53.9727" y="21.0791" width="0.814299" height="0.807907" fill="#007D52"/>
<rect x="55.6006" y="21.0791" width="0.814299" height="0.807907" fill="#007D52"/>
<rect x="54.7861" y="21.8872" width="0.814299" height="0.807907" fill="#007D52"/>
<rect x="56.415" y="21.8872" width="0.814299" height="0.807907" fill="#007D52"/>
<rect x="55.6006" y="22.6943" width="0.814299" height="0.807907" fill="#007D52"/>
<rect x="57.2295" y="22.6943" width="0.814299" height="0.807907" fill="#007D52"/>
<rect x="56.415" y="23.5034" width="0.814299" height="0.807907" fill="#007D52"/>
<rect x="58.0439" y="23.5034" width="0.814299" height="0.807907" fill="#007D52"/>
<rect x="58.0439" y="24.3105" width="0.814299" height="0.807907" fill="#007D52"/>
<rect x="57.2295" y="25.1191" width="0.814299" height="0.807907" fill="#007D52"/>
<rect x="58.8584" y="25.1191" width="0.814299" height="0.807907" fill="#007D52"/>
<rect x="58.0439" y="25.9263" width="0.814299" height="0.807907" fill="#007D52"/>
<rect x="59.6719" y="25.9263" width="0.814299" height="0.807907" fill="#007D52"/>
<rect x="59.6719" y="26.7344" width="0.814299" height="0.807907" fill="#007D52"/>
<rect x="58.8584" y="27.5425" width="0.814299" height="0.807907" fill="#007D52"/>
<rect x="60.4863" y="27.5425" width="0.814299" height="0.807907" fill="#007D52"/>
<rect x="60.4863" y="28.3506" width="0.814299" height="0.807907" fill="#007D52"/>
<rect x="60.4863" y="29.1577" width="0.814299" height="0.807907" fill="#007D52"/>
<rect x="59.6719" y="29.9663" width="0.814299" height="0.807907" fill="#007D52"/>
<rect x="61.3008" y="29.9663" width="0.814299" height="0.807907" fill="#007D52"/>
<rect x="61.3008" y="30.7744" width="0.814299" height="0.807907" fill="#007D52"/>
<rect x="61.3008" y="31.5825" width="0.814299" height="0.807907" fill="#007D52"/>
<rect x="60.4863" y="32.3896" width="0.814299" height="0.807907" fill="#007D52"/>
<rect x="62.1152" y="32.3896" width="0.814299" height="0.807907" fill="#007D52"/>
<rect x="62.1152" y="33.1978" width="0.814299" height="0.807907" fill="#007D52"/>
<rect x="62.1152" y="34.0054" width="0.814299" height="0.807907" fill="#007D52"/>
<rect x="62.1152" y="34.8135" width="0.814299" height="0.807907" fill="#007D52"/>
<rect x="62.1152" y="35.6216" width="0.814299" height="0.807907" fill="#007D52"/>
<rect x="61.3008" y="36.4297" width="0.814299" height="0.807907" fill="#007D52"/>
<rect x="62.9297" y="36.4297" width="0.814299" height="0.807907" fill="#007D52"/>
<rect x="62.9297" y="37.2368" width="0.814299" height="0.807907" fill="#007D52"/>
<rect x="62.9297" y="38.0449" width="0.814299" height="0.807907" fill="#007D52"/>
<rect x="37.6865" y="13.8081" width="0.814299" height="0.807907" fill="#007D52"/>
<rect x="40.1289" y="13.8081" width="0.814299" height="0.807907" fill="#007D52"/>
<rect x="40.9434" y="13.8081" width="0.814299" height="0.807907" fill="#007D52"/>
<rect x="41.7578" y="13" width="0.814299" height="0.807907" fill="#007D52"/>
<rect x="41.7578" y="14.6152" width="0.814299" height="0.807907" fill="#007D52"/>
<rect x="44.2002" y="14.6152" width="0.814299" height="0.807907" fill="#007D52"/>
<rect x="45.0146" y="13.8081" width="0.814299" height="0.807907" fill="#007D52"/>
<rect x="46.6436" y="14.6152" width="0.814299" height="0.807907" fill="#007D52"/>
<rect x="46.6436" y="16.2319" width="0.814299" height="0.807907" fill="#007D52"/>
<rect x="48.2725" y="17.04" width="0.814299" height="0.807907" fill="#007D52"/>
<rect x="51.5293" y="17.04" width="0.814299" height="0.807907" fill="#007D52"/>
<path d="M34.0618 55.6513C34.0618 55.4674 34.0767 55.2836 34.0767 55.1089V46.3102H29.3682V44.7475H28.7975C28.0248 44.7475 27.2503 44.7475 26.4776 44.7475C26.2701 44.7475 26.1904 44.6887 26.1978 44.4754C26.2108 44.0508 26.1978 43.6261 26.1978 43.1701H24.6357V41.6185H26.2386V43.1628H29.3886V44.6813H34.0544V43.1426H32.5424V39.9897H34.123V43.1334H35.6424V36.9323C35.2459 36.9323 34.8679 36.9121 34.4954 36.9323C34.1786 36.9544 34.0489 36.8754 34.0785 36.5334C34.1119 36.1473 34.0785 35.7539 34.0785 35.3329H32.5165V33.8052H34.1193V35.3292H35.6628V36.8827H37.2304V44.7273H35.6925V47.8306H37.2304V49.3675H41.9574V47.8416H45.1074H45.0982V49.4337H41.9537V50.9927H38.8499V52.4947C38.8833 52.5081 38.9181 52.5173 38.9537 52.5222H45.1056V54.1033H38.8055V52.5351H37.2304V50.9945H35.6832V55.6513H34.0618Z" fill="#007D52"/>
<path d="M52.9802 47.8361H51.4293C51.4293 47.7092 51.4107 47.5824 51.4107 47.4555V41.6203H49.8135V40.0374H51.4052V38.4932H52.9802V47.8361Z" fill="#007D52"/>
<path d="M43.5301 32.2047V30.688H46.6802V32.2157H48.233V35.3411H46.6894V36.479C46.6894 36.9331 46.6894 36.9331 46.2466 36.9331H45.0922V38.4737H43.5524V40.0143H41.9347V38.4921H40.3967V36.946H38.8254V35.3558H37.2393V32.2304H38.7939V30.6917H41.944V32.2029L43.5301 32.2047Z" fill="#007D52"/>
<path d="M49.8413 25.9849V27.5163H48.2792V29.1158C47.7696 29.1158 47.2916 29.1158 46.8135 29.1047C46.7598 29.1047 46.6727 28.9429 46.6708 28.8529C46.6541 28.4282 46.6708 28.0017 46.6708 27.5457H45.1162V25.9978H43.5615V24.4112H45.1032V22.8706H46.7005V24.3855H48.2662V22.8706H49.8301V24.3965H51.3959V25.9812L49.8413 25.9849Z" fill="#007D52"/>
<path d="M21.4798 35.3443H19.9492V27.5493H23.0733V29.0771H24.6298V30.6746L24.6391 30.6655H23.0641V29.1359H21.4909V29.5311C21.4909 31.3438 21.4909 33.1565 21.4909 34.9692C21.4909 35.0961 21.4761 35.2229 21.4668 35.3498L21.4798 35.3443Z" fill="#007D52"/>
<path d="M24.6299 30.675H29.3642V32.2211H32.505V33.815H29.3383V32.256H24.641V30.6621L24.6299 30.675Z" fill="#007D52"/>
<path d="M37.2299 47.8405V46.2889H38.8142V44.7189H40.3799V43.1636H43.5522H43.543V44.7612H40.3688V46.3128H38.8271V47.8387H37.2188L37.2299 47.8405Z" fill="#007D52"/>
<path d="M43.5561 43.163V41.6187C43.6377 41.6187 43.7099 41.604 43.7822 41.604H49.6228C49.6849 41.6079 49.7468 41.6153 49.8081 41.6261V43.163H43.5469H43.5561Z" fill="#007D52"/>
<path d="M23.0916 38.4824H21.4795V35.3442H23.0953V38.4843L23.0916 38.4824Z" fill="#007D52"/>
<path d="M24.639 41.622H23.0918V38.4819H24.6298V41.6201L24.639 41.622Z" fill="#007D52"/>
<path d="M48.2568 50.9804V49.3975H49.8022V47.833H51.431V49.4141H49.8504V50.9804H48.2568Z" fill="#007D52"/>
<path d="M45.0938 52.5168V50.9707H48.266V52.5168H45.0938Z" fill="#007D52"/>
<path d="M30.9666 38.4824H27.8166V36.9326C27.357 36.9326 26.9308 36.9197 26.5065 36.9326C26.2601 36.9436 26.1915 36.8554 26.2008 36.6219C26.2193 36.2082 26.2008 35.7928 26.2008 35.3497H24.6572V33.8091H26.2193V35.3276H27.7795V36.8866H30.9536V38.4842L30.9666 38.4824Z" fill="#007D52"/>
<path d="M30.96 38.4893H32.5331V39.9968L30.96 40.0703V38.4893Z" fill="#007D52"/>
<path d="M45.103 47.8434V46.2881C45.8553 46.2881 46.5854 46.2881 47.3062 46.2881C47.6342 46.2881 47.964 46.3193 48.292 46.3359V47.8434H45.0938H45.103Z" fill="#007D52"/>
<path d="M48.2927 46.331V44.7334H49.8121V46.3255H48.2871L48.2927 46.331Z" fill="#007D52"/>
<path d="M73 33.25V21H85.25V33.25H81.75V22.75H76.5V33.25H73ZM99.25 26.25V31.5H97.5V33.25H90.5V35H87V24.5H90.5V26.25H92.25V28H90.5V31.5H95.75V26.25H92.25V24.5H97.5V26.25H99.25ZM104.5 29.75H106.25V31.5H104.5V33.25H101V24.5H104.5V29.75ZM113.25 24.5V33.25H109.75V28H108V26.25H109.75V24.5H113.25ZM106.25 28H108V29.75H106.25V28ZM127.25 26.25V31.5H125.5V33.25H118.5V35H115V24.5H118.5V26.25H120.25V28H118.5V31.5H123.75V26.25H120.25V24.5H125.5V26.25H127.25ZM130.75 33.25V31.5H129V26.25H130.75V24.5H139.5V26.25H141.25V31.5H139.5V33.25H130.75ZM132.5 31.5H137.75V26.25H132.5V31.5ZM155.25 31.5H157V35H153.5V33.25H146.5V35H143V31.5H144.75V29.75H146.5V24.5H155.25V31.5ZM148.25 31.5H151.75V26.25H148.25V31.5ZM157 33.25V24.5H160.5V28H165.75V24.5H169.25V33.25H165.75V29.75H160.5V33.25H157ZM171 33.25V24.5H174.5V28H178V33.25H171ZM179.75 33.25V24.5H183.25V33.25H179.75ZM174.5 31.5H176.25V29.75H174.5V31.5ZM186.75 33.25V31.5H185V26.25H186.75V24.5H195.5V26.25H197.25V29.75H188.5V31.5H195.5V33.25H186.75ZM188.5 28H193.75V26.25H188.5V28ZM85.25 40.25V45.5H83.5V47.25H76.5V49H73V38.5H76.5V40.25H78.25V42H76.5V45.5H81.75V40.25H78.25V38.5H83.5V40.25H85.25ZM88.75 47.25V45.5H87V40.25H88.75V38.5H97.5V40.25H99.25V43.75H90.5V45.5H97.5V47.25H88.75ZM90.5 42H95.75V40.25H90.5V42ZM102.75 47.25V45.5H101V40.25H102.75V38.5H111.5V40.25H113.25V42H109.75V40.25H104.5V45.5H109.75V43.75H113.25V45.5H111.5V47.25H102.75ZM116.75 49V47.25H123.75V45.5H116.75V43.75H115V38.5H118.5V43.75H123.75V38.5H127.25V47.25H125.5V49H116.75ZM141.25 40.25V45.5H139.5V47.25H132.5V49H129V38.5H132.5V40.25H134.25V42H132.5V45.5H137.75V40.25H134.25V38.5H139.5V40.25H141.25ZM144.75 47.25V45.5H143V40.25H144.75V38.5H153.5V40.25H155.25V42H151.75V40.25H146.5V45.5H151.75V43.75H155.25V45.5H153.5V47.25H144.75ZM157 47.25V38.5H160.5V42H164V47.25H157ZM165.75 47.25V38.5H169.25V47.25H165.75ZM160.5 45.5H162.25V43.75H160.5V45.5ZM188.5 43.75H190.25V45.5H188.5V47.25H185V38.5H188.5V43.75ZM197.25 38.5V47.25H193.75V42H192V40.25H193.75V38.5H197.25ZM190.25 42H192V43.75H190.25V42ZM74.75 61.25V59.5H73V57.75H76.5V59.5H81.75V57.75H78.25V56H81.75V54.25H76.5V56H73V54.25H74.75V52.5H83.5V54.25H85.25V59.5H83.5V61.25H74.75ZM94 54.25H95.75V56H97.5V57.75H99.25V61.25H95.75V57.75H90.5V61.25H87V52.5H90.5V56H94V54.25ZM99.25 52.5V54.25H95.75V52.5H99.25ZM102.75 61.25V59.5H101V54.25H102.75V52.5H111.5V54.25H113.25V59.5H111.5V61.25H102.75ZM104.5 59.5H109.75V54.25H104.5V59.5ZM127.25 52.5V61.25H123.75V54.25H120.25V59.5H118.5V61.25H115V57.75H116.75V56H118.5V52.5H127.25ZM130.75 61.25V59.5H129V54.25H130.75V52.5H139.5V54.25H141.25V59.5H139.5V61.25H130.75ZM132.5 59.5H137.75V54.25H132.5V59.5ZM144.75 61.25V52.5H155.25V56H153.5V54.25H148.25V61.25H144.75ZM160.5 57.75H162.25V59.5H160.5V61.25H157V52.5H160.5V57.75ZM169.25 52.5V61.25H165.75V56H164V54.25H165.75V52.5H169.25ZM162.25 56H164V57.75H162.25V56ZM171 61.25V57.75H172.75V56H171V54.25H172.75V52.5H183.25V61.25H179.75V57.75H174.5V61.25H171ZM174.5 56H179.75V54.25H174.5V56Z" fill="black"/>
</svg>
