<svg width="301" height="76" viewBox="0 0 301 76" fill="none" xmlns="http://www.w3.org/2000/svg">
<path d="M12.0227 75.9289V72.5729H6.1714L5.91529 69.1044C3.02906 68.4462 3.02906 68.4463 2.99951 64.954C2.99951 62.0487 2.76309 61.7878 0 61.266V14.6806C0.147759 14.5502 0.226564 14.4138 0.315219 14.4019C2.90593 14.0758 2.99951 13.9454 3.01429 10.6488C3.01429 9.54595 3.01429 8.44313 3.01429 7.23358L5.96947 7.06163L6.10738 3.5575H11.9291L12.1212 0H288.958L289.233 3.5575H295.031C295.085 4.82634 295.129 5.86394 295.188 7.115H298.104V10.6251C298.104 14.058 298.148 14.1055 301 14.5205V61.3609C298.183 61.8767 298.119 61.9538 298.114 65.6536C298.114 66.6379 298.114 67.6221 298.114 68.7783L295.218 69.0451C295.159 70.1716 295.104 71.2092 295.035 72.5077H289.253C289.164 73.7943 289.091 74.8201 289.002 76L12.0227 75.9289Z" fill="white"/>
<path d="M73 37.25V25H85.25V37.25H81.75V26.75H76.5V37.25H73ZM99.25 30.25V35.5H97.5V37.25H90.5V39H87V28.5H90.5V30.25H92.25V32H90.5V35.5H95.75V30.25H92.25V28.5H97.5V30.25H99.25ZM102.75 37.25V35.5H101V33.75H102.75V32H109.75V30.25H102.75V28.5H111.5V30.25H113.25V37.25H102.75ZM104.5 35.5H109.75V33.75H104.5V35.5ZM115 37.25V28.5H125.5V30.25H127.25V32H125.5V33.75H127.25V35.5H125.5V37.25H115ZM118.5 32H123.75V30.25H118.5V32ZM118.5 35.5H123.75V33.75H118.5V35.5ZM130.75 37.25V35.5H129V30.25H130.75V28.5H139.5V30.25H141.25V35.5H139.5V37.25H130.75ZM132.5 35.5H137.75V30.25H132.5V35.5ZM143 37.25V28.5H155.25V37.25H151.75V30.25H146.5V37.25H143ZM158.75 37.25V35.5H157V30.25H158.75V28.5H167.5V30.25H169.25V35.5H167.5V37.25H158.75ZM160.5 35.5H165.75V30.25H160.5V35.5ZM183.25 30.25V35.5H181.5V37.25H174.5V39H171V28.5H174.5V30.25H176.25V32H174.5V35.5H179.75V30.25H176.25V28.5H181.5V30.25H183.25ZM185 37.25V33.75H186.75V32H185V30.25H186.75V28.5H197.25V37.25H193.75V33.75H188.5V37.25H185ZM188.5 32H193.75V30.25H188.5V32ZM211.25 35.5H213V39H209.5V37.25H202.5V39H199V35.5H200.75V33.75H202.5V28.5H211.25V35.5ZM204.25 35.5H207.75V30.25H204.25V35.5ZM214.75 37.25V35.5H213V30.25H214.75V28.5H223.5V30.25H225.25V35.5H223.5V37.25H214.75ZM216.5 35.5H221.75V30.25H216.5V35.5ZM234 30.25H235.75V32H237.5V33.75H239.25V37.25H235.75V33.75H230.5V37.25H227V28.5H230.5V32H234V30.25ZM239.25 28.5V30.25H235.75V28.5H239.25ZM258.5 33.75H260.25V35.5H258.5V37.25H255V28.5H258.5V33.75ZM267.25 28.5V37.25H263.75V32H262V30.25H263.75V28.5H267.25ZM260.25 32H262V33.75H260.25V32ZM85.25 39V40.75H76.5V44.25H78.25V46H76.5V49.5H81.75V44.25H78.25V42.5H83.5V44.25H85.25V49.5H83.5V51.25H74.75V49.5H73V40.75H74.75V39H85.25ZM88.75 51.25V49.5H87V44.25H88.75V42.5H97.5V44.25H99.25V47.75H90.5V49.5H97.5V51.25H88.75ZM90.5 46H95.75V44.25H90.5V46ZM102.75 51.25V49.5H101V47.75H104.5V49.5H109.75V47.75H106.25V46H109.75V44.25H104.5V46H101V44.25H102.75V42.5H111.5V44.25H113.25V46H111.5V47.75H113.25V49.5H111.5V51.25H102.75ZM116.75 51.25V49.5H115V44.25H116.75V42.5H125.5V44.25H127.25V49.5H125.5V51.25H116.75ZM118.5 49.5H123.75V44.25H118.5V49.5ZM129 51.25V42.5H141.25V51.25H137.75V44.25H132.5V51.25H129ZM144.75 51.25V49.5H143V47.75H144.75V46H151.75V44.25H144.75V42.5H153.5V44.25H155.25V51.25H144.75ZM146.5 49.5H151.75V47.75H146.5V49.5ZM158.75 51.25V49.5H157V44.25H158.75V42.5H167.5V44.25H169.25V46H165.75V44.25H160.5V49.5H165.75V47.75H169.25V49.5H167.5V51.25H158.75ZM171 51.25V42.5H174.5V46H179.75V42.5H183.25V51.25H179.75V47.75H174.5V51.25H171ZM186.75 51.25V49.5H185V44.25H186.75V42.5H195.5V44.25H197.25V49.5H195.5V51.25H186.75ZM188.5 49.5H193.75V44.25H188.5V49.5ZM200.75 51.25V49.5H199V44.25H200.75V42.5H209.5V44.25H211.25V46H207.75V44.25H202.5V49.5H207.75V47.75H211.25V49.5H209.5V51.25H200.75ZM218.25 51.25V44.25H214.75V42.5H225.25V44.25H221.75V51.25H218.25ZM227 51.25V42.5H230.5V46H237.5V47.75H239.25V49.5H237.5V51.25H227ZM230.5 49.5H235.75V47.75H230.5V49.5Z" fill="black"/>
<path d="M64.1833 39.3831H65.0143V40.2076H64.1833V39.3831Z" fill="#217AB3"/>
<path d="M64.1833 40.2076H65.0143V41.0321H64.1833V40.2076Z" fill="#217AB3"/>
<path d="M64.1833 41.0321H65.0143V41.8565H64.1833V41.0321Z" fill="#217AB3"/>
<path d="M63.3523 41.8565H64.1833V42.681H63.3523V41.8565Z" fill="#217AB3"/>
<path d="M63.3523 42.681H64.1833V43.5055H63.3523V42.681Z" fill="#217AB3"/>
<path d="M63.3523 43.5055H64.1833V44.3299H63.3523V43.5055Z" fill="#217AB3"/>
<path d="M63.3523 44.3299H64.1833V45.1544H63.3523V44.3299Z" fill="#217AB3"/>
<path d="M63.3523 45.1544H64.1833V45.9789H63.3523V45.1544Z" fill="#217AB3"/>
<path d="M63.3523 45.9789H64.1833V46.8033H63.3523V45.9789Z" fill="#217AB3"/>
<path d="M62.5213 46.8033H63.3523V47.6278H62.5213V46.8033Z" fill="#217AB3"/>
<path d="M62.5213 47.6278H63.3523V48.4523H62.5213V47.6278Z" fill="#217AB3"/>
<path d="M62.5213 48.4523H63.3523V49.2767H62.5213V48.4523Z" fill="#217AB3"/>
<path d="M61.6903 49.2767H62.5213V50.1012H61.6903V49.2767Z" fill="#217AB3"/>
<path d="M61.6903 50.1012H62.5213V50.9257H61.6903V50.1012Z" fill="#217AB3"/>
<path d="M60.8594 50.9257H61.6903V51.7501H60.8594V50.9257Z" fill="#217AB3"/>
<path d="M60.8594 51.7501H61.6903V52.5746H60.8594V51.7501Z" fill="#217AB3"/>
<path d="M60.0284 52.5746H60.8594V53.3991H60.0284V52.5746Z" fill="#217AB3"/>
<path d="M59.1974 53.3991H60.0284V54.2235H59.1974V53.3991Z" fill="#217AB3"/>
<path d="M59.1974 54.2235H60.0284V55.048H59.1974V54.2235Z" fill="#217AB3"/>
<path d="M58.3664 55.048H59.1974V55.8725H58.3664V55.048Z" fill="#217AB3"/>
<path d="M57.5354 55.8725H58.3664V56.6969H57.5354V55.8725Z" fill="#217AB3"/>
<path d="M56.7044 56.6969H57.5354V57.5214H56.7044V56.6969Z" fill="#217AB3"/>
<path d="M55.8734 57.5214H56.7044V58.3458H55.8734V57.5214Z" fill="#217AB3"/>
<path d="M55.0424 58.3458H55.8734V59.1703H55.0424V58.3458Z" fill="#217AB3"/>
<path d="M54.2114 59.1703H55.0424V59.9948H54.2114V59.1703Z" fill="#217AB3"/>
<path d="M53.3805 59.9948H54.2114V60.8192H53.3805V59.9948Z" fill="#217AB3"/>
<path d="M52.5495 60.8192H53.3805V61.6437H52.5495V60.8192Z" fill="#217AB3"/>
<path d="M50.8875 61.6437H51.7185V62.4682H50.8875V61.6437Z" fill="#217AB3"/>
<path d="M49.2255 62.4682H50.0565V63.2926H49.2255V62.4682Z" fill="#217AB3"/>
<path d="M47.5635 63.2926H48.3945V64.1171H47.5635V63.2926Z" fill="#217AB3"/>
<path d="M45.0706 64.1171H45.9016V64.9416H45.0706V64.1171Z" fill="#217AB3"/>
<path d="M41.7466 64.9416H42.5776V65.766H41.7466V64.9416Z" fill="#217AB3"/>
<path d="M37.5917 64.9416H38.4226V65.766H37.5917V64.9416Z" fill="#217AB3"/>
<path d="M38.4226 64.9416H39.2536V65.766H38.4226V64.9416Z" fill="#217AB3"/>
<path d="M39.2536 64.9416H40.0846V65.766H39.2536V64.9416Z" fill="#217AB3"/>
<path d="M40.0846 64.9416H40.9156V65.766H40.0846V64.9416Z" fill="#217AB3"/>
<path d="M40.9156 64.9416H41.7466V65.766H40.9156V64.9416Z" fill="#217AB3"/>
<path d="M42.5776 64.9416H43.4086V65.766H42.5776V64.9416Z" fill="#217AB3"/>
<path d="M43.4086 64.9416H44.2396V65.766H43.4086V64.9416Z" fill="#217AB3"/>
<path d="M44.2396 64.1171H45.0706V64.9416H44.2396V64.1171Z" fill="#217AB3"/>
<path d="M45.9016 64.1171H46.7325V64.9416H45.9016V64.1171Z" fill="#217AB3"/>
<path d="M46.7325 63.2926H47.5635V64.1171H46.7325V63.2926Z" fill="#217AB3"/>
<path d="M48.3945 63.2926H49.2255V64.1171H48.3945V63.2926Z" fill="#217AB3"/>
<path d="M50.0565 62.4682H50.8875V63.2926H50.0565V62.4682Z" fill="#217AB3"/>
<path d="M51.7185 60.8192H52.5495V61.6437H51.7185V60.8192Z" fill="#217AB3"/>
<path d="M11 39.3831H11.831V40.2076H11V39.3831Z" fill="#217AB3"/>
<path d="M11 40.2076H11.831V41.0321H11V40.2076Z" fill="#217AB3"/>
<path d="M11 41.0321H11.831V41.8565H11V41.0321Z" fill="#217AB3"/>
<path d="M11 41.8565H11.831V42.681H11V41.8565Z" fill="#217AB3"/>
<path d="M11 42.681H11.831V43.5055H11V42.681Z" fill="#217AB3"/>
<path d="M11.831 43.5055H12.662V44.3299H11.831V43.5055Z" fill="#217AB3"/>
<path d="M11.831 44.3299H12.662V45.1544H11.831V44.3299Z" fill="#217AB3"/>
<path d="M11.831 45.1544H12.662V45.9789H11.831V45.1544Z" fill="#217AB3"/>
<path d="M11.831 45.9789H12.662V46.8033H11.831V45.9789Z" fill="#217AB3"/>
<path d="M12.662 46.8033H13.493V47.6278H12.662V46.8033Z" fill="#217AB3"/>
<path d="M12.662 47.6278H13.493V48.4523H12.662V47.6278Z" fill="#217AB3"/>
<path d="M12.662 48.4523H13.493V49.2767H12.662V48.4523Z" fill="#217AB3"/>
<path d="M13.493 49.2767H14.324V50.1012H13.493V49.2767Z" fill="#217AB3"/>
<path d="M13.493 50.1012H14.324V50.9257H13.493V50.1012Z" fill="#217AB3"/>
<path d="M14.324 50.9257H15.1549V51.7501H14.324V50.9257Z" fill="#217AB3"/>
<path d="M14.324 51.7501H15.1549V52.5746H14.324V51.7501Z" fill="#217AB3"/>
<path d="M15.1549 52.5746H15.9859V53.3991H15.1549V52.5746Z" fill="#217AB3"/>
<path d="M15.1549 53.3991H15.9859V54.2235H15.1549V53.3991Z" fill="#217AB3"/>
<path d="M15.9859 54.2235H16.8169V55.048H15.9859V54.2235Z" fill="#217AB3"/>
<path d="M16.8169 55.048H17.6479V55.8725H16.8169V55.048Z" fill="#217AB3"/>
<path d="M17.6479 55.8725H18.4789V56.6969H17.6479V55.8725Z" fill="#217AB3"/>
<path d="M17.6479 56.6969H18.4789V57.5214H17.6479V56.6969Z" fill="#217AB3"/>
<path d="M18.4789 57.5214H19.3099V58.3458H18.4789V57.5214Z" fill="#217AB3"/>
<path d="M19.3099 58.3458H20.1409V59.1703H19.3099V58.3458Z" fill="#217AB3"/>
<path d="M20.9719 59.1703H21.8029V59.9948H20.9719V59.1703Z" fill="#217AB3"/>
<path d="M21.8029 59.9948H22.6339V60.8192H21.8029V59.9948Z" fill="#217AB3"/>
<path d="M22.6339 60.8192H23.4648V61.6437H22.6339V60.8192Z" fill="#217AB3"/>
<path d="M24.2958 61.6437H25.1268V62.4682H24.2958V61.6437Z" fill="#217AB3"/>
<path d="M25.9578 62.4682H26.7888V63.2926H25.9578V62.4682Z" fill="#217AB3"/>
<path d="M27.6198 63.2926H28.4508V64.1171H27.6198V63.2926Z" fill="#217AB3"/>
<path d="M30.1128 64.1171H30.9437V64.9416H30.1128V64.1171Z" fill="#217AB3"/>
<path d="M33.4367 64.9416H34.2677V65.766H33.4367V64.9416Z" fill="#217AB3"/>
<path d="M20.1409 58.3458H20.9719V59.1703H20.1409V58.3458Z" fill="#217AB3"/>
<path d="M23.4648 60.8192H24.2958V61.6437H23.4648V60.8192Z" fill="#217AB3"/>
<path d="M25.1268 62.4682H25.9578V63.2926H25.1268V62.4682Z" fill="#217AB3"/>
<path d="M26.7888 63.2926H27.6198V64.1171H26.7888V63.2926Z" fill="#217AB3"/>
<path d="M28.4508 63.2926H29.2818V64.1171H28.4508V63.2926Z" fill="#217AB3"/>
<path d="M29.2818 64.1171H30.1128V64.9416H29.2818V64.1171Z" fill="#217AB3"/>
<path d="M30.9437 64.1171H31.7747V64.9416H30.9437V64.1171Z" fill="#217AB3"/>
<path d="M31.7747 64.9416H32.6057V65.766H31.7747V64.9416Z" fill="#217AB3"/>
<path d="M32.6057 64.9416H33.4367V65.766H32.6057V64.9416Z" fill="#217AB3"/>
<path d="M34.2677 64.9416H35.0987V65.766H34.2677V64.9416Z" fill="#217AB3"/>
<path d="M35.0987 64.9416H35.9297V65.766H35.0987V64.9416Z" fill="#217AB3"/>
<path d="M35.9297 64.9416H36.7607V65.766H35.9297V64.9416Z" fill="#217AB3"/>
<path d="M36.7607 64.9416H37.5917V65.766H36.7607V64.9416Z" fill="#217AB3"/>
<path d="M35.0987 13.0002H35.9297V13.8247H35.0987V13.0002Z" fill="#217AB3"/>
<path d="M30.1128 13.8247H30.9437V14.6492H30.1128V13.8247Z" fill="#217AB3"/>
<path d="M27.6198 14.6492H28.4508V15.4736H27.6198V14.6492Z" fill="#217AB3"/>
<path d="M25.9578 15.4736H26.7888V16.2981H25.9578V15.4736Z" fill="#217AB3"/>
<path d="M24.2958 16.2981H25.1268V17.1226H24.2958V16.2981Z" fill="#217AB3"/>
<path d="M23.4648 17.1226H24.2958V17.947H23.4648V17.1226Z" fill="#217AB3"/>
<path d="M21.8029 17.947H22.6339V18.7715H21.8029V17.947Z" fill="#217AB3"/>
<path d="M20.9719 18.7715H21.8029V19.596H20.9719V18.7715Z" fill="#217AB3"/>
<path d="M20.1409 19.596H20.9719V20.4204H20.1409V19.596Z" fill="#217AB3"/>
<path d="M19.3099 20.4204H20.1409V21.2449H19.3099V20.4204Z" fill="#217AB3"/>
<path d="M18.4789 21.2449H19.3099V22.0694H18.4789V21.2449Z" fill="#217AB3"/>
<path d="M17.6479 22.0694H18.4789V22.8938H17.6479V22.0694Z" fill="#217AB3"/>
<path d="M16.8169 22.8938H17.6479V23.7183H16.8169V22.8938Z" fill="#217AB3"/>
<path d="M15.9859 23.7183H16.8169V24.5428H15.9859V23.7183Z" fill="#217AB3"/>
<path d="M15.1549 24.5428H15.9859V25.3672H15.1549V24.5428Z" fill="#217AB3"/>
<path d="M15.1549 25.3672H15.9859V26.1917H15.1549V25.3672Z" fill="#217AB3"/>
<path d="M14.324 26.1917H15.1549V27.0162H14.324V26.1917Z" fill="#217AB3"/>
<path d="M14.324 27.0162H15.1549V27.8406H14.324V27.0162Z" fill="#217AB3"/>
<path d="M13.493 27.8406H14.324V28.6651H13.493V27.8406Z" fill="#217AB3"/>
<path d="M13.493 28.6651H14.324V29.4896H13.493V28.6651Z" fill="#217AB3"/>
<path d="M12.662 29.4896H13.493V30.314H12.662V29.4896Z" fill="#217AB3"/>
<path d="M12.662 30.314H13.493V31.1385H12.662V30.314Z" fill="#217AB3"/>
<path d="M12.662 31.1385H13.493V31.963H12.662V31.1385Z" fill="#217AB3"/>
<path d="M11.831 31.963H12.662V32.7874H11.831V31.963Z" fill="#217AB3"/>
<path d="M11.831 32.7874H12.662V33.6119H11.831V32.7874Z" fill="#217AB3"/>
<path d="M11.831 33.6119H12.662V34.4363H11.831V33.6119Z" fill="#217AB3"/>
<path d="M11.831 34.4363H12.662V35.2608H11.831V34.4363Z" fill="#217AB3"/>
<path d="M11 35.2608H11.831V36.0853H11V35.2608Z" fill="#217AB3"/>
<path d="M11 36.0853H11.831V36.9097H11V36.0853Z" fill="#217AB3"/>
<path d="M11 36.9097H11.831V37.7342H11V36.9097Z" fill="#217AB3"/>
<path d="M11 37.7342H11.831V38.5587H11V37.7342Z" fill="#217AB3"/>
<path d="M11 38.5587H11.831V39.3831H11V38.5587Z" fill="#217AB3"/>
<path d="M22.6339 17.1226H23.4648V17.947H22.6339V17.1226Z" fill="#217AB3"/>
<path d="M25.1268 16.2981H25.9578V17.1226H25.1268V16.2981Z" fill="#217AB3"/>
<path d="M26.7888 15.4736H27.6198V16.2981H26.7888V15.4736Z" fill="#217AB3"/>
<path d="M28.4508 14.6492H29.2818V15.4736H28.4508V14.6492Z" fill="#217AB3"/>
<path d="M29.2818 13.8247H30.1128V14.6492H29.2818V13.8247Z" fill="#217AB3"/>
<path d="M30.9437 13.8247H31.7747V14.6492H30.9437V13.8247Z" fill="#217AB3"/>
<path d="M31.7747 13.8247H32.6057V14.6492H31.7747V13.8247Z" fill="#217AB3"/>
<path d="M32.6057 13.0002H33.4367V13.8247H32.6057V13.0002Z" fill="#217AB3"/>
<path d="M33.4367 13.0002H34.2677V13.8247H33.4367V13.0002Z" fill="#217AB3"/>
<path d="M34.2677 13.0002H35.0987V13.8247H34.2677V13.0002Z" fill="#217AB3"/>
<path d="M35.9297 13.0002H36.7607V13.8247H35.9297V13.0002Z" fill="#217AB3"/>
<path d="M36.7607 13.0002H37.5917V13.8247H36.7607V13.0002Z" fill="#217AB3"/>
<path d="M37.5917 13.0002H38.4226V13.8247H37.5917V13.0002Z" fill="#217AB3"/>
<path d="M40.0846 13.0002H40.9156V13.8247H40.0846V13.0002Z" fill="#217AB3"/>
<path d="M44.2396 13.8247H45.0706V14.6492H44.2396V13.8247Z" fill="#217AB3"/>
<path d="M46.7325 14.6492H47.5635V15.4736H46.7325V14.6492Z" fill="#217AB3"/>
<path d="M49.2255 15.4736H50.0565V16.2981H49.2255V15.4736Z" fill="#217AB3"/>
<path d="M50.8875 16.2981H51.7185V17.1226H50.8875V16.2981Z" fill="#217AB3"/>
<path d="M51.7185 17.1226H52.5495V17.947H51.7185V17.1226Z" fill="#217AB3"/>
<path d="M53.3805 17.947H54.2114V18.7715H53.3805V17.947Z" fill="#217AB3"/>
<path d="M54.2114 18.7715H55.0424V19.596H54.2114V18.7715Z" fill="#217AB3"/>
<path d="M55.0424 19.596H55.8734V20.4204H55.0424V19.596Z" fill="#217AB3"/>
<path d="M55.8734 20.4204H56.7044V21.2449H55.8734V20.4204Z" fill="#217AB3"/>
<path d="M56.7044 21.2449H57.5354V22.0694H56.7044V21.2449Z" fill="#217AB3"/>
<path d="M57.5354 22.0694H58.3664V22.8938H57.5354V22.0694Z" fill="#217AB3"/>
<path d="M58.3664 22.8938H59.1974V23.7183H58.3664V22.8938Z" fill="#217AB3"/>
<path d="M59.1974 23.7183H60.0284V24.5428H59.1974V23.7183Z" fill="#217AB3"/>
<path d="M59.1974 24.5428H60.0284V25.3672H59.1974V24.5428Z" fill="#217AB3"/>
<path d="M60.0284 25.3672H60.8594V26.1917H60.0284V25.3672Z" fill="#217AB3"/>
<path d="M60.8594 26.1917H61.6903V27.0162H60.8594V26.1917Z" fill="#217AB3"/>
<path d="M60.8594 27.0162H61.6903V27.8406H60.8594V27.0162Z" fill="#217AB3"/>
<path d="M61.6903 27.8406H62.5213V28.6651H61.6903V27.8406Z" fill="#217AB3"/>
<path d="M61.6903 28.6651H62.5213V29.4896H61.6903V28.6651Z" fill="#217AB3"/>
<path d="M61.6903 29.4896H62.5213V30.314H61.6903V29.4896Z" fill="#217AB3"/>
<path d="M62.5213 30.314H63.3523V31.1385H62.5213V30.314Z" fill="#217AB3"/>
<path d="M62.5213 31.1385H63.3523V31.963H62.5213V31.1385Z" fill="#217AB3"/>
<path d="M62.5213 31.963H63.3523V32.7874H62.5213V31.963Z" fill="#217AB3"/>
<path d="M63.3523 32.7874H64.1833V33.6119H63.3523V32.7874Z" fill="#217AB3"/>
<path d="M63.3523 33.6119H64.1833V34.4363H63.3523V33.6119Z" fill="#217AB3"/>
<path d="M63.3523 34.4363H64.1833V35.2608H63.3523V34.4363Z" fill="#217AB3"/>
<path d="M63.3523 35.2608H64.1833V36.0853H63.3523V35.2608Z" fill="#217AB3"/>
<path d="M63.3523 36.0853H64.1833V36.9097H63.3523V36.0853Z" fill="#217AB3"/>
<path d="M64.1833 36.9097H65.0143V37.7342H64.1833V36.9097Z" fill="#217AB3"/>
<path d="M64.1833 37.7342H65.0143V38.5587H64.1833V37.7342Z" fill="#217AB3"/>
<path d="M64.1833 38.5587H65.0143V39.3831H64.1833V38.5587Z" fill="#217AB3"/>
<path d="M38.4226 13.0002H39.2536V13.8247H38.4226V13.0002Z" fill="#217AB3"/>
<path d="M39.2536 13.0002H40.0846V13.8247H39.2536V13.0002Z" fill="#217AB3"/>
<path d="M40.9156 13.0002H41.7466V13.8247H40.9156V13.0002Z" fill="#217AB3"/>
<path d="M41.7466 13.0002H42.5776V13.8247H41.7466V13.0002Z" fill="#217AB3"/>
<path d="M42.5776 13.0002H43.4086V13.8247H42.5776V13.0002Z" fill="#217AB3"/>
<path d="M43.4086 13.8247H44.2396V14.6492H43.4086V13.8247Z" fill="#217AB3"/>
<path d="M45.0706 13.8247H45.9016V14.6492H45.0706V13.8247Z" fill="#217AB3"/>
<path d="M45.9016 13.8247H46.7325V14.6492H45.9016V13.8247Z" fill="#217AB3"/>
<path d="M47.5635 14.6492H48.3945V15.4736H47.5635V14.6492Z" fill="#217AB3"/>
<path d="M48.3945 15.4736H49.2255V16.2981H48.3945V15.4736Z" fill="#217AB3"/>
<path d="M50.0565 16.2981H50.8875V17.1226H50.0565V16.2981Z" fill="#217AB3"/>
<path d="M52.5495 17.1226H53.3805V17.947H52.5495V17.1226Z" fill="#217AB3"/>
<rect x="64.1836" y="39.3831" width="0.830989" height="0.824466" fill="#217AB3"/>
<rect x="64.1836" y="40.207" width="0.830989" height="0.824466" fill="#217AB3"/>
<rect x="64.1836" y="41.032" width="0.830989" height="0.824466" fill="#217AB3"/>
<rect x="63.3525" y="41.8569" width="0.830989" height="0.824466" fill="#217AB3"/>
<rect x="63.3525" y="42.6809" width="0.830989" height="0.824466" fill="#217AB3"/>
<rect x="63.3525" y="43.5049" width="0.830989" height="0.824466" fill="#217AB3"/>
<rect x="63.3525" y="44.3289" width="0.830989" height="0.824466" fill="#217AB3"/>
<rect x="63.3525" y="45.1538" width="0.830989" height="0.824466" fill="#217AB3"/>
<rect x="63.3525" y="45.9788" width="0.830989" height="0.824466" fill="#217AB3"/>
<rect x="62.5215" y="46.8027" width="0.830989" height="0.824466" fill="#217AB3"/>
<rect x="62.5215" y="47.6277" width="0.830989" height="0.824466" fill="#217AB3"/>
<rect x="62.5215" y="48.4517" width="0.830989" height="0.824466" fill="#217AB3"/>
<rect x="61.6904" y="49.2756" width="0.830989" height="0.824466" fill="#217AB3"/>
<rect x="61.6904" y="50.1006" width="0.830989" height="0.824466" fill="#217AB3"/>
<rect x="60.8594" y="50.9255" width="0.830989" height="0.824466" fill="#217AB3"/>
<rect x="60.8594" y="51.7495" width="0.830989" height="0.824466" fill="#217AB3"/>
<rect x="60.0283" y="52.5745" width="0.830989" height="0.824466" fill="#217AB3"/>
<rect x="59.1973" y="53.3987" width="0.830989" height="0.824466" fill="#217AB3"/>
<rect x="59.1973" y="54.2234" width="0.830989" height="0.824466" fill="#217AB3"/>
<rect x="58.3662" y="55.0476" width="0.830989" height="0.824466" fill="#217AB3"/>
<rect x="57.5352" y="55.8726" width="0.830989" height="0.824466" fill="#217AB3"/>
<rect x="56.7041" y="56.6965" width="0.830989" height="0.824466" fill="#217AB3"/>
<rect x="55.873" y="57.5205" width="0.830989" height="0.824466" fill="#217AB3"/>
<rect x="55.042" y="58.3455" width="0.830989" height="0.824466" fill="#217AB3"/>
<rect x="54.2109" y="59.1704" width="0.830989" height="0.824466" fill="#217AB3"/>
<rect x="53.3799" y="59.9944" width="0.830989" height="0.824466" fill="#217AB3"/>
<rect x="52.5498" y="60.8193" width="0.830989" height="0.824466" fill="#217AB3"/>
<rect x="50.8877" y="61.6433" width="0.830989" height="0.824466" fill="#217AB3"/>
<rect x="49.2256" y="62.4683" width="0.830989" height="0.824466" fill="#217AB3"/>
<rect x="47.5635" y="63.2922" width="0.830989" height="0.824466" fill="#217AB3"/>
<rect x="45.0703" y="64.1172" width="0.830989" height="0.824466" fill="#217AB3"/>
<rect x="41.7471" y="64.9412" width="0.830989" height="0.824466" fill="#217AB3"/>
<rect x="37.5918" y="64.9412" width="0.830989" height="0.824466" fill="#217AB3"/>
<rect x="38.4229" y="64.9412" width="0.830989" height="0.824466" fill="#217AB3"/>
<rect x="39.2539" y="64.9412" width="0.830989" height="0.824466" fill="#217AB3"/>
<rect x="40.085" y="64.9412" width="0.830989" height="0.824466" fill="#217AB3"/>
<rect x="40.916" y="64.9412" width="0.830989" height="0.824466" fill="#217AB3"/>
<rect x="42.5771" y="64.9412" width="0.830989" height="0.824466" fill="#217AB3"/>
<rect x="43.4082" y="64.9412" width="0.830989" height="0.824466" fill="#217AB3"/>
<rect x="44.2393" y="64.1172" width="0.830989" height="0.824466" fill="#217AB3"/>
<rect x="45.9014" y="64.1172" width="0.830989" height="0.824466" fill="#217AB3"/>
<rect x="46.7324" y="63.2922" width="0.830989" height="0.824466" fill="#217AB3"/>
<rect x="48.3945" y="63.2922" width="0.830989" height="0.824466" fill="#217AB3"/>
<rect x="50.0566" y="62.4683" width="0.830989" height="0.824466" fill="#217AB3"/>
<rect x="51.7188" y="60.8193" width="0.830989" height="0.824466" fill="#217AB3"/>
<rect x="11" y="39.3831" width="0.830989" height="0.824466" fill="#217AB3"/>
<rect x="11" y="40.207" width="0.830989" height="0.824466" fill="#217AB3"/>
<rect x="11" y="41.032" width="0.830989" height="0.824466" fill="#217AB3"/>
<rect x="11" y="41.8569" width="0.830989" height="0.824466" fill="#217AB3"/>
<rect x="11" y="42.6809" width="0.830989" height="0.824466" fill="#217AB3"/>
<rect x="11.8311" y="43.5049" width="0.830989" height="0.824466" fill="#217AB3"/>
<rect x="11.8311" y="44.3289" width="0.830989" height="0.824466" fill="#217AB3"/>
<rect x="11.8311" y="45.1538" width="0.830989" height="0.824466" fill="#217AB3"/>
<rect x="11.8311" y="45.9788" width="0.830989" height="0.824466" fill="#217AB3"/>
<rect x="12.6621" y="46.8027" width="0.830989" height="0.824466" fill="#217AB3"/>
<rect x="12.6621" y="47.6277" width="0.830989" height="0.824466" fill="#217AB3"/>
<rect x="12.6621" y="48.4517" width="0.830989" height="0.824466" fill="#217AB3"/>
<rect x="13.4932" y="49.2756" width="0.830989" height="0.824466" fill="#217AB3"/>
<rect x="13.4932" y="50.1006" width="0.830989" height="0.824466" fill="#217AB3"/>
<rect x="14.3242" y="50.9255" width="0.830989" height="0.824466" fill="#217AB3"/>
<rect x="14.3242" y="51.7495" width="0.830989" height="0.824466" fill="#217AB3"/>
<rect x="15.1553" y="52.5745" width="0.830989" height="0.824466" fill="#217AB3"/>
<rect x="15.1553" y="53.3987" width="0.830989" height="0.824466" fill="#217AB3"/>
<rect x="15.9863" y="54.2234" width="0.830989" height="0.824466" fill="#217AB3"/>
<rect x="16.8164" y="55.0476" width="0.830989" height="0.824466" fill="#217AB3"/>
<rect x="17.6475" y="55.8726" width="0.830989" height="0.824466" fill="#217AB3"/>
<rect x="17.6475" y="56.6965" width="0.830989" height="0.824466" fill="#217AB3"/>
<rect x="18.4785" y="57.5205" width="0.830989" height="0.824466" fill="#217AB3"/>
<rect x="19.3096" y="58.3455" width="0.830989" height="0.824466" fill="#217AB3"/>
<rect x="20.9717" y="59.1704" width="0.830989" height="0.824466" fill="#217AB3"/>
<rect x="21.8027" y="59.9944" width="0.830989" height="0.824466" fill="#217AB3"/>
<rect x="22.6338" y="60.8193" width="0.830989" height="0.824466" fill="#217AB3"/>
<rect x="24.2959" y="61.6433" width="0.830989" height="0.824466" fill="#217AB3"/>
<rect x="25.958" y="62.4683" width="0.830989" height="0.824466" fill="#217AB3"/>
<rect x="27.6201" y="63.2922" width="0.830989" height="0.824466" fill="#217AB3"/>
<rect x="30.1123" y="64.1172" width="0.830989" height="0.824466" fill="#217AB3"/>
<rect x="33.4365" y="64.9412" width="0.830989" height="0.824466" fill="#217AB3"/>
<rect x="20.1406" y="58.3455" width="0.830989" height="0.824466" fill="#217AB3"/>
<rect x="23.4648" y="60.8193" width="0.830989" height="0.824466" fill="#217AB3"/>
<rect x="25.127" y="62.4683" width="0.830989" height="0.824466" fill="#217AB3"/>
<rect x="26.7891" y="63.2922" width="0.830989" height="0.824466" fill="#217AB3"/>
<rect x="28.4512" y="63.2922" width="0.830989" height="0.824466" fill="#217AB3"/>
<rect x="29.2822" y="64.1172" width="0.830989" height="0.824466" fill="#217AB3"/>
<rect x="30.9434" y="64.1172" width="0.830989" height="0.824466" fill="#217AB3"/>
<rect x="31.7744" y="64.9412" width="0.830989" height="0.824466" fill="#217AB3"/>
<rect x="32.6055" y="64.9412" width="0.830989" height="0.824466" fill="#217AB3"/>
<rect x="34.2676" y="64.9412" width="0.830989" height="0.824466" fill="#217AB3"/>
<rect x="35.0986" y="64.9412" width="0.830989" height="0.824466" fill="#217AB3"/>
<rect x="35.9297" y="64.9412" width="0.830989" height="0.824466" fill="#217AB3"/>
<rect x="36.7607" y="64.9412" width="0.830989" height="0.824466" fill="#217AB3"/>
<rect x="35.0986" y="13" width="0.830989" height="0.824466" fill="#217AB3"/>
<rect x="30.1123" y="13.824" width="0.830989" height="0.824466" fill="#217AB3"/>
<rect x="27.6201" y="14.6489" width="0.830989" height="0.824466" fill="#217AB3"/>
<rect x="25.958" y="15.4729" width="0.830989" height="0.824466" fill="#217AB3"/>
<rect x="24.2959" y="16.2979" width="0.830989" height="0.824466" fill="#217AB3"/>
<rect x="23.4648" y="17.1228" width="0.830989" height="0.824466" fill="#217AB3"/>
<rect x="21.8027" y="17.9468" width="0.830989" height="0.824466" fill="#217AB3"/>
<rect x="20.9717" y="18.7708" width="0.830989" height="0.824466" fill="#217AB3"/>
<rect x="20.1406" y="19.5957" width="0.830989" height="0.824466" fill="#217AB3"/>
<rect x="19.3096" y="20.4207" width="0.830989" height="0.824466" fill="#217AB3"/>
<rect x="18.4785" y="21.2446" width="0.830989" height="0.824466" fill="#217AB3"/>
<rect x="17.6475" y="22.0686" width="0.830989" height="0.824466" fill="#217AB3"/>
<rect x="16.8164" y="22.8936" width="0.830989" height="0.824466" fill="#217AB3"/>
<rect x="15.9863" y="23.7175" width="0.830989" height="0.824466" fill="#217AB3"/>
<rect x="15.1553" y="24.5425" width="0.830989" height="0.824466" fill="#217AB3"/>
<rect x="15.1553" y="25.3674" width="0.830989" height="0.824466" fill="#217AB3"/>
<rect x="14.3242" y="26.1914" width="0.830989" height="0.824466" fill="#217AB3"/>
<rect x="14.3242" y="27.0156" width="0.830989" height="0.824466" fill="#217AB3"/>
<rect x="13.4932" y="27.8406" width="0.830989" height="0.824466" fill="#217AB3"/>
<rect x="13.4932" y="28.6646" width="0.830989" height="0.824466" fill="#217AB3"/>
<rect x="12.6621" y="29.4895" width="0.830989" height="0.824466" fill="#217AB3"/>
<rect x="12.6621" y="30.3135" width="0.830989" height="0.824466" fill="#217AB3"/>
<rect x="12.6621" y="31.1384" width="0.830989" height="0.824466" fill="#217AB3"/>
<rect x="11.8311" y="31.9624" width="0.830989" height="0.824466" fill="#217AB3"/>
<rect x="11.8311" y="32.7874" width="0.830989" height="0.824466" fill="#217AB3"/>
<rect x="11.8311" y="33.6123" width="0.830989" height="0.824466" fill="#217AB3"/>
<rect x="11.8311" y="34.4363" width="0.830989" height="0.824466" fill="#217AB3"/>
<rect x="11" y="35.2603" width="0.830989" height="0.824466" fill="#217AB3"/>
<rect x="11" y="36.0842" width="0.830989" height="0.824466" fill="#217AB3"/>
<rect x="11" y="36.9092" width="0.830989" height="0.824466" fill="#217AB3"/>
<rect x="11" y="37.7341" width="0.830989" height="0.824466" fill="#217AB3"/>
<rect x="11" y="38.5581" width="0.830989" height="0.824466" fill="#217AB3"/>
<rect x="22.6338" y="17.1228" width="0.830989" height="0.824466" fill="#217AB3"/>
<rect x="25.127" y="16.2979" width="0.830989" height="0.824466" fill="#217AB3"/>
<rect x="26.7891" y="15.4729" width="0.830989" height="0.824466" fill="#217AB3"/>
<rect x="28.4512" y="14.6489" width="0.830989" height="0.824466" fill="#217AB3"/>
<rect x="29.2822" y="13.824" width="0.830989" height="0.824466" fill="#217AB3"/>
<rect x="30.9434" y="13.824" width="0.830989" height="0.824466" fill="#217AB3"/>
<rect x="31.7744" y="13.824" width="0.830989" height="0.824466" fill="#217AB3"/>
<rect x="32.6055" y="13" width="0.830989" height="0.824466" fill="#217AB3"/>
<rect x="33.4365" y="13" width="0.830989" height="0.824466" fill="#217AB3"/>
<rect x="34.2676" y="13" width="0.830989" height="0.824466" fill="#217AB3"/>
<rect x="35.9297" y="13" width="0.830989" height="0.824466" fill="#217AB3"/>
<rect x="36.7607" y="13" width="0.830989" height="0.824466" fill="#217AB3"/>
<rect x="37.5918" y="13" width="0.830989" height="0.824466" fill="#217AB3"/>
<rect x="40.085" y="13" width="0.830989" height="0.824466" fill="#217AB3"/>
<rect x="44.2393" y="13.824" width="0.830989" height="0.824466" fill="#217AB3"/>
<rect x="46.7324" y="14.6489" width="0.830989" height="0.824466" fill="#217AB3"/>
<rect x="49.2256" y="15.4729" width="0.830989" height="0.824466" fill="#217AB3"/>
<rect x="50.8877" y="16.2979" width="0.830989" height="0.824466" fill="#217AB3"/>
<rect x="51.7188" y="17.1228" width="0.830989" height="0.824466" fill="#217AB3"/>
<rect x="53.3799" y="17.9468" width="0.830989" height="0.824466" fill="#217AB3"/>
<rect x="54.2109" y="18.7708" width="0.830989" height="0.824466" fill="#217AB3"/>
<rect x="55.042" y="19.5957" width="0.830989" height="0.824466" fill="#217AB3"/>
<rect x="55.873" y="20.4207" width="0.830989" height="0.824466" fill="#217AB3"/>
<rect x="56.7041" y="21.2446" width="0.830989" height="0.824466" fill="#217AB3"/>
<rect x="57.5352" y="22.0686" width="0.830989" height="0.824466" fill="#217AB3"/>
<rect x="58.3662" y="22.8936" width="0.830989" height="0.824466" fill="#217AB3"/>
<rect x="59.1973" y="23.7175" width="0.830989" height="0.824466" fill="#217AB3"/>
<rect x="59.1973" y="24.5425" width="0.830989" height="0.824466" fill="#217AB3"/>
<rect x="60.0283" y="25.3674" width="0.830989" height="0.824466" fill="#217AB3"/>
<rect x="60.8594" y="26.1914" width="0.830989" height="0.824466" fill="#217AB3"/>
<rect x="60.8594" y="27.0156" width="0.830989" height="0.824466" fill="#217AB3"/>
<rect x="61.6904" y="27.8406" width="0.830989" height="0.824466" fill="#217AB3"/>
<rect x="61.6904" y="28.6646" width="0.830989" height="0.824466" fill="#217AB3"/>
<rect x="61.6904" y="29.4895" width="0.830989" height="0.824466" fill="#217AB3"/>
<rect x="62.5215" y="30.3135" width="0.830989" height="0.824466" fill="#217AB3"/>
<rect x="62.5215" y="31.1384" width="0.830989" height="0.824466" fill="#217AB3"/>
<rect x="62.5215" y="31.9624" width="0.830989" height="0.824466" fill="#217AB3"/>
<rect x="63.3525" y="32.7874" width="0.830989" height="0.824466" fill="#217AB3"/>
<rect x="63.3525" y="33.6123" width="0.830989" height="0.824466" fill="#217AB3"/>
<rect x="63.3525" y="34.4363" width="0.830989" height="0.824466" fill="#217AB3"/>
<rect x="63.3525" y="35.2603" width="0.830989" height="0.824466" fill="#217AB3"/>
<rect x="63.3525" y="36.0842" width="0.830989" height="0.824466" fill="#217AB3"/>
<rect x="64.1836" y="36.9092" width="0.830989" height="0.824466" fill="#217AB3"/>
<rect x="64.1836" y="37.7341" width="0.830989" height="0.824466" fill="#217AB3"/>
<rect x="64.1836" y="38.5581" width="0.830989" height="0.824466" fill="#217AB3"/>
<rect x="38.4229" y="13" width="0.830989" height="0.824466" fill="#217AB3"/>
<rect x="39.2539" y="13" width="0.830989" height="0.824466" fill="#217AB3"/>
<rect x="40.916" y="13" width="0.830989" height="0.824466" fill="#217AB3"/>
<rect x="41.7471" y="13" width="0.830989" height="0.824466" fill="#217AB3"/>
<rect x="42.5771" y="13" width="0.830989" height="0.824466" fill="#217AB3"/>
<rect x="43.4082" y="13.824" width="0.830989" height="0.824466" fill="#217AB3"/>
<rect x="45.0703" y="13.824" width="0.830989" height="0.824466" fill="#217AB3"/>
<rect x="45.9014" y="13.824" width="0.830989" height="0.824466" fill="#217AB3"/>
<rect x="47.5635" y="14.6489" width="0.830989" height="0.824466" fill="#217AB3"/>
<rect x="48.3945" y="15.4729" width="0.830989" height="0.824466" fill="#217AB3"/>
<rect x="50.0566" y="16.2979" width="0.830989" height="0.824466" fill="#217AB3"/>
<rect x="52.5498" y="17.1228" width="0.830989" height="0.824466" fill="#217AB3"/>
<rect x="65.0146" y="39.3831" width="0.830989" height="0.824466" fill="#217AB3"/>
<rect x="65.0146" y="40.207" width="0.830989" height="0.824466" fill="#217AB3"/>
<rect x="65.0146" y="41.032" width="0.830989" height="0.824466" fill="#217AB3"/>
<rect x="65.0146" y="41.8569" width="0.830989" height="0.824466" fill="#217AB3"/>
<rect x="64.1836" y="41.8569" width="0.830989" height="0.824466" fill="#217AB3"/>
<rect x="64.1836" y="42.6809" width="0.830989" height="0.824466" fill="#217AB3"/>
<rect x="64.1836" y="43.5049" width="0.830989" height="0.824466" fill="#217AB3"/>
<rect x="64.1836" y="44.3289" width="0.830989" height="0.824466" fill="#217AB3"/>
<rect x="64.1836" y="45.1538" width="0.830989" height="0.824466" fill="#217AB3"/>
<rect x="64.1836" y="45.9788" width="0.830989" height="0.824466" fill="#217AB3"/>
<rect x="64.1836" y="46.8027" width="0.830989" height="0.824466" fill="#217AB3"/>
<rect x="63.3525" y="46.8027" width="0.830989" height="0.824466" fill="#217AB3"/>
<rect x="63.3525" y="47.6277" width="0.830989" height="0.824466" fill="#217AB3"/>
<rect x="63.3525" y="48.4517" width="0.830989" height="0.824466" fill="#217AB3"/>
<rect x="63.3525" y="49.2756" width="0.830989" height="0.824466" fill="#217AB3"/>
<rect x="62.5215" y="49.2756" width="0.830989" height="0.824466" fill="#217AB3"/>
<rect x="62.5215" y="50.1006" width="0.830989" height="0.824466" fill="#217AB3"/>
<rect x="62.5215" y="50.9255" width="0.830989" height="0.824466" fill="#217AB3"/>
<rect x="61.6904" y="50.9255" width="0.830989" height="0.824466" fill="#217AB3"/>
<rect x="61.6904" y="51.7495" width="0.830989" height="0.824466" fill="#217AB3"/>
<rect x="61.6904" y="52.5745" width="0.830989" height="0.824466" fill="#217AB3"/>
<rect x="60.8594" y="52.5745" width="0.830989" height="0.824466" fill="#217AB3"/>
<rect x="60.8594" y="53.3987" width="0.830989" height="0.824466" fill="#217AB3"/>
<rect x="60.0283" y="53.3987" width="0.830989" height="0.824466" fill="#217AB3"/>
<rect x="60.0283" y="54.2234" width="0.830989" height="0.824466" fill="#217AB3"/>
<rect x="60.0283" y="55.0476" width="0.830989" height="0.824466" fill="#217AB3"/>
<rect x="59.1973" y="55.0476" width="0.830989" height="0.824466" fill="#217AB3"/>
<rect x="59.1973" y="55.8726" width="0.830989" height="0.824466" fill="#217AB3"/>
<rect x="58.3662" y="55.8726" width="0.830989" height="0.824466" fill="#217AB3"/>
<rect x="58.3662" y="56.6965" width="0.830989" height="0.824466" fill="#217AB3"/>
<rect x="57.5352" y="56.6965" width="0.830989" height="0.824466" fill="#217AB3"/>
<rect x="57.5352" y="57.5205" width="0.830989" height="0.824466" fill="#217AB3"/>
<rect x="56.7041" y="57.5205" width="0.830989" height="0.824466" fill="#217AB3"/>
<rect x="56.7041" y="58.3455" width="0.830989" height="0.824466" fill="#217AB3"/>
<rect x="55.873" y="58.3455" width="0.830989" height="0.824466" fill="#217AB3"/>
<rect x="55.873" y="59.1704" width="0.830989" height="0.824466" fill="#217AB3"/>
<rect x="55.042" y="59.1704" width="0.830989" height="0.824466" fill="#217AB3"/>
<rect x="55.042" y="59.9944" width="0.830989" height="0.824466" fill="#217AB3"/>
<rect x="54.2109" y="59.9944" width="0.830989" height="0.824466" fill="#217AB3"/>
<rect x="54.2109" y="60.8193" width="0.830989" height="0.824466" fill="#217AB3"/>
<rect x="53.3799" y="60.8193" width="0.830989" height="0.824466" fill="#217AB3"/>
<rect x="53.3799" y="61.6433" width="0.830989" height="0.824466" fill="#217AB3"/>
<rect x="52.5498" y="61.6433" width="0.830989" height="0.824466" fill="#217AB3"/>
<rect x="50.8877" y="60.8193" width="0.830989" height="0.824466" fill="#217AB3"/>
<rect x="51.7188" y="61.6433" width="0.830989" height="0.824466" fill="#217AB3"/>
<rect x="51.7188" y="62.4683" width="0.830989" height="0.824466" fill="#217AB3"/>
<rect x="50.8877" y="62.4683" width="0.830989" height="0.824466" fill="#217AB3"/>
<rect x="50.0566" y="63.2922" width="0.830989" height="0.824466" fill="#217AB3"/>
<rect x="49.2256" y="63.2922" width="0.830989" height="0.824466" fill="#217AB3"/>
<rect x="48.3945" y="64.1172" width="0.830989" height="0.824466" fill="#217AB3"/>
<rect x="47.5635" y="64.1172" width="0.830989" height="0.824466" fill="#217AB3"/>
<rect x="45.9014" y="64.9412" width="0.830989" height="0.824466" fill="#217AB3"/>
<rect x="45.0703" y="64.9412" width="0.830989" height="0.824466" fill="#217AB3"/>
<rect x="42.5771" y="65.7651" width="0.830989" height="0.824466" fill="#217AB3"/>
<rect x="41.7471" y="65.7651" width="0.830989" height="0.824466" fill="#217AB3"/>
<rect x="38.4229" y="65.7651" width="0.830989" height="0.824466" fill="#217AB3"/>
<rect x="37.5918" y="65.7651" width="0.830989" height="0.824466" fill="#217AB3"/>
<rect x="39.2539" y="65.7651" width="0.830989" height="0.824466" fill="#217AB3"/>
<rect x="40.085" y="65.7651" width="0.830989" height="0.824466" fill="#217AB3"/>
<rect x="40.916" y="65.7651" width="0.830989" height="0.824466" fill="#217AB3"/>
<rect x="43.4082" y="65.7651" width="0.830989" height="0.824466" fill="#217AB3"/>
<rect x="44.2393" y="64.9412" width="0.830989" height="0.824466" fill="#217AB3"/>
<rect x="44.2393" y="65.7651" width="0.830989" height="0.824466" fill="#217AB3"/>
<rect x="46.7324" y="64.1172" width="0.830989" height="0.824466" fill="#217AB3"/>
<rect x="46.7324" y="64.9412" width="0.830989" height="0.824466" fill="#217AB3"/>
<rect x="49.2256" y="64.1172" width="0.830989" height="0.824466" fill="#217AB3"/>
<rect x="50.8877" y="63.2922" width="0.830989" height="0.824466" fill="#217AB3"/>
<rect x="11.8311" y="39.3831" width="0.830989" height="0.824466" fill="#217AB3"/>
<rect x="11.8311" y="40.207" width="0.830989" height="0.824466" fill="#217AB3"/>
<rect x="11.8311" y="41.032" width="0.830989" height="0.824466" fill="#217AB3"/>
<rect x="11.8311" y="41.8569" width="0.830989" height="0.824466" fill="#217AB3"/>
<rect x="11.8311" y="42.6809" width="0.830989" height="0.824466" fill="#217AB3"/>
<rect x="11" y="43.5049" width="0.830989" height="0.824466" fill="#217AB3"/>
<rect x="12.6621" y="43.5049" width="0.830989" height="0.824466" fill="#217AB3"/>
<rect x="12.6621" y="44.3289" width="0.830989" height="0.824466" fill="#217AB3"/>
<rect x="12.6621" y="45.1538" width="0.830989" height="0.824466" fill="#217AB3"/>
<rect x="12.6621" y="45.9788" width="0.830989" height="0.824466" fill="#217AB3"/>
<rect x="11.8311" y="46.8027" width="0.830989" height="0.824466" fill="#217AB3"/>
<rect x="13.4932" y="46.8027" width="0.830989" height="0.824466" fill="#217AB3"/>
<rect x="13.4932" y="47.6277" width="0.830989" height="0.824466" fill="#217AB3"/>
<rect x="13.4932" y="48.4517" width="0.830989" height="0.824466" fill="#217AB3"/>
<rect x="12.6621" y="49.2756" width="0.830989" height="0.824466" fill="#217AB3"/>
<rect x="14.3242" y="49.2756" width="0.830989" height="0.824466" fill="#217AB3"/>
<rect x="14.3242" y="50.1006" width="0.830989" height="0.824466" fill="#217AB3"/>
<rect x="13.4932" y="50.9255" width="0.830989" height="0.824466" fill="#217AB3"/>
<rect x="15.1553" y="50.9255" width="0.830989" height="0.824466" fill="#217AB3"/>
<rect x="15.1553" y="51.7495" width="0.830989" height="0.824466" fill="#217AB3"/>
<rect x="14.3242" y="52.5745" width="0.830989" height="0.824466" fill="#217AB3"/>
<rect x="15.9863" y="52.5745" width="0.830989" height="0.824466" fill="#217AB3"/>
<rect x="15.9863" y="53.3987" width="0.830989" height="0.824466" fill="#217AB3"/>
<rect x="15.1553" y="54.2234" width="0.830989" height="0.824466" fill="#217AB3"/>
<rect x="16.8164" y="54.2234" width="0.830989" height="0.824466" fill="#217AB3"/>
<rect x="15.9863" y="55.0476" width="0.830989" height="0.824466" fill="#217AB3"/>
<rect x="17.6475" y="55.0476" width="0.830989" height="0.824466" fill="#217AB3"/>
<rect x="16.8164" y="55.8726" width="0.830989" height="0.824466" fill="#217AB3"/>
<rect x="18.4785" y="55.8726" width="0.830989" height="0.824466" fill="#217AB3"/>
<rect x="18.4785" y="56.6965" width="0.830989" height="0.824466" fill="#217AB3"/>
<rect x="17.6475" y="57.5205" width="0.830989" height="0.824466" fill="#217AB3"/>
<rect x="19.3096" y="57.5205" width="0.830989" height="0.824466" fill="#217AB3"/>
<rect x="18.4785" y="58.3455" width="0.830989" height="0.824466" fill="#217AB3"/>
<rect x="20.1406" y="59.1704" width="0.830989" height="0.824466" fill="#217AB3"/>
<rect x="19.3096" y="59.1704" width="0.830989" height="0.824466" fill="#217AB3"/>
<rect x="21.8027" y="59.1704" width="0.830989" height="0.824466" fill="#217AB3"/>
<rect x="20.9717" y="59.9944" width="0.830989" height="0.824466" fill="#217AB3"/>
<rect x="22.6338" y="59.9944" width="0.830989" height="0.824466" fill="#217AB3"/>
<rect x="21.8027" y="60.8193" width="0.830989" height="0.824466" fill="#217AB3"/>
<rect x="23.4648" y="61.6433" width="0.830989" height="0.824466" fill="#217AB3"/>
<rect x="22.6338" y="61.6433" width="0.830989" height="0.824466" fill="#217AB3"/>
<rect x="24.2959" y="60.8193" width="0.830989" height="0.824466" fill="#217AB3"/>
<rect x="25.127" y="61.6433" width="0.830989" height="0.824466" fill="#217AB3"/>
<rect x="24.2959" y="62.4683" width="0.830989" height="0.824466" fill="#217AB3"/>
<rect x="26.7891" y="62.4683" width="0.830989" height="0.824466" fill="#217AB3"/>
<rect x="25.958" y="63.2922" width="0.830989" height="0.824466" fill="#217AB3"/>
<rect x="28.4512" y="64.1172" width="0.830989" height="0.824466" fill="#217AB3"/>
<rect x="27.6201" y="64.1172" width="0.830989" height="0.824466" fill="#217AB3"/>
<rect x="30.9434" y="64.9412" width="0.830989" height="0.824466" fill="#217AB3"/>
<rect x="30.1123" y="64.9412" width="0.830989" height="0.824466" fill="#217AB3"/>
<rect x="34.2676" y="65.7651" width="0.830989" height="0.824466" fill="#217AB3"/>
<rect x="33.4365" y="65.7651" width="0.830989" height="0.824466" fill="#217AB3"/>
<rect x="20.9717" y="58.3455" width="0.830989" height="0.824466" fill="#217AB3"/>
<rect x="25.127" y="63.2922" width="0.830989" height="0.824466" fill="#217AB3"/>
<rect x="26.7891" y="64.1172" width="0.830989" height="0.824466" fill="#217AB3"/>
<rect x="29.2822" y="63.2922" width="0.830989" height="0.824466" fill="#217AB3"/>
<rect x="29.2822" y="64.9412" width="0.830989" height="0.824466" fill="#217AB3"/>
<rect x="31.7744" y="64.1172" width="0.830989" height="0.824466" fill="#217AB3"/>
<rect x="32.6055" y="65.7651" width="0.830989" height="0.824466" fill="#217AB3"/>
<rect x="31.7744" y="65.7651" width="0.830989" height="0.824466" fill="#217AB3"/>
<rect x="35.0986" y="65.7651" width="0.830989" height="0.824466" fill="#217AB3"/>
<rect x="35.9297" y="65.7651" width="0.830989" height="0.824466" fill="#217AB3"/>
<rect x="36.7607" y="65.7651" width="0.830989" height="0.824466" fill="#217AB3"/>
<rect x="35.9297" y="13.824" width="0.830989" height="0.824466" fill="#217AB3"/>
<rect x="35.0986" y="13.824" width="0.830989" height="0.824466" fill="#217AB3"/>
<rect x="30.9434" y="14.6489" width="0.830989" height="0.824466" fill="#217AB3"/>
<rect x="30.1123" y="14.6489" width="0.830989" height="0.824466" fill="#217AB3"/>
<rect x="28.4512" y="15.4729" width="0.830989" height="0.824466" fill="#217AB3"/>
<rect x="27.6201" y="15.4729" width="0.830989" height="0.824466" fill="#217AB3"/>
<rect x="26.7891" y="16.2979" width="0.830989" height="0.824466" fill="#217AB3"/>
<rect x="25.958" y="16.2979" width="0.830989" height="0.824466" fill="#217AB3"/>
<rect x="25.127" y="17.1228" width="0.830989" height="0.824466" fill="#217AB3"/>
<rect x="24.2959" y="17.1228" width="0.830989" height="0.824466" fill="#217AB3"/>
<rect x="24.2959" y="17.9468" width="0.830989" height="0.824466" fill="#217AB3"/>
<rect x="23.4648" y="17.9468" width="0.830989" height="0.824466" fill="#217AB3"/>
<rect x="22.6338" y="17.9468" width="0.830989" height="0.824466" fill="#217AB3"/>
<rect x="22.6338" y="18.7708" width="0.830989" height="0.824466" fill="#217AB3"/>
<rect x="21.8027" y="18.7708" width="0.830989" height="0.824466" fill="#217AB3"/>
<rect x="21.8027" y="19.5957" width="0.830989" height="0.824466" fill="#217AB3"/>
<rect x="20.9717" y="19.5957" width="0.830989" height="0.824466" fill="#217AB3"/>
<rect x="20.1406" y="18.7708" width="0.830989" height="0.824466" fill="#217AB3"/>
<rect x="20.9717" y="20.4207" width="0.830989" height="0.824466" fill="#217AB3"/>
<rect x="20.1406" y="20.4207" width="0.830989" height="0.824466" fill="#217AB3"/>
<rect x="20.1406" y="21.2446" width="0.830989" height="0.824466" fill="#217AB3"/>
<rect x="19.3096" y="21.2446" width="0.830989" height="0.824466" fill="#217AB3"/>
<rect x="19.3096" y="22.0686" width="0.830989" height="0.824466" fill="#217AB3"/>
<rect x="18.4785" y="22.0686" width="0.830989" height="0.824466" fill="#217AB3"/>
<rect x="18.4785" y="22.8936" width="0.830989" height="0.824466" fill="#217AB3"/>
<rect x="17.6475" y="22.8936" width="0.830989" height="0.824466" fill="#217AB3"/>
<rect x="17.6475" y="23.7175" width="0.830989" height="0.824466" fill="#217AB3"/>
<rect x="16.8164" y="23.7175" width="0.830989" height="0.824466" fill="#217AB3"/>
<rect x="16.8164" y="24.5425" width="0.830989" height="0.824466" fill="#217AB3"/>
<rect x="15.9863" y="24.5425" width="0.830989" height="0.824466" fill="#217AB3"/>
<rect x="15.9863" y="25.3674" width="0.830989" height="0.824466" fill="#217AB3"/>
<rect x="15.9863" y="26.1914" width="0.830989" height="0.824466" fill="#217AB3"/>
<rect x="15.1553" y="26.1914" width="0.830989" height="0.824466" fill="#217AB3"/>
<rect x="14.3242" y="25.3674" width="0.830989" height="0.824466" fill="#217AB3"/>
<rect x="15.1553" y="27.0156" width="0.830989" height="0.824466" fill="#217AB3"/>
<rect x="15.1553" y="27.8406" width="0.830989" height="0.824466" fill="#217AB3"/>
<rect x="14.3242" y="27.8406" width="0.830989" height="0.824466" fill="#217AB3"/>
<rect x="14.3242" y="28.6646" width="0.830989" height="0.824466" fill="#217AB3"/>
<rect x="14.3242" y="29.4895" width="0.830989" height="0.824466" fill="#217AB3"/>
<rect x="13.4932" y="29.4895" width="0.830989" height="0.824466" fill="#217AB3"/>
<rect x="13.4932" y="30.3135" width="0.830989" height="0.824466" fill="#217AB3"/>
<rect x="13.4932" y="31.1384" width="0.830989" height="0.824466" fill="#217AB3"/>
<rect x="13.4932" y="31.9624" width="0.830989" height="0.824466" fill="#217AB3"/>
<rect x="12.6621" y="31.9624" width="0.830989" height="0.824466" fill="#217AB3"/>
<rect x="12.6621" y="32.7874" width="0.830989" height="0.824466" fill="#217AB3"/>
<rect x="12.6621" y="33.6123" width="0.830989" height="0.824466" fill="#217AB3"/>
<rect x="12.6621" y="34.4363" width="0.830989" height="0.824466" fill="#217AB3"/>
<rect x="12.6621" y="35.2603" width="0.830989" height="0.824466" fill="#217AB3"/>
<rect x="11.8311" y="35.2603" width="0.830989" height="0.824466" fill="#217AB3"/>
<rect x="11.8311" y="36.0842" width="0.830989" height="0.824466" fill="#217AB3"/>
<rect x="11.8311" y="36.9092" width="0.830989" height="0.824466" fill="#217AB3"/>
<rect x="11.8311" y="37.7341" width="0.830989" height="0.824466" fill="#217AB3"/>
<rect x="11.8311" y="38.5581" width="0.830989" height="0.824466" fill="#217AB3"/>
<rect x="25.958" y="17.1228" width="0.830989" height="0.824466" fill="#217AB3"/>
<rect x="27.6201" y="16.2979" width="0.830989" height="0.824466" fill="#217AB3"/>
<rect x="29.2822" y="14.6489" width="0.830989" height="0.824466" fill="#217AB3"/>
<rect x="29.2822" y="15.4729" width="0.830989" height="0.824466" fill="#217AB3"/>
<rect x="31.7744" y="14.6489" width="0.830989" height="0.824466" fill="#217AB3"/>
<rect x="32.6055" y="13.824" width="0.830989" height="0.824466" fill="#217AB3"/>
<rect x="32.6055" y="14.6489" width="0.830989" height="0.824466" fill="#217AB3"/>
<rect x="33.4365" y="13.824" width="0.830989" height="0.824466" fill="#217AB3"/>
<rect x="34.2676" y="13.824" width="0.830989" height="0.824466" fill="#217AB3"/>
<rect x="36.7607" y="13.824" width="0.830989" height="0.824466" fill="#217AB3"/>
<rect x="37.5918" y="13.824" width="0.830989" height="0.824466" fill="#217AB3"/>
<rect x="38.4229" y="13.824" width="0.830989" height="0.824466" fill="#217AB3"/>
<rect x="40.916" y="13.824" width="0.830989" height="0.824466" fill="#217AB3"/>
<rect x="40.085" y="13.824" width="0.830989" height="0.824466" fill="#217AB3"/>
<rect x="45.0703" y="14.6489" width="0.830989" height="0.824466" fill="#217AB3"/>
<rect x="44.2393" y="14.6489" width="0.830989" height="0.824466" fill="#217AB3"/>
<rect x="47.5635" y="15.4729" width="0.830989" height="0.824466" fill="#217AB3"/>
<rect x="46.7324" y="15.4729" width="0.830989" height="0.824466" fill="#217AB3"/>
<rect x="50.0566" y="15.4729" width="0.830989" height="0.824466" fill="#217AB3"/>
<rect x="49.2256" y="16.2979" width="0.830989" height="0.824466" fill="#217AB3"/>
<rect x="51.7188" y="16.2979" width="0.830989" height="0.824466" fill="#217AB3"/>
<rect x="50.8877" y="17.1228" width="0.830989" height="0.824466" fill="#217AB3"/>
<rect x="52.5498" y="17.9468" width="0.830989" height="0.824466" fill="#217AB3"/>
<rect x="51.7188" y="17.9468" width="0.830989" height="0.824466" fill="#217AB3"/>
<rect x="54.2109" y="17.9468" width="0.830989" height="0.824466" fill="#217AB3"/>
<rect x="53.3799" y="18.7708" width="0.830989" height="0.824466" fill="#217AB3"/>
<rect x="55.042" y="18.7708" width="0.830989" height="0.824466" fill="#217AB3"/>
<rect x="54.2109" y="19.5957" width="0.830989" height="0.824466" fill="#217AB3"/>
<rect x="55.873" y="19.5957" width="0.830989" height="0.824466" fill="#217AB3"/>
<rect x="55.042" y="20.4207" width="0.830989" height="0.824466" fill="#217AB3"/>
<rect x="56.7041" y="20.4207" width="0.830989" height="0.824466" fill="#217AB3"/>
<rect x="55.873" y="21.2446" width="0.830989" height="0.824466" fill="#217AB3"/>
<rect x="57.5352" y="21.2446" width="0.830989" height="0.824466" fill="#217AB3"/>
<rect x="56.7041" y="22.0686" width="0.830989" height="0.824466" fill="#217AB3"/>
<rect x="58.3662" y="22.0686" width="0.830989" height="0.824466" fill="#217AB3"/>
<rect x="57.5352" y="22.8936" width="0.830989" height="0.824466" fill="#217AB3"/>
<rect x="59.1973" y="22.8936" width="0.830989" height="0.824466" fill="#217AB3"/>
<rect x="58.3662" y="23.7175" width="0.830989" height="0.824466" fill="#217AB3"/>
<rect x="60.0283" y="23.7175" width="0.830989" height="0.824466" fill="#217AB3"/>
<rect x="60.0283" y="24.5425" width="0.830989" height="0.824466" fill="#217AB3"/>
<rect x="59.1973" y="25.3674" width="0.830989" height="0.824466" fill="#217AB3"/>
<rect x="60.8594" y="25.3674" width="0.830989" height="0.824466" fill="#217AB3"/>
<rect x="60.0283" y="26.1914" width="0.830989" height="0.824466" fill="#217AB3"/>
<rect x="61.6904" y="26.1914" width="0.830989" height="0.824466" fill="#217AB3"/>
<rect x="61.6904" y="27.0156" width="0.830989" height="0.824466" fill="#217AB3"/>
<rect x="60.8594" y="27.8406" width="0.830989" height="0.824466" fill="#217AB3"/>
<rect x="62.5215" y="27.8406" width="0.830989" height="0.824466" fill="#217AB3"/>
<rect x="62.5215" y="28.6646" width="0.830989" height="0.824466" fill="#217AB3"/>
<rect x="62.5215" y="29.4895" width="0.830989" height="0.824466" fill="#217AB3"/>
<rect x="61.6904" y="30.3135" width="0.830989" height="0.824466" fill="#217AB3"/>
<rect x="63.3525" y="30.3135" width="0.830989" height="0.824466" fill="#217AB3"/>
<rect x="63.3525" y="31.1384" width="0.830989" height="0.824466" fill="#217AB3"/>
<rect x="63.3525" y="31.9624" width="0.830989" height="0.824466" fill="#217AB3"/>
<rect x="62.5215" y="32.7874" width="0.830989" height="0.824466" fill="#217AB3"/>
<rect x="64.1836" y="32.7874" width="0.830989" height="0.824466" fill="#217AB3"/>
<rect x="64.1836" y="33.6123" width="0.830989" height="0.824466" fill="#217AB3"/>
<rect x="64.1836" y="34.4363" width="0.830989" height="0.824466" fill="#217AB3"/>
<rect x="64.1836" y="35.2603" width="0.830989" height="0.824466" fill="#217AB3"/>
<rect x="64.1836" y="36.0842" width="0.830989" height="0.824466" fill="#217AB3"/>
<rect x="63.3525" y="36.9092" width="0.830989" height="0.824466" fill="#217AB3"/>
<rect x="65.0146" y="36.9092" width="0.830989" height="0.824466" fill="#217AB3"/>
<rect x="65.0146" y="37.7341" width="0.830989" height="0.824466" fill="#217AB3"/>
<rect x="65.0146" y="38.5581" width="0.830989" height="0.824466" fill="#217AB3"/>
<rect x="39.2539" y="13.824" width="0.830989" height="0.824466" fill="#217AB3"/>
<rect x="41.7471" y="13.824" width="0.830989" height="0.824466" fill="#217AB3"/>
<rect x="42.5771" y="13.824" width="0.830989" height="0.824466" fill="#217AB3"/>
<rect x="43.4082" y="13" width="0.830989" height="0.824466" fill="#217AB3"/>
<rect x="43.4082" y="14.6489" width="0.830989" height="0.824466" fill="#217AB3"/>
<rect x="45.9014" y="14.6489" width="0.830989" height="0.824466" fill="#217AB3"/>
<rect x="46.7324" y="13.824" width="0.830989" height="0.824466" fill="#217AB3"/>
<rect x="48.3945" y="14.6489" width="0.830989" height="0.824466" fill="#217AB3"/>
<rect x="48.3945" y="16.2979" width="0.830989" height="0.824466" fill="#217AB3"/>
<rect x="50.0566" y="17.1228" width="0.830989" height="0.824466" fill="#217AB3"/>
<rect x="53.3799" y="17.1228" width="0.830989" height="0.824466" fill="#217AB3"/>
<path d="M25.2832 28.1819H28.3007C31.6269 28.1819 34.6484 27.4124 37.1948 25.0794C37.6294 24.6764 39.0183 24.5797 39.3635 24.9303C42.0602 27.6541 45.4228 28.2585 48.9967 28.1538C50.8121 28.0973 51.3401 28.7984 51.1776 30.5149C50.8744 33.7062 50.651 36.9055 50.5075 40.1128C50.4328 41.1566 50.5866 42.204 50.9583 43.1832C51.8193 45.1979 52.1157 47.1682 51.0355 49.1063C50.4831 50.0935 50.6415 49.9041 50.4263 50.3272C49.8293 50.1056 49.8171 50.1257 49.5084 50.4642C49.7156 50.7825 49.0576 51.1613 48.8018 51.3345C48.3957 51.5965 48.9247 51.5899 48.3764 51.6262C48.3926 51.5496 47.7028 52.0066 47.6726 51.9912C47.6423 51.9759 46.4632 52.5753 46.4632 52.5753C45.2448 52.9782 47.2138 52.3298 44.1436 53.325C42.6368 53.8166 41.1545 54.417 39.6153 54.7595C38.6919 54.9946 37.7203 54.9653 36.8131 54.6749C29.6206 51.7859 26.2132 46.2374 25.8031 38.6824C25.6041 35.3018 25.4579 31.8809 25.2832 28.1819Z" fill="#217AB3"/>
<rect x="25.668" y="27.5513" width="1.27547" height="1.26546" fill="#217AB3"/>
<rect x="26.9434" y="27.5513" width="1.27547" height="1.26546" fill="#217AB3"/>
<rect x="24.3926" y="27.5513" width="1.27547" height="1.26546" fill="#217AB3"/>
<rect x="28.2188" y="27.5513" width="1.27547" height="1.26546" fill="#217AB3"/>
<rect x="35.8721" y="25.0208" width="1.27547" height="1.26546" fill="#217AB3"/>
<rect x="33.3213" y="26.2861" width="1.27547" height="1.26546" fill="#217AB3"/>
<rect x="29.4941" y="27.5513" width="1.27547" height="1.26546" fill="#217AB3"/>
<rect x="30.7695" y="27.5513" width="1.27547" height="1.26546" fill="#217AB3"/>
<rect x="32.0449" y="27.5513" width="1.27547" height="1.26546" fill="#217AB3"/>
<rect x="34.5967" y="26.2861" width="1.27547" height="1.26546" fill="#217AB3"/>
<rect x="37.1475" y="23.7554" width="1.27547" height="1.26546" fill="#217AB3"/>
<rect x="38.4229" y="23.7554" width="1.27547" height="1.26546" fill="#217AB3"/>
<rect x="39.6982" y="25.0208" width="1.27547" height="1.26546" fill="#217AB3"/>
<rect x="40.9736" y="26.2861" width="1.27547" height="1.26546" fill="#217AB3"/>
<rect x="42.249" y="26.2861" width="1.27547" height="1.26546" fill="#217AB3"/>
<rect x="43.5244" y="27.5513" width="1.27547" height="1.26546" fill="#217AB3"/>
<rect x="44.7998" y="27.5513" width="1.27547" height="1.26546" fill="#217AB3"/>
<rect x="46.0752" y="27.5513" width="1.27547" height="1.26546" fill="#217AB3"/>
<rect x="47.3506" y="27.5513" width="1.27547" height="1.26546" fill="#217AB3"/>
<rect x="48.627" y="27.5513" width="1.27547" height="1.26546" fill="#217AB3"/>
<rect x="49.9023" y="28.8176" width="1.27547" height="1.26546" fill="#217AB3"/>
<rect x="49.9023" y="27.5513" width="1.27547" height="1.26546" fill="#217AB3"/>
<rect x="49.9023" y="30.083" width="1.27547" height="1.26546" fill="#217AB3"/>
<rect x="49.9023" y="31.3484" width="1.27547" height="1.26546" fill="#217AB3"/>
<rect x="49.9023" y="32.6138" width="1.27547" height="1.26546" fill="#217AB3"/>
<rect x="49.9023" y="33.8789" width="1.27547" height="1.26546" fill="#217AB3"/>
<rect x="49.9023" y="35.1443" width="1.27547" height="1.26546" fill="#217AB3"/>
<rect x="49.9023" y="36.4097" width="1.27547" height="1.26546" fill="#217AB3"/>
<rect x="49.9023" y="37.675" width="1.27547" height="1.26546" fill="#217AB3"/>
<rect x="49.9023" y="38.9412" width="1.27547" height="1.26546" fill="#217AB3"/>
<rect x="49.9023" y="40.2065" width="1.27547" height="1.26546" fill="#217AB3"/>
<rect x="49.9023" y="41.4719" width="1.27547" height="1.26546" fill="#217AB3"/>
<rect x="49.9023" y="42.7373" width="1.27547" height="1.26546" fill="#217AB3"/>
<rect x="51.1777" y="44.0027" width="1.27547" height="1.26546" fill="#217AB3"/>
<rect x="51.1777" y="45.2678" width="1.27547" height="1.26546" fill="#217AB3"/>
<rect x="51.1777" y="46.5332" width="1.27547" height="1.26546" fill="#217AB3"/>
<rect x="51.1777" y="47.7996" width="1.27547" height="1.26546" fill="#217AB3"/>
<rect x="49.9023" y="49.0649" width="1.27547" height="1.26546" fill="#217AB3"/>
<rect x="48.627" y="50.3303" width="1.27547" height="1.26546" fill="#217AB3"/>
<rect x="47.3506" y="51.5955" width="1.27547" height="1.26546" fill="#217AB3"/>
<rect x="46.0752" y="51.5955" width="1.27547" height="1.26546" fill="#217AB3"/>
<rect x="43.5244" y="52.8608" width="1.27547" height="1.26546" fill="#217AB3"/>
<rect x="44.7998" y="51.5955" width="1.27547" height="1.26546" fill="#217AB3"/>
<rect x="42.249" y="52.8608" width="1.27547" height="1.26546" fill="#217AB3"/>
<rect x="39.6982" y="54.1262" width="1.27547" height="1.26546" fill="#217AB3"/>
<rect x="40.9736" y="54.1262" width="1.27547" height="1.26546" fill="#217AB3"/>
<rect x="38.4229" y="54.1262" width="1.27547" height="1.26546" fill="#217AB3"/>
<rect x="37.1475" y="54.1262" width="1.27547" height="1.26546" fill="#217AB3"/>
<rect x="35.8721" y="54.1262" width="1.27547" height="1.26546" fill="#217AB3"/>
<rect x="25.668" y="38.9412" width="1.27547" height="1.26546" fill="#217AB3"/>
<rect x="25.668" y="40.2065" width="1.27547" height="1.26546" fill="#217AB3"/>
<rect x="25.668" y="41.4719" width="1.27547" height="1.26546" fill="#217AB3"/>
<rect x="25.668" y="42.7373" width="1.27547" height="1.26546" fill="#217AB3"/>
<rect x="25.668" y="44.0027" width="1.27547" height="1.26546" fill="#217AB3"/>
<rect x="26.9434" y="45.2678" width="1.27547" height="1.26546" fill="#217AB3"/>
<rect x="26.9434" y="46.5332" width="1.27547" height="1.26546" fill="#217AB3"/>
<rect x="28.2188" y="47.7996" width="1.27547" height="1.26546" fill="#217AB3"/>
<rect x="29.4941" y="49.0649" width="1.27547" height="1.26546" fill="#217AB3"/>
<rect x="30.7695" y="50.3303" width="1.27547" height="1.26546" fill="#217AB3"/>
<rect x="32.0449" y="51.5955" width="1.27547" height="1.26546" fill="#217AB3"/>
<rect x="33.3213" y="52.8608" width="1.27547" height="1.26546" fill="#217AB3"/>
<rect x="34.5967" y="52.8608" width="1.27547" height="1.26546" fill="#217AB3"/>
<rect x="25.668" y="37.675" width="1.27547" height="1.26546" fill="#217AB3"/>
<rect x="24.3926" y="28.8176" width="1.27547" height="1.26546" fill="#217AB3"/>
<rect x="24.3926" y="30.083" width="1.27547" height="1.26546" fill="#217AB3"/>
<rect x="24.3926" y="31.3484" width="1.27547" height="1.26546" fill="#217AB3"/>
<rect x="24.3926" y="32.6138" width="1.27547" height="1.26546" fill="#217AB3"/>
<rect x="24.3926" y="33.8789" width="1.27547" height="1.26546" fill="#217AB3"/>
<rect x="24.3926" y="35.1443" width="1.27547" height="1.26546" fill="#217AB3"/>
<rect x="24.3926" y="36.4097" width="1.27547" height="1.26546" fill="#217AB3"/>
</svg>
