<svg width="301" height="76" viewBox="0 0 301 76" fill="none" xmlns="http://www.w3.org/2000/svg">
<path d="M287.609 74.4996L13.5227 74.4292V72.5729V71.0729H12.0227H7.56473L7.41122 68.9939L7.32958 67.8884L6.24877 67.6419C5.48925 67.4687 5.05554 67.3671 4.75687 67.2589C4.68984 67.2347 4.64312 67.2146 4.61181 67.1997C4.5965 67.1412 4.57346 67.0295 4.55451 66.8366C4.51348 66.419 4.50712 65.8457 4.49951 64.9475C4.49943 64.2285 4.48645 63.5677 4.40321 63.0057C4.31748 62.4268 4.13832 61.805 3.69612 61.2654C3.25156 60.7229 2.67689 60.4288 2.12826 60.2375C1.93235 60.1692 1.72193 60.1081 1.5 60.0518V15.7485C1.76564 15.7026 2.01894 15.6487 2.25035 15.5808C2.80208 15.4188 3.40737 15.1286 3.84856 14.515C4.25371 13.9516 4.38241 13.2991 4.44217 12.7393C4.50314 12.1681 4.51066 11.4617 4.51427 10.6555H4.51429V10.6488V10.6423V10.6359V10.6294V10.6229V10.6165V10.61V10.6035V10.5971V10.5906V10.5842V10.5777V10.5712V10.5648V10.5583V10.5518V10.5454V10.5389V10.5325V10.526V10.5195V10.5131V10.5066V10.5001V10.4937V10.4872V10.4808V10.4743V10.4678V10.4614V10.4549V10.4484V10.442V10.4355V10.429V10.4226V10.4161V10.4096V10.4032V10.3967V10.3903V10.3838V10.3773V10.3709V10.3644V10.3579V10.3515V10.345V10.3385V10.3321V10.3256V10.3191V10.3126V10.3062V10.2997V10.2932V10.2868V10.2803V10.2738V10.2674V10.2609V10.2544V10.248V10.2415V10.235V10.2285V10.2221V10.2156V10.2091V10.2026V10.1962V10.1897V10.1832V10.1768V10.1703V10.1638V10.1573V10.1509V10.1444V10.1379V10.1314V10.1249V10.1185V10.112V10.1055V10.099V10.0926V10.0861V10.0796V10.0731V10.0666V10.0601V10.0537V10.0472V10.0407V10.0342V10.0277V10.0213V10.0148V10.0083V10.0018V9.99531V9.98882V9.98234V9.97585V9.96936V9.96287V9.95638V9.94989V9.9434V9.93691V9.93042V9.92393V9.91744V9.91095V9.90445V9.89796V9.89147V9.88497V9.87848V9.87198V9.86548V9.85899V9.85249V9.84599V9.83949V9.83299V9.82649V9.81999V9.81349V9.80699V9.80049V9.79398V9.78748V9.78097V9.77447V9.76796V9.76146V9.75495V9.74844V9.74193V9.73542V9.72892V9.72241V9.71589V9.70938V9.70287V9.69636V9.68984V9.68333V9.67681V9.6703V9.66378V9.65726V9.65075V9.64423V9.63771V9.63119V9.62467V9.61814V9.61162V9.6051V9.59857V9.59205V9.58552V9.579V9.57247V9.56594V9.55941V9.55288V9.54635V9.53982V9.53329V9.52676V9.52022V9.51369V9.50715V9.50062V9.49408V9.48754V9.481V9.47446V9.46792V9.46138V9.45484V9.4483V9.44175V9.43521V9.42866V9.42212V9.41557V9.40902V9.40247V9.39592V9.38937V9.38282V9.37626V9.36971V9.36316V9.3566V9.35004V9.34348V9.33693V9.33037V9.32381V9.31724V9.31068V9.30412V9.29755V9.29099V9.28442V9.27785V9.27129V9.26472V9.25815V9.25157V9.245V9.23843V9.23185V9.22528V9.2187V9.21212V9.20554V9.19896V9.19238V9.1858V9.17922V9.17263V9.16605V9.15946V9.15287V9.14629V9.1397V9.1331V9.12651V9.11992V9.11333V9.10673V9.10013V9.09354V9.08694V9.08034V9.07374V9.06713V9.06053V9.05393V9.04732V9.04071V9.03411V9.0275V9.02089V9.01427V9.00766V9.00105V8.99443V8.98782V8.9812V8.97458V8.96796V8.96134V8.95472V8.94809V8.94147V8.93484V8.92821V8.92159V8.91496V8.90832V8.90169V8.89506V8.88842V8.88179V8.87515V8.86851V8.86187V8.85523V8.84858V8.84194V8.83529V8.82865V8.822V8.81535V8.8087V8.80205V8.79539V8.78874V8.78208V8.77542V8.76877V8.7621V8.75544V8.74878V8.74212V8.73545V8.72878V8.72211V8.71544V8.70877V8.7021V8.69542V8.68875V8.68207V8.67539V8.66871V8.66203V8.65535V8.64884L6.0566 8.5591L7.4148 8.48007L7.46831 7.12062L7.5495 5.0575H11.9291H13.3503L13.4269 3.63837L13.5424 1.5H287.569L287.738 3.67345L287.845 5.0575H289.233H293.594C293.624 5.75357 293.654 6.43093 293.69 7.18575L293.757 8.615H295.188H296.604V10.6251C296.604 11.4584 296.605 12.1878 296.663 12.7709C296.719 13.3444 296.847 14.0209 297.28 14.6012C297.742 15.2212 298.375 15.5016 298.93 15.6612C299.107 15.712 299.298 15.7564 299.5 15.7967V60.1326C299.279 60.1856 299.069 60.2436 298.876 60.3097C298.302 60.506 297.693 60.8305 297.259 61.4739C296.86 62.0648 296.735 62.7451 296.677 63.3532C296.619 63.9726 296.615 64.7475 296.614 65.6516V65.6536V65.6594V65.6652V65.6709V65.6767V65.6824V65.6882V65.694V65.6998V65.7055V65.7113V65.7171V65.7228V65.7286V65.7344V65.7401V65.7459V65.7517V65.7574V65.7632V65.769V65.7747V65.7805V65.7863V65.792V65.7978V65.8036V65.8093V65.8151V65.8209V65.8267V65.8324V65.8382V65.844V65.8497V65.8555V65.8613V65.8671V65.8728V65.8786V65.8844V65.8902V65.8959V65.9017V65.9075V65.9133V65.919V65.9248V65.9306V65.9364V65.9421V65.9479V65.9537V65.9595V65.9652V65.971V65.9768V65.9826V65.9884V65.9941V65.9999V66.0057V66.0115V66.0173V66.023V66.0288V66.0346V66.0404V66.0462V66.052V66.0577V66.0635V66.0693V66.0751V66.0809V66.0867V66.0925V66.0983V66.1041V66.1098V66.1156V66.1214V66.1272V66.133V66.1388V66.1446V66.1504V66.1562V66.162V66.1678V66.1736V66.1794V66.1852V66.191V66.1968V66.2026V66.2084V66.2142V66.22V66.2258V66.2316V66.2374V66.2432V66.249V66.2548V66.2606V66.2664V66.2723V66.2781V66.2839V66.2897V66.2955V66.3013V66.3071V66.313V66.3188V66.3246V66.3304V66.3362V66.3421V66.3479V66.3537V66.3595V66.3653V66.3712V66.377V66.3828V66.3887V66.3945V66.4003V66.4061V66.412V66.4178V66.4236V66.4295V66.4353V66.4412V66.447V66.4528V66.4587V66.4645V66.4704V66.4762V66.482V66.4879V66.4937V66.4996V66.5054V66.5113V66.5171V66.523V66.5288V66.5347V66.5406V66.5464V66.5523V66.5581V66.564V66.5699V66.5757V66.5816V66.5875V66.5933V66.5992V66.6051V66.6109V66.6168V66.6227V66.6286V66.6344V66.6403V66.6462V66.6521V66.6579V66.6638V66.6697V66.6756V66.6815V66.6874V66.6933V66.6992V66.705V66.7109V66.7168V66.7227V66.7286V66.7345V66.7404V66.7463V66.7522V66.7581V66.764V66.77V66.7759V66.7818V66.7877V66.7936V66.7995V66.8054V66.8114V66.8173V66.8232V66.8291V66.835V66.841V66.8469V66.8528V66.8588V66.8647V66.8706V66.8766V66.8825V66.8884V66.8944V66.9003V66.9063V66.9122V66.9182V66.9241V66.9301V66.936V66.942V66.9479V66.9539V66.9598V66.9658V66.9718V66.9777V66.9837V66.9897V66.9956V67.0016V67.0076V67.0135V67.0195V67.0255V67.0315V67.0375V67.0434V67.0494V67.0554V67.0614V67.0674V67.0734V67.0794V67.0854V67.0914V67.0974V67.1034V67.1094V67.1154V67.1214V67.1274V67.1334V67.1394V67.1455V67.1515V67.1575V67.1635V67.1695V67.1756V67.1816V67.1876V67.1936V67.1997V67.2057V67.2118V67.2178V67.2238V67.2299V67.2359V67.242V67.248V67.2541V67.2601V67.2662V67.2723V67.2783V67.2844V67.2904V67.2965V67.3026V67.3086V67.3147V67.3208V67.3269V67.333V67.339V67.3451V67.3512V67.3573V67.3634V67.3695V67.3756V67.3817V67.3878V67.3939V67.4V67.4061V67.4101L295.08 67.5514L293.788 67.6705L293.72 68.9665C293.684 69.6539 293.649 70.3077 293.613 71.0077H289.253H287.853L287.757 72.4046C287.704 73.1659 287.657 73.8354 287.609 74.4996ZM4.55717 67.1699C4.55725 67.1698 4.55871 67.1708 4.56127 67.1727C4.55836 67.1709 4.55709 67.1699 4.55717 67.1699Z" fill="#809DE3" stroke="#2B57E4" stroke-width="3"/>
<path d="M73 37.25V25H85.25V37.25H81.75V26.75H76.5V37.25H73ZM99.25 30.25V35.5H97.5V37.25H90.5V39H87V28.5H90.5V30.25H92.25V32H90.5V35.5H95.75V30.25H92.25V28.5H97.5V30.25H99.25ZM102.75 37.25V35.5H101V33.75H102.75V32H109.75V30.25H102.75V28.5H111.5V30.25H113.25V37.25H102.75ZM104.5 35.5H109.75V33.75H104.5V35.5ZM115 37.25V28.5H125.5V30.25H127.25V32H125.5V33.75H127.25V35.5H125.5V37.25H115ZM118.5 32H123.75V30.25H118.5V32ZM118.5 35.5H123.75V33.75H118.5V35.5ZM130.75 37.25V35.5H129V30.25H130.75V28.5H139.5V30.25H141.25V35.5H139.5V37.25H130.75ZM132.5 35.5H137.75V30.25H132.5V35.5ZM143 37.25V28.5H155.25V37.25H151.75V30.25H146.5V37.25H143ZM158.75 37.25V35.5H157V30.25H158.75V28.5H167.5V30.25H169.25V35.5H167.5V37.25H158.75ZM160.5 35.5H165.75V30.25H160.5V35.5ZM183.25 30.25V35.5H181.5V37.25H174.5V39H171V28.5H174.5V30.25H176.25V32H174.5V35.5H179.75V30.25H176.25V28.5H181.5V30.25H183.25ZM185 37.25V33.75H186.75V32H185V30.25H186.75V28.5H197.25V37.25H193.75V33.75H188.5V37.25H185ZM188.5 32H193.75V30.25H188.5V32ZM211.25 35.5H213V39H209.5V37.25H202.5V39H199V35.5H200.75V33.75H202.5V28.5H211.25V35.5ZM204.25 35.5H207.75V30.25H204.25V35.5ZM214.75 37.25V35.5H213V30.25H214.75V28.5H223.5V30.25H225.25V35.5H223.5V37.25H214.75ZM216.5 35.5H221.75V30.25H216.5V35.5ZM234 30.25H235.75V32H237.5V33.75H239.25V37.25H235.75V33.75H230.5V37.25H227V28.5H230.5V32H234V30.25ZM239.25 28.5V30.25H235.75V28.5H239.25ZM258.5 33.75H260.25V35.5H258.5V37.25H255V28.5H258.5V33.75ZM267.25 28.5V37.25H263.75V32H262V30.25H263.75V28.5H267.25ZM260.25 32H262V33.75H260.25V32ZM85.25 39V40.75H76.5V44.25H78.25V46H76.5V49.5H81.75V44.25H78.25V42.5H83.5V44.25H85.25V49.5H83.5V51.25H74.75V49.5H73V40.75H74.75V39H85.25ZM88.75 51.25V49.5H87V44.25H88.75V42.5H97.5V44.25H99.25V47.75H90.5V49.5H97.5V51.25H88.75ZM90.5 46H95.75V44.25H90.5V46ZM102.75 51.25V49.5H101V47.75H104.5V49.5H109.75V47.75H106.25V46H109.75V44.25H104.5V46H101V44.25H102.75V42.5H111.5V44.25H113.25V46H111.5V47.75H113.25V49.5H111.5V51.25H102.75ZM116.75 51.25V49.5H115V44.25H116.75V42.5H125.5V44.25H127.25V49.5H125.5V51.25H116.75ZM118.5 49.5H123.75V44.25H118.5V49.5ZM129 51.25V42.5H141.25V51.25H137.75V44.25H132.5V51.25H129ZM144.75 51.25V49.5H143V47.75H144.75V46H151.75V44.25H144.75V42.5H153.5V44.25H155.25V51.25H144.75ZM146.5 49.5H151.75V47.75H146.5V49.5ZM158.75 51.25V49.5H157V44.25H158.75V42.5H167.5V44.25H169.25V46H165.75V44.25H160.5V49.5H165.75V47.75H169.25V49.5H167.5V51.25H158.75ZM171 51.25V42.5H174.5V46H179.75V42.5H183.25V51.25H179.75V47.75H174.5V51.25H171ZM186.75 51.25V49.5H185V44.25H186.75V42.5H195.5V44.25H197.25V49.5H195.5V51.25H186.75ZM188.5 49.5H193.75V44.25H188.5V49.5ZM200.75 51.25V49.5H199V44.25H200.75V42.5H209.5V44.25H211.25V46H207.75V44.25H202.5V49.5H207.75V47.75H211.25V49.5H209.5V51.25H200.75ZM218.25 51.25V44.25H214.75V42.5H225.25V44.25H221.75V51.25H218.25ZM227 51.25V42.5H230.5V46H237.5V47.75H239.25V49.5H237.5V51.25H227ZM230.5 49.5H235.75V47.75H230.5V49.5Z" fill="white"/>
<path d="M64.1833 39.3831H65.0143V40.2076H64.1833V39.3831Z" fill="white"/>
<path d="M64.1833 40.2076H65.0143V41.0321H64.1833V40.2076Z" fill="white"/>
<path d="M64.1833 41.0321H65.0143V41.8565H64.1833V41.0321Z" fill="white"/>
<path d="M63.3523 41.8565H64.1833V42.681H63.3523V41.8565Z" fill="white"/>
<path d="M63.3523 42.681H64.1833V43.5055H63.3523V42.681Z" fill="white"/>
<path d="M63.3523 43.5055H64.1833V44.3299H63.3523V43.5055Z" fill="white"/>
<path d="M63.3523 44.3299H64.1833V45.1544H63.3523V44.3299Z" fill="white"/>
<path d="M63.3523 45.1544H64.1833V45.9789H63.3523V45.1544Z" fill="white"/>
<path d="M63.3523 45.9789H64.1833V46.8033H63.3523V45.9789Z" fill="white"/>
<path d="M62.5213 46.8033H63.3523V47.6278H62.5213V46.8033Z" fill="white"/>
<path d="M62.5213 47.6278H63.3523V48.4523H62.5213V47.6278Z" fill="white"/>
<path d="M62.5213 48.4523H63.3523V49.2767H62.5213V48.4523Z" fill="white"/>
<path d="M61.6903 49.2767H62.5213V50.1012H61.6903V49.2767Z" fill="white"/>
<path d="M61.6903 50.1012H62.5213V50.9257H61.6903V50.1012Z" fill="white"/>
<path d="M60.8594 50.9257H61.6903V51.7501H60.8594V50.9257Z" fill="white"/>
<path d="M60.8594 51.7501H61.6903V52.5746H60.8594V51.7501Z" fill="white"/>
<path d="M60.0284 52.5746H60.8594V53.3991H60.0284V52.5746Z" fill="white"/>
<path d="M59.1974 53.3991H60.0284V54.2235H59.1974V53.3991Z" fill="white"/>
<path d="M59.1974 54.2235H60.0284V55.048H59.1974V54.2235Z" fill="white"/>
<path d="M58.3664 55.048H59.1974V55.8725H58.3664V55.048Z" fill="white"/>
<path d="M57.5354 55.8725H58.3664V56.6969H57.5354V55.8725Z" fill="white"/>
<path d="M56.7044 56.6969H57.5354V57.5214H56.7044V56.6969Z" fill="white"/>
<path d="M55.8734 57.5214H56.7044V58.3458H55.8734V57.5214Z" fill="white"/>
<path d="M55.0424 58.3458H55.8734V59.1703H55.0424V58.3458Z" fill="white"/>
<path d="M54.2114 59.1703H55.0424V59.9948H54.2114V59.1703Z" fill="white"/>
<path d="M53.3805 59.9948H54.2114V60.8192H53.3805V59.9948Z" fill="white"/>
<path d="M52.5495 60.8192H53.3805V61.6437H52.5495V60.8192Z" fill="white"/>
<path d="M50.8875 61.6437H51.7185V62.4682H50.8875V61.6437Z" fill="white"/>
<path d="M49.2255 62.4682H50.0565V63.2926H49.2255V62.4682Z" fill="white"/>
<path d="M47.5635 63.2926H48.3945V64.1171H47.5635V63.2926Z" fill="white"/>
<path d="M45.0706 64.1171H45.9016V64.9416H45.0706V64.1171Z" fill="white"/>
<path d="M41.7466 64.9416H42.5776V65.766H41.7466V64.9416Z" fill="white"/>
<path d="M37.5917 64.9416H38.4226V65.766H37.5917V64.9416Z" fill="white"/>
<path d="M38.4226 64.9416H39.2536V65.766H38.4226V64.9416Z" fill="white"/>
<path d="M39.2536 64.9416H40.0846V65.766H39.2536V64.9416Z" fill="white"/>
<path d="M40.0846 64.9416H40.9156V65.766H40.0846V64.9416Z" fill="white"/>
<path d="M40.9156 64.9416H41.7466V65.766H40.9156V64.9416Z" fill="white"/>
<path d="M42.5776 64.9416H43.4086V65.766H42.5776V64.9416Z" fill="white"/>
<path d="M43.4086 64.9416H44.2396V65.766H43.4086V64.9416Z" fill="white"/>
<path d="M44.2396 64.1171H45.0706V64.9416H44.2396V64.1171Z" fill="white"/>
<path d="M45.9016 64.1171H46.7325V64.9416H45.9016V64.1171Z" fill="white"/>
<path d="M46.7325 63.2926H47.5635V64.1171H46.7325V63.2926Z" fill="white"/>
<path d="M48.3945 63.2926H49.2255V64.1171H48.3945V63.2926Z" fill="white"/>
<path d="M50.0565 62.4682H50.8875V63.2926H50.0565V62.4682Z" fill="white"/>
<path d="M51.7185 60.8192H52.5495V61.6437H51.7185V60.8192Z" fill="white"/>
<path d="M11 39.3831H11.831V40.2076H11V39.3831Z" fill="white"/>
<path d="M11 40.2076H11.831V41.0321H11V40.2076Z" fill="white"/>
<path d="M11 41.0321H11.831V41.8565H11V41.0321Z" fill="white"/>
<path d="M11 41.8565H11.831V42.681H11V41.8565Z" fill="white"/>
<path d="M11 42.681H11.831V43.5055H11V42.681Z" fill="white"/>
<path d="M11.831 43.5055H12.662V44.3299H11.831V43.5055Z" fill="white"/>
<path d="M11.831 44.3299H12.662V45.1544H11.831V44.3299Z" fill="white"/>
<path d="M11.831 45.1544H12.662V45.9789H11.831V45.1544Z" fill="white"/>
<path d="M11.831 45.9789H12.662V46.8033H11.831V45.9789Z" fill="white"/>
<path d="M12.662 46.8033H13.493V47.6278H12.662V46.8033Z" fill="white"/>
<path d="M12.662 47.6278H13.493V48.4523H12.662V47.6278Z" fill="white"/>
<path d="M12.662 48.4523H13.493V49.2767H12.662V48.4523Z" fill="white"/>
<path d="M13.493 49.2767H14.324V50.1012H13.493V49.2767Z" fill="white"/>
<path d="M13.493 50.1012H14.324V50.9257H13.493V50.1012Z" fill="white"/>
<path d="M14.324 50.9257H15.1549V51.7501H14.324V50.9257Z" fill="white"/>
<path d="M14.324 51.7501H15.1549V52.5746H14.324V51.7501Z" fill="white"/>
<path d="M15.1549 52.5746H15.9859V53.3991H15.1549V52.5746Z" fill="white"/>
<path d="M15.1549 53.3991H15.9859V54.2235H15.1549V53.3991Z" fill="white"/>
<path d="M15.9859 54.2235H16.8169V55.048H15.9859V54.2235Z" fill="white"/>
<path d="M16.8169 55.048H17.6479V55.8725H16.8169V55.048Z" fill="white"/>
<path d="M17.6479 55.8725H18.4789V56.6969H17.6479V55.8725Z" fill="white"/>
<path d="M17.6479 56.6969H18.4789V57.5214H17.6479V56.6969Z" fill="white"/>
<path d="M18.4789 57.5214H19.3099V58.3458H18.4789V57.5214Z" fill="white"/>
<path d="M19.3099 58.3458H20.1409V59.1703H19.3099V58.3458Z" fill="white"/>
<path d="M20.9719 59.1703H21.8029V59.9948H20.9719V59.1703Z" fill="white"/>
<path d="M21.8029 59.9948H22.6339V60.8192H21.8029V59.9948Z" fill="white"/>
<path d="M22.6339 60.8192H23.4648V61.6437H22.6339V60.8192Z" fill="white"/>
<path d="M24.2958 61.6437H25.1268V62.4682H24.2958V61.6437Z" fill="white"/>
<path d="M25.9578 62.4682H26.7888V63.2926H25.9578V62.4682Z" fill="white"/>
<path d="M27.6198 63.2926H28.4508V64.1171H27.6198V63.2926Z" fill="white"/>
<path d="M30.1128 64.1171H30.9437V64.9416H30.1128V64.1171Z" fill="white"/>
<path d="M33.4367 64.9416H34.2677V65.766H33.4367V64.9416Z" fill="white"/>
<path d="M20.1409 58.3458H20.9719V59.1703H20.1409V58.3458Z" fill="white"/>
<path d="M23.4648 60.8192H24.2958V61.6437H23.4648V60.8192Z" fill="white"/>
<path d="M25.1268 62.4682H25.9578V63.2926H25.1268V62.4682Z" fill="white"/>
<path d="M26.7888 63.2926H27.6198V64.1171H26.7888V63.2926Z" fill="white"/>
<path d="M28.4508 63.2926H29.2818V64.1171H28.4508V63.2926Z" fill="white"/>
<path d="M29.2818 64.1171H30.1128V64.9416H29.2818V64.1171Z" fill="white"/>
<path d="M30.9437 64.1171H31.7747V64.9416H30.9437V64.1171Z" fill="white"/>
<path d="M31.7747 64.9416H32.6057V65.766H31.7747V64.9416Z" fill="white"/>
<path d="M32.6057 64.9416H33.4367V65.766H32.6057V64.9416Z" fill="white"/>
<path d="M34.2677 64.9416H35.0987V65.766H34.2677V64.9416Z" fill="white"/>
<path d="M35.0987 64.9416H35.9297V65.766H35.0987V64.9416Z" fill="white"/>
<path d="M35.9297 64.9416H36.7607V65.766H35.9297V64.9416Z" fill="white"/>
<path d="M36.7607 64.9416H37.5917V65.766H36.7607V64.9416Z" fill="white"/>
<path d="M35.0987 13.0002H35.9297V13.8247H35.0987V13.0002Z" fill="white"/>
<path d="M30.1128 13.8247H30.9437V14.6492H30.1128V13.8247Z" fill="white"/>
<path d="M27.6198 14.6492H28.4508V15.4736H27.6198V14.6492Z" fill="white"/>
<path d="M25.9578 15.4736H26.7888V16.2981H25.9578V15.4736Z" fill="white"/>
<path d="M24.2958 16.2981H25.1268V17.1226H24.2958V16.2981Z" fill="white"/>
<path d="M23.4648 17.1226H24.2958V17.947H23.4648V17.1226Z" fill="white"/>
<path d="M21.8029 17.947H22.6339V18.7715H21.8029V17.947Z" fill="white"/>
<path d="M20.9719 18.7715H21.8029V19.596H20.9719V18.7715Z" fill="white"/>
<path d="M20.1409 19.596H20.9719V20.4204H20.1409V19.596Z" fill="white"/>
<path d="M19.3099 20.4204H20.1409V21.2449H19.3099V20.4204Z" fill="white"/>
<path d="M18.4789 21.2449H19.3099V22.0694H18.4789V21.2449Z" fill="white"/>
<path d="M17.6479 22.0694H18.4789V22.8938H17.6479V22.0694Z" fill="white"/>
<path d="M16.8169 22.8938H17.6479V23.7183H16.8169V22.8938Z" fill="white"/>
<path d="M15.9859 23.7183H16.8169V24.5428H15.9859V23.7183Z" fill="white"/>
<path d="M15.1549 24.5428H15.9859V25.3672H15.1549V24.5428Z" fill="white"/>
<path d="M15.1549 25.3672H15.9859V26.1917H15.1549V25.3672Z" fill="white"/>
<path d="M14.324 26.1917H15.1549V27.0162H14.324V26.1917Z" fill="white"/>
<path d="M14.324 27.0162H15.1549V27.8406H14.324V27.0162Z" fill="white"/>
<path d="M13.493 27.8406H14.324V28.6651H13.493V27.8406Z" fill="white"/>
<path d="M13.493 28.6651H14.324V29.4896H13.493V28.6651Z" fill="white"/>
<path d="M12.662 29.4896H13.493V30.314H12.662V29.4896Z" fill="white"/>
<path d="M12.662 30.314H13.493V31.1385H12.662V30.314Z" fill="white"/>
<path d="M12.662 31.1385H13.493V31.963H12.662V31.1385Z" fill="white"/>
<path d="M11.831 31.963H12.662V32.7874H11.831V31.963Z" fill="white"/>
<path d="M11.831 32.7874H12.662V33.6119H11.831V32.7874Z" fill="white"/>
<path d="M11.831 33.6119H12.662V34.4363H11.831V33.6119Z" fill="white"/>
<path d="M11.831 34.4363H12.662V35.2608H11.831V34.4363Z" fill="white"/>
<path d="M11 35.2608H11.831V36.0853H11V35.2608Z" fill="white"/>
<path d="M11 36.0853H11.831V36.9097H11V36.0853Z" fill="white"/>
<path d="M11 36.9097H11.831V37.7342H11V36.9097Z" fill="white"/>
<path d="M11 37.7342H11.831V38.5587H11V37.7342Z" fill="white"/>
<path d="M11 38.5587H11.831V39.3831H11V38.5587Z" fill="white"/>
<path d="M22.6339 17.1226H23.4648V17.947H22.6339V17.1226Z" fill="white"/>
<path d="M25.1268 16.2981H25.9578V17.1226H25.1268V16.2981Z" fill="white"/>
<path d="M26.7888 15.4736H27.6198V16.2981H26.7888V15.4736Z" fill="white"/>
<path d="M28.4508 14.6492H29.2818V15.4736H28.4508V14.6492Z" fill="white"/>
<path d="M29.2818 13.8247H30.1128V14.6492H29.2818V13.8247Z" fill="white"/>
<path d="M30.9437 13.8247H31.7747V14.6492H30.9437V13.8247Z" fill="white"/>
<path d="M31.7747 13.8247H32.6057V14.6492H31.7747V13.8247Z" fill="white"/>
<path d="M32.6057 13.0002H33.4367V13.8247H32.6057V13.0002Z" fill="white"/>
<path d="M33.4367 13.0002H34.2677V13.8247H33.4367V13.0002Z" fill="white"/>
<path d="M34.2677 13.0002H35.0987V13.8247H34.2677V13.0002Z" fill="white"/>
<path d="M35.9297 13.0002H36.7607V13.8247H35.9297V13.0002Z" fill="white"/>
<path d="M36.7607 13.0002H37.5917V13.8247H36.7607V13.0002Z" fill="white"/>
<path d="M37.5917 13.0002H38.4226V13.8247H37.5917V13.0002Z" fill="white"/>
<path d="M40.0846 13.0002H40.9156V13.8247H40.0846V13.0002Z" fill="white"/>
<path d="M44.2396 13.8247H45.0706V14.6492H44.2396V13.8247Z" fill="white"/>
<path d="M46.7325 14.6492H47.5635V15.4736H46.7325V14.6492Z" fill="white"/>
<path d="M49.2255 15.4736H50.0565V16.2981H49.2255V15.4736Z" fill="white"/>
<path d="M50.8875 16.2981H51.7185V17.1226H50.8875V16.2981Z" fill="white"/>
<path d="M51.7185 17.1226H52.5495V17.947H51.7185V17.1226Z" fill="white"/>
<path d="M53.3805 17.947H54.2114V18.7715H53.3805V17.947Z" fill="white"/>
<path d="M54.2114 18.7715H55.0424V19.596H54.2114V18.7715Z" fill="white"/>
<path d="M55.0424 19.596H55.8734V20.4204H55.0424V19.596Z" fill="white"/>
<path d="M55.8734 20.4204H56.7044V21.2449H55.8734V20.4204Z" fill="white"/>
<path d="M56.7044 21.2449H57.5354V22.0694H56.7044V21.2449Z" fill="white"/>
<path d="M57.5354 22.0694H58.3664V22.8938H57.5354V22.0694Z" fill="white"/>
<path d="M58.3664 22.8938H59.1974V23.7183H58.3664V22.8938Z" fill="white"/>
<path d="M59.1974 23.7183H60.0284V24.5428H59.1974V23.7183Z" fill="white"/>
<path d="M59.1974 24.5428H60.0284V25.3672H59.1974V24.5428Z" fill="white"/>
<path d="M60.0284 25.3672H60.8594V26.1917H60.0284V25.3672Z" fill="white"/>
<path d="M60.8594 26.1917H61.6903V27.0162H60.8594V26.1917Z" fill="white"/>
<path d="M60.8594 27.0162H61.6903V27.8406H60.8594V27.0162Z" fill="white"/>
<path d="M61.6903 27.8406H62.5213V28.6651H61.6903V27.8406Z" fill="white"/>
<path d="M61.6903 28.6651H62.5213V29.4896H61.6903V28.6651Z" fill="white"/>
<path d="M61.6903 29.4896H62.5213V30.314H61.6903V29.4896Z" fill="white"/>
<path d="M62.5213 30.314H63.3523V31.1385H62.5213V30.314Z" fill="white"/>
<path d="M62.5213 31.1385H63.3523V31.963H62.5213V31.1385Z" fill="white"/>
<path d="M62.5213 31.963H63.3523V32.7874H62.5213V31.963Z" fill="white"/>
<path d="M63.3523 32.7874H64.1833V33.6119H63.3523V32.7874Z" fill="white"/>
<path d="M63.3523 33.6119H64.1833V34.4363H63.3523V33.6119Z" fill="white"/>
<path d="M63.3523 34.4363H64.1833V35.2608H63.3523V34.4363Z" fill="white"/>
<path d="M63.3523 35.2608H64.1833V36.0853H63.3523V35.2608Z" fill="white"/>
<path d="M63.3523 36.0853H64.1833V36.9097H63.3523V36.0853Z" fill="white"/>
<path d="M64.1833 36.9097H65.0143V37.7342H64.1833V36.9097Z" fill="white"/>
<path d="M64.1833 37.7342H65.0143V38.5587H64.1833V37.7342Z" fill="white"/>
<path d="M64.1833 38.5587H65.0143V39.3831H64.1833V38.5587Z" fill="white"/>
<path d="M38.4226 13.0002H39.2536V13.8247H38.4226V13.0002Z" fill="white"/>
<path d="M39.2536 13.0002H40.0846V13.8247H39.2536V13.0002Z" fill="white"/>
<path d="M40.9156 13.0002H41.7466V13.8247H40.9156V13.0002Z" fill="white"/>
<path d="M41.7466 13.0002H42.5776V13.8247H41.7466V13.0002Z" fill="white"/>
<path d="M42.5776 13.0002H43.4086V13.8247H42.5776V13.0002Z" fill="white"/>
<path d="M43.4086 13.8247H44.2396V14.6492H43.4086V13.8247Z" fill="white"/>
<path d="M45.0706 13.8247H45.9016V14.6492H45.0706V13.8247Z" fill="white"/>
<path d="M45.9016 13.8247H46.7325V14.6492H45.9016V13.8247Z" fill="white"/>
<path d="M47.5635 14.6492H48.3945V15.4736H47.5635V14.6492Z" fill="white"/>
<path d="M48.3945 15.4736H49.2255V16.2981H48.3945V15.4736Z" fill="white"/>
<path d="M50.0565 16.2981H50.8875V17.1226H50.0565V16.2981Z" fill="white"/>
<path d="M52.5495 17.1226H53.3805V17.947H52.5495V17.1226Z" fill="white"/>
<rect x="64.1836" y="39.3831" width="0.830989" height="0.824466" fill="white"/>
<rect x="64.1836" y="40.207" width="0.830989" height="0.824466" fill="white"/>
<rect x="64.1836" y="41.032" width="0.830989" height="0.824466" fill="white"/>
<rect x="63.3525" y="41.8569" width="0.830989" height="0.824466" fill="white"/>
<rect x="63.3525" y="42.6809" width="0.830989" height="0.824466" fill="white"/>
<rect x="63.3525" y="43.5049" width="0.830989" height="0.824466" fill="white"/>
<rect x="63.3525" y="44.3289" width="0.830989" height="0.824466" fill="white"/>
<rect x="63.3525" y="45.1538" width="0.830989" height="0.824466" fill="white"/>
<rect x="63.3525" y="45.9788" width="0.830989" height="0.824466" fill="white"/>
<rect x="62.5215" y="46.8027" width="0.830989" height="0.824466" fill="white"/>
<rect x="62.5215" y="47.6277" width="0.830989" height="0.824466" fill="white"/>
<rect x="62.5215" y="48.4517" width="0.830989" height="0.824466" fill="white"/>
<rect x="61.6904" y="49.2756" width="0.830989" height="0.824466" fill="white"/>
<rect x="61.6904" y="50.1006" width="0.830989" height="0.824466" fill="white"/>
<rect x="60.8594" y="50.9255" width="0.830989" height="0.824466" fill="white"/>
<rect x="60.8594" y="51.7495" width="0.830989" height="0.824466" fill="white"/>
<rect x="60.0283" y="52.5745" width="0.830989" height="0.824466" fill="white"/>
<rect x="59.1973" y="53.3987" width="0.830989" height="0.824466" fill="white"/>
<rect x="59.1973" y="54.2234" width="0.830989" height="0.824466" fill="white"/>
<rect x="58.3662" y="55.0476" width="0.830989" height="0.824466" fill="white"/>
<rect x="57.5352" y="55.8726" width="0.830989" height="0.824466" fill="white"/>
<rect x="56.7041" y="56.6965" width="0.830989" height="0.824466" fill="white"/>
<rect x="55.873" y="57.5205" width="0.830989" height="0.824466" fill="white"/>
<rect x="55.042" y="58.3455" width="0.830989" height="0.824466" fill="white"/>
<rect x="54.2109" y="59.1704" width="0.830989" height="0.824466" fill="white"/>
<rect x="53.3799" y="59.9944" width="0.830989" height="0.824466" fill="white"/>
<rect x="52.5498" y="60.8193" width="0.830989" height="0.824466" fill="white"/>
<rect x="50.8877" y="61.6433" width="0.830989" height="0.824466" fill="white"/>
<rect x="49.2256" y="62.4683" width="0.830989" height="0.824466" fill="white"/>
<rect x="47.5635" y="63.2922" width="0.830989" height="0.824466" fill="white"/>
<rect x="45.0703" y="64.1172" width="0.830989" height="0.824466" fill="white"/>
<rect x="41.7471" y="64.9412" width="0.830989" height="0.824466" fill="white"/>
<rect x="37.5918" y="64.9412" width="0.830989" height="0.824466" fill="white"/>
<rect x="38.4229" y="64.9412" width="0.830989" height="0.824466" fill="white"/>
<rect x="39.2539" y="64.9412" width="0.830989" height="0.824466" fill="white"/>
<rect x="40.085" y="64.9412" width="0.830989" height="0.824466" fill="white"/>
<rect x="40.916" y="64.9412" width="0.830989" height="0.824466" fill="white"/>
<rect x="42.5771" y="64.9412" width="0.830989" height="0.824466" fill="white"/>
<rect x="43.4082" y="64.9412" width="0.830989" height="0.824466" fill="white"/>
<rect x="44.2393" y="64.1172" width="0.830989" height="0.824466" fill="white"/>
<rect x="45.9014" y="64.1172" width="0.830989" height="0.824466" fill="white"/>
<rect x="46.7324" y="63.2922" width="0.830989" height="0.824466" fill="white"/>
<rect x="48.3945" y="63.2922" width="0.830989" height="0.824466" fill="white"/>
<rect x="50.0566" y="62.4683" width="0.830989" height="0.824466" fill="white"/>
<rect x="51.7188" y="60.8193" width="0.830989" height="0.824466" fill="white"/>
<rect x="11" y="39.3831" width="0.830989" height="0.824466" fill="white"/>
<rect x="11" y="40.207" width="0.830989" height="0.824466" fill="white"/>
<rect x="11" y="41.032" width="0.830989" height="0.824466" fill="white"/>
<rect x="11" y="41.8569" width="0.830989" height="0.824466" fill="white"/>
<rect x="11" y="42.6809" width="0.830989" height="0.824466" fill="white"/>
<rect x="11.8311" y="43.5049" width="0.830989" height="0.824466" fill="white"/>
<rect x="11.8311" y="44.3289" width="0.830989" height="0.824466" fill="white"/>
<rect x="11.8311" y="45.1538" width="0.830989" height="0.824466" fill="white"/>
<rect x="11.8311" y="45.9788" width="0.830989" height="0.824466" fill="white"/>
<rect x="12.6621" y="46.8027" width="0.830989" height="0.824466" fill="white"/>
<rect x="12.6621" y="47.6277" width="0.830989" height="0.824466" fill="white"/>
<rect x="12.6621" y="48.4517" width="0.830989" height="0.824466" fill="white"/>
<rect x="13.4932" y="49.2756" width="0.830989" height="0.824466" fill="white"/>
<rect x="13.4932" y="50.1006" width="0.830989" height="0.824466" fill="white"/>
<rect x="14.3242" y="50.9255" width="0.830989" height="0.824466" fill="white"/>
<rect x="14.3242" y="51.7495" width="0.830989" height="0.824466" fill="white"/>
<rect x="15.1553" y="52.5745" width="0.830989" height="0.824466" fill="white"/>
<rect x="15.1553" y="53.3987" width="0.830989" height="0.824466" fill="white"/>
<rect x="15.9863" y="54.2234" width="0.830989" height="0.824466" fill="white"/>
<rect x="16.8164" y="55.0476" width="0.830989" height="0.824466" fill="white"/>
<rect x="17.6475" y="55.8726" width="0.830989" height="0.824466" fill="white"/>
<rect x="17.6475" y="56.6965" width="0.830989" height="0.824466" fill="white"/>
<rect x="18.4785" y="57.5205" width="0.830989" height="0.824466" fill="white"/>
<rect x="19.3096" y="58.3455" width="0.830989" height="0.824466" fill="white"/>
<rect x="20.9717" y="59.1704" width="0.830989" height="0.824466" fill="white"/>
<rect x="21.8027" y="59.9944" width="0.830989" height="0.824466" fill="white"/>
<rect x="22.6338" y="60.8193" width="0.830989" height="0.824466" fill="white"/>
<rect x="24.2959" y="61.6433" width="0.830989" height="0.824466" fill="white"/>
<rect x="25.958" y="62.4683" width="0.830989" height="0.824466" fill="white"/>
<rect x="27.6201" y="63.2922" width="0.830989" height="0.824466" fill="white"/>
<rect x="30.1123" y="64.1172" width="0.830989" height="0.824466" fill="white"/>
<rect x="33.4365" y="64.9412" width="0.830989" height="0.824466" fill="white"/>
<rect x="20.1406" y="58.3455" width="0.830989" height="0.824466" fill="white"/>
<rect x="23.4648" y="60.8193" width="0.830989" height="0.824466" fill="white"/>
<rect x="25.127" y="62.4683" width="0.830989" height="0.824466" fill="white"/>
<rect x="26.7891" y="63.2922" width="0.830989" height="0.824466" fill="white"/>
<rect x="28.4512" y="63.2922" width="0.830989" height="0.824466" fill="white"/>
<rect x="29.2822" y="64.1172" width="0.830989" height="0.824466" fill="white"/>
<rect x="30.9434" y="64.1172" width="0.830989" height="0.824466" fill="white"/>
<rect x="31.7744" y="64.9412" width="0.830989" height="0.824466" fill="white"/>
<rect x="32.6055" y="64.9412" width="0.830989" height="0.824466" fill="white"/>
<rect x="34.2676" y="64.9412" width="0.830989" height="0.824466" fill="white"/>
<rect x="35.0986" y="64.9412" width="0.830989" height="0.824466" fill="white"/>
<rect x="35.9297" y="64.9412" width="0.830989" height="0.824466" fill="white"/>
<rect x="36.7607" y="64.9412" width="0.830989" height="0.824466" fill="white"/>
<rect x="35.0986" y="13" width="0.830989" height="0.824466" fill="white"/>
<rect x="30.1123" y="13.824" width="0.830989" height="0.824466" fill="white"/>
<rect x="27.6201" y="14.6489" width="0.830989" height="0.824466" fill="white"/>
<rect x="25.958" y="15.4729" width="0.830989" height="0.824466" fill="white"/>
<rect x="24.2959" y="16.2979" width="0.830989" height="0.824466" fill="white"/>
<rect x="23.4648" y="17.1228" width="0.830989" height="0.824466" fill="white"/>
<rect x="21.8027" y="17.9468" width="0.830989" height="0.824466" fill="white"/>
<rect x="20.9717" y="18.7708" width="0.830989" height="0.824466" fill="white"/>
<rect x="20.1406" y="19.5957" width="0.830989" height="0.824466" fill="white"/>
<rect x="19.3096" y="20.4207" width="0.830989" height="0.824466" fill="white"/>
<rect x="18.4785" y="21.2446" width="0.830989" height="0.824466" fill="white"/>
<rect x="17.6475" y="22.0686" width="0.830989" height="0.824466" fill="white"/>
<rect x="16.8164" y="22.8936" width="0.830989" height="0.824466" fill="white"/>
<rect x="15.9863" y="23.7175" width="0.830989" height="0.824466" fill="white"/>
<rect x="15.1553" y="24.5425" width="0.830989" height="0.824466" fill="white"/>
<rect x="15.1553" y="25.3674" width="0.830989" height="0.824466" fill="white"/>
<rect x="14.3242" y="26.1914" width="0.830989" height="0.824466" fill="white"/>
<rect x="14.3242" y="27.0156" width="0.830989" height="0.824466" fill="white"/>
<rect x="13.4932" y="27.8406" width="0.830989" height="0.824466" fill="white"/>
<rect x="13.4932" y="28.6646" width="0.830989" height="0.824466" fill="white"/>
<rect x="12.6621" y="29.4895" width="0.830989" height="0.824466" fill="white"/>
<rect x="12.6621" y="30.3135" width="0.830989" height="0.824466" fill="white"/>
<rect x="12.6621" y="31.1384" width="0.830989" height="0.824466" fill="white"/>
<rect x="11.8311" y="31.9624" width="0.830989" height="0.824466" fill="white"/>
<rect x="11.8311" y="32.7874" width="0.830989" height="0.824466" fill="white"/>
<rect x="11.8311" y="33.6123" width="0.830989" height="0.824466" fill="white"/>
<rect x="11.8311" y="34.4363" width="0.830989" height="0.824466" fill="white"/>
<rect x="11" y="35.2603" width="0.830989" height="0.824466" fill="white"/>
<rect x="11" y="36.0842" width="0.830989" height="0.824466" fill="white"/>
<rect x="11" y="36.9092" width="0.830989" height="0.824466" fill="white"/>
<rect x="11" y="37.7341" width="0.830989" height="0.824466" fill="white"/>
<rect x="11" y="38.5581" width="0.830989" height="0.824466" fill="white"/>
<rect x="22.6338" y="17.1228" width="0.830989" height="0.824466" fill="white"/>
<rect x="25.127" y="16.2979" width="0.830989" height="0.824466" fill="white"/>
<rect x="26.7891" y="15.4729" width="0.830989" height="0.824466" fill="white"/>
<rect x="28.4512" y="14.6489" width="0.830989" height="0.824466" fill="white"/>
<rect x="29.2822" y="13.824" width="0.830989" height="0.824466" fill="white"/>
<rect x="30.9434" y="13.824" width="0.830989" height="0.824466" fill="white"/>
<rect x="31.7744" y="13.824" width="0.830989" height="0.824466" fill="white"/>
<rect x="32.6055" y="13" width="0.830989" height="0.824466" fill="white"/>
<rect x="33.4365" y="13" width="0.830989" height="0.824466" fill="white"/>
<rect x="34.2676" y="13" width="0.830989" height="0.824466" fill="white"/>
<rect x="35.9297" y="13" width="0.830989" height="0.824466" fill="white"/>
<rect x="36.7607" y="13" width="0.830989" height="0.824466" fill="white"/>
<rect x="37.5918" y="13" width="0.830989" height="0.824466" fill="white"/>
<rect x="40.085" y="13" width="0.830989" height="0.824466" fill="white"/>
<rect x="44.2393" y="13.824" width="0.830989" height="0.824466" fill="white"/>
<rect x="46.7324" y="14.6489" width="0.830989" height="0.824466" fill="white"/>
<rect x="49.2256" y="15.4729" width="0.830989" height="0.824466" fill="white"/>
<rect x="50.8877" y="16.2979" width="0.830989" height="0.824466" fill="white"/>
<rect x="51.7188" y="17.1228" width="0.830989" height="0.824466" fill="white"/>
<rect x="53.3799" y="17.9468" width="0.830989" height="0.824466" fill="white"/>
<rect x="54.2109" y="18.7708" width="0.830989" height="0.824466" fill="white"/>
<rect x="55.042" y="19.5957" width="0.830989" height="0.824466" fill="white"/>
<rect x="55.873" y="20.4207" width="0.830989" height="0.824466" fill="white"/>
<rect x="56.7041" y="21.2446" width="0.830989" height="0.824466" fill="white"/>
<rect x="57.5352" y="22.0686" width="0.830989" height="0.824466" fill="white"/>
<rect x="58.3662" y="22.8936" width="0.830989" height="0.824466" fill="white"/>
<rect x="59.1973" y="23.7175" width="0.830989" height="0.824466" fill="white"/>
<rect x="59.1973" y="24.5425" width="0.830989" height="0.824466" fill="white"/>
<rect x="60.0283" y="25.3674" width="0.830989" height="0.824466" fill="white"/>
<rect x="60.8594" y="26.1914" width="0.830989" height="0.824466" fill="white"/>
<rect x="60.8594" y="27.0156" width="0.830989" height="0.824466" fill="white"/>
<rect x="61.6904" y="27.8406" width="0.830989" height="0.824466" fill="white"/>
<rect x="61.6904" y="28.6646" width="0.830989" height="0.824466" fill="white"/>
<rect x="61.6904" y="29.4895" width="0.830989" height="0.824466" fill="white"/>
<rect x="62.5215" y="30.3135" width="0.830989" height="0.824466" fill="white"/>
<rect x="62.5215" y="31.1384" width="0.830989" height="0.824466" fill="white"/>
<rect x="62.5215" y="31.9624" width="0.830989" height="0.824466" fill="white"/>
<rect x="63.3525" y="32.7874" width="0.830989" height="0.824466" fill="white"/>
<rect x="63.3525" y="33.6123" width="0.830989" height="0.824466" fill="white"/>
<rect x="63.3525" y="34.4363" width="0.830989" height="0.824466" fill="white"/>
<rect x="63.3525" y="35.2603" width="0.830989" height="0.824466" fill="white"/>
<rect x="63.3525" y="36.0842" width="0.830989" height="0.824466" fill="white"/>
<rect x="64.1836" y="36.9092" width="0.830989" height="0.824466" fill="white"/>
<rect x="64.1836" y="37.7341" width="0.830989" height="0.824466" fill="white"/>
<rect x="64.1836" y="38.5581" width="0.830989" height="0.824466" fill="white"/>
<rect x="38.4229" y="13" width="0.830989" height="0.824466" fill="white"/>
<rect x="39.2539" y="13" width="0.830989" height="0.824466" fill="white"/>
<rect x="40.916" y="13" width="0.830989" height="0.824466" fill="white"/>
<rect x="41.7471" y="13" width="0.830989" height="0.824466" fill="white"/>
<rect x="42.5771" y="13" width="0.830989" height="0.824466" fill="white"/>
<rect x="43.4082" y="13.824" width="0.830989" height="0.824466" fill="white"/>
<rect x="45.0703" y="13.824" width="0.830989" height="0.824466" fill="white"/>
<rect x="45.9014" y="13.824" width="0.830989" height="0.824466" fill="white"/>
<rect x="47.5635" y="14.6489" width="0.830989" height="0.824466" fill="white"/>
<rect x="48.3945" y="15.4729" width="0.830989" height="0.824466" fill="white"/>
<rect x="50.0566" y="16.2979" width="0.830989" height="0.824466" fill="white"/>
<rect x="52.5498" y="17.1228" width="0.830989" height="0.824466" fill="white"/>
<rect x="65.0146" y="39.3831" width="0.830989" height="0.824466" fill="white"/>
<rect x="65.0146" y="40.207" width="0.830989" height="0.824466" fill="white"/>
<rect x="65.0146" y="41.032" width="0.830989" height="0.824466" fill="white"/>
<rect x="65.0146" y="41.8569" width="0.830989" height="0.824466" fill="white"/>
<rect x="64.1836" y="41.8569" width="0.830989" height="0.824466" fill="white"/>
<rect x="64.1836" y="42.6809" width="0.830989" height="0.824466" fill="white"/>
<rect x="64.1836" y="43.5049" width="0.830989" height="0.824466" fill="white"/>
<rect x="64.1836" y="44.3289" width="0.830989" height="0.824466" fill="white"/>
<rect x="64.1836" y="45.1538" width="0.830989" height="0.824466" fill="white"/>
<rect x="64.1836" y="45.9788" width="0.830989" height="0.824466" fill="white"/>
<rect x="64.1836" y="46.8027" width="0.830989" height="0.824466" fill="white"/>
<rect x="63.3525" y="46.8027" width="0.830989" height="0.824466" fill="white"/>
<rect x="63.3525" y="47.6277" width="0.830989" height="0.824466" fill="white"/>
<rect x="63.3525" y="48.4517" width="0.830989" height="0.824466" fill="white"/>
<rect x="63.3525" y="49.2756" width="0.830989" height="0.824466" fill="white"/>
<rect x="62.5215" y="49.2756" width="0.830989" height="0.824466" fill="white"/>
<rect x="62.5215" y="50.1006" width="0.830989" height="0.824466" fill="white"/>
<rect x="62.5215" y="50.9255" width="0.830989" height="0.824466" fill="white"/>
<rect x="61.6904" y="50.9255" width="0.830989" height="0.824466" fill="white"/>
<rect x="61.6904" y="51.7495" width="0.830989" height="0.824466" fill="white"/>
<rect x="61.6904" y="52.5745" width="0.830989" height="0.824466" fill="white"/>
<rect x="60.8594" y="52.5745" width="0.830989" height="0.824466" fill="white"/>
<rect x="60.8594" y="53.3987" width="0.830989" height="0.824466" fill="white"/>
<rect x="60.0283" y="53.3987" width="0.830989" height="0.824466" fill="white"/>
<rect x="60.0283" y="54.2234" width="0.830989" height="0.824466" fill="white"/>
<rect x="60.0283" y="55.0476" width="0.830989" height="0.824466" fill="white"/>
<rect x="59.1973" y="55.0476" width="0.830989" height="0.824466" fill="white"/>
<rect x="59.1973" y="55.8726" width="0.830989" height="0.824466" fill="white"/>
<rect x="58.3662" y="55.8726" width="0.830989" height="0.824466" fill="white"/>
<rect x="58.3662" y="56.6965" width="0.830989" height="0.824466" fill="white"/>
<rect x="57.5352" y="56.6965" width="0.830989" height="0.824466" fill="white"/>
<rect x="57.5352" y="57.5205" width="0.830989" height="0.824466" fill="white"/>
<rect x="56.7041" y="57.5205" width="0.830989" height="0.824466" fill="white"/>
<rect x="56.7041" y="58.3455" width="0.830989" height="0.824466" fill="white"/>
<rect x="55.873" y="58.3455" width="0.830989" height="0.824466" fill="white"/>
<rect x="55.873" y="59.1704" width="0.830989" height="0.824466" fill="white"/>
<rect x="55.042" y="59.1704" width="0.830989" height="0.824466" fill="white"/>
<rect x="55.042" y="59.9944" width="0.830989" height="0.824466" fill="white"/>
<rect x="54.2109" y="59.9944" width="0.830989" height="0.824466" fill="white"/>
<rect x="54.2109" y="60.8193" width="0.830989" height="0.824466" fill="white"/>
<rect x="53.3799" y="60.8193" width="0.830989" height="0.824466" fill="white"/>
<rect x="53.3799" y="61.6433" width="0.830989" height="0.824466" fill="white"/>
<rect x="52.5498" y="61.6433" width="0.830989" height="0.824466" fill="white"/>
<rect x="50.8877" y="60.8193" width="0.830989" height="0.824466" fill="white"/>
<rect x="51.7188" y="61.6433" width="0.830989" height="0.824466" fill="white"/>
<rect x="51.7188" y="62.4683" width="0.830989" height="0.824466" fill="white"/>
<rect x="50.8877" y="62.4683" width="0.830989" height="0.824466" fill="white"/>
<rect x="50.0566" y="63.2922" width="0.830989" height="0.824466" fill="white"/>
<rect x="49.2256" y="63.2922" width="0.830989" height="0.824466" fill="white"/>
<rect x="48.3945" y="64.1172" width="0.830989" height="0.824466" fill="white"/>
<rect x="47.5635" y="64.1172" width="0.830989" height="0.824466" fill="white"/>
<rect x="45.9014" y="64.9412" width="0.830989" height="0.824466" fill="white"/>
<rect x="45.0703" y="64.9412" width="0.830989" height="0.824466" fill="white"/>
<rect x="42.5771" y="65.7651" width="0.830989" height="0.824466" fill="white"/>
<rect x="41.7471" y="65.7651" width="0.830989" height="0.824466" fill="white"/>
<rect x="38.4229" y="65.7651" width="0.830989" height="0.824466" fill="white"/>
<rect x="37.5918" y="65.7651" width="0.830989" height="0.824466" fill="white"/>
<rect x="39.2539" y="65.7651" width="0.830989" height="0.824466" fill="white"/>
<rect x="40.085" y="65.7651" width="0.830989" height="0.824466" fill="white"/>
<rect x="40.916" y="65.7651" width="0.830989" height="0.824466" fill="white"/>
<rect x="43.4082" y="65.7651" width="0.830989" height="0.824466" fill="white"/>
<rect x="44.2393" y="64.9412" width="0.830989" height="0.824466" fill="white"/>
<rect x="44.2393" y="65.7651" width="0.830989" height="0.824466" fill="white"/>
<rect x="46.7324" y="64.1172" width="0.830989" height="0.824466" fill="white"/>
<rect x="46.7324" y="64.9412" width="0.830989" height="0.824466" fill="white"/>
<rect x="49.2256" y="64.1172" width="0.830989" height="0.824466" fill="white"/>
<rect x="50.8877" y="63.2922" width="0.830989" height="0.824466" fill="white"/>
<rect x="11.8311" y="39.3831" width="0.830989" height="0.824466" fill="white"/>
<rect x="11.8311" y="40.207" width="0.830989" height="0.824466" fill="white"/>
<rect x="11.8311" y="41.032" width="0.830989" height="0.824466" fill="white"/>
<rect x="11.8311" y="41.8569" width="0.830989" height="0.824466" fill="white"/>
<rect x="11.8311" y="42.6809" width="0.830989" height="0.824466" fill="white"/>
<rect x="11" y="43.5049" width="0.830989" height="0.824466" fill="white"/>
<rect x="12.6621" y="43.5049" width="0.830989" height="0.824466" fill="white"/>
<rect x="12.6621" y="44.3289" width="0.830989" height="0.824466" fill="white"/>
<rect x="12.6621" y="45.1538" width="0.830989" height="0.824466" fill="white"/>
<rect x="12.6621" y="45.9788" width="0.830989" height="0.824466" fill="white"/>
<rect x="11.8311" y="46.8027" width="0.830989" height="0.824466" fill="white"/>
<rect x="13.4932" y="46.8027" width="0.830989" height="0.824466" fill="white"/>
<rect x="13.4932" y="47.6277" width="0.830989" height="0.824466" fill="white"/>
<rect x="13.4932" y="48.4517" width="0.830989" height="0.824466" fill="white"/>
<rect x="12.6621" y="49.2756" width="0.830989" height="0.824466" fill="white"/>
<rect x="14.3242" y="49.2756" width="0.830989" height="0.824466" fill="white"/>
<rect x="14.3242" y="50.1006" width="0.830989" height="0.824466" fill="white"/>
<rect x="13.4932" y="50.9255" width="0.830989" height="0.824466" fill="white"/>
<rect x="15.1553" y="50.9255" width="0.830989" height="0.824466" fill="white"/>
<rect x="15.1553" y="51.7495" width="0.830989" height="0.824466" fill="white"/>
<rect x="14.3242" y="52.5745" width="0.830989" height="0.824466" fill="white"/>
<rect x="15.9863" y="52.5745" width="0.830989" height="0.824466" fill="white"/>
<rect x="15.9863" y="53.3987" width="0.830989" height="0.824466" fill="white"/>
<rect x="15.1553" y="54.2234" width="0.830989" height="0.824466" fill="white"/>
<rect x="16.8164" y="54.2234" width="0.830989" height="0.824466" fill="white"/>
<rect x="15.9863" y="55.0476" width="0.830989" height="0.824466" fill="white"/>
<rect x="17.6475" y="55.0476" width="0.830989" height="0.824466" fill="white"/>
<rect x="16.8164" y="55.8726" width="0.830989" height="0.824466" fill="white"/>
<rect x="18.4785" y="55.8726" width="0.830989" height="0.824466" fill="white"/>
<rect x="18.4785" y="56.6965" width="0.830989" height="0.824466" fill="white"/>
<rect x="17.6475" y="57.5205" width="0.830989" height="0.824466" fill="white"/>
<rect x="19.3096" y="57.5205" width="0.830989" height="0.824466" fill="white"/>
<rect x="18.4785" y="58.3455" width="0.830989" height="0.824466" fill="white"/>
<rect x="20.1406" y="59.1704" width="0.830989" height="0.824466" fill="white"/>
<rect x="19.3096" y="59.1704" width="0.830989" height="0.824466" fill="white"/>
<rect x="21.8027" y="59.1704" width="0.830989" height="0.824466" fill="white"/>
<rect x="20.9717" y="59.9944" width="0.830989" height="0.824466" fill="white"/>
<rect x="22.6338" y="59.9944" width="0.830989" height="0.824466" fill="white"/>
<rect x="21.8027" y="60.8193" width="0.830989" height="0.824466" fill="white"/>
<rect x="23.4648" y="61.6433" width="0.830989" height="0.824466" fill="white"/>
<rect x="22.6338" y="61.6433" width="0.830989" height="0.824466" fill="white"/>
<rect x="24.2959" y="60.8193" width="0.830989" height="0.824466" fill="white"/>
<rect x="25.127" y="61.6433" width="0.830989" height="0.824466" fill="white"/>
<rect x="24.2959" y="62.4683" width="0.830989" height="0.824466" fill="white"/>
<rect x="26.7891" y="62.4683" width="0.830989" height="0.824466" fill="white"/>
<rect x="25.958" y="63.2922" width="0.830989" height="0.824466" fill="white"/>
<rect x="28.4512" y="64.1172" width="0.830989" height="0.824466" fill="white"/>
<rect x="27.6201" y="64.1172" width="0.830989" height="0.824466" fill="white"/>
<rect x="30.9434" y="64.9412" width="0.830989" height="0.824466" fill="white"/>
<rect x="30.1123" y="64.9412" width="0.830989" height="0.824466" fill="white"/>
<rect x="34.2676" y="65.7651" width="0.830989" height="0.824466" fill="white"/>
<rect x="33.4365" y="65.7651" width="0.830989" height="0.824466" fill="white"/>
<rect x="20.9717" y="58.3455" width="0.830989" height="0.824466" fill="white"/>
<rect x="25.127" y="63.2922" width="0.830989" height="0.824466" fill="white"/>
<rect x="26.7891" y="64.1172" width="0.830989" height="0.824466" fill="white"/>
<rect x="29.2822" y="63.2922" width="0.830989" height="0.824466" fill="white"/>
<rect x="29.2822" y="64.9412" width="0.830989" height="0.824466" fill="white"/>
<rect x="31.7744" y="64.1172" width="0.830989" height="0.824466" fill="white"/>
<rect x="32.6055" y="65.7651" width="0.830989" height="0.824466" fill="white"/>
<rect x="31.7744" y="65.7651" width="0.830989" height="0.824466" fill="white"/>
<rect x="35.0986" y="65.7651" width="0.830989" height="0.824466" fill="white"/>
<rect x="35.9297" y="65.7651" width="0.830989" height="0.824466" fill="white"/>
<rect x="36.7607" y="65.7651" width="0.830989" height="0.824466" fill="white"/>
<rect x="35.9297" y="13.824" width="0.830989" height="0.824466" fill="white"/>
<rect x="35.0986" y="13.824" width="0.830989" height="0.824466" fill="white"/>
<rect x="30.9434" y="14.6489" width="0.830989" height="0.824466" fill="white"/>
<rect x="30.1123" y="14.6489" width="0.830989" height="0.824466" fill="white"/>
<rect x="28.4512" y="15.4729" width="0.830989" height="0.824466" fill="white"/>
<rect x="27.6201" y="15.4729" width="0.830989" height="0.824466" fill="white"/>
<rect x="26.7891" y="16.2979" width="0.830989" height="0.824466" fill="white"/>
<rect x="25.958" y="16.2979" width="0.830989" height="0.824466" fill="white"/>
<rect x="25.127" y="17.1228" width="0.830989" height="0.824466" fill="white"/>
<rect x="24.2959" y="17.1228" width="0.830989" height="0.824466" fill="white"/>
<rect x="24.2959" y="17.9468" width="0.830989" height="0.824466" fill="white"/>
<rect x="23.4648" y="17.9468" width="0.830989" height="0.824466" fill="white"/>
<rect x="22.6338" y="17.9468" width="0.830989" height="0.824466" fill="white"/>
<rect x="22.6338" y="18.7708" width="0.830989" height="0.824466" fill="white"/>
<rect x="21.8027" y="18.7708" width="0.830989" height="0.824466" fill="white"/>
<rect x="21.8027" y="19.5957" width="0.830989" height="0.824466" fill="white"/>
<rect x="20.9717" y="19.5957" width="0.830989" height="0.824466" fill="white"/>
<rect x="20.1406" y="18.7708" width="0.830989" height="0.824466" fill="white"/>
<rect x="20.9717" y="20.4207" width="0.830989" height="0.824466" fill="white"/>
<rect x="20.1406" y="20.4207" width="0.830989" height="0.824466" fill="white"/>
<rect x="20.1406" y="21.2446" width="0.830989" height="0.824466" fill="white"/>
<rect x="19.3096" y="21.2446" width="0.830989" height="0.824466" fill="white"/>
<rect x="19.3096" y="22.0686" width="0.830989" height="0.824466" fill="white"/>
<rect x="18.4785" y="22.0686" width="0.830989" height="0.824466" fill="white"/>
<rect x="18.4785" y="22.8936" width="0.830989" height="0.824466" fill="white"/>
<rect x="17.6475" y="22.8936" width="0.830989" height="0.824466" fill="white"/>
<rect x="17.6475" y="23.7175" width="0.830989" height="0.824466" fill="white"/>
<rect x="16.8164" y="23.7175" width="0.830989" height="0.824466" fill="white"/>
<rect x="16.8164" y="24.5425" width="0.830989" height="0.824466" fill="white"/>
<rect x="15.9863" y="24.5425" width="0.830989" height="0.824466" fill="white"/>
<rect x="15.9863" y="25.3674" width="0.830989" height="0.824466" fill="white"/>
<rect x="15.9863" y="26.1914" width="0.830989" height="0.824466" fill="white"/>
<rect x="15.1553" y="26.1914" width="0.830989" height="0.824466" fill="white"/>
<rect x="14.3242" y="25.3674" width="0.830989" height="0.824466" fill="white"/>
<rect x="15.1553" y="27.0156" width="0.830989" height="0.824466" fill="white"/>
<rect x="15.1553" y="27.8406" width="0.830989" height="0.824466" fill="white"/>
<rect x="14.3242" y="27.8406" width="0.830989" height="0.824466" fill="white"/>
<rect x="14.3242" y="28.6646" width="0.830989" height="0.824466" fill="white"/>
<rect x="14.3242" y="29.4895" width="0.830989" height="0.824466" fill="white"/>
<rect x="13.4932" y="29.4895" width="0.830989" height="0.824466" fill="white"/>
<rect x="13.4932" y="30.3135" width="0.830989" height="0.824466" fill="white"/>
<rect x="13.4932" y="31.1384" width="0.830989" height="0.824466" fill="white"/>
<rect x="13.4932" y="31.9624" width="0.830989" height="0.824466" fill="white"/>
<rect x="12.6621" y="31.9624" width="0.830989" height="0.824466" fill="white"/>
<rect x="12.6621" y="32.7874" width="0.830989" height="0.824466" fill="white"/>
<rect x="12.6621" y="33.6123" width="0.830989" height="0.824466" fill="white"/>
<rect x="12.6621" y="34.4363" width="0.830989" height="0.824466" fill="white"/>
<rect x="12.6621" y="35.2603" width="0.830989" height="0.824466" fill="white"/>
<rect x="11.8311" y="35.2603" width="0.830989" height="0.824466" fill="white"/>
<rect x="11.8311" y="36.0842" width="0.830989" height="0.824466" fill="white"/>
<rect x="11.8311" y="36.9092" width="0.830989" height="0.824466" fill="white"/>
<rect x="11.8311" y="37.7341" width="0.830989" height="0.824466" fill="white"/>
<rect x="11.8311" y="38.5581" width="0.830989" height="0.824466" fill="white"/>
<rect x="25.958" y="17.1228" width="0.830989" height="0.824466" fill="white"/>
<rect x="27.6201" y="16.2979" width="0.830989" height="0.824466" fill="white"/>
<rect x="29.2822" y="14.6489" width="0.830989" height="0.824466" fill="white"/>
<rect x="29.2822" y="15.4729" width="0.830989" height="0.824466" fill="white"/>
<rect x="31.7744" y="14.6489" width="0.830989" height="0.824466" fill="white"/>
<rect x="32.6055" y="13.824" width="0.830989" height="0.824466" fill="white"/>
<rect x="32.6055" y="14.6489" width="0.830989" height="0.824466" fill="white"/>
<rect x="33.4365" y="13.824" width="0.830989" height="0.824466" fill="white"/>
<rect x="34.2676" y="13.824" width="0.830989" height="0.824466" fill="white"/>
<rect x="36.7607" y="13.824" width="0.830989" height="0.824466" fill="white"/>
<rect x="37.5918" y="13.824" width="0.830989" height="0.824466" fill="white"/>
<rect x="38.4229" y="13.824" width="0.830989" height="0.824466" fill="white"/>
<rect x="40.916" y="13.824" width="0.830989" height="0.824466" fill="white"/>
<rect x="40.085" y="13.824" width="0.830989" height="0.824466" fill="white"/>
<rect x="45.0703" y="14.6489" width="0.830989" height="0.824466" fill="white"/>
<rect x="44.2393" y="14.6489" width="0.830989" height="0.824466" fill="white"/>
<rect x="47.5635" y="15.4729" width="0.830989" height="0.824466" fill="white"/>
<rect x="46.7324" y="15.4729" width="0.830989" height="0.824466" fill="white"/>
<rect x="50.0566" y="15.4729" width="0.830989" height="0.824466" fill="white"/>
<rect x="49.2256" y="16.2979" width="0.830989" height="0.824466" fill="white"/>
<rect x="51.7188" y="16.2979" width="0.830989" height="0.824466" fill="white"/>
<rect x="50.8877" y="17.1228" width="0.830989" height="0.824466" fill="white"/>
<rect x="52.5498" y="17.9468" width="0.830989" height="0.824466" fill="white"/>
<rect x="51.7188" y="17.9468" width="0.830989" height="0.824466" fill="white"/>
<rect x="54.2109" y="17.9468" width="0.830989" height="0.824466" fill="white"/>
<rect x="53.3799" y="18.7708" width="0.830989" height="0.824466" fill="white"/>
<rect x="55.042" y="18.7708" width="0.830989" height="0.824466" fill="white"/>
<rect x="54.2109" y="19.5957" width="0.830989" height="0.824466" fill="white"/>
<rect x="55.873" y="19.5957" width="0.830989" height="0.824466" fill="white"/>
<rect x="55.042" y="20.4207" width="0.830989" height="0.824466" fill="white"/>
<rect x="56.7041" y="20.4207" width="0.830989" height="0.824466" fill="white"/>
<rect x="55.873" y="21.2446" width="0.830989" height="0.824466" fill="white"/>
<rect x="57.5352" y="21.2446" width="0.830989" height="0.824466" fill="white"/>
<rect x="56.7041" y="22.0686" width="0.830989" height="0.824466" fill="white"/>
<rect x="58.3662" y="22.0686" width="0.830989" height="0.824466" fill="white"/>
<rect x="57.5352" y="22.8936" width="0.830989" height="0.824466" fill="white"/>
<rect x="59.1973" y="22.8936" width="0.830989" height="0.824466" fill="white"/>
<rect x="58.3662" y="23.7175" width="0.830989" height="0.824466" fill="white"/>
<rect x="60.0283" y="23.7175" width="0.830989" height="0.824466" fill="white"/>
<rect x="60.0283" y="24.5425" width="0.830989" height="0.824466" fill="white"/>
<rect x="59.1973" y="25.3674" width="0.830989" height="0.824466" fill="white"/>
<rect x="60.8594" y="25.3674" width="0.830989" height="0.824466" fill="white"/>
<rect x="60.0283" y="26.1914" width="0.830989" height="0.824466" fill="white"/>
<rect x="61.6904" y="26.1914" width="0.830989" height="0.824466" fill="white"/>
<rect x="61.6904" y="27.0156" width="0.830989" height="0.824466" fill="white"/>
<rect x="60.8594" y="27.8406" width="0.830989" height="0.824466" fill="white"/>
<rect x="62.5215" y="27.8406" width="0.830989" height="0.824466" fill="white"/>
<rect x="62.5215" y="28.6646" width="0.830989" height="0.824466" fill="white"/>
<rect x="62.5215" y="29.4895" width="0.830989" height="0.824466" fill="white"/>
<rect x="61.6904" y="30.3135" width="0.830989" height="0.824466" fill="white"/>
<rect x="63.3525" y="30.3135" width="0.830989" height="0.824466" fill="white"/>
<rect x="63.3525" y="31.1384" width="0.830989" height="0.824466" fill="white"/>
<rect x="63.3525" y="31.9624" width="0.830989" height="0.824466" fill="white"/>
<rect x="62.5215" y="32.7874" width="0.830989" height="0.824466" fill="white"/>
<rect x="64.1836" y="32.7874" width="0.830989" height="0.824466" fill="white"/>
<rect x="64.1836" y="33.6123" width="0.830989" height="0.824466" fill="white"/>
<rect x="64.1836" y="34.4363" width="0.830989" height="0.824466" fill="white"/>
<rect x="64.1836" y="35.2603" width="0.830989" height="0.824466" fill="white"/>
<rect x="64.1836" y="36.0842" width="0.830989" height="0.824466" fill="white"/>
<rect x="63.3525" y="36.9092" width="0.830989" height="0.824466" fill="white"/>
<rect x="65.0146" y="36.9092" width="0.830989" height="0.824466" fill="white"/>
<rect x="65.0146" y="37.7341" width="0.830989" height="0.824466" fill="white"/>
<rect x="65.0146" y="38.5581" width="0.830989" height="0.824466" fill="white"/>
<rect x="39.2539" y="13.824" width="0.830989" height="0.824466" fill="white"/>
<rect x="41.7471" y="13.824" width="0.830989" height="0.824466" fill="white"/>
<rect x="42.5771" y="13.824" width="0.830989" height="0.824466" fill="white"/>
<rect x="43.4082" y="13" width="0.830989" height="0.824466" fill="white"/>
<rect x="43.4082" y="14.6489" width="0.830989" height="0.824466" fill="white"/>
<rect x="45.9014" y="14.6489" width="0.830989" height="0.824466" fill="white"/>
<rect x="46.7324" y="13.824" width="0.830989" height="0.824466" fill="white"/>
<rect x="48.3945" y="14.6489" width="0.830989" height="0.824466" fill="white"/>
<rect x="48.3945" y="16.2979" width="0.830989" height="0.824466" fill="white"/>
<rect x="50.0566" y="17.1228" width="0.830989" height="0.824466" fill="white"/>
<rect x="53.3799" y="17.1228" width="0.830989" height="0.824466" fill="white"/>
<path d="M25.2832 28.1819H28.3007C31.6269 28.1819 34.6484 27.4124 37.1948 25.0794C37.6294 24.6764 39.0183 24.5797 39.3635 24.9303C42.0602 27.6541 45.4228 28.2585 48.9967 28.1538C50.8121 28.0973 51.3401 28.7984 51.1776 30.5149C50.8744 33.7062 50.651 36.9055 50.5075 40.1128C50.4328 41.1566 50.5866 42.204 50.9583 43.1832C51.8193 45.1979 52.1157 47.1682 51.0355 49.1063C50.4831 50.0935 50.6415 49.9041 50.4263 50.3272C49.8293 50.1056 49.8171 50.1257 49.5084 50.4642C49.7156 50.7825 49.0576 51.1613 48.8018 51.3345C48.3957 51.5965 48.9247 51.5899 48.3764 51.6262C48.3926 51.5496 47.7028 52.0066 47.6726 51.9912C47.6423 51.9759 46.4632 52.5753 46.4632 52.5753C45.2448 52.9782 47.2138 52.3298 44.1436 53.325C42.6368 53.8166 41.1545 54.417 39.6153 54.7595C38.6919 54.9946 37.7203 54.9653 36.8131 54.6749C29.6206 51.7859 26.2132 46.2374 25.8031 38.6824C25.6041 35.3018 25.4579 31.8809 25.2832 28.1819Z" fill="white"/>
<rect x="25.668" y="27.5513" width="1.27547" height="1.26546" fill="white"/>
<rect x="26.9434" y="27.5513" width="1.27547" height="1.26546" fill="white"/>
<rect x="24.3926" y="27.5513" width="1.27547" height="1.26546" fill="white"/>
<rect x="28.2188" y="27.5513" width="1.27547" height="1.26546" fill="white"/>
<rect x="35.8721" y="25.0208" width="1.27547" height="1.26546" fill="white"/>
<rect x="33.3213" y="26.2861" width="1.27547" height="1.26546" fill="white"/>
<rect x="29.4941" y="27.5513" width="1.27547" height="1.26546" fill="white"/>
<rect x="30.7695" y="27.5513" width="1.27547" height="1.26546" fill="white"/>
<rect x="32.0449" y="27.5513" width="1.27547" height="1.26546" fill="white"/>
<rect x="34.5967" y="26.2861" width="1.27547" height="1.26546" fill="white"/>
<rect x="37.1475" y="23.7554" width="1.27547" height="1.26546" fill="white"/>
<rect x="38.4229" y="23.7554" width="1.27547" height="1.26546" fill="white"/>
<rect x="39.6982" y="25.0208" width="1.27547" height="1.26546" fill="white"/>
<rect x="40.9736" y="26.2861" width="1.27547" height="1.26546" fill="white"/>
<rect x="42.249" y="26.2861" width="1.27547" height="1.26546" fill="white"/>
<rect x="43.5244" y="27.5513" width="1.27547" height="1.26546" fill="white"/>
<rect x="44.7998" y="27.5513" width="1.27547" height="1.26546" fill="white"/>
<rect x="46.0752" y="27.5513" width="1.27547" height="1.26546" fill="white"/>
<rect x="47.3506" y="27.5513" width="1.27547" height="1.26546" fill="white"/>
<rect x="48.627" y="27.5513" width="1.27547" height="1.26546" fill="white"/>
<rect x="49.9023" y="28.8176" width="1.27547" height="1.26546" fill="white"/>
<rect x="49.9023" y="27.5513" width="1.27547" height="1.26546" fill="white"/>
<rect x="49.9023" y="30.083" width="1.27547" height="1.26546" fill="white"/>
<rect x="49.9023" y="31.3484" width="1.27547" height="1.26546" fill="white"/>
<rect x="49.9023" y="32.6138" width="1.27547" height="1.26546" fill="white"/>
<rect x="49.9023" y="33.8789" width="1.27547" height="1.26546" fill="white"/>
<rect x="49.9023" y="35.1443" width="1.27547" height="1.26546" fill="white"/>
<rect x="49.9023" y="36.4097" width="1.27547" height="1.26546" fill="white"/>
<rect x="49.9023" y="37.675" width="1.27547" height="1.26546" fill="white"/>
<rect x="49.9023" y="38.9412" width="1.27547" height="1.26546" fill="white"/>
<rect x="49.9023" y="40.2065" width="1.27547" height="1.26546" fill="white"/>
<rect x="49.9023" y="41.4719" width="1.27547" height="1.26546" fill="white"/>
<rect x="49.9023" y="42.7373" width="1.27547" height="1.26546" fill="white"/>
<rect x="51.1777" y="44.0027" width="1.27547" height="1.26546" fill="white"/>
<rect x="51.1777" y="45.2678" width="1.27547" height="1.26546" fill="white"/>
<rect x="51.1777" y="46.5332" width="1.27547" height="1.26546" fill="white"/>
<rect x="51.1777" y="47.7996" width="1.27547" height="1.26546" fill="white"/>
<rect x="49.9023" y="49.0649" width="1.27547" height="1.26546" fill="white"/>
<rect x="48.627" y="50.3303" width="1.27547" height="1.26546" fill="white"/>
<rect x="47.3506" y="51.5955" width="1.27547" height="1.26546" fill="white"/>
<rect x="46.0752" y="51.5955" width="1.27547" height="1.26546" fill="white"/>
<rect x="43.5244" y="52.8608" width="1.27547" height="1.26546" fill="white"/>
<rect x="44.7998" y="51.5955" width="1.27547" height="1.26546" fill="white"/>
<rect x="42.249" y="52.8608" width="1.27547" height="1.26546" fill="white"/>
<rect x="39.6982" y="54.1262" width="1.27547" height="1.26546" fill="white"/>
<rect x="40.9736" y="54.1262" width="1.27547" height="1.26546" fill="white"/>
<rect x="38.4229" y="54.1262" width="1.27547" height="1.26546" fill="white"/>
<rect x="37.1475" y="54.1262" width="1.27547" height="1.26546" fill="white"/>
<rect x="35.8721" y="54.1262" width="1.27547" height="1.26546" fill="white"/>
<rect x="25.668" y="38.9412" width="1.27547" height="1.26546" fill="white"/>
<rect x="25.668" y="40.2065" width="1.27547" height="1.26546" fill="white"/>
<rect x="25.668" y="41.4719" width="1.27547" height="1.26546" fill="white"/>
<rect x="25.668" y="42.7373" width="1.27547" height="1.26546" fill="white"/>
<rect x="25.668" y="44.0027" width="1.27547" height="1.26546" fill="white"/>
<rect x="26.9434" y="45.2678" width="1.27547" height="1.26546" fill="white"/>
<rect x="26.9434" y="46.5332" width="1.27547" height="1.26546" fill="white"/>
<rect x="28.2188" y="47.7996" width="1.27547" height="1.26546" fill="white"/>
<rect x="29.4941" y="49.0649" width="1.27547" height="1.26546" fill="white"/>
<rect x="30.7695" y="50.3303" width="1.27547" height="1.26546" fill="white"/>
<rect x="32.0449" y="51.5955" width="1.27547" height="1.26546" fill="white"/>
<rect x="33.3213" y="52.8608" width="1.27547" height="1.26546" fill="white"/>
<rect x="34.5967" y="52.8608" width="1.27547" height="1.26546" fill="white"/>
<rect x="25.668" y="37.675" width="1.27547" height="1.26546" fill="white"/>
<rect x="24.3926" y="28.8176" width="1.27547" height="1.26546" fill="white"/>
<rect x="24.3926" y="30.083" width="1.27547" height="1.26546" fill="white"/>
<rect x="24.3926" y="31.3484" width="1.27547" height="1.26546" fill="white"/>
<rect x="24.3926" y="32.6138" width="1.27547" height="1.26546" fill="white"/>
<rect x="24.3926" y="33.8789" width="1.27547" height="1.26546" fill="white"/>
<rect x="24.3926" y="35.1443" width="1.27547" height="1.26546" fill="white"/>
<rect x="24.3926" y="36.4097" width="1.27547" height="1.26546" fill="white"/>
</svg>
