<svg width="301" height="76" viewBox="0 0 301 76" fill="none" xmlns="http://www.w3.org/2000/svg">
<path d="M12.0227 75.9289V72.5729H6.1714L5.91529 69.1044C3.02906 68.4462 3.02906 68.4463 2.99951 64.954C2.99951 62.0487 2.76309 61.7878 0 61.266V14.6806C0.147759 14.5502 0.226564 14.4138 0.315219 14.4019C2.90593 14.0758 2.99951 13.9454 3.01429 10.6488C3.01429 9.54595 3.01429 8.44313 3.01429 7.23358L5.96947 7.06163L6.10738 3.5575H11.9291L12.1212 0H288.958L289.233 3.5575H295.031C295.085 4.82634 295.129 5.86394 295.188 7.115H298.104V10.6251C298.104 14.058 298.148 14.1055 301 14.5205V61.3609C298.183 61.8767 298.119 61.9538 298.114 65.6536C298.114 66.6379 298.114 67.6221 298.114 68.7783L295.218 69.0451C295.159 70.1716 295.104 71.2092 295.035 72.5077H289.253C289.164 73.7943 289.091 74.8201 289.002 76L12.0227 75.9289Z" fill="white"/>
<path d="M65.1152 37.853H65.9295V38.6609H65.1152V37.853Z" fill="#4BB821"/>
<path d="M65.1152 38.6609H65.9295V39.4688H65.1152V38.6609Z" fill="#4BB821"/>
<path d="M65.1152 39.4688H65.9295V40.2767H65.1152V39.4688Z" fill="#4BB821"/>
<path d="M64.3009 40.2767H65.1152V41.0846H64.3009V40.2767Z" fill="#4BB821"/>
<path d="M64.3009 41.0846H65.1152V41.8926H64.3009V41.0846Z" fill="#4BB821"/>
<path d="M64.3009 41.8926H65.1152V42.7005H64.3009V41.8926Z" fill="#4BB821"/>
<path d="M64.3009 42.7005H65.1152V43.5084H64.3009V42.7005Z" fill="#4BB821"/>
<path d="M64.3009 43.5084H65.1152V44.3163H64.3009V43.5084Z" fill="#4BB821"/>
<path d="M64.3009 44.3163H65.1152V45.1242H64.3009V44.3163Z" fill="#4BB821"/>
<path d="M63.4866 45.1242H64.3009V45.9321H63.4866V45.1242Z" fill="#4BB821"/>
<path d="M63.4866 45.9321H64.3009V46.74H63.4866V45.9321Z" fill="#4BB821"/>
<path d="M63.4866 46.74H64.3009V47.5479H63.4866V46.74Z" fill="#4BB821"/>
<path d="M62.6723 47.5479H63.4866V48.3558H62.6723V47.5479Z" fill="#4BB821"/>
<path d="M62.6723 48.3558H63.4866V49.1637H62.6723V48.3558Z" fill="#4BB821"/>
<path d="M61.858 49.1637H62.6723V49.9716H61.858V49.1637Z" fill="#4BB821"/>
<path d="M61.858 49.9716H62.6723V50.7795H61.858V49.9716Z" fill="#4BB821"/>
<path d="M61.0437 50.7795H61.858V51.5874H61.0437V50.7795Z" fill="#4BB821"/>
<path d="M60.2294 51.5874H61.0437V52.3953H60.2294V51.5874Z" fill="#4BB821"/>
<path d="M60.2294 52.3953H61.0437V53.2032H60.2294V52.3953Z" fill="#4BB821"/>
<path d="M59.4151 53.2032H60.2294V54.0112H59.4151V53.2032Z" fill="#4BB821"/>
<path d="M58.6008 54.0112H59.4151V54.8191H58.6008V54.0112Z" fill="#4BB821"/>
<path d="M57.7865 54.8191H58.6008V55.627H57.7865V54.8191Z" fill="#4BB821"/>
<path d="M56.9722 55.627H57.7865V56.4349H56.9722V55.627Z" fill="#4BB821"/>
<path d="M56.1579 56.4349H56.9722V57.2428H56.1579V56.4349Z" fill="#4BB821"/>
<path d="M55.3436 57.2428H56.1579V58.0507H55.3436V57.2428Z" fill="#4BB821"/>
<path d="M54.5293 58.0507H55.3436V58.8586H54.5293V58.0507Z" fill="#4BB821"/>
<path d="M53.715 58.8586H54.5293V59.6665H53.715V58.8586Z" fill="#4BB821"/>
<path d="M52.0864 59.6665H52.9007V60.4744H52.0864V59.6665Z" fill="#4BB821"/>
<path d="M50.4578 60.4744H51.2721V61.2823H50.4578V60.4744Z" fill="#4BB821"/>
<path d="M48.8292 61.2823H49.6435V62.0902H48.8292V61.2823Z" fill="#4BB821"/>
<path d="M46.3863 62.0902H47.2006V62.8981H46.3863V62.0902Z" fill="#4BB821"/>
<path d="M43.1291 62.8981H43.9434V63.706H43.1291V62.8981Z" fill="#4BB821"/>
<path d="M39.0576 62.8981H39.8719V63.706H39.0576V62.8981Z" fill="#4BB821"/>
<path d="M39.8719 62.8981H40.6862V63.706H39.8719V62.8981Z" fill="#4BB821"/>
<path d="M40.6862 62.8981H41.5005V63.706H40.6862V62.8981Z" fill="#4BB821"/>
<path d="M41.5005 62.8981H42.3148V63.706H41.5005V62.8981Z" fill="#4BB821"/>
<path d="M42.3148 62.8981H43.1291V63.706H42.3148V62.8981Z" fill="#4BB821"/>
<path d="M43.9434 62.8981H44.7577V63.706H43.9434V62.8981Z" fill="#4BB821"/>
<path d="M44.7577 62.8981H45.572V63.706H44.7577V62.8981Z" fill="#4BB821"/>
<path d="M45.572 62.0902H46.3863V62.8981H45.572V62.0902Z" fill="#4BB821"/>
<path d="M47.2006 62.0902H48.0149V62.8981H47.2006V62.0902Z" fill="#4BB821"/>
<path d="M48.0149 61.2823H48.8292V62.0902H48.0149V61.2823Z" fill="#4BB821"/>
<path d="M49.6435 61.2823H50.4578V62.0902H49.6435V61.2823Z" fill="#4BB821"/>
<path d="M51.2721 60.4744H52.0864V61.2823H51.2721V60.4744Z" fill="#4BB821"/>
<path d="M52.9007 58.8586H53.715V59.6665H52.9007V58.8586Z" fill="#4BB821"/>
<path d="M13 37.853H13.8143V38.6609H13V37.853Z" fill="#4BB821"/>
<path d="M13 38.6609H13.8143V39.4688H13V38.6609Z" fill="#4BB821"/>
<path d="M13 39.4688H13.8143V40.2767H13V39.4688Z" fill="#4BB821"/>
<path d="M13 40.2767H13.8143V41.0846H13V40.2767Z" fill="#4BB821"/>
<path d="M13 41.0846H13.8143V41.8926H13V41.0846Z" fill="#4BB821"/>
<path d="M13.8143 41.8926H14.6286V42.7005H13.8143V41.8926Z" fill="#4BB821"/>
<path d="M13.8143 42.7005H14.6286V43.5084H13.8143V42.7005Z" fill="#4BB821"/>
<path d="M13.8143 43.5084H14.6286V44.3163H13.8143V43.5084Z" fill="#4BB821"/>
<path d="M13.8143 44.3163H14.6286V45.1242H13.8143V44.3163Z" fill="#4BB821"/>
<path d="M14.6286 45.1242H15.4429V45.9321H14.6286V45.1242Z" fill="#4BB821"/>
<path d="M14.6286 45.9321H15.4429V46.74H14.6286V45.9321Z" fill="#4BB821"/>
<path d="M14.6286 46.74H15.4429V47.5479H14.6286V46.74Z" fill="#4BB821"/>
<path d="M15.4429 47.5479H16.2572V48.3558H15.4429V47.5479Z" fill="#4BB821"/>
<path d="M15.4429 48.3558H16.2572V49.1637H15.4429V48.3558Z" fill="#4BB821"/>
<path d="M16.2572 49.1637H17.0715V49.9716H16.2572V49.1637Z" fill="#4BB821"/>
<path d="M16.2572 49.9716H17.0715V50.7795H16.2572V49.9716Z" fill="#4BB821"/>
<path d="M17.0715 50.7795H17.8858V51.5874H17.0715V50.7795Z" fill="#4BB821"/>
<path d="M17.0715 51.5874H17.8858V52.3953H17.0715V51.5874Z" fill="#4BB821"/>
<path d="M17.8858 52.3953H18.7001V53.2032H17.8858V52.3953Z" fill="#4BB821"/>
<path d="M18.7001 53.2032H19.5144V54.0112H18.7001V53.2032Z" fill="#4BB821"/>
<path d="M19.5144 54.0112H20.3287V54.8191H19.5144V54.0112Z" fill="#4BB821"/>
<path d="M19.5144 54.8191H20.3287V55.627H19.5144V54.8191Z" fill="#4BB821"/>
<path d="M20.3287 55.627H21.143V56.4349H20.3287V55.627Z" fill="#4BB821"/>
<path d="M21.143 56.4349H21.9573V57.2428H21.143V56.4349Z" fill="#4BB821"/>
<path d="M22.7716 57.2428H23.5859V58.0507H22.7716V57.2428Z" fill="#4BB821"/>
<path d="M23.5859 58.0507H24.4002V58.8586H23.5859V58.0507Z" fill="#4BB821"/>
<path d="M24.4002 58.8586H25.2145V59.6665H24.4002V58.8586Z" fill="#4BB821"/>
<path d="M26.0288 59.6665H26.8431V60.4744H26.0288V59.6665Z" fill="#4BB821"/>
<path d="M27.6574 60.4744H28.4717V61.2823H27.6574V60.4744Z" fill="#4BB821"/>
<path d="M29.286 61.2823H30.1003V62.0902H29.286V61.2823Z" fill="#4BB821"/>
<path d="M31.7289 62.0902H32.5432V62.8981H31.7289V62.0902Z" fill="#4BB821"/>
<path d="M34.9861 62.8981H35.8004V63.706H34.9861V62.8981Z" fill="#4BB821"/>
<path d="M21.9573 56.4349H22.7716V57.2428H21.9573V56.4349Z" fill="#4BB821"/>
<path d="M25.2145 58.8586H26.0288V59.6665H25.2145V58.8586Z" fill="#4BB821"/>
<path d="M26.8431 60.4744H27.6574V61.2823H26.8431V60.4744Z" fill="#4BB821"/>
<path d="M28.4717 61.2823H29.286V62.0902H28.4717V61.2823Z" fill="#4BB821"/>
<path d="M30.1003 61.2823H30.9146V62.0902H30.1003V61.2823Z" fill="#4BB821"/>
<path d="M30.9146 62.0902H31.7289V62.8981H30.9146V62.0902Z" fill="#4BB821"/>
<path d="M32.5432 62.0902H33.3575V62.8981H32.5432V62.0902Z" fill="#4BB821"/>
<path d="M33.3575 62.8981H34.1718V63.706H33.3575V62.8981Z" fill="#4BB821"/>
<path d="M34.1718 62.8981H34.9861V63.706H34.1718V62.8981Z" fill="#4BB821"/>
<path d="M35.8004 62.8981H36.6147V63.706H35.8004V62.8981Z" fill="#4BB821"/>
<path d="M36.6147 62.8981H37.429V63.706H36.6147V62.8981Z" fill="#4BB821"/>
<path d="M37.429 62.8981H38.2433V63.706H37.429V62.8981Z" fill="#4BB821"/>
<path d="M38.2433 62.8981H39.0576V63.706H38.2433V62.8981Z" fill="#4BB821"/>
<path d="M36.6147 12H37.429V12.8079H36.6147V12Z" fill="#4BB821"/>
<path d="M31.7289 12.8079H32.5432V13.6158H31.7289V12.8079Z" fill="#4BB821"/>
<path d="M29.286 13.6158H30.1003V14.4237H29.286V13.6158Z" fill="#4BB821"/>
<path d="M27.6574 14.4237H28.4717V15.2316H27.6574V14.4237Z" fill="#4BB821"/>
<path d="M26.0288 15.2316H26.8431V16.0395H26.0288V15.2316Z" fill="#4BB821"/>
<path d="M25.2145 16.0395H26.0288V16.8474H25.2145V16.0395Z" fill="#4BB821"/>
<path d="M23.5859 16.8474H24.4002V17.6553H23.5859V16.8474Z" fill="#4BB821"/>
<path d="M22.7716 17.6553H23.5859V18.4633H22.7716V17.6553Z" fill="#4BB821"/>
<path d="M21.9573 18.4633H22.7716V19.2712H21.9573V18.4633Z" fill="#4BB821"/>
<path d="M21.143 19.2712H21.9573V20.0791H21.143V19.2712Z" fill="#4BB821"/>
<path d="M20.3287 20.0791H21.143V20.887H20.3287V20.0791Z" fill="#4BB821"/>
<path d="M19.5144 20.887H20.3287V21.6949H19.5144V20.887Z" fill="#4BB821"/>
<path d="M18.7001 21.6949H19.5144V22.5028H18.7001V21.6949Z" fill="#4BB821"/>
<path d="M17.8858 22.5028H18.7001V23.3107H17.8858V22.5028Z" fill="#4BB821"/>
<path d="M17.0715 23.3107H17.8858V24.1186H17.0715V23.3107Z" fill="#4BB821"/>
<path d="M17.0715 24.1186H17.8858V24.9265H17.0715V24.1186Z" fill="#4BB821"/>
<path d="M16.2572 24.9265H17.0715V25.7344H16.2572V24.9265Z" fill="#4BB821"/>
<path d="M16.2572 25.7344H17.0715V26.5423H16.2572V25.7344Z" fill="#4BB821"/>
<path d="M15.4429 26.5423H16.2572V27.3502H15.4429V26.5423Z" fill="#4BB821"/>
<path d="M15.4429 27.3502H16.2572V28.1581H15.4429V27.3502Z" fill="#4BB821"/>
<path d="M14.6286 28.1581H15.4429V28.966H14.6286V28.1581Z" fill="#4BB821"/>
<path d="M14.6286 28.966H15.4429V29.774H14.6286V28.966Z" fill="#4BB821"/>
<path d="M14.6286 29.774H15.4429V30.5819H14.6286V29.774Z" fill="#4BB821"/>
<path d="M13.8143 30.5819H14.6286V31.3898H13.8143V30.5819Z" fill="#4BB821"/>
<path d="M13.8143 31.3898H14.6286V32.1977H13.8143V31.3898Z" fill="#4BB821"/>
<path d="M13.8143 32.1977H14.6286V33.0056H13.8143V32.1977Z" fill="#4BB821"/>
<path d="M13.8143 33.0056H14.6286V33.8135H13.8143V33.0056Z" fill="#4BB821"/>
<path d="M13 33.8135H13.8143V34.6214H13V33.8135Z" fill="#4BB821"/>
<path d="M13 34.6214H13.8143V35.4293H13V34.6214Z" fill="#4BB821"/>
<path d="M13 35.4293H13.8143V36.2372H13V35.4293Z" fill="#4BB821"/>
<path d="M13 36.2372H13.8143V37.0451H13V36.2372Z" fill="#4BB821"/>
<path d="M13 37.0451H13.8143V37.853H13V37.0451Z" fill="#4BB821"/>
<path d="M24.4002 16.0395H25.2145V16.8474H24.4002V16.0395Z" fill="#4BB821"/>
<path d="M26.8431 15.2316H27.6574V16.0395H26.8431V15.2316Z" fill="#4BB821"/>
<path d="M28.4717 14.4237H29.286V15.2316H28.4717V14.4237Z" fill="#4BB821"/>
<path d="M30.1003 13.6158H30.9146V14.4237H30.1003V13.6158Z" fill="#4BB821"/>
<path d="M30.9146 12.8079H31.7289V13.6158H30.9146V12.8079Z" fill="#4BB821"/>
<path d="M32.5432 12.8079H33.3575V13.6158H32.5432V12.8079Z" fill="#4BB821"/>
<path d="M33.3575 12.8079H34.1718V13.6158H33.3575V12.8079Z" fill="#4BB821"/>
<path d="M34.1718 12H34.9861V12.8079H34.1718V12Z" fill="#4BB821"/>
<path d="M34.9861 12H35.8004V12.8079H34.9861V12Z" fill="#4BB821"/>
<path d="M35.8004 12H36.6147V12.8079H35.8004V12Z" fill="#4BB821"/>
<path d="M37.429 12H38.2433V12.8079H37.429V12Z" fill="#4BB821"/>
<path d="M38.2433 12H39.0576V12.8079H38.2433V12Z" fill="#4BB821"/>
<path d="M39.0576 12H39.8719V12.8079H39.0576V12Z" fill="#4BB821"/>
<path d="M41.5005 12H42.3148V12.8079H41.5005V12Z" fill="#4BB821"/>
<path d="M45.572 12.8079H46.3863V13.6158H45.572V12.8079Z" fill="#4BB821"/>
<path d="M48.0149 13.6158H48.8292V14.4237H48.0149V13.6158Z" fill="#4BB821"/>
<path d="M50.4578 14.4237H51.2721V15.2316H50.4578V14.4237Z" fill="#4BB821"/>
<path d="M52.0864 15.2316H52.9007V16.0395H52.0864V15.2316Z" fill="#4BB821"/>
<path d="M52.9007 16.0395H53.715V16.8474H52.9007V16.0395Z" fill="#4BB821"/>
<path d="M54.5293 16.8474H55.3436V17.6553H54.5293V16.8474Z" fill="#4BB821"/>
<path d="M55.3436 17.6553H56.1579V18.4633H55.3436V17.6553Z" fill="#4BB821"/>
<path d="M56.1579 18.4633H56.9722V19.2712H56.1579V18.4633Z" fill="#4BB821"/>
<path d="M56.9722 19.2712H57.7865V20.0791H56.9722V19.2712Z" fill="#4BB821"/>
<path d="M57.7865 20.0791H58.6008V20.887H57.7865V20.0791Z" fill="#4BB821"/>
<path d="M58.6008 20.887H59.4151V21.6949H58.6008V20.887Z" fill="#4BB821"/>
<path d="M59.4151 21.6949H60.2294V22.5028H59.4151V21.6949Z" fill="#4BB821"/>
<path d="M60.2294 22.5028H61.0437V23.3107H60.2294V22.5028Z" fill="#4BB821"/>
<path d="M60.2294 23.3107H61.0437V24.1186H60.2294V23.3107Z" fill="#4BB821"/>
<path d="M61.0437 24.1186H61.858V24.9265H61.0437V24.1186Z" fill="#4BB821"/>
<path d="M61.858 24.9265H62.6723V25.7344H61.858V24.9265Z" fill="#4BB821"/>
<path d="M61.858 25.7344H62.6723V26.5423H61.858V25.7344Z" fill="#4BB821"/>
<path d="M62.6723 26.5423H63.4866V27.3502H62.6723V26.5423Z" fill="#4BB821"/>
<path d="M62.6723 27.3502H63.4866V28.1581H62.6723V27.3502Z" fill="#4BB821"/>
<path d="M62.6723 28.1581H63.4866V28.966H62.6723V28.1581Z" fill="#4BB821"/>
<path d="M63.4866 28.966H64.3009V29.774H63.4866V28.966Z" fill="#4BB821"/>
<path d="M63.4866 29.774H64.3009V30.5819H63.4866V29.774Z" fill="#4BB821"/>
<path d="M63.4866 30.5819H64.3009V31.3898H63.4866V30.5819Z" fill="#4BB821"/>
<path d="M64.3009 31.3898H65.1152V32.1977H64.3009V31.3898Z" fill="#4BB821"/>
<path d="M64.3009 32.1977H65.1152V33.0056H64.3009V32.1977Z" fill="#4BB821"/>
<path d="M64.3009 33.0056H65.1152V33.8135H64.3009V33.0056Z" fill="#4BB821"/>
<path d="M64.3009 33.8135H65.1152V34.6214H64.3009V33.8135Z" fill="#4BB821"/>
<path d="M64.3009 34.6214H65.1152V35.4293H64.3009V34.6214Z" fill="#4BB821"/>
<path d="M65.1152 35.4293H65.9295V36.2372H65.1152V35.4293Z" fill="#4BB821"/>
<path d="M65.1152 36.2372H65.9295V37.0451H65.1152V36.2372Z" fill="#4BB821"/>
<path d="M65.1152 37.0451H65.9295V37.853H65.1152V37.0451Z" fill="#4BB821"/>
<path d="M39.8719 12H40.6862V12.8079H39.8719V12Z" fill="#4BB821"/>
<path d="M40.6862 12H41.5005V12.8079H40.6862V12Z" fill="#4BB821"/>
<path d="M42.3148 12H43.1291V12.8079H42.3148V12Z" fill="#4BB821"/>
<path d="M43.1291 12H43.9434V12.8079H43.1291V12Z" fill="#4BB821"/>
<path d="M43.9434 12H44.7577V12.8079H43.9434V12Z" fill="#4BB821"/>
<path d="M44.7577 12.8079H45.572V13.6158H44.7577V12.8079Z" fill="#4BB821"/>
<path d="M46.3863 12.8079H47.2006V13.6158H46.3863V12.8079Z" fill="#4BB821"/>
<path d="M47.2006 12.8079H48.0149V13.6158H47.2006V12.8079Z" fill="#4BB821"/>
<path d="M48.8292 13.6158H49.6435V14.4237H48.8292V13.6158Z" fill="#4BB821"/>
<path d="M49.6435 14.4237H50.4578V15.2316H49.6435V14.4237Z" fill="#4BB821"/>
<path d="M51.2721 15.2316H52.0864V16.0395H51.2721V15.2316Z" fill="#4BB821"/>
<path d="M53.715 16.0395H54.5293V16.8474H53.715V16.0395Z" fill="#4BB821"/>
<rect x="65.1152" y="37.8535" width="0.814299" height="0.807907" fill="#4BB821"/>
<rect x="65.1152" y="38.6621" width="0.814299" height="0.807907" fill="#4BB821"/>
<rect x="65.1152" y="39.4692" width="0.814299" height="0.807907" fill="#4BB821"/>
<rect x="64.3008" y="40.2773" width="0.814299" height="0.807907" fill="#4BB821"/>
<rect x="64.3008" y="41.0845" width="0.814299" height="0.807907" fill="#4BB821"/>
<rect x="64.3008" y="41.8926" width="0.814299" height="0.807907" fill="#4BB821"/>
<rect x="64.3008" y="42.7012" width="0.814299" height="0.807907" fill="#4BB821"/>
<rect x="64.3008" y="43.5093" width="0.814299" height="0.807907" fill="#4BB821"/>
<rect x="64.3008" y="44.3164" width="0.814299" height="0.807907" fill="#4BB821"/>
<rect x="63.4863" y="45.125" width="0.814299" height="0.807907" fill="#4BB821"/>
<rect x="63.4863" y="45.9326" width="0.814299" height="0.807907" fill="#4BB821"/>
<rect x="63.4863" y="46.7412" width="0.814299" height="0.807907" fill="#4BB821"/>
<rect x="62.6729" y="47.5479" width="0.814299" height="0.807907" fill="#4BB821"/>
<rect x="62.6729" y="48.3564" width="0.814299" height="0.807907" fill="#4BB821"/>
<rect x="61.8584" y="49.1636" width="0.814299" height="0.807907" fill="#4BB821"/>
<rect x="61.8584" y="49.9727" width="0.814299" height="0.807907" fill="#4BB821"/>
<rect x="61.0439" y="50.7798" width="0.814299" height="0.807907" fill="#4BB821"/>
<rect x="60.2295" y="51.5879" width="0.814299" height="0.807907" fill="#4BB821"/>
<rect x="60.2295" y="52.3955" width="0.814299" height="0.807907" fill="#4BB821"/>
<rect x="59.415" y="53.2031" width="0.814299" height="0.807907" fill="#4BB821"/>
<rect x="58.6006" y="54.0117" width="0.814299" height="0.807907" fill="#4BB821"/>
<rect x="57.7871" y="54.8203" width="0.814299" height="0.807907" fill="#4BB821"/>
<rect x="56.9727" y="55.627" width="0.814299" height="0.807907" fill="#4BB821"/>
<rect x="56.1582" y="56.4355" width="0.814299" height="0.807907" fill="#4BB821"/>
<rect x="55.3438" y="57.2437" width="0.814299" height="0.807907" fill="#4BB821"/>
<rect x="54.5293" y="58.0518" width="0.814299" height="0.807907" fill="#4BB821"/>
<rect x="53.7148" y="58.8584" width="0.814299" height="0.807907" fill="#4BB821"/>
<rect x="52.0869" y="59.667" width="0.814299" height="0.807907" fill="#4BB821"/>
<rect x="50.458" y="60.4741" width="0.814299" height="0.807907" fill="#4BB821"/>
<rect x="48.8291" y="61.2822" width="0.814299" height="0.807907" fill="#4BB821"/>
<rect x="46.3867" y="62.0908" width="0.814299" height="0.807907" fill="#4BB821"/>
<rect x="43.1289" y="62.8984" width="0.814299" height="0.807907" fill="#4BB821"/>
<rect x="39.0576" y="62.8989" width="0.814299" height="0.807907" fill="#4BB821"/>
<rect x="39.8721" y="62.8989" width="0.814299" height="0.807907" fill="#4BB821"/>
<rect x="40.6865" y="62.8989" width="0.814299" height="0.807907" fill="#4BB821"/>
<rect x="41.501" y="62.8984" width="0.814299" height="0.807907" fill="#4BB821"/>
<rect x="42.3145" y="62.8984" width="0.814299" height="0.807907" fill="#4BB821"/>
<rect x="43.9434" y="62.8984" width="0.814299" height="0.807907" fill="#4BB821"/>
<rect x="44.7578" y="62.8989" width="0.814299" height="0.807907" fill="#4BB821"/>
<rect x="45.5723" y="62.0908" width="0.814299" height="0.807907" fill="#4BB821"/>
<rect x="47.2012" y="62.0908" width="0.814299" height="0.807907" fill="#4BB821"/>
<rect x="48.0146" y="61.2822" width="0.814299" height="0.807907" fill="#4BB821"/>
<rect x="49.6436" y="61.2827" width="0.814299" height="0.807907" fill="#4BB821"/>
<rect x="51.2725" y="60.4741" width="0.814299" height="0.807907" fill="#4BB821"/>
<rect x="52.9004" y="58.8584" width="0.814299" height="0.807907" fill="#4BB821"/>
<rect x="13" y="37.8535" width="0.814299" height="0.807907" fill="#4BB821"/>
<rect x="13" y="38.6621" width="0.814299" height="0.807907" fill="#4BB821"/>
<rect x="13" y="39.4692" width="0.814299" height="0.807907" fill="#4BB821"/>
<rect x="13" y="40.2773" width="0.814299" height="0.807907" fill="#4BB821"/>
<rect x="13" y="41.0845" width="0.814299" height="0.807907" fill="#4BB821"/>
<rect x="13.8145" y="41.8926" width="0.814299" height="0.807907" fill="#4BB821"/>
<rect x="13.8145" y="42.7012" width="0.814299" height="0.807907" fill="#4BB821"/>
<rect x="13.8145" y="43.5093" width="0.814299" height="0.807907" fill="#4BB821"/>
<rect x="13.8145" y="44.3164" width="0.814299" height="0.807907" fill="#4BB821"/>
<rect x="14.6289" y="45.1245" width="0.814299" height="0.807907" fill="#4BB821"/>
<rect x="14.6289" y="45.9326" width="0.814299" height="0.807907" fill="#4BB821"/>
<rect x="14.6289" y="46.7407" width="0.814299" height="0.807907" fill="#4BB821"/>
<rect x="15.4434" y="47.5479" width="0.814299" height="0.807907" fill="#4BB821"/>
<rect x="15.4434" y="48.3564" width="0.814299" height="0.807907" fill="#4BB821"/>
<rect x="16.2578" y="49.1631" width="0.814299" height="0.807907" fill="#4BB821"/>
<rect x="16.2578" y="49.9727" width="0.814299" height="0.807907" fill="#4BB821"/>
<rect x="17.0713" y="50.7798" width="0.814299" height="0.807907" fill="#4BB821"/>
<rect x="17.0713" y="51.5879" width="0.814299" height="0.807907" fill="#4BB821"/>
<rect x="17.8857" y="52.3955" width="0.814299" height="0.807907" fill="#4BB821"/>
<rect x="18.7002" y="53.2036" width="0.814299" height="0.807907" fill="#4BB821"/>
<rect x="19.5146" y="54.0117" width="0.814299" height="0.807907" fill="#4BB821"/>
<rect x="19.5146" y="54.8198" width="0.814299" height="0.807907" fill="#4BB821"/>
<rect x="20.3291" y="55.627" width="0.814299" height="0.807907" fill="#4BB821"/>
<rect x="21.1436" y="56.4355" width="0.814299" height="0.807907" fill="#4BB821"/>
<rect x="22.7715" y="57.2432" width="0.814299" height="0.807907" fill="#4BB821"/>
<rect x="23.5859" y="58.0518" width="0.814299" height="0.807907" fill="#4BB821"/>
<rect x="24.4004" y="58.8589" width="0.814299" height="0.807907" fill="#4BB821"/>
<rect x="26.0293" y="59.667" width="0.814299" height="0.807907" fill="#4BB821"/>
<rect x="27.6572" y="60.4746" width="0.814299" height="0.807907" fill="#4BB821"/>
<rect x="29.2861" y="61.2827" width="0.814299" height="0.807907" fill="#4BB821"/>
<rect x="31.7295" y="62.0908" width="0.814299" height="0.807907" fill="#4BB821"/>
<rect x="34.9863" y="62.8989" width="0.814299" height="0.807907" fill="#4BB821"/>
<rect x="21.957" y="56.4355" width="0.814299" height="0.807907" fill="#4BB821"/>
<rect x="25.2148" y="58.8584" width="0.814299" height="0.807907" fill="#4BB821"/>
<rect x="26.8428" y="60.4746" width="0.814299" height="0.807907" fill="#4BB821"/>
<rect x="28.4717" y="61.2827" width="0.814299" height="0.807907" fill="#4BB821"/>
<rect x="30.1006" y="61.2827" width="0.814299" height="0.807907" fill="#4BB821"/>
<rect x="30.915" y="62.0908" width="0.814299" height="0.807907" fill="#4BB821"/>
<rect x="32.543" y="62.0908" width="0.814299" height="0.807907" fill="#4BB821"/>
<rect x="33.3574" y="62.8989" width="0.814299" height="0.807907" fill="#4BB821"/>
<rect x="34.1719" y="62.8989" width="0.814299" height="0.807907" fill="#4BB821"/>
<rect x="35.8008" y="62.8984" width="0.814299" height="0.807907" fill="#4BB821"/>
<rect x="36.6152" y="62.8984" width="0.814299" height="0.807907" fill="#4BB821"/>
<rect x="37.4287" y="62.8984" width="0.814299" height="0.807907" fill="#4BB821"/>
<rect x="38.2432" y="62.8984" width="0.814299" height="0.807907" fill="#4BB821"/>
<rect x="36.6152" y="12.0005" width="0.814299" height="0.807907" fill="#4BB821"/>
<rect x="31.7295" y="12.8076" width="0.814299" height="0.807907" fill="#4BB821"/>
<rect x="29.2861" y="13.6157" width="0.814299" height="0.807907" fill="#4BB821"/>
<rect x="27.6572" y="14.4238" width="0.814299" height="0.807907" fill="#4BB821"/>
<rect x="26.0293" y="15.2324" width="0.814299" height="0.807907" fill="#4BB821"/>
<rect x="25.2148" y="16.0405" width="0.814299" height="0.807907" fill="#4BB821"/>
<rect x="23.5859" y="16.8477" width="0.814299" height="0.807907" fill="#4BB821"/>
<rect x="22.7715" y="17.6558" width="0.814299" height="0.807907" fill="#4BB821"/>
<rect x="21.957" y="18.4639" width="0.814299" height="0.807907" fill="#4BB821"/>
<rect x="21.1436" y="19.2725" width="0.814299" height="0.807907" fill="#4BB821"/>
<rect x="20.3291" y="20.0791" width="0.814299" height="0.807907" fill="#4BB821"/>
<rect x="19.5146" y="20.8877" width="0.814299" height="0.807907" fill="#4BB821"/>
<rect x="18.7002" y="21.6948" width="0.814299" height="0.807907" fill="#4BB821"/>
<rect x="17.8857" y="22.5029" width="0.814299" height="0.807907" fill="#4BB821"/>
<rect x="17.0713" y="23.311" width="0.814299" height="0.807907" fill="#4BB821"/>
<rect x="17.0713" y="24.1196" width="0.814299" height="0.807907" fill="#4BB821"/>
<rect x="16.2578" y="24.9268" width="0.814299" height="0.807907" fill="#4BB821"/>
<rect x="16.2578" y="25.7349" width="0.814299" height="0.807907" fill="#4BB821"/>
<rect x="15.4434" y="26.543" width="0.814299" height="0.807907" fill="#4BB821"/>
<rect x="15.4434" y="27.3511" width="0.814299" height="0.807907" fill="#4BB821"/>
<rect x="14.6289" y="28.1582" width="0.814299" height="0.807907" fill="#4BB821"/>
<rect x="14.6289" y="28.9668" width="0.814299" height="0.807907" fill="#4BB821"/>
<rect x="14.6289" y="29.7739" width="0.814299" height="0.807907" fill="#4BB821"/>
<rect x="13.8145" y="30.583" width="0.814299" height="0.807907" fill="#4BB821"/>
<rect x="13.8145" y="31.3901" width="0.814299" height="0.807907" fill="#4BB821"/>
<rect x="13.8145" y="32.1982" width="0.814299" height="0.807907" fill="#4BB821"/>
<rect x="13.8145" y="33.0059" width="0.814299" height="0.807907" fill="#4BB821"/>
<rect x="13" y="33.814" width="0.814299" height="0.807907" fill="#4BB821"/>
<rect x="13" y="34.6221" width="0.814299" height="0.807907" fill="#4BB821"/>
<rect x="13" y="35.4302" width="0.814299" height="0.807907" fill="#4BB821"/>
<rect x="13" y="36.2373" width="0.814299" height="0.807907" fill="#4BB821"/>
<rect x="13" y="37.0454" width="0.814299" height="0.807907" fill="#4BB821"/>
<rect x="24.4004" y="16.0405" width="0.814299" height="0.807907" fill="#4BB821"/>
<rect x="26.8428" y="15.2324" width="0.814299" height="0.807907" fill="#4BB821"/>
<rect x="28.4717" y="14.4243" width="0.814299" height="0.807907" fill="#4BB821"/>
<rect x="30.1006" y="13.6157" width="0.814299" height="0.807907" fill="#4BB821"/>
<rect x="30.915" y="12.8076" width="0.814299" height="0.807907" fill="#4BB821"/>
<rect x="32.543" y="12.8076" width="0.814299" height="0.807907" fill="#4BB821"/>
<rect x="33.3574" y="12.8076" width="0.814299" height="0.807907" fill="#4BB821"/>
<rect x="34.1719" y="12.0005" width="0.814299" height="0.807907" fill="#4BB821"/>
<rect x="34.9863" y="12.0005" width="0.814299" height="0.807907" fill="#4BB821"/>
<rect x="35.8008" y="12.0005" width="0.814299" height="0.807907" fill="#4BB821"/>
<rect x="37.4287" y="12.0005" width="0.814299" height="0.807907" fill="#4BB821"/>
<rect x="38.2432" y="12.0005" width="0.814299" height="0.807907" fill="#4BB821"/>
<rect x="39.0576" y="12.0005" width="0.814299" height="0.807907" fill="#4BB821"/>
<rect x="41.501" y="12.0005" width="0.814299" height="0.807907" fill="#4BB821"/>
<rect x="45.5723" y="12.8076" width="0.814299" height="0.807907" fill="#4BB821"/>
<rect x="48.0146" y="13.6162" width="0.814299" height="0.807907" fill="#4BB821"/>
<rect x="50.458" y="14.4243" width="0.814299" height="0.807907" fill="#4BB821"/>
<rect x="52.0869" y="15.2324" width="0.814299" height="0.807907" fill="#4BB821"/>
<rect x="52.9004" y="16.0405" width="0.814299" height="0.807907" fill="#4BB821"/>
<rect x="54.5293" y="16.8477" width="0.814299" height="0.807907" fill="#4BB821"/>
<rect x="55.3438" y="17.6558" width="0.814299" height="0.807907" fill="#4BB821"/>
<rect x="56.1582" y="18.4639" width="0.814299" height="0.807907" fill="#4BB821"/>
<rect x="56.9727" y="19.272" width="0.814299" height="0.807907" fill="#4BB821"/>
<rect x="57.7871" y="20.0791" width="0.814299" height="0.807907" fill="#4BB821"/>
<rect x="58.6006" y="20.8877" width="0.814299" height="0.807907" fill="#4BB821"/>
<rect x="59.415" y="21.6948" width="0.814299" height="0.807907" fill="#4BB821"/>
<rect x="60.2295" y="22.5029" width="0.814299" height="0.807907" fill="#4BB821"/>
<rect x="60.2295" y="23.311" width="0.814299" height="0.807907" fill="#4BB821"/>
<rect x="61.0439" y="24.1196" width="0.814299" height="0.807907" fill="#4BB821"/>
<rect x="61.8584" y="24.9268" width="0.814299" height="0.807907" fill="#4BB821"/>
<rect x="61.8584" y="25.7349" width="0.814299" height="0.807907" fill="#4BB821"/>
<rect x="62.6729" y="26.543" width="0.814299" height="0.807907" fill="#4BB821"/>
<rect x="62.6729" y="27.3511" width="0.814299" height="0.807907" fill="#4BB821"/>
<rect x="62.6729" y="28.1582" width="0.814299" height="0.807907" fill="#4BB821"/>
<rect x="63.4863" y="28.9668" width="0.814299" height="0.807907" fill="#4BB821"/>
<rect x="63.4863" y="29.7739" width="0.814299" height="0.807907" fill="#4BB821"/>
<rect x="63.4863" y="30.583" width="0.814299" height="0.807907" fill="#4BB821"/>
<rect x="64.3008" y="31.3901" width="0.814299" height="0.807907" fill="#4BB821"/>
<rect x="64.3008" y="32.1982" width="0.814299" height="0.807907" fill="#4BB821"/>
<rect x="64.3008" y="33.0059" width="0.814299" height="0.807907" fill="#4BB821"/>
<rect x="64.3008" y="33.814" width="0.814299" height="0.807907" fill="#4BB821"/>
<rect x="64.3008" y="34.6221" width="0.814299" height="0.807907" fill="#4BB821"/>
<rect x="65.1152" y="35.4302" width="0.814299" height="0.807907" fill="#4BB821"/>
<rect x="65.1152" y="36.2373" width="0.814299" height="0.807907" fill="#4BB821"/>
<rect x="65.1152" y="37.0454" width="0.814299" height="0.807907" fill="#4BB821"/>
<rect x="39.8721" y="12.0005" width="0.814299" height="0.807907" fill="#4BB821"/>
<rect x="40.6865" y="12.0005" width="0.814299" height="0.807907" fill="#4BB821"/>
<rect x="42.3145" y="12.0005" width="0.814299" height="0.807907" fill="#4BB821"/>
<rect x="43.1289" y="12.0005" width="0.814299" height="0.807907" fill="#4BB821"/>
<rect x="43.9434" y="12.0005" width="0.814299" height="0.807907" fill="#4BB821"/>
<rect x="44.7578" y="12.8076" width="0.814299" height="0.807907" fill="#4BB821"/>
<rect x="46.3867" y="12.8076" width="0.814299" height="0.807907" fill="#4BB821"/>
<rect x="47.2012" y="12.8076" width="0.814299" height="0.807907" fill="#4BB821"/>
<rect x="48.8291" y="13.6162" width="0.814299" height="0.807907" fill="#4BB821"/>
<rect x="49.6436" y="14.4243" width="0.814299" height="0.807907" fill="#4BB821"/>
<rect x="51.2725" y="15.2324" width="0.814299" height="0.807907" fill="#4BB821"/>
<rect x="53.7148" y="16.0405" width="0.814299" height="0.807907" fill="#4BB821"/>
<rect x="65.9297" y="37.8535" width="0.814299" height="0.807907" fill="#4BB821"/>
<rect x="65.9297" y="38.6621" width="0.814299" height="0.807907" fill="#4BB821"/>
<rect x="65.9297" y="39.4692" width="0.814299" height="0.807907" fill="#4BB821"/>
<rect x="65.9297" y="40.2773" width="0.814299" height="0.807907" fill="#4BB821"/>
<rect x="65.1152" y="40.2773" width="0.814299" height="0.807907" fill="#4BB821"/>
<rect x="65.1152" y="41.0845" width="0.814299" height="0.807907" fill="#4BB821"/>
<rect x="65.1152" y="41.8926" width="0.814299" height="0.807907" fill="#4BB821"/>
<rect x="65.1152" y="42.7012" width="0.814299" height="0.807907" fill="#4BB821"/>
<rect x="65.1152" y="43.5093" width="0.814299" height="0.807907" fill="#4BB821"/>
<rect x="65.1152" y="44.3164" width="0.814299" height="0.807907" fill="#4BB821"/>
<rect x="65.1152" y="45.1245" width="0.814299" height="0.807907" fill="#4BB821"/>
<rect x="64.3008" y="45.1245" width="0.814299" height="0.807907" fill="#4BB821"/>
<rect x="64.3008" y="45.9326" width="0.814299" height="0.807907" fill="#4BB821"/>
<rect x="64.3008" y="46.7407" width="0.814299" height="0.807907" fill="#4BB821"/>
<rect x="64.3008" y="47.5483" width="0.814299" height="0.807907" fill="#4BB821"/>
<rect x="63.4863" y="47.5479" width="0.814299" height="0.807907" fill="#4BB821"/>
<rect x="63.4863" y="48.3564" width="0.814299" height="0.807907" fill="#4BB821"/>
<rect x="63.4863" y="49.1631" width="0.814299" height="0.807907" fill="#4BB821"/>
<rect x="62.6729" y="49.1631" width="0.814299" height="0.807907" fill="#4BB821"/>
<rect x="62.6729" y="49.9727" width="0.814299" height="0.807907" fill="#4BB821"/>
<rect x="62.6729" y="50.7803" width="0.814299" height="0.807907" fill="#4BB821"/>
<rect x="61.8584" y="50.7798" width="0.814299" height="0.807907" fill="#4BB821"/>
<rect x="61.8584" y="51.5879" width="0.814299" height="0.807907" fill="#4BB821"/>
<rect x="61.0439" y="51.5879" width="0.814299" height="0.807907" fill="#4BB821"/>
<rect x="61.0439" y="52.3955" width="0.814299" height="0.807907" fill="#4BB821"/>
<rect x="61.0439" y="53.2036" width="0.814299" height="0.807907" fill="#4BB821"/>
<rect x="60.2295" y="53.2036" width="0.814299" height="0.807907" fill="#4BB821"/>
<rect x="60.2295" y="54.0117" width="0.814299" height="0.807907" fill="#4BB821"/>
<rect x="59.415" y="54.0117" width="0.814299" height="0.807907" fill="#4BB821"/>
<rect x="59.415" y="54.8203" width="0.814299" height="0.807907" fill="#4BB821"/>
<rect x="58.6006" y="54.8203" width="0.814299" height="0.807907" fill="#4BB821"/>
<rect x="58.6006" y="55.627" width="0.814299" height="0.807907" fill="#4BB821"/>
<rect x="57.7871" y="55.627" width="0.814299" height="0.807907" fill="#4BB821"/>
<rect x="57.7871" y="56.4355" width="0.814299" height="0.807907" fill="#4BB821"/>
<rect x="56.9727" y="56.4351" width="0.814299" height="0.807907" fill="#4BB821"/>
<rect x="56.9727" y="57.2437" width="0.814299" height="0.807907" fill="#4BB821"/>
<rect x="56.1582" y="57.2432" width="0.814299" height="0.807907" fill="#4BB821"/>
<rect x="56.1582" y="58.0518" width="0.814299" height="0.807907" fill="#4BB821"/>
<rect x="55.3438" y="58.0518" width="0.814299" height="0.807907" fill="#4BB821"/>
<rect x="55.3438" y="58.8589" width="0.814299" height="0.807907" fill="#4BB821"/>
<rect x="54.5293" y="58.8589" width="0.814299" height="0.807907" fill="#4BB821"/>
<rect x="54.5293" y="59.667" width="0.814299" height="0.807907" fill="#4BB821"/>
<rect x="53.7148" y="59.667" width="0.814299" height="0.807907" fill="#4BB821"/>
<rect x="52.0869" y="58.8584" width="0.814299" height="0.807907" fill="#4BB821"/>
<rect x="52.9004" y="59.667" width="0.814299" height="0.807907" fill="#4BB821"/>
<rect x="52.9004" y="60.4746" width="0.814299" height="0.807907" fill="#4BB821"/>
<rect x="52.0869" y="60.4746" width="0.814299" height="0.807907" fill="#4BB821"/>
<rect x="51.2725" y="61.2827" width="0.814299" height="0.807907" fill="#4BB821"/>
<rect x="50.458" y="61.2827" width="0.814299" height="0.807907" fill="#4BB821"/>
<rect x="49.6436" y="62.0908" width="0.814299" height="0.807907" fill="#4BB821"/>
<rect x="48.8291" y="62.0908" width="0.814299" height="0.807907" fill="#4BB821"/>
<rect x="47.2012" y="62.8984" width="0.814299" height="0.807907" fill="#4BB821"/>
<rect x="46.3867" y="62.8984" width="0.814299" height="0.807907" fill="#4BB821"/>
<rect x="43.9434" y="63.7061" width="0.814299" height="0.807907" fill="#4BB821"/>
<rect x="43.1289" y="63.7061" width="0.814299" height="0.807907" fill="#4BB821"/>
<rect x="39.8721" y="63.7061" width="0.814299" height="0.807907" fill="#4BB821"/>
<rect x="39.0576" y="63.7061" width="0.814299" height="0.807907" fill="#4BB821"/>
<rect x="40.6865" y="63.7061" width="0.814299" height="0.807907" fill="#4BB821"/>
<rect x="41.501" y="63.7061" width="0.814299" height="0.807907" fill="#4BB821"/>
<rect x="42.3145" y="63.7061" width="0.814299" height="0.807907" fill="#4BB821"/>
<rect x="44.7578" y="63.7061" width="0.814299" height="0.807907" fill="#4BB821"/>
<rect x="45.5723" y="62.8989" width="0.814299" height="0.807907" fill="#4BB821"/>
<rect x="45.5723" y="63.7061" width="0.814299" height="0.807907" fill="#4BB821"/>
<rect x="48.0146" y="62.0908" width="0.814299" height="0.807907" fill="#4BB821"/>
<rect x="48.0146" y="62.8984" width="0.814299" height="0.807907" fill="#4BB821"/>
<rect x="50.458" y="62.0908" width="0.814299" height="0.807907" fill="#4BB821"/>
<rect x="52.0869" y="61.2822" width="0.814299" height="0.807907" fill="#4BB821"/>
<rect x="13.8145" y="37.8535" width="0.814299" height="0.807907" fill="#4BB821"/>
<rect x="13.8145" y="38.6621" width="0.814299" height="0.807907" fill="#4BB821"/>
<rect x="13.8145" y="39.4692" width="0.814299" height="0.807907" fill="#4BB821"/>
<rect x="13.8145" y="40.2773" width="0.814299" height="0.807907" fill="#4BB821"/>
<rect x="13.8145" y="41.0845" width="0.814299" height="0.807907" fill="#4BB821"/>
<rect x="13" y="41.8926" width="0.814299" height="0.807907" fill="#4BB821"/>
<rect x="14.6289" y="41.8926" width="0.814299" height="0.807907" fill="#4BB821"/>
<rect x="14.6289" y="42.7012" width="0.814299" height="0.807907" fill="#4BB821"/>
<rect x="14.6289" y="43.5093" width="0.814299" height="0.807907" fill="#4BB821"/>
<rect x="14.6289" y="44.3164" width="0.814299" height="0.807907" fill="#4BB821"/>
<rect x="13.8145" y="45.1245" width="0.814299" height="0.807907" fill="#4BB821"/>
<rect x="15.4434" y="45.125" width="0.814299" height="0.807907" fill="#4BB821"/>
<rect x="15.4434" y="45.9326" width="0.814299" height="0.807907" fill="#4BB821"/>
<rect x="15.4434" y="46.7412" width="0.814299" height="0.807907" fill="#4BB821"/>
<rect x="14.6289" y="47.5483" width="0.814299" height="0.807907" fill="#4BB821"/>
<rect x="16.2578" y="47.5479" width="0.814299" height="0.807907" fill="#4BB821"/>
<rect x="16.2578" y="48.3564" width="0.814299" height="0.807907" fill="#4BB821"/>
<rect x="15.4434" y="49.1631" width="0.814299" height="0.807907" fill="#4BB821"/>
<rect x="17.0713" y="49.1636" width="0.814299" height="0.807907" fill="#4BB821"/>
<rect x="17.0713" y="49.9727" width="0.814299" height="0.807907" fill="#4BB821"/>
<rect x="16.2578" y="50.7803" width="0.814299" height="0.807907" fill="#4BB821"/>
<rect x="17.8857" y="50.7803" width="0.814299" height="0.807907" fill="#4BB821"/>
<rect x="17.8857" y="51.5879" width="0.814299" height="0.807907" fill="#4BB821"/>
<rect x="17.0713" y="52.3955" width="0.814299" height="0.807907" fill="#4BB821"/>
<rect x="18.7002" y="52.3955" width="0.814299" height="0.807907" fill="#4BB821"/>
<rect x="17.8857" y="53.2031" width="0.814299" height="0.807907" fill="#4BB821"/>
<rect x="19.5146" y="53.2036" width="0.814299" height="0.807907" fill="#4BB821"/>
<rect x="18.7002" y="54.0117" width="0.814299" height="0.807907" fill="#4BB821"/>
<rect x="20.3291" y="54.0117" width="0.814299" height="0.807907" fill="#4BB821"/>
<rect x="20.3291" y="54.8203" width="0.814299" height="0.807907" fill="#4BB821"/>
<rect x="19.5146" y="55.627" width="0.814299" height="0.807907" fill="#4BB821"/>
<rect x="21.1436" y="55.627" width="0.814299" height="0.807907" fill="#4BB821"/>
<rect x="20.3291" y="56.4355" width="0.814299" height="0.807907" fill="#4BB821"/>
<rect x="21.957" y="57.2432" width="0.814299" height="0.807907" fill="#4BB821"/>
<rect x="21.1436" y="57.2432" width="0.814299" height="0.807907" fill="#4BB821"/>
<rect x="23.5859" y="57.2437" width="0.814299" height="0.807907" fill="#4BB821"/>
<rect x="22.7715" y="58.0518" width="0.814299" height="0.807907" fill="#4BB821"/>
<rect x="24.4004" y="58.0518" width="0.814299" height="0.807907" fill="#4BB821"/>
<rect x="23.5859" y="58.8589" width="0.814299" height="0.807907" fill="#4BB821"/>
<rect x="25.2148" y="59.667" width="0.814299" height="0.807907" fill="#4BB821"/>
<rect x="24.4004" y="59.667" width="0.814299" height="0.807907" fill="#4BB821"/>
<rect x="26.0293" y="58.8584" width="0.814299" height="0.807907" fill="#4BB821"/>
<rect x="26.8428" y="59.667" width="0.814299" height="0.807907" fill="#4BB821"/>
<rect x="26.0293" y="60.4746" width="0.814299" height="0.807907" fill="#4BB821"/>
<rect x="28.4717" y="60.4741" width="0.814299" height="0.807907" fill="#4BB821"/>
<rect x="27.6572" y="61.2822" width="0.814299" height="0.807907" fill="#4BB821"/>
<rect x="30.1006" y="62.0908" width="0.814299" height="0.807907" fill="#4BB821"/>
<rect x="29.2861" y="62.0908" width="0.814299" height="0.807907" fill="#4BB821"/>
<rect x="32.543" y="62.8989" width="0.814299" height="0.807907" fill="#4BB821"/>
<rect x="31.7295" y="62.8984" width="0.814299" height="0.807907" fill="#4BB821"/>
<rect x="35.8008" y="63.7061" width="0.814299" height="0.807907" fill="#4BB821"/>
<rect x="34.9863" y="63.7061" width="0.814299" height="0.807907" fill="#4BB821"/>
<rect x="22.7715" y="56.4355" width="0.814299" height="0.807907" fill="#4BB821"/>
<rect x="26.8428" y="61.2822" width="0.814299" height="0.807907" fill="#4BB821"/>
<rect x="28.4717" y="62.0908" width="0.814299" height="0.807907" fill="#4BB821"/>
<rect x="30.915" y="61.2822" width="0.814299" height="0.807907" fill="#4BB821"/>
<rect x="30.915" y="62.8984" width="0.814299" height="0.807907" fill="#4BB821"/>
<rect x="33.3574" y="62.0908" width="0.814299" height="0.807907" fill="#4BB821"/>
<rect x="34.1719" y="63.7061" width="0.814299" height="0.807907" fill="#4BB821"/>
<rect x="33.3574" y="63.7061" width="0.814299" height="0.807907" fill="#4BB821"/>
<rect x="36.6152" y="63.7061" width="0.814299" height="0.807907" fill="#4BB821"/>
<rect x="37.4287" y="63.7061" width="0.814299" height="0.807907" fill="#4BB821"/>
<rect x="38.2432" y="63.7061" width="0.814299" height="0.807907" fill="#4BB821"/>
<rect x="37.4287" y="12.8076" width="0.814299" height="0.807907" fill="#4BB821"/>
<rect x="36.6152" y="12.8076" width="0.814299" height="0.807907" fill="#4BB821"/>
<rect x="32.543" y="13.6157" width="0.814299" height="0.807907" fill="#4BB821"/>
<rect x="31.7295" y="13.6162" width="0.814299" height="0.807907" fill="#4BB821"/>
<rect x="30.1006" y="14.4243" width="0.814299" height="0.807907" fill="#4BB821"/>
<rect x="29.2861" y="14.4243" width="0.814299" height="0.807907" fill="#4BB821"/>
<rect x="28.4717" y="15.2324" width="0.814299" height="0.807907" fill="#4BB821"/>
<rect x="27.6572" y="15.2324" width="0.814299" height="0.807907" fill="#4BB821"/>
<rect x="26.8428" y="16.0405" width="0.814299" height="0.807907" fill="#4BB821"/>
<rect x="26.0293" y="16.0405" width="0.814299" height="0.807907" fill="#4BB821"/>
<rect x="26.0293" y="16.8477" width="0.814299" height="0.807907" fill="#4BB821"/>
<rect x="25.2148" y="16.8477" width="0.814299" height="0.807907" fill="#4BB821"/>
<rect x="24.4004" y="16.8477" width="0.814299" height="0.807907" fill="#4BB821"/>
<rect x="24.4004" y="17.6558" width="0.814299" height="0.807907" fill="#4BB821"/>
<rect x="23.5859" y="17.6558" width="0.814299" height="0.807907" fill="#4BB821"/>
<rect x="23.5859" y="18.4639" width="0.814299" height="0.807907" fill="#4BB821"/>
<rect x="22.7715" y="18.4639" width="0.814299" height="0.807907" fill="#4BB821"/>
<rect x="21.957" y="17.6558" width="0.814299" height="0.807907" fill="#4BB821"/>
<rect x="22.7715" y="19.2725" width="0.814299" height="0.807907" fill="#4BB821"/>
<rect x="21.957" y="19.2725" width="0.814299" height="0.807907" fill="#4BB821"/>
<rect x="21.957" y="20.0791" width="0.814299" height="0.807907" fill="#4BB821"/>
<rect x="21.1436" y="20.0791" width="0.814299" height="0.807907" fill="#4BB821"/>
<rect x="21.1436" y="20.8877" width="0.814299" height="0.807907" fill="#4BB821"/>
<rect x="20.3291" y="20.8877" width="0.814299" height="0.807907" fill="#4BB821"/>
<rect x="20.3291" y="21.6948" width="0.814299" height="0.807907" fill="#4BB821"/>
<rect x="19.5146" y="21.6948" width="0.814299" height="0.807907" fill="#4BB821"/>
<rect x="19.5146" y="22.5029" width="0.814299" height="0.807907" fill="#4BB821"/>
<rect x="18.7002" y="22.5029" width="0.814299" height="0.807907" fill="#4BB821"/>
<rect x="18.7002" y="23.311" width="0.814299" height="0.807907" fill="#4BB821"/>
<rect x="17.8857" y="23.3115" width="0.814299" height="0.807907" fill="#4BB821"/>
<rect x="17.8857" y="24.1191" width="0.814299" height="0.807907" fill="#4BB821"/>
<rect x="17.8857" y="24.9268" width="0.814299" height="0.807907" fill="#4BB821"/>
<rect x="17.0713" y="24.9268" width="0.814299" height="0.807907" fill="#4BB821"/>
<rect x="16.2578" y="24.1191" width="0.814299" height="0.807907" fill="#4BB821"/>
<rect x="17.0713" y="25.7349" width="0.814299" height="0.807907" fill="#4BB821"/>
<rect x="17.0713" y="26.543" width="0.814299" height="0.807907" fill="#4BB821"/>
<rect x="16.2578" y="26.543" width="0.814299" height="0.807907" fill="#4BB821"/>
<rect x="16.2578" y="27.3511" width="0.814299" height="0.807907" fill="#4BB821"/>
<rect x="16.2578" y="28.1582" width="0.814299" height="0.807907" fill="#4BB821"/>
<rect x="15.4434" y="28.1582" width="0.814299" height="0.807907" fill="#4BB821"/>
<rect x="15.4434" y="28.9668" width="0.814299" height="0.807907" fill="#4BB821"/>
<rect x="15.4434" y="29.7739" width="0.814299" height="0.807907" fill="#4BB821"/>
<rect x="15.4434" y="30.583" width="0.814299" height="0.807907" fill="#4BB821"/>
<rect x="14.6289" y="30.583" width="0.814299" height="0.807907" fill="#4BB821"/>
<rect x="14.6289" y="31.3901" width="0.814299" height="0.807907" fill="#4BB821"/>
<rect x="14.6289" y="32.1982" width="0.814299" height="0.807907" fill="#4BB821"/>
<rect x="14.6289" y="33.0059" width="0.814299" height="0.807907" fill="#4BB821"/>
<rect x="14.6289" y="33.814" width="0.814299" height="0.807907" fill="#4BB821"/>
<rect x="13.8145" y="33.814" width="0.814299" height="0.807907" fill="#4BB821"/>
<rect x="13.8145" y="34.6221" width="0.814299" height="0.807907" fill="#4BB821"/>
<rect x="13.8145" y="35.4302" width="0.814299" height="0.807907" fill="#4BB821"/>
<rect x="13.8145" y="36.2373" width="0.814299" height="0.807907" fill="#4BB821"/>
<rect x="13.8145" y="37.0454" width="0.814299" height="0.807907" fill="#4BB821"/>
<rect x="27.6572" y="16.0405" width="0.814299" height="0.807907" fill="#4BB821"/>
<rect x="29.2861" y="15.2324" width="0.814299" height="0.807907" fill="#4BB821"/>
<rect x="30.915" y="13.6162" width="0.814299" height="0.807907" fill="#4BB821"/>
<rect x="30.915" y="14.4238" width="0.814299" height="0.807907" fill="#4BB821"/>
<rect x="33.3574" y="13.6157" width="0.814299" height="0.807907" fill="#4BB821"/>
<rect x="34.1719" y="12.8076" width="0.814299" height="0.807907" fill="#4BB821"/>
<rect x="34.1719" y="13.6157" width="0.814299" height="0.807907" fill="#4BB821"/>
<rect x="34.9863" y="12.8076" width="0.814299" height="0.807907" fill="#4BB821"/>
<rect x="35.8008" y="12.8076" width="0.814299" height="0.807907" fill="#4BB821"/>
<rect x="38.2432" y="12.8076" width="0.814299" height="0.807907" fill="#4BB821"/>
<rect x="39.0576" y="12.8076" width="0.814299" height="0.807907" fill="#4BB821"/>
<rect x="39.8721" y="12.8076" width="0.814299" height="0.807907" fill="#4BB821"/>
<rect x="42.3145" y="12.8076" width="0.814299" height="0.807907" fill="#4BB821"/>
<rect x="41.501" y="12.8076" width="0.814299" height="0.807907" fill="#4BB821"/>
<rect x="46.3867" y="13.6162" width="0.814299" height="0.807907" fill="#4BB821"/>
<rect x="45.5723" y="13.6157" width="0.814299" height="0.807907" fill="#4BB821"/>
<rect x="48.8291" y="14.4238" width="0.814299" height="0.807907" fill="#4BB821"/>
<rect x="48.0146" y="14.4238" width="0.814299" height="0.807907" fill="#4BB821"/>
<rect x="51.2725" y="14.4243" width="0.814299" height="0.807907" fill="#4BB821"/>
<rect x="50.458" y="15.2324" width="0.814299" height="0.807907" fill="#4BB821"/>
<rect x="52.9004" y="15.2324" width="0.814299" height="0.807907" fill="#4BB821"/>
<rect x="52.0869" y="16.0405" width="0.814299" height="0.807907" fill="#4BB821"/>
<rect x="53.7148" y="16.8477" width="0.814299" height="0.807907" fill="#4BB821"/>
<rect x="52.9004" y="16.8477" width="0.814299" height="0.807907" fill="#4BB821"/>
<rect x="55.3438" y="16.8477" width="0.814299" height="0.807907" fill="#4BB821"/>
<rect x="54.5293" y="17.6558" width="0.814299" height="0.807907" fill="#4BB821"/>
<rect x="56.1582" y="17.6558" width="0.814299" height="0.807907" fill="#4BB821"/>
<rect x="55.3438" y="18.4639" width="0.814299" height="0.807907" fill="#4BB821"/>
<rect x="56.9727" y="18.4639" width="0.814299" height="0.807907" fill="#4BB821"/>
<rect x="56.1582" y="19.2725" width="0.814299" height="0.807907" fill="#4BB821"/>
<rect x="57.7871" y="19.2725" width="0.814299" height="0.807907" fill="#4BB821"/>
<rect x="56.9727" y="20.0796" width="0.814299" height="0.807907" fill="#4BB821"/>
<rect x="58.6006" y="20.0791" width="0.814299" height="0.807907" fill="#4BB821"/>
<rect x="57.7871" y="20.8877" width="0.814299" height="0.807907" fill="#4BB821"/>
<rect x="59.415" y="20.8877" width="0.814299" height="0.807907" fill="#4BB821"/>
<rect x="58.6006" y="21.6948" width="0.814299" height="0.807907" fill="#4BB821"/>
<rect x="60.2295" y="21.6948" width="0.814299" height="0.807907" fill="#4BB821"/>
<rect x="59.415" y="22.5029" width="0.814299" height="0.807907" fill="#4BB821"/>
<rect x="61.0439" y="22.5029" width="0.814299" height="0.807907" fill="#4BB821"/>
<rect x="61.0439" y="23.311" width="0.814299" height="0.807907" fill="#4BB821"/>
<rect x="60.2295" y="24.1196" width="0.814299" height="0.807907" fill="#4BB821"/>
<rect x="61.8584" y="24.1196" width="0.814299" height="0.807907" fill="#4BB821"/>
<rect x="61.0439" y="24.9268" width="0.814299" height="0.807907" fill="#4BB821"/>
<rect x="62.6729" y="24.9268" width="0.814299" height="0.807907" fill="#4BB821"/>
<rect x="62.6729" y="25.7349" width="0.814299" height="0.807907" fill="#4BB821"/>
<rect x="61.8584" y="26.543" width="0.814299" height="0.807907" fill="#4BB821"/>
<rect x="63.4863" y="26.543" width="0.814299" height="0.807907" fill="#4BB821"/>
<rect x="63.4863" y="27.3511" width="0.814299" height="0.807907" fill="#4BB821"/>
<rect x="63.4863" y="28.1582" width="0.814299" height="0.807907" fill="#4BB821"/>
<rect x="62.6729" y="28.9668" width="0.814299" height="0.807907" fill="#4BB821"/>
<rect x="64.3008" y="28.9668" width="0.814299" height="0.807907" fill="#4BB821"/>
<rect x="64.3008" y="29.7739" width="0.814299" height="0.807907" fill="#4BB821"/>
<rect x="64.3008" y="30.583" width="0.814299" height="0.807907" fill="#4BB821"/>
<rect x="63.4863" y="31.3901" width="0.814299" height="0.807907" fill="#4BB821"/>
<rect x="65.1152" y="31.3901" width="0.814299" height="0.807907" fill="#4BB821"/>
<rect x="65.1152" y="32.1982" width="0.814299" height="0.807907" fill="#4BB821"/>
<rect x="65.1152" y="33.0059" width="0.814299" height="0.807907" fill="#4BB821"/>
<rect x="65.1152" y="33.814" width="0.814299" height="0.807907" fill="#4BB821"/>
<rect x="65.1152" y="34.6221" width="0.814299" height="0.807907" fill="#4BB821"/>
<rect x="64.3008" y="35.4302" width="0.814299" height="0.807907" fill="#4BB821"/>
<rect x="65.9297" y="35.4302" width="0.814299" height="0.807907" fill="#4BB821"/>
<rect x="65.9297" y="36.2373" width="0.814299" height="0.807907" fill="#4BB821"/>
<rect x="65.9297" y="37.0454" width="0.814299" height="0.807907" fill="#4BB821"/>
<rect x="40.6865" y="12.8076" width="0.814299" height="0.807907" fill="#4BB821"/>
<rect x="43.1289" y="12.8076" width="0.814299" height="0.807907" fill="#4BB821"/>
<rect x="43.9434" y="12.8076" width="0.814299" height="0.807907" fill="#4BB821"/>
<rect x="44.7578" y="12.0005" width="0.814299" height="0.807907" fill="#4BB821"/>
<rect x="44.7578" y="13.6157" width="0.814299" height="0.807907" fill="#4BB821"/>
<rect x="47.2012" y="13.6162" width="0.814299" height="0.807907" fill="#4BB821"/>
<rect x="48.0146" y="12.8076" width="0.814299" height="0.807907" fill="#4BB821"/>
<rect x="49.6436" y="13.6157" width="0.814299" height="0.807907" fill="#4BB821"/>
<rect x="49.6436" y="15.2324" width="0.814299" height="0.807907" fill="#4BB821"/>
<rect x="51.2725" y="16.0405" width="0.814299" height="0.807907" fill="#4BB821"/>
<rect x="54.5293" y="16.0405" width="0.814299" height="0.807907" fill="#4BB821"/>
<path d="M55.5823 28.0795V45.8998H53.6766V47.8182H40.8476V49.7267H38.9379V51.6156H36.9884V49.709H38.926V47.7866H40.8536V45.8978H53.6209V28.1347H28.0684V45.8978H33.1868V53.4905H35.1005V51.6057H37.0023V53.5577H35.0985V55.4386H31.2373V47.8064H28.0147V45.8919H26.1328V28.0854H28.0326V26.2144H53.6766V28.0795H55.5823Z" fill="#4BB821"/>
<path d="M42.7689 38.9116H38.9355V35.1104H42.7689V38.9116Z" fill="#4BB821"/>
<path d="M31.8818 38.8992V35.1177H35.7092V38.8992H31.8818Z" fill="#4BB821"/>
<path d="M45.9883 38.8979V35.1084H49.8057V38.8979H45.9883Z" fill="#4BB821"/>
<path d="M76.5 36.25V34.5H74.75V32.75H73V27.5H74.75V25.75H76.5V24H83.5V25.75H85.25V27.5H81.75V25.75H78.25V27.5H76.5V32.75H78.25V34.5H81.75V32.75H85.25V34.5H83.5V36.25H76.5ZM88.75 36.25V34.5H87V29.25H88.75V27.5H97.5V29.25H99.25V34.5H97.5V36.25H88.75ZM90.5 34.5H95.75V29.25H90.5V34.5ZM109.75 38V36.25H101V27.5H104.5V34.5H108V27.5H111.5V34.5H113.25V38H109.75ZM118.5 32.75H120.25V34.5H118.5V36.25H115V27.5H118.5V32.75ZM127.25 27.5V36.25H123.75V31H122V29.25H123.75V27.5H127.25ZM120.25 31H122V32.75H120.25V31ZM130.75 36.25V34.5H129V32.75H130.75V31H137.75V29.25H130.75V27.5H139.5V29.25H141.25V36.25H130.75ZM132.5 34.5H137.75V32.75H132.5V34.5ZM155.25 27.5V36.25H151.75V29.25H148.25V34.5H146.5V36.25H143V32.75H144.75V31H146.5V27.5H155.25ZM157 36.25V27.5H160.5V31H167.5V32.75H169.25V34.5H167.5V36.25H157ZM160.5 34.5H165.75V32.75H160.5V34.5ZM171 36.25V27.5H174.5V31H179.75V27.5H183.25V36.25H179.75V32.75H174.5V36.25H171ZM186.75 36.25V34.5H185V29.25H186.75V27.5H195.5V29.25H197.25V34.5H195.5V36.25H186.75ZM188.5 34.5H193.75V29.25H188.5V34.5ZM200.75 36.25V34.5H199V29.25H200.75V27.5H209.5V29.25H211.25V32.75H202.5V34.5H209.5V36.25H200.75ZM202.5 31H207.75V29.25H202.5V31ZM74.75 50.25V48.5H73V43.25H74.75V41.5H83.5V43.25H85.25V48.5H83.5V50.25H74.75ZM76.5 48.5H81.75V43.25H76.5V48.5ZM99.25 38V39.75H90.5V43.25H92.25V45H90.5V48.5H95.75V43.25H92.25V41.5H97.5V43.25H99.25V48.5H97.5V50.25H88.75V48.5H87V39.75H88.75V38H99.25ZM102.75 50.25V48.5H101V43.25H102.75V41.5H111.5V43.25H113.25V46.75H104.5V48.5H111.5V50.25H102.75ZM104.5 45H109.75V43.25H104.5V45ZM116.75 50.25V48.5H115V43.25H116.75V41.5H125.5V43.25H127.25V45H123.75V43.25H118.5V48.5H123.75V46.75H127.25V48.5H125.5V50.25H116.75ZM129 50.25V41.5H141.25V50.25H137.75V43.25H132.5V50.25H129ZM144.75 50.25V48.5H143V43.25H144.75V41.5H153.5V43.25H155.25V46.75H146.5V48.5H153.5V50.25H144.75ZM146.5 45H151.75V43.25H146.5V45ZM165.75 50.25V46.75H158.75V45H157V41.5H160.5V45H165.75V41.5H169.25V50.25H165.75ZM172.75 50.25V48.5H171V43.25H172.75V41.5H181.5V43.25H183.25V46.75H174.5V48.5H181.5V50.25H172.75ZM174.5 45H179.75V43.25H174.5V45ZM185 50.25V41.5H188.5V45H193.75V41.5H197.25V50.25H193.75V46.75H188.5V50.25H185ZM202.5 46.75H204.25V48.5H202.5V50.25H199V41.5H202.5V46.75ZM211.25 41.5V50.25H207.75V45H206V43.25H207.75V41.5H211.25ZM204.25 45H206V46.75H204.25V45ZM214.75 50.25V48.5H213V43.25H214.75V41.5H223.5V43.25H225.25V46.75H216.5V48.5H223.5V50.25H214.75ZM216.5 45H221.75V43.25H216.5V45Z" fill="black"/>
</svg>
