<svg width="301" height="76" viewBox="0 0 301 76" fill="none" xmlns="http://www.w3.org/2000/svg">
<path d="M12.0227 75.9289V72.5729H6.1714L5.91529 69.1044C3.02906 68.4462 3.02906 68.4463 2.99951 64.954C2.99951 62.0487 2.76309 61.7878 0 61.266V14.6806C0.147759 14.5502 0.226564 14.4138 0.315219 14.4019C2.90593 14.0758 2.99951 13.9454 3.01429 10.6488C3.01429 9.54595 3.01429 8.44313 3.01429 7.23358L5.96947 7.06163L6.10738 3.5575H11.9291L12.1212 0H288.958L289.233 3.5575H295.031C295.085 4.82634 295.129 5.86394 295.188 7.115H298.104V10.6251C298.104 14.058 298.148 14.1055 301 14.5205V61.3609C298.183 61.8767 298.119 61.9538 298.114 65.6536C298.114 66.6379 298.114 67.6221 298.114 68.7783L295.218 69.0451C295.159 70.1716 295.104 71.2092 295.035 72.5077H289.253C289.164 73.7943 289.091 74.8201 289.002 76L12.0227 75.9289Z" fill="white"/>
<path d="M78.25 45.25V34.75H74.75V33H85.25V34.75H81.75V45.25H78.25ZM99.25 38.25V43.5H97.5V45.25H90.5V47H87V36.5H90.5V38.25H92.25V40H90.5V43.5H95.75V38.25H92.25V36.5H97.5V38.25H99.25ZM102.75 45.25V43.5H101V41.75H102.75V40H109.75V38.25H102.75V36.5H111.5V38.25H113.25V45.25H102.75ZM104.5 43.5H109.75V41.75H104.5V43.5ZM115 45.25V36.5H118.5V40H123.75V36.5H127.25V45.25H123.75V41.75H118.5V45.25H115ZM130.75 45.25V43.5H129V38.25H130.75V36.5H139.5V38.25H141.25V40H137.75V38.25H132.5V43.5H137.75V41.75H141.25V43.5H139.5V45.25H130.75ZM143 45.25V36.5H155.25V45.25H151.75V38.25H146.5V45.25H143ZM158.75 45.25V43.5H157V38.25H158.75V36.5H167.5V38.25H169.25V43.5H167.5V45.25H158.75ZM160.5 43.5H165.75V38.25H160.5V43.5ZM183.25 38.25V43.5H181.5V45.25H174.5V47H171V36.5H174.5V38.25H176.25V40H174.5V43.5H179.75V38.25H176.25V36.5H181.5V38.25H183.25ZM190.25 45.25V38.25H186.75V36.5H197.25V38.25H193.75V45.25H190.25Z" fill="black"/>
<path d="M57.1687 53.2284H52.4944V48.7153H27.0778V53.2186H22.4134V34.8843H20.1406V32.5901H27.0778V23.4131H52.4745V32.5573H59.4117V34.8515H57.1621L57.1687 53.2284ZM54.8794 46.3227C54.8398 42.4881 54.8002 38.6927 54.7605 34.9007H24.7654V46.3227H54.8794ZM50.1621 32.5802V25.7172H29.3902V32.5802H50.1621Z" fill="#1879B8"/>
<path d="M33.9361 44.0418H29.3906V39.5386H33.9361V44.0418Z" fill="#1879B8"/>
<path d="M50.1623 44.0418H45.6201V39.5386H50.1623V44.0418Z" fill="#1879B8"/>
<path d="M64.9465 37.7693H65.7582V38.5746H64.9465V37.7693Z" fill="#1879B8"/>
<path d="M64.9465 38.5746H65.7582V39.3799H64.9465V38.5746Z" fill="#1879B8"/>
<path d="M64.9465 39.3799H65.7582V40.1852H64.9465V39.3799Z" fill="#1879B8"/>
<path d="M64.1348 40.1852H64.9465V40.9905H64.1348V40.1852Z" fill="#1879B8"/>
<path d="M64.1348 40.9905H64.9465V41.7958H64.1348V40.9905Z" fill="#1879B8"/>
<path d="M64.1348 41.7958H64.9465V42.6011H64.1348V41.7958Z" fill="#1879B8"/>
<path d="M64.1348 42.6011H64.9465V43.4064H64.1348V42.6011Z" fill="#1879B8"/>
<path d="M64.1348 43.4064H64.9465V44.2117H64.1348V43.4064Z" fill="#1879B8"/>
<path d="M64.1348 44.2117H64.9465V45.017H64.1348V44.2117Z" fill="#1879B8"/>
<path d="M63.3232 45.017H64.1348V45.8223H63.3232V45.017Z" fill="#1879B8"/>
<path d="M63.3232 45.8223H64.1348V46.6276H63.3232V45.8223Z" fill="#1879B8"/>
<path d="M63.3232 46.6276H64.1348V47.4328H63.3232V46.6276Z" fill="#1879B8"/>
<path d="M62.5115 47.4328H63.3232V48.2381H62.5115V47.4328Z" fill="#1879B8"/>
<path d="M62.5115 48.2381H63.3232V49.0434H62.5115V48.2381Z" fill="#1879B8"/>
<path d="M61.6998 49.0434H62.5115V49.8487H61.6998V49.0434Z" fill="#1879B8"/>
<path d="M61.6998 49.8487H62.5115V50.654H61.6998V49.8487Z" fill="#1879B8"/>
<path d="M60.8882 50.654H61.6998V51.4593H60.8882V50.654Z" fill="#1879B8"/>
<path d="M60.0765 51.4593H60.8882V52.2646H60.0765V51.4593Z" fill="#1879B8"/>
<path d="M60.0765 52.2646H60.8882V53.0699H60.0765V52.2646Z" fill="#1879B8"/>
<path d="M59.2649 53.0699H60.0765V53.8752H59.2649V53.0699Z" fill="#1879B8"/>
<path d="M58.4532 53.8752H59.2649V54.6805H58.4532V53.8752Z" fill="#1879B8"/>
<path d="M57.6415 54.6805H58.4532V55.4858H57.6415V54.6805Z" fill="#1879B8"/>
<path d="M56.8299 55.4858H57.6415V56.2911H56.8299V55.4858Z" fill="#1879B8"/>
<path d="M56.0182 56.2911H56.8299V57.0963H56.0182V56.2911Z" fill="#1879B8"/>
<path d="M55.2065 57.0963H56.0182V57.9016H55.2065V57.0963Z" fill="#1879B8"/>
<path d="M54.3949 57.9016H55.2065V58.7069H54.3949V57.9016Z" fill="#1879B8"/>
<path d="M53.5832 58.7069H54.3949V59.5122H53.5832V58.7069Z" fill="#1879B8"/>
<path d="M51.9599 59.5122H52.7715V60.3175H51.9599V59.5122Z" fill="#1879B8"/>
<path d="M50.3365 60.3175H51.1482V61.1228H50.3365V60.3175Z" fill="#1879B8"/>
<path d="M48.7132 61.1228H49.5249V61.9281H48.7132V61.1228Z" fill="#1879B8"/>
<path d="M46.2782 61.9281H47.0899V62.7334H46.2782V61.9281Z" fill="#1879B8"/>
<path d="M43.0316 62.7334H43.8432V63.5387H43.0316V62.7334Z" fill="#1879B8"/>
<path d="M38.9733 62.7334H39.7849V63.5387H38.9733V62.7334Z" fill="#1879B8"/>
<path d="M39.7849 62.7334H40.5966V63.5387H39.7849V62.7334Z" fill="#1879B8"/>
<path d="M40.5966 62.7334H41.4082V63.5387H40.5966V62.7334Z" fill="#1879B8"/>
<path d="M41.4082 62.7334H42.2199V63.5387H41.4082V62.7334Z" fill="#1879B8"/>
<path d="M42.2199 62.7334H43.0316V63.5387H42.2199V62.7334Z" fill="#1879B8"/>
<path d="M43.8432 62.7334H44.6549V63.5387H43.8432V62.7334Z" fill="#1879B8"/>
<path d="M44.6549 62.7334H45.4666V63.5387H44.6549V62.7334Z" fill="#1879B8"/>
<path d="M45.4666 61.9281H46.2782V62.7334H45.4666V61.9281Z" fill="#1879B8"/>
<path d="M47.0899 61.9281H47.9016V62.7334H47.0899V61.9281Z" fill="#1879B8"/>
<path d="M47.9016 61.1228H48.7132V61.9281H47.9016V61.1228Z" fill="#1879B8"/>
<path d="M49.5249 61.1228H50.3365V61.9281H49.5249V61.1228Z" fill="#1879B8"/>
<path d="M51.1482 60.3175H51.9599V61.1228H51.1482V60.3175Z" fill="#1879B8"/>
<path d="M52.7715 58.7069H53.5832V59.5122H52.7715V58.7069Z" fill="#1879B8"/>
<path d="M13 37.7693H13.8117V38.5746H13V37.7693Z" fill="#1879B8"/>
<path d="M13 38.5746H13.8117V39.3799H13V38.5746Z" fill="#1879B8"/>
<path d="M13 39.3799H13.8117V40.1852H13V39.3799Z" fill="#1879B8"/>
<path d="M13 40.1852H13.8117V40.9905H13V40.1852Z" fill="#1879B8"/>
<path d="M13 40.9905H13.8117V41.7958H13V40.9905Z" fill="#1879B8"/>
<path d="M13.8117 41.7958H14.6233V42.6011H13.8117V41.7958Z" fill="#1879B8"/>
<path d="M13.8117 42.6011H14.6233V43.4064H13.8117V42.6011Z" fill="#1879B8"/>
<path d="M13.8117 43.4064H14.6233V44.2117H13.8117V43.4064Z" fill="#1879B8"/>
<path d="M13.8117 44.2117H14.6233V45.017H13.8117V44.2117Z" fill="#1879B8"/>
<path d="M14.6233 45.017H15.435V45.8223H14.6233V45.017Z" fill="#1879B8"/>
<path d="M14.6233 45.8223H15.435V46.6276H14.6233V45.8223Z" fill="#1879B8"/>
<path d="M14.6233 46.6276H15.435V47.4328H14.6233V46.6276Z" fill="#1879B8"/>
<path d="M15.435 47.4328H16.2467V48.2381H15.435V47.4328Z" fill="#1879B8"/>
<path d="M15.435 48.2381H16.2467V49.0434H15.435V48.2381Z" fill="#1879B8"/>
<path d="M16.2467 49.0434H17.0583V49.8487H16.2467V49.0434Z" fill="#1879B8"/>
<path d="M16.2467 49.8487H17.0583V50.654H16.2467V49.8487Z" fill="#1879B8"/>
<path d="M17.0583 50.654H17.87V51.4593H17.0583V50.654Z" fill="#1879B8"/>
<path d="M17.0583 51.4593H17.87V52.2646H17.0583V51.4593Z" fill="#1879B8"/>
<path d="M17.87 52.2646H18.6816V53.0699H17.87V52.2646Z" fill="#1879B8"/>
<path d="M18.6816 53.0699H19.4933V53.8752H18.6816V53.0699Z" fill="#1879B8"/>
<path d="M19.4933 53.8752H20.305V54.6805H19.4933V53.8752Z" fill="#1879B8"/>
<path d="M19.4933 54.6805H20.305V55.4858H19.4933V54.6805Z" fill="#1879B8"/>
<path d="M20.305 55.4858H21.1166V56.2911H20.305V55.4858Z" fill="#1879B8"/>
<path d="M21.1166 56.2911H21.9283V57.0963H21.1166V56.2911Z" fill="#1879B8"/>
<path d="M22.74 57.0963H23.5516V57.9016H22.74V57.0963Z" fill="#1879B8"/>
<path d="M23.5516 57.9016H24.3633V58.7069H23.5516V57.9016Z" fill="#1879B8"/>
<path d="M24.3633 58.7069H25.175V59.5122H24.3633V58.7069Z" fill="#1879B8"/>
<path d="M25.9866 59.5122H26.7983V60.3175H25.9866V59.5122Z" fill="#1879B8"/>
<path d="M27.61 60.3175H28.4216V61.1228H27.61V60.3175Z" fill="#1879B8"/>
<path d="M29.2333 61.1228H30.0449V61.9281H29.2333V61.1228Z" fill="#1879B8"/>
<path d="M31.6683 61.9281H32.4799V62.7334H31.6683V61.9281Z" fill="#1879B8"/>
<path d="M34.9149 62.7334H35.7266V63.5387H34.9149V62.7334Z" fill="#1879B8"/>
<path d="M21.9283 56.2911H22.74V57.0963H21.9283V56.2911Z" fill="#1879B8"/>
<path d="M25.175 58.7069H25.9866V59.5122H25.175V58.7069Z" fill="#1879B8"/>
<path d="M26.7983 60.3175H27.61V61.1228H26.7983V60.3175Z" fill="#1879B8"/>
<path d="M28.4216 61.1228H29.2333V61.9281H28.4216V61.1228Z" fill="#1879B8"/>
<path d="M30.0449 61.1228H30.8566V61.9281H30.0449V61.1228Z" fill="#1879B8"/>
<path d="M30.8566 61.9281H31.6683V62.7334H30.8566V61.9281Z" fill="#1879B8"/>
<path d="M32.4799 61.9281H33.2916V62.7334H32.4799V61.9281Z" fill="#1879B8"/>
<path d="M33.2916 62.7334H34.1033V63.5387H33.2916V62.7334Z" fill="#1879B8"/>
<path d="M34.1033 62.7334H34.9149V63.5387H34.1033V62.7334Z" fill="#1879B8"/>
<path d="M35.7266 62.7334H36.5383V63.5387H35.7266V62.7334Z" fill="#1879B8"/>
<path d="M36.5383 62.7334H37.3499V63.5387H36.5383V62.7334Z" fill="#1879B8"/>
<path d="M37.3499 62.7334H38.1616V63.5387H37.3499V62.7334Z" fill="#1879B8"/>
<path d="M38.1616 62.7334H38.9733V63.5387H38.1616V62.7334Z" fill="#1879B8"/>
<path d="M36.5383 12H37.3499V12.8053H36.5383V12Z" fill="#1879B8"/>
<path d="M31.6683 12.8053H32.4799V13.6106H31.6683V12.8053Z" fill="#1879B8"/>
<path d="M29.2333 13.6106H30.0449V14.4159H29.2333V13.6106Z" fill="#1879B8"/>
<path d="M27.61 14.4159H28.4216V15.2212H27.61V14.4159Z" fill="#1879B8"/>
<path d="M25.9866 15.2212H26.7983V16.0265H25.9866V15.2212Z" fill="#1879B8"/>
<path d="M25.175 16.0265H25.9866V16.8318H25.175V16.0265Z" fill="#1879B8"/>
<path d="M23.5516 16.8318H24.3633V17.637H23.5516V16.8318Z" fill="#1879B8"/>
<path d="M22.74 17.637H23.5516V18.4423H22.74V17.637Z" fill="#1879B8"/>
<path d="M21.9283 18.4423H22.74V19.2476H21.9283V18.4423Z" fill="#1879B8"/>
<path d="M21.1166 19.2476H21.9283V20.0529H21.1166V19.2476Z" fill="#1879B8"/>
<path d="M20.305 20.0529H21.1166V20.8582H20.305V20.0529Z" fill="#1879B8"/>
<path d="M19.4933 20.8582H20.305V21.6635H19.4933V20.8582Z" fill="#1879B8"/>
<path d="M18.6816 21.6635H19.4933V22.4688H18.6816V21.6635Z" fill="#1879B8"/>
<path d="M17.87 22.4688H18.6816V23.2741H17.87V22.4688Z" fill="#1879B8"/>
<path d="M17.0583 23.2741H17.87V24.0794H17.0583V23.2741Z" fill="#1879B8"/>
<path d="M17.0583 24.0794H17.87V24.8847H17.0583V24.0794Z" fill="#1879B8"/>
<path d="M16.2467 24.8847H17.0583V25.69H16.2467V24.8847Z" fill="#1879B8"/>
<path d="M16.2467 25.69H17.0583V26.4953H16.2467V25.69Z" fill="#1879B8"/>
<path d="M15.435 26.4953H16.2467V27.3005H15.435V26.4953Z" fill="#1879B8"/>
<path d="M15.435 27.3005H16.2467V28.1058H15.435V27.3005Z" fill="#1879B8"/>
<path d="M14.6233 28.1058H15.435V28.9111H14.6233V28.1058Z" fill="#1879B8"/>
<path d="M14.6233 28.9111H15.435V29.7164H14.6233V28.9111Z" fill="#1879B8"/>
<path d="M14.6233 29.7164H15.435V30.5217H14.6233V29.7164Z" fill="#1879B8"/>
<path d="M13.8117 30.5217H14.6233V31.327H13.8117V30.5217Z" fill="#1879B8"/>
<path d="M13.8117 31.327H14.6233V32.1323H13.8117V31.327Z" fill="#1879B8"/>
<path d="M13.8117 32.1323H14.6233V32.9376H13.8117V32.1323Z" fill="#1879B8"/>
<path d="M13.8117 32.9376H14.6233V33.7429H13.8117V32.9376Z" fill="#1879B8"/>
<path d="M13 33.7429H13.8117V34.5482H13V33.7429Z" fill="#1879B8"/>
<path d="M13 34.5482H13.8117V35.3535H13V34.5482Z" fill="#1879B8"/>
<path d="M13 35.3535H13.8117V36.1588H13V35.3535Z" fill="#1879B8"/>
<path d="M13 36.1588H13.8117V36.9641H13V36.1588Z" fill="#1879B8"/>
<path d="M13 36.9641H13.8117V37.7693H13V36.9641Z" fill="#1879B8"/>
<path d="M24.3633 16.0265H25.175V16.8318H24.3633V16.0265Z" fill="#1879B8"/>
<path d="M26.7983 15.2212H27.61V16.0265H26.7983V15.2212Z" fill="#1879B8"/>
<path d="M28.4216 14.4159H29.2333V15.2212H28.4216V14.4159Z" fill="#1879B8"/>
<path d="M30.0449 13.6106H30.8566V14.4159H30.0449V13.6106Z" fill="#1879B8"/>
<path d="M30.8566 12.8053H31.6683V13.6106H30.8566V12.8053Z" fill="#1879B8"/>
<path d="M32.4799 12.8053H33.2916V13.6106H32.4799V12.8053Z" fill="#1879B8"/>
<path d="M33.2916 12.8053H34.1033V13.6106H33.2916V12.8053Z" fill="#1879B8"/>
<path d="M34.1033 12H34.9149V12.8053H34.1033V12Z" fill="#1879B8"/>
<path d="M34.9149 12H35.7266V12.8053H34.9149V12Z" fill="#1879B8"/>
<path d="M35.7266 12H36.5383V12.8053H35.7266V12Z" fill="#1879B8"/>
<path d="M37.3499 12H38.1616V12.8053H37.3499V12Z" fill="#1879B8"/>
<path d="M38.1616 12H38.9733V12.8053H38.1616V12Z" fill="#1879B8"/>
<path d="M38.9733 12H39.7849V12.8053H38.9733V12Z" fill="#1879B8"/>
<path d="M41.4082 12H42.2199V12.8053H41.4082V12Z" fill="#1879B8"/>
<path d="M45.4666 12.8053H46.2782V13.6106H45.4666V12.8053Z" fill="#1879B8"/>
<path d="M47.9016 13.6106H48.7132V14.4159H47.9016V13.6106Z" fill="#1879B8"/>
<path d="M50.3365 14.4159H51.1482V15.2212H50.3365V14.4159Z" fill="#1879B8"/>
<path d="M51.9599 15.2212H52.7715V16.0265H51.9599V15.2212Z" fill="#1879B8"/>
<path d="M52.7715 16.0265H53.5832V16.8318H52.7715V16.0265Z" fill="#1879B8"/>
<path d="M54.3949 16.8318H55.2065V17.637H54.3949V16.8318Z" fill="#1879B8"/>
<path d="M55.2065 17.637H56.0182V18.4423H55.2065V17.637Z" fill="#1879B8"/>
<path d="M56.0182 18.4423H56.8299V19.2476H56.0182V18.4423Z" fill="#1879B8"/>
<path d="M56.8299 19.2476H57.6415V20.0529H56.8299V19.2476Z" fill="#1879B8"/>
<path d="M57.6415 20.0529H58.4532V20.8582H57.6415V20.0529Z" fill="#1879B8"/>
<path d="M58.4532 20.8582H59.2649V21.6635H58.4532V20.8582Z" fill="#1879B8"/>
<path d="M59.2649 21.6635H60.0765V22.4688H59.2649V21.6635Z" fill="#1879B8"/>
<path d="M60.0765 22.4688H60.8882V23.2741H60.0765V22.4688Z" fill="#1879B8"/>
<path d="M60.0765 23.2741H60.8882V24.0794H60.0765V23.2741Z" fill="#1879B8"/>
<path d="M60.8882 24.0794H61.6998V24.8847H60.8882V24.0794Z" fill="#1879B8"/>
<path d="M61.6998 24.8847H62.5115V25.69H61.6998V24.8847Z" fill="#1879B8"/>
<path d="M61.6998 25.69H62.5115V26.4953H61.6998V25.69Z" fill="#1879B8"/>
<path d="M62.5115 26.4953H63.3232V27.3005H62.5115V26.4953Z" fill="#1879B8"/>
<path d="M62.5115 27.3005H63.3232V28.1058H62.5115V27.3005Z" fill="#1879B8"/>
<path d="M62.5115 28.1058H63.3232V28.9111H62.5115V28.1058Z" fill="#1879B8"/>
<path d="M63.3232 28.9111H64.1348V29.7164H63.3232V28.9111Z" fill="#1879B8"/>
<path d="M63.3232 29.7164H64.1348V30.5217H63.3232V29.7164Z" fill="#1879B8"/>
<path d="M63.3232 30.5217H64.1348V31.327H63.3232V30.5217Z" fill="#1879B8"/>
<path d="M64.1348 31.327H64.9465V32.1323H64.1348V31.327Z" fill="#1879B8"/>
<path d="M64.1348 32.1323H64.9465V32.9376H64.1348V32.1323Z" fill="#1879B8"/>
<path d="M64.1348 32.9376H64.9465V33.7429H64.1348V32.9376Z" fill="#1879B8"/>
<path d="M64.1348 33.7429H64.9465V34.5482H64.1348V33.7429Z" fill="#1879B8"/>
<path d="M64.1348 34.5482H64.9465V35.3535H64.1348V34.5482Z" fill="#1879B8"/>
<path d="M64.9465 35.3535H65.7582V36.1588H64.9465V35.3535Z" fill="#1879B8"/>
<path d="M64.9465 36.1588H65.7582V36.9641H64.9465V36.1588Z" fill="#1879B8"/>
<path d="M64.9465 36.9641H65.7582V37.7693H64.9465V36.9641Z" fill="#1879B8"/>
<path d="M39.7849 12H40.5966V12.8053H39.7849V12Z" fill="#1879B8"/>
<path d="M40.5966 12H41.4082V12.8053H40.5966V12Z" fill="#1879B8"/>
<path d="M42.2199 12H43.0316V12.8053H42.2199V12Z" fill="#1879B8"/>
<path d="M43.0316 12H43.8432V12.8053H43.0316V12Z" fill="#1879B8"/>
<path d="M43.8432 12H44.6549V12.8053H43.8432V12Z" fill="#1879B8"/>
<path d="M44.6549 12.8053H45.4666V13.6106H44.6549V12.8053Z" fill="#1879B8"/>
<path d="M46.2782 12.8053H47.0899V13.6106H46.2782V12.8053Z" fill="#1879B8"/>
<path d="M47.0899 12.8053H47.9016V13.6106H47.0899V12.8053Z" fill="#1879B8"/>
<path d="M48.7132 13.6106H49.5249V14.4159H48.7132V13.6106Z" fill="#1879B8"/>
<path d="M49.5249 14.4159H50.3365V15.2212H49.5249V14.4159Z" fill="#1879B8"/>
<path d="M51.1482 15.2212H51.9599V16.0265H51.1482V15.2212Z" fill="#1879B8"/>
<path d="M53.5832 16.0265H54.3949V16.8318H53.5832V16.0265Z" fill="#1879B8"/>
<rect x="64.9463" y="37.7695" width="0.811664" height="0.805292" fill="#1879B8"/>
<rect x="64.9463" y="38.5747" width="0.811664" height="0.805292" fill="#1879B8"/>
<rect x="64.9463" y="39.3804" width="0.811664" height="0.805292" fill="#1879B8"/>
<rect x="64.1348" y="40.1855" width="0.811664" height="0.805292" fill="#1879B8"/>
<rect x="64.1348" y="40.9907" width="0.811664" height="0.805292" fill="#1879B8"/>
<rect x="64.1348" y="41.7954" width="0.811664" height="0.805292" fill="#1879B8"/>
<rect x="64.1348" y="42.6006" width="0.811664" height="0.805292" fill="#1879B8"/>
<rect x="64.1348" y="43.4072" width="0.811664" height="0.805292" fill="#1879B8"/>
<rect x="64.1348" y="44.2114" width="0.811664" height="0.805292" fill="#1879B8"/>
<rect x="63.3232" y="45.0171" width="0.811664" height="0.805292" fill="#1879B8"/>
<rect x="63.3232" y="45.8223" width="0.811664" height="0.805292" fill="#1879B8"/>
<rect x="63.3232" y="46.6274" width="0.811664" height="0.805292" fill="#1879B8"/>
<rect x="62.5117" y="47.4331" width="0.811664" height="0.805292" fill="#1879B8"/>
<rect x="62.5117" y="48.2383" width="0.811664" height="0.805292" fill="#1879B8"/>
<rect x="61.7002" y="49.0439" width="0.811664" height="0.805292" fill="#1879B8"/>
<rect x="61.7002" y="49.8491" width="0.811664" height="0.805292" fill="#1879B8"/>
<rect x="60.8877" y="50.6538" width="0.811664" height="0.805292" fill="#1879B8"/>
<rect x="60.0762" y="51.459" width="0.811664" height="0.805292" fill="#1879B8"/>
<rect x="60.0762" y="52.2651" width="0.811664" height="0.805292" fill="#1879B8"/>
<rect x="59.2646" y="53.0698" width="0.811664" height="0.805292" fill="#1879B8"/>
<rect x="58.4531" y="53.875" width="0.811664" height="0.805292" fill="#1879B8"/>
<rect x="57.6416" y="54.6807" width="0.811664" height="0.805292" fill="#1879B8"/>
<rect x="56.8301" y="55.4858" width="0.811664" height="0.805292" fill="#1879B8"/>
<rect x="56.0176" y="56.2915" width="0.811664" height="0.805292" fill="#1879B8"/>
<rect x="55.2061" y="57.0957" width="0.811664" height="0.805292" fill="#1879B8"/>
<rect x="54.3945" y="57.9023" width="0.811664" height="0.805292" fill="#1879B8"/>
<rect x="53.583" y="58.7075" width="0.811664" height="0.805292" fill="#1879B8"/>
<rect x="51.96" y="59.5117" width="0.811664" height="0.805292" fill="#1879B8"/>
<rect x="50.3359" y="60.3174" width="0.811664" height="0.805292" fill="#1879B8"/>
<rect x="48.7129" y="61.1226" width="0.811664" height="0.805292" fill="#1879B8"/>
<rect x="46.2783" y="61.9282" width="0.811664" height="0.805292" fill="#1879B8"/>
<rect x="43.0312" y="62.7334" width="0.811664" height="0.805292" fill="#1879B8"/>
<rect x="38.9727" y="62.7334" width="0.811664" height="0.805292" fill="#1879B8"/>
<rect x="39.7852" y="62.7334" width="0.811664" height="0.805292" fill="#1879B8"/>
<rect x="40.5967" y="62.7334" width="0.811664" height="0.805292" fill="#1879B8"/>
<rect x="41.4082" y="62.7334" width="0.811664" height="0.805292" fill="#1879B8"/>
<rect x="42.2197" y="62.7334" width="0.811664" height="0.805292" fill="#1879B8"/>
<rect x="43.8428" y="62.7334" width="0.811664" height="0.805292" fill="#1879B8"/>
<rect x="44.6543" y="62.7334" width="0.811664" height="0.805292" fill="#1879B8"/>
<rect x="45.4668" y="61.9282" width="0.811664" height="0.805292" fill="#1879B8"/>
<rect x="47.0898" y="61.9282" width="0.811664" height="0.805292" fill="#1879B8"/>
<rect x="47.9014" y="61.1226" width="0.811664" height="0.805292" fill="#1879B8"/>
<rect x="49.5244" y="61.1226" width="0.811664" height="0.805292" fill="#1879B8"/>
<rect x="51.1484" y="60.3174" width="0.811664" height="0.805292" fill="#1879B8"/>
<rect x="52.7715" y="58.7075" width="0.811664" height="0.805292" fill="#1879B8"/>
<rect x="13" y="37.7695" width="0.811664" height="0.805292" fill="#1879B8"/>
<rect x="13" y="38.5747" width="0.811664" height="0.805292" fill="#1879B8"/>
<rect x="13" y="39.3804" width="0.811664" height="0.805292" fill="#1879B8"/>
<rect x="13" y="40.1855" width="0.811664" height="0.805292" fill="#1879B8"/>
<rect x="13" y="40.9907" width="0.811664" height="0.805292" fill="#1879B8"/>
<rect x="13.8115" y="41.7954" width="0.811664" height="0.805292" fill="#1879B8"/>
<rect x="13.8115" y="42.6006" width="0.811664" height="0.805292" fill="#1879B8"/>
<rect x="13.8115" y="43.4072" width="0.811664" height="0.805292" fill="#1879B8"/>
<rect x="13.8115" y="44.2114" width="0.811664" height="0.805292" fill="#1879B8"/>
<rect x="14.623" y="45.0171" width="0.811664" height="0.805292" fill="#1879B8"/>
<rect x="14.623" y="45.8223" width="0.811664" height="0.805292" fill="#1879B8"/>
<rect x="14.623" y="46.6274" width="0.811664" height="0.805292" fill="#1879B8"/>
<rect x="15.4346" y="47.4331" width="0.811664" height="0.805292" fill="#1879B8"/>
<rect x="15.4346" y="48.2383" width="0.811664" height="0.805292" fill="#1879B8"/>
<rect x="16.2461" y="49.0439" width="0.811664" height="0.805292" fill="#1879B8"/>
<rect x="16.2461" y="49.8491" width="0.811664" height="0.805292" fill="#1879B8"/>
<rect x="17.0576" y="50.6538" width="0.811664" height="0.805292" fill="#1879B8"/>
<rect x="17.0576" y="51.459" width="0.811664" height="0.805292" fill="#1879B8"/>
<rect x="17.8701" y="52.2651" width="0.811664" height="0.805292" fill="#1879B8"/>
<rect x="18.6816" y="53.0698" width="0.811664" height="0.805292" fill="#1879B8"/>
<rect x="19.4932" y="53.875" width="0.811664" height="0.805292" fill="#1879B8"/>
<rect x="19.4932" y="54.6807" width="0.811664" height="0.805292" fill="#1879B8"/>
<rect x="20.3047" y="55.4858" width="0.811664" height="0.805292" fill="#1879B8"/>
<rect x="21.1162" y="56.2915" width="0.811664" height="0.805292" fill="#1879B8"/>
<rect x="22.7402" y="57.0957" width="0.811664" height="0.805292" fill="#1879B8"/>
<rect x="23.5518" y="57.9023" width="0.811664" height="0.805292" fill="#1879B8"/>
<rect x="24.3633" y="58.7075" width="0.811664" height="0.805292" fill="#1879B8"/>
<rect x="25.9863" y="59.5117" width="0.811664" height="0.805292" fill="#1879B8"/>
<rect x="27.6094" y="60.3174" width="0.811664" height="0.805292" fill="#1879B8"/>
<rect x="29.2334" y="61.1226" width="0.811664" height="0.805292" fill="#1879B8"/>
<rect x="31.668" y="61.9282" width="0.811664" height="0.805292" fill="#1879B8"/>
<rect x="34.915" y="62.7334" width="0.811664" height="0.805292" fill="#1879B8"/>
<rect x="21.9277" y="56.2915" width="0.811664" height="0.805292" fill="#1879B8"/>
<rect x="25.1748" y="58.7075" width="0.811664" height="0.805292" fill="#1879B8"/>
<rect x="26.7979" y="60.3174" width="0.811664" height="0.805292" fill="#1879B8"/>
<rect x="28.4209" y="61.1226" width="0.811664" height="0.805292" fill="#1879B8"/>
<rect x="30.0449" y="61.1226" width="0.811664" height="0.805292" fill="#1879B8"/>
<rect x="30.8564" y="61.9282" width="0.811664" height="0.805292" fill="#1879B8"/>
<rect x="32.4795" y="61.9282" width="0.811664" height="0.805292" fill="#1879B8"/>
<rect x="33.291" y="62.7334" width="0.811664" height="0.805292" fill="#1879B8"/>
<rect x="34.1025" y="62.7334" width="0.811664" height="0.805292" fill="#1879B8"/>
<rect x="35.7266" y="62.7334" width="0.811664" height="0.805292" fill="#1879B8"/>
<rect x="36.5381" y="62.7334" width="0.811664" height="0.805292" fill="#1879B8"/>
<rect x="37.3496" y="62.7334" width="0.811664" height="0.805292" fill="#1879B8"/>
<rect x="38.1611" y="62.7334" width="0.811664" height="0.805292" fill="#1879B8"/>
<rect x="36.5381" y="12" width="0.811664" height="0.805292" fill="#1879B8"/>
<rect x="31.668" y="12.8052" width="0.811664" height="0.805292" fill="#1879B8"/>
<rect x="29.2334" y="13.6108" width="0.811664" height="0.805292" fill="#1879B8"/>
<rect x="27.6094" y="14.416" width="0.811664" height="0.805292" fill="#1879B8"/>
<rect x="25.9863" y="15.2217" width="0.811664" height="0.805292" fill="#1879B8"/>
<rect x="25.1748" y="16.0259" width="0.811664" height="0.805292" fill="#1879B8"/>
<rect x="23.5518" y="16.832" width="0.811664" height="0.805292" fill="#1879B8"/>
<rect x="22.7402" y="17.6377" width="0.811664" height="0.805292" fill="#1879B8"/>
<rect x="21.9277" y="18.4419" width="0.811664" height="0.805292" fill="#1879B8"/>
<rect x="21.1162" y="19.2476" width="0.811664" height="0.805292" fill="#1879B8"/>
<rect x="20.3047" y="20.0527" width="0.811664" height="0.805292" fill="#1879B8"/>
<rect x="19.4932" y="20.8584" width="0.811664" height="0.805292" fill="#1879B8"/>
<rect x="18.6816" y="21.6636" width="0.811664" height="0.805292" fill="#1879B8"/>
<rect x="17.8701" y="22.4688" width="0.811664" height="0.805292" fill="#1879B8"/>
<rect x="17.0576" y="23.2744" width="0.811664" height="0.805292" fill="#1879B8"/>
<rect x="17.0576" y="24.0796" width="0.811664" height="0.805292" fill="#1879B8"/>
<rect x="16.2461" y="24.8843" width="0.811664" height="0.805292" fill="#1879B8"/>
<rect x="16.2461" y="25.6904" width="0.811664" height="0.805292" fill="#1879B8"/>
<rect x="15.4346" y="26.4951" width="0.811664" height="0.805292" fill="#1879B8"/>
<rect x="15.4346" y="27.3003" width="0.811664" height="0.805292" fill="#1879B8"/>
<rect x="14.623" y="28.106" width="0.811664" height="0.805292" fill="#1879B8"/>
<rect x="14.623" y="28.9111" width="0.811664" height="0.805292" fill="#1879B8"/>
<rect x="14.623" y="29.7163" width="0.811664" height="0.805292" fill="#1879B8"/>
<rect x="13.8115" y="30.522" width="0.811664" height="0.805292" fill="#1879B8"/>
<rect x="13.8115" y="31.3271" width="0.811664" height="0.805292" fill="#1879B8"/>
<rect x="13.8115" y="32.1328" width="0.811664" height="0.805292" fill="#1879B8"/>
<rect x="13.8115" y="32.938" width="0.811664" height="0.805292" fill="#1879B8"/>
<rect x="13" y="33.7427" width="0.811664" height="0.805292" fill="#1879B8"/>
<rect x="13" y="34.5488" width="0.811664" height="0.805292" fill="#1879B8"/>
<rect x="13" y="35.353" width="0.811664" height="0.805292" fill="#1879B8"/>
<rect x="13" y="36.1587" width="0.811664" height="0.805292" fill="#1879B8"/>
<rect x="13" y="36.9639" width="0.811664" height="0.805292" fill="#1879B8"/>
<rect x="24.3633" y="16.0259" width="0.811664" height="0.805292" fill="#1879B8"/>
<rect x="26.7979" y="15.2217" width="0.811664" height="0.805292" fill="#1879B8"/>
<rect x="28.4209" y="14.416" width="0.811664" height="0.805292" fill="#1879B8"/>
<rect x="30.0449" y="13.6108" width="0.811664" height="0.805292" fill="#1879B8"/>
<rect x="30.8564" y="12.8052" width="0.811664" height="0.805292" fill="#1879B8"/>
<rect x="32.4795" y="12.8052" width="0.811664" height="0.805292" fill="#1879B8"/>
<rect x="33.291" y="12.8052" width="0.811664" height="0.805292" fill="#1879B8"/>
<rect x="34.1025" y="12" width="0.811664" height="0.805292" fill="#1879B8"/>
<rect x="34.915" y="12" width="0.811664" height="0.805292" fill="#1879B8"/>
<rect x="35.7266" y="12" width="0.811664" height="0.805292" fill="#1879B8"/>
<rect x="37.3496" y="12" width="0.811664" height="0.805292" fill="#1879B8"/>
<rect x="38.1611" y="12" width="0.811664" height="0.805292" fill="#1879B8"/>
<rect x="38.9727" y="12" width="0.811664" height="0.805292" fill="#1879B8"/>
<rect x="41.4082" y="12" width="0.811664" height="0.805292" fill="#1879B8"/>
<rect x="45.4668" y="12.8052" width="0.811664" height="0.805292" fill="#1879B8"/>
<rect x="47.9014" y="13.6108" width="0.811664" height="0.805292" fill="#1879B8"/>
<rect x="50.3359" y="14.416" width="0.811664" height="0.805292" fill="#1879B8"/>
<rect x="51.96" y="15.2217" width="0.811664" height="0.805292" fill="#1879B8"/>
<rect x="52.7715" y="16.0259" width="0.811664" height="0.805292" fill="#1879B8"/>
<rect x="54.3945" y="16.832" width="0.811664" height="0.805292" fill="#1879B8"/>
<rect x="55.2061" y="17.6377" width="0.811664" height="0.805292" fill="#1879B8"/>
<rect x="56.0176" y="18.4419" width="0.811664" height="0.805292" fill="#1879B8"/>
<rect x="56.8301" y="19.2476" width="0.811664" height="0.805292" fill="#1879B8"/>
<rect x="57.6416" y="20.0527" width="0.811664" height="0.805292" fill="#1879B8"/>
<rect x="58.4531" y="20.8584" width="0.811664" height="0.805292" fill="#1879B8"/>
<rect x="59.2646" y="21.6636" width="0.811664" height="0.805292" fill="#1879B8"/>
<rect x="60.0762" y="22.4688" width="0.811664" height="0.805292" fill="#1879B8"/>
<rect x="60.0762" y="23.2744" width="0.811664" height="0.805292" fill="#1879B8"/>
<rect x="60.8877" y="24.0796" width="0.811664" height="0.805292" fill="#1879B8"/>
<rect x="61.7002" y="24.8843" width="0.811664" height="0.805292" fill="#1879B8"/>
<rect x="61.7002" y="25.6904" width="0.811664" height="0.805292" fill="#1879B8"/>
<rect x="62.5117" y="26.4951" width="0.811664" height="0.805292" fill="#1879B8"/>
<rect x="62.5117" y="27.3003" width="0.811664" height="0.805292" fill="#1879B8"/>
<rect x="62.5117" y="28.106" width="0.811664" height="0.805292" fill="#1879B8"/>
<rect x="63.3232" y="28.9111" width="0.811664" height="0.805292" fill="#1879B8"/>
<rect x="63.3232" y="29.7163" width="0.811664" height="0.805292" fill="#1879B8"/>
<rect x="63.3232" y="30.522" width="0.811664" height="0.805292" fill="#1879B8"/>
<rect x="64.1348" y="31.3271" width="0.811664" height="0.805292" fill="#1879B8"/>
<rect x="64.1348" y="32.1328" width="0.811664" height="0.805292" fill="#1879B8"/>
<rect x="64.1348" y="32.938" width="0.811664" height="0.805292" fill="#1879B8"/>
<rect x="64.1348" y="33.7427" width="0.811664" height="0.805292" fill="#1879B8"/>
<rect x="64.1348" y="34.5488" width="0.811664" height="0.805292" fill="#1879B8"/>
<rect x="64.9463" y="35.353" width="0.811664" height="0.805292" fill="#1879B8"/>
<rect x="64.9463" y="36.1587" width="0.811664" height="0.805292" fill="#1879B8"/>
<rect x="64.9463" y="36.9639" width="0.811664" height="0.805292" fill="#1879B8"/>
<rect x="39.7852" y="12" width="0.811664" height="0.805292" fill="#1879B8"/>
<rect x="40.5967" y="12" width="0.811664" height="0.805292" fill="#1879B8"/>
<rect x="42.2197" y="12" width="0.811664" height="0.805292" fill="#1879B8"/>
<rect x="43.0312" y="12" width="0.811664" height="0.805292" fill="#1879B8"/>
<rect x="43.8428" y="12" width="0.811664" height="0.805292" fill="#1879B8"/>
<rect x="44.6543" y="12.8052" width="0.811664" height="0.805292" fill="#1879B8"/>
<rect x="46.2783" y="12.8052" width="0.811664" height="0.805292" fill="#1879B8"/>
<rect x="47.0898" y="12.8052" width="0.811664" height="0.805292" fill="#1879B8"/>
<rect x="48.7129" y="13.6108" width="0.811664" height="0.805292" fill="#1879B8"/>
<rect x="49.5244" y="14.416" width="0.811664" height="0.805292" fill="#1879B8"/>
<rect x="51.1484" y="15.2217" width="0.811664" height="0.805292" fill="#1879B8"/>
<rect x="53.583" y="16.0259" width="0.811664" height="0.805292" fill="#1879B8"/>
<rect x="65.7578" y="37.7695" width="0.811664" height="0.805292" fill="#1879B8"/>
<rect x="65.7578" y="38.5747" width="0.811664" height="0.805292" fill="#1879B8"/>
<rect x="65.7578" y="39.3804" width="0.811664" height="0.805292" fill="#1879B8"/>
<rect x="65.7578" y="40.1855" width="0.811664" height="0.805292" fill="#1879B8"/>
<rect x="64.9463" y="40.1855" width="0.811664" height="0.805292" fill="#1879B8"/>
<rect x="64.9463" y="40.9907" width="0.811664" height="0.805292" fill="#1879B8"/>
<rect x="64.9463" y="41.7954" width="0.811664" height="0.805292" fill="#1879B8"/>
<rect x="64.9463" y="42.6006" width="0.811664" height="0.805292" fill="#1879B8"/>
<rect x="64.9463" y="43.4072" width="0.811664" height="0.805292" fill="#1879B8"/>
<rect x="64.9463" y="44.2114" width="0.811664" height="0.805292" fill="#1879B8"/>
<rect x="64.9463" y="45.0171" width="0.811664" height="0.805292" fill="#1879B8"/>
<rect x="64.1348" y="45.0171" width="0.811664" height="0.805292" fill="#1879B8"/>
<rect x="64.1348" y="45.8223" width="0.811664" height="0.805292" fill="#1879B8"/>
<rect x="64.1348" y="46.6274" width="0.811664" height="0.805292" fill="#1879B8"/>
<rect x="64.1348" y="47.4331" width="0.811664" height="0.805292" fill="#1879B8"/>
<rect x="63.3232" y="47.4331" width="0.811664" height="0.805292" fill="#1879B8"/>
<rect x="63.3232" y="48.2383" width="0.811664" height="0.805292" fill="#1879B8"/>
<rect x="63.3232" y="49.0439" width="0.811664" height="0.805292" fill="#1879B8"/>
<rect x="62.5117" y="49.0439" width="0.811664" height="0.805292" fill="#1879B8"/>
<rect x="62.5117" y="49.8491" width="0.811664" height="0.805292" fill="#1879B8"/>
<rect x="62.5117" y="50.6538" width="0.811664" height="0.805292" fill="#1879B8"/>
<rect x="61.7002" y="50.6538" width="0.811664" height="0.805292" fill="#1879B8"/>
<rect x="61.7002" y="51.459" width="0.811664" height="0.805292" fill="#1879B8"/>
<rect x="60.8877" y="51.459" width="0.811664" height="0.805292" fill="#1879B8"/>
<rect x="60.8877" y="52.2651" width="0.811664" height="0.805292" fill="#1879B8"/>
<rect x="60.8877" y="53.0698" width="0.811664" height="0.805292" fill="#1879B8"/>
<rect x="60.0762" y="53.0698" width="0.811664" height="0.805292" fill="#1879B8"/>
<rect x="60.0762" y="53.875" width="0.811664" height="0.805292" fill="#1879B8"/>
<rect x="59.2646" y="53.875" width="0.811664" height="0.805292" fill="#1879B8"/>
<rect x="59.2646" y="54.6807" width="0.811664" height="0.805292" fill="#1879B8"/>
<rect x="58.4531" y="54.6807" width="0.811664" height="0.805292" fill="#1879B8"/>
<rect x="58.4531" y="55.4858" width="0.811664" height="0.805292" fill="#1879B8"/>
<rect x="57.6416" y="55.4858" width="0.811664" height="0.805292" fill="#1879B8"/>
<rect x="57.6416" y="56.2915" width="0.811664" height="0.805292" fill="#1879B8"/>
<rect x="56.8301" y="56.2915" width="0.811664" height="0.805292" fill="#1879B8"/>
<rect x="56.8301" y="57.0957" width="0.811664" height="0.805292" fill="#1879B8"/>
<rect x="56.0176" y="57.0957" width="0.811664" height="0.805292" fill="#1879B8"/>
<rect x="56.0176" y="57.9023" width="0.811664" height="0.805292" fill="#1879B8"/>
<rect x="55.2061" y="57.9023" width="0.811664" height="0.805292" fill="#1879B8"/>
<rect x="55.2061" y="58.7075" width="0.811664" height="0.805292" fill="#1879B8"/>
<rect x="54.3945" y="58.7075" width="0.811664" height="0.805292" fill="#1879B8"/>
<rect x="54.3945" y="59.5117" width="0.811664" height="0.805292" fill="#1879B8"/>
<rect x="53.583" y="59.5117" width="0.811664" height="0.805292" fill="#1879B8"/>
<rect x="51.96" y="58.7075" width="0.811664" height="0.805292" fill="#1879B8"/>
<rect x="52.7715" y="59.5117" width="0.811664" height="0.805292" fill="#1879B8"/>
<rect x="52.7715" y="60.3174" width="0.811664" height="0.805292" fill="#1879B8"/>
<rect x="51.96" y="60.3174" width="0.811664" height="0.805292" fill="#1879B8"/>
<rect x="51.1484" y="61.1226" width="0.811664" height="0.805292" fill="#1879B8"/>
<rect x="50.3359" y="61.1226" width="0.811664" height="0.805292" fill="#1879B8"/>
<rect x="49.5244" y="61.9282" width="0.811664" height="0.805292" fill="#1879B8"/>
<rect x="48.7129" y="61.9282" width="0.811664" height="0.805292" fill="#1879B8"/>
<rect x="47.0898" y="62.7334" width="0.811664" height="0.805292" fill="#1879B8"/>
<rect x="46.2783" y="62.7334" width="0.811664" height="0.805292" fill="#1879B8"/>
<rect x="43.8428" y="63.5391" width="0.811664" height="0.805292" fill="#1879B8"/>
<rect x="43.0312" y="63.5391" width="0.811664" height="0.805292" fill="#1879B8"/>
<rect x="39.7852" y="63.5391" width="0.811664" height="0.805292" fill="#1879B8"/>
<rect x="38.9727" y="63.5391" width="0.811664" height="0.805292" fill="#1879B8"/>
<rect x="40.5967" y="63.5391" width="0.811664" height="0.805292" fill="#1879B8"/>
<rect x="41.4082" y="63.5391" width="0.811664" height="0.805292" fill="#1879B8"/>
<rect x="42.2197" y="63.5391" width="0.811664" height="0.805292" fill="#1879B8"/>
<rect x="44.6543" y="63.5391" width="0.811664" height="0.805292" fill="#1879B8"/>
<rect x="45.4668" y="62.7334" width="0.811664" height="0.805292" fill="#1879B8"/>
<rect x="45.4668" y="63.5391" width="0.811664" height="0.805292" fill="#1879B8"/>
<rect x="47.9014" y="61.9282" width="0.811664" height="0.805292" fill="#1879B8"/>
<rect x="47.9014" y="62.7334" width="0.811664" height="0.805292" fill="#1879B8"/>
<rect x="50.3359" y="61.9282" width="0.811664" height="0.805292" fill="#1879B8"/>
<rect x="51.96" y="61.1226" width="0.811664" height="0.805292" fill="#1879B8"/>
<rect x="13.8115" y="37.7695" width="0.811664" height="0.805292" fill="#1879B8"/>
<rect x="13.8115" y="38.5747" width="0.811664" height="0.805292" fill="#1879B8"/>
<rect x="13.8115" y="39.3804" width="0.811664" height="0.805292" fill="#1879B8"/>
<rect x="13.8115" y="40.1855" width="0.811664" height="0.805292" fill="#1879B8"/>
<rect x="13.8115" y="40.9907" width="0.811664" height="0.805292" fill="#1879B8"/>
<rect x="13" y="41.7954" width="0.811664" height="0.805292" fill="#1879B8"/>
<rect x="14.623" y="41.7954" width="0.811664" height="0.805292" fill="#1879B8"/>
<rect x="14.623" y="42.6006" width="0.811664" height="0.805292" fill="#1879B8"/>
<rect x="14.623" y="43.4072" width="0.811664" height="0.805292" fill="#1879B8"/>
<rect x="14.623" y="44.2114" width="0.811664" height="0.805292" fill="#1879B8"/>
<rect x="13.8115" y="45.0171" width="0.811664" height="0.805292" fill="#1879B8"/>
<rect x="15.4346" y="45.0171" width="0.811664" height="0.805292" fill="#1879B8"/>
<rect x="15.4346" y="45.8223" width="0.811664" height="0.805292" fill="#1879B8"/>
<rect x="15.4346" y="46.6274" width="0.811664" height="0.805292" fill="#1879B8"/>
<rect x="14.623" y="47.4331" width="0.811664" height="0.805292" fill="#1879B8"/>
<rect x="16.2461" y="47.4331" width="0.811664" height="0.805292" fill="#1879B8"/>
<rect x="16.2461" y="48.2383" width="0.811664" height="0.805292" fill="#1879B8"/>
<rect x="15.4346" y="49.0439" width="0.811664" height="0.805292" fill="#1879B8"/>
<rect x="17.0576" y="49.0439" width="0.811664" height="0.805292" fill="#1879B8"/>
<rect x="17.0576" y="49.8491" width="0.811664" height="0.805292" fill="#1879B8"/>
<rect x="16.2461" y="50.6538" width="0.811664" height="0.805292" fill="#1879B8"/>
<rect x="17.8701" y="50.6538" width="0.811664" height="0.805292" fill="#1879B8"/>
<rect x="17.8701" y="51.459" width="0.811664" height="0.805292" fill="#1879B8"/>
<rect x="17.0576" y="52.2651" width="0.811664" height="0.805292" fill="#1879B8"/>
<rect x="18.6816" y="52.2651" width="0.811664" height="0.805292" fill="#1879B8"/>
<rect x="17.8701" y="53.0698" width="0.811664" height="0.805292" fill="#1879B8"/>
<rect x="19.4932" y="53.0698" width="0.811664" height="0.805292" fill="#1879B8"/>
<rect x="18.6816" y="53.875" width="0.811664" height="0.805292" fill="#1879B8"/>
<rect x="20.3047" y="53.875" width="0.811664" height="0.805292" fill="#1879B8"/>
<rect x="20.3047" y="54.6807" width="0.811664" height="0.805292" fill="#1879B8"/>
<rect x="19.4932" y="55.4858" width="0.811664" height="0.805292" fill="#1879B8"/>
<rect x="21.1162" y="55.4858" width="0.811664" height="0.805292" fill="#1879B8"/>
<rect x="20.3047" y="56.2915" width="0.811664" height="0.805292" fill="#1879B8"/>
<rect x="21.9277" y="57.0957" width="0.811664" height="0.805292" fill="#1879B8"/>
<rect x="21.1162" y="57.0957" width="0.811664" height="0.805292" fill="#1879B8"/>
<rect x="23.5518" y="57.0957" width="0.811664" height="0.805292" fill="#1879B8"/>
<rect x="22.7402" y="57.9023" width="0.811664" height="0.805292" fill="#1879B8"/>
<rect x="24.3633" y="57.9023" width="0.811664" height="0.805292" fill="#1879B8"/>
<rect x="23.5518" y="58.7075" width="0.811664" height="0.805292" fill="#1879B8"/>
<rect x="25.1748" y="59.5117" width="0.811664" height="0.805292" fill="#1879B8"/>
<rect x="24.3633" y="59.5117" width="0.811664" height="0.805292" fill="#1879B8"/>
<rect x="25.9863" y="58.7075" width="0.811664" height="0.805292" fill="#1879B8"/>
<rect x="26.7979" y="59.5117" width="0.811664" height="0.805292" fill="#1879B8"/>
<rect x="25.9863" y="60.3174" width="0.811664" height="0.805292" fill="#1879B8"/>
<rect x="28.4209" y="60.3174" width="0.811664" height="0.805292" fill="#1879B8"/>
<rect x="27.6094" y="61.1226" width="0.811664" height="0.805292" fill="#1879B8"/>
<rect x="30.0449" y="61.9282" width="0.811664" height="0.805292" fill="#1879B8"/>
<rect x="29.2334" y="61.9282" width="0.811664" height="0.805292" fill="#1879B8"/>
<rect x="32.4795" y="62.7334" width="0.811664" height="0.805292" fill="#1879B8"/>
<rect x="31.668" y="62.7334" width="0.811664" height="0.805292" fill="#1879B8"/>
<rect x="35.7266" y="63.5391" width="0.811664" height="0.805292" fill="#1879B8"/>
<rect x="34.915" y="63.5391" width="0.811664" height="0.805292" fill="#1879B8"/>
<rect x="22.7402" y="56.2915" width="0.811664" height="0.805292" fill="#1879B8"/>
<rect x="26.7979" y="61.1226" width="0.811664" height="0.805292" fill="#1879B8"/>
<rect x="28.4209" y="61.9282" width="0.811664" height="0.805292" fill="#1879B8"/>
<rect x="30.8564" y="61.1226" width="0.811664" height="0.805292" fill="#1879B8"/>
<rect x="30.8564" y="62.7334" width="0.811664" height="0.805292" fill="#1879B8"/>
<rect x="33.291" y="61.9282" width="0.811664" height="0.805292" fill="#1879B8"/>
<rect x="34.1025" y="63.5391" width="0.811664" height="0.805292" fill="#1879B8"/>
<rect x="33.291" y="63.5391" width="0.811664" height="0.805292" fill="#1879B8"/>
<rect x="36.5381" y="63.5391" width="0.811664" height="0.805292" fill="#1879B8"/>
<rect x="37.3496" y="63.5391" width="0.811664" height="0.805292" fill="#1879B8"/>
<rect x="38.1611" y="63.5391" width="0.811664" height="0.805292" fill="#1879B8"/>
<rect x="37.3496" y="12.8052" width="0.811664" height="0.805292" fill="#1879B8"/>
<rect x="36.5381" y="12.8052" width="0.811664" height="0.805292" fill="#1879B8"/>
<rect x="32.4795" y="13.6108" width="0.811664" height="0.805292" fill="#1879B8"/>
<rect x="31.668" y="13.6108" width="0.811664" height="0.805292" fill="#1879B8"/>
<rect x="30.0449" y="14.416" width="0.811664" height="0.805292" fill="#1879B8"/>
<rect x="29.2334" y="14.416" width="0.811664" height="0.805292" fill="#1879B8"/>
<rect x="28.4209" y="15.2217" width="0.811664" height="0.805292" fill="#1879B8"/>
<rect x="27.6094" y="15.2217" width="0.811664" height="0.805292" fill="#1879B8"/>
<rect x="26.7979" y="16.0259" width="0.811664" height="0.805292" fill="#1879B8"/>
<rect x="25.9863" y="16.0259" width="0.811664" height="0.805292" fill="#1879B8"/>
<rect x="25.9863" y="16.832" width="0.811664" height="0.805292" fill="#1879B8"/>
<rect x="25.1748" y="16.832" width="0.811664" height="0.805292" fill="#1879B8"/>
<rect x="24.3633" y="16.832" width="0.811664" height="0.805292" fill="#1879B8"/>
<rect x="24.3633" y="17.6377" width="0.811664" height="0.805292" fill="#1879B8"/>
<rect x="23.5518" y="17.6377" width="0.811664" height="0.805292" fill="#1879B8"/>
<rect x="23.5518" y="18.4419" width="0.811664" height="0.805292" fill="#1879B8"/>
<rect x="22.7402" y="18.4419" width="0.811664" height="0.805292" fill="#1879B8"/>
<rect x="21.9277" y="17.6377" width="0.811664" height="0.805292" fill="#1879B8"/>
<rect x="22.7402" y="19.2476" width="0.811664" height="0.805292" fill="#1879B8"/>
<rect x="21.9277" y="19.2476" width="0.811664" height="0.805292" fill="#1879B8"/>
<rect x="21.9277" y="20.0527" width="0.811664" height="0.805292" fill="#1879B8"/>
<rect x="21.1162" y="20.0527" width="0.811664" height="0.805292" fill="#1879B8"/>
<rect x="21.1162" y="20.8584" width="0.811664" height="0.805292" fill="#1879B8"/>
<rect x="20.3047" y="20.8584" width="0.811664" height="0.805292" fill="#1879B8"/>
<rect x="20.3047" y="21.6636" width="0.811664" height="0.805292" fill="#1879B8"/>
<rect x="19.4932" y="21.6636" width="0.811664" height="0.805292" fill="#1879B8"/>
<rect x="19.4932" y="22.4688" width="0.811664" height="0.805292" fill="#1879B8"/>
<rect x="18.6816" y="22.4688" width="0.811664" height="0.805292" fill="#1879B8"/>
<rect x="18.6816" y="23.2744" width="0.811664" height="0.805292" fill="#1879B8"/>
<rect x="17.8701" y="23.2744" width="0.811664" height="0.805292" fill="#1879B8"/>
<rect x="17.8701" y="24.0796" width="0.811664" height="0.805292" fill="#1879B8"/>
<rect x="17.8701" y="24.8843" width="0.811664" height="0.805292" fill="#1879B8"/>
<rect x="17.0576" y="24.8843" width="0.811664" height="0.805292" fill="#1879B8"/>
<rect x="16.2461" y="24.0796" width="0.811664" height="0.805292" fill="#1879B8"/>
<rect x="17.0576" y="25.6904" width="0.811664" height="0.805292" fill="#1879B8"/>
<rect x="17.0576" y="26.4951" width="0.811664" height="0.805292" fill="#1879B8"/>
<rect x="16.2461" y="26.4951" width="0.811664" height="0.805292" fill="#1879B8"/>
<rect x="16.2461" y="27.3003" width="0.811664" height="0.805292" fill="#1879B8"/>
<rect x="16.2461" y="28.106" width="0.811664" height="0.805292" fill="#1879B8"/>
<rect x="15.4346" y="28.106" width="0.811664" height="0.805292" fill="#1879B8"/>
<rect x="15.4346" y="28.9111" width="0.811664" height="0.805292" fill="#1879B8"/>
<rect x="15.4346" y="29.7163" width="0.811664" height="0.805292" fill="#1879B8"/>
<rect x="15.4346" y="30.522" width="0.811664" height="0.805292" fill="#1879B8"/>
<rect x="14.623" y="30.522" width="0.811664" height="0.805292" fill="#1879B8"/>
<rect x="14.623" y="31.3271" width="0.811664" height="0.805292" fill="#1879B8"/>
<rect x="14.623" y="32.1328" width="0.811664" height="0.805292" fill="#1879B8"/>
<rect x="14.623" y="32.938" width="0.811664" height="0.805292" fill="#1879B8"/>
<rect x="14.623" y="33.7427" width="0.811664" height="0.805292" fill="#1879B8"/>
<rect x="13.8115" y="33.7427" width="0.811664" height="0.805292" fill="#1879B8"/>
<rect x="13.8115" y="34.5488" width="0.811664" height="0.805292" fill="#1879B8"/>
<rect x="13.8115" y="35.353" width="0.811664" height="0.805292" fill="#1879B8"/>
<rect x="13.8115" y="36.1587" width="0.811664" height="0.805292" fill="#1879B8"/>
<rect x="13.8115" y="36.9639" width="0.811664" height="0.805292" fill="#1879B8"/>
<rect x="27.6094" y="16.0259" width="0.811664" height="0.805292" fill="#1879B8"/>
<rect x="29.2334" y="15.2217" width="0.811664" height="0.805292" fill="#1879B8"/>
<rect x="30.8564" y="13.6108" width="0.811664" height="0.805292" fill="#1879B8"/>
<rect x="30.8564" y="14.416" width="0.811664" height="0.805292" fill="#1879B8"/>
<rect x="33.291" y="13.6108" width="0.811664" height="0.805292" fill="#1879B8"/>
<rect x="34.1025" y="12.8052" width="0.811664" height="0.805292" fill="#1879B8"/>
<rect x="34.1025" y="13.6108" width="0.811664" height="0.805292" fill="#1879B8"/>
<rect x="34.915" y="12.8052" width="0.811664" height="0.805292" fill="#1879B8"/>
<rect x="35.7266" y="12.8052" width="0.811664" height="0.805292" fill="#1879B8"/>
<rect x="38.1611" y="12.8052" width="0.811664" height="0.805292" fill="#1879B8"/>
<rect x="38.9727" y="12.8052" width="0.811664" height="0.805292" fill="#1879B8"/>
<rect x="39.7852" y="12.8052" width="0.811664" height="0.805292" fill="#1879B8"/>
<rect x="42.2197" y="12.8052" width="0.811664" height="0.805292" fill="#1879B8"/>
<rect x="41.4082" y="12.8052" width="0.811664" height="0.805292" fill="#1879B8"/>
<rect x="46.2783" y="13.6108" width="0.811664" height="0.805292" fill="#1879B8"/>
<rect x="45.4668" y="13.6108" width="0.811664" height="0.805292" fill="#1879B8"/>
<rect x="48.7129" y="14.416" width="0.811664" height="0.805292" fill="#1879B8"/>
<rect x="47.9014" y="14.416" width="0.811664" height="0.805292" fill="#1879B8"/>
<rect x="51.1484" y="14.416" width="0.811664" height="0.805292" fill="#1879B8"/>
<rect x="50.3359" y="15.2217" width="0.811664" height="0.805292" fill="#1879B8"/>
<rect x="52.7715" y="15.2217" width="0.811664" height="0.805292" fill="#1879B8"/>
<rect x="51.96" y="16.0259" width="0.811664" height="0.805292" fill="#1879B8"/>
<rect x="53.583" y="16.832" width="0.811664" height="0.805292" fill="#1879B8"/>
<rect x="52.7715" y="16.832" width="0.811664" height="0.805292" fill="#1879B8"/>
<rect x="55.2061" y="16.832" width="0.811664" height="0.805292" fill="#1879B8"/>
<rect x="54.3945" y="17.6377" width="0.811664" height="0.805292" fill="#1879B8"/>
<rect x="56.0176" y="17.6377" width="0.811664" height="0.805292" fill="#1879B8"/>
<rect x="55.2061" y="18.4419" width="0.811664" height="0.805292" fill="#1879B8"/>
<rect x="56.8301" y="18.4419" width="0.811664" height="0.805292" fill="#1879B8"/>
<rect x="56.0176" y="19.2476" width="0.811664" height="0.805292" fill="#1879B8"/>
<rect x="57.6416" y="19.2476" width="0.811664" height="0.805292" fill="#1879B8"/>
<rect x="56.8301" y="20.0527" width="0.811664" height="0.805292" fill="#1879B8"/>
<rect x="58.4531" y="20.0527" width="0.811664" height="0.805292" fill="#1879B8"/>
<rect x="57.6416" y="20.8584" width="0.811664" height="0.805292" fill="#1879B8"/>
<rect x="59.2646" y="20.8584" width="0.811664" height="0.805292" fill="#1879B8"/>
<rect x="58.4531" y="21.6636" width="0.811664" height="0.805292" fill="#1879B8"/>
<rect x="60.0762" y="21.6636" width="0.811664" height="0.805292" fill="#1879B8"/>
<rect x="59.2646" y="22.4688" width="0.811664" height="0.805292" fill="#1879B8"/>
<rect x="60.8877" y="22.4688" width="0.811664" height="0.805292" fill="#1879B8"/>
<rect x="60.8877" y="23.2744" width="0.811664" height="0.805292" fill="#1879B8"/>
<rect x="60.0762" y="24.0796" width="0.811664" height="0.805292" fill="#1879B8"/>
<rect x="61.7002" y="24.0796" width="0.811664" height="0.805292" fill="#1879B8"/>
<rect x="60.8877" y="24.8843" width="0.811664" height="0.805292" fill="#1879B8"/>
<rect x="62.5117" y="24.8843" width="0.811664" height="0.805292" fill="#1879B8"/>
<rect x="62.5117" y="25.6904" width="0.811664" height="0.805292" fill="#1879B8"/>
<rect x="61.7002" y="26.4951" width="0.811664" height="0.805292" fill="#1879B8"/>
<rect x="63.3232" y="26.4951" width="0.811664" height="0.805292" fill="#1879B8"/>
<rect x="63.3232" y="27.3003" width="0.811664" height="0.805292" fill="#1879B8"/>
<rect x="63.3232" y="28.106" width="0.811664" height="0.805292" fill="#1879B8"/>
<rect x="62.5117" y="28.9111" width="0.811664" height="0.805292" fill="#1879B8"/>
<rect x="64.1348" y="28.9111" width="0.811664" height="0.805292" fill="#1879B8"/>
<rect x="64.1348" y="29.7163" width="0.811664" height="0.805292" fill="#1879B8"/>
<rect x="64.1348" y="30.522" width="0.811664" height="0.805292" fill="#1879B8"/>
<rect x="63.3232" y="31.3271" width="0.811664" height="0.805292" fill="#1879B8"/>
<rect x="64.9463" y="31.3271" width="0.811664" height="0.805292" fill="#1879B8"/>
<rect x="64.9463" y="32.1328" width="0.811664" height="0.805292" fill="#1879B8"/>
<rect x="64.9463" y="32.938" width="0.811664" height="0.805292" fill="#1879B8"/>
<rect x="64.9463" y="33.7427" width="0.811664" height="0.805292" fill="#1879B8"/>
<rect x="64.9463" y="34.5488" width="0.811664" height="0.805292" fill="#1879B8"/>
<rect x="64.1348" y="35.353" width="0.811664" height="0.805292" fill="#1879B8"/>
<rect x="65.7578" y="35.353" width="0.811664" height="0.805292" fill="#1879B8"/>
<rect x="65.7578" y="36.1587" width="0.811664" height="0.805292" fill="#1879B8"/>
<rect x="65.7578" y="36.9639" width="0.811664" height="0.805292" fill="#1879B8"/>
<rect x="40.5967" y="12.8052" width="0.811664" height="0.805292" fill="#1879B8"/>
<rect x="43.0312" y="12.8052" width="0.811664" height="0.805292" fill="#1879B8"/>
<rect x="43.8428" y="12.8052" width="0.811664" height="0.805292" fill="#1879B8"/>
<rect x="44.6543" y="12" width="0.811664" height="0.805292" fill="#1879B8"/>
<rect x="44.6543" y="13.6108" width="0.811664" height="0.805292" fill="#1879B8"/>
<rect x="47.0898" y="13.6108" width="0.811664" height="0.805292" fill="#1879B8"/>
<rect x="47.9014" y="12.8052" width="0.811664" height="0.805292" fill="#1879B8"/>
<rect x="49.5244" y="13.6108" width="0.811664" height="0.805292" fill="#1879B8"/>
<rect x="49.5244" y="15.2217" width="0.811664" height="0.805292" fill="#1879B8"/>
<rect x="51.1484" y="16.0259" width="0.811664" height="0.805292" fill="#1879B8"/>
<rect x="54.3945" y="16.0259" width="0.811664" height="0.805292" fill="#1879B8"/>
</svg>
