<svg width="301" height="76" viewBox="0 0 301 76" fill="none" xmlns="http://www.w3.org/2000/svg">
<path d="M287.609 74.4996L13.5227 74.4292V72.5729V71.0729H12.0227H7.56473L7.41122 68.9939L7.32958 67.8884L6.24877 67.6419C5.48925 67.4687 5.05554 67.3671 4.75687 67.2589C4.68984 67.2347 4.64312 67.2146 4.61181 67.1997C4.5965 67.1412 4.57346 67.0295 4.55451 66.8366C4.51348 66.419 4.50712 65.8457 4.49951 64.9475C4.49943 64.2285 4.48645 63.5677 4.40321 63.0057C4.31748 62.4268 4.13832 61.805 3.69612 61.2654C3.25156 60.7229 2.67689 60.4288 2.12826 60.2375C1.93235 60.1692 1.72193 60.1081 1.5 60.0518V15.7485C1.76564 15.7026 2.01894 15.6487 2.25035 15.5808C2.80208 15.4188 3.40737 15.1286 3.84856 14.515C4.25371 13.9516 4.38241 13.2991 4.44217 12.7393C4.50314 12.1681 4.51066 11.4617 4.51427 10.6555H4.51429V10.6488V10.6423V10.6359V10.6294V10.6229V10.6165V10.61V10.6035V10.5971V10.5906V10.5842V10.5777V10.5712V10.5648V10.5583V10.5518V10.5454V10.5389V10.5325V10.526V10.5195V10.5131V10.5066V10.5001V10.4937V10.4872V10.4808V10.4743V10.4678V10.4614V10.4549V10.4484V10.442V10.4355V10.429V10.4226V10.4161V10.4096V10.4032V10.3967V10.3903V10.3838V10.3773V10.3709V10.3644V10.3579V10.3515V10.345V10.3385V10.3321V10.3256V10.3191V10.3126V10.3062V10.2997V10.2932V10.2868V10.2803V10.2738V10.2674V10.2609V10.2544V10.248V10.2415V10.235V10.2285V10.2221V10.2156V10.2091V10.2026V10.1962V10.1897V10.1832V10.1768V10.1703V10.1638V10.1573V10.1509V10.1444V10.1379V10.1314V10.1249V10.1185V10.112V10.1055V10.099V10.0926V10.0861V10.0796V10.0731V10.0666V10.0601V10.0537V10.0472V10.0407V10.0342V10.0277V10.0213V10.0148V10.0083V10.0018V9.99531V9.98882V9.98234V9.97585V9.96936V9.96287V9.95638V9.94989V9.9434V9.93691V9.93042V9.92393V9.91744V9.91095V9.90445V9.89796V9.89147V9.88497V9.87848V9.87198V9.86548V9.85899V9.85249V9.84599V9.83949V9.83299V9.82649V9.81999V9.81349V9.80699V9.80049V9.79398V9.78748V9.78097V9.77447V9.76796V9.76146V9.75495V9.74844V9.74193V9.73542V9.72892V9.72241V9.71589V9.70938V9.70287V9.69636V9.68984V9.68333V9.67681V9.6703V9.66378V9.65726V9.65075V9.64423V9.63771V9.63119V9.62467V9.61814V9.61162V9.6051V9.59857V9.59205V9.58552V9.579V9.57247V9.56594V9.55941V9.55288V9.54635V9.53982V9.53329V9.52676V9.52022V9.51369V9.50715V9.50062V9.49408V9.48754V9.481V9.47446V9.46792V9.46138V9.45484V9.4483V9.44175V9.43521V9.42866V9.42212V9.41557V9.40902V9.40247V9.39592V9.38937V9.38282V9.37626V9.36971V9.36316V9.3566V9.35004V9.34348V9.33693V9.33037V9.32381V9.31724V9.31068V9.30412V9.29755V9.29099V9.28442V9.27785V9.27129V9.26472V9.25815V9.25157V9.245V9.23843V9.23185V9.22528V9.2187V9.21212V9.20554V9.19896V9.19238V9.1858V9.17922V9.17263V9.16605V9.15946V9.15287V9.14629V9.1397V9.1331V9.12651V9.11992V9.11333V9.10673V9.10013V9.09354V9.08694V9.08034V9.07374V9.06713V9.06053V9.05393V9.04732V9.04071V9.03411V9.0275V9.02089V9.01427V9.00766V9.00105V8.99443V8.98782V8.9812V8.97458V8.96796V8.96134V8.95472V8.94809V8.94147V8.93484V8.92821V8.92159V8.91496V8.90832V8.90169V8.89506V8.88842V8.88179V8.87515V8.86851V8.86187V8.85523V8.84858V8.84194V8.83529V8.82865V8.822V8.81535V8.8087V8.80205V8.79539V8.78874V8.78208V8.77542V8.76877V8.7621V8.75544V8.74878V8.74212V8.73545V8.72878V8.72211V8.71544V8.70877V8.7021V8.69542V8.68875V8.68207V8.67539V8.66871V8.66203V8.65535V8.64884L6.0566 8.5591L7.4148 8.48007L7.46831 7.12062L7.5495 5.0575H11.9291H13.3503L13.4269 3.63837L13.5424 1.5H287.569L287.738 3.67345L287.845 5.0575H289.233H293.594C293.624 5.75357 293.654 6.43093 293.69 7.18575L293.757 8.615H295.188H296.604V10.6251C296.604 11.4584 296.605 12.1878 296.663 12.7709C296.719 13.3444 296.847 14.0209 297.28 14.6012C297.742 15.2212 298.375 15.5016 298.93 15.6612C299.107 15.712 299.298 15.7564 299.5 15.7967V60.1326C299.279 60.1856 299.069 60.2436 298.876 60.3097C298.302 60.506 297.693 60.8305 297.259 61.4739C296.86 62.0648 296.735 62.7451 296.677 63.3532C296.619 63.9726 296.615 64.7475 296.614 65.6516V65.6536V65.6594V65.6652V65.6709V65.6767V65.6824V65.6882V65.694V65.6998V65.7055V65.7113V65.7171V65.7228V65.7286V65.7344V65.7401V65.7459V65.7517V65.7574V65.7632V65.769V65.7747V65.7805V65.7863V65.792V65.7978V65.8036V65.8093V65.8151V65.8209V65.8267V65.8324V65.8382V65.844V65.8497V65.8555V65.8613V65.8671V65.8728V65.8786V65.8844V65.8902V65.8959V65.9017V65.9075V65.9133V65.919V65.9248V65.9306V65.9364V65.9421V65.9479V65.9537V65.9595V65.9652V65.971V65.9768V65.9826V65.9884V65.9941V65.9999V66.0057V66.0115V66.0173V66.023V66.0288V66.0346V66.0404V66.0462V66.052V66.0577V66.0635V66.0693V66.0751V66.0809V66.0867V66.0925V66.0983V66.1041V66.1098V66.1156V66.1214V66.1272V66.133V66.1388V66.1446V66.1504V66.1562V66.162V66.1678V66.1736V66.1794V66.1852V66.191V66.1968V66.2026V66.2084V66.2142V66.22V66.2258V66.2316V66.2374V66.2432V66.249V66.2548V66.2606V66.2664V66.2723V66.2781V66.2839V66.2897V66.2955V66.3013V66.3071V66.313V66.3188V66.3246V66.3304V66.3362V66.3421V66.3479V66.3537V66.3595V66.3653V66.3712V66.377V66.3828V66.3887V66.3945V66.4003V66.4061V66.412V66.4178V66.4236V66.4295V66.4353V66.4412V66.447V66.4528V66.4587V66.4645V66.4704V66.4762V66.482V66.4879V66.4937V66.4996V66.5054V66.5113V66.5171V66.523V66.5288V66.5347V66.5406V66.5464V66.5523V66.5581V66.564V66.5699V66.5757V66.5816V66.5875V66.5933V66.5992V66.6051V66.6109V66.6168V66.6227V66.6286V66.6344V66.6403V66.6462V66.6521V66.6579V66.6638V66.6697V66.6756V66.6815V66.6874V66.6933V66.6992V66.705V66.7109V66.7168V66.7227V66.7286V66.7345V66.7404V66.7463V66.7522V66.7581V66.764V66.77V66.7759V66.7818V66.7877V66.7936V66.7995V66.8054V66.8114V66.8173V66.8232V66.8291V66.835V66.841V66.8469V66.8528V66.8588V66.8647V66.8706V66.8766V66.8825V66.8884V66.8944V66.9003V66.9063V66.9122V66.9182V66.9241V66.9301V66.936V66.942V66.9479V66.9539V66.9598V66.9658V66.9718V66.9777V66.9837V66.9897V66.9956V67.0016V67.0076V67.0135V67.0195V67.0255V67.0315V67.0375V67.0434V67.0494V67.0554V67.0614V67.0674V67.0734V67.0794V67.0854V67.0914V67.0974V67.1034V67.1094V67.1154V67.1214V67.1274V67.1334V67.1394V67.1455V67.1515V67.1575V67.1635V67.1695V67.1756V67.1816V67.1876V67.1936V67.1997V67.2057V67.2118V67.2178V67.2238V67.2299V67.2359V67.242V67.248V67.2541V67.2601V67.2662V67.2723V67.2783V67.2844V67.2904V67.2965V67.3026V67.3086V67.3147V67.3208V67.3269V67.333V67.339V67.3451V67.3512V67.3573V67.3634V67.3695V67.3756V67.3817V67.3878V67.3939V67.4V67.4061V67.4101L295.08 67.5514L293.788 67.6705L293.72 68.9665C293.684 69.6539 293.649 70.3077 293.613 71.0077H289.253H287.853L287.757 72.4046C287.704 73.1659 287.657 73.8354 287.609 74.4996ZM4.55717 67.1699C4.55725 67.1698 4.55871 67.1708 4.56127 67.1727C4.55836 67.1709 4.55709 67.1699 4.55717 67.1699Z" fill="#809DE3" stroke="#2B57E4" stroke-width="3"/>
<path d="M78.25 45.25V34.75H74.75V33H85.25V34.75H81.75V45.25H78.25ZM99.25 38.25V43.5H97.5V45.25H90.5V47H87V36.5H90.5V38.25H92.25V40H90.5V43.5H95.75V38.25H92.25V36.5H97.5V38.25H99.25ZM102.75 45.25V43.5H101V41.75H102.75V40H109.75V38.25H102.75V36.5H111.5V38.25H113.25V45.25H102.75ZM104.5 43.5H109.75V41.75H104.5V43.5ZM115 45.25V36.5H118.5V40H123.75V36.5H127.25V45.25H123.75V41.75H118.5V45.25H115ZM130.75 45.25V43.5H129V38.25H130.75V36.5H139.5V38.25H141.25V40H137.75V38.25H132.5V43.5H137.75V41.75H141.25V43.5H139.5V45.25H130.75ZM143 45.25V36.5H155.25V45.25H151.75V38.25H146.5V45.25H143ZM158.75 45.25V43.5H157V38.25H158.75V36.5H167.5V38.25H169.25V43.5H167.5V45.25H158.75ZM160.5 43.5H165.75V38.25H160.5V43.5ZM183.25 38.25V43.5H181.5V45.25H174.5V47H171V36.5H174.5V38.25H176.25V40H174.5V43.5H179.75V38.25H176.25V36.5H181.5V38.25H183.25ZM190.25 45.25V38.25H186.75V36.5H197.25V38.25H193.75V45.25H190.25Z" fill="white"/>
<path d="M57.1687 53.2284H52.4944V48.7153H27.0778V53.2186H22.4134V34.8843H20.1406V32.5901H27.0778V23.4131H52.4745V32.5573H59.4117V34.8515H57.1621L57.1687 53.2284ZM54.8794 46.3227C54.8398 42.4881 54.8002 38.6927 54.7605 34.9007H24.7654V46.3227H54.8794ZM50.1621 32.5802V25.7172H29.3902V32.5802H50.1621Z" fill="white"/>
<path d="M33.9361 44.0418H29.3906V39.5386H33.9361V44.0418Z" fill="white"/>
<path d="M50.1623 44.0418H45.6201V39.5386H50.1623V44.0418Z" fill="white"/>
<path d="M64.9465 37.7693H65.7582V38.5746H64.9465V37.7693Z" fill="white"/>
<path d="M64.9465 38.5746H65.7582V39.3799H64.9465V38.5746Z" fill="white"/>
<path d="M64.9465 39.3799H65.7582V40.1852H64.9465V39.3799Z" fill="white"/>
<path d="M64.1348 40.1852H64.9465V40.9905H64.1348V40.1852Z" fill="white"/>
<path d="M64.1348 40.9905H64.9465V41.7958H64.1348V40.9905Z" fill="white"/>
<path d="M64.1348 41.7958H64.9465V42.6011H64.1348V41.7958Z" fill="white"/>
<path d="M64.1348 42.6011H64.9465V43.4064H64.1348V42.6011Z" fill="white"/>
<path d="M64.1348 43.4064H64.9465V44.2117H64.1348V43.4064Z" fill="white"/>
<path d="M64.1348 44.2117H64.9465V45.017H64.1348V44.2117Z" fill="white"/>
<path d="M63.3232 45.017H64.1348V45.8223H63.3232V45.017Z" fill="white"/>
<path d="M63.3232 45.8223H64.1348V46.6276H63.3232V45.8223Z" fill="white"/>
<path d="M63.3232 46.6276H64.1348V47.4328H63.3232V46.6276Z" fill="white"/>
<path d="M62.5115 47.4328H63.3232V48.2381H62.5115V47.4328Z" fill="white"/>
<path d="M62.5115 48.2381H63.3232V49.0434H62.5115V48.2381Z" fill="white"/>
<path d="M61.6998 49.0434H62.5115V49.8487H61.6998V49.0434Z" fill="white"/>
<path d="M61.6998 49.8487H62.5115V50.654H61.6998V49.8487Z" fill="white"/>
<path d="M60.8882 50.654H61.6998V51.4593H60.8882V50.654Z" fill="white"/>
<path d="M60.0765 51.4593H60.8882V52.2646H60.0765V51.4593Z" fill="white"/>
<path d="M60.0765 52.2646H60.8882V53.0699H60.0765V52.2646Z" fill="white"/>
<path d="M59.2649 53.0699H60.0765V53.8752H59.2649V53.0699Z" fill="white"/>
<path d="M58.4532 53.8752H59.2649V54.6805H58.4532V53.8752Z" fill="white"/>
<path d="M57.6415 54.6805H58.4532V55.4858H57.6415V54.6805Z" fill="white"/>
<path d="M56.8299 55.4858H57.6415V56.2911H56.8299V55.4858Z" fill="white"/>
<path d="M56.0182 56.2911H56.8299V57.0963H56.0182V56.2911Z" fill="white"/>
<path d="M55.2065 57.0963H56.0182V57.9016H55.2065V57.0963Z" fill="white"/>
<path d="M54.3949 57.9016H55.2065V58.7069H54.3949V57.9016Z" fill="white"/>
<path d="M53.5832 58.7069H54.3949V59.5122H53.5832V58.7069Z" fill="white"/>
<path d="M51.9599 59.5122H52.7715V60.3175H51.9599V59.5122Z" fill="white"/>
<path d="M50.3365 60.3175H51.1482V61.1228H50.3365V60.3175Z" fill="white"/>
<path d="M48.7132 61.1228H49.5249V61.9281H48.7132V61.1228Z" fill="white"/>
<path d="M46.2782 61.9281H47.0899V62.7334H46.2782V61.9281Z" fill="white"/>
<path d="M43.0316 62.7334H43.8432V63.5387H43.0316V62.7334Z" fill="white"/>
<path d="M38.9733 62.7334H39.7849V63.5387H38.9733V62.7334Z" fill="white"/>
<path d="M39.7849 62.7334H40.5966V63.5387H39.7849V62.7334Z" fill="white"/>
<path d="M40.5966 62.7334H41.4082V63.5387H40.5966V62.7334Z" fill="white"/>
<path d="M41.4082 62.7334H42.2199V63.5387H41.4082V62.7334Z" fill="white"/>
<path d="M42.2199 62.7334H43.0316V63.5387H42.2199V62.7334Z" fill="white"/>
<path d="M43.8432 62.7334H44.6549V63.5387H43.8432V62.7334Z" fill="white"/>
<path d="M44.6549 62.7334H45.4666V63.5387H44.6549V62.7334Z" fill="white"/>
<path d="M45.4666 61.9281H46.2782V62.7334H45.4666V61.9281Z" fill="white"/>
<path d="M47.0899 61.9281H47.9016V62.7334H47.0899V61.9281Z" fill="white"/>
<path d="M47.9016 61.1228H48.7132V61.9281H47.9016V61.1228Z" fill="white"/>
<path d="M49.5249 61.1228H50.3365V61.9281H49.5249V61.1228Z" fill="white"/>
<path d="M51.1482 60.3175H51.9599V61.1228H51.1482V60.3175Z" fill="white"/>
<path d="M52.7715 58.7069H53.5832V59.5122H52.7715V58.7069Z" fill="white"/>
<path d="M13 37.7693H13.8117V38.5746H13V37.7693Z" fill="white"/>
<path d="M13 38.5746H13.8117V39.3799H13V38.5746Z" fill="white"/>
<path d="M13 39.3799H13.8117V40.1852H13V39.3799Z" fill="white"/>
<path d="M13 40.1852H13.8117V40.9905H13V40.1852Z" fill="white"/>
<path d="M13 40.9905H13.8117V41.7958H13V40.9905Z" fill="white"/>
<path d="M13.8117 41.7958H14.6233V42.6011H13.8117V41.7958Z" fill="white"/>
<path d="M13.8117 42.6011H14.6233V43.4064H13.8117V42.6011Z" fill="white"/>
<path d="M13.8117 43.4064H14.6233V44.2117H13.8117V43.4064Z" fill="white"/>
<path d="M13.8117 44.2117H14.6233V45.017H13.8117V44.2117Z" fill="white"/>
<path d="M14.6233 45.017H15.435V45.8223H14.6233V45.017Z" fill="white"/>
<path d="M14.6233 45.8223H15.435V46.6276H14.6233V45.8223Z" fill="white"/>
<path d="M14.6233 46.6276H15.435V47.4328H14.6233V46.6276Z" fill="white"/>
<path d="M15.435 47.4328H16.2467V48.2381H15.435V47.4328Z" fill="white"/>
<path d="M15.435 48.2381H16.2467V49.0434H15.435V48.2381Z" fill="white"/>
<path d="M16.2467 49.0434H17.0583V49.8487H16.2467V49.0434Z" fill="white"/>
<path d="M16.2467 49.8487H17.0583V50.654H16.2467V49.8487Z" fill="white"/>
<path d="M17.0583 50.654H17.87V51.4593H17.0583V50.654Z" fill="white"/>
<path d="M17.0583 51.4593H17.87V52.2646H17.0583V51.4593Z" fill="white"/>
<path d="M17.87 52.2646H18.6816V53.0699H17.87V52.2646Z" fill="white"/>
<path d="M18.6816 53.0699H19.4933V53.8752H18.6816V53.0699Z" fill="white"/>
<path d="M19.4933 53.8752H20.305V54.6805H19.4933V53.8752Z" fill="white"/>
<path d="M19.4933 54.6805H20.305V55.4858H19.4933V54.6805Z" fill="white"/>
<path d="M20.305 55.4858H21.1166V56.2911H20.305V55.4858Z" fill="white"/>
<path d="M21.1166 56.2911H21.9283V57.0963H21.1166V56.2911Z" fill="white"/>
<path d="M22.74 57.0963H23.5516V57.9016H22.74V57.0963Z" fill="white"/>
<path d="M23.5516 57.9016H24.3633V58.7069H23.5516V57.9016Z" fill="white"/>
<path d="M24.3633 58.7069H25.175V59.5122H24.3633V58.7069Z" fill="white"/>
<path d="M25.9866 59.5122H26.7983V60.3175H25.9866V59.5122Z" fill="white"/>
<path d="M27.61 60.3175H28.4216V61.1228H27.61V60.3175Z" fill="white"/>
<path d="M29.2333 61.1228H30.0449V61.9281H29.2333V61.1228Z" fill="white"/>
<path d="M31.6683 61.9281H32.4799V62.7334H31.6683V61.9281Z" fill="white"/>
<path d="M34.9149 62.7334H35.7266V63.5387H34.9149V62.7334Z" fill="white"/>
<path d="M21.9283 56.2911H22.74V57.0963H21.9283V56.2911Z" fill="white"/>
<path d="M25.175 58.7069H25.9866V59.5122H25.175V58.7069Z" fill="white"/>
<path d="M26.7983 60.3175H27.61V61.1228H26.7983V60.3175Z" fill="white"/>
<path d="M28.4216 61.1228H29.2333V61.9281H28.4216V61.1228Z" fill="white"/>
<path d="M30.0449 61.1228H30.8566V61.9281H30.0449V61.1228Z" fill="white"/>
<path d="M30.8566 61.9281H31.6683V62.7334H30.8566V61.9281Z" fill="white"/>
<path d="M32.4799 61.9281H33.2916V62.7334H32.4799V61.9281Z" fill="white"/>
<path d="M33.2916 62.7334H34.1033V63.5387H33.2916V62.7334Z" fill="white"/>
<path d="M34.1033 62.7334H34.9149V63.5387H34.1033V62.7334Z" fill="white"/>
<path d="M35.7266 62.7334H36.5383V63.5387H35.7266V62.7334Z" fill="white"/>
<path d="M36.5383 62.7334H37.3499V63.5387H36.5383V62.7334Z" fill="white"/>
<path d="M37.3499 62.7334H38.1616V63.5387H37.3499V62.7334Z" fill="white"/>
<path d="M38.1616 62.7334H38.9733V63.5387H38.1616V62.7334Z" fill="white"/>
<path d="M36.5383 12H37.3499V12.8053H36.5383V12Z" fill="white"/>
<path d="M31.6683 12.8053H32.4799V13.6106H31.6683V12.8053Z" fill="white"/>
<path d="M29.2333 13.6106H30.0449V14.4159H29.2333V13.6106Z" fill="white"/>
<path d="M27.61 14.4159H28.4216V15.2212H27.61V14.4159Z" fill="white"/>
<path d="M25.9866 15.2212H26.7983V16.0265H25.9866V15.2212Z" fill="white"/>
<path d="M25.175 16.0265H25.9866V16.8318H25.175V16.0265Z" fill="white"/>
<path d="M23.5516 16.8318H24.3633V17.637H23.5516V16.8318Z" fill="white"/>
<path d="M22.74 17.637H23.5516V18.4423H22.74V17.637Z" fill="white"/>
<path d="M21.9283 18.4423H22.74V19.2476H21.9283V18.4423Z" fill="white"/>
<path d="M21.1166 19.2476H21.9283V20.0529H21.1166V19.2476Z" fill="white"/>
<path d="M20.305 20.0529H21.1166V20.8582H20.305V20.0529Z" fill="white"/>
<path d="M19.4933 20.8582H20.305V21.6635H19.4933V20.8582Z" fill="white"/>
<path d="M18.6816 21.6635H19.4933V22.4688H18.6816V21.6635Z" fill="white"/>
<path d="M17.87 22.4688H18.6816V23.2741H17.87V22.4688Z" fill="white"/>
<path d="M17.0583 23.2741H17.87V24.0794H17.0583V23.2741Z" fill="white"/>
<path d="M17.0583 24.0794H17.87V24.8847H17.0583V24.0794Z" fill="white"/>
<path d="M16.2467 24.8847H17.0583V25.69H16.2467V24.8847Z" fill="white"/>
<path d="M16.2467 25.69H17.0583V26.4953H16.2467V25.69Z" fill="white"/>
<path d="M15.435 26.4953H16.2467V27.3005H15.435V26.4953Z" fill="white"/>
<path d="M15.435 27.3005H16.2467V28.1058H15.435V27.3005Z" fill="white"/>
<path d="M14.6233 28.1058H15.435V28.9111H14.6233V28.1058Z" fill="white"/>
<path d="M14.6233 28.9111H15.435V29.7164H14.6233V28.9111Z" fill="white"/>
<path d="M14.6233 29.7164H15.435V30.5217H14.6233V29.7164Z" fill="white"/>
<path d="M13.8117 30.5217H14.6233V31.327H13.8117V30.5217Z" fill="white"/>
<path d="M13.8117 31.327H14.6233V32.1323H13.8117V31.327Z" fill="white"/>
<path d="M13.8117 32.1323H14.6233V32.9376H13.8117V32.1323Z" fill="white"/>
<path d="M13.8117 32.9376H14.6233V33.7429H13.8117V32.9376Z" fill="white"/>
<path d="M13 33.7429H13.8117V34.5482H13V33.7429Z" fill="white"/>
<path d="M13 34.5482H13.8117V35.3535H13V34.5482Z" fill="white"/>
<path d="M13 35.3535H13.8117V36.1588H13V35.3535Z" fill="white"/>
<path d="M13 36.1588H13.8117V36.9641H13V36.1588Z" fill="white"/>
<path d="M13 36.9641H13.8117V37.7693H13V36.9641Z" fill="white"/>
<path d="M24.3633 16.0265H25.175V16.8318H24.3633V16.0265Z" fill="white"/>
<path d="M26.7983 15.2212H27.61V16.0265H26.7983V15.2212Z" fill="white"/>
<path d="M28.4216 14.4159H29.2333V15.2212H28.4216V14.4159Z" fill="white"/>
<path d="M30.0449 13.6106H30.8566V14.4159H30.0449V13.6106Z" fill="white"/>
<path d="M30.8566 12.8053H31.6683V13.6106H30.8566V12.8053Z" fill="white"/>
<path d="M32.4799 12.8053H33.2916V13.6106H32.4799V12.8053Z" fill="white"/>
<path d="M33.2916 12.8053H34.1033V13.6106H33.2916V12.8053Z" fill="white"/>
<path d="M34.1033 12H34.9149V12.8053H34.1033V12Z" fill="white"/>
<path d="M34.9149 12H35.7266V12.8053H34.9149V12Z" fill="white"/>
<path d="M35.7266 12H36.5383V12.8053H35.7266V12Z" fill="white"/>
<path d="M37.3499 12H38.1616V12.8053H37.3499V12Z" fill="white"/>
<path d="M38.1616 12H38.9733V12.8053H38.1616V12Z" fill="white"/>
<path d="M38.9733 12H39.7849V12.8053H38.9733V12Z" fill="white"/>
<path d="M41.4082 12H42.2199V12.8053H41.4082V12Z" fill="white"/>
<path d="M45.4666 12.8053H46.2782V13.6106H45.4666V12.8053Z" fill="white"/>
<path d="M47.9016 13.6106H48.7132V14.4159H47.9016V13.6106Z" fill="white"/>
<path d="M50.3365 14.4159H51.1482V15.2212H50.3365V14.4159Z" fill="white"/>
<path d="M51.9599 15.2212H52.7715V16.0265H51.9599V15.2212Z" fill="white"/>
<path d="M52.7715 16.0265H53.5832V16.8318H52.7715V16.0265Z" fill="white"/>
<path d="M54.3949 16.8318H55.2065V17.637H54.3949V16.8318Z" fill="white"/>
<path d="M55.2065 17.637H56.0182V18.4423H55.2065V17.637Z" fill="white"/>
<path d="M56.0182 18.4423H56.8299V19.2476H56.0182V18.4423Z" fill="white"/>
<path d="M56.8299 19.2476H57.6415V20.0529H56.8299V19.2476Z" fill="white"/>
<path d="M57.6415 20.0529H58.4532V20.8582H57.6415V20.0529Z" fill="white"/>
<path d="M58.4532 20.8582H59.2649V21.6635H58.4532V20.8582Z" fill="white"/>
<path d="M59.2649 21.6635H60.0765V22.4688H59.2649V21.6635Z" fill="white"/>
<path d="M60.0765 22.4688H60.8882V23.2741H60.0765V22.4688Z" fill="white"/>
<path d="M60.0765 23.2741H60.8882V24.0794H60.0765V23.2741Z" fill="white"/>
<path d="M60.8882 24.0794H61.6998V24.8847H60.8882V24.0794Z" fill="white"/>
<path d="M61.6998 24.8847H62.5115V25.69H61.6998V24.8847Z" fill="white"/>
<path d="M61.6998 25.69H62.5115V26.4953H61.6998V25.69Z" fill="white"/>
<path d="M62.5115 26.4953H63.3232V27.3005H62.5115V26.4953Z" fill="white"/>
<path d="M62.5115 27.3005H63.3232V28.1058H62.5115V27.3005Z" fill="white"/>
<path d="M62.5115 28.1058H63.3232V28.9111H62.5115V28.1058Z" fill="white"/>
<path d="M63.3232 28.9111H64.1348V29.7164H63.3232V28.9111Z" fill="white"/>
<path d="M63.3232 29.7164H64.1348V30.5217H63.3232V29.7164Z" fill="white"/>
<path d="M63.3232 30.5217H64.1348V31.327H63.3232V30.5217Z" fill="white"/>
<path d="M64.1348 31.327H64.9465V32.1323H64.1348V31.327Z" fill="white"/>
<path d="M64.1348 32.1323H64.9465V32.9376H64.1348V32.1323Z" fill="white"/>
<path d="M64.1348 32.9376H64.9465V33.7429H64.1348V32.9376Z" fill="white"/>
<path d="M64.1348 33.7429H64.9465V34.5482H64.1348V33.7429Z" fill="white"/>
<path d="M64.1348 34.5482H64.9465V35.3535H64.1348V34.5482Z" fill="white"/>
<path d="M64.9465 35.3535H65.7582V36.1588H64.9465V35.3535Z" fill="white"/>
<path d="M64.9465 36.1588H65.7582V36.9641H64.9465V36.1588Z" fill="white"/>
<path d="M64.9465 36.9641H65.7582V37.7693H64.9465V36.9641Z" fill="white"/>
<path d="M39.7849 12H40.5966V12.8053H39.7849V12Z" fill="white"/>
<path d="M40.5966 12H41.4082V12.8053H40.5966V12Z" fill="white"/>
<path d="M42.2199 12H43.0316V12.8053H42.2199V12Z" fill="white"/>
<path d="M43.0316 12H43.8432V12.8053H43.0316V12Z" fill="white"/>
<path d="M43.8432 12H44.6549V12.8053H43.8432V12Z" fill="white"/>
<path d="M44.6549 12.8053H45.4666V13.6106H44.6549V12.8053Z" fill="white"/>
<path d="M46.2782 12.8053H47.0899V13.6106H46.2782V12.8053Z" fill="white"/>
<path d="M47.0899 12.8053H47.9016V13.6106H47.0899V12.8053Z" fill="white"/>
<path d="M48.7132 13.6106H49.5249V14.4159H48.7132V13.6106Z" fill="white"/>
<path d="M49.5249 14.4159H50.3365V15.2212H49.5249V14.4159Z" fill="white"/>
<path d="M51.1482 15.2212H51.9599V16.0265H51.1482V15.2212Z" fill="white"/>
<path d="M53.5832 16.0265H54.3949V16.8318H53.5832V16.0265Z" fill="white"/>
<rect x="64.9463" y="37.7695" width="0.811664" height="0.805292" fill="white"/>
<rect x="64.9463" y="38.5747" width="0.811664" height="0.805292" fill="white"/>
<rect x="64.9463" y="39.3804" width="0.811664" height="0.805292" fill="white"/>
<rect x="64.1348" y="40.1855" width="0.811664" height="0.805292" fill="white"/>
<rect x="64.1348" y="40.9907" width="0.811664" height="0.805292" fill="white"/>
<rect x="64.1348" y="41.7954" width="0.811664" height="0.805292" fill="white"/>
<rect x="64.1348" y="42.6006" width="0.811664" height="0.805292" fill="white"/>
<rect x="64.1348" y="43.4072" width="0.811664" height="0.805292" fill="white"/>
<rect x="64.1348" y="44.2114" width="0.811664" height="0.805292" fill="white"/>
<rect x="63.3232" y="45.0171" width="0.811664" height="0.805292" fill="white"/>
<rect x="63.3232" y="45.8223" width="0.811664" height="0.805292" fill="white"/>
<rect x="63.3232" y="46.6274" width="0.811664" height="0.805292" fill="white"/>
<rect x="62.5117" y="47.4331" width="0.811664" height="0.805292" fill="white"/>
<rect x="62.5117" y="48.2383" width="0.811664" height="0.805292" fill="white"/>
<rect x="61.7002" y="49.0439" width="0.811664" height="0.805292" fill="white"/>
<rect x="61.7002" y="49.8491" width="0.811664" height="0.805292" fill="white"/>
<rect x="60.8877" y="50.6538" width="0.811664" height="0.805292" fill="white"/>
<rect x="60.0762" y="51.459" width="0.811664" height="0.805292" fill="white"/>
<rect x="60.0762" y="52.2651" width="0.811664" height="0.805292" fill="white"/>
<rect x="59.2646" y="53.0698" width="0.811664" height="0.805292" fill="white"/>
<rect x="58.4531" y="53.875" width="0.811664" height="0.805292" fill="white"/>
<rect x="57.6416" y="54.6807" width="0.811664" height="0.805292" fill="white"/>
<rect x="56.8301" y="55.4858" width="0.811664" height="0.805292" fill="white"/>
<rect x="56.0176" y="56.2915" width="0.811664" height="0.805292" fill="white"/>
<rect x="55.2061" y="57.0957" width="0.811664" height="0.805292" fill="white"/>
<rect x="54.3945" y="57.9023" width="0.811664" height="0.805292" fill="white"/>
<rect x="53.583" y="58.7075" width="0.811664" height="0.805292" fill="white"/>
<rect x="51.96" y="59.5117" width="0.811664" height="0.805292" fill="white"/>
<rect x="50.3359" y="60.3174" width="0.811664" height="0.805292" fill="white"/>
<rect x="48.7129" y="61.1226" width="0.811664" height="0.805292" fill="white"/>
<rect x="46.2783" y="61.9282" width="0.811664" height="0.805292" fill="white"/>
<rect x="43.0312" y="62.7334" width="0.811664" height="0.805292" fill="white"/>
<rect x="38.9727" y="62.7334" width="0.811664" height="0.805292" fill="white"/>
<rect x="39.7852" y="62.7334" width="0.811664" height="0.805292" fill="white"/>
<rect x="40.5967" y="62.7334" width="0.811664" height="0.805292" fill="white"/>
<rect x="41.4082" y="62.7334" width="0.811664" height="0.805292" fill="white"/>
<rect x="42.2197" y="62.7334" width="0.811664" height="0.805292" fill="white"/>
<rect x="43.8428" y="62.7334" width="0.811664" height="0.805292" fill="white"/>
<rect x="44.6543" y="62.7334" width="0.811664" height="0.805292" fill="white"/>
<rect x="45.4668" y="61.9282" width="0.811664" height="0.805292" fill="white"/>
<rect x="47.0898" y="61.9282" width="0.811664" height="0.805292" fill="white"/>
<rect x="47.9014" y="61.1226" width="0.811664" height="0.805292" fill="white"/>
<rect x="49.5244" y="61.1226" width="0.811664" height="0.805292" fill="white"/>
<rect x="51.1484" y="60.3174" width="0.811664" height="0.805292" fill="white"/>
<rect x="52.7715" y="58.7075" width="0.811664" height="0.805292" fill="white"/>
<rect x="13" y="37.7695" width="0.811664" height="0.805292" fill="white"/>
<rect x="13" y="38.5747" width="0.811664" height="0.805292" fill="white"/>
<rect x="13" y="39.3804" width="0.811664" height="0.805292" fill="white"/>
<rect x="13" y="40.1855" width="0.811664" height="0.805292" fill="white"/>
<rect x="13" y="40.9907" width="0.811664" height="0.805292" fill="white"/>
<rect x="13.8115" y="41.7954" width="0.811664" height="0.805292" fill="white"/>
<rect x="13.8115" y="42.6006" width="0.811664" height="0.805292" fill="white"/>
<rect x="13.8115" y="43.4072" width="0.811664" height="0.805292" fill="white"/>
<rect x="13.8115" y="44.2114" width="0.811664" height="0.805292" fill="white"/>
<rect x="14.623" y="45.0171" width="0.811664" height="0.805292" fill="white"/>
<rect x="14.623" y="45.8223" width="0.811664" height="0.805292" fill="white"/>
<rect x="14.623" y="46.6274" width="0.811664" height="0.805292" fill="white"/>
<rect x="15.4346" y="47.4331" width="0.811664" height="0.805292" fill="white"/>
<rect x="15.4346" y="48.2383" width="0.811664" height="0.805292" fill="white"/>
<rect x="16.2461" y="49.0439" width="0.811664" height="0.805292" fill="white"/>
<rect x="16.2461" y="49.8491" width="0.811664" height="0.805292" fill="white"/>
<rect x="17.0576" y="50.6538" width="0.811664" height="0.805292" fill="white"/>
<rect x="17.0576" y="51.459" width="0.811664" height="0.805292" fill="white"/>
<rect x="17.8701" y="52.2651" width="0.811664" height="0.805292" fill="white"/>
<rect x="18.6816" y="53.0698" width="0.811664" height="0.805292" fill="white"/>
<rect x="19.4932" y="53.875" width="0.811664" height="0.805292" fill="white"/>
<rect x="19.4932" y="54.6807" width="0.811664" height="0.805292" fill="white"/>
<rect x="20.3047" y="55.4858" width="0.811664" height="0.805292" fill="white"/>
<rect x="21.1162" y="56.2915" width="0.811664" height="0.805292" fill="white"/>
<rect x="22.7402" y="57.0957" width="0.811664" height="0.805292" fill="white"/>
<rect x="23.5518" y="57.9023" width="0.811664" height="0.805292" fill="white"/>
<rect x="24.3633" y="58.7075" width="0.811664" height="0.805292" fill="white"/>
<rect x="25.9863" y="59.5117" width="0.811664" height="0.805292" fill="white"/>
<rect x="27.6094" y="60.3174" width="0.811664" height="0.805292" fill="white"/>
<rect x="29.2334" y="61.1226" width="0.811664" height="0.805292" fill="white"/>
<rect x="31.668" y="61.9282" width="0.811664" height="0.805292" fill="white"/>
<rect x="34.915" y="62.7334" width="0.811664" height="0.805292" fill="white"/>
<rect x="21.9277" y="56.2915" width="0.811664" height="0.805292" fill="white"/>
<rect x="25.1748" y="58.7075" width="0.811664" height="0.805292" fill="white"/>
<rect x="26.7979" y="60.3174" width="0.811664" height="0.805292" fill="white"/>
<rect x="28.4209" y="61.1226" width="0.811664" height="0.805292" fill="white"/>
<rect x="30.0449" y="61.1226" width="0.811664" height="0.805292" fill="white"/>
<rect x="30.8564" y="61.9282" width="0.811664" height="0.805292" fill="white"/>
<rect x="32.4795" y="61.9282" width="0.811664" height="0.805292" fill="white"/>
<rect x="33.291" y="62.7334" width="0.811664" height="0.805292" fill="white"/>
<rect x="34.1025" y="62.7334" width="0.811664" height="0.805292" fill="white"/>
<rect x="35.7266" y="62.7334" width="0.811664" height="0.805292" fill="white"/>
<rect x="36.5381" y="62.7334" width="0.811664" height="0.805292" fill="white"/>
<rect x="37.3496" y="62.7334" width="0.811664" height="0.805292" fill="white"/>
<rect x="38.1611" y="62.7334" width="0.811664" height="0.805292" fill="white"/>
<rect x="36.5381" y="12" width="0.811664" height="0.805292" fill="white"/>
<rect x="31.668" y="12.8052" width="0.811664" height="0.805292" fill="white"/>
<rect x="29.2334" y="13.6108" width="0.811664" height="0.805292" fill="white"/>
<rect x="27.6094" y="14.416" width="0.811664" height="0.805292" fill="white"/>
<rect x="25.9863" y="15.2217" width="0.811664" height="0.805292" fill="white"/>
<rect x="25.1748" y="16.0259" width="0.811664" height="0.805292" fill="white"/>
<rect x="23.5518" y="16.832" width="0.811664" height="0.805292" fill="white"/>
<rect x="22.7402" y="17.6377" width="0.811664" height="0.805292" fill="white"/>
<rect x="21.9277" y="18.4419" width="0.811664" height="0.805292" fill="white"/>
<rect x="21.1162" y="19.2476" width="0.811664" height="0.805292" fill="white"/>
<rect x="20.3047" y="20.0527" width="0.811664" height="0.805292" fill="white"/>
<rect x="19.4932" y="20.8584" width="0.811664" height="0.805292" fill="white"/>
<rect x="18.6816" y="21.6636" width="0.811664" height="0.805292" fill="white"/>
<rect x="17.8701" y="22.4688" width="0.811664" height="0.805292" fill="white"/>
<rect x="17.0576" y="23.2744" width="0.811664" height="0.805292" fill="white"/>
<rect x="17.0576" y="24.0796" width="0.811664" height="0.805292" fill="white"/>
<rect x="16.2461" y="24.8843" width="0.811664" height="0.805292" fill="white"/>
<rect x="16.2461" y="25.6904" width="0.811664" height="0.805292" fill="white"/>
<rect x="15.4346" y="26.4951" width="0.811664" height="0.805292" fill="white"/>
<rect x="15.4346" y="27.3003" width="0.811664" height="0.805292" fill="white"/>
<rect x="14.623" y="28.106" width="0.811664" height="0.805292" fill="white"/>
<rect x="14.623" y="28.9111" width="0.811664" height="0.805292" fill="white"/>
<rect x="14.623" y="29.7163" width="0.811664" height="0.805292" fill="white"/>
<rect x="13.8115" y="30.522" width="0.811664" height="0.805292" fill="white"/>
<rect x="13.8115" y="31.3271" width="0.811664" height="0.805292" fill="white"/>
<rect x="13.8115" y="32.1328" width="0.811664" height="0.805292" fill="white"/>
<rect x="13.8115" y="32.938" width="0.811664" height="0.805292" fill="white"/>
<rect x="13" y="33.7427" width="0.811664" height="0.805292" fill="white"/>
<rect x="13" y="34.5488" width="0.811664" height="0.805292" fill="white"/>
<rect x="13" y="35.353" width="0.811664" height="0.805292" fill="white"/>
<rect x="13" y="36.1587" width="0.811664" height="0.805292" fill="white"/>
<rect x="13" y="36.9639" width="0.811664" height="0.805292" fill="white"/>
<rect x="24.3633" y="16.0259" width="0.811664" height="0.805292" fill="white"/>
<rect x="26.7979" y="15.2217" width="0.811664" height="0.805292" fill="white"/>
<rect x="28.4209" y="14.416" width="0.811664" height="0.805292" fill="white"/>
<rect x="30.0449" y="13.6108" width="0.811664" height="0.805292" fill="white"/>
<rect x="30.8564" y="12.8052" width="0.811664" height="0.805292" fill="white"/>
<rect x="32.4795" y="12.8052" width="0.811664" height="0.805292" fill="white"/>
<rect x="33.291" y="12.8052" width="0.811664" height="0.805292" fill="white"/>
<rect x="34.1025" y="12" width="0.811664" height="0.805292" fill="white"/>
<rect x="34.915" y="12" width="0.811664" height="0.805292" fill="white"/>
<rect x="35.7266" y="12" width="0.811664" height="0.805292" fill="white"/>
<rect x="37.3496" y="12" width="0.811664" height="0.805292" fill="white"/>
<rect x="38.1611" y="12" width="0.811664" height="0.805292" fill="white"/>
<rect x="38.9727" y="12" width="0.811664" height="0.805292" fill="white"/>
<rect x="41.4082" y="12" width="0.811664" height="0.805292" fill="white"/>
<rect x="45.4668" y="12.8052" width="0.811664" height="0.805292" fill="white"/>
<rect x="47.9014" y="13.6108" width="0.811664" height="0.805292" fill="white"/>
<rect x="50.3359" y="14.416" width="0.811664" height="0.805292" fill="white"/>
<rect x="51.96" y="15.2217" width="0.811664" height="0.805292" fill="white"/>
<rect x="52.7715" y="16.0259" width="0.811664" height="0.805292" fill="white"/>
<rect x="54.3945" y="16.832" width="0.811664" height="0.805292" fill="white"/>
<rect x="55.2061" y="17.6377" width="0.811664" height="0.805292" fill="white"/>
<rect x="56.0176" y="18.4419" width="0.811664" height="0.805292" fill="white"/>
<rect x="56.8301" y="19.2476" width="0.811664" height="0.805292" fill="white"/>
<rect x="57.6416" y="20.0527" width="0.811664" height="0.805292" fill="white"/>
<rect x="58.4531" y="20.8584" width="0.811664" height="0.805292" fill="white"/>
<rect x="59.2646" y="21.6636" width="0.811664" height="0.805292" fill="white"/>
<rect x="60.0762" y="22.4688" width="0.811664" height="0.805292" fill="white"/>
<rect x="60.0762" y="23.2744" width="0.811664" height="0.805292" fill="white"/>
<rect x="60.8877" y="24.0796" width="0.811664" height="0.805292" fill="white"/>
<rect x="61.7002" y="24.8843" width="0.811664" height="0.805292" fill="white"/>
<rect x="61.7002" y="25.6904" width="0.811664" height="0.805292" fill="white"/>
<rect x="62.5117" y="26.4951" width="0.811664" height="0.805292" fill="white"/>
<rect x="62.5117" y="27.3003" width="0.811664" height="0.805292" fill="white"/>
<rect x="62.5117" y="28.106" width="0.811664" height="0.805292" fill="white"/>
<rect x="63.3232" y="28.9111" width="0.811664" height="0.805292" fill="white"/>
<rect x="63.3232" y="29.7163" width="0.811664" height="0.805292" fill="white"/>
<rect x="63.3232" y="30.522" width="0.811664" height="0.805292" fill="white"/>
<rect x="64.1348" y="31.3271" width="0.811664" height="0.805292" fill="white"/>
<rect x="64.1348" y="32.1328" width="0.811664" height="0.805292" fill="white"/>
<rect x="64.1348" y="32.938" width="0.811664" height="0.805292" fill="white"/>
<rect x="64.1348" y="33.7427" width="0.811664" height="0.805292" fill="white"/>
<rect x="64.1348" y="34.5488" width="0.811664" height="0.805292" fill="white"/>
<rect x="64.9463" y="35.353" width="0.811664" height="0.805292" fill="white"/>
<rect x="64.9463" y="36.1587" width="0.811664" height="0.805292" fill="white"/>
<rect x="64.9463" y="36.9639" width="0.811664" height="0.805292" fill="white"/>
<rect x="39.7852" y="12" width="0.811664" height="0.805292" fill="white"/>
<rect x="40.5967" y="12" width="0.811664" height="0.805292" fill="white"/>
<rect x="42.2197" y="12" width="0.811664" height="0.805292" fill="white"/>
<rect x="43.0312" y="12" width="0.811664" height="0.805292" fill="white"/>
<rect x="43.8428" y="12" width="0.811664" height="0.805292" fill="white"/>
<rect x="44.6543" y="12.8052" width="0.811664" height="0.805292" fill="white"/>
<rect x="46.2783" y="12.8052" width="0.811664" height="0.805292" fill="white"/>
<rect x="47.0898" y="12.8052" width="0.811664" height="0.805292" fill="white"/>
<rect x="48.7129" y="13.6108" width="0.811664" height="0.805292" fill="white"/>
<rect x="49.5244" y="14.416" width="0.811664" height="0.805292" fill="white"/>
<rect x="51.1484" y="15.2217" width="0.811664" height="0.805292" fill="white"/>
<rect x="53.583" y="16.0259" width="0.811664" height="0.805292" fill="white"/>
<rect x="65.7578" y="37.7695" width="0.811664" height="0.805292" fill="white"/>
<rect x="65.7578" y="38.5747" width="0.811664" height="0.805292" fill="white"/>
<rect x="65.7578" y="39.3804" width="0.811664" height="0.805292" fill="white"/>
<rect x="65.7578" y="40.1855" width="0.811664" height="0.805292" fill="white"/>
<rect x="64.9463" y="40.1855" width="0.811664" height="0.805292" fill="white"/>
<rect x="64.9463" y="40.9907" width="0.811664" height="0.805292" fill="white"/>
<rect x="64.9463" y="41.7954" width="0.811664" height="0.805292" fill="white"/>
<rect x="64.9463" y="42.6006" width="0.811664" height="0.805292" fill="white"/>
<rect x="64.9463" y="43.4072" width="0.811664" height="0.805292" fill="white"/>
<rect x="64.9463" y="44.2114" width="0.811664" height="0.805292" fill="white"/>
<rect x="64.9463" y="45.0171" width="0.811664" height="0.805292" fill="white"/>
<rect x="64.1348" y="45.0171" width="0.811664" height="0.805292" fill="white"/>
<rect x="64.1348" y="45.8223" width="0.811664" height="0.805292" fill="white"/>
<rect x="64.1348" y="46.6274" width="0.811664" height="0.805292" fill="white"/>
<rect x="64.1348" y="47.4331" width="0.811664" height="0.805292" fill="white"/>
<rect x="63.3232" y="47.4331" width="0.811664" height="0.805292" fill="white"/>
<rect x="63.3232" y="48.2383" width="0.811664" height="0.805292" fill="white"/>
<rect x="63.3232" y="49.0439" width="0.811664" height="0.805292" fill="white"/>
<rect x="62.5117" y="49.0439" width="0.811664" height="0.805292" fill="white"/>
<rect x="62.5117" y="49.8491" width="0.811664" height="0.805292" fill="white"/>
<rect x="62.5117" y="50.6538" width="0.811664" height="0.805292" fill="white"/>
<rect x="61.7002" y="50.6538" width="0.811664" height="0.805292" fill="white"/>
<rect x="61.7002" y="51.459" width="0.811664" height="0.805292" fill="white"/>
<rect x="60.8877" y="51.459" width="0.811664" height="0.805292" fill="white"/>
<rect x="60.8877" y="52.2651" width="0.811664" height="0.805292" fill="white"/>
<rect x="60.8877" y="53.0698" width="0.811664" height="0.805292" fill="white"/>
<rect x="60.0762" y="53.0698" width="0.811664" height="0.805292" fill="white"/>
<rect x="60.0762" y="53.875" width="0.811664" height="0.805292" fill="white"/>
<rect x="59.2646" y="53.875" width="0.811664" height="0.805292" fill="white"/>
<rect x="59.2646" y="54.6807" width="0.811664" height="0.805292" fill="white"/>
<rect x="58.4531" y="54.6807" width="0.811664" height="0.805292" fill="white"/>
<rect x="58.4531" y="55.4858" width="0.811664" height="0.805292" fill="white"/>
<rect x="57.6416" y="55.4858" width="0.811664" height="0.805292" fill="white"/>
<rect x="57.6416" y="56.2915" width="0.811664" height="0.805292" fill="white"/>
<rect x="56.8301" y="56.2915" width="0.811664" height="0.805292" fill="white"/>
<rect x="56.8301" y="57.0957" width="0.811664" height="0.805292" fill="white"/>
<rect x="56.0176" y="57.0957" width="0.811664" height="0.805292" fill="white"/>
<rect x="56.0176" y="57.9023" width="0.811664" height="0.805292" fill="white"/>
<rect x="55.2061" y="57.9023" width="0.811664" height="0.805292" fill="white"/>
<rect x="55.2061" y="58.7075" width="0.811664" height="0.805292" fill="white"/>
<rect x="54.3945" y="58.7075" width="0.811664" height="0.805292" fill="white"/>
<rect x="54.3945" y="59.5117" width="0.811664" height="0.805292" fill="white"/>
<rect x="53.583" y="59.5117" width="0.811664" height="0.805292" fill="white"/>
<rect x="51.96" y="58.7075" width="0.811664" height="0.805292" fill="white"/>
<rect x="52.7715" y="59.5117" width="0.811664" height="0.805292" fill="white"/>
<rect x="52.7715" y="60.3174" width="0.811664" height="0.805292" fill="white"/>
<rect x="51.96" y="60.3174" width="0.811664" height="0.805292" fill="white"/>
<rect x="51.1484" y="61.1226" width="0.811664" height="0.805292" fill="white"/>
<rect x="50.3359" y="61.1226" width="0.811664" height="0.805292" fill="white"/>
<rect x="49.5244" y="61.9282" width="0.811664" height="0.805292" fill="white"/>
<rect x="48.7129" y="61.9282" width="0.811664" height="0.805292" fill="white"/>
<rect x="47.0898" y="62.7334" width="0.811664" height="0.805292" fill="white"/>
<rect x="46.2783" y="62.7334" width="0.811664" height="0.805292" fill="white"/>
<rect x="43.8428" y="63.5391" width="0.811664" height="0.805292" fill="white"/>
<rect x="43.0312" y="63.5391" width="0.811664" height="0.805292" fill="white"/>
<rect x="39.7852" y="63.5391" width="0.811664" height="0.805292" fill="white"/>
<rect x="38.9727" y="63.5391" width="0.811664" height="0.805292" fill="white"/>
<rect x="40.5967" y="63.5391" width="0.811664" height="0.805292" fill="white"/>
<rect x="41.4082" y="63.5391" width="0.811664" height="0.805292" fill="white"/>
<rect x="42.2197" y="63.5391" width="0.811664" height="0.805292" fill="white"/>
<rect x="44.6543" y="63.5391" width="0.811664" height="0.805292" fill="white"/>
<rect x="45.4668" y="62.7334" width="0.811664" height="0.805292" fill="white"/>
<rect x="45.4668" y="63.5391" width="0.811664" height="0.805292" fill="white"/>
<rect x="47.9014" y="61.9282" width="0.811664" height="0.805292" fill="white"/>
<rect x="47.9014" y="62.7334" width="0.811664" height="0.805292" fill="white"/>
<rect x="50.3359" y="61.9282" width="0.811664" height="0.805292" fill="white"/>
<rect x="51.96" y="61.1226" width="0.811664" height="0.805292" fill="white"/>
<rect x="13.8115" y="37.7695" width="0.811664" height="0.805292" fill="white"/>
<rect x="13.8115" y="38.5747" width="0.811664" height="0.805292" fill="white"/>
<rect x="13.8115" y="39.3804" width="0.811664" height="0.805292" fill="white"/>
<rect x="13.8115" y="40.1855" width="0.811664" height="0.805292" fill="white"/>
<rect x="13.8115" y="40.9907" width="0.811664" height="0.805292" fill="white"/>
<rect x="13" y="41.7954" width="0.811664" height="0.805292" fill="white"/>
<rect x="14.623" y="41.7954" width="0.811664" height="0.805292" fill="white"/>
<rect x="14.623" y="42.6006" width="0.811664" height="0.805292" fill="white"/>
<rect x="14.623" y="43.4072" width="0.811664" height="0.805292" fill="white"/>
<rect x="14.623" y="44.2114" width="0.811664" height="0.805292" fill="white"/>
<rect x="13.8115" y="45.0171" width="0.811664" height="0.805292" fill="white"/>
<rect x="15.4346" y="45.0171" width="0.811664" height="0.805292" fill="white"/>
<rect x="15.4346" y="45.8223" width="0.811664" height="0.805292" fill="white"/>
<rect x="15.4346" y="46.6274" width="0.811664" height="0.805292" fill="white"/>
<rect x="14.623" y="47.4331" width="0.811664" height="0.805292" fill="white"/>
<rect x="16.2461" y="47.4331" width="0.811664" height="0.805292" fill="white"/>
<rect x="16.2461" y="48.2383" width="0.811664" height="0.805292" fill="white"/>
<rect x="15.4346" y="49.0439" width="0.811664" height="0.805292" fill="white"/>
<rect x="17.0576" y="49.0439" width="0.811664" height="0.805292" fill="white"/>
<rect x="17.0576" y="49.8491" width="0.811664" height="0.805292" fill="white"/>
<rect x="16.2461" y="50.6538" width="0.811664" height="0.805292" fill="white"/>
<rect x="17.8701" y="50.6538" width="0.811664" height="0.805292" fill="white"/>
<rect x="17.8701" y="51.459" width="0.811664" height="0.805292" fill="white"/>
<rect x="17.0576" y="52.2651" width="0.811664" height="0.805292" fill="white"/>
<rect x="18.6816" y="52.2651" width="0.811664" height="0.805292" fill="white"/>
<rect x="17.8701" y="53.0698" width="0.811664" height="0.805292" fill="white"/>
<rect x="19.4932" y="53.0698" width="0.811664" height="0.805292" fill="white"/>
<rect x="18.6816" y="53.875" width="0.811664" height="0.805292" fill="white"/>
<rect x="20.3047" y="53.875" width="0.811664" height="0.805292" fill="white"/>
<rect x="20.3047" y="54.6807" width="0.811664" height="0.805292" fill="white"/>
<rect x="19.4932" y="55.4858" width="0.811664" height="0.805292" fill="white"/>
<rect x="21.1162" y="55.4858" width="0.811664" height="0.805292" fill="white"/>
<rect x="20.3047" y="56.2915" width="0.811664" height="0.805292" fill="white"/>
<rect x="21.9277" y="57.0957" width="0.811664" height="0.805292" fill="white"/>
<rect x="21.1162" y="57.0957" width="0.811664" height="0.805292" fill="white"/>
<rect x="23.5518" y="57.0957" width="0.811664" height="0.805292" fill="white"/>
<rect x="22.7402" y="57.9023" width="0.811664" height="0.805292" fill="white"/>
<rect x="24.3633" y="57.9023" width="0.811664" height="0.805292" fill="white"/>
<rect x="23.5518" y="58.7075" width="0.811664" height="0.805292" fill="white"/>
<rect x="25.1748" y="59.5117" width="0.811664" height="0.805292" fill="white"/>
<rect x="24.3633" y="59.5117" width="0.811664" height="0.805292" fill="white"/>
<rect x="25.9863" y="58.7075" width="0.811664" height="0.805292" fill="white"/>
<rect x="26.7979" y="59.5117" width="0.811664" height="0.805292" fill="white"/>
<rect x="25.9863" y="60.3174" width="0.811664" height="0.805292" fill="white"/>
<rect x="28.4209" y="60.3174" width="0.811664" height="0.805292" fill="white"/>
<rect x="27.6094" y="61.1226" width="0.811664" height="0.805292" fill="white"/>
<rect x="30.0449" y="61.9282" width="0.811664" height="0.805292" fill="white"/>
<rect x="29.2334" y="61.9282" width="0.811664" height="0.805292" fill="white"/>
<rect x="32.4795" y="62.7334" width="0.811664" height="0.805292" fill="white"/>
<rect x="31.668" y="62.7334" width="0.811664" height="0.805292" fill="white"/>
<rect x="35.7266" y="63.5391" width="0.811664" height="0.805292" fill="white"/>
<rect x="34.915" y="63.5391" width="0.811664" height="0.805292" fill="white"/>
<rect x="22.7402" y="56.2915" width="0.811664" height="0.805292" fill="white"/>
<rect x="26.7979" y="61.1226" width="0.811664" height="0.805292" fill="white"/>
<rect x="28.4209" y="61.9282" width="0.811664" height="0.805292" fill="white"/>
<rect x="30.8564" y="61.1226" width="0.811664" height="0.805292" fill="white"/>
<rect x="30.8564" y="62.7334" width="0.811664" height="0.805292" fill="white"/>
<rect x="33.291" y="61.9282" width="0.811664" height="0.805292" fill="white"/>
<rect x="34.1025" y="63.5391" width="0.811664" height="0.805292" fill="white"/>
<rect x="33.291" y="63.5391" width="0.811664" height="0.805292" fill="white"/>
<rect x="36.5381" y="63.5391" width="0.811664" height="0.805292" fill="white"/>
<rect x="37.3496" y="63.5391" width="0.811664" height="0.805292" fill="white"/>
<rect x="38.1611" y="63.5391" width="0.811664" height="0.805292" fill="white"/>
<rect x="37.3496" y="12.8052" width="0.811664" height="0.805292" fill="white"/>
<rect x="36.5381" y="12.8052" width="0.811664" height="0.805292" fill="white"/>
<rect x="32.4795" y="13.6108" width="0.811664" height="0.805292" fill="white"/>
<rect x="31.668" y="13.6108" width="0.811664" height="0.805292" fill="white"/>
<rect x="30.0449" y="14.416" width="0.811664" height="0.805292" fill="white"/>
<rect x="29.2334" y="14.416" width="0.811664" height="0.805292" fill="white"/>
<rect x="28.4209" y="15.2217" width="0.811664" height="0.805292" fill="white"/>
<rect x="27.6094" y="15.2217" width="0.811664" height="0.805292" fill="white"/>
<rect x="26.7979" y="16.0259" width="0.811664" height="0.805292" fill="white"/>
<rect x="25.9863" y="16.0259" width="0.811664" height="0.805292" fill="white"/>
<rect x="25.9863" y="16.832" width="0.811664" height="0.805292" fill="white"/>
<rect x="25.1748" y="16.832" width="0.811664" height="0.805292" fill="white"/>
<rect x="24.3633" y="16.832" width="0.811664" height="0.805292" fill="white"/>
<rect x="24.3633" y="17.6377" width="0.811664" height="0.805292" fill="white"/>
<rect x="23.5518" y="17.6377" width="0.811664" height="0.805292" fill="white"/>
<rect x="23.5518" y="18.4419" width="0.811664" height="0.805292" fill="white"/>
<rect x="22.7402" y="18.4419" width="0.811664" height="0.805292" fill="white"/>
<rect x="21.9277" y="17.6377" width="0.811664" height="0.805292" fill="white"/>
<rect x="22.7402" y="19.2476" width="0.811664" height="0.805292" fill="white"/>
<rect x="21.9277" y="19.2476" width="0.811664" height="0.805292" fill="white"/>
<rect x="21.9277" y="20.0527" width="0.811664" height="0.805292" fill="white"/>
<rect x="21.1162" y="20.0527" width="0.811664" height="0.805292" fill="white"/>
<rect x="21.1162" y="20.8584" width="0.811664" height="0.805292" fill="white"/>
<rect x="20.3047" y="20.8584" width="0.811664" height="0.805292" fill="white"/>
<rect x="20.3047" y="21.6636" width="0.811664" height="0.805292" fill="white"/>
<rect x="19.4932" y="21.6636" width="0.811664" height="0.805292" fill="white"/>
<rect x="19.4932" y="22.4688" width="0.811664" height="0.805292" fill="white"/>
<rect x="18.6816" y="22.4688" width="0.811664" height="0.805292" fill="white"/>
<rect x="18.6816" y="23.2744" width="0.811664" height="0.805292" fill="white"/>
<rect x="17.8701" y="23.2744" width="0.811664" height="0.805292" fill="white"/>
<rect x="17.8701" y="24.0796" width="0.811664" height="0.805292" fill="white"/>
<rect x="17.8701" y="24.8843" width="0.811664" height="0.805292" fill="white"/>
<rect x="17.0576" y="24.8843" width="0.811664" height="0.805292" fill="white"/>
<rect x="16.2461" y="24.0796" width="0.811664" height="0.805292" fill="white"/>
<rect x="17.0576" y="25.6904" width="0.811664" height="0.805292" fill="white"/>
<rect x="17.0576" y="26.4951" width="0.811664" height="0.805292" fill="white"/>
<rect x="16.2461" y="26.4951" width="0.811664" height="0.805292" fill="white"/>
<rect x="16.2461" y="27.3003" width="0.811664" height="0.805292" fill="white"/>
<rect x="16.2461" y="28.106" width="0.811664" height="0.805292" fill="white"/>
<rect x="15.4346" y="28.106" width="0.811664" height="0.805292" fill="white"/>
<rect x="15.4346" y="28.9111" width="0.811664" height="0.805292" fill="white"/>
<rect x="15.4346" y="29.7163" width="0.811664" height="0.805292" fill="white"/>
<rect x="15.4346" y="30.522" width="0.811664" height="0.805292" fill="white"/>
<rect x="14.623" y="30.522" width="0.811664" height="0.805292" fill="white"/>
<rect x="14.623" y="31.3271" width="0.811664" height="0.805292" fill="white"/>
<rect x="14.623" y="32.1328" width="0.811664" height="0.805292" fill="white"/>
<rect x="14.623" y="32.938" width="0.811664" height="0.805292" fill="white"/>
<rect x="14.623" y="33.7427" width="0.811664" height="0.805292" fill="white"/>
<rect x="13.8115" y="33.7427" width="0.811664" height="0.805292" fill="white"/>
<rect x="13.8115" y="34.5488" width="0.811664" height="0.805292" fill="white"/>
<rect x="13.8115" y="35.353" width="0.811664" height="0.805292" fill="white"/>
<rect x="13.8115" y="36.1587" width="0.811664" height="0.805292" fill="white"/>
<rect x="13.8115" y="36.9639" width="0.811664" height="0.805292" fill="white"/>
<rect x="27.6094" y="16.0259" width="0.811664" height="0.805292" fill="white"/>
<rect x="29.2334" y="15.2217" width="0.811664" height="0.805292" fill="white"/>
<rect x="30.8564" y="13.6108" width="0.811664" height="0.805292" fill="white"/>
<rect x="30.8564" y="14.416" width="0.811664" height="0.805292" fill="white"/>
<rect x="33.291" y="13.6108" width="0.811664" height="0.805292" fill="white"/>
<rect x="34.1025" y="12.8052" width="0.811664" height="0.805292" fill="white"/>
<rect x="34.1025" y="13.6108" width="0.811664" height="0.805292" fill="white"/>
<rect x="34.915" y="12.8052" width="0.811664" height="0.805292" fill="white"/>
<rect x="35.7266" y="12.8052" width="0.811664" height="0.805292" fill="white"/>
<rect x="38.1611" y="12.8052" width="0.811664" height="0.805292" fill="white"/>
<rect x="38.9727" y="12.8052" width="0.811664" height="0.805292" fill="white"/>
<rect x="39.7852" y="12.8052" width="0.811664" height="0.805292" fill="white"/>
<rect x="42.2197" y="12.8052" width="0.811664" height="0.805292" fill="white"/>
<rect x="41.4082" y="12.8052" width="0.811664" height="0.805292" fill="white"/>
<rect x="46.2783" y="13.6108" width="0.811664" height="0.805292" fill="white"/>
<rect x="45.4668" y="13.6108" width="0.811664" height="0.805292" fill="white"/>
<rect x="48.7129" y="14.416" width="0.811664" height="0.805292" fill="white"/>
<rect x="47.9014" y="14.416" width="0.811664" height="0.805292" fill="white"/>
<rect x="51.1484" y="14.416" width="0.811664" height="0.805292" fill="white"/>
<rect x="50.3359" y="15.2217" width="0.811664" height="0.805292" fill="white"/>
<rect x="52.7715" y="15.2217" width="0.811664" height="0.805292" fill="white"/>
<rect x="51.96" y="16.0259" width="0.811664" height="0.805292" fill="white"/>
<rect x="53.583" y="16.832" width="0.811664" height="0.805292" fill="white"/>
<rect x="52.7715" y="16.832" width="0.811664" height="0.805292" fill="white"/>
<rect x="55.2061" y="16.832" width="0.811664" height="0.805292" fill="white"/>
<rect x="54.3945" y="17.6377" width="0.811664" height="0.805292" fill="white"/>
<rect x="56.0176" y="17.6377" width="0.811664" height="0.805292" fill="white"/>
<rect x="55.2061" y="18.4419" width="0.811664" height="0.805292" fill="white"/>
<rect x="56.8301" y="18.4419" width="0.811664" height="0.805292" fill="white"/>
<rect x="56.0176" y="19.2476" width="0.811664" height="0.805292" fill="white"/>
<rect x="57.6416" y="19.2476" width="0.811664" height="0.805292" fill="white"/>
<rect x="56.8301" y="20.0527" width="0.811664" height="0.805292" fill="white"/>
<rect x="58.4531" y="20.0527" width="0.811664" height="0.805292" fill="white"/>
<rect x="57.6416" y="20.8584" width="0.811664" height="0.805292" fill="white"/>
<rect x="59.2646" y="20.8584" width="0.811664" height="0.805292" fill="white"/>
<rect x="58.4531" y="21.6636" width="0.811664" height="0.805292" fill="white"/>
<rect x="60.0762" y="21.6636" width="0.811664" height="0.805292" fill="white"/>
<rect x="59.2646" y="22.4688" width="0.811664" height="0.805292" fill="white"/>
<rect x="60.8877" y="22.4688" width="0.811664" height="0.805292" fill="white"/>
<rect x="60.8877" y="23.2744" width="0.811664" height="0.805292" fill="white"/>
<rect x="60.0762" y="24.0796" width="0.811664" height="0.805292" fill="white"/>
<rect x="61.7002" y="24.0796" width="0.811664" height="0.805292" fill="white"/>
<rect x="60.8877" y="24.8843" width="0.811664" height="0.805292" fill="white"/>
<rect x="62.5117" y="24.8843" width="0.811664" height="0.805292" fill="white"/>
<rect x="62.5117" y="25.6904" width="0.811664" height="0.805292" fill="white"/>
<rect x="61.7002" y="26.4951" width="0.811664" height="0.805292" fill="white"/>
<rect x="63.3232" y="26.4951" width="0.811664" height="0.805292" fill="white"/>
<rect x="63.3232" y="27.3003" width="0.811664" height="0.805292" fill="white"/>
<rect x="63.3232" y="28.106" width="0.811664" height="0.805292" fill="white"/>
<rect x="62.5117" y="28.9111" width="0.811664" height="0.805292" fill="white"/>
<rect x="64.1348" y="28.9111" width="0.811664" height="0.805292" fill="white"/>
<rect x="64.1348" y="29.7163" width="0.811664" height="0.805292" fill="white"/>
<rect x="64.1348" y="30.522" width="0.811664" height="0.805292" fill="white"/>
<rect x="63.3232" y="31.3271" width="0.811664" height="0.805292" fill="white"/>
<rect x="64.9463" y="31.3271" width="0.811664" height="0.805292" fill="white"/>
<rect x="64.9463" y="32.1328" width="0.811664" height="0.805292" fill="white"/>
<rect x="64.9463" y="32.938" width="0.811664" height="0.805292" fill="white"/>
<rect x="64.9463" y="33.7427" width="0.811664" height="0.805292" fill="white"/>
<rect x="64.9463" y="34.5488" width="0.811664" height="0.805292" fill="white"/>
<rect x="64.1348" y="35.353" width="0.811664" height="0.805292" fill="white"/>
<rect x="65.7578" y="35.353" width="0.811664" height="0.805292" fill="white"/>
<rect x="65.7578" y="36.1587" width="0.811664" height="0.805292" fill="white"/>
<rect x="65.7578" y="36.9639" width="0.811664" height="0.805292" fill="white"/>
<rect x="40.5967" y="12.8052" width="0.811664" height="0.805292" fill="white"/>
<rect x="43.0312" y="12.8052" width="0.811664" height="0.805292" fill="white"/>
<rect x="43.8428" y="12.8052" width="0.811664" height="0.805292" fill="white"/>
<rect x="44.6543" y="12" width="0.811664" height="0.805292" fill="white"/>
<rect x="44.6543" y="13.6108" width="0.811664" height="0.805292" fill="white"/>
<rect x="47.0898" y="13.6108" width="0.811664" height="0.805292" fill="white"/>
<rect x="47.9014" y="12.8052" width="0.811664" height="0.805292" fill="white"/>
<rect x="49.5244" y="13.6108" width="0.811664" height="0.805292" fill="white"/>
<rect x="49.5244" y="15.2217" width="0.811664" height="0.805292" fill="white"/>
<rect x="51.1484" y="16.0259" width="0.811664" height="0.805292" fill="white"/>
<rect x="54.3945" y="16.0259" width="0.811664" height="0.805292" fill="white"/>
</svg>
