<svg width="301" height="76" viewBox="0 0 301 76" fill="none" xmlns="http://www.w3.org/2000/svg">
<path d="M12.0227 75.9289V72.5729H6.1714L5.91529 69.1044C3.02906 68.4462 3.02906 68.4463 2.99951 64.954C2.99951 62.0487 2.76309 61.7878 0 61.266V14.6806C0.147759 14.5502 0.226564 14.4138 0.315219 14.4019C2.90593 14.0758 2.99951 13.9454 3.01429 10.6488C3.01429 9.54595 3.01429 8.44313 3.01429 7.23358L5.96947 7.06163L6.10738 3.5575H11.9291L12.1212 0H288.958L289.233 3.5575H295.031C295.085 4.82634 295.129 5.86394 295.188 7.115H298.104V10.6251C298.104 14.058 298.148 14.1055 301 14.5205V61.3609C298.183 61.8767 298.119 61.9538 298.114 65.6536C298.114 66.6379 298.114 67.6221 298.114 68.7783L295.218 69.0451C295.159 70.1716 295.104 71.2092 295.035 72.5077H289.253C289.164 73.7943 289.091 74.8201 289.002 76L12.0227 75.9289Z" fill="white"/>
<path d="M78.25 45.25V34.75H74.75V33H85.25V34.75H81.75V45.25H78.25ZM99.25 38.25V43.5H97.5V45.25H90.5V47H87V36.5H90.5V38.25H92.25V40H90.5V43.5H95.75V38.25H92.25V36.5H97.5V38.25H99.25ZM102.75 47V45.25H109.75V43.5H102.75V41.75H101V36.5H104.5V41.75H109.75V36.5H113.25V45.25H111.5V47H102.75ZM127.25 43.5H129V47H125.5V45.25H118.5V47H115V43.5H116.75V41.75H118.5V36.5H127.25V43.5ZM120.25 43.5H123.75V38.25H120.25V43.5ZM146.5 41.75H148.25V43.5H146.5V45.25H143V36.5H146.5V41.75ZM155.25 36.5V45.25H151.75V40H150V38.25H151.75V36.5H155.25ZM148.25 40H150V41.75H148.25V40ZM172.75 45.25V43.5H171V41.75H174.5V43.5H179.75V41.75H176.25V40H179.75V38.25H174.5V40H171V38.25H172.75V36.5H181.5V38.25H183.25V40H181.5V41.75H183.25V43.5H181.5V45.25H172.75ZM186.75 45.25V43.5H185V41.75H186.75V40H193.75V38.25H186.75V36.5H195.5V38.25H197.25V45.25H186.75ZM188.5 43.5H193.75V41.75H188.5V43.5ZM199 45.25V36.5H202.5V40H207.75V36.5H211.25V45.25H207.75V41.75H202.5V45.25H199ZM213 45.25V41.75H214.75V40H213V38.25H214.75V36.5H225.25V45.25H221.75V41.75H216.5V45.25H213ZM216.5 40H221.75V38.25H216.5V40ZM232.25 45.25V38.25H228.75V36.5H239.25V38.25H235.75V45.25H232.25ZM242.75 45.25V43.5H241V38.25H242.75V36.5H251.5V38.25H253.25V43.5H251.5V45.25H242.75ZM244.5 43.5H249.75V38.25H244.5V43.5ZM256.75 45.25V43.5H255V38.25H256.75V36.5H265.5V38.25H267.25V40H263.75V38.25H258.5V43.5H263.75V41.75H267.25V43.5H265.5V45.25H256.75ZM274.25 45.25V38.25H270.75V36.5H281.25V38.25H277.75V45.25H274.25ZM283 45.25V36.5H286.5V40H293.5V41.75H295.25V43.5H293.5V45.25H283ZM286.5 43.5H291.75V41.75H286.5V43.5Z" fill="black"/>
<path d="M36.0744 23.5908H48.5944V25.5435H50.5644V27.5075H52.5516V29.4506H54.5006V41.8723H52.5229V43.8155H50.5472V45.7871H48.5772V47.7416H34.1025V49.6905H32.1535V51.6545H30.1721V53.5654H26.2091V51.645H24.2793V47.7113H26.2206V45.7472H28.2002V43.8041H30.174V29.443H32.1459V27.498H34.1235V25.5245H36.0744V23.5908ZM34.1408 31.4336V39.8912H36.1031V41.8496H38.0865V43.787H46.5938V41.8344H48.5829V39.8761H50.5185V31.4203H48.5676V29.4563H46.5938V27.534H38.0635V29.4734H36.0859V31.4336H34.1408Z" fill="#4BC6CE"/>
<path d="M65.7512 38.169H66.5754V38.9868H65.7512V38.169Z" fill="#4BC6CE"/>
<path d="M65.7512 38.9868H66.5754V39.8046H65.7512V38.9868Z" fill="#4BC6CE"/>
<path d="M65.7512 39.8046H66.5754V40.6223H65.7512V39.8046Z" fill="#4BC6CE"/>
<path d="M64.927 40.6223H65.7512V41.4401H64.927V40.6223Z" fill="#4BC6CE"/>
<path d="M64.927 41.4401H65.7512V42.2579H64.927V41.4401Z" fill="#4BC6CE"/>
<path d="M64.927 42.2579H65.7512V43.0756H64.927V42.2579Z" fill="#4BC6CE"/>
<path d="M64.927 43.0756H65.7512V43.8934H64.927V43.0756Z" fill="#4BC6CE"/>
<path d="M64.927 43.8934H65.7512V44.7112H64.927V43.8934Z" fill="#4BC6CE"/>
<path d="M64.927 44.7112H65.7512V45.5289H64.927V44.7112Z" fill="#4BC6CE"/>
<path d="M64.1027 45.5289H64.927V46.3467H64.1027V45.5289Z" fill="#4BC6CE"/>
<path d="M64.1027 46.3467H64.927V47.1645H64.1027V46.3467Z" fill="#4BC6CE"/>
<path d="M64.1027 47.1645H64.927V47.9822H64.1027V47.1645Z" fill="#4BC6CE"/>
<path d="M63.2785 47.9822H64.1027V48.8H63.2785V47.9822Z" fill="#4BC6CE"/>
<path d="M63.2785 48.8H64.1027V49.6178H63.2785V48.8Z" fill="#4BC6CE"/>
<path d="M62.4543 49.6178H63.2785V50.4355H62.4543V49.6178Z" fill="#4BC6CE"/>
<path d="M62.4543 50.4355H63.2785V51.2533H62.4543V50.4355Z" fill="#4BC6CE"/>
<path d="M61.63 51.2533H62.4543V52.0711H61.63V51.2533Z" fill="#4BC6CE"/>
<path d="M60.8058 52.0711H61.63V52.8888H60.8058V52.0711Z" fill="#4BC6CE"/>
<path d="M60.8058 52.8888H61.63V53.7066H60.8058V52.8888Z" fill="#4BC6CE"/>
<path d="M59.9815 53.7066H60.8058V54.5244H59.9815V53.7066Z" fill="#4BC6CE"/>
<path d="M59.1573 54.5244H59.9815V55.3421H59.1573V54.5244Z" fill="#4BC6CE"/>
<path d="M58.3331 55.3421H59.1573V56.1599H58.3331V55.3421Z" fill="#4BC6CE"/>
<path d="M57.5088 56.1599H58.3331V56.9777H57.5088V56.1599Z" fill="#4BC6CE"/>
<path d="M56.6846 56.9777H57.5088V57.7954H56.6846V56.9777Z" fill="#4BC6CE"/>
<path d="M55.8604 57.7954H56.6846V58.6132H55.8604V57.7954Z" fill="#4BC6CE"/>
<path d="M55.0361 58.6132H55.8604V59.431H55.0361V58.6132Z" fill="#4BC6CE"/>
<path d="M54.2119 59.431H55.0361V60.2487H54.2119V59.431Z" fill="#4BC6CE"/>
<path d="M52.5634 60.2487H53.3876V61.0665H52.5634V60.2487Z" fill="#4BC6CE"/>
<path d="M50.9149 61.0665H51.7392V61.8843H50.9149V61.0665Z" fill="#4BC6CE"/>
<path d="M49.2665 61.8843H50.0907V62.702H49.2665V61.8843Z" fill="#4BC6CE"/>
<path d="M46.7937 62.702H47.618V63.5198H46.7937V62.702Z" fill="#4BC6CE"/>
<path d="M43.4968 63.5198H44.321V64.3376H43.4968V63.5198Z" fill="#4BC6CE"/>
<path d="M39.3756 63.5198H40.1998V64.3376H39.3756V63.5198Z" fill="#4BC6CE"/>
<path d="M40.1998 63.5198H41.0241V64.3376H40.1998V63.5198Z" fill="#4BC6CE"/>
<path d="M41.0241 63.5198H41.8483V64.3376H41.0241V63.5198Z" fill="#4BC6CE"/>
<path d="M41.8483 63.5198H42.6726V64.3376H41.8483V63.5198Z" fill="#4BC6CE"/>
<path d="M42.6726 63.5198H43.4968V64.3376H42.6726V63.5198Z" fill="#4BC6CE"/>
<path d="M44.321 63.5198H45.1453V64.3376H44.321V63.5198Z" fill="#4BC6CE"/>
<path d="M45.1453 63.5198H45.9695V64.3376H45.1453V63.5198Z" fill="#4BC6CE"/>
<path d="M45.9695 62.702H46.7937V63.5198H45.9695V62.702Z" fill="#4BC6CE"/>
<path d="M47.618 62.702H48.4422V63.5198H47.618V62.702Z" fill="#4BC6CE"/>
<path d="M48.4422 61.8843H49.2665V62.702H48.4422V61.8843Z" fill="#4BC6CE"/>
<path d="M50.0907 61.8843H50.9149V62.702H50.0907V61.8843Z" fill="#4BC6CE"/>
<path d="M51.7392 61.0665H52.5634V61.8843H51.7392V61.0665Z" fill="#4BC6CE"/>
<path d="M53.3876 59.431H54.2119V60.2487H53.3876V59.431Z" fill="#4BC6CE"/>
<path d="M13 38.169H13.8242V38.9868H13V38.169Z" fill="#4BC6CE"/>
<path d="M13 38.9868H13.8242V39.8046H13V38.9868Z" fill="#4BC6CE"/>
<path d="M13 39.8046H13.8242V40.6223H13V39.8046Z" fill="#4BC6CE"/>
<path d="M13 40.6223H13.8242V41.4401H13V40.6223Z" fill="#4BC6CE"/>
<path d="M13 41.4401H13.8242V42.2579H13V41.4401Z" fill="#4BC6CE"/>
<path d="M13.8242 42.2579H14.6485V43.0756H13.8242V42.2579Z" fill="#4BC6CE"/>
<path d="M13.8242 43.0756H14.6485V43.8934H13.8242V43.0756Z" fill="#4BC6CE"/>
<path d="M13.8242 43.8934H14.6485V44.7112H13.8242V43.8934Z" fill="#4BC6CE"/>
<path d="M13.8242 44.7112H14.6485V45.5289H13.8242V44.7112Z" fill="#4BC6CE"/>
<path d="M14.6485 45.5289H15.4727V46.3467H14.6485V45.5289Z" fill="#4BC6CE"/>
<path d="M14.6485 46.3467H15.4727V47.1645H14.6485V46.3467Z" fill="#4BC6CE"/>
<path d="M14.6485 47.1645H15.4727V47.9822H14.6485V47.1645Z" fill="#4BC6CE"/>
<path d="M15.4727 47.9822H16.297V48.8H15.4727V47.9822Z" fill="#4BC6CE"/>
<path d="M15.4727 48.8H16.297V49.6178H15.4727V48.8Z" fill="#4BC6CE"/>
<path d="M16.297 49.6178H17.1212V50.4355H16.297V49.6178Z" fill="#4BC6CE"/>
<path d="M16.297 50.4355H17.1212V51.2533H16.297V50.4355Z" fill="#4BC6CE"/>
<path d="M17.1212 51.2533H17.9454V52.0711H17.1212V51.2533Z" fill="#4BC6CE"/>
<path d="M17.1212 52.0711H17.9454V52.8888H17.1212V52.0711Z" fill="#4BC6CE"/>
<path d="M17.9454 52.8888H18.7697V53.7066H17.9454V52.8888Z" fill="#4BC6CE"/>
<path d="M18.7697 53.7066H19.5939V54.5244H18.7697V53.7066Z" fill="#4BC6CE"/>
<path d="M19.5939 54.5244H20.4181V55.3421H19.5939V54.5244Z" fill="#4BC6CE"/>
<path d="M19.5939 55.3421H20.4181V56.1599H19.5939V55.3421Z" fill="#4BC6CE"/>
<path d="M20.4181 56.1599H21.2424V56.9777H20.4181V56.1599Z" fill="#4BC6CE"/>
<path d="M21.2424 56.9777H22.0666V57.7954H21.2424V56.9777Z" fill="#4BC6CE"/>
<path d="M22.8909 57.7954H23.7151V58.6132H22.8909V57.7954Z" fill="#4BC6CE"/>
<path d="M23.7151 58.6132H24.5393V59.431H23.7151V58.6132Z" fill="#4BC6CE"/>
<path d="M24.5393 59.431H25.3636V60.2487H24.5393V59.431Z" fill="#4BC6CE"/>
<path d="M26.1878 60.2487H27.012V61.0665H26.1878V60.2487Z" fill="#4BC6CE"/>
<path d="M27.8363 61.0665H28.6605V61.8843H27.8363V61.0665Z" fill="#4BC6CE"/>
<path d="M29.4848 61.8843H30.309V62.702H29.4848V61.8843Z" fill="#4BC6CE"/>
<path d="M31.9575 62.702H32.7817V63.5198H31.9575V62.702Z" fill="#4BC6CE"/>
<path d="M35.2544 63.5198H36.0787V64.3376H35.2544V63.5198Z" fill="#4BC6CE"/>
<path d="M22.0666 56.9777H22.8909V57.7954H22.0666V56.9777Z" fill="#4BC6CE"/>
<path d="M25.3636 59.431H26.1878V60.2487H25.3636V59.431Z" fill="#4BC6CE"/>
<path d="M27.012 61.0665H27.8363V61.8843H27.012V61.0665Z" fill="#4BC6CE"/>
<path d="M28.6605 61.8843H29.4848V62.702H28.6605V61.8843Z" fill="#4BC6CE"/>
<path d="M30.309 61.8843H31.1332V62.702H30.309V61.8843Z" fill="#4BC6CE"/>
<path d="M31.1332 62.702H31.9575V63.5198H31.1332V62.702Z" fill="#4BC6CE"/>
<path d="M32.7817 62.702H33.6059V63.5198H32.7817V62.702Z" fill="#4BC6CE"/>
<path d="M33.6059 63.5198H34.4302V64.3376H33.6059V63.5198Z" fill="#4BC6CE"/>
<path d="M34.4302 63.5198H35.2544V64.3376H34.4302V63.5198Z" fill="#4BC6CE"/>
<path d="M36.0787 63.5198H36.9029V64.3376H36.0787V63.5198Z" fill="#4BC6CE"/>
<path d="M36.9029 63.5198H37.7271V64.3376H36.9029V63.5198Z" fill="#4BC6CE"/>
<path d="M37.7271 63.5198H38.5514V64.3376H37.7271V63.5198Z" fill="#4BC6CE"/>
<path d="M38.5514 63.5198H39.3756V64.3376H38.5514V63.5198Z" fill="#4BC6CE"/>
<path d="M36.9029 12.0005H37.7271V12.8183H36.9029V12.0005Z" fill="#4BC6CE"/>
<path d="M31.9575 12.8183H32.7817V13.636H31.9575V12.8183Z" fill="#4BC6CE"/>
<path d="M29.4848 13.636H30.309V14.4538H29.4848V13.636Z" fill="#4BC6CE"/>
<path d="M27.8363 14.4538H28.6605V15.2716H27.8363V14.4538Z" fill="#4BC6CE"/>
<path d="M26.1878 15.2716H27.012V16.0893H26.1878V15.2716Z" fill="#4BC6CE"/>
<path d="M25.3636 16.0893H26.1878V16.9071H25.3636V16.0893Z" fill="#4BC6CE"/>
<path d="M23.7151 16.9071H24.5393V17.7249H23.7151V16.9071Z" fill="#4BC6CE"/>
<path d="M22.8909 17.7249H23.7151V18.5426H22.8909V17.7249Z" fill="#4BC6CE"/>
<path d="M22.0666 18.5426H22.8909V19.3604H22.0666V18.5426Z" fill="#4BC6CE"/>
<path d="M21.2424 19.3604H22.0666V20.1782H21.2424V19.3604Z" fill="#4BC6CE"/>
<path d="M20.4181 20.1782H21.2424V20.9959H20.4181V20.1782Z" fill="#4BC6CE"/>
<path d="M19.5939 20.9959H20.4181V21.8137H19.5939V20.9959Z" fill="#4BC6CE"/>
<path d="M18.7697 21.8137H19.5939V22.6315H18.7697V21.8137Z" fill="#4BC6CE"/>
<path d="M17.9454 22.6315H18.7697V23.4492H17.9454V22.6315Z" fill="#4BC6CE"/>
<path d="M17.1212 23.4492H17.9454V24.267H17.1212V23.4492Z" fill="#4BC6CE"/>
<path d="M17.1212 24.267H17.9454V25.0848H17.1212V24.267Z" fill="#4BC6CE"/>
<path d="M16.297 25.0848H17.1212V25.9025H16.297V25.0848Z" fill="#4BC6CE"/>
<path d="M16.297 25.9025H17.1212V26.7203H16.297V25.9025Z" fill="#4BC6CE"/>
<path d="M15.4727 26.7203H16.297V27.5381H15.4727V26.7203Z" fill="#4BC6CE"/>
<path d="M15.4727 27.5381H16.297V28.3558H15.4727V27.5381Z" fill="#4BC6CE"/>
<path d="M14.6485 28.3558H15.4727V29.1736H14.6485V28.3558Z" fill="#4BC6CE"/>
<path d="M14.6485 29.1736H15.4727V29.9914H14.6485V29.1736Z" fill="#4BC6CE"/>
<path d="M14.6485 29.9914H15.4727V30.8091H14.6485V29.9914Z" fill="#4BC6CE"/>
<path d="M13.8242 30.8091H14.6485V31.6269H13.8242V30.8091Z" fill="#4BC6CE"/>
<path d="M13.8242 31.6269H14.6485V32.4447H13.8242V31.6269Z" fill="#4BC6CE"/>
<path d="M13.8242 32.4447H14.6485V33.2624H13.8242V32.4447Z" fill="#4BC6CE"/>
<path d="M13.8242 33.2624H14.6485V34.0802H13.8242V33.2624Z" fill="#4BC6CE"/>
<path d="M13 34.0802H13.8242V34.898H13V34.0802Z" fill="#4BC6CE"/>
<path d="M13 34.898H13.8242V35.7157H13V34.898Z" fill="#4BC6CE"/>
<path d="M13 35.7157H13.8242V36.5335H13V35.7157Z" fill="#4BC6CE"/>
<path d="M13 36.5335H13.8242V37.3513H13V36.5335Z" fill="#4BC6CE"/>
<path d="M13 37.3513H13.8242V38.169H13V37.3513Z" fill="#4BC6CE"/>
<path d="M24.5393 16.0893H25.3636V16.9071H24.5393V16.0893Z" fill="#4BC6CE"/>
<path d="M27.012 15.2716H27.8363V16.0893H27.012V15.2716Z" fill="#4BC6CE"/>
<path d="M28.6605 14.4538H29.4848V15.2716H28.6605V14.4538Z" fill="#4BC6CE"/>
<path d="M30.309 13.636H31.1332V14.4538H30.309V13.636Z" fill="#4BC6CE"/>
<path d="M31.1332 12.8183H31.9575V13.636H31.1332V12.8183Z" fill="#4BC6CE"/>
<path d="M32.7817 12.8183H33.6059V13.636H32.7817V12.8183Z" fill="#4BC6CE"/>
<path d="M33.6059 12.8183H34.4302V13.636H33.6059V12.8183Z" fill="#4BC6CE"/>
<path d="M34.4302 12.0005H35.2544V12.8183H34.4302V12.0005Z" fill="#4BC6CE"/>
<path d="M35.2544 12.0005H36.0787V12.8183H35.2544V12.0005Z" fill="#4BC6CE"/>
<path d="M36.0787 12.0005H36.9029V12.8183H36.0787V12.0005Z" fill="#4BC6CE"/>
<path d="M37.7271 12.0005H38.5514V12.8183H37.7271V12.0005Z" fill="#4BC6CE"/>
<path d="M38.5514 12.0005H39.3756V12.8183H38.5514V12.0005Z" fill="#4BC6CE"/>
<path d="M39.3756 12.0005H40.1998V12.8183H39.3756V12.0005Z" fill="#4BC6CE"/>
<path d="M41.8483 12.0005H42.6726V12.8183H41.8483V12.0005Z" fill="#4BC6CE"/>
<path d="M45.9695 12.8183H46.7937V13.636H45.9695V12.8183Z" fill="#4BC6CE"/>
<path d="M48.4422 13.636H49.2665V14.4538H48.4422V13.636Z" fill="#4BC6CE"/>
<path d="M50.9149 14.4538H51.7392V15.2716H50.9149V14.4538Z" fill="#4BC6CE"/>
<path d="M52.5634 15.2716H53.3876V16.0893H52.5634V15.2716Z" fill="#4BC6CE"/>
<path d="M53.3876 16.0893H54.2119V16.9071H53.3876V16.0893Z" fill="#4BC6CE"/>
<path d="M55.0361 16.9071H55.8604V17.7249H55.0361V16.9071Z" fill="#4BC6CE"/>
<path d="M55.8604 17.7249H56.6846V18.5426H55.8604V17.7249Z" fill="#4BC6CE"/>
<path d="M56.6846 18.5426H57.5088V19.3604H56.6846V18.5426Z" fill="#4BC6CE"/>
<path d="M57.5088 19.3604H58.3331V20.1782H57.5088V19.3604Z" fill="#4BC6CE"/>
<path d="M58.3331 20.1782H59.1573V20.9959H58.3331V20.1782Z" fill="#4BC6CE"/>
<path d="M59.1573 20.9959H59.9815V21.8137H59.1573V20.9959Z" fill="#4BC6CE"/>
<path d="M59.9815 21.8137H60.8058V22.6315H59.9815V21.8137Z" fill="#4BC6CE"/>
<path d="M60.8058 22.6315H61.63V23.4492H60.8058V22.6315Z" fill="#4BC6CE"/>
<path d="M60.8058 23.4492H61.63V24.267H60.8058V23.4492Z" fill="#4BC6CE"/>
<path d="M61.63 24.267H62.4543V25.0848H61.63V24.267Z" fill="#4BC6CE"/>
<path d="M62.4543 25.0848H63.2785V25.9025H62.4543V25.0848Z" fill="#4BC6CE"/>
<path d="M62.4543 25.9025H63.2785V26.7203H62.4543V25.9025Z" fill="#4BC6CE"/>
<path d="M63.2785 26.7203H64.1027V27.5381H63.2785V26.7203Z" fill="#4BC6CE"/>
<path d="M63.2785 27.5381H64.1027V28.3558H63.2785V27.5381Z" fill="#4BC6CE"/>
<path d="M63.2785 28.3558H64.1027V29.1736H63.2785V28.3558Z" fill="#4BC6CE"/>
<path d="M64.1027 29.1736H64.927V29.9914H64.1027V29.1736Z" fill="#4BC6CE"/>
<path d="M64.1027 29.9914H64.927V30.8091H64.1027V29.9914Z" fill="#4BC6CE"/>
<path d="M64.1027 30.8091H64.927V31.6269H64.1027V30.8091Z" fill="#4BC6CE"/>
<path d="M64.927 31.6269H65.7512V32.4447H64.927V31.6269Z" fill="#4BC6CE"/>
<path d="M64.927 32.4447H65.7512V33.2624H64.927V32.4447Z" fill="#4BC6CE"/>
<path d="M64.927 33.2624H65.7512V34.0802H64.927V33.2624Z" fill="#4BC6CE"/>
<path d="M64.927 34.0802H65.7512V34.898H64.927V34.0802Z" fill="#4BC6CE"/>
<path d="M64.927 34.898H65.7512V35.7157H64.927V34.898Z" fill="#4BC6CE"/>
<path d="M65.7512 35.7157H66.5754V36.5335H65.7512V35.7157Z" fill="#4BC6CE"/>
<path d="M65.7512 36.5335H66.5754V37.3513H65.7512V36.5335Z" fill="#4BC6CE"/>
<path d="M65.7512 37.3513H66.5754V38.169H65.7512V37.3513Z" fill="#4BC6CE"/>
<path d="M40.1998 12.0005H41.0241V12.8183H40.1998V12.0005Z" fill="#4BC6CE"/>
<path d="M41.0241 12.0005H41.8483V12.8183H41.0241V12.0005Z" fill="#4BC6CE"/>
<path d="M42.6726 12.0005H43.4968V12.8183H42.6726V12.0005Z" fill="#4BC6CE"/>
<path d="M43.4968 12.0005H44.321V12.8183H43.4968V12.0005Z" fill="#4BC6CE"/>
<path d="M44.321 12.0005H45.1453V12.8183H44.321V12.0005Z" fill="#4BC6CE"/>
<path d="M45.1453 12.8183H45.9695V13.636H45.1453V12.8183Z" fill="#4BC6CE"/>
<path d="M46.7937 12.8183H47.618V13.636H46.7937V12.8183Z" fill="#4BC6CE"/>
<path d="M47.618 12.8183H48.4422V13.636H47.618V12.8183Z" fill="#4BC6CE"/>
<path d="M49.2665 13.636H50.0907V14.4538H49.2665V13.636Z" fill="#4BC6CE"/>
<path d="M50.0907 14.4538H50.9149V15.2716H50.0907V14.4538Z" fill="#4BC6CE"/>
<path d="M51.7392 15.2716H52.5634V16.0893H51.7392V15.2716Z" fill="#4BC6CE"/>
<path d="M54.2119 16.0893H55.0361V16.9071H54.2119V16.0893Z" fill="#4BC6CE"/>
<rect x="65.751" y="38.1689" width="0.824238" height="0.817767" fill="#4BC6CE"/>
<rect x="65.751" y="38.9863" width="0.824238" height="0.817767" fill="#4BC6CE"/>
<rect x="65.751" y="39.8037" width="0.824238" height="0.817767" fill="#4BC6CE"/>
<rect x="64.9268" y="40.6216" width="0.824238" height="0.817767" fill="#4BC6CE"/>
<rect x="64.9268" y="41.4399" width="0.824238" height="0.817767" fill="#4BC6CE"/>
<rect x="64.9268" y="42.2573" width="0.824238" height="0.817767" fill="#4BC6CE"/>
<rect x="64.9268" y="43.0757" width="0.824238" height="0.817767" fill="#4BC6CE"/>
<rect x="64.9268" y="43.8931" width="0.824238" height="0.817767" fill="#4BC6CE"/>
<rect x="64.9268" y="44.7104" width="0.824238" height="0.817767" fill="#4BC6CE"/>
<rect x="64.1025" y="45.5283" width="0.824238" height="0.817767" fill="#4BC6CE"/>
<rect x="64.1025" y="46.3457" width="0.824238" height="0.817767" fill="#4BC6CE"/>
<rect x="64.1025" y="47.1641" width="0.824238" height="0.817767" fill="#4BC6CE"/>
<rect x="63.2783" y="47.9814" width="0.824238" height="0.817767" fill="#4BC6CE"/>
<rect x="63.2783" y="48.7998" width="0.824238" height="0.817767" fill="#4BC6CE"/>
<rect x="62.4541" y="49.6177" width="0.824238" height="0.817767" fill="#4BC6CE"/>
<rect x="62.4541" y="50.4351" width="0.824238" height="0.817767" fill="#4BC6CE"/>
<rect x="61.6299" y="51.2524" width="0.824238" height="0.817767" fill="#4BC6CE"/>
<rect x="60.8057" y="52.0708" width="0.824238" height="0.817767" fill="#4BC6CE"/>
<rect x="60.8057" y="52.8882" width="0.824238" height="0.817767" fill="#4BC6CE"/>
<rect x="59.9814" y="53.7065" width="0.824238" height="0.817767" fill="#4BC6CE"/>
<rect x="59.1572" y="54.5244" width="0.824238" height="0.817767" fill="#4BC6CE"/>
<rect x="58.333" y="55.3418" width="0.824238" height="0.817767" fill="#4BC6CE"/>
<rect x="57.5088" y="56.1592" width="0.824238" height="0.817767" fill="#4BC6CE"/>
<rect x="56.6846" y="56.9766" width="0.824238" height="0.817767" fill="#4BC6CE"/>
<rect x="55.8604" y="57.7949" width="0.824238" height="0.817767" fill="#4BC6CE"/>
<rect x="55.0361" y="58.6128" width="0.824238" height="0.817767" fill="#4BC6CE"/>
<rect x="54.2119" y="59.4302" width="0.824238" height="0.817767" fill="#4BC6CE"/>
<rect x="52.5635" y="60.2476" width="0.824238" height="0.817767" fill="#4BC6CE"/>
<rect x="50.915" y="61.0659" width="0.824238" height="0.817767" fill="#4BC6CE"/>
<rect x="49.2666" y="61.8833" width="0.824238" height="0.817767" fill="#4BC6CE"/>
<rect x="46.7939" y="62.7017" width="0.824238" height="0.817767" fill="#4BC6CE"/>
<rect x="43.4971" y="63.5195" width="0.824238" height="0.817767" fill="#4BC6CE"/>
<rect x="39.376" y="63.5195" width="0.824238" height="0.817767" fill="#4BC6CE"/>
<rect x="40.2002" y="63.5195" width="0.824238" height="0.817767" fill="#4BC6CE"/>
<rect x="41.0244" y="63.5195" width="0.824238" height="0.817767" fill="#4BC6CE"/>
<rect x="41.8486" y="63.5195" width="0.824238" height="0.817767" fill="#4BC6CE"/>
<rect x="42.6729" y="63.5195" width="0.824238" height="0.817767" fill="#4BC6CE"/>
<rect x="44.3213" y="63.5195" width="0.824238" height="0.817767" fill="#4BC6CE"/>
<rect x="45.1455" y="63.5195" width="0.824238" height="0.817767" fill="#4BC6CE"/>
<rect x="45.9697" y="62.7017" width="0.824238" height="0.817767" fill="#4BC6CE"/>
<rect x="47.6182" y="62.7017" width="0.824238" height="0.817767" fill="#4BC6CE"/>
<rect x="48.4424" y="61.8833" width="0.824238" height="0.817767" fill="#4BC6CE"/>
<rect x="50.0908" y="61.8833" width="0.824238" height="0.817767" fill="#4BC6CE"/>
<rect x="51.7393" y="61.0659" width="0.824238" height="0.817767" fill="#4BC6CE"/>
<rect x="53.3877" y="59.4302" width="0.824238" height="0.817767" fill="#4BC6CE"/>
<rect x="13" y="38.1689" width="0.824238" height="0.817767" fill="#4BC6CE"/>
<rect x="13" y="38.9863" width="0.824238" height="0.817767" fill="#4BC6CE"/>
<rect x="13" y="39.8037" width="0.824238" height="0.817767" fill="#4BC6CE"/>
<rect x="13" y="40.6216" width="0.824238" height="0.817767" fill="#4BC6CE"/>
<rect x="13" y="41.4399" width="0.824238" height="0.817767" fill="#4BC6CE"/>
<rect x="13.8242" y="42.2573" width="0.824238" height="0.817767" fill="#4BC6CE"/>
<rect x="13.8242" y="43.0757" width="0.824238" height="0.817767" fill="#4BC6CE"/>
<rect x="13.8242" y="43.8931" width="0.824238" height="0.817767" fill="#4BC6CE"/>
<rect x="13.8242" y="44.7104" width="0.824238" height="0.817767" fill="#4BC6CE"/>
<rect x="14.6484" y="45.5283" width="0.824238" height="0.817767" fill="#4BC6CE"/>
<rect x="14.6484" y="46.3457" width="0.824238" height="0.817767" fill="#4BC6CE"/>
<rect x="14.6484" y="47.1641" width="0.824238" height="0.817767" fill="#4BC6CE"/>
<rect x="15.4727" y="47.9814" width="0.824238" height="0.817767" fill="#4BC6CE"/>
<rect x="15.4727" y="48.7998" width="0.824238" height="0.817767" fill="#4BC6CE"/>
<rect x="16.2969" y="49.6177" width="0.824238" height="0.817767" fill="#4BC6CE"/>
<rect x="16.2969" y="50.4351" width="0.824238" height="0.817767" fill="#4BC6CE"/>
<rect x="17.1211" y="51.2524" width="0.824238" height="0.817767" fill="#4BC6CE"/>
<rect x="17.1211" y="52.0708" width="0.824238" height="0.817767" fill="#4BC6CE"/>
<rect x="17.9453" y="52.8882" width="0.824238" height="0.817767" fill="#4BC6CE"/>
<rect x="18.7695" y="53.7065" width="0.824238" height="0.817767" fill="#4BC6CE"/>
<rect x="19.5938" y="54.5244" width="0.824238" height="0.817767" fill="#4BC6CE"/>
<rect x="19.5938" y="55.3418" width="0.824238" height="0.817767" fill="#4BC6CE"/>
<rect x="20.418" y="56.1592" width="0.824238" height="0.817767" fill="#4BC6CE"/>
<rect x="21.2422" y="56.9766" width="0.824238" height="0.817767" fill="#4BC6CE"/>
<rect x="22.8906" y="57.7949" width="0.824238" height="0.817767" fill="#4BC6CE"/>
<rect x="23.7148" y="58.6128" width="0.824238" height="0.817767" fill="#4BC6CE"/>
<rect x="24.5391" y="59.4302" width="0.824238" height="0.817767" fill="#4BC6CE"/>
<rect x="26.1875" y="60.2476" width="0.824238" height="0.817767" fill="#4BC6CE"/>
<rect x="27.8359" y="61.0659" width="0.824238" height="0.817767" fill="#4BC6CE"/>
<rect x="29.4844" y="61.8833" width="0.824238" height="0.817767" fill="#4BC6CE"/>
<rect x="31.958" y="62.7017" width="0.824238" height="0.817767" fill="#4BC6CE"/>
<rect x="35.2549" y="63.5195" width="0.824238" height="0.817767" fill="#4BC6CE"/>
<rect x="22.0664" y="56.9766" width="0.824238" height="0.817767" fill="#4BC6CE"/>
<rect x="25.3633" y="59.4302" width="0.824238" height="0.817767" fill="#4BC6CE"/>
<rect x="27.0117" y="61.0659" width="0.824238" height="0.817767" fill="#4BC6CE"/>
<rect x="28.6602" y="61.8833" width="0.824238" height="0.817767" fill="#4BC6CE"/>
<rect x="30.3096" y="61.8833" width="0.824238" height="0.817767" fill="#4BC6CE"/>
<rect x="31.1328" y="62.7017" width="0.824238" height="0.817767" fill="#4BC6CE"/>
<rect x="32.7812" y="62.7017" width="0.824238" height="0.817767" fill="#4BC6CE"/>
<rect x="33.6055" y="63.5195" width="0.824238" height="0.817767" fill="#4BC6CE"/>
<rect x="34.4307" y="63.5195" width="0.824238" height="0.817767" fill="#4BC6CE"/>
<rect x="36.0791" y="63.5195" width="0.824238" height="0.817767" fill="#4BC6CE"/>
<rect x="36.9033" y="63.5195" width="0.824238" height="0.817767" fill="#4BC6CE"/>
<rect x="37.7275" y="63.5195" width="0.824238" height="0.817767" fill="#4BC6CE"/>
<rect x="38.5518" y="63.5195" width="0.824238" height="0.817767" fill="#4BC6CE"/>
<rect x="36.9033" y="12" width="0.824238" height="0.817767" fill="#4BC6CE"/>
<rect x="31.958" y="12.8174" width="0.824238" height="0.817767" fill="#4BC6CE"/>
<rect x="29.4844" y="13.6357" width="0.824238" height="0.817767" fill="#4BC6CE"/>
<rect x="27.8359" y="14.4536" width="0.824238" height="0.817767" fill="#4BC6CE"/>
<rect x="26.1875" y="15.271" width="0.824238" height="0.817767" fill="#4BC6CE"/>
<rect x="25.3633" y="16.0884" width="0.824238" height="0.817767" fill="#4BC6CE"/>
<rect x="23.7148" y="16.9067" width="0.824238" height="0.817767" fill="#4BC6CE"/>
<rect x="22.8906" y="17.7241" width="0.824238" height="0.817767" fill="#4BC6CE"/>
<rect x="22.0664" y="18.5425" width="0.824238" height="0.817767" fill="#4BC6CE"/>
<rect x="21.2422" y="19.3604" width="0.824238" height="0.817767" fill="#4BC6CE"/>
<rect x="20.418" y="20.1777" width="0.824238" height="0.817767" fill="#4BC6CE"/>
<rect x="19.5938" y="20.9951" width="0.824238" height="0.817767" fill="#4BC6CE"/>
<rect x="18.7695" y="21.8135" width="0.824238" height="0.817767" fill="#4BC6CE"/>
<rect x="17.9453" y="22.6309" width="0.824238" height="0.817767" fill="#4BC6CE"/>
<rect x="17.1211" y="23.4487" width="0.824238" height="0.817767" fill="#4BC6CE"/>
<rect x="17.1211" y="24.2661" width="0.824238" height="0.817767" fill="#4BC6CE"/>
<rect x="16.2969" y="25.0835" width="0.824238" height="0.817767" fill="#4BC6CE"/>
<rect x="16.2969" y="25.9019" width="0.824238" height="0.817767" fill="#4BC6CE"/>
<rect x="15.4727" y="26.7192" width="0.824238" height="0.817767" fill="#4BC6CE"/>
<rect x="15.4727" y="27.5376" width="0.824238" height="0.817767" fill="#4BC6CE"/>
<rect x="14.6484" y="28.3555" width="0.824238" height="0.817767" fill="#4BC6CE"/>
<rect x="14.6484" y="29.1729" width="0.824238" height="0.817767" fill="#4BC6CE"/>
<rect x="14.6484" y="29.9902" width="0.824238" height="0.817767" fill="#4BC6CE"/>
<rect x="13.8242" y="30.8086" width="0.824238" height="0.817767" fill="#4BC6CE"/>
<rect x="13.8242" y="31.626" width="0.824238" height="0.817767" fill="#4BC6CE"/>
<rect x="13.8242" y="32.4448" width="0.824238" height="0.817767" fill="#4BC6CE"/>
<rect x="13.8242" y="33.2622" width="0.824238" height="0.817767" fill="#4BC6CE"/>
<rect x="13" y="34.0796" width="0.824238" height="0.817767" fill="#4BC6CE"/>
<rect x="13" y="34.897" width="0.824238" height="0.817767" fill="#4BC6CE"/>
<rect x="13" y="35.7144" width="0.824238" height="0.817767" fill="#4BC6CE"/>
<rect x="13" y="36.5332" width="0.824238" height="0.817767" fill="#4BC6CE"/>
<rect x="13" y="37.3506" width="0.824238" height="0.817767" fill="#4BC6CE"/>
<rect x="24.5391" y="16.0884" width="0.824238" height="0.817767" fill="#4BC6CE"/>
<rect x="27.0117" y="15.271" width="0.824238" height="0.817767" fill="#4BC6CE"/>
<rect x="28.6602" y="14.4536" width="0.824238" height="0.817767" fill="#4BC6CE"/>
<rect x="30.3096" y="13.6357" width="0.824238" height="0.817767" fill="#4BC6CE"/>
<rect x="31.1328" y="12.8174" width="0.824238" height="0.817767" fill="#4BC6CE"/>
<rect x="32.7812" y="12.8174" width="0.824238" height="0.817767" fill="#4BC6CE"/>
<rect x="33.6055" y="12.8174" width="0.824238" height="0.817767" fill="#4BC6CE"/>
<rect x="34.4307" y="12" width="0.824238" height="0.817767" fill="#4BC6CE"/>
<rect x="35.2549" y="12" width="0.824238" height="0.817767" fill="#4BC6CE"/>
<rect x="36.0791" y="12" width="0.824238" height="0.817767" fill="#4BC6CE"/>
<rect x="37.7275" y="12" width="0.824238" height="0.817767" fill="#4BC6CE"/>
<rect x="38.5518" y="12" width="0.824238" height="0.817767" fill="#4BC6CE"/>
<rect x="39.376" y="12" width="0.824238" height="0.817767" fill="#4BC6CE"/>
<rect x="41.8486" y="12" width="0.824238" height="0.817767" fill="#4BC6CE"/>
<rect x="45.9697" y="12.8174" width="0.824238" height="0.817767" fill="#4BC6CE"/>
<rect x="48.4424" y="13.6357" width="0.824238" height="0.817767" fill="#4BC6CE"/>
<rect x="50.915" y="14.4536" width="0.824238" height="0.817767" fill="#4BC6CE"/>
<rect x="52.5635" y="15.271" width="0.824238" height="0.817767" fill="#4BC6CE"/>
<rect x="53.3877" y="16.0884" width="0.824238" height="0.817767" fill="#4BC6CE"/>
<rect x="55.0361" y="16.9067" width="0.824238" height="0.817767" fill="#4BC6CE"/>
<rect x="55.8604" y="17.7241" width="0.824238" height="0.817767" fill="#4BC6CE"/>
<rect x="56.6846" y="18.5425" width="0.824238" height="0.817767" fill="#4BC6CE"/>
<rect x="57.5088" y="19.3604" width="0.824238" height="0.817767" fill="#4BC6CE"/>
<rect x="58.333" y="20.1777" width="0.824238" height="0.817767" fill="#4BC6CE"/>
<rect x="59.1572" y="20.9951" width="0.824238" height="0.817767" fill="#4BC6CE"/>
<rect x="59.9814" y="21.8135" width="0.824238" height="0.817767" fill="#4BC6CE"/>
<rect x="60.8057" y="22.6309" width="0.824238" height="0.817767" fill="#4BC6CE"/>
<rect x="60.8057" y="23.4487" width="0.824238" height="0.817767" fill="#4BC6CE"/>
<rect x="61.6299" y="24.2661" width="0.824238" height="0.817767" fill="#4BC6CE"/>
<rect x="62.4541" y="25.0835" width="0.824238" height="0.817767" fill="#4BC6CE"/>
<rect x="62.4541" y="25.9019" width="0.824238" height="0.817767" fill="#4BC6CE"/>
<rect x="63.2783" y="26.7192" width="0.824238" height="0.817767" fill="#4BC6CE"/>
<rect x="63.2783" y="27.5376" width="0.824238" height="0.817767" fill="#4BC6CE"/>
<rect x="63.2783" y="28.3555" width="0.824238" height="0.817767" fill="#4BC6CE"/>
<rect x="64.1025" y="29.1729" width="0.824238" height="0.817767" fill="#4BC6CE"/>
<rect x="64.1025" y="29.9902" width="0.824238" height="0.817767" fill="#4BC6CE"/>
<rect x="64.1025" y="30.8086" width="0.824238" height="0.817767" fill="#4BC6CE"/>
<rect x="64.9268" y="31.626" width="0.824238" height="0.817767" fill="#4BC6CE"/>
<rect x="64.9268" y="32.4448" width="0.824238" height="0.817767" fill="#4BC6CE"/>
<rect x="64.9268" y="33.2622" width="0.824238" height="0.817767" fill="#4BC6CE"/>
<rect x="64.9268" y="34.0796" width="0.824238" height="0.817767" fill="#4BC6CE"/>
<rect x="64.9268" y="34.897" width="0.824238" height="0.817767" fill="#4BC6CE"/>
<rect x="65.751" y="35.7144" width="0.824238" height="0.817767" fill="#4BC6CE"/>
<rect x="65.751" y="36.5332" width="0.824238" height="0.817767" fill="#4BC6CE"/>
<rect x="65.751" y="37.3506" width="0.824238" height="0.817767" fill="#4BC6CE"/>
<rect x="40.2002" y="12" width="0.824238" height="0.817767" fill="#4BC6CE"/>
<rect x="41.0244" y="12" width="0.824238" height="0.817767" fill="#4BC6CE"/>
<rect x="42.6729" y="12" width="0.824238" height="0.817767" fill="#4BC6CE"/>
<rect x="43.4971" y="12" width="0.824238" height="0.817767" fill="#4BC6CE"/>
<rect x="44.3213" y="12" width="0.824238" height="0.817767" fill="#4BC6CE"/>
<rect x="45.1455" y="12.8174" width="0.824238" height="0.817767" fill="#4BC6CE"/>
<rect x="46.7939" y="12.8174" width="0.824238" height="0.817767" fill="#4BC6CE"/>
<rect x="47.6182" y="12.8174" width="0.824238" height="0.817767" fill="#4BC6CE"/>
<rect x="49.2666" y="13.6357" width="0.824238" height="0.817767" fill="#4BC6CE"/>
<rect x="50.0908" y="14.4536" width="0.824238" height="0.817767" fill="#4BC6CE"/>
<rect x="51.7393" y="15.271" width="0.824238" height="0.817767" fill="#4BC6CE"/>
<rect x="54.2119" y="16.0884" width="0.824238" height="0.817767" fill="#4BC6CE"/>
<rect x="66.5752" y="38.1689" width="0.824238" height="0.817767" fill="#4BC6CE"/>
<rect x="66.5752" y="38.9863" width="0.824238" height="0.817767" fill="#4BC6CE"/>
<rect x="66.5752" y="39.8037" width="0.824238" height="0.817767" fill="#4BC6CE"/>
<rect x="66.5752" y="40.6216" width="0.824238" height="0.817767" fill="#4BC6CE"/>
<rect x="65.751" y="40.6216" width="0.824238" height="0.817767" fill="#4BC6CE"/>
<rect x="65.751" y="41.4399" width="0.824238" height="0.817767" fill="#4BC6CE"/>
<rect x="65.751" y="42.2573" width="0.824238" height="0.817767" fill="#4BC6CE"/>
<rect x="65.751" y="43.0757" width="0.824238" height="0.817767" fill="#4BC6CE"/>
<rect x="65.751" y="43.8931" width="0.824238" height="0.817767" fill="#4BC6CE"/>
<rect x="65.751" y="44.7104" width="0.824238" height="0.817767" fill="#4BC6CE"/>
<rect x="65.751" y="45.5283" width="0.824238" height="0.817767" fill="#4BC6CE"/>
<rect x="64.9268" y="45.5283" width="0.824238" height="0.817767" fill="#4BC6CE"/>
<rect x="64.9268" y="46.3457" width="0.824238" height="0.817767" fill="#4BC6CE"/>
<rect x="64.9268" y="47.1641" width="0.824238" height="0.817767" fill="#4BC6CE"/>
<rect x="64.9268" y="47.9814" width="0.824238" height="0.817767" fill="#4BC6CE"/>
<rect x="64.1025" y="47.9814" width="0.824238" height="0.817767" fill="#4BC6CE"/>
<rect x="64.1025" y="48.7998" width="0.824238" height="0.817767" fill="#4BC6CE"/>
<rect x="64.1025" y="49.6177" width="0.824238" height="0.817767" fill="#4BC6CE"/>
<rect x="63.2783" y="49.6177" width="0.824238" height="0.817767" fill="#4BC6CE"/>
<rect x="63.2783" y="50.4351" width="0.824238" height="0.817767" fill="#4BC6CE"/>
<rect x="63.2783" y="51.2524" width="0.824238" height="0.817767" fill="#4BC6CE"/>
<rect x="62.4541" y="51.2524" width="0.824238" height="0.817767" fill="#4BC6CE"/>
<rect x="62.4541" y="52.0708" width="0.824238" height="0.817767" fill="#4BC6CE"/>
<rect x="61.6299" y="52.0708" width="0.824238" height="0.817767" fill="#4BC6CE"/>
<rect x="61.6299" y="52.8882" width="0.824238" height="0.817767" fill="#4BC6CE"/>
<rect x="61.6299" y="53.7065" width="0.824238" height="0.817767" fill="#4BC6CE"/>
<rect x="60.8057" y="53.7065" width="0.824238" height="0.817767" fill="#4BC6CE"/>
<rect x="60.8057" y="54.5244" width="0.824238" height="0.817767" fill="#4BC6CE"/>
<rect x="59.9814" y="54.5244" width="0.824238" height="0.817767" fill="#4BC6CE"/>
<rect x="59.9814" y="55.3418" width="0.824238" height="0.817767" fill="#4BC6CE"/>
<rect x="59.1572" y="55.3418" width="0.824238" height="0.817767" fill="#4BC6CE"/>
<rect x="59.1572" y="56.1592" width="0.824238" height="0.817767" fill="#4BC6CE"/>
<rect x="58.333" y="56.1592" width="0.824238" height="0.817767" fill="#4BC6CE"/>
<rect x="58.333" y="56.9766" width="0.824238" height="0.817767" fill="#4BC6CE"/>
<rect x="57.5088" y="56.9766" width="0.824238" height="0.817767" fill="#4BC6CE"/>
<rect x="57.5088" y="57.7949" width="0.824238" height="0.817767" fill="#4BC6CE"/>
<rect x="56.6846" y="57.7949" width="0.824238" height="0.817767" fill="#4BC6CE"/>
<rect x="56.6846" y="58.6128" width="0.824238" height="0.817767" fill="#4BC6CE"/>
<rect x="55.8604" y="58.6128" width="0.824238" height="0.817767" fill="#4BC6CE"/>
<rect x="55.8604" y="59.4302" width="0.824238" height="0.817767" fill="#4BC6CE"/>
<rect x="55.0361" y="59.4302" width="0.824238" height="0.817767" fill="#4BC6CE"/>
<rect x="55.0361" y="60.2476" width="0.824238" height="0.817767" fill="#4BC6CE"/>
<rect x="54.2119" y="60.2476" width="0.824238" height="0.817767" fill="#4BC6CE"/>
<rect x="52.5635" y="59.4302" width="0.824238" height="0.817767" fill="#4BC6CE"/>
<rect x="53.3877" y="60.2476" width="0.824238" height="0.817767" fill="#4BC6CE"/>
<rect x="53.3877" y="61.0659" width="0.824238" height="0.817767" fill="#4BC6CE"/>
<rect x="52.5635" y="61.0659" width="0.824238" height="0.817767" fill="#4BC6CE"/>
<rect x="51.7393" y="61.8833" width="0.824238" height="0.817767" fill="#4BC6CE"/>
<rect x="50.915" y="61.8833" width="0.824238" height="0.817767" fill="#4BC6CE"/>
<rect x="50.0908" y="62.7017" width="0.824238" height="0.817767" fill="#4BC6CE"/>
<rect x="49.2666" y="62.7017" width="0.824238" height="0.817767" fill="#4BC6CE"/>
<rect x="47.6182" y="63.5195" width="0.824238" height="0.817767" fill="#4BC6CE"/>
<rect x="46.7939" y="63.5195" width="0.824238" height="0.817767" fill="#4BC6CE"/>
<rect x="44.3213" y="64.3369" width="0.824238" height="0.817767" fill="#4BC6CE"/>
<rect x="43.4971" y="64.3369" width="0.824238" height="0.817767" fill="#4BC6CE"/>
<rect x="40.2002" y="64.3369" width="0.824238" height="0.817767" fill="#4BC6CE"/>
<rect x="39.376" y="64.3369" width="0.824238" height="0.817767" fill="#4BC6CE"/>
<rect x="41.0244" y="64.3369" width="0.824238" height="0.817767" fill="#4BC6CE"/>
<rect x="41.8486" y="64.3369" width="0.824238" height="0.817767" fill="#4BC6CE"/>
<rect x="42.6729" y="64.3369" width="0.824238" height="0.817767" fill="#4BC6CE"/>
<rect x="45.1455" y="64.3369" width="0.824238" height="0.817767" fill="#4BC6CE"/>
<rect x="45.9697" y="63.5195" width="0.824238" height="0.817767" fill="#4BC6CE"/>
<rect x="45.9697" y="64.3369" width="0.824238" height="0.817767" fill="#4BC6CE"/>
<rect x="48.4424" y="62.7017" width="0.824238" height="0.817767" fill="#4BC6CE"/>
<rect x="48.4424" y="63.5195" width="0.824238" height="0.817767" fill="#4BC6CE"/>
<rect x="50.915" y="62.7017" width="0.824238" height="0.817767" fill="#4BC6CE"/>
<rect x="52.5635" y="61.8833" width="0.824238" height="0.817767" fill="#4BC6CE"/>
<rect x="13.8242" y="38.1689" width="0.824238" height="0.817767" fill="#4BC6CE"/>
<rect x="13.8242" y="38.9863" width="0.824238" height="0.817767" fill="#4BC6CE"/>
<rect x="13.8242" y="39.8037" width="0.824238" height="0.817767" fill="#4BC6CE"/>
<rect x="13.8242" y="40.6216" width="0.824238" height="0.817767" fill="#4BC6CE"/>
<rect x="13.8242" y="41.4399" width="0.824238" height="0.817767" fill="#4BC6CE"/>
<rect x="13" y="42.2573" width="0.824238" height="0.817767" fill="#4BC6CE"/>
<rect x="14.6484" y="42.2573" width="0.824238" height="0.817767" fill="#4BC6CE"/>
<rect x="14.6484" y="43.0757" width="0.824238" height="0.817767" fill="#4BC6CE"/>
<rect x="14.6484" y="43.8931" width="0.824238" height="0.817767" fill="#4BC6CE"/>
<rect x="14.6484" y="44.7104" width="0.824238" height="0.817767" fill="#4BC6CE"/>
<rect x="13.8242" y="45.5283" width="0.824238" height="0.817767" fill="#4BC6CE"/>
<rect x="15.4727" y="45.5283" width="0.824238" height="0.817767" fill="#4BC6CE"/>
<rect x="15.4727" y="46.3457" width="0.824238" height="0.817767" fill="#4BC6CE"/>
<rect x="15.4727" y="47.1641" width="0.824238" height="0.817767" fill="#4BC6CE"/>
<rect x="14.6484" y="47.9814" width="0.824238" height="0.817767" fill="#4BC6CE"/>
<rect x="16.2969" y="47.9814" width="0.824238" height="0.817767" fill="#4BC6CE"/>
<rect x="16.2969" y="48.7998" width="0.824238" height="0.817767" fill="#4BC6CE"/>
<rect x="15.4727" y="49.6177" width="0.824238" height="0.817767" fill="#4BC6CE"/>
<rect x="17.1211" y="49.6177" width="0.824238" height="0.817767" fill="#4BC6CE"/>
<rect x="17.1211" y="50.4351" width="0.824238" height="0.817767" fill="#4BC6CE"/>
<rect x="16.2969" y="51.2524" width="0.824238" height="0.817767" fill="#4BC6CE"/>
<rect x="17.9453" y="51.2524" width="0.824238" height="0.817767" fill="#4BC6CE"/>
<rect x="17.9453" y="52.0708" width="0.824238" height="0.817767" fill="#4BC6CE"/>
<rect x="17.1211" y="52.8882" width="0.824238" height="0.817767" fill="#4BC6CE"/>
<rect x="18.7695" y="52.8882" width="0.824238" height="0.817767" fill="#4BC6CE"/>
<rect x="17.9453" y="53.7065" width="0.824238" height="0.817767" fill="#4BC6CE"/>
<rect x="19.5938" y="53.7065" width="0.824238" height="0.817767" fill="#4BC6CE"/>
<rect x="18.7695" y="54.5244" width="0.824238" height="0.817767" fill="#4BC6CE"/>
<rect x="20.418" y="54.5244" width="0.824238" height="0.817767" fill="#4BC6CE"/>
<rect x="20.418" y="55.3418" width="0.824238" height="0.817767" fill="#4BC6CE"/>
<rect x="19.5938" y="56.1592" width="0.824238" height="0.817767" fill="#4BC6CE"/>
<rect x="21.2422" y="56.1592" width="0.824238" height="0.817767" fill="#4BC6CE"/>
<rect x="20.418" y="56.9766" width="0.824238" height="0.817767" fill="#4BC6CE"/>
<rect x="22.0664" y="57.7949" width="0.824238" height="0.817767" fill="#4BC6CE"/>
<rect x="21.2422" y="57.7949" width="0.824238" height="0.817767" fill="#4BC6CE"/>
<rect x="23.7148" y="57.7949" width="0.824238" height="0.817767" fill="#4BC6CE"/>
<rect x="22.8906" y="58.6128" width="0.824238" height="0.817767" fill="#4BC6CE"/>
<rect x="24.5391" y="58.6128" width="0.824238" height="0.817767" fill="#4BC6CE"/>
<rect x="23.7148" y="59.4302" width="0.824238" height="0.817767" fill="#4BC6CE"/>
<rect x="25.3633" y="60.2476" width="0.824238" height="0.817767" fill="#4BC6CE"/>
<rect x="24.5391" y="60.2476" width="0.824238" height="0.817767" fill="#4BC6CE"/>
<rect x="26.1875" y="59.4302" width="0.824238" height="0.817767" fill="#4BC6CE"/>
<rect x="27.0117" y="60.2476" width="0.824238" height="0.817767" fill="#4BC6CE"/>
<rect x="26.1875" y="61.0659" width="0.824238" height="0.817767" fill="#4BC6CE"/>
<rect x="28.6602" y="61.0659" width="0.824238" height="0.817767" fill="#4BC6CE"/>
<rect x="27.8359" y="61.8833" width="0.824238" height="0.817767" fill="#4BC6CE"/>
<rect x="30.3096" y="62.7017" width="0.824238" height="0.817767" fill="#4BC6CE"/>
<rect x="29.4844" y="62.7017" width="0.824238" height="0.817767" fill="#4BC6CE"/>
<rect x="32.7812" y="63.5195" width="0.824238" height="0.817767" fill="#4BC6CE"/>
<rect x="31.958" y="63.5195" width="0.824238" height="0.817767" fill="#4BC6CE"/>
<rect x="36.0791" y="64.3369" width="0.824238" height="0.817767" fill="#4BC6CE"/>
<rect x="35.2549" y="64.3369" width="0.824238" height="0.817767" fill="#4BC6CE"/>
<rect x="22.8906" y="56.9766" width="0.824238" height="0.817767" fill="#4BC6CE"/>
<rect x="27.0117" y="61.8833" width="0.824238" height="0.817767" fill="#4BC6CE"/>
<rect x="28.6602" y="62.7017" width="0.824238" height="0.817767" fill="#4BC6CE"/>
<rect x="31.1328" y="61.8833" width="0.824238" height="0.817767" fill="#4BC6CE"/>
<rect x="31.1328" y="63.5195" width="0.824238" height="0.817767" fill="#4BC6CE"/>
<rect x="33.6055" y="62.7017" width="0.824238" height="0.817767" fill="#4BC6CE"/>
<rect x="34.4307" y="64.3369" width="0.824238" height="0.817767" fill="#4BC6CE"/>
<rect x="33.6055" y="64.3369" width="0.824238" height="0.817767" fill="#4BC6CE"/>
<rect x="36.9033" y="64.3369" width="0.824238" height="0.817767" fill="#4BC6CE"/>
<rect x="37.7275" y="64.3369" width="0.824238" height="0.817767" fill="#4BC6CE"/>
<rect x="38.5518" y="64.3369" width="0.824238" height="0.817767" fill="#4BC6CE"/>
<rect x="37.7275" y="12.8174" width="0.824238" height="0.817767" fill="#4BC6CE"/>
<rect x="36.9033" y="12.8174" width="0.824238" height="0.817767" fill="#4BC6CE"/>
<rect x="32.7812" y="13.6357" width="0.824238" height="0.817767" fill="#4BC6CE"/>
<rect x="31.958" y="13.6357" width="0.824238" height="0.817767" fill="#4BC6CE"/>
<rect x="30.3096" y="14.4536" width="0.824238" height="0.817767" fill="#4BC6CE"/>
<rect x="29.4844" y="14.4536" width="0.824238" height="0.817767" fill="#4BC6CE"/>
<rect x="28.6602" y="15.271" width="0.824238" height="0.817767" fill="#4BC6CE"/>
<rect x="27.8359" y="15.271" width="0.824238" height="0.817767" fill="#4BC6CE"/>
<rect x="27.0117" y="16.0884" width="0.824238" height="0.817767" fill="#4BC6CE"/>
<rect x="26.1875" y="16.0884" width="0.824238" height="0.817767" fill="#4BC6CE"/>
<rect x="26.1875" y="16.9067" width="0.824238" height="0.817767" fill="#4BC6CE"/>
<rect x="25.3633" y="16.9067" width="0.824238" height="0.817767" fill="#4BC6CE"/>
<rect x="24.5391" y="16.9067" width="0.824238" height="0.817767" fill="#4BC6CE"/>
<rect x="24.5391" y="17.7241" width="0.824238" height="0.817767" fill="#4BC6CE"/>
<rect x="23.7148" y="17.7241" width="0.824238" height="0.817767" fill="#4BC6CE"/>
<rect x="23.7148" y="18.5425" width="0.824238" height="0.817767" fill="#4BC6CE"/>
<rect x="22.8906" y="18.5425" width="0.824238" height="0.817767" fill="#4BC6CE"/>
<rect x="22.0664" y="17.7241" width="0.824238" height="0.817767" fill="#4BC6CE"/>
<rect x="22.8906" y="19.3604" width="0.824238" height="0.817767" fill="#4BC6CE"/>
<rect x="22.0664" y="19.3604" width="0.824238" height="0.817767" fill="#4BC6CE"/>
<rect x="22.0664" y="20.1777" width="0.824238" height="0.817767" fill="#4BC6CE"/>
<rect x="21.2422" y="20.1777" width="0.824238" height="0.817767" fill="#4BC6CE"/>
<rect x="21.2422" y="20.9951" width="0.824238" height="0.817767" fill="#4BC6CE"/>
<rect x="20.418" y="20.9951" width="0.824238" height="0.817767" fill="#4BC6CE"/>
<rect x="20.418" y="21.8135" width="0.824238" height="0.817767" fill="#4BC6CE"/>
<rect x="19.5938" y="21.8135" width="0.824238" height="0.817767" fill="#4BC6CE"/>
<rect x="19.5938" y="22.6309" width="0.824238" height="0.817767" fill="#4BC6CE"/>
<rect x="18.7695" y="22.6309" width="0.824238" height="0.817767" fill="#4BC6CE"/>
<rect x="18.7695" y="23.4487" width="0.824238" height="0.817767" fill="#4BC6CE"/>
<rect x="17.9453" y="23.4487" width="0.824238" height="0.817767" fill="#4BC6CE"/>
<rect x="17.9453" y="24.2661" width="0.824238" height="0.817767" fill="#4BC6CE"/>
<rect x="17.9453" y="25.0835" width="0.824238" height="0.817767" fill="#4BC6CE"/>
<rect x="17.1211" y="25.0835" width="0.824238" height="0.817767" fill="#4BC6CE"/>
<rect x="16.2969" y="24.2661" width="0.824238" height="0.817767" fill="#4BC6CE"/>
<rect x="17.1211" y="25.9019" width="0.824238" height="0.817767" fill="#4BC6CE"/>
<rect x="17.1211" y="26.7192" width="0.824238" height="0.817767" fill="#4BC6CE"/>
<rect x="16.2969" y="26.7192" width="0.824238" height="0.817767" fill="#4BC6CE"/>
<rect x="16.2969" y="27.5376" width="0.824238" height="0.817767" fill="#4BC6CE"/>
<rect x="16.2969" y="28.3555" width="0.824238" height="0.817767" fill="#4BC6CE"/>
<rect x="15.4727" y="28.3555" width="0.824238" height="0.817767" fill="#4BC6CE"/>
<rect x="15.4727" y="29.1729" width="0.824238" height="0.817767" fill="#4BC6CE"/>
<rect x="15.4727" y="29.9902" width="0.824238" height="0.817767" fill="#4BC6CE"/>
<rect x="15.4727" y="30.8086" width="0.824238" height="0.817767" fill="#4BC6CE"/>
<rect x="14.6484" y="30.8086" width="0.824238" height="0.817767" fill="#4BC6CE"/>
<rect x="14.6484" y="31.626" width="0.824238" height="0.817767" fill="#4BC6CE"/>
<rect x="14.6484" y="32.4448" width="0.824238" height="0.817767" fill="#4BC6CE"/>
<rect x="14.6484" y="33.2622" width="0.824238" height="0.817767" fill="#4BC6CE"/>
<rect x="14.6484" y="34.0796" width="0.824238" height="0.817767" fill="#4BC6CE"/>
<rect x="13.8242" y="34.0796" width="0.824238" height="0.817767" fill="#4BC6CE"/>
<rect x="13.8242" y="34.897" width="0.824238" height="0.817767" fill="#4BC6CE"/>
<rect x="13.8242" y="35.7144" width="0.824238" height="0.817767" fill="#4BC6CE"/>
<rect x="13.8242" y="36.5332" width="0.824238" height="0.817767" fill="#4BC6CE"/>
<rect x="13.8242" y="37.3506" width="0.824238" height="0.817767" fill="#4BC6CE"/>
<rect x="27.8359" y="16.0884" width="0.824238" height="0.817767" fill="#4BC6CE"/>
<rect x="29.4844" y="15.271" width="0.824238" height="0.817767" fill="#4BC6CE"/>
<rect x="31.1328" y="13.6357" width="0.824238" height="0.817767" fill="#4BC6CE"/>
<rect x="31.1328" y="14.4536" width="0.824238" height="0.817767" fill="#4BC6CE"/>
<rect x="33.6055" y="13.6357" width="0.824238" height="0.817767" fill="#4BC6CE"/>
<rect x="34.4307" y="12.8174" width="0.824238" height="0.817767" fill="#4BC6CE"/>
<rect x="34.4307" y="13.6357" width="0.824238" height="0.817767" fill="#4BC6CE"/>
<rect x="35.2549" y="12.8174" width="0.824238" height="0.817767" fill="#4BC6CE"/>
<rect x="36.0791" y="12.8174" width="0.824238" height="0.817767" fill="#4BC6CE"/>
<rect x="38.5518" y="12.8174" width="0.824238" height="0.817767" fill="#4BC6CE"/>
<rect x="39.376" y="12.8174" width="0.824238" height="0.817767" fill="#4BC6CE"/>
<rect x="40.2002" y="12.8174" width="0.824238" height="0.817767" fill="#4BC6CE"/>
<rect x="42.6729" y="12.8174" width="0.824238" height="0.817767" fill="#4BC6CE"/>
<rect x="41.8486" y="12.8174" width="0.824238" height="0.817767" fill="#4BC6CE"/>
<rect x="46.7939" y="13.6357" width="0.824238" height="0.817767" fill="#4BC6CE"/>
<rect x="45.9697" y="13.6357" width="0.824238" height="0.817767" fill="#4BC6CE"/>
<rect x="49.2666" y="14.4536" width="0.824238" height="0.817767" fill="#4BC6CE"/>
<rect x="48.4424" y="14.4536" width="0.824238" height="0.817767" fill="#4BC6CE"/>
<rect x="51.7393" y="14.4536" width="0.824238" height="0.817767" fill="#4BC6CE"/>
<rect x="50.915" y="15.271" width="0.824238" height="0.817767" fill="#4BC6CE"/>
<rect x="53.3877" y="15.271" width="0.824238" height="0.817767" fill="#4BC6CE"/>
<rect x="52.5635" y="16.0884" width="0.824238" height="0.817767" fill="#4BC6CE"/>
<rect x="54.2119" y="16.9067" width="0.824238" height="0.817767" fill="#4BC6CE"/>
<rect x="53.3877" y="16.9067" width="0.824238" height="0.817767" fill="#4BC6CE"/>
<rect x="55.8604" y="16.9067" width="0.824238" height="0.817767" fill="#4BC6CE"/>
<rect x="55.0361" y="17.7241" width="0.824238" height="0.817767" fill="#4BC6CE"/>
<rect x="56.6846" y="17.7241" width="0.824238" height="0.817767" fill="#4BC6CE"/>
<rect x="55.8604" y="18.5425" width="0.824238" height="0.817767" fill="#4BC6CE"/>
<rect x="57.5088" y="18.5425" width="0.824238" height="0.817767" fill="#4BC6CE"/>
<rect x="56.6846" y="19.3604" width="0.824238" height="0.817767" fill="#4BC6CE"/>
<rect x="58.333" y="19.3604" width="0.824238" height="0.817767" fill="#4BC6CE"/>
<rect x="57.5088" y="20.1777" width="0.824238" height="0.817767" fill="#4BC6CE"/>
<rect x="59.1572" y="20.1777" width="0.824238" height="0.817767" fill="#4BC6CE"/>
<rect x="58.333" y="20.9951" width="0.824238" height="0.817767" fill="#4BC6CE"/>
<rect x="59.9814" y="20.9951" width="0.824238" height="0.817767" fill="#4BC6CE"/>
<rect x="59.1572" y="21.8135" width="0.824238" height="0.817767" fill="#4BC6CE"/>
<rect x="60.8057" y="21.8135" width="0.824238" height="0.817767" fill="#4BC6CE"/>
<rect x="59.9814" y="22.6309" width="0.824238" height="0.817767" fill="#4BC6CE"/>
<rect x="61.6299" y="22.6309" width="0.824238" height="0.817767" fill="#4BC6CE"/>
<rect x="61.6299" y="23.4487" width="0.824238" height="0.817767" fill="#4BC6CE"/>
<rect x="60.8057" y="24.2661" width="0.824238" height="0.817767" fill="#4BC6CE"/>
<rect x="62.4541" y="24.2661" width="0.824238" height="0.817767" fill="#4BC6CE"/>
<rect x="61.6299" y="25.0835" width="0.824238" height="0.817767" fill="#4BC6CE"/>
<rect x="63.2783" y="25.0835" width="0.824238" height="0.817767" fill="#4BC6CE"/>
<rect x="63.2783" y="25.9019" width="0.824238" height="0.817767" fill="#4BC6CE"/>
<rect x="62.4541" y="26.7192" width="0.824238" height="0.817767" fill="#4BC6CE"/>
<rect x="64.1025" y="26.7192" width="0.824238" height="0.817767" fill="#4BC6CE"/>
<rect x="64.1025" y="27.5376" width="0.824238" height="0.817767" fill="#4BC6CE"/>
<rect x="64.1025" y="28.3555" width="0.824238" height="0.817767" fill="#4BC6CE"/>
<rect x="63.2783" y="29.1729" width="0.824238" height="0.817767" fill="#4BC6CE"/>
<rect x="64.9268" y="29.1729" width="0.824238" height="0.817767" fill="#4BC6CE"/>
<rect x="64.9268" y="29.9902" width="0.824238" height="0.817767" fill="#4BC6CE"/>
<rect x="64.9268" y="30.8086" width="0.824238" height="0.817767" fill="#4BC6CE"/>
<rect x="64.1025" y="31.626" width="0.824238" height="0.817767" fill="#4BC6CE"/>
<rect x="65.751" y="31.626" width="0.824238" height="0.817767" fill="#4BC6CE"/>
<rect x="65.751" y="32.4448" width="0.824238" height="0.817767" fill="#4BC6CE"/>
<rect x="65.751" y="33.2622" width="0.824238" height="0.817767" fill="#4BC6CE"/>
<rect x="65.751" y="34.0796" width="0.824238" height="0.817767" fill="#4BC6CE"/>
<rect x="65.751" y="34.897" width="0.824238" height="0.817767" fill="#4BC6CE"/>
<rect x="64.9268" y="35.7144" width="0.824238" height="0.817767" fill="#4BC6CE"/>
<rect x="66.5752" y="35.7144" width="0.824238" height="0.817767" fill="#4BC6CE"/>
<rect x="66.5752" y="36.5332" width="0.824238" height="0.817767" fill="#4BC6CE"/>
<rect x="66.5752" y="37.3506" width="0.824238" height="0.817767" fill="#4BC6CE"/>
<rect x="41.0244" y="12.8174" width="0.824238" height="0.817767" fill="#4BC6CE"/>
<rect x="43.4971" y="12.8174" width="0.824238" height="0.817767" fill="#4BC6CE"/>
<rect x="44.3213" y="12.8174" width="0.824238" height="0.817767" fill="#4BC6CE"/>
<rect x="45.1455" y="12" width="0.824238" height="0.817767" fill="#4BC6CE"/>
<rect x="45.1455" y="13.6357" width="0.824238" height="0.817767" fill="#4BC6CE"/>
<rect x="47.6182" y="13.6357" width="0.824238" height="0.817767" fill="#4BC6CE"/>
<rect x="48.4424" y="12.8174" width="0.824238" height="0.817767" fill="#4BC6CE"/>
<rect x="50.0908" y="13.6357" width="0.824238" height="0.817767" fill="#4BC6CE"/>
<rect x="50.0908" y="15.271" width="0.824238" height="0.817767" fill="#4BC6CE"/>
<rect x="51.7393" y="16.0884" width="0.824238" height="0.817767" fill="#4BC6CE"/>
<rect x="55.0361" y="16.0884" width="0.824238" height="0.817767" fill="#4BC6CE"/>
</svg>
