<svg width="301" height="105" viewBox="0 0 301 105" fill="none" xmlns="http://www.w3.org/2000/svg">
<path d="M287.609 103.071L13.5228 103V101.144V99.6441H12.0228H7.56485L7.41134 97.5651L7.3297 96.4595L6.24889 96.2131C5.48937 96.0399 5.05567 95.9382 4.75699 95.8301C4.68996 95.8058 4.64324 95.7857 4.61194 95.7708C4.59663 95.7123 4.57358 95.6006 4.55463 95.4077C4.51361 94.9901 4.50724 94.4169 4.49963 93.5187C4.49955 92.7997 4.48657 92.1389 4.40333 91.5768C4.3176 90.998 4.13844 90.3762 3.69624 89.8366C3.25168 89.2941 2.67702 88.9999 2.12838 88.8086C1.93247 88.7403 1.72205 88.6793 1.50012 88.623L1.5 15.7485C1.76564 15.7026 2.01894 15.6487 2.25035 15.5808C2.80208 15.4188 3.40737 15.1286 3.84856 14.515C4.25371 13.9516 4.38241 13.2991 4.44217 12.7393C4.50314 12.1681 4.51066 11.4617 4.51427 10.6555H4.51429V10.6488V10.6423V10.6359V10.6294V10.6229V10.6165V10.61V10.6035V10.5971V10.5906V10.5842V10.5777V10.5712V10.5648V10.5583V10.5518V10.5454V10.5389V10.5325V10.526V10.5195V10.5131V10.5066V10.5001V10.4937V10.4872V10.4808V10.4743V10.4678V10.4614V10.4549V10.4484V10.442V10.4355V10.429V10.4226V10.4161V10.4096V10.4032V10.3967V10.3903V10.3838V10.3773V10.3709V10.3644V10.3579V10.3515V10.345V10.3385V10.3321V10.3256V10.3191V10.3126V10.3062V10.2997V10.2932V10.2868V10.2803V10.2738V10.2674V10.2609V10.2544V10.248V10.2415V10.235V10.2285V10.2221V10.2156V10.2091V10.2026V10.1962V10.1897V10.1832V10.1768V10.1703V10.1638V10.1573V10.1509V10.1444V10.1379V10.1314V10.1249V10.1185V10.112V10.1055V10.099V10.0926V10.0861V10.0796V10.0731V10.0666V10.0601V10.0537V10.0472V10.0407V10.0342V10.0277V10.0213V10.0148V10.0083V10.0018V9.99531V9.98882V9.98234V9.97585V9.96936V9.96287V9.95638V9.94989V9.9434V9.93691V9.93042V9.92393V9.91744V9.91095V9.90445V9.89796V9.89147V9.88497V9.87848V9.87198V9.86548V9.85899V9.85249V9.84599V9.83949V9.83299V9.82649V9.81999V9.81349V9.80699V9.80049V9.79398V9.78748V9.78097V9.77447V9.76796V9.76146V9.75495V9.74844V9.74193V9.73542V9.72892V9.72241V9.71589V9.70938V9.70287V9.69636V9.68984V9.68333V9.67681V9.6703V9.66378V9.65726V9.65075V9.64423V9.63771V9.63119V9.62467V9.61814V9.61162V9.6051V9.59857V9.59205V9.58552V9.579V9.57247V9.56594V9.55941V9.55288V9.54635V9.53982V9.53329V9.52676V9.52022V9.51369V9.50715V9.50062V9.49408V9.48754V9.481V9.47446V9.46792V9.46138V9.45484V9.4483V9.44175V9.43521V9.42866V9.42212V9.41557V9.40902V9.40247V9.39592V9.38937V9.38282V9.37626V9.36971V9.36316V9.3566V9.35004V9.34348V9.33693V9.33037V9.32381V9.31724V9.31068V9.30412V9.29755V9.29099V9.28442V9.27785V9.27129V9.26472V9.25815V9.25157V9.245V9.23843V9.23185V9.22528V9.2187V9.21212V9.20554V9.19896V9.19238V9.1858V9.17922V9.17263V9.16605V9.15946V9.15287V9.14629V9.1397V9.1331V9.12651V9.11992V9.11333V9.10673V9.10013V9.09354V9.08694V9.08034V9.07374V9.06713V9.06053V9.05393V9.04732V9.04071V9.03411V9.0275V9.02089V9.01427V9.00766V9.00105V8.99443V8.98782V8.9812V8.97458V8.96796V8.96134V8.95472V8.94809V8.94147V8.93484V8.92821V8.92159V8.91496V8.90832V8.90169V8.89506V8.88842V8.88179V8.87515V8.86851V8.86187V8.85523V8.84858V8.84194V8.83529V8.82865V8.822V8.81535V8.8087V8.80205V8.79539V8.78874V8.78208V8.77542V8.76877V8.7621V8.75544V8.74878V8.74212V8.73545V8.72878V8.72211V8.71544V8.70877V8.7021V8.69542V8.68875V8.68207V8.67539V8.66871V8.66203V8.65535V8.64884L6.0566 8.5591L7.4148 8.48007L7.46831 7.12062L7.5495 5.0575H11.9291H13.3503L13.4269 3.63837L13.5424 1.5H287.569L287.738 3.67345L287.845 5.0575H289.233H293.594C293.624 5.75357 293.654 6.43095 293.69 7.18579L293.757 8.615H295.188H296.604V10.6251C296.604 11.4584 296.605 12.1878 296.663 12.7709C296.719 13.3444 296.847 14.0209 297.28 14.6012C297.742 15.2212 298.375 15.5016 298.93 15.6612C299.107 15.712 299.298 15.7564 299.5 15.7967L299.5 88.7037C299.279 88.7567 299.069 88.8147 298.876 88.8808C298.302 89.0771 297.694 89.4017 297.259 90.0451C296.86 90.6359 296.735 91.3162 296.677 91.9243C296.619 92.5438 296.615 93.3186 296.614 94.2228V94.2248V94.2305V94.2363V94.2421V94.2478V94.2536V94.2594V94.2651V94.2709V94.2767V94.2824V94.2882V94.294V94.2997V94.3055V94.3113V94.317V94.3228V94.3286V94.3343V94.3401V94.3459V94.3516V94.3574V94.3632V94.369V94.3747V94.3805V94.3863V94.392V94.3978V94.4036V94.4093V94.4151V94.4209V94.4267V94.4324V94.4382V94.444V94.4498V94.4555V94.4613V94.4671V94.4728V94.4786V94.4844V94.4902V94.4959V94.5017V94.5075V94.5133V94.5191V94.5248V94.5306V94.5364V94.5422V94.5479V94.5537V94.5595V94.5653V94.5711V94.5768V94.5826V94.5884V94.5942V94.6V94.6058V94.6115V94.6173V94.6231V94.6289V94.6347V94.6405V94.6463V94.652V94.6578V94.6636V94.6694V94.6752V94.681V94.6868V94.6926V94.6984V94.7042V94.71V94.7157V94.7215V94.7273V94.7331V94.7389V94.7447V94.7505V94.7563V94.7621V94.7679V94.7737V94.7795V94.7853V94.7911V94.7969V94.8027V94.8085V94.8144V94.8202V94.826V94.8318V94.8376V94.8434V94.8492V94.855V94.8608V94.8667V94.8725V94.8783V94.8841V94.8899V94.8957V94.9016V94.9074V94.9132V94.919V94.9248V94.9307V94.9365V94.9423V94.9481V94.954V94.9598V94.9656V94.9715V94.9773V94.9831V94.989V94.9948V95.0006V95.0065V95.0123V95.0181V95.024V95.0298V95.0357V95.0415V95.0473V95.0532V95.059V95.0649V95.0707V95.0766V95.0824V95.0883V95.0941V95.1V95.1059V95.1117V95.1176V95.1234V95.1293V95.1351V95.141V95.1469V95.1527V95.1586V95.1645V95.1703V95.1762V95.1821V95.188V95.1938V95.1997V95.2056V95.2114V95.2173V95.2232V95.2291V95.235V95.2409V95.2467V95.2526V95.2585V95.2644V95.2703V95.2762V95.2821V95.288V95.2939V95.2998V95.3057V95.3116V95.3175V95.3234V95.3293V95.3352V95.3411V95.347V95.3529V95.3588V95.3647V95.3707V95.3766V95.3825V95.3884V95.3943V95.4003V95.4062V95.4121V95.418V95.424V95.4299V95.4358V95.4418V95.4477V95.4536V95.4596V95.4655V95.4715V95.4774V95.4833V95.4893V95.4952V95.5012V95.5071V95.5131V95.5191V95.525V95.531V95.5369V95.5429V95.5489V95.5548V95.5608V95.5668V95.5727V95.5787V95.5847V95.5907V95.5966V95.6026V95.6086V95.6146V95.6206V95.6266V95.6325V95.6385V95.6445V95.6505V95.6565V95.6625V95.6685V95.6745V95.6805V95.6865V95.6925V95.6986V95.7046V95.7106V95.7166V95.7226V95.7286V95.7347V95.7407V95.7467V95.7527V95.7588V95.7648V95.7708V95.7769V95.7829V95.7889V95.795V95.801V95.8071V95.8131V95.8192V95.8252V95.8313V95.8373V95.8434V95.8495V95.8555V95.8616V95.8677V95.8737V95.8798V95.8859V95.8919V95.898V95.9041V95.9102V95.9163V95.9224V95.9284V95.9345V95.9406V95.9467V95.9528V95.9589V95.965V95.9711V95.9772V95.9813L295.08 96.1226L293.788 96.2416L293.72 97.5376C293.684 98.225 293.65 98.8789 293.613 99.5789H289.253H287.853L287.757 100.976C287.704 101.737 287.657 102.407 287.609 103.071ZM4.55729 95.741C4.55738 95.741 4.55884 95.7419 4.56132 95.7438C4.55846 95.742 4.55721 95.741 4.55729 95.741Z" fill="#809DE3" stroke="#2B57E4" stroke-width="3"/>
<path d="M62.1152 49.853H62.9295V50.6609H62.1152V49.853Z" fill="white"/>
<path d="M62.1152 50.6609H62.9295V51.4688H62.1152V50.6609Z" fill="white"/>
<path d="M62.1152 51.4688H62.9295V52.2767H62.1152V51.4688Z" fill="white"/>
<path d="M61.3009 52.2767H62.1152V53.0846H61.3009V52.2767Z" fill="white"/>
<path d="M61.3009 53.0846H62.1152V53.8926H61.3009V53.0846Z" fill="white"/>
<path d="M61.3009 53.8926H62.1152V54.7005H61.3009V53.8926Z" fill="white"/>
<path d="M61.3009 54.7005H62.1152V55.5084H61.3009V54.7005Z" fill="white"/>
<path d="M61.3009 55.5084H62.1152V56.3163H61.3009V55.5084Z" fill="white"/>
<path d="M61.3009 56.3163H62.1152V57.1242H61.3009V56.3163Z" fill="white"/>
<path d="M60.4866 57.1242H61.3009V57.9321H60.4866V57.1242Z" fill="white"/>
<path d="M60.4866 57.9321H61.3009V58.74H60.4866V57.9321Z" fill="white"/>
<path d="M60.4866 58.74H61.3009V59.5479H60.4866V58.74Z" fill="white"/>
<path d="M59.6723 59.5479H60.4866V60.3558H59.6723V59.5479Z" fill="white"/>
<path d="M59.6723 60.3558H60.4866V61.1637H59.6723V60.3558Z" fill="white"/>
<path d="M58.858 61.1637H59.6723V61.9716H58.858V61.1637Z" fill="white"/>
<path d="M58.858 61.9716H59.6723V62.7795H58.858V61.9716Z" fill="white"/>
<path d="M58.0437 62.7795H58.858V63.5874H58.0437V62.7795Z" fill="white"/>
<path d="M57.2294 63.5874H58.0437V64.3953H57.2294V63.5874Z" fill="white"/>
<path d="M57.2294 64.3953H58.0437V65.2032H57.2294V64.3953Z" fill="white"/>
<path d="M56.4151 65.2032H57.2294V66.0112H56.4151V65.2032Z" fill="white"/>
<path d="M55.6008 66.0112H56.4151V66.8191H55.6008V66.0112Z" fill="white"/>
<path d="M54.7865 66.8191H55.6008V67.627H54.7865V66.8191Z" fill="white"/>
<path d="M53.9722 67.627H54.7865V68.4349H53.9722V67.627Z" fill="white"/>
<path d="M53.1579 68.4349H53.9722V69.2428H53.1579V68.4349Z" fill="white"/>
<path d="M52.3436 69.2428H53.1579V70.0507H52.3436V69.2428Z" fill="white"/>
<path d="M51.5293 70.0507H52.3436V70.8586H51.5293V70.0507Z" fill="white"/>
<path d="M50.715 70.8586H51.5293V71.6665H50.715V70.8586Z" fill="white"/>
<path d="M49.0864 71.6665H49.9007V72.4744H49.0864V71.6665Z" fill="white"/>
<path d="M47.4578 72.4744H48.2721V73.2823H47.4578V72.4744Z" fill="white"/>
<path d="M45.8292 73.2823H46.6435V74.0902H45.8292V73.2823Z" fill="white"/>
<path d="M43.3863 74.0902H44.2006V74.8981H43.3863V74.0902Z" fill="white"/>
<path d="M40.1291 74.8981H40.9434V75.706H40.1291V74.8981Z" fill="white"/>
<path d="M36.0576 74.8981H36.8719V75.706H36.0576V74.8981Z" fill="white"/>
<path d="M36.8719 74.8981H37.6862V75.706H36.8719V74.8981Z" fill="white"/>
<path d="M37.6862 74.8981H38.5005V75.706H37.6862V74.8981Z" fill="white"/>
<path d="M38.5005 74.8981H39.3148V75.706H38.5005V74.8981Z" fill="white"/>
<path d="M39.3148 74.8981H40.1291V75.706H39.3148V74.8981Z" fill="white"/>
<path d="M40.9434 74.8981H41.7577V75.706H40.9434V74.8981Z" fill="white"/>
<path d="M41.7577 74.8981H42.572V75.706H41.7577V74.8981Z" fill="white"/>
<path d="M42.572 74.0902H43.3863V74.8981H42.572V74.0902Z" fill="white"/>
<path d="M44.2006 74.0902H45.0149V74.8981H44.2006V74.0902Z" fill="white"/>
<path d="M45.0149 73.2823H45.8292V74.0902H45.0149V73.2823Z" fill="white"/>
<path d="M46.6435 73.2823H47.4578V74.0902H46.6435V73.2823Z" fill="white"/>
<path d="M48.2721 72.4744H49.0864V73.2823H48.2721V72.4744Z" fill="white"/>
<path d="M49.9007 70.8586H50.715V71.6665H49.9007V70.8586Z" fill="white"/>
<path d="M10 49.853H10.8143V50.6609H10V49.853Z" fill="white"/>
<path d="M10 50.6609H10.8143V51.4688H10V50.6609Z" fill="white"/>
<path d="M10 51.4688H10.8143V52.2767H10V51.4688Z" fill="white"/>
<path d="M10 52.2767H10.8143V53.0846H10V52.2767Z" fill="white"/>
<path d="M10 53.0846H10.8143V53.8926H10V53.0846Z" fill="white"/>
<path d="M10.8143 53.8926H11.6286V54.7005H10.8143V53.8926Z" fill="white"/>
<path d="M10.8143 54.7005H11.6286V55.5084H10.8143V54.7005Z" fill="white"/>
<path d="M10.8143 55.5084H11.6286V56.3163H10.8143V55.5084Z" fill="white"/>
<path d="M10.8143 56.3163H11.6286V57.1242H10.8143V56.3163Z" fill="white"/>
<path d="M11.6286 57.1242H12.4429V57.9321H11.6286V57.1242Z" fill="white"/>
<path d="M11.6286 57.9321H12.4429V58.74H11.6286V57.9321Z" fill="white"/>
<path d="M11.6286 58.74H12.4429V59.5479H11.6286V58.74Z" fill="white"/>
<path d="M12.4429 59.5479H13.2572V60.3558H12.4429V59.5479Z" fill="white"/>
<path d="M12.4429 60.3558H13.2572V61.1637H12.4429V60.3558Z" fill="white"/>
<path d="M13.2572 61.1637H14.0715V61.9716H13.2572V61.1637Z" fill="white"/>
<path d="M13.2572 61.9716H14.0715V62.7795H13.2572V61.9716Z" fill="white"/>
<path d="M14.0715 62.7795H14.8858V63.5874H14.0715V62.7795Z" fill="white"/>
<path d="M14.0715 63.5874H14.8858V64.3953H14.0715V63.5874Z" fill="white"/>
<path d="M14.8858 64.3953H15.7001V65.2032H14.8858V64.3953Z" fill="white"/>
<path d="M15.7001 65.2032H16.5144V66.0112H15.7001V65.2032Z" fill="white"/>
<path d="M16.5144 66.0112H17.3287V66.8191H16.5144V66.0112Z" fill="white"/>
<path d="M16.5144 66.8191H17.3287V67.627H16.5144V66.8191Z" fill="white"/>
<path d="M17.3287 67.627H18.143V68.4349H17.3287V67.627Z" fill="white"/>
<path d="M18.143 68.4349H18.9573V69.2428H18.143V68.4349Z" fill="white"/>
<path d="M19.7716 69.2428H20.5859V70.0507H19.7716V69.2428Z" fill="white"/>
<path d="M20.5859 70.0507H21.4002V70.8586H20.5859V70.0507Z" fill="white"/>
<path d="M21.4002 70.8586H22.2145V71.6665H21.4002V70.8586Z" fill="white"/>
<path d="M23.0288 71.6665H23.8431V72.4744H23.0288V71.6665Z" fill="white"/>
<path d="M24.6574 72.4744H25.4717V73.2823H24.6574V72.4744Z" fill="white"/>
<path d="M26.286 73.2823H27.1003V74.0902H26.286V73.2823Z" fill="white"/>
<path d="M28.7289 74.0902H29.5432V74.8981H28.7289V74.0902Z" fill="white"/>
<path d="M31.9861 74.8981H32.8004V75.706H31.9861V74.8981Z" fill="white"/>
<path d="M18.9573 68.4349H19.7716V69.2428H18.9573V68.4349Z" fill="white"/>
<path d="M22.2145 70.8586H23.0288V71.6665H22.2145V70.8586Z" fill="white"/>
<path d="M23.8431 72.4744H24.6574V73.2823H23.8431V72.4744Z" fill="white"/>
<path d="M25.4717 73.2823H26.286V74.0902H25.4717V73.2823Z" fill="white"/>
<path d="M27.1003 73.2823H27.9146V74.0902H27.1003V73.2823Z" fill="white"/>
<path d="M27.9146 74.0902H28.7289V74.8981H27.9146V74.0902Z" fill="white"/>
<path d="M29.5432 74.0902H30.3575V74.8981H29.5432V74.0902Z" fill="white"/>
<path d="M30.3575 74.8981H31.1718V75.706H30.3575V74.8981Z" fill="white"/>
<path d="M31.1718 74.8981H31.9861V75.706H31.1718V74.8981Z" fill="white"/>
<path d="M32.8004 74.8981H33.6147V75.706H32.8004V74.8981Z" fill="white"/>
<path d="M33.6147 74.8981H34.429V75.706H33.6147V74.8981Z" fill="white"/>
<path d="M34.429 74.8981H35.2433V75.706H34.429V74.8981Z" fill="white"/>
<path d="M35.2433 74.8981H36.0576V75.706H35.2433V74.8981Z" fill="white"/>
<path d="M33.6147 24H34.429V24.8079H33.6147V24Z" fill="white"/>
<path d="M28.7289 24.8079H29.5432V25.6158H28.7289V24.8079Z" fill="white"/>
<path d="M26.286 25.6158H27.1003V26.4237H26.286V25.6158Z" fill="white"/>
<path d="M24.6574 26.4237H25.4717V27.2316H24.6574V26.4237Z" fill="white"/>
<path d="M23.0288 27.2316H23.8431V28.0395H23.0288V27.2316Z" fill="white"/>
<path d="M22.2145 28.0395H23.0288V28.8474H22.2145V28.0395Z" fill="white"/>
<path d="M20.5859 28.8474H21.4002V29.6553H20.5859V28.8474Z" fill="white"/>
<path d="M19.7716 29.6553H20.5859V30.4633H19.7716V29.6553Z" fill="white"/>
<path d="M18.9573 30.4633H19.7716V31.2712H18.9573V30.4633Z" fill="white"/>
<path d="M18.143 31.2712H18.9573V32.0791H18.143V31.2712Z" fill="white"/>
<path d="M17.3287 32.0791H18.143V32.887H17.3287V32.0791Z" fill="white"/>
<path d="M16.5144 32.887H17.3287V33.6949H16.5144V32.887Z" fill="white"/>
<path d="M15.7001 33.6949H16.5144V34.5028H15.7001V33.6949Z" fill="white"/>
<path d="M14.8858 34.5028H15.7001V35.3107H14.8858V34.5028Z" fill="white"/>
<path d="M14.0715 35.3107H14.8858V36.1186H14.0715V35.3107Z" fill="white"/>
<path d="M14.0715 36.1186H14.8858V36.9265H14.0715V36.1186Z" fill="white"/>
<path d="M13.2572 36.9265H14.0715V37.7344H13.2572V36.9265Z" fill="white"/>
<path d="M13.2572 37.7344H14.0715V38.5423H13.2572V37.7344Z" fill="white"/>
<path d="M12.4429 38.5423H13.2572V39.3502H12.4429V38.5423Z" fill="white"/>
<path d="M12.4429 39.3502H13.2572V40.1581H12.4429V39.3502Z" fill="white"/>
<path d="M11.6286 40.1581H12.4429V40.966H11.6286V40.1581Z" fill="white"/>
<path d="M11.6286 40.966H12.4429V41.774H11.6286V40.966Z" fill="white"/>
<path d="M11.6286 41.774H12.4429V42.5819H11.6286V41.774Z" fill="white"/>
<path d="M10.8143 42.5819H11.6286V43.3898H10.8143V42.5819Z" fill="white"/>
<path d="M10.8143 43.3898H11.6286V44.1977H10.8143V43.3898Z" fill="white"/>
<path d="M10.8143 44.1977H11.6286V45.0056H10.8143V44.1977Z" fill="white"/>
<path d="M10.8143 45.0056H11.6286V45.8135H10.8143V45.0056Z" fill="white"/>
<path d="M10 45.8135H10.8143V46.6214H10V45.8135Z" fill="white"/>
<path d="M10 46.6214H10.8143V47.4293H10V46.6214Z" fill="white"/>
<path d="M10 47.4293H10.8143V48.2372H10V47.4293Z" fill="white"/>
<path d="M10 48.2372H10.8143V49.0451H10V48.2372Z" fill="white"/>
<path d="M10 49.0451H10.8143V49.853H10V49.0451Z" fill="white"/>
<path d="M21.4002 28.0395H22.2145V28.8474H21.4002V28.0395Z" fill="white"/>
<path d="M23.8431 27.2316H24.6574V28.0395H23.8431V27.2316Z" fill="white"/>
<path d="M25.4717 26.4237H26.286V27.2316H25.4717V26.4237Z" fill="white"/>
<path d="M27.1003 25.6158H27.9146V26.4237H27.1003V25.6158Z" fill="white"/>
<path d="M27.9146 24.8079H28.7289V25.6158H27.9146V24.8079Z" fill="white"/>
<path d="M29.5432 24.8079H30.3575V25.6158H29.5432V24.8079Z" fill="white"/>
<path d="M30.3575 24.8079H31.1718V25.6158H30.3575V24.8079Z" fill="white"/>
<path d="M31.1718 24H31.9861V24.8079H31.1718V24Z" fill="white"/>
<path d="M31.9861 24H32.8004V24.8079H31.9861V24Z" fill="white"/>
<path d="M32.8004 24H33.6147V24.8079H32.8004V24Z" fill="white"/>
<path d="M34.429 24H35.2433V24.8079H34.429V24Z" fill="white"/>
<path d="M35.2433 24H36.0576V24.8079H35.2433V24Z" fill="white"/>
<path d="M36.0576 24H36.8719V24.8079H36.0576V24Z" fill="white"/>
<path d="M38.5005 24H39.3148V24.8079H38.5005V24Z" fill="white"/>
<path d="M42.572 24.8079H43.3863V25.6158H42.572V24.8079Z" fill="white"/>
<path d="M45.0149 25.6158H45.8292V26.4237H45.0149V25.6158Z" fill="white"/>
<path d="M47.4578 26.4237H48.2721V27.2316H47.4578V26.4237Z" fill="white"/>
<path d="M49.0864 27.2316H49.9007V28.0395H49.0864V27.2316Z" fill="white"/>
<path d="M49.9007 28.0395H50.715V28.8474H49.9007V28.0395Z" fill="white"/>
<path d="M51.5293 28.8474H52.3436V29.6553H51.5293V28.8474Z" fill="white"/>
<path d="M52.3436 29.6553H53.1579V30.4633H52.3436V29.6553Z" fill="white"/>
<path d="M53.1579 30.4633H53.9722V31.2712H53.1579V30.4633Z" fill="white"/>
<path d="M53.9722 31.2712H54.7865V32.0791H53.9722V31.2712Z" fill="white"/>
<path d="M54.7865 32.0791H55.6008V32.887H54.7865V32.0791Z" fill="white"/>
<path d="M55.6008 32.887H56.4151V33.6949H55.6008V32.887Z" fill="white"/>
<path d="M56.4151 33.6949H57.2294V34.5028H56.4151V33.6949Z" fill="white"/>
<path d="M57.2294 34.5028H58.0437V35.3107H57.2294V34.5028Z" fill="white"/>
<path d="M57.2294 35.3107H58.0437V36.1186H57.2294V35.3107Z" fill="white"/>
<path d="M58.0437 36.1186H58.858V36.9265H58.0437V36.1186Z" fill="white"/>
<path d="M58.858 36.9265H59.6723V37.7344H58.858V36.9265Z" fill="white"/>
<path d="M58.858 37.7344H59.6723V38.5423H58.858V37.7344Z" fill="white"/>
<path d="M59.6723 38.5423H60.4866V39.3502H59.6723V38.5423Z" fill="white"/>
<path d="M59.6723 39.3502H60.4866V40.1581H59.6723V39.3502Z" fill="white"/>
<path d="M59.6723 40.1581H60.4866V40.966H59.6723V40.1581Z" fill="white"/>
<path d="M60.4866 40.966H61.3009V41.774H60.4866V40.966Z" fill="white"/>
<path d="M60.4866 41.774H61.3009V42.5819H60.4866V41.774Z" fill="white"/>
<path d="M60.4866 42.5819H61.3009V43.3898H60.4866V42.5819Z" fill="white"/>
<path d="M61.3009 43.3898H62.1152V44.1977H61.3009V43.3898Z" fill="white"/>
<path d="M61.3009 44.1977H62.1152V45.0056H61.3009V44.1977Z" fill="white"/>
<path d="M61.3009 45.0056H62.1152V45.8135H61.3009V45.0056Z" fill="white"/>
<path d="M61.3009 45.8135H62.1152V46.6214H61.3009V45.8135Z" fill="white"/>
<path d="M61.3009 46.6214H62.1152V47.4293H61.3009V46.6214Z" fill="white"/>
<path d="M62.1152 47.4293H62.9295V48.2372H62.1152V47.4293Z" fill="white"/>
<path d="M62.1152 48.2372H62.9295V49.0451H62.1152V48.2372Z" fill="white"/>
<path d="M62.1152 49.0451H62.9295V49.853H62.1152V49.0451Z" fill="white"/>
<path d="M36.8719 24H37.6862V24.8079H36.8719V24Z" fill="white"/>
<path d="M37.6862 24H38.5005V24.8079H37.6862V24Z" fill="white"/>
<path d="M39.3148 24H40.1291V24.8079H39.3148V24Z" fill="white"/>
<path d="M40.1291 24H40.9434V24.8079H40.1291V24Z" fill="white"/>
<path d="M40.9434 24H41.7577V24.8079H40.9434V24Z" fill="white"/>
<path d="M41.7577 24.8079H42.572V25.6158H41.7577V24.8079Z" fill="white"/>
<path d="M43.3863 24.8079H44.2006V25.6158H43.3863V24.8079Z" fill="white"/>
<path d="M44.2006 24.8079H45.0149V25.6158H44.2006V24.8079Z" fill="white"/>
<path d="M45.8292 25.6158H46.6435V26.4237H45.8292V25.6158Z" fill="white"/>
<path d="M46.6435 26.4237H47.4578V27.2316H46.6435V26.4237Z" fill="white"/>
<path d="M48.2721 27.2316H49.0864V28.0395H48.2721V27.2316Z" fill="white"/>
<path d="M50.715 28.0395H51.5293V28.8474H50.715V28.0395Z" fill="white"/>
<rect x="62.1152" y="49.853" width="0.814299" height="0.807907" fill="white"/>
<rect x="62.1152" y="50.6611" width="0.814299" height="0.807907" fill="white"/>
<rect x="62.1152" y="51.4683" width="0.814299" height="0.807907" fill="white"/>
<rect x="61.3008" y="52.2764" width="0.814299" height="0.807907" fill="white"/>
<rect x="61.3008" y="53.0835" width="0.814299" height="0.807907" fill="white"/>
<rect x="61.3008" y="53.8931" width="0.814299" height="0.807907" fill="white"/>
<rect x="61.3008" y="54.7002" width="0.814299" height="0.807907" fill="white"/>
<rect x="61.3008" y="55.5083" width="0.814299" height="0.807907" fill="white"/>
<rect x="61.3008" y="56.3154" width="0.814299" height="0.807907" fill="white"/>
<rect x="60.4863" y="57.1235" width="0.814299" height="0.807907" fill="white"/>
<rect x="60.4863" y="57.9316" width="0.814299" height="0.807907" fill="white"/>
<rect x="60.4863" y="58.7402" width="0.814299" height="0.807907" fill="white"/>
<rect x="59.6719" y="59.5474" width="0.814299" height="0.807907" fill="white"/>
<rect x="59.6719" y="60.3555" width="0.814299" height="0.807907" fill="white"/>
<rect x="58.8584" y="61.1636" width="0.814299" height="0.807907" fill="white"/>
<rect x="58.8584" y="61.9717" width="0.814299" height="0.807907" fill="white"/>
<rect x="58.0439" y="62.7793" width="0.814299" height="0.807907" fill="white"/>
<rect x="57.2295" y="63.5874" width="0.814299" height="0.807907" fill="white"/>
<rect x="57.2295" y="64.3945" width="0.814299" height="0.807907" fill="white"/>
<rect x="56.415" y="65.2026" width="0.814299" height="0.807907" fill="white"/>
<rect x="55.6006" y="66.0107" width="0.814299" height="0.807907" fill="white"/>
<rect x="54.7861" y="66.8188" width="0.814299" height="0.807907" fill="white"/>
<rect x="53.9727" y="67.6265" width="0.814299" height="0.807907" fill="white"/>
<rect x="53.1582" y="68.4346" width="0.814299" height="0.807907" fill="white"/>
<rect x="52.3438" y="69.2427" width="0.814299" height="0.807907" fill="white"/>
<rect x="51.5293" y="70.0508" width="0.814299" height="0.807907" fill="white"/>
<rect x="50.7148" y="70.8579" width="0.814299" height="0.807907" fill="white"/>
<rect x="49.0859" y="71.666" width="0.814299" height="0.807907" fill="white"/>
<rect x="47.458" y="72.4736" width="0.814299" height="0.807907" fill="white"/>
<rect x="45.8291" y="73.2827" width="0.814299" height="0.807907" fill="white"/>
<rect x="43.3867" y="74.0898" width="0.814299" height="0.807907" fill="white"/>
<rect x="40.1289" y="74.8979" width="0.814299" height="0.807907" fill="white"/>
<rect x="36.0576" y="74.8979" width="0.814299" height="0.807907" fill="white"/>
<rect x="36.8721" y="74.8979" width="0.814299" height="0.807907" fill="white"/>
<rect x="37.6865" y="74.8979" width="0.814299" height="0.807907" fill="white"/>
<rect x="38.5" y="74.8979" width="0.814299" height="0.807907" fill="white"/>
<rect x="39.3145" y="74.8979" width="0.814299" height="0.807907" fill="white"/>
<rect x="40.9434" y="74.8979" width="0.814299" height="0.807907" fill="white"/>
<rect x="41.7578" y="74.8979" width="0.814299" height="0.807907" fill="white"/>
<rect x="42.5723" y="74.0898" width="0.814299" height="0.807907" fill="white"/>
<rect x="44.2002" y="74.0898" width="0.814299" height="0.807907" fill="white"/>
<rect x="45.0146" y="73.2827" width="0.814299" height="0.807907" fill="white"/>
<rect x="46.6436" y="73.2827" width="0.814299" height="0.807907" fill="white"/>
<rect x="48.2725" y="72.4736" width="0.814299" height="0.807907" fill="white"/>
<rect x="49.9004" y="70.8579" width="0.814299" height="0.807907" fill="white"/>
<rect x="10" y="49.853" width="0.814299" height="0.807907" fill="white"/>
<rect x="10" y="50.6611" width="0.814299" height="0.807907" fill="white"/>
<rect x="10" y="51.4683" width="0.814299" height="0.807907" fill="white"/>
<rect x="10" y="52.2764" width="0.814299" height="0.807907" fill="white"/>
<rect x="10" y="53.0835" width="0.814299" height="0.807907" fill="white"/>
<rect x="10.8145" y="53.8931" width="0.814299" height="0.807907" fill="white"/>
<rect x="10.8145" y="54.7002" width="0.814299" height="0.807907" fill="white"/>
<rect x="10.8145" y="55.5083" width="0.814299" height="0.807907" fill="white"/>
<rect x="10.8145" y="56.3154" width="0.814299" height="0.807907" fill="white"/>
<rect x="11.6289" y="57.1235" width="0.814299" height="0.807907" fill="white"/>
<rect x="11.6289" y="57.9316" width="0.814299" height="0.807907" fill="white"/>
<rect x="11.6289" y="58.7402" width="0.814299" height="0.807907" fill="white"/>
<rect x="12.4434" y="59.5474" width="0.814299" height="0.807907" fill="white"/>
<rect x="12.4434" y="60.3555" width="0.814299" height="0.807907" fill="white"/>
<rect x="13.2568" y="61.1636" width="0.814299" height="0.807907" fill="white"/>
<rect x="13.2568" y="61.9717" width="0.814299" height="0.807907" fill="white"/>
<rect x="14.0713" y="62.7793" width="0.814299" height="0.807907" fill="white"/>
<rect x="14.0713" y="63.5874" width="0.814299" height="0.807907" fill="white"/>
<rect x="14.8857" y="64.3945" width="0.814299" height="0.807907" fill="white"/>
<rect x="15.7002" y="65.2026" width="0.814299" height="0.807907" fill="white"/>
<rect x="16.5146" y="66.0107" width="0.814299" height="0.807907" fill="white"/>
<rect x="16.5146" y="66.8188" width="0.814299" height="0.807907" fill="white"/>
<rect x="17.3291" y="67.6265" width="0.814299" height="0.807907" fill="white"/>
<rect x="18.1426" y="68.4346" width="0.814299" height="0.807907" fill="white"/>
<rect x="19.7715" y="69.2427" width="0.814299" height="0.807907" fill="white"/>
<rect x="20.5859" y="70.0508" width="0.814299" height="0.807907" fill="white"/>
<rect x="21.4004" y="70.8579" width="0.814299" height="0.807907" fill="white"/>
<rect x="23.0283" y="71.666" width="0.814299" height="0.807907" fill="white"/>
<rect x="24.6572" y="72.4736" width="0.814299" height="0.807907" fill="white"/>
<rect x="26.2861" y="73.2827" width="0.814299" height="0.807907" fill="white"/>
<rect x="28.7285" y="74.0898" width="0.814299" height="0.807907" fill="white"/>
<rect x="31.9863" y="74.8979" width="0.814299" height="0.807907" fill="white"/>
<rect x="18.957" y="68.4346" width="0.814299" height="0.807907" fill="white"/>
<rect x="22.2148" y="70.8579" width="0.814299" height="0.807907" fill="white"/>
<rect x="23.8428" y="72.4736" width="0.814299" height="0.807907" fill="white"/>
<rect x="25.4717" y="73.2827" width="0.814299" height="0.807907" fill="white"/>
<rect x="27.1006" y="73.2827" width="0.814299" height="0.807907" fill="white"/>
<rect x="27.915" y="74.0898" width="0.814299" height="0.807907" fill="white"/>
<rect x="29.543" y="74.0898" width="0.814299" height="0.807907" fill="white"/>
<rect x="30.3574" y="74.8979" width="0.814299" height="0.807907" fill="white"/>
<rect x="31.1719" y="74.8979" width="0.814299" height="0.807907" fill="white"/>
<rect x="32.8008" y="74.8979" width="0.814299" height="0.807907" fill="white"/>
<rect x="33.6143" y="74.8979" width="0.814299" height="0.807907" fill="white"/>
<rect x="34.4287" y="74.8979" width="0.814299" height="0.807907" fill="white"/>
<rect x="35.2432" y="74.8979" width="0.814299" height="0.807907" fill="white"/>
<rect x="33.6143" y="24" width="0.814299" height="0.807907" fill="white"/>
<rect x="28.7285" y="24.8076" width="0.814299" height="0.807907" fill="white"/>
<rect x="26.2861" y="25.6152" width="0.814299" height="0.807907" fill="white"/>
<rect x="24.6572" y="26.4233" width="0.814299" height="0.807907" fill="white"/>
<rect x="23.0283" y="27.2314" width="0.814299" height="0.807907" fill="white"/>
<rect x="22.2148" y="28.0396" width="0.814299" height="0.807907" fill="white"/>
<rect x="20.5859" y="28.8467" width="0.814299" height="0.807907" fill="white"/>
<rect x="19.7715" y="29.6548" width="0.814299" height="0.807907" fill="white"/>
<rect x="18.957" y="30.4634" width="0.814299" height="0.807907" fill="white"/>
<rect x="18.1426" y="31.2715" width="0.814299" height="0.807907" fill="white"/>
<rect x="17.3291" y="32.0786" width="0.814299" height="0.807907" fill="white"/>
<rect x="16.5146" y="32.8867" width="0.814299" height="0.807907" fill="white"/>
<rect x="15.7002" y="33.6938" width="0.814299" height="0.807907" fill="white"/>
<rect x="14.8857" y="34.5029" width="0.814299" height="0.807907" fill="white"/>
<rect x="14.0713" y="35.3105" width="0.814299" height="0.807907" fill="white"/>
<rect x="14.0713" y="36.1187" width="0.814299" height="0.807907" fill="white"/>
<rect x="13.2568" y="36.9258" width="0.814299" height="0.807907" fill="white"/>
<rect x="13.2568" y="37.7339" width="0.814299" height="0.807907" fill="white"/>
<rect x="12.4434" y="38.542" width="0.814299" height="0.807907" fill="white"/>
<rect x="12.4434" y="39.3501" width="0.814299" height="0.807907" fill="white"/>
<rect x="11.6289" y="40.1577" width="0.814299" height="0.807907" fill="white"/>
<rect x="11.6289" y="40.9658" width="0.814299" height="0.807907" fill="white"/>
<rect x="11.6289" y="41.7739" width="0.814299" height="0.807907" fill="white"/>
<rect x="10.8145" y="42.582" width="0.814299" height="0.807907" fill="white"/>
<rect x="10.8145" y="43.3892" width="0.814299" height="0.807907" fill="white"/>
<rect x="10.8145" y="44.1978" width="0.814299" height="0.807907" fill="white"/>
<rect x="10.8145" y="45.0049" width="0.814299" height="0.807907" fill="white"/>
<rect x="10" y="45.813" width="0.814299" height="0.807907" fill="white"/>
<rect x="10" y="46.6211" width="0.814299" height="0.807907" fill="white"/>
<rect x="10" y="47.4292" width="0.814299" height="0.807907" fill="white"/>
<rect x="10" y="48.2363" width="0.814299" height="0.807907" fill="white"/>
<rect x="10" y="49.0449" width="0.814299" height="0.807907" fill="white"/>
<rect x="21.4004" y="28.0396" width="0.814299" height="0.807907" fill="white"/>
<rect x="23.8428" y="27.2314" width="0.814299" height="0.807907" fill="white"/>
<rect x="25.4717" y="26.4233" width="0.814299" height="0.807907" fill="white"/>
<rect x="27.1006" y="25.6152" width="0.814299" height="0.807907" fill="white"/>
<rect x="27.915" y="24.8076" width="0.814299" height="0.807907" fill="white"/>
<rect x="29.543" y="24.8076" width="0.814299" height="0.807907" fill="white"/>
<rect x="30.3574" y="24.8076" width="0.814299" height="0.807907" fill="white"/>
<rect x="31.1719" y="24" width="0.814299" height="0.807907" fill="white"/>
<rect x="31.9863" y="24" width="0.814299" height="0.807907" fill="white"/>
<rect x="32.8008" y="24" width="0.814299" height="0.807907" fill="white"/>
<rect x="34.4287" y="24" width="0.814299" height="0.807907" fill="white"/>
<rect x="35.2432" y="24" width="0.814299" height="0.807907" fill="white"/>
<rect x="36.0576" y="24" width="0.814299" height="0.807907" fill="white"/>
<rect x="38.5" y="24" width="0.814299" height="0.807907" fill="white"/>
<rect x="42.5723" y="24.8076" width="0.814299" height="0.807907" fill="white"/>
<rect x="45.0146" y="25.6152" width="0.814299" height="0.807907" fill="white"/>
<rect x="47.458" y="26.4233" width="0.814299" height="0.807907" fill="white"/>
<rect x="49.0859" y="27.2314" width="0.814299" height="0.807907" fill="white"/>
<rect x="49.9004" y="28.0396" width="0.814299" height="0.807907" fill="white"/>
<rect x="51.5293" y="28.8467" width="0.814299" height="0.807907" fill="white"/>
<rect x="52.3438" y="29.6548" width="0.814299" height="0.807907" fill="white"/>
<rect x="53.1582" y="30.4634" width="0.814299" height="0.807907" fill="white"/>
<rect x="53.9727" y="31.2715" width="0.814299" height="0.807907" fill="white"/>
<rect x="54.7861" y="32.0786" width="0.814299" height="0.807907" fill="white"/>
<rect x="55.6006" y="32.8867" width="0.814299" height="0.807907" fill="white"/>
<rect x="56.415" y="33.6938" width="0.814299" height="0.807907" fill="white"/>
<rect x="57.2295" y="34.5029" width="0.814299" height="0.807907" fill="white"/>
<rect x="57.2295" y="35.3105" width="0.814299" height="0.807907" fill="white"/>
<rect x="58.0439" y="36.1187" width="0.814299" height="0.807907" fill="white"/>
<rect x="58.8584" y="36.9258" width="0.814299" height="0.807907" fill="white"/>
<rect x="58.8584" y="37.7339" width="0.814299" height="0.807907" fill="white"/>
<rect x="59.6719" y="38.542" width="0.814299" height="0.807907" fill="white"/>
<rect x="59.6719" y="39.3501" width="0.814299" height="0.807907" fill="white"/>
<rect x="59.6719" y="40.1577" width="0.814299" height="0.807907" fill="white"/>
<rect x="60.4863" y="40.9658" width="0.814299" height="0.807907" fill="white"/>
<rect x="60.4863" y="41.7739" width="0.814299" height="0.807907" fill="white"/>
<rect x="60.4863" y="42.582" width="0.814299" height="0.807907" fill="white"/>
<rect x="61.3008" y="43.3892" width="0.814299" height="0.807907" fill="white"/>
<rect x="61.3008" y="44.1978" width="0.814299" height="0.807907" fill="white"/>
<rect x="61.3008" y="45.0049" width="0.814299" height="0.807907" fill="white"/>
<rect x="61.3008" y="45.813" width="0.814299" height="0.807907" fill="white"/>
<rect x="61.3008" y="46.6211" width="0.814299" height="0.807907" fill="white"/>
<rect x="62.1152" y="47.4292" width="0.814299" height="0.807907" fill="white"/>
<rect x="62.1152" y="48.2363" width="0.814299" height="0.807907" fill="white"/>
<rect x="62.1152" y="49.0449" width="0.814299" height="0.807907" fill="white"/>
<rect x="36.8721" y="24" width="0.814299" height="0.807907" fill="white"/>
<rect x="37.6865" y="24" width="0.814299" height="0.807907" fill="white"/>
<rect x="39.3145" y="24" width="0.814299" height="0.807907" fill="white"/>
<rect x="40.1289" y="24" width="0.814299" height="0.807907" fill="white"/>
<rect x="40.9434" y="24" width="0.814299" height="0.807907" fill="white"/>
<rect x="41.7578" y="24.8076" width="0.814299" height="0.807907" fill="white"/>
<rect x="43.3867" y="24.8076" width="0.814299" height="0.807907" fill="white"/>
<rect x="44.2002" y="24.8076" width="0.814299" height="0.807907" fill="white"/>
<rect x="45.8291" y="25.6152" width="0.814299" height="0.807907" fill="white"/>
<rect x="46.6436" y="26.4233" width="0.814299" height="0.807907" fill="white"/>
<rect x="48.2725" y="27.2314" width="0.814299" height="0.807907" fill="white"/>
<rect x="50.7148" y="28.0396" width="0.814299" height="0.807907" fill="white"/>
<rect x="62.9297" y="49.853" width="0.814299" height="0.807907" fill="white"/>
<rect x="62.9297" y="50.6611" width="0.814299" height="0.807907" fill="white"/>
<rect x="62.9297" y="51.4683" width="0.814299" height="0.807907" fill="white"/>
<rect x="62.9297" y="52.2764" width="0.814299" height="0.807907" fill="white"/>
<rect x="62.1152" y="52.2764" width="0.814299" height="0.807907" fill="white"/>
<rect x="62.1152" y="53.0835" width="0.814299" height="0.807907" fill="white"/>
<rect x="62.1152" y="53.8931" width="0.814299" height="0.807907" fill="white"/>
<rect x="62.1152" y="54.7002" width="0.814299" height="0.807907" fill="white"/>
<rect x="62.1152" y="55.5083" width="0.814299" height="0.807907" fill="white"/>
<rect x="62.1152" y="56.3154" width="0.814299" height="0.807907" fill="white"/>
<rect x="62.1152" y="57.1235" width="0.814299" height="0.807907" fill="white"/>
<rect x="61.3008" y="57.1235" width="0.814299" height="0.807907" fill="white"/>
<rect x="61.3008" y="57.9316" width="0.814299" height="0.807907" fill="white"/>
<rect x="61.3008" y="58.7402" width="0.814299" height="0.807907" fill="white"/>
<rect x="61.3008" y="59.5474" width="0.814299" height="0.807907" fill="white"/>
<rect x="60.4863" y="59.5474" width="0.814299" height="0.807907" fill="white"/>
<rect x="60.4863" y="60.3555" width="0.814299" height="0.807907" fill="white"/>
<rect x="60.4863" y="61.1636" width="0.814299" height="0.807907" fill="white"/>
<rect x="59.6719" y="61.1636" width="0.814299" height="0.807907" fill="white"/>
<rect x="59.6719" y="61.9717" width="0.814299" height="0.807907" fill="white"/>
<rect x="59.6719" y="62.7793" width="0.814299" height="0.807907" fill="white"/>
<rect x="58.8584" y="62.7793" width="0.814299" height="0.807907" fill="white"/>
<rect x="58.8584" y="63.5874" width="0.814299" height="0.807907" fill="white"/>
<rect x="58.0439" y="63.5874" width="0.814299" height="0.807907" fill="white"/>
<rect x="58.0439" y="64.3945" width="0.814299" height="0.807907" fill="white"/>
<rect x="58.0439" y="65.2026" width="0.814299" height="0.807907" fill="white"/>
<rect x="57.2295" y="65.2026" width="0.814299" height="0.807907" fill="white"/>
<rect x="57.2295" y="66.0107" width="0.814299" height="0.807907" fill="white"/>
<rect x="56.415" y="66.0107" width="0.814299" height="0.807907" fill="white"/>
<rect x="56.415" y="66.8188" width="0.814299" height="0.807907" fill="white"/>
<rect x="55.6006" y="66.8188" width="0.814299" height="0.807907" fill="white"/>
<rect x="55.6006" y="67.6265" width="0.814299" height="0.807907" fill="white"/>
<rect x="54.7861" y="67.6265" width="0.814299" height="0.807907" fill="white"/>
<rect x="54.7861" y="68.4346" width="0.814299" height="0.807907" fill="white"/>
<rect x="53.9727" y="68.4346" width="0.814299" height="0.807907" fill="white"/>
<rect x="53.9727" y="69.2427" width="0.814299" height="0.807907" fill="white"/>
<rect x="53.1582" y="69.2427" width="0.814299" height="0.807907" fill="white"/>
<rect x="53.1582" y="70.0508" width="0.814299" height="0.807907" fill="white"/>
<rect x="52.3438" y="70.0508" width="0.814299" height="0.807907" fill="white"/>
<rect x="52.3438" y="70.8579" width="0.814299" height="0.807907" fill="white"/>
<rect x="51.5293" y="70.8579" width="0.814299" height="0.807907" fill="white"/>
<rect x="51.5293" y="71.666" width="0.814299" height="0.807907" fill="white"/>
<rect x="50.7148" y="71.666" width="0.814299" height="0.807907" fill="white"/>
<rect x="49.0859" y="70.8579" width="0.814299" height="0.807907" fill="white"/>
<rect x="49.9004" y="71.666" width="0.814299" height="0.807907" fill="white"/>
<rect x="49.9004" y="72.4736" width="0.814299" height="0.807907" fill="white"/>
<rect x="49.0859" y="72.4736" width="0.814299" height="0.807907" fill="white"/>
<rect x="48.2725" y="73.2827" width="0.814299" height="0.807907" fill="white"/>
<rect x="47.458" y="73.2827" width="0.814299" height="0.807907" fill="white"/>
<rect x="46.6436" y="74.0898" width="0.814299" height="0.807907" fill="white"/>
<rect x="45.8291" y="74.0898" width="0.814299" height="0.807907" fill="white"/>
<rect x="44.2002" y="74.8979" width="0.814299" height="0.807907" fill="white"/>
<rect x="43.3867" y="74.8979" width="0.814299" height="0.807907" fill="white"/>
<rect x="40.9434" y="75.7051" width="0.814299" height="0.807907" fill="white"/>
<rect x="40.1289" y="75.7051" width="0.814299" height="0.807907" fill="white"/>
<rect x="36.8721" y="75.7051" width="0.814299" height="0.807907" fill="white"/>
<rect x="36.0576" y="75.7051" width="0.814299" height="0.807907" fill="white"/>
<rect x="37.6865" y="75.7051" width="0.814299" height="0.807907" fill="white"/>
<rect x="38.5" y="75.7051" width="0.814299" height="0.807907" fill="white"/>
<rect x="39.3145" y="75.7051" width="0.814299" height="0.807907" fill="white"/>
<rect x="41.7578" y="75.7051" width="0.814299" height="0.807907" fill="white"/>
<rect x="42.5723" y="74.8979" width="0.814299" height="0.807907" fill="white"/>
<rect x="42.5723" y="75.7051" width="0.814299" height="0.807907" fill="white"/>
<rect x="45.0146" y="74.0898" width="0.814299" height="0.807907" fill="white"/>
<rect x="45.0146" y="74.8979" width="0.814299" height="0.807907" fill="white"/>
<rect x="47.458" y="74.0898" width="0.814299" height="0.807907" fill="white"/>
<rect x="49.0859" y="73.2827" width="0.814299" height="0.807907" fill="white"/>
<rect x="10.8145" y="49.853" width="0.814299" height="0.807907" fill="white"/>
<rect x="10.8145" y="50.6611" width="0.814299" height="0.807907" fill="white"/>
<rect x="10.8145" y="51.4683" width="0.814299" height="0.807907" fill="white"/>
<rect x="10.8145" y="52.2764" width="0.814299" height="0.807907" fill="white"/>
<rect x="10.8145" y="53.0835" width="0.814299" height="0.807907" fill="white"/>
<rect x="10" y="53.8931" width="0.814299" height="0.807907" fill="white"/>
<rect x="11.6289" y="53.8931" width="0.814299" height="0.807907" fill="white"/>
<rect x="11.6289" y="54.7002" width="0.814299" height="0.807907" fill="white"/>
<rect x="11.6289" y="55.5083" width="0.814299" height="0.807907" fill="white"/>
<rect x="11.6289" y="56.3154" width="0.814299" height="0.807907" fill="white"/>
<rect x="10.8145" y="57.1235" width="0.814299" height="0.807907" fill="white"/>
<rect x="12.4434" y="57.1235" width="0.814299" height="0.807907" fill="white"/>
<rect x="12.4434" y="57.9316" width="0.814299" height="0.807907" fill="white"/>
<rect x="12.4434" y="58.7402" width="0.814299" height="0.807907" fill="white"/>
<rect x="11.6289" y="59.5474" width="0.814299" height="0.807907" fill="white"/>
<rect x="13.2568" y="59.5474" width="0.814299" height="0.807907" fill="white"/>
<rect x="13.2568" y="60.3555" width="0.814299" height="0.807907" fill="white"/>
<rect x="12.4434" y="61.1636" width="0.814299" height="0.807907" fill="white"/>
<rect x="14.0713" y="61.1636" width="0.814299" height="0.807907" fill="white"/>
<rect x="14.0713" y="61.9717" width="0.814299" height="0.807907" fill="white"/>
<rect x="13.2568" y="62.7793" width="0.814299" height="0.807907" fill="white"/>
<rect x="14.8857" y="62.7793" width="0.814299" height="0.807907" fill="white"/>
<rect x="14.8857" y="63.5874" width="0.814299" height="0.807907" fill="white"/>
<rect x="14.0713" y="64.3945" width="0.814299" height="0.807907" fill="white"/>
<rect x="15.7002" y="64.3945" width="0.814299" height="0.807907" fill="white"/>
<rect x="14.8857" y="65.2026" width="0.814299" height="0.807907" fill="white"/>
<rect x="16.5146" y="65.2026" width="0.814299" height="0.807907" fill="white"/>
<rect x="15.7002" y="66.0107" width="0.814299" height="0.807907" fill="white"/>
<rect x="17.3291" y="66.0107" width="0.814299" height="0.807907" fill="white"/>
<rect x="17.3291" y="66.8188" width="0.814299" height="0.807907" fill="white"/>
<rect x="16.5146" y="67.6265" width="0.814299" height="0.807907" fill="white"/>
<rect x="18.1426" y="67.6265" width="0.814299" height="0.807907" fill="white"/>
<rect x="17.3291" y="68.4346" width="0.814299" height="0.807907" fill="white"/>
<rect x="18.957" y="69.2427" width="0.814299" height="0.807907" fill="white"/>
<rect x="18.1426" y="69.2427" width="0.814299" height="0.807907" fill="white"/>
<rect x="20.5859" y="69.2427" width="0.814299" height="0.807907" fill="white"/>
<rect x="19.7715" y="70.0508" width="0.814299" height="0.807907" fill="white"/>
<rect x="21.4004" y="70.0508" width="0.814299" height="0.807907" fill="white"/>
<rect x="20.5859" y="70.8579" width="0.814299" height="0.807907" fill="white"/>
<rect x="22.2148" y="71.666" width="0.814299" height="0.807907" fill="white"/>
<rect x="21.4004" y="71.666" width="0.814299" height="0.807907" fill="white"/>
<rect x="23.0283" y="70.8579" width="0.814299" height="0.807907" fill="white"/>
<rect x="23.8428" y="71.666" width="0.814299" height="0.807907" fill="white"/>
<rect x="23.0283" y="72.4736" width="0.814299" height="0.807907" fill="white"/>
<rect x="25.4717" y="72.4736" width="0.814299" height="0.807907" fill="white"/>
<rect x="24.6572" y="73.2827" width="0.814299" height="0.807907" fill="white"/>
<rect x="27.1006" y="74.0898" width="0.814299" height="0.807907" fill="white"/>
<rect x="26.2861" y="74.0898" width="0.814299" height="0.807907" fill="white"/>
<rect x="29.543" y="74.8979" width="0.814299" height="0.807907" fill="white"/>
<rect x="28.7285" y="74.8979" width="0.814299" height="0.807907" fill="white"/>
<rect x="32.8008" y="75.7051" width="0.814299" height="0.807907" fill="white"/>
<rect x="31.9863" y="75.7051" width="0.814299" height="0.807907" fill="white"/>
<rect x="19.7715" y="68.4346" width="0.814299" height="0.807907" fill="white"/>
<rect x="23.8428" y="73.2827" width="0.814299" height="0.807907" fill="white"/>
<rect x="25.4717" y="74.0898" width="0.814299" height="0.807907" fill="white"/>
<rect x="27.915" y="73.2827" width="0.814299" height="0.807907" fill="white"/>
<rect x="27.915" y="74.8979" width="0.814299" height="0.807907" fill="white"/>
<rect x="30.3574" y="74.0898" width="0.814299" height="0.807907" fill="white"/>
<rect x="31.1719" y="75.7051" width="0.814299" height="0.807907" fill="white"/>
<rect x="30.3574" y="75.7051" width="0.814299" height="0.807907" fill="white"/>
<rect x="33.6143" y="75.7051" width="0.814299" height="0.807907" fill="white"/>
<rect x="34.4287" y="75.7051" width="0.814299" height="0.807907" fill="white"/>
<rect x="35.2432" y="75.7051" width="0.814299" height="0.807907" fill="white"/>
<rect x="34.4287" y="24.8076" width="0.814299" height="0.807907" fill="white"/>
<rect x="33.6143" y="24.8076" width="0.814299" height="0.807907" fill="white"/>
<rect x="29.543" y="25.6152" width="0.814299" height="0.807907" fill="white"/>
<rect x="28.7285" y="25.6152" width="0.814299" height="0.807907" fill="white"/>
<rect x="27.1006" y="26.4233" width="0.814299" height="0.807907" fill="white"/>
<rect x="26.2861" y="26.4233" width="0.814299" height="0.807907" fill="white"/>
<rect x="25.4717" y="27.2314" width="0.814299" height="0.807907" fill="white"/>
<rect x="24.6572" y="27.2314" width="0.814299" height="0.807907" fill="white"/>
<rect x="23.8428" y="28.0396" width="0.814299" height="0.807907" fill="white"/>
<rect x="23.0283" y="28.0396" width="0.814299" height="0.807907" fill="white"/>
<rect x="23.0283" y="28.8467" width="0.814299" height="0.807907" fill="white"/>
<rect x="22.2148" y="28.8467" width="0.814299" height="0.807907" fill="white"/>
<rect x="21.4004" y="28.8467" width="0.814299" height="0.807907" fill="white"/>
<rect x="21.4004" y="29.6548" width="0.814299" height="0.807907" fill="white"/>
<rect x="20.5859" y="29.6548" width="0.814299" height="0.807907" fill="white"/>
<rect x="20.5859" y="30.4634" width="0.814299" height="0.807907" fill="white"/>
<rect x="19.7715" y="30.4634" width="0.814299" height="0.807907" fill="white"/>
<rect x="18.957" y="29.6548" width="0.814299" height="0.807907" fill="white"/>
<rect x="19.7715" y="31.2715" width="0.814299" height="0.807907" fill="white"/>
<rect x="18.957" y="31.2715" width="0.814299" height="0.807907" fill="white"/>
<rect x="18.957" y="32.0786" width="0.814299" height="0.807907" fill="white"/>
<rect x="18.1426" y="32.0786" width="0.814299" height="0.807907" fill="white"/>
<rect x="18.1426" y="32.8867" width="0.814299" height="0.807907" fill="white"/>
<rect x="17.3291" y="32.8867" width="0.814299" height="0.807907" fill="white"/>
<rect x="17.3291" y="33.6938" width="0.814299" height="0.807907" fill="white"/>
<rect x="16.5146" y="33.6938" width="0.814299" height="0.807907" fill="white"/>
<rect x="16.5146" y="34.5029" width="0.814299" height="0.807907" fill="white"/>
<rect x="15.7002" y="34.5029" width="0.814299" height="0.807907" fill="white"/>
<rect x="15.7002" y="35.3105" width="0.814299" height="0.807907" fill="white"/>
<rect x="14.8857" y="35.3105" width="0.814299" height="0.807907" fill="white"/>
<rect x="14.8857" y="36.1187" width="0.814299" height="0.807907" fill="white"/>
<rect x="14.8857" y="36.9258" width="0.814299" height="0.807907" fill="white"/>
<rect x="14.0713" y="36.9258" width="0.814299" height="0.807907" fill="white"/>
<rect x="13.2568" y="36.1187" width="0.814299" height="0.807907" fill="white"/>
<rect x="14.0713" y="37.7339" width="0.814299" height="0.807907" fill="white"/>
<rect x="14.0713" y="38.542" width="0.814299" height="0.807907" fill="white"/>
<rect x="13.2568" y="38.542" width="0.814299" height="0.807907" fill="white"/>
<rect x="13.2568" y="39.3501" width="0.814299" height="0.807907" fill="white"/>
<rect x="13.2568" y="40.1577" width="0.814299" height="0.807907" fill="white"/>
<rect x="12.4434" y="40.1577" width="0.814299" height="0.807907" fill="white"/>
<rect x="12.4434" y="40.9658" width="0.814299" height="0.807907" fill="white"/>
<rect x="12.4434" y="41.7739" width="0.814299" height="0.807907" fill="white"/>
<rect x="12.4434" y="42.582" width="0.814299" height="0.807907" fill="white"/>
<rect x="11.6289" y="42.582" width="0.814299" height="0.807907" fill="white"/>
<rect x="11.6289" y="43.3892" width="0.814299" height="0.807907" fill="white"/>
<rect x="11.6289" y="44.1978" width="0.814299" height="0.807907" fill="white"/>
<rect x="11.6289" y="45.0049" width="0.814299" height="0.807907" fill="white"/>
<rect x="11.6289" y="45.813" width="0.814299" height="0.807907" fill="white"/>
<rect x="10.8145" y="45.813" width="0.814299" height="0.807907" fill="white"/>
<rect x="10.8145" y="46.6211" width="0.814299" height="0.807907" fill="white"/>
<rect x="10.8145" y="47.4292" width="0.814299" height="0.807907" fill="white"/>
<rect x="10.8145" y="48.2363" width="0.814299" height="0.807907" fill="white"/>
<rect x="10.8145" y="49.0449" width="0.814299" height="0.807907" fill="white"/>
<rect x="24.6572" y="28.0396" width="0.814299" height="0.807907" fill="white"/>
<rect x="26.2861" y="27.2314" width="0.814299" height="0.807907" fill="white"/>
<rect x="27.915" y="25.6152" width="0.814299" height="0.807907" fill="white"/>
<rect x="27.915" y="26.4233" width="0.814299" height="0.807907" fill="white"/>
<rect x="30.3574" y="25.6152" width="0.814299" height="0.807907" fill="white"/>
<rect x="31.1719" y="24.8076" width="0.814299" height="0.807907" fill="white"/>
<rect x="31.1719" y="25.6152" width="0.814299" height="0.807907" fill="white"/>
<rect x="31.9863" y="24.8076" width="0.814299" height="0.807907" fill="white"/>
<rect x="32.8008" y="24.8076" width="0.814299" height="0.807907" fill="white"/>
<rect x="35.2432" y="24.8076" width="0.814299" height="0.807907" fill="white"/>
<rect x="36.0576" y="24.8076" width="0.814299" height="0.807907" fill="white"/>
<rect x="36.8721" y="24.8076" width="0.814299" height="0.807907" fill="white"/>
<rect x="39.3145" y="24.8076" width="0.814299" height="0.807907" fill="white"/>
<rect x="38.5" y="24.8076" width="0.814299" height="0.807907" fill="white"/>
<rect x="43.3867" y="25.6152" width="0.814299" height="0.807907" fill="white"/>
<rect x="42.5723" y="25.6152" width="0.814299" height="0.807907" fill="white"/>
<rect x="45.8291" y="26.4233" width="0.814299" height="0.807907" fill="white"/>
<rect x="45.0146" y="26.4233" width="0.814299" height="0.807907" fill="white"/>
<rect x="48.2725" y="26.4233" width="0.814299" height="0.807907" fill="white"/>
<rect x="47.458" y="27.2314" width="0.814299" height="0.807907" fill="white"/>
<rect x="49.9004" y="27.2314" width="0.814299" height="0.807907" fill="white"/>
<rect x="49.0859" y="28.0396" width="0.814299" height="0.807907" fill="white"/>
<rect x="50.7148" y="28.8467" width="0.814299" height="0.807907" fill="white"/>
<rect x="49.9004" y="28.8467" width="0.814299" height="0.807907" fill="white"/>
<rect x="52.3438" y="28.8467" width="0.814299" height="0.807907" fill="white"/>
<rect x="51.5293" y="29.6548" width="0.814299" height="0.807907" fill="white"/>
<rect x="53.1582" y="29.6548" width="0.814299" height="0.807907" fill="white"/>
<rect x="52.3438" y="30.4634" width="0.814299" height="0.807907" fill="white"/>
<rect x="53.9727" y="30.4634" width="0.814299" height="0.807907" fill="white"/>
<rect x="53.1582" y="31.2715" width="0.814299" height="0.807907" fill="white"/>
<rect x="54.7861" y="31.2715" width="0.814299" height="0.807907" fill="white"/>
<rect x="53.9727" y="32.0786" width="0.814299" height="0.807907" fill="white"/>
<rect x="55.6006" y="32.0786" width="0.814299" height="0.807907" fill="white"/>
<rect x="54.7861" y="32.8867" width="0.814299" height="0.807907" fill="white"/>
<rect x="56.415" y="32.8867" width="0.814299" height="0.807907" fill="white"/>
<rect x="55.6006" y="33.6938" width="0.814299" height="0.807907" fill="white"/>
<rect x="57.2295" y="33.6938" width="0.814299" height="0.807907" fill="white"/>
<rect x="56.415" y="34.5029" width="0.814299" height="0.807907" fill="white"/>
<rect x="58.0439" y="34.5029" width="0.814299" height="0.807907" fill="white"/>
<rect x="58.0439" y="35.3105" width="0.814299" height="0.807907" fill="white"/>
<rect x="57.2295" y="36.1187" width="0.814299" height="0.807907" fill="white"/>
<rect x="58.8584" y="36.1187" width="0.814299" height="0.807907" fill="white"/>
<rect x="58.0439" y="36.9258" width="0.814299" height="0.807907" fill="white"/>
<rect x="59.6719" y="36.9258" width="0.814299" height="0.807907" fill="white"/>
<rect x="59.6719" y="37.7339" width="0.814299" height="0.807907" fill="white"/>
<rect x="58.8584" y="38.542" width="0.814299" height="0.807907" fill="white"/>
<rect x="60.4863" y="38.542" width="0.814299" height="0.807907" fill="white"/>
<rect x="60.4863" y="39.3501" width="0.814299" height="0.807907" fill="white"/>
<rect x="60.4863" y="40.1577" width="0.814299" height="0.807907" fill="white"/>
<rect x="59.6719" y="40.9658" width="0.814299" height="0.807907" fill="white"/>
<rect x="61.3008" y="40.9658" width="0.814299" height="0.807907" fill="white"/>
<rect x="61.3008" y="41.7739" width="0.814299" height="0.807907" fill="white"/>
<rect x="61.3008" y="42.582" width="0.814299" height="0.807907" fill="white"/>
<rect x="60.4863" y="43.3892" width="0.814299" height="0.807907" fill="white"/>
<rect x="62.1152" y="43.3892" width="0.814299" height="0.807907" fill="white"/>
<rect x="62.1152" y="44.1978" width="0.814299" height="0.807907" fill="white"/>
<rect x="62.1152" y="45.0049" width="0.814299" height="0.807907" fill="white"/>
<rect x="62.1152" y="45.813" width="0.814299" height="0.807907" fill="white"/>
<rect x="62.1152" y="46.6211" width="0.814299" height="0.807907" fill="white"/>
<rect x="61.3008" y="47.4292" width="0.814299" height="0.807907" fill="white"/>
<rect x="62.9297" y="47.4292" width="0.814299" height="0.807907" fill="white"/>
<rect x="62.9297" y="48.2363" width="0.814299" height="0.807907" fill="white"/>
<rect x="62.9297" y="49.0449" width="0.814299" height="0.807907" fill="white"/>
<rect x="37.6865" y="24.8076" width="0.814299" height="0.807907" fill="white"/>
<rect x="40.1289" y="24.8076" width="0.814299" height="0.807907" fill="white"/>
<rect x="40.9434" y="24.8076" width="0.814299" height="0.807907" fill="white"/>
<rect x="41.7578" y="24" width="0.814299" height="0.807907" fill="white"/>
<rect x="41.7578" y="25.6152" width="0.814299" height="0.807907" fill="white"/>
<rect x="44.2002" y="25.6152" width="0.814299" height="0.807907" fill="white"/>
<rect x="45.0146" y="24.8076" width="0.814299" height="0.807907" fill="white"/>
<rect x="46.6436" y="25.6152" width="0.814299" height="0.807907" fill="white"/>
<rect x="46.6436" y="27.2314" width="0.814299" height="0.807907" fill="white"/>
<rect x="48.2725" y="28.0396" width="0.814299" height="0.807907" fill="white"/>
<rect x="51.5293" y="28.0396" width="0.814299" height="0.807907" fill="white"/>
<path d="M47.083 59.6874H49.001V64.0343H25.123C25.123 62.7045 25.1287 61.3738 25.1401 60.0424V59.6802H27.0411V62.1458H47.0952V59.6802L47.083 59.6874Z" fill="white"/>
<path d="M28.8987 50.3484H27.0537V41.0316H28.8987V39.1745H30.7827V37.2933H32.6666V35.4507H41.4292V37.2812H43.3229V39.1528H45.1971V41.0123H47.0591V50.3484H45.2165C45.2165 50.2277 45.1898 50.1069 45.1898 49.9886C45.1898 47.1213 45.1898 44.2547 45.1898 41.389V41.0123H43.2937V39.1552H41.4219V37.3295H32.6593V39.1769H30.7875V41.034H28.9133V41.4349C28.9133 44.2926 28.9133 47.1494 28.9133 50.0055C28.9133 50.1262 28.8963 50.247 28.8866 50.3653L28.8987 50.3484Z" fill="white"/>
<path d="M30.814 55.9406C30.814 55.6726 30.7897 55.4045 30.7873 55.1341C30.7873 54.2792 30.7873 53.4219 30.7873 52.567V52.2361H28.8984V50.3477H30.8286V52.2192H32.6931V54.086H34.5625V55.9551H31.4517C31.2376 55.9551 31.0234 55.9382 30.8092 55.9286L30.814 55.9406Z" fill="white"/>
<path d="M45.2261 50.3477V52.2265H43.3373V52.567C43.3373 53.5813 43.3373 54.5955 43.3373 55.6098C43.3373 55.7209 43.3202 55.8296 43.3105 55.9406C43.257 55.9542 43.2024 55.9631 43.1474 55.9672H39.7787C39.7117 55.9634 39.6451 55.9553 39.5791 55.9431V54.0787H41.4606V52.212H43.3251V50.3597H45.2309L45.2261 50.3477Z" fill="white"/>
<path d="M28.8984 57.8424V55.9419H30.814V57.8424H28.8984Z" fill="white"/>
<path d="M43.3105 55.9419H45.2261V57.8424H43.3154V55.9419H43.3105Z" fill="white"/>
<path d="M27.041 59.6868V57.8418H28.8982V59.6844H27.041V59.6868Z" fill="white"/>
<path d="M45.2261 57.8418H47.0832V59.6868H45.2236V57.8442L45.2261 57.8418Z" fill="white"/>
<path d="M74.75 34.25V32.5H73V30.75H76.5V32.5H81.75V29H74.75V27.25H73V22H76.5V27.25H81.75V22H85.25V32.5H83.5V34.25H74.75ZM92.25 34.25V27.25H88.75V25.5H99.25V27.25H95.75V34.25H92.25ZM101 34.25V25.5H111.5V27.25H113.25V29H111.5V30.75H113.25V32.5H111.5V34.25H101ZM104.5 29H109.75V27.25H104.5V29ZM104.5 32.5H109.75V30.75H104.5V32.5ZM116.75 34.25V32.5H115V27.25H116.75V25.5H125.5V27.25H127.25V30.75H118.5V32.5H125.5V34.25H116.75ZM118.5 29H123.75V27.25H118.5V29ZM141.25 27.25V32.5H139.5V34.25H132.5V36H129V25.5H132.5V27.25H134.25V29H132.5V32.5H137.75V27.25H134.25V25.5H139.5V27.25H141.25ZM143 34.25V30.75H144.75V29H143V25.5H146.5V29H148.25V25.5H150V29H151.75V25.5H155.25V29H153.5V30.75H155.25V34.25H151.75V30.75H150V34.25H148.25V30.75H146.5V34.25H143ZM169.25 32.5H171V36H167.5V34.25H160.5V36H157V32.5H158.75V30.75H160.5V25.5H169.25V32.5ZM162.25 32.5H165.75V27.25H162.25V32.5ZM172.75 34.25V32.5H171V27.25H172.75V25.5H181.5V27.25H183.25V30.75H174.5V32.5H181.5V34.25H172.75ZM174.5 29H179.75V27.25H174.5V29ZM185 34.25V25.5H188.5V29H193.75V25.5H197.25V34.25H193.75V30.75H188.5V34.25H185ZM202.5 30.75H204.25V32.5H202.5V34.25H199V25.5H202.5V30.75ZM211.25 25.5V34.25H207.75V29H206V27.25H207.75V25.5H211.25ZM204.25 29H206V30.75H204.25V29ZM214.75 34.25V32.5H213V27.25H214.75V25.5H223.5V27.25H225.25V30.75H216.5V32.5H223.5V34.25H214.75ZM216.5 29H221.75V27.25H216.5V29ZM76.5 44.75H78.25V46.5H76.5V48.25H73V39.5H76.5V44.75ZM85.25 39.5V48.25H81.75V43H80V41.25H81.75V39.5H85.25ZM78.25 43H80V44.75H78.25V43ZM87 48.25V39.5H90.5V43H95.75V39.5H99.25V48.25H95.75V44.75H90.5V48.25H87ZM101 48.25V39.5H111.5V41.25H113.25V43H111.5V44.75H113.25V46.5H111.5V48.25H101ZM104.5 43H109.75V41.25H104.5V43ZM104.5 46.5H109.75V44.75H104.5V46.5ZM116.75 48.25V46.5H115V41.25H116.75V39.5H125.5V41.25H127.25V44.75H118.5V46.5H125.5V48.25H116.75ZM118.5 43H123.75V41.25H118.5V43ZM130.75 48.25V46.5H129V41.25H130.75V39.5H139.5V41.25H141.25V43H137.75V41.25H132.5V46.5H137.75V44.75H141.25V46.5H139.5V48.25H130.75ZM148.25 48.25V41.25H144.75V39.5H155.25V41.25H151.75V48.25H148.25ZM160.5 44.75H162.25V46.5H160.5V48.25H157V39.5H160.5V44.75ZM169.25 39.5V48.25H165.75V43H164V41.25H165.75V39.5H169.25ZM162.25 43H164V44.75H162.25V43ZM179.75 50V48.25H171V39.5H174.5V46.5H178V39.5H181.5V46.5H183.25V50H179.75ZM188.5 44.75H190.25V46.5H188.5V48.25H185V39.5H188.5V44.75ZM197.25 39.5V48.25H193.75V43H192V41.25H193.75V39.5H197.25ZM190.25 43H192V44.75H190.25V43ZM200.75 48.25V46.5H199V41.25H200.75V39.5H209.5V41.25H211.25V46.5H209.5V48.25H200.75ZM202.5 46.5H207.75V41.25H202.5V46.5ZM213 48.25V39.5H216.5V43H221.75V39.5H225.25V48.25H221.75V44.75H216.5V48.25H213ZM227 48.25V39.5H230.5V43H235.75V39.5H239.25V48.25H235.75V44.75H230.5V48.25H227ZM241 48.25V39.5H244.5V43H248V48.25H241ZM249.75 48.25V39.5H253.25V48.25H249.75ZM244.5 46.5H246.25V44.75H244.5V46.5ZM255 48.25V46.5H256.75V44.75H258.5V43H256.75V41.25H255V39.5H258.5V41.25H260.25V43H262V41.25H263.75V39.5H267.25V41.25H265.5V43H263.75V44.75H265.5V46.5H267.25V48.25H263.75V46.5H262V44.75H260.25V46.5H258.5V48.25H255ZM73 62.25V53.5H85.25V62.25H81.75V55.25H76.5V62.25H73ZM99.25 55.25V60.5H97.5V62.25H90.5V64H87V53.5H90.5V55.25H92.25V57H90.5V60.5H95.75V55.25H92.25V53.5H97.5V55.25H99.25ZM102.75 62.25V60.5H101V55.25H102.75V53.5H111.5V55.25H113.25V60.5H111.5V62.25H102.75ZM104.5 60.5H109.75V55.25H104.5V60.5ZM116.75 62.25V53.5H127.25V57H125.5V55.25H120.25V62.25H116.75ZM141.25 55.25V60.5H139.5V62.25H132.5V64H129V53.5H132.5V55.25H134.25V57H132.5V60.5H137.75V55.25H134.25V53.5H139.5V55.25H141.25ZM144.75 62.25V60.5H143V58.75H144.75V57H151.75V55.25H144.75V53.5H153.5V55.25H155.25V62.25H144.75ZM146.5 60.5H151.75V58.75H146.5V60.5ZM162.25 55.25V57H160.5V62.25H157V53.5H160.5V55.25H162.25ZM169.25 53.5V62.25H165.75V57H164V55.25H165.75V53.5H169.25ZM162.25 57H164V60.5H162.25V57ZM176.25 55.25V57H174.5V62.25H171V53.5H174.5V55.25H176.25ZM183.25 53.5V62.25H179.75V57H178V55.25H179.75V53.5H183.25ZM176.25 57H178V60.5H176.25V57ZM202.5 58.75H204.25V60.5H202.5V62.25H199V53.5H202.5V58.75ZM211.25 53.5V62.25H207.75V57H206V55.25H207.75V53.5H211.25ZM204.25 57H206V58.75H204.25V57ZM73 76.25V67.5H85.25V76.25H81.75V69.25H76.5V76.25H73ZM99.25 69.25V74.5H97.5V76.25H90.5V78H87V67.5H90.5V69.25H92.25V71H90.5V74.5H95.75V69.25H92.25V67.5H97.5V69.25H99.25ZM102.75 76.25V74.5H101V69.25H102.75V67.5H111.5V69.25H113.25V72.75H104.5V74.5H111.5V76.25H102.75ZM104.5 71H109.75V69.25H104.5V71ZM127.25 74.5H129V78H125.5V76.25H118.5V78H115V74.5H116.75V72.75H118.5V67.5H127.25V74.5ZM120.25 74.5H123.75V69.25H120.25V74.5ZM130.75 76.25V74.5H129V69.25H130.75V67.5H139.5V69.25H141.25V74.5H139.5V76.25H130.75ZM132.5 74.5H137.75V69.25H132.5V74.5ZM144.75 76.25V74.5H143V69.25H144.75V67.5H153.5V69.25H155.25V71H151.75V69.25H146.5V74.5H151.75V72.75H155.25V74.5H153.5V76.25H144.75ZM162.25 76.25V69.25H158.75V67.5H169.25V69.25H165.75V76.25H162.25ZM172.75 76.25V74.5H171V72.75H172.75V71H179.75V69.25H172.75V67.5H181.5V69.25H183.25V76.25H172.75ZM174.5 74.5H179.75V72.75H174.5V74.5ZM185 76.25V67.5H195.5V69.25H197.25V71H195.5V72.75H197.25V74.5H195.5V76.25H185ZM188.5 71H193.75V69.25H188.5V71ZM188.5 74.5H193.75V72.75H188.5V74.5ZM211.25 67.5V76.25H207.75V69.25H204.25V74.5H202.5V76.25H199V72.75H200.75V71H202.5V67.5H211.25ZM214.75 76.25V74.5H213V69.25H214.75V67.5H223.5V69.25H225.25V72.75H216.5V74.5H223.5V76.25H214.75ZM216.5 71H221.75V69.25H216.5V71ZM227 76.25V67.5H230.5V71H235.75V67.5H239.25V76.25H235.75V72.75H230.5V76.25H227ZM244.5 72.75H246.25V74.5H244.5V76.25H241V67.5H244.5V72.75ZM253.25 67.5V76.25H249.75V71H248V69.25H249.75V67.5H253.25ZM246.25 71H248V72.75H246.25V71ZM256.75 76.25V74.5H255V69.25H256.75V67.5H265.5V69.25H267.25V72.75H258.5V74.5H265.5V76.25H256.75ZM258.5 71H263.75V69.25H258.5V71ZM74.75 90.25V81.5H85.25V85H83.5V83.25H78.25V90.25H74.75ZM99.25 83.25V88.5H97.5V90.25H90.5V92H87V81.5H90.5V83.25H92.25V85H90.5V88.5H95.75V83.25H92.25V81.5H97.5V83.25H99.25ZM102.75 90.25V88.5H101V86.75H102.75V85H109.75V83.25H102.75V81.5H111.5V83.25H113.25V90.25H102.75ZM104.5 88.5H109.75V86.75H104.5V88.5ZM115 90.25V81.5H118.5V85H123.75V81.5H127.25V90.25H123.75V86.75H118.5V90.25H115ZM134.25 90.25V83.25H130.75V81.5H141.25V83.25H137.75V90.25H134.25ZM144.75 90.25V88.5H143V83.25H144.75V81.5H153.5V83.25H155.25V88.5H153.5V90.25H144.75ZM146.5 88.5H151.75V83.25H146.5V88.5ZM157 90.25V81.5H167.5V83.25H169.25V85H167.5V86.75H169.25V88.5H167.5V90.25H157ZM160.5 85H165.75V83.25H160.5V85ZM160.5 88.5H165.75V86.75H160.5V88.5Z" fill="white"/>
</svg>
