<svg width="301" height="105" viewBox="0 0 301 105" fill="none" xmlns="http://www.w3.org/2000/svg">
<path d="M12.0228 104.5V101.144H6.17153L5.91541 97.6755C3.02918 97.0174 3.02918 97.0174 2.99963 93.5251C2.99963 90.6198 2.76322 90.3589 0.00012207 89.8372L0 14.6806C0.147759 14.5502 0.226564 14.4138 0.315219 14.4019C2.90593 14.0758 2.99951 13.9454 3.01429 10.6488C3.01429 9.54595 3.01429 8.44313 3.01429 7.23358L5.96947 7.06163L6.10738 3.5575H11.9291L12.1212 0H288.958L289.233 3.5575H295.031C295.085 4.82634 295.129 5.86394 295.188 7.115H298.104V10.6251C298.104 14.058 298.148 14.1055 301 14.5205L301 89.932C298.183 90.4479 298.119 90.525 298.114 94.2248C298.114 95.209 298.114 96.1932 298.114 97.3494L295.218 97.6162C295.159 98.7428 295.105 99.7804 295.036 101.079H289.253C289.165 102.365 289.091 103.391 289.002 104.571L12.0228 104.5Z" fill="white"/>
<path d="M62.1152 49.853H62.9295V50.6609H62.1152V49.853Z" fill="#6A797D"/>
<path d="M62.1152 50.6609H62.9295V51.4688H62.1152V50.6609Z" fill="#6A797D"/>
<path d="M62.1152 51.4688H62.9295V52.2767H62.1152V51.4688Z" fill="#6A797D"/>
<path d="M61.3009 52.2767H62.1152V53.0846H61.3009V52.2767Z" fill="#6A797D"/>
<path d="M61.3009 53.0846H62.1152V53.8926H61.3009V53.0846Z" fill="#6A797D"/>
<path d="M61.3009 53.8926H62.1152V54.7005H61.3009V53.8926Z" fill="#6A797D"/>
<path d="M61.3009 54.7005H62.1152V55.5084H61.3009V54.7005Z" fill="#6A797D"/>
<path d="M61.3009 55.5084H62.1152V56.3163H61.3009V55.5084Z" fill="#6A797D"/>
<path d="M61.3009 56.3163H62.1152V57.1242H61.3009V56.3163Z" fill="#6A797D"/>
<path d="M60.4866 57.1242H61.3009V57.9321H60.4866V57.1242Z" fill="#6A797D"/>
<path d="M60.4866 57.9321H61.3009V58.74H60.4866V57.9321Z" fill="#6A797D"/>
<path d="M60.4866 58.74H61.3009V59.5479H60.4866V58.74Z" fill="#6A797D"/>
<path d="M59.6723 59.5479H60.4866V60.3558H59.6723V59.5479Z" fill="#6A797D"/>
<path d="M59.6723 60.3558H60.4866V61.1637H59.6723V60.3558Z" fill="#6A797D"/>
<path d="M58.858 61.1637H59.6723V61.9716H58.858V61.1637Z" fill="#6A797D"/>
<path d="M58.858 61.9716H59.6723V62.7795H58.858V61.9716Z" fill="#6A797D"/>
<path d="M58.0437 62.7795H58.858V63.5874H58.0437V62.7795Z" fill="#6A797D"/>
<path d="M57.2294 63.5874H58.0437V64.3953H57.2294V63.5874Z" fill="#6A797D"/>
<path d="M57.2294 64.3953H58.0437V65.2032H57.2294V64.3953Z" fill="#6A797D"/>
<path d="M56.4151 65.2032H57.2294V66.0112H56.4151V65.2032Z" fill="#6A797D"/>
<path d="M55.6008 66.0112H56.4151V66.8191H55.6008V66.0112Z" fill="#6A797D"/>
<path d="M54.7865 66.8191H55.6008V67.627H54.7865V66.8191Z" fill="#6A797D"/>
<path d="M53.9722 67.627H54.7865V68.4349H53.9722V67.627Z" fill="#6A797D"/>
<path d="M53.1579 68.4349H53.9722V69.2428H53.1579V68.4349Z" fill="#6A797D"/>
<path d="M52.3436 69.2428H53.1579V70.0507H52.3436V69.2428Z" fill="#6A797D"/>
<path d="M51.5293 70.0507H52.3436V70.8586H51.5293V70.0507Z" fill="#6A797D"/>
<path d="M50.715 70.8586H51.5293V71.6665H50.715V70.8586Z" fill="#6A797D"/>
<path d="M49.0864 71.6665H49.9007V72.4744H49.0864V71.6665Z" fill="#6A797D"/>
<path d="M47.4578 72.4744H48.2721V73.2823H47.4578V72.4744Z" fill="#6A797D"/>
<path d="M45.8292 73.2823H46.6435V74.0902H45.8292V73.2823Z" fill="#6A797D"/>
<path d="M43.3863 74.0902H44.2006V74.8981H43.3863V74.0902Z" fill="#6A797D"/>
<path d="M40.1291 74.8981H40.9434V75.706H40.1291V74.8981Z" fill="#6A797D"/>
<path d="M36.0576 74.8981H36.8719V75.706H36.0576V74.8981Z" fill="#6A797D"/>
<path d="M36.8719 74.8981H37.6862V75.706H36.8719V74.8981Z" fill="#6A797D"/>
<path d="M37.6862 74.8981H38.5005V75.706H37.6862V74.8981Z" fill="#6A797D"/>
<path d="M38.5005 74.8981H39.3148V75.706H38.5005V74.8981Z" fill="#6A797D"/>
<path d="M39.3148 74.8981H40.1291V75.706H39.3148V74.8981Z" fill="#6A797D"/>
<path d="M40.9434 74.8981H41.7577V75.706H40.9434V74.8981Z" fill="#6A797D"/>
<path d="M41.7577 74.8981H42.572V75.706H41.7577V74.8981Z" fill="#6A797D"/>
<path d="M42.572 74.0902H43.3863V74.8981H42.572V74.0902Z" fill="#6A797D"/>
<path d="M44.2006 74.0902H45.0149V74.8981H44.2006V74.0902Z" fill="#6A797D"/>
<path d="M45.0149 73.2823H45.8292V74.0902H45.0149V73.2823Z" fill="#6A797D"/>
<path d="M46.6435 73.2823H47.4578V74.0902H46.6435V73.2823Z" fill="#6A797D"/>
<path d="M48.2721 72.4744H49.0864V73.2823H48.2721V72.4744Z" fill="#6A797D"/>
<path d="M49.9007 70.8586H50.715V71.6665H49.9007V70.8586Z" fill="#6A797D"/>
<path d="M10 49.853H10.8143V50.6609H10V49.853Z" fill="#6A797D"/>
<path d="M10 50.6609H10.8143V51.4688H10V50.6609Z" fill="#6A797D"/>
<path d="M10 51.4688H10.8143V52.2767H10V51.4688Z" fill="#6A797D"/>
<path d="M10 52.2767H10.8143V53.0846H10V52.2767Z" fill="#6A797D"/>
<path d="M10 53.0846H10.8143V53.8926H10V53.0846Z" fill="#6A797D"/>
<path d="M10.8143 53.8926H11.6286V54.7005H10.8143V53.8926Z" fill="#6A797D"/>
<path d="M10.8143 54.7005H11.6286V55.5084H10.8143V54.7005Z" fill="#6A797D"/>
<path d="M10.8143 55.5084H11.6286V56.3163H10.8143V55.5084Z" fill="#6A797D"/>
<path d="M10.8143 56.3163H11.6286V57.1242H10.8143V56.3163Z" fill="#6A797D"/>
<path d="M11.6286 57.1242H12.4429V57.9321H11.6286V57.1242Z" fill="#6A797D"/>
<path d="M11.6286 57.9321H12.4429V58.74H11.6286V57.9321Z" fill="#6A797D"/>
<path d="M11.6286 58.74H12.4429V59.5479H11.6286V58.74Z" fill="#6A797D"/>
<path d="M12.4429 59.5479H13.2572V60.3558H12.4429V59.5479Z" fill="#6A797D"/>
<path d="M12.4429 60.3558H13.2572V61.1637H12.4429V60.3558Z" fill="#6A797D"/>
<path d="M13.2572 61.1637H14.0715V61.9716H13.2572V61.1637Z" fill="#6A797D"/>
<path d="M13.2572 61.9716H14.0715V62.7795H13.2572V61.9716Z" fill="#6A797D"/>
<path d="M14.0715 62.7795H14.8858V63.5874H14.0715V62.7795Z" fill="#6A797D"/>
<path d="M14.0715 63.5874H14.8858V64.3953H14.0715V63.5874Z" fill="#6A797D"/>
<path d="M14.8858 64.3953H15.7001V65.2032H14.8858V64.3953Z" fill="#6A797D"/>
<path d="M15.7001 65.2032H16.5144V66.0112H15.7001V65.2032Z" fill="#6A797D"/>
<path d="M16.5144 66.0112H17.3287V66.8191H16.5144V66.0112Z" fill="#6A797D"/>
<path d="M16.5144 66.8191H17.3287V67.627H16.5144V66.8191Z" fill="#6A797D"/>
<path d="M17.3287 67.627H18.143V68.4349H17.3287V67.627Z" fill="#6A797D"/>
<path d="M18.143 68.4349H18.9573V69.2428H18.143V68.4349Z" fill="#6A797D"/>
<path d="M19.7716 69.2428H20.5859V70.0507H19.7716V69.2428Z" fill="#6A797D"/>
<path d="M20.5859 70.0507H21.4002V70.8586H20.5859V70.0507Z" fill="#6A797D"/>
<path d="M21.4002 70.8586H22.2145V71.6665H21.4002V70.8586Z" fill="#6A797D"/>
<path d="M23.0288 71.6665H23.8431V72.4744H23.0288V71.6665Z" fill="#6A797D"/>
<path d="M24.6574 72.4744H25.4717V73.2823H24.6574V72.4744Z" fill="#6A797D"/>
<path d="M26.286 73.2823H27.1003V74.0902H26.286V73.2823Z" fill="#6A797D"/>
<path d="M28.7289 74.0902H29.5432V74.8981H28.7289V74.0902Z" fill="#6A797D"/>
<path d="M31.9861 74.8981H32.8004V75.706H31.9861V74.8981Z" fill="#6A797D"/>
<path d="M18.9573 68.4349H19.7716V69.2428H18.9573V68.4349Z" fill="#6A797D"/>
<path d="M22.2145 70.8586H23.0288V71.6665H22.2145V70.8586Z" fill="#6A797D"/>
<path d="M23.8431 72.4744H24.6574V73.2823H23.8431V72.4744Z" fill="#6A797D"/>
<path d="M25.4717 73.2823H26.286V74.0902H25.4717V73.2823Z" fill="#6A797D"/>
<path d="M27.1003 73.2823H27.9146V74.0902H27.1003V73.2823Z" fill="#6A797D"/>
<path d="M27.9146 74.0902H28.7289V74.8981H27.9146V74.0902Z" fill="#6A797D"/>
<path d="M29.5432 74.0902H30.3575V74.8981H29.5432V74.0902Z" fill="#6A797D"/>
<path d="M30.3575 74.8981H31.1718V75.706H30.3575V74.8981Z" fill="#6A797D"/>
<path d="M31.1718 74.8981H31.9861V75.706H31.1718V74.8981Z" fill="#6A797D"/>
<path d="M32.8004 74.8981H33.6147V75.706H32.8004V74.8981Z" fill="#6A797D"/>
<path d="M33.6147 74.8981H34.429V75.706H33.6147V74.8981Z" fill="#6A797D"/>
<path d="M34.429 74.8981H35.2433V75.706H34.429V74.8981Z" fill="#6A797D"/>
<path d="M35.2433 74.8981H36.0576V75.706H35.2433V74.8981Z" fill="#6A797D"/>
<path d="M33.6147 24H34.429V24.8079H33.6147V24Z" fill="#6A797D"/>
<path d="M28.7289 24.8079H29.5432V25.6158H28.7289V24.8079Z" fill="#6A797D"/>
<path d="M26.286 25.6158H27.1003V26.4237H26.286V25.6158Z" fill="#6A797D"/>
<path d="M24.6574 26.4237H25.4717V27.2316H24.6574V26.4237Z" fill="#6A797D"/>
<path d="M23.0288 27.2316H23.8431V28.0395H23.0288V27.2316Z" fill="#6A797D"/>
<path d="M22.2145 28.0395H23.0288V28.8474H22.2145V28.0395Z" fill="#6A797D"/>
<path d="M20.5859 28.8474H21.4002V29.6553H20.5859V28.8474Z" fill="#6A797D"/>
<path d="M19.7716 29.6553H20.5859V30.4633H19.7716V29.6553Z" fill="#6A797D"/>
<path d="M18.9573 30.4633H19.7716V31.2712H18.9573V30.4633Z" fill="#6A797D"/>
<path d="M18.143 31.2712H18.9573V32.0791H18.143V31.2712Z" fill="#6A797D"/>
<path d="M17.3287 32.0791H18.143V32.887H17.3287V32.0791Z" fill="#6A797D"/>
<path d="M16.5144 32.887H17.3287V33.6949H16.5144V32.887Z" fill="#6A797D"/>
<path d="M15.7001 33.6949H16.5144V34.5028H15.7001V33.6949Z" fill="#6A797D"/>
<path d="M14.8858 34.5028H15.7001V35.3107H14.8858V34.5028Z" fill="#6A797D"/>
<path d="M14.0715 35.3107H14.8858V36.1186H14.0715V35.3107Z" fill="#6A797D"/>
<path d="M14.0715 36.1186H14.8858V36.9265H14.0715V36.1186Z" fill="#6A797D"/>
<path d="M13.2572 36.9265H14.0715V37.7344H13.2572V36.9265Z" fill="#6A797D"/>
<path d="M13.2572 37.7344H14.0715V38.5423H13.2572V37.7344Z" fill="#6A797D"/>
<path d="M12.4429 38.5423H13.2572V39.3502H12.4429V38.5423Z" fill="#6A797D"/>
<path d="M12.4429 39.3502H13.2572V40.1581H12.4429V39.3502Z" fill="#6A797D"/>
<path d="M11.6286 40.1581H12.4429V40.966H11.6286V40.1581Z" fill="#6A797D"/>
<path d="M11.6286 40.966H12.4429V41.774H11.6286V40.966Z" fill="#6A797D"/>
<path d="M11.6286 41.774H12.4429V42.5819H11.6286V41.774Z" fill="#6A797D"/>
<path d="M10.8143 42.5819H11.6286V43.3898H10.8143V42.5819Z" fill="#6A797D"/>
<path d="M10.8143 43.3898H11.6286V44.1977H10.8143V43.3898Z" fill="#6A797D"/>
<path d="M10.8143 44.1977H11.6286V45.0056H10.8143V44.1977Z" fill="#6A797D"/>
<path d="M10.8143 45.0056H11.6286V45.8135H10.8143V45.0056Z" fill="#6A797D"/>
<path d="M10 45.8135H10.8143V46.6214H10V45.8135Z" fill="#6A797D"/>
<path d="M10 46.6214H10.8143V47.4293H10V46.6214Z" fill="#6A797D"/>
<path d="M10 47.4293H10.8143V48.2372H10V47.4293Z" fill="#6A797D"/>
<path d="M10 48.2372H10.8143V49.0451H10V48.2372Z" fill="#6A797D"/>
<path d="M10 49.0451H10.8143V49.853H10V49.0451Z" fill="#6A797D"/>
<path d="M21.4002 28.0395H22.2145V28.8474H21.4002V28.0395Z" fill="#6A797D"/>
<path d="M23.8431 27.2316H24.6574V28.0395H23.8431V27.2316Z" fill="#6A797D"/>
<path d="M25.4717 26.4237H26.286V27.2316H25.4717V26.4237Z" fill="#6A797D"/>
<path d="M27.1003 25.6158H27.9146V26.4237H27.1003V25.6158Z" fill="#6A797D"/>
<path d="M27.9146 24.8079H28.7289V25.6158H27.9146V24.8079Z" fill="#6A797D"/>
<path d="M29.5432 24.8079H30.3575V25.6158H29.5432V24.8079Z" fill="#6A797D"/>
<path d="M30.3575 24.8079H31.1718V25.6158H30.3575V24.8079Z" fill="#6A797D"/>
<path d="M31.1718 24H31.9861V24.8079H31.1718V24Z" fill="#6A797D"/>
<path d="M31.9861 24H32.8004V24.8079H31.9861V24Z" fill="#6A797D"/>
<path d="M32.8004 24H33.6147V24.8079H32.8004V24Z" fill="#6A797D"/>
<path d="M34.429 24H35.2433V24.8079H34.429V24Z" fill="#6A797D"/>
<path d="M35.2433 24H36.0576V24.8079H35.2433V24Z" fill="#6A797D"/>
<path d="M36.0576 24H36.8719V24.8079H36.0576V24Z" fill="#6A797D"/>
<path d="M38.5005 24H39.3148V24.8079H38.5005V24Z" fill="#6A797D"/>
<path d="M42.572 24.8079H43.3863V25.6158H42.572V24.8079Z" fill="#6A797D"/>
<path d="M45.0149 25.6158H45.8292V26.4237H45.0149V25.6158Z" fill="#6A797D"/>
<path d="M47.4578 26.4237H48.2721V27.2316H47.4578V26.4237Z" fill="#6A797D"/>
<path d="M49.0864 27.2316H49.9007V28.0395H49.0864V27.2316Z" fill="#6A797D"/>
<path d="M49.9007 28.0395H50.715V28.8474H49.9007V28.0395Z" fill="#6A797D"/>
<path d="M51.5293 28.8474H52.3436V29.6553H51.5293V28.8474Z" fill="#6A797D"/>
<path d="M52.3436 29.6553H53.1579V30.4633H52.3436V29.6553Z" fill="#6A797D"/>
<path d="M53.1579 30.4633H53.9722V31.2712H53.1579V30.4633Z" fill="#6A797D"/>
<path d="M53.9722 31.2712H54.7865V32.0791H53.9722V31.2712Z" fill="#6A797D"/>
<path d="M54.7865 32.0791H55.6008V32.887H54.7865V32.0791Z" fill="#6A797D"/>
<path d="M55.6008 32.887H56.4151V33.6949H55.6008V32.887Z" fill="#6A797D"/>
<path d="M56.4151 33.6949H57.2294V34.5028H56.4151V33.6949Z" fill="#6A797D"/>
<path d="M57.2294 34.5028H58.0437V35.3107H57.2294V34.5028Z" fill="#6A797D"/>
<path d="M57.2294 35.3107H58.0437V36.1186H57.2294V35.3107Z" fill="#6A797D"/>
<path d="M58.0437 36.1186H58.858V36.9265H58.0437V36.1186Z" fill="#6A797D"/>
<path d="M58.858 36.9265H59.6723V37.7344H58.858V36.9265Z" fill="#6A797D"/>
<path d="M58.858 37.7344H59.6723V38.5423H58.858V37.7344Z" fill="#6A797D"/>
<path d="M59.6723 38.5423H60.4866V39.3502H59.6723V38.5423Z" fill="#6A797D"/>
<path d="M59.6723 39.3502H60.4866V40.1581H59.6723V39.3502Z" fill="#6A797D"/>
<path d="M59.6723 40.1581H60.4866V40.966H59.6723V40.1581Z" fill="#6A797D"/>
<path d="M60.4866 40.966H61.3009V41.774H60.4866V40.966Z" fill="#6A797D"/>
<path d="M60.4866 41.774H61.3009V42.5819H60.4866V41.774Z" fill="#6A797D"/>
<path d="M60.4866 42.5819H61.3009V43.3898H60.4866V42.5819Z" fill="#6A797D"/>
<path d="M61.3009 43.3898H62.1152V44.1977H61.3009V43.3898Z" fill="#6A797D"/>
<path d="M61.3009 44.1977H62.1152V45.0056H61.3009V44.1977Z" fill="#6A797D"/>
<path d="M61.3009 45.0056H62.1152V45.8135H61.3009V45.0056Z" fill="#6A797D"/>
<path d="M61.3009 45.8135H62.1152V46.6214H61.3009V45.8135Z" fill="#6A797D"/>
<path d="M61.3009 46.6214H62.1152V47.4293H61.3009V46.6214Z" fill="#6A797D"/>
<path d="M62.1152 47.4293H62.9295V48.2372H62.1152V47.4293Z" fill="#6A797D"/>
<path d="M62.1152 48.2372H62.9295V49.0451H62.1152V48.2372Z" fill="#6A797D"/>
<path d="M62.1152 49.0451H62.9295V49.853H62.1152V49.0451Z" fill="#6A797D"/>
<path d="M36.8719 24H37.6862V24.8079H36.8719V24Z" fill="#6A797D"/>
<path d="M37.6862 24H38.5005V24.8079H37.6862V24Z" fill="#6A797D"/>
<path d="M39.3148 24H40.1291V24.8079H39.3148V24Z" fill="#6A797D"/>
<path d="M40.1291 24H40.9434V24.8079H40.1291V24Z" fill="#6A797D"/>
<path d="M40.9434 24H41.7577V24.8079H40.9434V24Z" fill="#6A797D"/>
<path d="M41.7577 24.8079H42.572V25.6158H41.7577V24.8079Z" fill="#6A797D"/>
<path d="M43.3863 24.8079H44.2006V25.6158H43.3863V24.8079Z" fill="#6A797D"/>
<path d="M44.2006 24.8079H45.0149V25.6158H44.2006V24.8079Z" fill="#6A797D"/>
<path d="M45.8292 25.6158H46.6435V26.4237H45.8292V25.6158Z" fill="#6A797D"/>
<path d="M46.6435 26.4237H47.4578V27.2316H46.6435V26.4237Z" fill="#6A797D"/>
<path d="M48.2721 27.2316H49.0864V28.0395H48.2721V27.2316Z" fill="#6A797D"/>
<path d="M50.715 28.0395H51.5293V28.8474H50.715V28.0395Z" fill="#6A797D"/>
<rect x="62.1152" y="49.853" width="0.814299" height="0.807907" fill="#6A797D"/>
<rect x="62.1152" y="50.6611" width="0.814299" height="0.807907" fill="#6A797D"/>
<rect x="62.1152" y="51.4683" width="0.814299" height="0.807907" fill="#6A797D"/>
<rect x="61.3008" y="52.2764" width="0.814299" height="0.807907" fill="#6A797D"/>
<rect x="61.3008" y="53.0835" width="0.814299" height="0.807907" fill="#6A797D"/>
<rect x="61.3008" y="53.8931" width="0.814299" height="0.807907" fill="#6A797D"/>
<rect x="61.3008" y="54.7002" width="0.814299" height="0.807907" fill="#6A797D"/>
<rect x="61.3008" y="55.5083" width="0.814299" height="0.807907" fill="#6A797D"/>
<rect x="61.3008" y="56.3154" width="0.814299" height="0.807907" fill="#6A797D"/>
<rect x="60.4863" y="57.1235" width="0.814299" height="0.807907" fill="#6A797D"/>
<rect x="60.4863" y="57.9316" width="0.814299" height="0.807907" fill="#6A797D"/>
<rect x="60.4863" y="58.7402" width="0.814299" height="0.807907" fill="#6A797D"/>
<rect x="59.6719" y="59.5474" width="0.814299" height="0.807907" fill="#6A797D"/>
<rect x="59.6719" y="60.3555" width="0.814299" height="0.807907" fill="#6A797D"/>
<rect x="58.8584" y="61.1636" width="0.814299" height="0.807907" fill="#6A797D"/>
<rect x="58.8584" y="61.9717" width="0.814299" height="0.807907" fill="#6A797D"/>
<rect x="58.0439" y="62.7793" width="0.814299" height="0.807907" fill="#6A797D"/>
<rect x="57.2295" y="63.5874" width="0.814299" height="0.807907" fill="#6A797D"/>
<rect x="57.2295" y="64.3945" width="0.814299" height="0.807907" fill="#6A797D"/>
<rect x="56.415" y="65.2026" width="0.814299" height="0.807907" fill="#6A797D"/>
<rect x="55.6006" y="66.0107" width="0.814299" height="0.807907" fill="#6A797D"/>
<rect x="54.7861" y="66.8188" width="0.814299" height="0.807907" fill="#6A797D"/>
<rect x="53.9727" y="67.6265" width="0.814299" height="0.807907" fill="#6A797D"/>
<rect x="53.1582" y="68.4346" width="0.814299" height="0.807907" fill="#6A797D"/>
<rect x="52.3438" y="69.2427" width="0.814299" height="0.807907" fill="#6A797D"/>
<rect x="51.5293" y="70.0508" width="0.814299" height="0.807907" fill="#6A797D"/>
<rect x="50.7148" y="70.8579" width="0.814299" height="0.807907" fill="#6A797D"/>
<rect x="49.0859" y="71.666" width="0.814299" height="0.807907" fill="#6A797D"/>
<rect x="47.458" y="72.4736" width="0.814299" height="0.807907" fill="#6A797D"/>
<rect x="45.8291" y="73.2827" width="0.814299" height="0.807907" fill="#6A797D"/>
<rect x="43.3867" y="74.0898" width="0.814299" height="0.807907" fill="#6A797D"/>
<rect x="40.1289" y="74.8979" width="0.814299" height="0.807907" fill="#6A797D"/>
<rect x="36.0576" y="74.8979" width="0.814299" height="0.807907" fill="#6A797D"/>
<rect x="36.8721" y="74.8979" width="0.814299" height="0.807907" fill="#6A797D"/>
<rect x="37.6865" y="74.8979" width="0.814299" height="0.807907" fill="#6A797D"/>
<rect x="38.5" y="74.8979" width="0.814299" height="0.807907" fill="#6A797D"/>
<rect x="39.3145" y="74.8979" width="0.814299" height="0.807907" fill="#6A797D"/>
<rect x="40.9434" y="74.8979" width="0.814299" height="0.807907" fill="#6A797D"/>
<rect x="41.7578" y="74.8979" width="0.814299" height="0.807907" fill="#6A797D"/>
<rect x="42.5723" y="74.0898" width="0.814299" height="0.807907" fill="#6A797D"/>
<rect x="44.2002" y="74.0898" width="0.814299" height="0.807907" fill="#6A797D"/>
<rect x="45.0146" y="73.2827" width="0.814299" height="0.807907" fill="#6A797D"/>
<rect x="46.6436" y="73.2827" width="0.814299" height="0.807907" fill="#6A797D"/>
<rect x="48.2725" y="72.4736" width="0.814299" height="0.807907" fill="#6A797D"/>
<rect x="49.9004" y="70.8579" width="0.814299" height="0.807907" fill="#6A797D"/>
<rect x="10" y="49.853" width="0.814299" height="0.807907" fill="#6A797D"/>
<rect x="10" y="50.6611" width="0.814299" height="0.807907" fill="#6A797D"/>
<rect x="10" y="51.4683" width="0.814299" height="0.807907" fill="#6A797D"/>
<rect x="10" y="52.2764" width="0.814299" height="0.807907" fill="#6A797D"/>
<rect x="10" y="53.0835" width="0.814299" height="0.807907" fill="#6A797D"/>
<rect x="10.8145" y="53.8931" width="0.814299" height="0.807907" fill="#6A797D"/>
<rect x="10.8145" y="54.7002" width="0.814299" height="0.807907" fill="#6A797D"/>
<rect x="10.8145" y="55.5083" width="0.814299" height="0.807907" fill="#6A797D"/>
<rect x="10.8145" y="56.3154" width="0.814299" height="0.807907" fill="#6A797D"/>
<rect x="11.6289" y="57.1235" width="0.814299" height="0.807907" fill="#6A797D"/>
<rect x="11.6289" y="57.9316" width="0.814299" height="0.807907" fill="#6A797D"/>
<rect x="11.6289" y="58.7402" width="0.814299" height="0.807907" fill="#6A797D"/>
<rect x="12.4434" y="59.5474" width="0.814299" height="0.807907" fill="#6A797D"/>
<rect x="12.4434" y="60.3555" width="0.814299" height="0.807907" fill="#6A797D"/>
<rect x="13.2568" y="61.1636" width="0.814299" height="0.807907" fill="#6A797D"/>
<rect x="13.2568" y="61.9717" width="0.814299" height="0.807907" fill="#6A797D"/>
<rect x="14.0713" y="62.7793" width="0.814299" height="0.807907" fill="#6A797D"/>
<rect x="14.0713" y="63.5874" width="0.814299" height="0.807907" fill="#6A797D"/>
<rect x="14.8857" y="64.3945" width="0.814299" height="0.807907" fill="#6A797D"/>
<rect x="15.7002" y="65.2026" width="0.814299" height="0.807907" fill="#6A797D"/>
<rect x="16.5146" y="66.0107" width="0.814299" height="0.807907" fill="#6A797D"/>
<rect x="16.5146" y="66.8188" width="0.814299" height="0.807907" fill="#6A797D"/>
<rect x="17.3291" y="67.6265" width="0.814299" height="0.807907" fill="#6A797D"/>
<rect x="18.1426" y="68.4346" width="0.814299" height="0.807907" fill="#6A797D"/>
<rect x="19.7715" y="69.2427" width="0.814299" height="0.807907" fill="#6A797D"/>
<rect x="20.5859" y="70.0508" width="0.814299" height="0.807907" fill="#6A797D"/>
<rect x="21.4004" y="70.8579" width="0.814299" height="0.807907" fill="#6A797D"/>
<rect x="23.0283" y="71.666" width="0.814299" height="0.807907" fill="#6A797D"/>
<rect x="24.6572" y="72.4736" width="0.814299" height="0.807907" fill="#6A797D"/>
<rect x="26.2861" y="73.2827" width="0.814299" height="0.807907" fill="#6A797D"/>
<rect x="28.7285" y="74.0898" width="0.814299" height="0.807907" fill="#6A797D"/>
<rect x="31.9863" y="74.8979" width="0.814299" height="0.807907" fill="#6A797D"/>
<rect x="18.957" y="68.4346" width="0.814299" height="0.807907" fill="#6A797D"/>
<rect x="22.2148" y="70.8579" width="0.814299" height="0.807907" fill="#6A797D"/>
<rect x="23.8428" y="72.4736" width="0.814299" height="0.807907" fill="#6A797D"/>
<rect x="25.4717" y="73.2827" width="0.814299" height="0.807907" fill="#6A797D"/>
<rect x="27.1006" y="73.2827" width="0.814299" height="0.807907" fill="#6A797D"/>
<rect x="27.915" y="74.0898" width="0.814299" height="0.807907" fill="#6A797D"/>
<rect x="29.543" y="74.0898" width="0.814299" height="0.807907" fill="#6A797D"/>
<rect x="30.3574" y="74.8979" width="0.814299" height="0.807907" fill="#6A797D"/>
<rect x="31.1719" y="74.8979" width="0.814299" height="0.807907" fill="#6A797D"/>
<rect x="32.8008" y="74.8979" width="0.814299" height="0.807907" fill="#6A797D"/>
<rect x="33.6143" y="74.8979" width="0.814299" height="0.807907" fill="#6A797D"/>
<rect x="34.4287" y="74.8979" width="0.814299" height="0.807907" fill="#6A797D"/>
<rect x="35.2432" y="74.8979" width="0.814299" height="0.807907" fill="#6A797D"/>
<rect x="33.6143" y="24" width="0.814299" height="0.807907" fill="#6A797D"/>
<rect x="28.7285" y="24.8076" width="0.814299" height="0.807907" fill="#6A797D"/>
<rect x="26.2861" y="25.6152" width="0.814299" height="0.807907" fill="#6A797D"/>
<rect x="24.6572" y="26.4233" width="0.814299" height="0.807907" fill="#6A797D"/>
<rect x="23.0283" y="27.2314" width="0.814299" height="0.807907" fill="#6A797D"/>
<rect x="22.2148" y="28.0396" width="0.814299" height="0.807907" fill="#6A797D"/>
<rect x="20.5859" y="28.8467" width="0.814299" height="0.807907" fill="#6A797D"/>
<rect x="19.7715" y="29.6548" width="0.814299" height="0.807907" fill="#6A797D"/>
<rect x="18.957" y="30.4634" width="0.814299" height="0.807907" fill="#6A797D"/>
<rect x="18.1426" y="31.2715" width="0.814299" height="0.807907" fill="#6A797D"/>
<rect x="17.3291" y="32.0786" width="0.814299" height="0.807907" fill="#6A797D"/>
<rect x="16.5146" y="32.8867" width="0.814299" height="0.807907" fill="#6A797D"/>
<rect x="15.7002" y="33.6938" width="0.814299" height="0.807907" fill="#6A797D"/>
<rect x="14.8857" y="34.5029" width="0.814299" height="0.807907" fill="#6A797D"/>
<rect x="14.0713" y="35.3105" width="0.814299" height="0.807907" fill="#6A797D"/>
<rect x="14.0713" y="36.1187" width="0.814299" height="0.807907" fill="#6A797D"/>
<rect x="13.2568" y="36.9258" width="0.814299" height="0.807907" fill="#6A797D"/>
<rect x="13.2568" y="37.7339" width="0.814299" height="0.807907" fill="#6A797D"/>
<rect x="12.4434" y="38.542" width="0.814299" height="0.807907" fill="#6A797D"/>
<rect x="12.4434" y="39.3501" width="0.814299" height="0.807907" fill="#6A797D"/>
<rect x="11.6289" y="40.1577" width="0.814299" height="0.807907" fill="#6A797D"/>
<rect x="11.6289" y="40.9658" width="0.814299" height="0.807907" fill="#6A797D"/>
<rect x="11.6289" y="41.7739" width="0.814299" height="0.807907" fill="#6A797D"/>
<rect x="10.8145" y="42.582" width="0.814299" height="0.807907" fill="#6A797D"/>
<rect x="10.8145" y="43.3892" width="0.814299" height="0.807907" fill="#6A797D"/>
<rect x="10.8145" y="44.1978" width="0.814299" height="0.807907" fill="#6A797D"/>
<rect x="10.8145" y="45.0049" width="0.814299" height="0.807907" fill="#6A797D"/>
<rect x="10" y="45.813" width="0.814299" height="0.807907" fill="#6A797D"/>
<rect x="10" y="46.6211" width="0.814299" height="0.807907" fill="#6A797D"/>
<rect x="10" y="47.4292" width="0.814299" height="0.807907" fill="#6A797D"/>
<rect x="10" y="48.2363" width="0.814299" height="0.807907" fill="#6A797D"/>
<rect x="10" y="49.0449" width="0.814299" height="0.807907" fill="#6A797D"/>
<rect x="21.4004" y="28.0396" width="0.814299" height="0.807907" fill="#6A797D"/>
<rect x="23.8428" y="27.2314" width="0.814299" height="0.807907" fill="#6A797D"/>
<rect x="25.4717" y="26.4233" width="0.814299" height="0.807907" fill="#6A797D"/>
<rect x="27.1006" y="25.6152" width="0.814299" height="0.807907" fill="#6A797D"/>
<rect x="27.915" y="24.8076" width="0.814299" height="0.807907" fill="#6A797D"/>
<rect x="29.543" y="24.8076" width="0.814299" height="0.807907" fill="#6A797D"/>
<rect x="30.3574" y="24.8076" width="0.814299" height="0.807907" fill="#6A797D"/>
<rect x="31.1719" y="24" width="0.814299" height="0.807907" fill="#6A797D"/>
<rect x="31.9863" y="24" width="0.814299" height="0.807907" fill="#6A797D"/>
<rect x="32.8008" y="24" width="0.814299" height="0.807907" fill="#6A797D"/>
<rect x="34.4287" y="24" width="0.814299" height="0.807907" fill="#6A797D"/>
<rect x="35.2432" y="24" width="0.814299" height="0.807907" fill="#6A797D"/>
<rect x="36.0576" y="24" width="0.814299" height="0.807907" fill="#6A797D"/>
<rect x="38.5" y="24" width="0.814299" height="0.807907" fill="#6A797D"/>
<rect x="42.5723" y="24.8076" width="0.814299" height="0.807907" fill="#6A797D"/>
<rect x="45.0146" y="25.6152" width="0.814299" height="0.807907" fill="#6A797D"/>
<rect x="47.458" y="26.4233" width="0.814299" height="0.807907" fill="#6A797D"/>
<rect x="49.0859" y="27.2314" width="0.814299" height="0.807907" fill="#6A797D"/>
<rect x="49.9004" y="28.0396" width="0.814299" height="0.807907" fill="#6A797D"/>
<rect x="51.5293" y="28.8467" width="0.814299" height="0.807907" fill="#6A797D"/>
<rect x="52.3438" y="29.6548" width="0.814299" height="0.807907" fill="#6A797D"/>
<rect x="53.1582" y="30.4634" width="0.814299" height="0.807907" fill="#6A797D"/>
<rect x="53.9727" y="31.2715" width="0.814299" height="0.807907" fill="#6A797D"/>
<rect x="54.7861" y="32.0786" width="0.814299" height="0.807907" fill="#6A797D"/>
<rect x="55.6006" y="32.8867" width="0.814299" height="0.807907" fill="#6A797D"/>
<rect x="56.415" y="33.6938" width="0.814299" height="0.807907" fill="#6A797D"/>
<rect x="57.2295" y="34.5029" width="0.814299" height="0.807907" fill="#6A797D"/>
<rect x="57.2295" y="35.3105" width="0.814299" height="0.807907" fill="#6A797D"/>
<rect x="58.0439" y="36.1187" width="0.814299" height="0.807907" fill="#6A797D"/>
<rect x="58.8584" y="36.9258" width="0.814299" height="0.807907" fill="#6A797D"/>
<rect x="58.8584" y="37.7339" width="0.814299" height="0.807907" fill="#6A797D"/>
<rect x="59.6719" y="38.542" width="0.814299" height="0.807907" fill="#6A797D"/>
<rect x="59.6719" y="39.3501" width="0.814299" height="0.807907" fill="#6A797D"/>
<rect x="59.6719" y="40.1577" width="0.814299" height="0.807907" fill="#6A797D"/>
<rect x="60.4863" y="40.9658" width="0.814299" height="0.807907" fill="#6A797D"/>
<rect x="60.4863" y="41.7739" width="0.814299" height="0.807907" fill="#6A797D"/>
<rect x="60.4863" y="42.582" width="0.814299" height="0.807907" fill="#6A797D"/>
<rect x="61.3008" y="43.3892" width="0.814299" height="0.807907" fill="#6A797D"/>
<rect x="61.3008" y="44.1978" width="0.814299" height="0.807907" fill="#6A797D"/>
<rect x="61.3008" y="45.0049" width="0.814299" height="0.807907" fill="#6A797D"/>
<rect x="61.3008" y="45.813" width="0.814299" height="0.807907" fill="#6A797D"/>
<rect x="61.3008" y="46.6211" width="0.814299" height="0.807907" fill="#6A797D"/>
<rect x="62.1152" y="47.4292" width="0.814299" height="0.807907" fill="#6A797D"/>
<rect x="62.1152" y="48.2363" width="0.814299" height="0.807907" fill="#6A797D"/>
<rect x="62.1152" y="49.0449" width="0.814299" height="0.807907" fill="#6A797D"/>
<rect x="36.8721" y="24" width="0.814299" height="0.807907" fill="#6A797D"/>
<rect x="37.6865" y="24" width="0.814299" height="0.807907" fill="#6A797D"/>
<rect x="39.3145" y="24" width="0.814299" height="0.807907" fill="#6A797D"/>
<rect x="40.1289" y="24" width="0.814299" height="0.807907" fill="#6A797D"/>
<rect x="40.9434" y="24" width="0.814299" height="0.807907" fill="#6A797D"/>
<rect x="41.7578" y="24.8076" width="0.814299" height="0.807907" fill="#6A797D"/>
<rect x="43.3867" y="24.8076" width="0.814299" height="0.807907" fill="#6A797D"/>
<rect x="44.2002" y="24.8076" width="0.814299" height="0.807907" fill="#6A797D"/>
<rect x="45.8291" y="25.6152" width="0.814299" height="0.807907" fill="#6A797D"/>
<rect x="46.6436" y="26.4233" width="0.814299" height="0.807907" fill="#6A797D"/>
<rect x="48.2725" y="27.2314" width="0.814299" height="0.807907" fill="#6A797D"/>
<rect x="50.7148" y="28.0396" width="0.814299" height="0.807907" fill="#6A797D"/>
<rect x="62.9297" y="49.853" width="0.814299" height="0.807907" fill="#6A797D"/>
<rect x="62.9297" y="50.6611" width="0.814299" height="0.807907" fill="#6A797D"/>
<rect x="62.9297" y="51.4683" width="0.814299" height="0.807907" fill="#6A797D"/>
<rect x="62.9297" y="52.2764" width="0.814299" height="0.807907" fill="#6A797D"/>
<rect x="62.1152" y="52.2764" width="0.814299" height="0.807907" fill="#6A797D"/>
<rect x="62.1152" y="53.0835" width="0.814299" height="0.807907" fill="#6A797D"/>
<rect x="62.1152" y="53.8931" width="0.814299" height="0.807907" fill="#6A797D"/>
<rect x="62.1152" y="54.7002" width="0.814299" height="0.807907" fill="#6A797D"/>
<rect x="62.1152" y="55.5083" width="0.814299" height="0.807907" fill="#6A797D"/>
<rect x="62.1152" y="56.3154" width="0.814299" height="0.807907" fill="#6A797D"/>
<rect x="62.1152" y="57.1235" width="0.814299" height="0.807907" fill="#6A797D"/>
<rect x="61.3008" y="57.1235" width="0.814299" height="0.807907" fill="#6A797D"/>
<rect x="61.3008" y="57.9316" width="0.814299" height="0.807907" fill="#6A797D"/>
<rect x="61.3008" y="58.7402" width="0.814299" height="0.807907" fill="#6A797D"/>
<rect x="61.3008" y="59.5474" width="0.814299" height="0.807907" fill="#6A797D"/>
<rect x="60.4863" y="59.5474" width="0.814299" height="0.807907" fill="#6A797D"/>
<rect x="60.4863" y="60.3555" width="0.814299" height="0.807907" fill="#6A797D"/>
<rect x="60.4863" y="61.1636" width="0.814299" height="0.807907" fill="#6A797D"/>
<rect x="59.6719" y="61.1636" width="0.814299" height="0.807907" fill="#6A797D"/>
<rect x="59.6719" y="61.9717" width="0.814299" height="0.807907" fill="#6A797D"/>
<rect x="59.6719" y="62.7793" width="0.814299" height="0.807907" fill="#6A797D"/>
<rect x="58.8584" y="62.7793" width="0.814299" height="0.807907" fill="#6A797D"/>
<rect x="58.8584" y="63.5874" width="0.814299" height="0.807907" fill="#6A797D"/>
<rect x="58.0439" y="63.5874" width="0.814299" height="0.807907" fill="#6A797D"/>
<rect x="58.0439" y="64.3945" width="0.814299" height="0.807907" fill="#6A797D"/>
<rect x="58.0439" y="65.2026" width="0.814299" height="0.807907" fill="#6A797D"/>
<rect x="57.2295" y="65.2026" width="0.814299" height="0.807907" fill="#6A797D"/>
<rect x="57.2295" y="66.0107" width="0.814299" height="0.807907" fill="#6A797D"/>
<rect x="56.415" y="66.0107" width="0.814299" height="0.807907" fill="#6A797D"/>
<rect x="56.415" y="66.8188" width="0.814299" height="0.807907" fill="#6A797D"/>
<rect x="55.6006" y="66.8188" width="0.814299" height="0.807907" fill="#6A797D"/>
<rect x="55.6006" y="67.6265" width="0.814299" height="0.807907" fill="#6A797D"/>
<rect x="54.7861" y="67.6265" width="0.814299" height="0.807907" fill="#6A797D"/>
<rect x="54.7861" y="68.4346" width="0.814299" height="0.807907" fill="#6A797D"/>
<rect x="53.9727" y="68.4346" width="0.814299" height="0.807907" fill="#6A797D"/>
<rect x="53.9727" y="69.2427" width="0.814299" height="0.807907" fill="#6A797D"/>
<rect x="53.1582" y="69.2427" width="0.814299" height="0.807907" fill="#6A797D"/>
<rect x="53.1582" y="70.0508" width="0.814299" height="0.807907" fill="#6A797D"/>
<rect x="52.3438" y="70.0508" width="0.814299" height="0.807907" fill="#6A797D"/>
<rect x="52.3438" y="70.8579" width="0.814299" height="0.807907" fill="#6A797D"/>
<rect x="51.5293" y="70.8579" width="0.814299" height="0.807907" fill="#6A797D"/>
<rect x="51.5293" y="71.666" width="0.814299" height="0.807907" fill="#6A797D"/>
<rect x="50.7148" y="71.666" width="0.814299" height="0.807907" fill="#6A797D"/>
<rect x="49.0859" y="70.8579" width="0.814299" height="0.807907" fill="#6A797D"/>
<rect x="49.9004" y="71.666" width="0.814299" height="0.807907" fill="#6A797D"/>
<rect x="49.9004" y="72.4736" width="0.814299" height="0.807907" fill="#6A797D"/>
<rect x="49.0859" y="72.4736" width="0.814299" height="0.807907" fill="#6A797D"/>
<rect x="48.2725" y="73.2827" width="0.814299" height="0.807907" fill="#6A797D"/>
<rect x="47.458" y="73.2827" width="0.814299" height="0.807907" fill="#6A797D"/>
<rect x="46.6436" y="74.0898" width="0.814299" height="0.807907" fill="#6A797D"/>
<rect x="45.8291" y="74.0898" width="0.814299" height="0.807907" fill="#6A797D"/>
<rect x="44.2002" y="74.8979" width="0.814299" height="0.807907" fill="#6A797D"/>
<rect x="43.3867" y="74.8979" width="0.814299" height="0.807907" fill="#6A797D"/>
<rect x="40.9434" y="75.7051" width="0.814299" height="0.807907" fill="#6A797D"/>
<rect x="40.1289" y="75.7051" width="0.814299" height="0.807907" fill="#6A797D"/>
<rect x="36.8721" y="75.7051" width="0.814299" height="0.807907" fill="#6A797D"/>
<rect x="36.0576" y="75.7051" width="0.814299" height="0.807907" fill="#6A797D"/>
<rect x="37.6865" y="75.7051" width="0.814299" height="0.807907" fill="#6A797D"/>
<rect x="38.5" y="75.7051" width="0.814299" height="0.807907" fill="#6A797D"/>
<rect x="39.3145" y="75.7051" width="0.814299" height="0.807907" fill="#6A797D"/>
<rect x="41.7578" y="75.7051" width="0.814299" height="0.807907" fill="#6A797D"/>
<rect x="42.5723" y="74.8979" width="0.814299" height="0.807907" fill="#6A797D"/>
<rect x="42.5723" y="75.7051" width="0.814299" height="0.807907" fill="#6A797D"/>
<rect x="45.0146" y="74.0898" width="0.814299" height="0.807907" fill="#6A797D"/>
<rect x="45.0146" y="74.8979" width="0.814299" height="0.807907" fill="#6A797D"/>
<rect x="47.458" y="74.0898" width="0.814299" height="0.807907" fill="#6A797D"/>
<rect x="49.0859" y="73.2827" width="0.814299" height="0.807907" fill="#6A797D"/>
<rect x="10.8145" y="49.853" width="0.814299" height="0.807907" fill="#6A797D"/>
<rect x="10.8145" y="50.6611" width="0.814299" height="0.807907" fill="#6A797D"/>
<rect x="10.8145" y="51.4683" width="0.814299" height="0.807907" fill="#6A797D"/>
<rect x="10.8145" y="52.2764" width="0.814299" height="0.807907" fill="#6A797D"/>
<rect x="10.8145" y="53.0835" width="0.814299" height="0.807907" fill="#6A797D"/>
<rect x="10" y="53.8931" width="0.814299" height="0.807907" fill="#6A797D"/>
<rect x="11.6289" y="53.8931" width="0.814299" height="0.807907" fill="#6A797D"/>
<rect x="11.6289" y="54.7002" width="0.814299" height="0.807907" fill="#6A797D"/>
<rect x="11.6289" y="55.5083" width="0.814299" height="0.807907" fill="#6A797D"/>
<rect x="11.6289" y="56.3154" width="0.814299" height="0.807907" fill="#6A797D"/>
<rect x="10.8145" y="57.1235" width="0.814299" height="0.807907" fill="#6A797D"/>
<rect x="12.4434" y="57.1235" width="0.814299" height="0.807907" fill="#6A797D"/>
<rect x="12.4434" y="57.9316" width="0.814299" height="0.807907" fill="#6A797D"/>
<rect x="12.4434" y="58.7402" width="0.814299" height="0.807907" fill="#6A797D"/>
<rect x="11.6289" y="59.5474" width="0.814299" height="0.807907" fill="#6A797D"/>
<rect x="13.2568" y="59.5474" width="0.814299" height="0.807907" fill="#6A797D"/>
<rect x="13.2568" y="60.3555" width="0.814299" height="0.807907" fill="#6A797D"/>
<rect x="12.4434" y="61.1636" width="0.814299" height="0.807907" fill="#6A797D"/>
<rect x="14.0713" y="61.1636" width="0.814299" height="0.807907" fill="#6A797D"/>
<rect x="14.0713" y="61.9717" width="0.814299" height="0.807907" fill="#6A797D"/>
<rect x="13.2568" y="62.7793" width="0.814299" height="0.807907" fill="#6A797D"/>
<rect x="14.8857" y="62.7793" width="0.814299" height="0.807907" fill="#6A797D"/>
<rect x="14.8857" y="63.5874" width="0.814299" height="0.807907" fill="#6A797D"/>
<rect x="14.0713" y="64.3945" width="0.814299" height="0.807907" fill="#6A797D"/>
<rect x="15.7002" y="64.3945" width="0.814299" height="0.807907" fill="#6A797D"/>
<rect x="14.8857" y="65.2026" width="0.814299" height="0.807907" fill="#6A797D"/>
<rect x="16.5146" y="65.2026" width="0.814299" height="0.807907" fill="#6A797D"/>
<rect x="15.7002" y="66.0107" width="0.814299" height="0.807907" fill="#6A797D"/>
<rect x="17.3291" y="66.0107" width="0.814299" height="0.807907" fill="#6A797D"/>
<rect x="17.3291" y="66.8188" width="0.814299" height="0.807907" fill="#6A797D"/>
<rect x="16.5146" y="67.6265" width="0.814299" height="0.807907" fill="#6A797D"/>
<rect x="18.1426" y="67.6265" width="0.814299" height="0.807907" fill="#6A797D"/>
<rect x="17.3291" y="68.4346" width="0.814299" height="0.807907" fill="#6A797D"/>
<rect x="18.957" y="69.2427" width="0.814299" height="0.807907" fill="#6A797D"/>
<rect x="18.1426" y="69.2427" width="0.814299" height="0.807907" fill="#6A797D"/>
<rect x="20.5859" y="69.2427" width="0.814299" height="0.807907" fill="#6A797D"/>
<rect x="19.7715" y="70.0508" width="0.814299" height="0.807907" fill="#6A797D"/>
<rect x="21.4004" y="70.0508" width="0.814299" height="0.807907" fill="#6A797D"/>
<rect x="20.5859" y="70.8579" width="0.814299" height="0.807907" fill="#6A797D"/>
<rect x="22.2148" y="71.666" width="0.814299" height="0.807907" fill="#6A797D"/>
<rect x="21.4004" y="71.666" width="0.814299" height="0.807907" fill="#6A797D"/>
<rect x="23.0283" y="70.8579" width="0.814299" height="0.807907" fill="#6A797D"/>
<rect x="23.8428" y="71.666" width="0.814299" height="0.807907" fill="#6A797D"/>
<rect x="23.0283" y="72.4736" width="0.814299" height="0.807907" fill="#6A797D"/>
<rect x="25.4717" y="72.4736" width="0.814299" height="0.807907" fill="#6A797D"/>
<rect x="24.6572" y="73.2827" width="0.814299" height="0.807907" fill="#6A797D"/>
<rect x="27.1006" y="74.0898" width="0.814299" height="0.807907" fill="#6A797D"/>
<rect x="26.2861" y="74.0898" width="0.814299" height="0.807907" fill="#6A797D"/>
<rect x="29.543" y="74.8979" width="0.814299" height="0.807907" fill="#6A797D"/>
<rect x="28.7285" y="74.8979" width="0.814299" height="0.807907" fill="#6A797D"/>
<rect x="32.8008" y="75.7051" width="0.814299" height="0.807907" fill="#6A797D"/>
<rect x="31.9863" y="75.7051" width="0.814299" height="0.807907" fill="#6A797D"/>
<rect x="19.7715" y="68.4346" width="0.814299" height="0.807907" fill="#6A797D"/>
<rect x="23.8428" y="73.2827" width="0.814299" height="0.807907" fill="#6A797D"/>
<rect x="25.4717" y="74.0898" width="0.814299" height="0.807907" fill="#6A797D"/>
<rect x="27.915" y="73.2827" width="0.814299" height="0.807907" fill="#6A797D"/>
<rect x="27.915" y="74.8979" width="0.814299" height="0.807907" fill="#6A797D"/>
<rect x="30.3574" y="74.0898" width="0.814299" height="0.807907" fill="#6A797D"/>
<rect x="31.1719" y="75.7051" width="0.814299" height="0.807907" fill="#6A797D"/>
<rect x="30.3574" y="75.7051" width="0.814299" height="0.807907" fill="#6A797D"/>
<rect x="33.6143" y="75.7051" width="0.814299" height="0.807907" fill="#6A797D"/>
<rect x="34.4287" y="75.7051" width="0.814299" height="0.807907" fill="#6A797D"/>
<rect x="35.2432" y="75.7051" width="0.814299" height="0.807907" fill="#6A797D"/>
<rect x="34.4287" y="24.8076" width="0.814299" height="0.807907" fill="#6A797D"/>
<rect x="33.6143" y="24.8076" width="0.814299" height="0.807907" fill="#6A797D"/>
<rect x="29.543" y="25.6152" width="0.814299" height="0.807907" fill="#6A797D"/>
<rect x="28.7285" y="25.6152" width="0.814299" height="0.807907" fill="#6A797D"/>
<rect x="27.1006" y="26.4233" width="0.814299" height="0.807907" fill="#6A797D"/>
<rect x="26.2861" y="26.4233" width="0.814299" height="0.807907" fill="#6A797D"/>
<rect x="25.4717" y="27.2314" width="0.814299" height="0.807907" fill="#6A797D"/>
<rect x="24.6572" y="27.2314" width="0.814299" height="0.807907" fill="#6A797D"/>
<rect x="23.8428" y="28.0396" width="0.814299" height="0.807907" fill="#6A797D"/>
<rect x="23.0283" y="28.0396" width="0.814299" height="0.807907" fill="#6A797D"/>
<rect x="23.0283" y="28.8467" width="0.814299" height="0.807907" fill="#6A797D"/>
<rect x="22.2148" y="28.8467" width="0.814299" height="0.807907" fill="#6A797D"/>
<rect x="21.4004" y="28.8467" width="0.814299" height="0.807907" fill="#6A797D"/>
<rect x="21.4004" y="29.6548" width="0.814299" height="0.807907" fill="#6A797D"/>
<rect x="20.5859" y="29.6548" width="0.814299" height="0.807907" fill="#6A797D"/>
<rect x="20.5859" y="30.4634" width="0.814299" height="0.807907" fill="#6A797D"/>
<rect x="19.7715" y="30.4634" width="0.814299" height="0.807907" fill="#6A797D"/>
<rect x="18.957" y="29.6548" width="0.814299" height="0.807907" fill="#6A797D"/>
<rect x="19.7715" y="31.2715" width="0.814299" height="0.807907" fill="#6A797D"/>
<rect x="18.957" y="31.2715" width="0.814299" height="0.807907" fill="#6A797D"/>
<rect x="18.957" y="32.0786" width="0.814299" height="0.807907" fill="#6A797D"/>
<rect x="18.1426" y="32.0786" width="0.814299" height="0.807907" fill="#6A797D"/>
<rect x="18.1426" y="32.8867" width="0.814299" height="0.807907" fill="#6A797D"/>
<rect x="17.3291" y="32.8867" width="0.814299" height="0.807907" fill="#6A797D"/>
<rect x="17.3291" y="33.6938" width="0.814299" height="0.807907" fill="#6A797D"/>
<rect x="16.5146" y="33.6938" width="0.814299" height="0.807907" fill="#6A797D"/>
<rect x="16.5146" y="34.5029" width="0.814299" height="0.807907" fill="#6A797D"/>
<rect x="15.7002" y="34.5029" width="0.814299" height="0.807907" fill="#6A797D"/>
<rect x="15.7002" y="35.3105" width="0.814299" height="0.807907" fill="#6A797D"/>
<rect x="14.8857" y="35.3105" width="0.814299" height="0.807907" fill="#6A797D"/>
<rect x="14.8857" y="36.1187" width="0.814299" height="0.807907" fill="#6A797D"/>
<rect x="14.8857" y="36.9258" width="0.814299" height="0.807907" fill="#6A797D"/>
<rect x="14.0713" y="36.9258" width="0.814299" height="0.807907" fill="#6A797D"/>
<rect x="13.2568" y="36.1187" width="0.814299" height="0.807907" fill="#6A797D"/>
<rect x="14.0713" y="37.7339" width="0.814299" height="0.807907" fill="#6A797D"/>
<rect x="14.0713" y="38.542" width="0.814299" height="0.807907" fill="#6A797D"/>
<rect x="13.2568" y="38.542" width="0.814299" height="0.807907" fill="#6A797D"/>
<rect x="13.2568" y="39.3501" width="0.814299" height="0.807907" fill="#6A797D"/>
<rect x="13.2568" y="40.1577" width="0.814299" height="0.807907" fill="#6A797D"/>
<rect x="12.4434" y="40.1577" width="0.814299" height="0.807907" fill="#6A797D"/>
<rect x="12.4434" y="40.9658" width="0.814299" height="0.807907" fill="#6A797D"/>
<rect x="12.4434" y="41.7739" width="0.814299" height="0.807907" fill="#6A797D"/>
<rect x="12.4434" y="42.582" width="0.814299" height="0.807907" fill="#6A797D"/>
<rect x="11.6289" y="42.582" width="0.814299" height="0.807907" fill="#6A797D"/>
<rect x="11.6289" y="43.3892" width="0.814299" height="0.807907" fill="#6A797D"/>
<rect x="11.6289" y="44.1978" width="0.814299" height="0.807907" fill="#6A797D"/>
<rect x="11.6289" y="45.0049" width="0.814299" height="0.807907" fill="#6A797D"/>
<rect x="11.6289" y="45.813" width="0.814299" height="0.807907" fill="#6A797D"/>
<rect x="10.8145" y="45.813" width="0.814299" height="0.807907" fill="#6A797D"/>
<rect x="10.8145" y="46.6211" width="0.814299" height="0.807907" fill="#6A797D"/>
<rect x="10.8145" y="47.4292" width="0.814299" height="0.807907" fill="#6A797D"/>
<rect x="10.8145" y="48.2363" width="0.814299" height="0.807907" fill="#6A797D"/>
<rect x="10.8145" y="49.0449" width="0.814299" height="0.807907" fill="#6A797D"/>
<rect x="24.6572" y="28.0396" width="0.814299" height="0.807907" fill="#6A797D"/>
<rect x="26.2861" y="27.2314" width="0.814299" height="0.807907" fill="#6A797D"/>
<rect x="27.915" y="25.6152" width="0.814299" height="0.807907" fill="#6A797D"/>
<rect x="27.915" y="26.4233" width="0.814299" height="0.807907" fill="#6A797D"/>
<rect x="30.3574" y="25.6152" width="0.814299" height="0.807907" fill="#6A797D"/>
<rect x="31.1719" y="24.8076" width="0.814299" height="0.807907" fill="#6A797D"/>
<rect x="31.1719" y="25.6152" width="0.814299" height="0.807907" fill="#6A797D"/>
<rect x="31.9863" y="24.8076" width="0.814299" height="0.807907" fill="#6A797D"/>
<rect x="32.8008" y="24.8076" width="0.814299" height="0.807907" fill="#6A797D"/>
<rect x="35.2432" y="24.8076" width="0.814299" height="0.807907" fill="#6A797D"/>
<rect x="36.0576" y="24.8076" width="0.814299" height="0.807907" fill="#6A797D"/>
<rect x="36.8721" y="24.8076" width="0.814299" height="0.807907" fill="#6A797D"/>
<rect x="39.3145" y="24.8076" width="0.814299" height="0.807907" fill="#6A797D"/>
<rect x="38.5" y="24.8076" width="0.814299" height="0.807907" fill="#6A797D"/>
<rect x="43.3867" y="25.6152" width="0.814299" height="0.807907" fill="#6A797D"/>
<rect x="42.5723" y="25.6152" width="0.814299" height="0.807907" fill="#6A797D"/>
<rect x="45.8291" y="26.4233" width="0.814299" height="0.807907" fill="#6A797D"/>
<rect x="45.0146" y="26.4233" width="0.814299" height="0.807907" fill="#6A797D"/>
<rect x="48.2725" y="26.4233" width="0.814299" height="0.807907" fill="#6A797D"/>
<rect x="47.458" y="27.2314" width="0.814299" height="0.807907" fill="#6A797D"/>
<rect x="49.9004" y="27.2314" width="0.814299" height="0.807907" fill="#6A797D"/>
<rect x="49.0859" y="28.0396" width="0.814299" height="0.807907" fill="#6A797D"/>
<rect x="50.7148" y="28.8467" width="0.814299" height="0.807907" fill="#6A797D"/>
<rect x="49.9004" y="28.8467" width="0.814299" height="0.807907" fill="#6A797D"/>
<rect x="52.3438" y="28.8467" width="0.814299" height="0.807907" fill="#6A797D"/>
<rect x="51.5293" y="29.6548" width="0.814299" height="0.807907" fill="#6A797D"/>
<rect x="53.1582" y="29.6548" width="0.814299" height="0.807907" fill="#6A797D"/>
<rect x="52.3438" y="30.4634" width="0.814299" height="0.807907" fill="#6A797D"/>
<rect x="53.9727" y="30.4634" width="0.814299" height="0.807907" fill="#6A797D"/>
<rect x="53.1582" y="31.2715" width="0.814299" height="0.807907" fill="#6A797D"/>
<rect x="54.7861" y="31.2715" width="0.814299" height="0.807907" fill="#6A797D"/>
<rect x="53.9727" y="32.0786" width="0.814299" height="0.807907" fill="#6A797D"/>
<rect x="55.6006" y="32.0786" width="0.814299" height="0.807907" fill="#6A797D"/>
<rect x="54.7861" y="32.8867" width="0.814299" height="0.807907" fill="#6A797D"/>
<rect x="56.415" y="32.8867" width="0.814299" height="0.807907" fill="#6A797D"/>
<rect x="55.6006" y="33.6938" width="0.814299" height="0.807907" fill="#6A797D"/>
<rect x="57.2295" y="33.6938" width="0.814299" height="0.807907" fill="#6A797D"/>
<rect x="56.415" y="34.5029" width="0.814299" height="0.807907" fill="#6A797D"/>
<rect x="58.0439" y="34.5029" width="0.814299" height="0.807907" fill="#6A797D"/>
<rect x="58.0439" y="35.3105" width="0.814299" height="0.807907" fill="#6A797D"/>
<rect x="57.2295" y="36.1187" width="0.814299" height="0.807907" fill="#6A797D"/>
<rect x="58.8584" y="36.1187" width="0.814299" height="0.807907" fill="#6A797D"/>
<rect x="58.0439" y="36.9258" width="0.814299" height="0.807907" fill="#6A797D"/>
<rect x="59.6719" y="36.9258" width="0.814299" height="0.807907" fill="#6A797D"/>
<rect x="59.6719" y="37.7339" width="0.814299" height="0.807907" fill="#6A797D"/>
<rect x="58.8584" y="38.542" width="0.814299" height="0.807907" fill="#6A797D"/>
<rect x="60.4863" y="38.542" width="0.814299" height="0.807907" fill="#6A797D"/>
<rect x="60.4863" y="39.3501" width="0.814299" height="0.807907" fill="#6A797D"/>
<rect x="60.4863" y="40.1577" width="0.814299" height="0.807907" fill="#6A797D"/>
<rect x="59.6719" y="40.9658" width="0.814299" height="0.807907" fill="#6A797D"/>
<rect x="61.3008" y="40.9658" width="0.814299" height="0.807907" fill="#6A797D"/>
<rect x="61.3008" y="41.7739" width="0.814299" height="0.807907" fill="#6A797D"/>
<rect x="61.3008" y="42.582" width="0.814299" height="0.807907" fill="#6A797D"/>
<rect x="60.4863" y="43.3892" width="0.814299" height="0.807907" fill="#6A797D"/>
<rect x="62.1152" y="43.3892" width="0.814299" height="0.807907" fill="#6A797D"/>
<rect x="62.1152" y="44.1978" width="0.814299" height="0.807907" fill="#6A797D"/>
<rect x="62.1152" y="45.0049" width="0.814299" height="0.807907" fill="#6A797D"/>
<rect x="62.1152" y="45.813" width="0.814299" height="0.807907" fill="#6A797D"/>
<rect x="62.1152" y="46.6211" width="0.814299" height="0.807907" fill="#6A797D"/>
<rect x="61.3008" y="47.4292" width="0.814299" height="0.807907" fill="#6A797D"/>
<rect x="62.9297" y="47.4292" width="0.814299" height="0.807907" fill="#6A797D"/>
<rect x="62.9297" y="48.2363" width="0.814299" height="0.807907" fill="#6A797D"/>
<rect x="62.9297" y="49.0449" width="0.814299" height="0.807907" fill="#6A797D"/>
<rect x="37.6865" y="24.8076" width="0.814299" height="0.807907" fill="#6A797D"/>
<rect x="40.1289" y="24.8076" width="0.814299" height="0.807907" fill="#6A797D"/>
<rect x="40.9434" y="24.8076" width="0.814299" height="0.807907" fill="#6A797D"/>
<rect x="41.7578" y="24" width="0.814299" height="0.807907" fill="#6A797D"/>
<rect x="41.7578" y="25.6152" width="0.814299" height="0.807907" fill="#6A797D"/>
<rect x="44.2002" y="25.6152" width="0.814299" height="0.807907" fill="#6A797D"/>
<rect x="45.0146" y="24.8076" width="0.814299" height="0.807907" fill="#6A797D"/>
<rect x="46.6436" y="25.6152" width="0.814299" height="0.807907" fill="#6A797D"/>
<rect x="46.6436" y="27.2314" width="0.814299" height="0.807907" fill="#6A797D"/>
<rect x="48.2725" y="28.0396" width="0.814299" height="0.807907" fill="#6A797D"/>
<rect x="51.5293" y="28.0396" width="0.814299" height="0.807907" fill="#6A797D"/>
<path d="M47.083 59.6874H49.001V64.0343H25.123C25.123 62.7045 25.1287 61.3738 25.1401 60.0424V59.6802H27.0411V62.1458H47.0952V59.6802L47.083 59.6874Z" fill="#6A797D"/>
<path d="M28.8987 50.3484H27.0537V41.0316H28.8987V39.1745H30.7827V37.2933H32.6666V35.4507H41.4292V37.2812H43.3229V39.1528H45.1971V41.0123H47.0591V50.3484H45.2165C45.2165 50.2277 45.1898 50.1069 45.1898 49.9886C45.1898 47.1213 45.1898 44.2547 45.1898 41.389V41.0123H43.2937V39.1552H41.4219V37.3295H32.6593V39.1769H30.7875V41.034H28.9133V41.4349C28.9133 44.2926 28.9133 47.1494 28.9133 50.0055C28.9133 50.1262 28.8963 50.247 28.8866 50.3653L28.8987 50.3484Z" fill="#6A797D"/>
<path d="M30.814 55.9406C30.814 55.6726 30.7897 55.4045 30.7873 55.1341C30.7873 54.2792 30.7873 53.4219 30.7873 52.567V52.2361H28.8984V50.3477H30.8286V52.2192H32.6931V54.086H34.5625V55.9551H31.4517C31.2376 55.9551 31.0234 55.9382 30.8092 55.9286L30.814 55.9406Z" fill="#6A797D"/>
<path d="M45.2261 50.3477V52.2265H43.3373V52.567C43.3373 53.5813 43.3373 54.5955 43.3373 55.6098C43.3373 55.7209 43.3202 55.8296 43.3105 55.9406C43.257 55.9542 43.2024 55.9631 43.1474 55.9672H39.7787C39.7117 55.9634 39.6451 55.9553 39.5791 55.9431V54.0787H41.4606V52.212H43.3251V50.3597H45.2309L45.2261 50.3477Z" fill="#6A797D"/>
<path d="M28.8984 57.8424V55.9419H30.814V57.8424H28.8984Z" fill="#6A797D"/>
<path d="M43.3105 55.9419H45.2261V57.8424H43.3154V55.9419H43.3105Z" fill="#6A797D"/>
<path d="M27.041 59.6868V57.8418H28.8982V59.6844H27.041V59.6868Z" fill="#6A797D"/>
<path d="M45.2261 57.8418H47.0832V59.6868H45.2236V57.8442L45.2261 57.8418Z" fill="#6A797D"/>
<path d="M74.75 34.25V32.5H73V30.75H76.5V32.5H81.75V29H74.75V27.25H73V22H76.5V27.25H81.75V22H85.25V32.5H83.5V34.25H74.75ZM92.25 34.25V27.25H88.75V25.5H99.25V27.25H95.75V34.25H92.25ZM101 34.25V25.5H111.5V27.25H113.25V29H111.5V30.75H113.25V32.5H111.5V34.25H101ZM104.5 29H109.75V27.25H104.5V29ZM104.5 32.5H109.75V30.75H104.5V32.5ZM116.75 34.25V32.5H115V27.25H116.75V25.5H125.5V27.25H127.25V30.75H118.5V32.5H125.5V34.25H116.75ZM118.5 29H123.75V27.25H118.5V29ZM141.25 27.25V32.5H139.5V34.25H132.5V36H129V25.5H132.5V27.25H134.25V29H132.5V32.5H137.75V27.25H134.25V25.5H139.5V27.25H141.25ZM143 34.25V30.75H144.75V29H143V25.5H146.5V29H148.25V25.5H150V29H151.75V25.5H155.25V29H153.5V30.75H155.25V34.25H151.75V30.75H150V34.25H148.25V30.75H146.5V34.25H143ZM169.25 32.5H171V36H167.5V34.25H160.5V36H157V32.5H158.75V30.75H160.5V25.5H169.25V32.5ZM162.25 32.5H165.75V27.25H162.25V32.5ZM172.75 34.25V32.5H171V27.25H172.75V25.5H181.5V27.25H183.25V30.75H174.5V32.5H181.5V34.25H172.75ZM174.5 29H179.75V27.25H174.5V29ZM185 34.25V25.5H188.5V29H193.75V25.5H197.25V34.25H193.75V30.75H188.5V34.25H185ZM202.5 30.75H204.25V32.5H202.5V34.25H199V25.5H202.5V30.75ZM211.25 25.5V34.25H207.75V29H206V27.25H207.75V25.5H211.25ZM204.25 29H206V30.75H204.25V29ZM214.75 34.25V32.5H213V27.25H214.75V25.5H223.5V27.25H225.25V30.75H216.5V32.5H223.5V34.25H214.75ZM216.5 29H221.75V27.25H216.5V29ZM76.5 44.75H78.25V46.5H76.5V48.25H73V39.5H76.5V44.75ZM85.25 39.5V48.25H81.75V43H80V41.25H81.75V39.5H85.25ZM78.25 43H80V44.75H78.25V43ZM87 48.25V39.5H90.5V43H95.75V39.5H99.25V48.25H95.75V44.75H90.5V48.25H87ZM101 48.25V39.5H111.5V41.25H113.25V43H111.5V44.75H113.25V46.5H111.5V48.25H101ZM104.5 43H109.75V41.25H104.5V43ZM104.5 46.5H109.75V44.75H104.5V46.5ZM116.75 48.25V46.5H115V41.25H116.75V39.5H125.5V41.25H127.25V44.75H118.5V46.5H125.5V48.25H116.75ZM118.5 43H123.75V41.25H118.5V43ZM130.75 48.25V46.5H129V41.25H130.75V39.5H139.5V41.25H141.25V43H137.75V41.25H132.5V46.5H137.75V44.75H141.25V46.5H139.5V48.25H130.75ZM148.25 48.25V41.25H144.75V39.5H155.25V41.25H151.75V48.25H148.25ZM160.5 44.75H162.25V46.5H160.5V48.25H157V39.5H160.5V44.75ZM169.25 39.5V48.25H165.75V43H164V41.25H165.75V39.5H169.25ZM162.25 43H164V44.75H162.25V43ZM179.75 50V48.25H171V39.5H174.5V46.5H178V39.5H181.5V46.5H183.25V50H179.75ZM188.5 44.75H190.25V46.5H188.5V48.25H185V39.5H188.5V44.75ZM197.25 39.5V48.25H193.75V43H192V41.25H193.75V39.5H197.25ZM190.25 43H192V44.75H190.25V43ZM200.75 48.25V46.5H199V41.25H200.75V39.5H209.5V41.25H211.25V46.5H209.5V48.25H200.75ZM202.5 46.5H207.75V41.25H202.5V46.5ZM213 48.25V39.5H216.5V43H221.75V39.5H225.25V48.25H221.75V44.75H216.5V48.25H213ZM227 48.25V39.5H230.5V43H235.75V39.5H239.25V48.25H235.75V44.75H230.5V48.25H227ZM241 48.25V39.5H244.5V43H248V48.25H241ZM249.75 48.25V39.5H253.25V48.25H249.75ZM244.5 46.5H246.25V44.75H244.5V46.5ZM255 48.25V46.5H256.75V44.75H258.5V43H256.75V41.25H255V39.5H258.5V41.25H260.25V43H262V41.25H263.75V39.5H267.25V41.25H265.5V43H263.75V44.75H265.5V46.5H267.25V48.25H263.75V46.5H262V44.75H260.25V46.5H258.5V48.25H255ZM73 62.25V53.5H85.25V62.25H81.75V55.25H76.5V62.25H73ZM99.25 55.25V60.5H97.5V62.25H90.5V64H87V53.5H90.5V55.25H92.25V57H90.5V60.5H95.75V55.25H92.25V53.5H97.5V55.25H99.25ZM102.75 62.25V60.5H101V55.25H102.75V53.5H111.5V55.25H113.25V60.5H111.5V62.25H102.75ZM104.5 60.5H109.75V55.25H104.5V60.5ZM116.75 62.25V53.5H127.25V57H125.5V55.25H120.25V62.25H116.75ZM141.25 55.25V60.5H139.5V62.25H132.5V64H129V53.5H132.5V55.25H134.25V57H132.5V60.5H137.75V55.25H134.25V53.5H139.5V55.25H141.25ZM144.75 62.25V60.5H143V58.75H144.75V57H151.75V55.25H144.75V53.5H153.5V55.25H155.25V62.25H144.75ZM146.5 60.5H151.75V58.75H146.5V60.5ZM162.25 55.25V57H160.5V62.25H157V53.5H160.5V55.25H162.25ZM169.25 53.5V62.25H165.75V57H164V55.25H165.75V53.5H169.25ZM162.25 57H164V60.5H162.25V57ZM176.25 55.25V57H174.5V62.25H171V53.5H174.5V55.25H176.25ZM183.25 53.5V62.25H179.75V57H178V55.25H179.75V53.5H183.25ZM176.25 57H178V60.5H176.25V57ZM202.5 58.75H204.25V60.5H202.5V62.25H199V53.5H202.5V58.75ZM211.25 53.5V62.25H207.75V57H206V55.25H207.75V53.5H211.25ZM204.25 57H206V58.75H204.25V57ZM73 76.25V67.5H85.25V76.25H81.75V69.25H76.5V76.25H73ZM99.25 69.25V74.5H97.5V76.25H90.5V78H87V67.5H90.5V69.25H92.25V71H90.5V74.5H95.75V69.25H92.25V67.5H97.5V69.25H99.25ZM102.75 76.25V74.5H101V69.25H102.75V67.5H111.5V69.25H113.25V72.75H104.5V74.5H111.5V76.25H102.75ZM104.5 71H109.75V69.25H104.5V71ZM127.25 74.5H129V78H125.5V76.25H118.5V78H115V74.5H116.75V72.75H118.5V67.5H127.25V74.5ZM120.25 74.5H123.75V69.25H120.25V74.5ZM130.75 76.25V74.5H129V69.25H130.75V67.5H139.5V69.25H141.25V74.5H139.5V76.25H130.75ZM132.5 74.5H137.75V69.25H132.5V74.5ZM144.75 76.25V74.5H143V69.25H144.75V67.5H153.5V69.25H155.25V71H151.75V69.25H146.5V74.5H151.75V72.75H155.25V74.5H153.5V76.25H144.75ZM162.25 76.25V69.25H158.75V67.5H169.25V69.25H165.75V76.25H162.25ZM172.75 76.25V74.5H171V72.75H172.75V71H179.75V69.25H172.75V67.5H181.5V69.25H183.25V76.25H172.75ZM174.5 74.5H179.75V72.75H174.5V74.5ZM185 76.25V67.5H195.5V69.25H197.25V71H195.5V72.75H197.25V74.5H195.5V76.25H185ZM188.5 71H193.75V69.25H188.5V71ZM188.5 74.5H193.75V72.75H188.5V74.5ZM211.25 67.5V76.25H207.75V69.25H204.25V74.5H202.5V76.25H199V72.75H200.75V71H202.5V67.5H211.25ZM214.75 76.25V74.5H213V69.25H214.75V67.5H223.5V69.25H225.25V72.75H216.5V74.5H223.5V76.25H214.75ZM216.5 71H221.75V69.25H216.5V71ZM227 76.25V67.5H230.5V71H235.75V67.5H239.25V76.25H235.75V72.75H230.5V76.25H227ZM244.5 72.75H246.25V74.5H244.5V76.25H241V67.5H244.5V72.75ZM253.25 67.5V76.25H249.75V71H248V69.25H249.75V67.5H253.25ZM246.25 71H248V72.75H246.25V71ZM256.75 76.25V74.5H255V69.25H256.75V67.5H265.5V69.25H267.25V72.75H258.5V74.5H265.5V76.25H256.75ZM258.5 71H263.75V69.25H258.5V71ZM74.75 90.25V81.5H85.25V85H83.5V83.25H78.25V90.25H74.75ZM99.25 83.25V88.5H97.5V90.25H90.5V92H87V81.5H90.5V83.25H92.25V85H90.5V88.5H95.75V83.25H92.25V81.5H97.5V83.25H99.25ZM102.75 90.25V88.5H101V86.75H102.75V85H109.75V83.25H102.75V81.5H111.5V83.25H113.25V90.25H102.75ZM104.5 88.5H109.75V86.75H104.5V88.5ZM115 90.25V81.5H118.5V85H123.75V81.5H127.25V90.25H123.75V86.75H118.5V90.25H115ZM134.25 90.25V83.25H130.75V81.5H141.25V83.25H137.75V90.25H134.25ZM144.75 90.25V88.5H143V83.25H144.75V81.5H153.5V83.25H155.25V88.5H153.5V90.25H144.75ZM146.5 88.5H151.75V83.25H146.5V88.5ZM157 90.25V81.5H167.5V83.25H169.25V85H167.5V86.75H169.25V88.5H167.5V90.25H157ZM160.5 85H165.75V83.25H160.5V85ZM160.5 88.5H165.75V86.75H160.5V88.5Z" fill="black"/>
</svg>
