<svg width="301" height="76" viewBox="0 0 301 76" fill="none" xmlns="http://www.w3.org/2000/svg">
<path d="M287.609 74.4996L13.5227 74.4292V72.5729V71.0729H12.0227H7.56473L7.41122 68.9939L7.32958 67.8884L6.24877 67.6419C5.48925 67.4687 5.05554 67.3671 4.75687 67.2589C4.68984 67.2347 4.64312 67.2146 4.61181 67.1997C4.5965 67.1412 4.57346 67.0295 4.55451 66.8366C4.51348 66.419 4.50712 65.8457 4.49951 64.9475C4.49943 64.2285 4.48645 63.5677 4.40321 63.0057C4.31748 62.4268 4.13832 61.805 3.69612 61.2654C3.25156 60.7229 2.67689 60.4288 2.12826 60.2375C1.93235 60.1692 1.72193 60.1081 1.5 60.0518V15.7485C1.76564 15.7026 2.01894 15.6487 2.25035 15.5808C2.80208 15.4188 3.40737 15.1286 3.84856 14.515C4.25371 13.9516 4.38241 13.2991 4.44217 12.7393C4.50314 12.1681 4.51066 11.4617 4.51427 10.6555H4.51429V10.6488V10.6423V10.6359V10.6294V10.6229V10.6165V10.61V10.6035V10.5971V10.5906V10.5842V10.5777V10.5712V10.5648V10.5583V10.5518V10.5454V10.5389V10.5325V10.526V10.5195V10.5131V10.5066V10.5001V10.4937V10.4872V10.4808V10.4743V10.4678V10.4614V10.4549V10.4484V10.442V10.4355V10.429V10.4226V10.4161V10.4096V10.4032V10.3967V10.3903V10.3838V10.3773V10.3709V10.3644V10.3579V10.3515V10.345V10.3385V10.3321V10.3256V10.3191V10.3126V10.3062V10.2997V10.2932V10.2868V10.2803V10.2738V10.2674V10.2609V10.2544V10.248V10.2415V10.235V10.2285V10.2221V10.2156V10.2091V10.2026V10.1962V10.1897V10.1832V10.1768V10.1703V10.1638V10.1573V10.1509V10.1444V10.1379V10.1314V10.1249V10.1185V10.112V10.1055V10.099V10.0926V10.0861V10.0796V10.0731V10.0666V10.0601V10.0537V10.0472V10.0407V10.0342V10.0277V10.0213V10.0148V10.0083V10.0018V9.99531V9.98882V9.98234V9.97585V9.96936V9.96287V9.95638V9.94989V9.9434V9.93691V9.93042V9.92393V9.91744V9.91095V9.90445V9.89796V9.89147V9.88497V9.87848V9.87198V9.86548V9.85899V9.85249V9.84599V9.83949V9.83299V9.82649V9.81999V9.81349V9.80699V9.80049V9.79398V9.78748V9.78097V9.77447V9.76796V9.76146V9.75495V9.74844V9.74193V9.73542V9.72892V9.72241V9.71589V9.70938V9.70287V9.69636V9.68984V9.68333V9.67681V9.6703V9.66378V9.65726V9.65075V9.64423V9.63771V9.63119V9.62467V9.61814V9.61162V9.6051V9.59857V9.59205V9.58552V9.579V9.57247V9.56594V9.55941V9.55288V9.54635V9.53982V9.53329V9.52676V9.52022V9.51369V9.50715V9.50062V9.49408V9.48754V9.481V9.47446V9.46792V9.46138V9.45484V9.4483V9.44175V9.43521V9.42866V9.42212V9.41557V9.40902V9.40247V9.39592V9.38937V9.38282V9.37626V9.36971V9.36316V9.3566V9.35004V9.34348V9.33693V9.33037V9.32381V9.31724V9.31068V9.30412V9.29755V9.29099V9.28442V9.27785V9.27129V9.26472V9.25815V9.25157V9.245V9.23843V9.23185V9.22528V9.2187V9.21212V9.20554V9.19896V9.19238V9.1858V9.17922V9.17263V9.16605V9.15946V9.15287V9.14629V9.1397V9.1331V9.12651V9.11992V9.11333V9.10673V9.10013V9.09354V9.08694V9.08034V9.07374V9.06713V9.06053V9.05393V9.04732V9.04071V9.03411V9.0275V9.02089V9.01427V9.00766V9.00105V8.99443V8.98782V8.9812V8.97458V8.96796V8.96134V8.95472V8.94809V8.94147V8.93484V8.92821V8.92159V8.91496V8.90832V8.90169V8.89506V8.88842V8.88179V8.87515V8.86851V8.86187V8.85523V8.84858V8.84194V8.83529V8.82865V8.822V8.81535V8.8087V8.80205V8.79539V8.78874V8.78208V8.77542V8.76877V8.7621V8.75544V8.74878V8.74212V8.73545V8.72878V8.72211V8.71544V8.70877V8.7021V8.69542V8.68875V8.68207V8.67539V8.66871V8.66203V8.65535V8.64884L6.0566 8.5591L7.4148 8.48007L7.46831 7.12062L7.5495 5.0575H11.9291H13.3503L13.4269 3.63837L13.5424 1.5H287.569L287.738 3.67345L287.845 5.0575H289.233H293.594C293.624 5.75357 293.654 6.43093 293.69 7.18575L293.757 8.615H295.188H296.604V10.6251C296.604 11.4584 296.605 12.1878 296.663 12.7709C296.719 13.3444 296.847 14.0209 297.28 14.6012C297.742 15.2212 298.375 15.5016 298.93 15.6612C299.107 15.712 299.298 15.7564 299.5 15.7967V60.1326C299.279 60.1856 299.069 60.2436 298.876 60.3097C298.302 60.506 297.693 60.8305 297.259 61.4739C296.86 62.0648 296.735 62.7451 296.677 63.3532C296.619 63.9726 296.615 64.7475 296.614 65.6516V65.6536V65.6594V65.6652V65.6709V65.6767V65.6824V65.6882V65.694V65.6998V65.7055V65.7113V65.7171V65.7228V65.7286V65.7344V65.7401V65.7459V65.7517V65.7574V65.7632V65.769V65.7747V65.7805V65.7863V65.792V65.7978V65.8036V65.8093V65.8151V65.8209V65.8267V65.8324V65.8382V65.844V65.8497V65.8555V65.8613V65.8671V65.8728V65.8786V65.8844V65.8902V65.8959V65.9017V65.9075V65.9133V65.919V65.9248V65.9306V65.9364V65.9421V65.9479V65.9537V65.9595V65.9652V65.971V65.9768V65.9826V65.9884V65.9941V65.9999V66.0057V66.0115V66.0173V66.023V66.0288V66.0346V66.0404V66.0462V66.052V66.0577V66.0635V66.0693V66.0751V66.0809V66.0867V66.0925V66.0983V66.1041V66.1098V66.1156V66.1214V66.1272V66.133V66.1388V66.1446V66.1504V66.1562V66.162V66.1678V66.1736V66.1794V66.1852V66.191V66.1968V66.2026V66.2084V66.2142V66.22V66.2258V66.2316V66.2374V66.2432V66.249V66.2548V66.2606V66.2664V66.2723V66.2781V66.2839V66.2897V66.2955V66.3013V66.3071V66.313V66.3188V66.3246V66.3304V66.3362V66.3421V66.3479V66.3537V66.3595V66.3653V66.3712V66.377V66.3828V66.3887V66.3945V66.4003V66.4061V66.412V66.4178V66.4236V66.4295V66.4353V66.4412V66.447V66.4528V66.4587V66.4645V66.4704V66.4762V66.482V66.4879V66.4937V66.4996V66.5054V66.5113V66.5171V66.523V66.5288V66.5347V66.5406V66.5464V66.5523V66.5581V66.564V66.5699V66.5757V66.5816V66.5875V66.5933V66.5992V66.6051V66.6109V66.6168V66.6227V66.6286V66.6344V66.6403V66.6462V66.6521V66.6579V66.6638V66.6697V66.6756V66.6815V66.6874V66.6933V66.6992V66.705V66.7109V66.7168V66.7227V66.7286V66.7345V66.7404V66.7463V66.7522V66.7581V66.764V66.77V66.7759V66.7818V66.7877V66.7936V66.7995V66.8054V66.8114V66.8173V66.8232V66.8291V66.835V66.841V66.8469V66.8528V66.8588V66.8647V66.8706V66.8766V66.8825V66.8884V66.8944V66.9003V66.9063V66.9122V66.9182V66.9241V66.9301V66.936V66.942V66.9479V66.9539V66.9598V66.9658V66.9718V66.9777V66.9837V66.9897V66.9956V67.0016V67.0076V67.0135V67.0195V67.0255V67.0315V67.0375V67.0434V67.0494V67.0554V67.0614V67.0674V67.0734V67.0794V67.0854V67.0914V67.0974V67.1034V67.1094V67.1154V67.1214V67.1274V67.1334V67.1394V67.1455V67.1515V67.1575V67.1635V67.1695V67.1756V67.1816V67.1876V67.1936V67.1997V67.2057V67.2118V67.2178V67.2238V67.2299V67.2359V67.242V67.248V67.2541V67.2601V67.2662V67.2723V67.2783V67.2844V67.2904V67.2965V67.3026V67.3086V67.3147V67.3208V67.3269V67.333V67.339V67.3451V67.3512V67.3573V67.3634V67.3695V67.3756V67.3817V67.3878V67.3939V67.4V67.4061V67.4101L295.08 67.5514L293.788 67.6705L293.72 68.9665C293.684 69.6539 293.649 70.3077 293.613 71.0077H289.253H287.853L287.757 72.4046C287.704 73.1659 287.657 73.8354 287.609 74.4996ZM4.55717 67.1699C4.55725 67.1698 4.55871 67.1708 4.56127 67.1727C4.55836 67.1709 4.55709 67.1699 4.55717 67.1699Z" fill="#809DE3" stroke="#2B57E4" stroke-width="3"/>
<path d="M65.1152 36.8535H65.9295V37.6614H65.1152V36.8535Z" fill="white"/>
<path d="M65.1152 37.6614H65.9295V38.4693H65.1152V37.6614Z" fill="white"/>
<path d="M65.1152 38.4693H65.9295V39.2772H65.1152V38.4693Z" fill="white"/>
<path d="M64.3009 39.2772H65.1152V40.0851H64.3009V39.2772Z" fill="white"/>
<path d="M64.3009 40.0851H65.1152V40.893H64.3009V40.0851Z" fill="white"/>
<path d="M64.3009 40.893H65.1152V41.7009H64.3009V40.893Z" fill="white"/>
<path d="M64.3009 41.7009H65.1152V42.5089H64.3009V41.7009Z" fill="white"/>
<path d="M64.3009 42.5089H65.1152V43.3168H64.3009V42.5089Z" fill="white"/>
<path d="M64.3009 43.3168H65.1152V44.1247H64.3009V43.3168Z" fill="white"/>
<path d="M63.4866 44.1247H64.3009V44.9326H63.4866V44.1247Z" fill="white"/>
<path d="M63.4866 44.9326H64.3009V45.7405H63.4866V44.9326Z" fill="white"/>
<path d="M63.4866 45.7405H64.3009V46.5484H63.4866V45.7405Z" fill="white"/>
<path d="M62.6723 46.5484H63.4866V47.3563H62.6723V46.5484Z" fill="white"/>
<path d="M62.6723 47.3563H63.4866V48.1642H62.6723V47.3563Z" fill="white"/>
<path d="M61.858 48.1642H62.6723V48.9721H61.858V48.1642Z" fill="white"/>
<path d="M61.858 48.9721H62.6723V49.78H61.858V48.9721Z" fill="white"/>
<path d="M61.0437 49.78H61.858V50.5879H61.0437V49.78Z" fill="white"/>
<path d="M60.2294 50.5879H61.0437V51.3958H60.2294V50.5879Z" fill="white"/>
<path d="M60.2294 51.3958H61.0437V52.2037H60.2294V51.3958Z" fill="white"/>
<path d="M59.4151 52.2037H60.2294V53.0116H59.4151V52.2037Z" fill="white"/>
<path d="M58.6008 53.0116H59.4151V53.8195H58.6008V53.0116Z" fill="white"/>
<path d="M57.7865 53.8195H58.6008V54.6275H57.7865V53.8195Z" fill="white"/>
<path d="M56.9722 54.6275H57.7865V55.4354H56.9722V54.6275Z" fill="white"/>
<path d="M56.1579 55.4354H56.9722V56.2433H56.1579V55.4354Z" fill="white"/>
<path d="M55.3436 56.2433H56.1579V57.0512H55.3436V56.2433Z" fill="white"/>
<path d="M54.5293 57.0512H55.3436V57.8591H54.5293V57.0512Z" fill="white"/>
<path d="M53.715 57.8591H54.5293V58.667H53.715V57.8591Z" fill="white"/>
<path d="M52.0864 58.667H52.9007V59.4749H52.0864V58.667Z" fill="white"/>
<path d="M50.4578 59.4749H51.2721V60.2828H50.4578V59.4749Z" fill="white"/>
<path d="M48.8292 60.2828H49.6435V61.0907H48.8292V60.2828Z" fill="white"/>
<path d="M46.3863 61.0907H47.2006V61.8986H46.3863V61.0907Z" fill="white"/>
<path d="M43.1291 61.8986H43.9434V62.7065H43.1291V61.8986Z" fill="white"/>
<path d="M39.0576 61.8986H39.8719V62.7065H39.0576V61.8986Z" fill="white"/>
<path d="M39.8719 61.8986H40.6862V62.7065H39.8719V61.8986Z" fill="white"/>
<path d="M40.6862 61.8986H41.5005V62.7065H40.6862V61.8986Z" fill="white"/>
<path d="M41.5005 61.8986H42.3148V62.7065H41.5005V61.8986Z" fill="white"/>
<path d="M42.3148 61.8986H43.1291V62.7065H42.3148V61.8986Z" fill="white"/>
<path d="M43.9434 61.8986H44.7577V62.7065H43.9434V61.8986Z" fill="white"/>
<path d="M44.7577 61.8986H45.572V62.7065H44.7577V61.8986Z" fill="white"/>
<path d="M45.572 61.0907H46.3863V61.8986H45.572V61.0907Z" fill="white"/>
<path d="M47.2006 61.0907H48.0149V61.8986H47.2006V61.0907Z" fill="white"/>
<path d="M48.0149 60.2828H48.8292V61.0907H48.0149V60.2828Z" fill="white"/>
<path d="M49.6435 60.2828H50.4578V61.0907H49.6435V60.2828Z" fill="white"/>
<path d="M51.2721 59.4749H52.0864V60.2828H51.2721V59.4749Z" fill="white"/>
<path d="M52.9007 57.8591H53.715V58.667H52.9007V57.8591Z" fill="white"/>
<path d="M13 36.8535H13.8143V37.6614H13V36.8535Z" fill="white"/>
<path d="M13 37.6614H13.8143V38.4693H13V37.6614Z" fill="white"/>
<path d="M13 38.4693H13.8143V39.2772H13V38.4693Z" fill="white"/>
<path d="M13 39.2772H13.8143V40.0851H13V39.2772Z" fill="white"/>
<path d="M13 40.0851H13.8143V40.893H13V40.0851Z" fill="white"/>
<path d="M13.8143 40.893H14.6286V41.7009H13.8143V40.893Z" fill="white"/>
<path d="M13.8143 41.7009H14.6286V42.5089H13.8143V41.7009Z" fill="white"/>
<path d="M13.8143 42.5089H14.6286V43.3168H13.8143V42.5089Z" fill="white"/>
<path d="M13.8143 43.3168H14.6286V44.1247H13.8143V43.3168Z" fill="white"/>
<path d="M14.6286 44.1247H15.4429V44.9326H14.6286V44.1247Z" fill="white"/>
<path d="M14.6286 44.9326H15.4429V45.7405H14.6286V44.9326Z" fill="white"/>
<path d="M14.6286 45.7405H15.4429V46.5484H14.6286V45.7405Z" fill="white"/>
<path d="M15.4429 46.5484H16.2572V47.3563H15.4429V46.5484Z" fill="white"/>
<path d="M15.4429 47.3563H16.2572V48.1642H15.4429V47.3563Z" fill="white"/>
<path d="M16.2572 48.1642H17.0715V48.9721H16.2572V48.1642Z" fill="white"/>
<path d="M16.2572 48.9721H17.0715V49.78H16.2572V48.9721Z" fill="white"/>
<path d="M17.0715 49.78H17.8858V50.5879H17.0715V49.78Z" fill="white"/>
<path d="M17.0715 50.5879H17.8858V51.3958H17.0715V50.5879Z" fill="white"/>
<path d="M17.8858 51.3958H18.7001V52.2037H17.8858V51.3958Z" fill="white"/>
<path d="M18.7001 52.2037H19.5144V53.0116H18.7001V52.2037Z" fill="white"/>
<path d="M19.5144 53.0116H20.3287V53.8195H19.5144V53.0116Z" fill="white"/>
<path d="M19.5144 53.8195H20.3287V54.6275H19.5144V53.8195Z" fill="white"/>
<path d="M20.3287 54.6275H21.143V55.4354H20.3287V54.6275Z" fill="white"/>
<path d="M21.143 55.4354H21.9573V56.2433H21.143V55.4354Z" fill="white"/>
<path d="M22.7716 56.2433H23.5859V57.0512H22.7716V56.2433Z" fill="white"/>
<path d="M23.5859 57.0512H24.4002V57.8591H23.5859V57.0512Z" fill="white"/>
<path d="M24.4002 57.8591H25.2145V58.667H24.4002V57.8591Z" fill="white"/>
<path d="M26.0288 58.667H26.8431V59.4749H26.0288V58.667Z" fill="white"/>
<path d="M27.6574 59.4749H28.4717V60.2828H27.6574V59.4749Z" fill="white"/>
<path d="M29.286 60.2828H30.1003V61.0907H29.286V60.2828Z" fill="white"/>
<path d="M31.7289 61.0907H32.5432V61.8986H31.7289V61.0907Z" fill="white"/>
<path d="M34.9861 61.8986H35.8004V62.7065H34.9861V61.8986Z" fill="white"/>
<path d="M21.9573 55.4354H22.7716V56.2433H21.9573V55.4354Z" fill="white"/>
<path d="M25.2145 57.8591H26.0288V58.667H25.2145V57.8591Z" fill="white"/>
<path d="M26.8431 59.4749H27.6574V60.2828H26.8431V59.4749Z" fill="white"/>
<path d="M28.4717 60.2828H29.286V61.0907H28.4717V60.2828Z" fill="white"/>
<path d="M30.1003 60.2828H30.9146V61.0907H30.1003V60.2828Z" fill="white"/>
<path d="M30.9146 61.0907H31.7289V61.8986H30.9146V61.0907Z" fill="white"/>
<path d="M32.5432 61.0907H33.3575V61.8986H32.5432V61.0907Z" fill="white"/>
<path d="M33.3575 61.8986H34.1718V62.7065H33.3575V61.8986Z" fill="white"/>
<path d="M34.1718 61.8986H34.9861V62.7065H34.1718V61.8986Z" fill="white"/>
<path d="M35.8004 61.8986H36.6147V62.7065H35.8004V61.8986Z" fill="white"/>
<path d="M36.6147 61.8986H37.429V62.7065H36.6147V61.8986Z" fill="white"/>
<path d="M37.429 61.8986H38.2433V62.7065H37.429V61.8986Z" fill="white"/>
<path d="M38.2433 61.8986H39.0576V62.7065H38.2433V61.8986Z" fill="white"/>
<path d="M36.6147 11.0005H37.429V11.8084H36.6147V11.0005Z" fill="white"/>
<path d="M31.7289 11.8084H32.5432V12.6163H31.7289V11.8084Z" fill="white"/>
<path d="M29.286 12.6163H30.1003V13.4242H29.286V12.6163Z" fill="white"/>
<path d="M27.6574 13.4242H28.4717V14.2321H27.6574V13.4242Z" fill="white"/>
<path d="M26.0288 14.2321H26.8431V15.04H26.0288V14.2321Z" fill="white"/>
<path d="M25.2145 15.04H26.0288V15.8479H25.2145V15.04Z" fill="white"/>
<path d="M23.5859 15.8479H24.4002V16.6558H23.5859V15.8479Z" fill="white"/>
<path d="M22.7716 16.6558H23.5859V17.4637H22.7716V16.6558Z" fill="white"/>
<path d="M21.9573 17.4637H22.7716V18.2716H21.9573V17.4637Z" fill="white"/>
<path d="M21.143 18.2716H21.9573V19.0796H21.143V18.2716Z" fill="white"/>
<path d="M20.3287 19.0796H21.143V19.8875H20.3287V19.0796Z" fill="white"/>
<path d="M19.5144 19.8875H20.3287V20.6954H19.5144V19.8875Z" fill="white"/>
<path d="M18.7001 20.6954H19.5144V21.5033H18.7001V20.6954Z" fill="white"/>
<path d="M17.8858 21.5033H18.7001V22.3112H17.8858V21.5033Z" fill="white"/>
<path d="M17.0715 22.3112H17.8858V23.1191H17.0715V22.3112Z" fill="white"/>
<path d="M17.0715 23.1191H17.8858V23.927H17.0715V23.1191Z" fill="white"/>
<path d="M16.2572 23.927H17.0715V24.7349H16.2572V23.927Z" fill="white"/>
<path d="M16.2572 24.7349H17.0715V25.5428H16.2572V24.7349Z" fill="white"/>
<path d="M15.4429 25.5428H16.2572V26.3507H15.4429V25.5428Z" fill="white"/>
<path d="M15.4429 26.3507H16.2572V27.1586H15.4429V26.3507Z" fill="white"/>
<path d="M14.6286 27.1586H15.4429V27.9665H14.6286V27.1586Z" fill="white"/>
<path d="M14.6286 27.9665H15.4429V28.7744H14.6286V27.9665Z" fill="white"/>
<path d="M14.6286 28.7744H15.4429V29.5823H14.6286V28.7744Z" fill="white"/>
<path d="M13.8143 29.5823H14.6286V30.3903H13.8143V29.5823Z" fill="white"/>
<path d="M13.8143 30.3903H14.6286V31.1982H13.8143V30.3903Z" fill="white"/>
<path d="M13.8143 31.1982H14.6286V32.0061H13.8143V31.1982Z" fill="white"/>
<path d="M13.8143 32.0061H14.6286V32.814H13.8143V32.0061Z" fill="white"/>
<path d="M13 32.814H13.8143V33.6219H13V32.814Z" fill="white"/>
<path d="M13 33.6219H13.8143V34.4298H13V33.6219Z" fill="white"/>
<path d="M13 34.4298H13.8143V35.2377H13V34.4298Z" fill="white"/>
<path d="M13 35.2377H13.8143V36.0456H13V35.2377Z" fill="white"/>
<path d="M13 36.0456H13.8143V36.8535H13V36.0456Z" fill="white"/>
<path d="M24.4002 15.04H25.2145V15.8479H24.4002V15.04Z" fill="white"/>
<path d="M26.8431 14.2321H27.6574V15.04H26.8431V14.2321Z" fill="white"/>
<path d="M28.4717 13.4242H29.286V14.2321H28.4717V13.4242Z" fill="white"/>
<path d="M30.1003 12.6163H30.9146V13.4242H30.1003V12.6163Z" fill="white"/>
<path d="M30.9146 11.8084H31.7289V12.6163H30.9146V11.8084Z" fill="white"/>
<path d="M32.5432 11.8084H33.3575V12.6163H32.5432V11.8084Z" fill="white"/>
<path d="M33.3575 11.8084H34.1718V12.6163H33.3575V11.8084Z" fill="white"/>
<path d="M34.1718 11.0005H34.9861V11.8084H34.1718V11.0005Z" fill="white"/>
<path d="M34.9861 11.0005H35.8004V11.8084H34.9861V11.0005Z" fill="white"/>
<path d="M35.8004 11.0005H36.6147V11.8084H35.8004V11.0005Z" fill="white"/>
<path d="M37.429 11.0005H38.2433V11.8084H37.429V11.0005Z" fill="white"/>
<path d="M38.2433 11.0005H39.0576V11.8084H38.2433V11.0005Z" fill="white"/>
<path d="M39.0576 11.0005H39.8719V11.8084H39.0576V11.0005Z" fill="white"/>
<path d="M41.5005 11.0005H42.3148V11.8084H41.5005V11.0005Z" fill="white"/>
<path d="M45.572 11.8084H46.3863V12.6163H45.572V11.8084Z" fill="white"/>
<path d="M48.0149 12.6163H48.8292V13.4242H48.0149V12.6163Z" fill="white"/>
<path d="M50.4578 13.4242H51.2721V14.2321H50.4578V13.4242Z" fill="white"/>
<path d="M52.0864 14.2321H52.9007V15.04H52.0864V14.2321Z" fill="white"/>
<path d="M52.9007 15.04H53.715V15.8479H52.9007V15.04Z" fill="white"/>
<path d="M54.5293 15.8479H55.3436V16.6558H54.5293V15.8479Z" fill="white"/>
<path d="M55.3436 16.6558H56.1579V17.4637H55.3436V16.6558Z" fill="white"/>
<path d="M56.1579 17.4637H56.9722V18.2716H56.1579V17.4637Z" fill="white"/>
<path d="M56.9722 18.2716H57.7865V19.0796H56.9722V18.2716Z" fill="white"/>
<path d="M57.7865 19.0796H58.6008V19.8875H57.7865V19.0796Z" fill="white"/>
<path d="M58.6008 19.8875H59.4151V20.6954H58.6008V19.8875Z" fill="white"/>
<path d="M59.4151 20.6954H60.2294V21.5033H59.4151V20.6954Z" fill="white"/>
<path d="M60.2294 21.5033H61.0437V22.3112H60.2294V21.5033Z" fill="white"/>
<path d="M60.2294 22.3112H61.0437V23.1191H60.2294V22.3112Z" fill="white"/>
<path d="M61.0437 23.1191H61.858V23.927H61.0437V23.1191Z" fill="white"/>
<path d="M61.858 23.927H62.6723V24.7349H61.858V23.927Z" fill="white"/>
<path d="M61.858 24.7349H62.6723V25.5428H61.858V24.7349Z" fill="white"/>
<path d="M62.6723 25.5428H63.4866V26.3507H62.6723V25.5428Z" fill="white"/>
<path d="M62.6723 26.3507H63.4866V27.1586H62.6723V26.3507Z" fill="white"/>
<path d="M62.6723 27.1586H63.4866V27.9665H62.6723V27.1586Z" fill="white"/>
<path d="M63.4866 27.9665H64.3009V28.7744H63.4866V27.9665Z" fill="white"/>
<path d="M63.4866 28.7744H64.3009V29.5823H63.4866V28.7744Z" fill="white"/>
<path d="M63.4866 29.5823H64.3009V30.3903H63.4866V29.5823Z" fill="white"/>
<path d="M64.3009 30.3903H65.1152V31.1982H64.3009V30.3903Z" fill="white"/>
<path d="M64.3009 31.1982H65.1152V32.0061H64.3009V31.1982Z" fill="white"/>
<path d="M64.3009 32.0061H65.1152V32.814H64.3009V32.0061Z" fill="white"/>
<path d="M64.3009 32.814H65.1152V33.6219H64.3009V32.814Z" fill="white"/>
<path d="M64.3009 33.6219H65.1152V34.4298H64.3009V33.6219Z" fill="white"/>
<path d="M65.1152 34.4298H65.9295V35.2377H65.1152V34.4298Z" fill="white"/>
<path d="M65.1152 35.2377H65.9295V36.0456H65.1152V35.2377Z" fill="white"/>
<path d="M65.1152 36.0456H65.9295V36.8535H65.1152V36.0456Z" fill="white"/>
<path d="M39.8719 11.0005H40.6862V11.8084H39.8719V11.0005Z" fill="white"/>
<path d="M40.6862 11.0005H41.5005V11.8084H40.6862V11.0005Z" fill="white"/>
<path d="M42.3148 11.0005H43.1291V11.8084H42.3148V11.0005Z" fill="white"/>
<path d="M43.1291 11.0005H43.9434V11.8084H43.1291V11.0005Z" fill="white"/>
<path d="M43.9434 11.0005H44.7577V11.8084H43.9434V11.0005Z" fill="white"/>
<path d="M44.7577 11.8084H45.572V12.6163H44.7577V11.8084Z" fill="white"/>
<path d="M46.3863 11.8084H47.2006V12.6163H46.3863V11.8084Z" fill="white"/>
<path d="M47.2006 11.8084H48.0149V12.6163H47.2006V11.8084Z" fill="white"/>
<path d="M48.8292 12.6163H49.6435V13.4242H48.8292V12.6163Z" fill="white"/>
<path d="M49.6435 13.4242H50.4578V14.2321H49.6435V13.4242Z" fill="white"/>
<path d="M51.2721 14.2321H52.0864V15.04H51.2721V14.2321Z" fill="white"/>
<path d="M53.715 15.04H54.5293V15.8479H53.715V15.04Z" fill="white"/>
<rect x="65.1152" y="36.8525" width="0.814299" height="0.807907" fill="white"/>
<rect x="65.1152" y="37.6606" width="0.814299" height="0.807907" fill="white"/>
<rect x="65.1152" y="38.4688" width="0.814299" height="0.807907" fill="white"/>
<rect x="64.3008" y="39.2769" width="0.814299" height="0.807907" fill="white"/>
<rect x="64.3008" y="40.084" width="0.814299" height="0.807907" fill="white"/>
<rect x="64.3008" y="40.8921" width="0.814299" height="0.807907" fill="white"/>
<rect x="64.3008" y="41.7007" width="0.814299" height="0.807907" fill="white"/>
<rect x="64.3008" y="42.5088" width="0.814299" height="0.807907" fill="white"/>
<rect x="64.3008" y="43.3159" width="0.814299" height="0.807907" fill="white"/>
<rect x="63.4863" y="44.124" width="0.814299" height="0.807907" fill="white"/>
<rect x="63.4863" y="44.9321" width="0.814299" height="0.807907" fill="white"/>
<rect x="63.4863" y="45.7402" width="0.814299" height="0.807907" fill="white"/>
<rect x="62.6729" y="46.5479" width="0.814299" height="0.807907" fill="white"/>
<rect x="62.6729" y="47.356" width="0.814299" height="0.807907" fill="white"/>
<rect x="61.8584" y="48.1631" width="0.814299" height="0.807907" fill="white"/>
<rect x="61.8584" y="48.9712" width="0.814299" height="0.807907" fill="white"/>
<rect x="61.0439" y="49.7793" width="0.814299" height="0.807907" fill="white"/>
<rect x="60.2295" y="50.5874" width="0.814299" height="0.807907" fill="white"/>
<rect x="60.2295" y="51.395" width="0.814299" height="0.807907" fill="white"/>
<rect x="59.415" y="52.2031" width="0.814299" height="0.807907" fill="white"/>
<rect x="58.6006" y="53.0112" width="0.814299" height="0.807907" fill="white"/>
<rect x="57.7871" y="53.8193" width="0.814299" height="0.807907" fill="white"/>
<rect x="56.9727" y="54.6265" width="0.814299" height="0.807907" fill="white"/>
<rect x="56.1582" y="55.4346" width="0.814299" height="0.807907" fill="white"/>
<rect x="55.3438" y="56.2422" width="0.814299" height="0.807907" fill="white"/>
<rect x="54.5293" y="57.0503" width="0.814299" height="0.807907" fill="white"/>
<rect x="53.7148" y="57.8584" width="0.814299" height="0.807907" fill="white"/>
<rect x="52.0869" y="58.6665" width="0.814299" height="0.807907" fill="white"/>
<rect x="50.458" y="59.4736" width="0.814299" height="0.807907" fill="white"/>
<rect x="48.8291" y="60.2822" width="0.814299" height="0.807907" fill="white"/>
<rect x="46.3867" y="61.0903" width="0.814299" height="0.807907" fill="white"/>
<rect x="43.1289" y="61.8984" width="0.814299" height="0.807907" fill="white"/>
<rect x="39.0576" y="61.8984" width="0.814299" height="0.807907" fill="white"/>
<rect x="39.8721" y="61.8984" width="0.814299" height="0.807907" fill="white"/>
<rect x="40.6865" y="61.8984" width="0.814299" height="0.807907" fill="white"/>
<rect x="41.5" y="61.8984" width="0.814299" height="0.807907" fill="white"/>
<rect x="42.3145" y="61.8984" width="0.814299" height="0.807907" fill="white"/>
<rect x="43.9434" y="61.8984" width="0.814299" height="0.807907" fill="white"/>
<rect x="44.7578" y="61.8984" width="0.814299" height="0.807907" fill="white"/>
<rect x="45.5723" y="61.0903" width="0.814299" height="0.807907" fill="white"/>
<rect x="47.2012" y="61.0903" width="0.814299" height="0.807907" fill="white"/>
<rect x="48.0146" y="60.2822" width="0.814299" height="0.807907" fill="white"/>
<rect x="49.6436" y="60.2822" width="0.814299" height="0.807907" fill="white"/>
<rect x="51.2725" y="59.4736" width="0.814299" height="0.807907" fill="white"/>
<rect x="52.9004" y="57.8584" width="0.814299" height="0.807907" fill="white"/>
<rect x="13" y="36.8525" width="0.814299" height="0.807907" fill="white"/>
<rect x="13" y="37.6606" width="0.814299" height="0.807907" fill="white"/>
<rect x="13" y="38.4688" width="0.814299" height="0.807907" fill="white"/>
<rect x="13" y="39.2769" width="0.814299" height="0.807907" fill="white"/>
<rect x="13" y="40.084" width="0.814299" height="0.807907" fill="white"/>
<rect x="13.8145" y="40.8921" width="0.814299" height="0.807907" fill="white"/>
<rect x="13.8145" y="41.7007" width="0.814299" height="0.807907" fill="white"/>
<rect x="13.8145" y="42.5088" width="0.814299" height="0.807907" fill="white"/>
<rect x="13.8145" y="43.3159" width="0.814299" height="0.807907" fill="white"/>
<rect x="14.6289" y="44.124" width="0.814299" height="0.807907" fill="white"/>
<rect x="14.6289" y="44.9321" width="0.814299" height="0.807907" fill="white"/>
<rect x="14.6289" y="45.7402" width="0.814299" height="0.807907" fill="white"/>
<rect x="15.4434" y="46.5479" width="0.814299" height="0.807907" fill="white"/>
<rect x="15.4434" y="47.356" width="0.814299" height="0.807907" fill="white"/>
<rect x="16.2578" y="48.1631" width="0.814299" height="0.807907" fill="white"/>
<rect x="16.2578" y="48.9712" width="0.814299" height="0.807907" fill="white"/>
<rect x="17.0713" y="49.7793" width="0.814299" height="0.807907" fill="white"/>
<rect x="17.0713" y="50.5874" width="0.814299" height="0.807907" fill="white"/>
<rect x="17.8857" y="51.395" width="0.814299" height="0.807907" fill="white"/>
<rect x="18.7002" y="52.2031" width="0.814299" height="0.807907" fill="white"/>
<rect x="19.5146" y="53.0112" width="0.814299" height="0.807907" fill="white"/>
<rect x="19.5146" y="53.8193" width="0.814299" height="0.807907" fill="white"/>
<rect x="20.3291" y="54.6265" width="0.814299" height="0.807907" fill="white"/>
<rect x="21.1436" y="55.4346" width="0.814299" height="0.807907" fill="white"/>
<rect x="22.7715" y="56.2422" width="0.814299" height="0.807907" fill="white"/>
<rect x="23.5859" y="57.0503" width="0.814299" height="0.807907" fill="white"/>
<rect x="24.4004" y="57.8584" width="0.814299" height="0.807907" fill="white"/>
<rect x="26.0293" y="58.6665" width="0.814299" height="0.807907" fill="white"/>
<rect x="27.6572" y="59.4736" width="0.814299" height="0.807907" fill="white"/>
<rect x="29.2861" y="60.2822" width="0.814299" height="0.807907" fill="white"/>
<rect x="31.7285" y="61.0903" width="0.814299" height="0.807907" fill="white"/>
<rect x="34.9863" y="61.8984" width="0.814299" height="0.807907" fill="white"/>
<rect x="21.957" y="55.4346" width="0.814299" height="0.807907" fill="white"/>
<rect x="25.2148" y="57.8584" width="0.814299" height="0.807907" fill="white"/>
<rect x="26.8428" y="59.4736" width="0.814299" height="0.807907" fill="white"/>
<rect x="28.4717" y="60.2822" width="0.814299" height="0.807907" fill="white"/>
<rect x="30.1006" y="60.2822" width="0.814299" height="0.807907" fill="white"/>
<rect x="30.915" y="61.0903" width="0.814299" height="0.807907" fill="white"/>
<rect x="32.543" y="61.0903" width="0.814299" height="0.807907" fill="white"/>
<rect x="33.3574" y="61.8984" width="0.814299" height="0.807907" fill="white"/>
<rect x="34.1719" y="61.8984" width="0.814299" height="0.807907" fill="white"/>
<rect x="35.8008" y="61.8984" width="0.814299" height="0.807907" fill="white"/>
<rect x="36.6152" y="61.8984" width="0.814299" height="0.807907" fill="white"/>
<rect x="37.4287" y="61.8984" width="0.814299" height="0.807907" fill="white"/>
<rect x="38.2432" y="61.8984" width="0.814299" height="0.807907" fill="white"/>
<rect x="36.6152" y="11" width="0.814299" height="0.807907" fill="white"/>
<rect x="31.7285" y="11.8071" width="0.814299" height="0.807907" fill="white"/>
<rect x="29.2861" y="12.6152" width="0.814299" height="0.807907" fill="white"/>
<rect x="27.6572" y="13.4238" width="0.814299" height="0.807907" fill="white"/>
<rect x="26.0293" y="14.2319" width="0.814299" height="0.807907" fill="white"/>
<rect x="25.2148" y="15.04" width="0.814299" height="0.807907" fill="white"/>
<rect x="23.5859" y="15.8472" width="0.814299" height="0.807907" fill="white"/>
<rect x="22.7715" y="16.6553" width="0.814299" height="0.807907" fill="white"/>
<rect x="21.957" y="17.4624" width="0.814299" height="0.807907" fill="white"/>
<rect x="21.1436" y="18.271" width="0.814299" height="0.807907" fill="white"/>
<rect x="20.3291" y="19.0791" width="0.814299" height="0.807907" fill="white"/>
<rect x="19.5146" y="19.8872" width="0.814299" height="0.807907" fill="white"/>
<rect x="18.7002" y="20.6943" width="0.814299" height="0.807907" fill="white"/>
<rect x="17.8857" y="21.5024" width="0.814299" height="0.807907" fill="white"/>
<rect x="17.0713" y="22.3105" width="0.814299" height="0.807907" fill="white"/>
<rect x="17.0713" y="23.1191" width="0.814299" height="0.807907" fill="white"/>
<rect x="16.2578" y="23.9263" width="0.814299" height="0.807907" fill="white"/>
<rect x="16.2578" y="24.7344" width="0.814299" height="0.807907" fill="white"/>
<rect x="15.4434" y="25.5425" width="0.814299" height="0.807907" fill="white"/>
<rect x="15.4434" y="26.3506" width="0.814299" height="0.807907" fill="white"/>
<rect x="14.6289" y="27.1577" width="0.814299" height="0.807907" fill="white"/>
<rect x="14.6289" y="27.9663" width="0.814299" height="0.807907" fill="white"/>
<rect x="14.6289" y="28.7734" width="0.814299" height="0.807907" fill="white"/>
<rect x="13.8145" y="29.5815" width="0.814299" height="0.807907" fill="white"/>
<rect x="13.8145" y="30.3896" width="0.814299" height="0.807907" fill="white"/>
<rect x="13.8145" y="31.1978" width="0.814299" height="0.807907" fill="white"/>
<rect x="13.8145" y="32.0054" width="0.814299" height="0.807907" fill="white"/>
<rect x="13" y="32.8135" width="0.814299" height="0.807907" fill="white"/>
<rect x="13" y="33.6216" width="0.814299" height="0.807907" fill="white"/>
<rect x="13" y="34.4297" width="0.814299" height="0.807907" fill="white"/>
<rect x="13" y="35.2368" width="0.814299" height="0.807907" fill="white"/>
<rect x="13" y="36.0449" width="0.814299" height="0.807907" fill="white"/>
<rect x="24.4004" y="15.04" width="0.814299" height="0.807907" fill="white"/>
<rect x="26.8428" y="14.2319" width="0.814299" height="0.807907" fill="white"/>
<rect x="28.4717" y="13.4238" width="0.814299" height="0.807907" fill="white"/>
<rect x="30.1006" y="12.6152" width="0.814299" height="0.807907" fill="white"/>
<rect x="30.915" y="11.8071" width="0.814299" height="0.807907" fill="white"/>
<rect x="32.543" y="11.8071" width="0.814299" height="0.807907" fill="white"/>
<rect x="33.3574" y="11.8071" width="0.814299" height="0.807907" fill="white"/>
<rect x="34.1719" y="11" width="0.814299" height="0.807907" fill="white"/>
<rect x="34.9863" y="11" width="0.814299" height="0.807907" fill="white"/>
<rect x="35.8008" y="11" width="0.814299" height="0.807907" fill="white"/>
<rect x="37.4287" y="11" width="0.814299" height="0.807907" fill="white"/>
<rect x="38.2432" y="11" width="0.814299" height="0.807907" fill="white"/>
<rect x="39.0576" y="11" width="0.814299" height="0.807907" fill="white"/>
<rect x="41.5" y="11" width="0.814299" height="0.807907" fill="white"/>
<rect x="45.5723" y="11.8071" width="0.814299" height="0.807907" fill="white"/>
<rect x="48.0146" y="12.6152" width="0.814299" height="0.807907" fill="white"/>
<rect x="50.458" y="13.4238" width="0.814299" height="0.807907" fill="white"/>
<rect x="52.0869" y="14.2319" width="0.814299" height="0.807907" fill="white"/>
<rect x="52.9004" y="15.04" width="0.814299" height="0.807907" fill="white"/>
<rect x="54.5293" y="15.8472" width="0.814299" height="0.807907" fill="white"/>
<rect x="55.3438" y="16.6553" width="0.814299" height="0.807907" fill="white"/>
<rect x="56.1582" y="17.4624" width="0.814299" height="0.807907" fill="white"/>
<rect x="56.9727" y="18.271" width="0.814299" height="0.807907" fill="white"/>
<rect x="57.7871" y="19.0791" width="0.814299" height="0.807907" fill="white"/>
<rect x="58.6006" y="19.8872" width="0.814299" height="0.807907" fill="white"/>
<rect x="59.415" y="20.6943" width="0.814299" height="0.807907" fill="white"/>
<rect x="60.2295" y="21.5024" width="0.814299" height="0.807907" fill="white"/>
<rect x="60.2295" y="22.3105" width="0.814299" height="0.807907" fill="white"/>
<rect x="61.0439" y="23.1191" width="0.814299" height="0.807907" fill="white"/>
<rect x="61.8584" y="23.9263" width="0.814299" height="0.807907" fill="white"/>
<rect x="61.8584" y="24.7344" width="0.814299" height="0.807907" fill="white"/>
<rect x="62.6729" y="25.5425" width="0.814299" height="0.807907" fill="white"/>
<rect x="62.6729" y="26.3506" width="0.814299" height="0.807907" fill="white"/>
<rect x="62.6729" y="27.1577" width="0.814299" height="0.807907" fill="white"/>
<rect x="63.4863" y="27.9663" width="0.814299" height="0.807907" fill="white"/>
<rect x="63.4863" y="28.7734" width="0.814299" height="0.807907" fill="white"/>
<rect x="63.4863" y="29.5815" width="0.814299" height="0.807907" fill="white"/>
<rect x="64.3008" y="30.3896" width="0.814299" height="0.807907" fill="white"/>
<rect x="64.3008" y="31.1978" width="0.814299" height="0.807907" fill="white"/>
<rect x="64.3008" y="32.0054" width="0.814299" height="0.807907" fill="white"/>
<rect x="64.3008" y="32.8135" width="0.814299" height="0.807907" fill="white"/>
<rect x="64.3008" y="33.6216" width="0.814299" height="0.807907" fill="white"/>
<rect x="65.1152" y="34.4297" width="0.814299" height="0.807907" fill="white"/>
<rect x="65.1152" y="35.2368" width="0.814299" height="0.807907" fill="white"/>
<rect x="65.1152" y="36.0449" width="0.814299" height="0.807907" fill="white"/>
<rect x="39.8721" y="11" width="0.814299" height="0.807907" fill="white"/>
<rect x="40.6865" y="11" width="0.814299" height="0.807907" fill="white"/>
<rect x="42.3145" y="11" width="0.814299" height="0.807907" fill="white"/>
<rect x="43.1289" y="11" width="0.814299" height="0.807907" fill="white"/>
<rect x="43.9434" y="11" width="0.814299" height="0.807907" fill="white"/>
<rect x="44.7578" y="11.8071" width="0.814299" height="0.807907" fill="white"/>
<rect x="46.3867" y="11.8071" width="0.814299" height="0.807907" fill="white"/>
<rect x="47.2012" y="11.8071" width="0.814299" height="0.807907" fill="white"/>
<rect x="48.8291" y="12.6152" width="0.814299" height="0.807907" fill="white"/>
<rect x="49.6436" y="13.4238" width="0.814299" height="0.807907" fill="white"/>
<rect x="51.2725" y="14.2319" width="0.814299" height="0.807907" fill="white"/>
<rect x="53.7148" y="15.04" width="0.814299" height="0.807907" fill="white"/>
<rect x="65.9297" y="36.8525" width="0.814299" height="0.807907" fill="white"/>
<rect x="65.9297" y="37.6606" width="0.814299" height="0.807907" fill="white"/>
<rect x="65.9297" y="38.4688" width="0.814299" height="0.807907" fill="white"/>
<rect x="65.9297" y="39.2769" width="0.814299" height="0.807907" fill="white"/>
<rect x="65.1152" y="39.2769" width="0.814299" height="0.807907" fill="white"/>
<rect x="65.1152" y="40.084" width="0.814299" height="0.807907" fill="white"/>
<rect x="65.1152" y="40.8921" width="0.814299" height="0.807907" fill="white"/>
<rect x="65.1152" y="41.7007" width="0.814299" height="0.807907" fill="white"/>
<rect x="65.1152" y="42.5088" width="0.814299" height="0.807907" fill="white"/>
<rect x="65.1152" y="43.3159" width="0.814299" height="0.807907" fill="white"/>
<rect x="65.1152" y="44.124" width="0.814299" height="0.807907" fill="white"/>
<rect x="64.3008" y="44.124" width="0.814299" height="0.807907" fill="white"/>
<rect x="64.3008" y="44.9321" width="0.814299" height="0.807907" fill="white"/>
<rect x="64.3008" y="45.7402" width="0.814299" height="0.807907" fill="white"/>
<rect x="64.3008" y="46.5479" width="0.814299" height="0.807907" fill="white"/>
<rect x="63.4863" y="46.5479" width="0.814299" height="0.807907" fill="white"/>
<rect x="63.4863" y="47.356" width="0.814299" height="0.807907" fill="white"/>
<rect x="63.4863" y="48.1631" width="0.814299" height="0.807907" fill="white"/>
<rect x="62.6729" y="48.1631" width="0.814299" height="0.807907" fill="white"/>
<rect x="62.6729" y="48.9712" width="0.814299" height="0.807907" fill="white"/>
<rect x="62.6729" y="49.7793" width="0.814299" height="0.807907" fill="white"/>
<rect x="61.8584" y="49.7793" width="0.814299" height="0.807907" fill="white"/>
<rect x="61.8584" y="50.5874" width="0.814299" height="0.807907" fill="white"/>
<rect x="61.0439" y="50.5874" width="0.814299" height="0.807907" fill="white"/>
<rect x="61.0439" y="51.395" width="0.814299" height="0.807907" fill="white"/>
<rect x="61.0439" y="52.2031" width="0.814299" height="0.807907" fill="white"/>
<rect x="60.2295" y="52.2031" width="0.814299" height="0.807907" fill="white"/>
<rect x="60.2295" y="53.0112" width="0.814299" height="0.807907" fill="white"/>
<rect x="59.415" y="53.0112" width="0.814299" height="0.807907" fill="white"/>
<rect x="59.415" y="53.8193" width="0.814299" height="0.807907" fill="white"/>
<rect x="58.6006" y="53.8193" width="0.814299" height="0.807907" fill="white"/>
<rect x="58.6006" y="54.6265" width="0.814299" height="0.807907" fill="white"/>
<rect x="57.7871" y="54.6265" width="0.814299" height="0.807907" fill="white"/>
<rect x="57.7871" y="55.4346" width="0.814299" height="0.807907" fill="white"/>
<rect x="56.9727" y="55.4346" width="0.814299" height="0.807907" fill="white"/>
<rect x="56.9727" y="56.2422" width="0.814299" height="0.807907" fill="white"/>
<rect x="56.1582" y="56.2422" width="0.814299" height="0.807907" fill="white"/>
<rect x="56.1582" y="57.0503" width="0.814299" height="0.807907" fill="white"/>
<rect x="55.3438" y="57.0503" width="0.814299" height="0.807907" fill="white"/>
<rect x="55.3438" y="57.8584" width="0.814299" height="0.807907" fill="white"/>
<rect x="54.5293" y="57.8584" width="0.814299" height="0.807907" fill="white"/>
<rect x="54.5293" y="58.6665" width="0.814299" height="0.807907" fill="white"/>
<rect x="53.7148" y="58.6665" width="0.814299" height="0.807907" fill="white"/>
<rect x="52.0869" y="57.8584" width="0.814299" height="0.807907" fill="white"/>
<rect x="52.9004" y="58.6665" width="0.814299" height="0.807907" fill="white"/>
<rect x="52.9004" y="59.4736" width="0.814299" height="0.807907" fill="white"/>
<rect x="52.0869" y="59.4736" width="0.814299" height="0.807907" fill="white"/>
<rect x="51.2725" y="60.2822" width="0.814299" height="0.807907" fill="white"/>
<rect x="50.458" y="60.2822" width="0.814299" height="0.807907" fill="white"/>
<rect x="49.6436" y="61.0903" width="0.814299" height="0.807907" fill="white"/>
<rect x="48.8291" y="61.0903" width="0.814299" height="0.807907" fill="white"/>
<rect x="47.2012" y="61.8984" width="0.814299" height="0.807907" fill="white"/>
<rect x="46.3867" y="61.8984" width="0.814299" height="0.807907" fill="white"/>
<rect x="43.9434" y="62.7056" width="0.814299" height="0.807907" fill="white"/>
<rect x="43.1289" y="62.7056" width="0.814299" height="0.807907" fill="white"/>
<rect x="39.8721" y="62.7056" width="0.814299" height="0.807907" fill="white"/>
<rect x="39.0576" y="62.7056" width="0.814299" height="0.807907" fill="white"/>
<rect x="40.6865" y="62.7056" width="0.814299" height="0.807907" fill="white"/>
<rect x="41.5" y="62.7056" width="0.814299" height="0.807907" fill="white"/>
<rect x="42.3145" y="62.7056" width="0.814299" height="0.807907" fill="white"/>
<rect x="44.7578" y="62.7056" width="0.814299" height="0.807907" fill="white"/>
<rect x="45.5723" y="61.8984" width="0.814299" height="0.807907" fill="white"/>
<rect x="45.5723" y="62.7056" width="0.814299" height="0.807907" fill="white"/>
<rect x="48.0146" y="61.0903" width="0.814299" height="0.807907" fill="white"/>
<rect x="48.0146" y="61.8984" width="0.814299" height="0.807907" fill="white"/>
<rect x="50.458" y="61.0903" width="0.814299" height="0.807907" fill="white"/>
<rect x="52.0869" y="60.2822" width="0.814299" height="0.807907" fill="white"/>
<rect x="13.8145" y="36.8525" width="0.814299" height="0.807907" fill="white"/>
<rect x="13.8145" y="37.6606" width="0.814299" height="0.807907" fill="white"/>
<rect x="13.8145" y="38.4688" width="0.814299" height="0.807907" fill="white"/>
<rect x="13.8145" y="39.2769" width="0.814299" height="0.807907" fill="white"/>
<rect x="13.8145" y="40.084" width="0.814299" height="0.807907" fill="white"/>
<rect x="13" y="40.8921" width="0.814299" height="0.807907" fill="white"/>
<rect x="14.6289" y="40.8921" width="0.814299" height="0.807907" fill="white"/>
<rect x="14.6289" y="41.7007" width="0.814299" height="0.807907" fill="white"/>
<rect x="14.6289" y="42.5088" width="0.814299" height="0.807907" fill="white"/>
<rect x="14.6289" y="43.3159" width="0.814299" height="0.807907" fill="white"/>
<rect x="13.8145" y="44.124" width="0.814299" height="0.807907" fill="white"/>
<rect x="15.4434" y="44.124" width="0.814299" height="0.807907" fill="white"/>
<rect x="15.4434" y="44.9321" width="0.814299" height="0.807907" fill="white"/>
<rect x="15.4434" y="45.7402" width="0.814299" height="0.807907" fill="white"/>
<rect x="14.6289" y="46.5479" width="0.814299" height="0.807907" fill="white"/>
<rect x="16.2578" y="46.5479" width="0.814299" height="0.807907" fill="white"/>
<rect x="16.2578" y="47.356" width="0.814299" height="0.807907" fill="white"/>
<rect x="15.4434" y="48.1631" width="0.814299" height="0.807907" fill="white"/>
<rect x="17.0713" y="48.1631" width="0.814299" height="0.807907" fill="white"/>
<rect x="17.0713" y="48.9712" width="0.814299" height="0.807907" fill="white"/>
<rect x="16.2578" y="49.7793" width="0.814299" height="0.807907" fill="white"/>
<rect x="17.8857" y="49.7793" width="0.814299" height="0.807907" fill="white"/>
<rect x="17.8857" y="50.5874" width="0.814299" height="0.807907" fill="white"/>
<rect x="17.0713" y="51.395" width="0.814299" height="0.807907" fill="white"/>
<rect x="18.7002" y="51.395" width="0.814299" height="0.807907" fill="white"/>
<rect x="17.8857" y="52.2031" width="0.814299" height="0.807907" fill="white"/>
<rect x="19.5146" y="52.2031" width="0.814299" height="0.807907" fill="white"/>
<rect x="18.7002" y="53.0112" width="0.814299" height="0.807907" fill="white"/>
<rect x="20.3291" y="53.0112" width="0.814299" height="0.807907" fill="white"/>
<rect x="20.3291" y="53.8193" width="0.814299" height="0.807907" fill="white"/>
<rect x="19.5146" y="54.6265" width="0.814299" height="0.807907" fill="white"/>
<rect x="21.1436" y="54.6265" width="0.814299" height="0.807907" fill="white"/>
<rect x="20.3291" y="55.4346" width="0.814299" height="0.807907" fill="white"/>
<rect x="21.957" y="56.2422" width="0.814299" height="0.807907" fill="white"/>
<rect x="21.1436" y="56.2422" width="0.814299" height="0.807907" fill="white"/>
<rect x="23.5859" y="56.2422" width="0.814299" height="0.807907" fill="white"/>
<rect x="22.7715" y="57.0503" width="0.814299" height="0.807907" fill="white"/>
<rect x="24.4004" y="57.0503" width="0.814299" height="0.807907" fill="white"/>
<rect x="23.5859" y="57.8584" width="0.814299" height="0.807907" fill="white"/>
<rect x="25.2148" y="58.6665" width="0.814299" height="0.807907" fill="white"/>
<rect x="24.4004" y="58.6665" width="0.814299" height="0.807907" fill="white"/>
<rect x="26.0293" y="57.8584" width="0.814299" height="0.807907" fill="white"/>
<rect x="26.8428" y="58.6665" width="0.814299" height="0.807907" fill="white"/>
<rect x="26.0293" y="59.4736" width="0.814299" height="0.807907" fill="white"/>
<rect x="28.4717" y="59.4736" width="0.814299" height="0.807907" fill="white"/>
<rect x="27.6572" y="60.2822" width="0.814299" height="0.807907" fill="white"/>
<rect x="30.1006" y="61.0903" width="0.814299" height="0.807907" fill="white"/>
<rect x="29.2861" y="61.0903" width="0.814299" height="0.807907" fill="white"/>
<rect x="32.543" y="61.8984" width="0.814299" height="0.807907" fill="white"/>
<rect x="31.7285" y="61.8984" width="0.814299" height="0.807907" fill="white"/>
<rect x="35.8008" y="62.7056" width="0.814299" height="0.807907" fill="white"/>
<rect x="34.9863" y="62.7056" width="0.814299" height="0.807907" fill="white"/>
<rect x="22.7715" y="55.4346" width="0.814299" height="0.807907" fill="white"/>
<rect x="26.8428" y="60.2822" width="0.814299" height="0.807907" fill="white"/>
<rect x="28.4717" y="61.0903" width="0.814299" height="0.807907" fill="white"/>
<rect x="30.915" y="60.2822" width="0.814299" height="0.807907" fill="white"/>
<rect x="30.915" y="61.8984" width="0.814299" height="0.807907" fill="white"/>
<rect x="33.3574" y="61.0903" width="0.814299" height="0.807907" fill="white"/>
<rect x="34.1719" y="62.7056" width="0.814299" height="0.807907" fill="white"/>
<rect x="33.3574" y="62.7056" width="0.814299" height="0.807907" fill="white"/>
<rect x="36.6152" y="62.7056" width="0.814299" height="0.807907" fill="white"/>
<rect x="37.4287" y="62.7056" width="0.814299" height="0.807907" fill="white"/>
<rect x="38.2432" y="62.7056" width="0.814299" height="0.807907" fill="white"/>
<rect x="37.4287" y="11.8071" width="0.814299" height="0.807907" fill="white"/>
<rect x="36.6152" y="11.8071" width="0.814299" height="0.807907" fill="white"/>
<rect x="32.543" y="12.6152" width="0.814299" height="0.807907" fill="white"/>
<rect x="31.7285" y="12.6152" width="0.814299" height="0.807907" fill="white"/>
<rect x="30.1006" y="13.4238" width="0.814299" height="0.807907" fill="white"/>
<rect x="29.2861" y="13.4238" width="0.814299" height="0.807907" fill="white"/>
<rect x="28.4717" y="14.2319" width="0.814299" height="0.807907" fill="white"/>
<rect x="27.6572" y="14.2319" width="0.814299" height="0.807907" fill="white"/>
<rect x="26.8428" y="15.04" width="0.814299" height="0.807907" fill="white"/>
<rect x="26.0293" y="15.04" width="0.814299" height="0.807907" fill="white"/>
<rect x="26.0293" y="15.8472" width="0.814299" height="0.807907" fill="white"/>
<rect x="25.2148" y="15.8472" width="0.814299" height="0.807907" fill="white"/>
<rect x="24.4004" y="15.8472" width="0.814299" height="0.807907" fill="white"/>
<rect x="24.4004" y="16.6553" width="0.814299" height="0.807907" fill="white"/>
<rect x="23.5859" y="16.6553" width="0.814299" height="0.807907" fill="white"/>
<rect x="23.5859" y="17.4624" width="0.814299" height="0.807907" fill="white"/>
<rect x="22.7715" y="17.4624" width="0.814299" height="0.807907" fill="white"/>
<rect x="21.957" y="16.6553" width="0.814299" height="0.807907" fill="white"/>
<rect x="22.7715" y="18.271" width="0.814299" height="0.807907" fill="white"/>
<rect x="21.957" y="18.271" width="0.814299" height="0.807907" fill="white"/>
<rect x="21.957" y="19.0791" width="0.814299" height="0.807907" fill="white"/>
<rect x="21.1436" y="19.0791" width="0.814299" height="0.807907" fill="white"/>
<rect x="21.1436" y="19.8872" width="0.814299" height="0.807907" fill="white"/>
<rect x="20.3291" y="19.8872" width="0.814299" height="0.807907" fill="white"/>
<rect x="20.3291" y="20.6943" width="0.814299" height="0.807907" fill="white"/>
<rect x="19.5146" y="20.6943" width="0.814299" height="0.807907" fill="white"/>
<rect x="19.5146" y="21.5024" width="0.814299" height="0.807907" fill="white"/>
<rect x="18.7002" y="21.5024" width="0.814299" height="0.807907" fill="white"/>
<rect x="18.7002" y="22.3105" width="0.814299" height="0.807907" fill="white"/>
<rect x="17.8857" y="22.3105" width="0.814299" height="0.807907" fill="white"/>
<rect x="17.8857" y="23.1191" width="0.814299" height="0.807907" fill="white"/>
<rect x="17.8857" y="23.9263" width="0.814299" height="0.807907" fill="white"/>
<rect x="17.0713" y="23.9263" width="0.814299" height="0.807907" fill="white"/>
<rect x="16.2578" y="23.1191" width="0.814299" height="0.807907" fill="white"/>
<rect x="17.0713" y="24.7344" width="0.814299" height="0.807907" fill="white"/>
<rect x="17.0713" y="25.5425" width="0.814299" height="0.807907" fill="white"/>
<rect x="16.2578" y="25.5425" width="0.814299" height="0.807907" fill="white"/>
<rect x="16.2578" y="26.3506" width="0.814299" height="0.807907" fill="white"/>
<rect x="16.2578" y="27.1577" width="0.814299" height="0.807907" fill="white"/>
<rect x="15.4434" y="27.1577" width="0.814299" height="0.807907" fill="white"/>
<rect x="15.4434" y="27.9663" width="0.814299" height="0.807907" fill="white"/>
<rect x="15.4434" y="28.7734" width="0.814299" height="0.807907" fill="white"/>
<rect x="15.4434" y="29.5815" width="0.814299" height="0.807907" fill="white"/>
<rect x="14.6289" y="29.5815" width="0.814299" height="0.807907" fill="white"/>
<rect x="14.6289" y="30.3896" width="0.814299" height="0.807907" fill="white"/>
<rect x="14.6289" y="31.1978" width="0.814299" height="0.807907" fill="white"/>
<rect x="14.6289" y="32.0054" width="0.814299" height="0.807907" fill="white"/>
<rect x="14.6289" y="32.8135" width="0.814299" height="0.807907" fill="white"/>
<rect x="13.8145" y="32.8135" width="0.814299" height="0.807907" fill="white"/>
<rect x="13.8145" y="33.6216" width="0.814299" height="0.807907" fill="white"/>
<rect x="13.8145" y="34.4297" width="0.814299" height="0.807907" fill="white"/>
<rect x="13.8145" y="35.2368" width="0.814299" height="0.807907" fill="white"/>
<rect x="13.8145" y="36.0449" width="0.814299" height="0.807907" fill="white"/>
<rect x="27.6572" y="15.04" width="0.814299" height="0.807907" fill="white"/>
<rect x="29.2861" y="14.2319" width="0.814299" height="0.807907" fill="white"/>
<rect x="30.915" y="12.6152" width="0.814299" height="0.807907" fill="white"/>
<rect x="30.915" y="13.4238" width="0.814299" height="0.807907" fill="white"/>
<rect x="33.3574" y="12.6152" width="0.814299" height="0.807907" fill="white"/>
<rect x="34.1719" y="11.8071" width="0.814299" height="0.807907" fill="white"/>
<rect x="34.1719" y="12.6152" width="0.814299" height="0.807907" fill="white"/>
<rect x="34.9863" y="11.8071" width="0.814299" height="0.807907" fill="white"/>
<rect x="35.8008" y="11.8071" width="0.814299" height="0.807907" fill="white"/>
<rect x="38.2432" y="11.8071" width="0.814299" height="0.807907" fill="white"/>
<rect x="39.0576" y="11.8071" width="0.814299" height="0.807907" fill="white"/>
<rect x="39.8721" y="11.8071" width="0.814299" height="0.807907" fill="white"/>
<rect x="42.3145" y="11.8071" width="0.814299" height="0.807907" fill="white"/>
<rect x="41.5" y="11.8071" width="0.814299" height="0.807907" fill="white"/>
<rect x="46.3867" y="12.6152" width="0.814299" height="0.807907" fill="white"/>
<rect x="45.5723" y="12.6152" width="0.814299" height="0.807907" fill="white"/>
<rect x="48.8291" y="13.4238" width="0.814299" height="0.807907" fill="white"/>
<rect x="48.0146" y="13.4238" width="0.814299" height="0.807907" fill="white"/>
<rect x="51.2725" y="13.4238" width="0.814299" height="0.807907" fill="white"/>
<rect x="50.458" y="14.2319" width="0.814299" height="0.807907" fill="white"/>
<rect x="52.9004" y="14.2319" width="0.814299" height="0.807907" fill="white"/>
<rect x="52.0869" y="15.04" width="0.814299" height="0.807907" fill="white"/>
<rect x="53.7148" y="15.8472" width="0.814299" height="0.807907" fill="white"/>
<rect x="52.9004" y="15.8472" width="0.814299" height="0.807907" fill="white"/>
<rect x="55.3438" y="15.8472" width="0.814299" height="0.807907" fill="white"/>
<rect x="54.5293" y="16.6553" width="0.814299" height="0.807907" fill="white"/>
<rect x="56.1582" y="16.6553" width="0.814299" height="0.807907" fill="white"/>
<rect x="55.3438" y="17.4624" width="0.814299" height="0.807907" fill="white"/>
<rect x="56.9727" y="17.4624" width="0.814299" height="0.807907" fill="white"/>
<rect x="56.1582" y="18.271" width="0.814299" height="0.807907" fill="white"/>
<rect x="57.7871" y="18.271" width="0.814299" height="0.807907" fill="white"/>
<rect x="56.9727" y="19.0791" width="0.814299" height="0.807907" fill="white"/>
<rect x="58.6006" y="19.0791" width="0.814299" height="0.807907" fill="white"/>
<rect x="57.7871" y="19.8872" width="0.814299" height="0.807907" fill="white"/>
<rect x="59.415" y="19.8872" width="0.814299" height="0.807907" fill="white"/>
<rect x="58.6006" y="20.6943" width="0.814299" height="0.807907" fill="white"/>
<rect x="60.2295" y="20.6943" width="0.814299" height="0.807907" fill="white"/>
<rect x="59.415" y="21.5024" width="0.814299" height="0.807907" fill="white"/>
<rect x="61.0439" y="21.5024" width="0.814299" height="0.807907" fill="white"/>
<rect x="61.0439" y="22.3105" width="0.814299" height="0.807907" fill="white"/>
<rect x="60.2295" y="23.1191" width="0.814299" height="0.807907" fill="white"/>
<rect x="61.8584" y="23.1191" width="0.814299" height="0.807907" fill="white"/>
<rect x="61.0439" y="23.9263" width="0.814299" height="0.807907" fill="white"/>
<rect x="62.6729" y="23.9263" width="0.814299" height="0.807907" fill="white"/>
<rect x="62.6729" y="24.7344" width="0.814299" height="0.807907" fill="white"/>
<rect x="61.8584" y="25.5425" width="0.814299" height="0.807907" fill="white"/>
<rect x="63.4863" y="25.5425" width="0.814299" height="0.807907" fill="white"/>
<rect x="63.4863" y="26.3506" width="0.814299" height="0.807907" fill="white"/>
<rect x="63.4863" y="27.1577" width="0.814299" height="0.807907" fill="white"/>
<rect x="62.6729" y="27.9663" width="0.814299" height="0.807907" fill="white"/>
<rect x="64.3008" y="27.9663" width="0.814299" height="0.807907" fill="white"/>
<rect x="64.3008" y="28.7734" width="0.814299" height="0.807907" fill="white"/>
<rect x="64.3008" y="29.5815" width="0.814299" height="0.807907" fill="white"/>
<rect x="63.4863" y="30.3896" width="0.814299" height="0.807907" fill="white"/>
<rect x="65.1152" y="30.3896" width="0.814299" height="0.807907" fill="white"/>
<rect x="65.1152" y="31.1978" width="0.814299" height="0.807907" fill="white"/>
<rect x="65.1152" y="32.0054" width="0.814299" height="0.807907" fill="white"/>
<rect x="65.1152" y="32.8135" width="0.814299" height="0.807907" fill="white"/>
<rect x="65.1152" y="33.6216" width="0.814299" height="0.807907" fill="white"/>
<rect x="64.3008" y="34.4297" width="0.814299" height="0.807907" fill="white"/>
<rect x="65.9297" y="34.4297" width="0.814299" height="0.807907" fill="white"/>
<rect x="65.9297" y="35.2368" width="0.814299" height="0.807907" fill="white"/>
<rect x="65.9297" y="36.0449" width="0.814299" height="0.807907" fill="white"/>
<rect x="40.6865" y="11.8071" width="0.814299" height="0.807907" fill="white"/>
<rect x="43.1289" y="11.8071" width="0.814299" height="0.807907" fill="white"/>
<rect x="43.9434" y="11.8071" width="0.814299" height="0.807907" fill="white"/>
<rect x="44.7578" y="11" width="0.814299" height="0.807907" fill="white"/>
<rect x="44.7578" y="12.6152" width="0.814299" height="0.807907" fill="white"/>
<rect x="47.2012" y="12.6152" width="0.814299" height="0.807907" fill="white"/>
<rect x="48.0146" y="11.8071" width="0.814299" height="0.807907" fill="white"/>
<rect x="49.6436" y="12.6152" width="0.814299" height="0.807907" fill="white"/>
<rect x="49.6436" y="14.2319" width="0.814299" height="0.807907" fill="white"/>
<rect x="51.2725" y="15.04" width="0.814299" height="0.807907" fill="white"/>
<rect x="54.5293" y="15.04" width="0.814299" height="0.807907" fill="white"/>
<path d="M51.5616 52.0578H27.7419V50.6666H26.2899V49.2671H24.9395V25.5994H26.3106V24.1999H27.7212V22.8457H51.5969V24.2081H53.0095V25.6241H54.3889V49.2588H52.9867V50.6995H51.5616V52.0578ZM51.5616 36.7582C51.5616 36.6841 51.572 36.608 51.572 36.5318V27.2253C51.572 27.1512 51.5616 27.0791 51.5533 26.9762H50.1656V25.6282H29.1151V26.9968H27.7419V36.2169C27.7419 36.398 27.7419 36.5791 27.7543 36.7582H26.3417V38.1165H27.7419C27.7419 38.1927 27.7294 38.2688 27.7294 38.345C27.7294 41.4485 27.7294 44.5507 27.7294 47.6515C27.7294 47.7256 27.7295 47.7976 27.7481 47.8985H29.1276V49.2486H50.1863V47.8758H51.5657V38.6022C51.5657 38.4396 51.5657 38.2791 51.5554 38.1165H52.9659V36.7623L51.5616 36.7582Z" fill="white"/>
<path d="M38.9561 36.7495H40.3542V39.5279H41.7709V42.2878H43.1649V43.6975H41.7689V42.3186H40.3479V39.5608H38.9561V36.7495Z" fill="white"/>
<path d="M44.5439 39.5574V36.744H45.9566V35.3486H47.3734V36.7625H45.996V39.5615L44.5439 39.5574Z" fill="white"/>
<path d="M27.7422 38.1264V36.7495H31.951V38.1264H27.7422Z" fill="white"/>
<path d="M51.5653 36.7495V38.1264H47.3564V36.7495H51.5653Z" fill="white"/>
<path d="M33.3154 33.9591V31.1519H34.7675V33.9591H33.3154Z" fill="white"/>
<path d="M37.5166 33.9507H38.9686V36.762H37.5166V33.9507Z" fill="white"/>
<path d="M36.1348 31.1519H37.5246V33.9591H36.1348V31.1519Z" fill="white"/>
<path d="M31.9336 36.762V33.9507H33.3234V36.762H31.9336Z" fill="white"/>
<path d="M43.1562 42.2964V39.5469H44.544V42.2964H43.1562Z" fill="white"/>
<path d="M34.7549 31.16V29.8037H36.1447V31.16H34.7549Z" fill="white"/>
<path d="M74.75 44.25V42.5H73V40.75H76.5V42.5H81.75V39H76.5V37.25H81.75V33.75H76.5V35.5H73V33.75H74.75V32H83.5V33.75H85.25V37.25H83.5V39H85.25V42.5H83.5V44.25H74.75ZM99.25 42.5H101V46H97.5V44.25H90.5V46H87V42.5H88.75V40.75H90.5V35.5H99.25V42.5ZM92.25 42.5H95.75V37.25H92.25V42.5ZM113.25 37.25V42.5H111.5V44.25H104.5V46H101V35.5H104.5V37.25H106.25V39H104.5V42.5H109.75V37.25H106.25V35.5H111.5V37.25H113.25ZM116.75 44.25V42.5H115V40.75H116.75V39H123.75V37.25H116.75V35.5H125.5V37.25H127.25V44.25H116.75ZM118.5 42.5H123.75V40.75H118.5V42.5ZM129 44.25V35.5H139.5V37.25H141.25V39H139.5V40.75H141.25V42.5H139.5V44.25H129ZM132.5 39H137.75V37.25H132.5V39ZM132.5 42.5H137.75V40.75H132.5V42.5ZM144.75 44.25V42.5H143V37.25H144.75V35.5H153.5V37.25H155.25V42.5H153.5V44.25H144.75ZM146.5 42.5H151.75V37.25H146.5V42.5ZM158.75 44.25V42.5H157V37.25H158.75V35.5H167.5V37.25H169.25V42.5H167.5V44.25H158.75ZM160.5 42.5H165.75V37.25H160.5V42.5ZM171 44.25V42.5H172.75V40.75H174.5V39H172.75V37.25H171V35.5H174.5V37.25H176.25V39H178V37.25H179.75V35.5H183.25V37.25H181.5V39H179.75V40.75H181.5V42.5H183.25V44.25H179.75V42.5H178V40.75H176.25V42.5H174.5V44.25H171ZM197.25 37.25V42.5H195.5V44.25H188.5V46H185V35.5H188.5V37.25H190.25V39H188.5V42.5H193.75V37.25H190.25V35.5H195.5V37.25H197.25ZM200.75 44.25V42.5H199V40.75H200.75V39H207.75V37.25H200.75V35.5H209.5V37.25H211.25V44.25H200.75ZM202.5 42.5H207.75V40.75H202.5V42.5ZM213 44.25V35.5H216.5V39H221.75V35.5H225.25V44.25H221.75V40.75H216.5V44.25H213ZM228.75 44.25V42.5H227V37.25H228.75V35.5H237.5V37.25H239.25V40.75H230.5V42.5H237.5V44.25H228.75ZM230.5 39H235.75V37.25H230.5V39ZM241 44.25V35.5H244.5V39H249.75V35.5H253.25V44.25H249.75V40.75H244.5V44.25H241ZM258.5 40.75H260.25V42.5H258.5V44.25H255V35.5H258.5V40.75ZM267.25 35.5V44.25H263.75V39H262V37.25H263.75V35.5H267.25ZM260.25 39H262V40.75H260.25V39ZM270.75 44.25V42.5H269V37.25H270.75V35.5H279.5V37.25H281.25V40.75H272.5V42.5H279.5V44.25H270.75ZM272.5 39H277.75V37.25H272.5V39Z" fill="white"/>
</svg>
