<svg width="83" height="82" viewBox="0 0 83 82" fill="none" xmlns="http://www.w3.org/2000/svg">
<path d="M14.7504 50.8188V32.6436H18.3685V25.4602H21.9549V21.8491H25.5695V18.2627H32.7882V14.708H50.8683V18.298H58.0834V21.8844H61.6945V25.499H65.2809V32.7141H68.8356V50.7907H65.2457V58.0022H61.6592V61.6169H58.0446V65.1998H50.9141V68.7862H32.7353V65.1645H25.5484V61.564H21.9197V57.967H18.3368V50.8188H14.7504ZM32.7988 65.1363H50.8189V61.564H58.02V58.9711C58.02 57.9353 58.02 57.9353 59.0416 57.9353H61.6733V50.7131H65.221V32.7458H61.6557V25.5236H58.6964C58.02 25.5236 58.02 25.5236 58.02 24.819V21.8773H50.8013V18.3226H32.7988V21.9196H25.5977C25.5977 22.9765 25.5731 23.9559 25.5977 24.9388C25.5977 25.3968 25.4885 25.5518 25.0129 25.5342C24.0124 25.4955 23.0118 25.5342 21.9479 25.5342V32.7529H18.4073V50.7484H21.9796V57.9388C23.0365 57.9388 24.0511 57.9635 25.0517 57.9388C25.5026 57.9388 25.6189 58.0798 25.6048 58.5096C25.5766 59.5101 25.6048 60.5106 25.6048 61.5746H32.8058L32.7988 65.1363Z" fill="#1F32DB"/>
<path d="M40.0209 39.9435C40.0209 33.9966 40.0209 28.0498 40.0209 22.1029C40.0209 22.0501 40.0209 22.0008 40.0456 21.9092H43.6038V39.9435H39.9927H40.0209Z" fill="#1F32DB"/>
<path d="M43.5968 39.9433H54.416V43.5191H43.5968V39.9292V39.9433Z" fill="#1F32DB"/>
<path d="M40.021 43.5192H36.424V39.9434H40.021H40.0034V43.5333L40.021 43.5192Z" fill="#1F32DB"/>
<path d="M43.5966 43.519V47.1196H40.0208V43.519H43.6248H43.5966Z" fill="#1F32DB"/>
<path d="M80.4848 40.5002H81.7424V41.7578H80.4848V40.5002Z" fill="#1F32DB"/>
<path d="M80.4848 41.7578H81.7424V43.0154H80.4848V41.7578Z" fill="#1F32DB"/>
<path d="M80.4848 43.0154H81.7424V44.273H80.4848V43.0154Z" fill="#1F32DB"/>
<path d="M79.2273 44.273H80.4848V45.5305H79.2273V44.273Z" fill="#1F32DB"/>
<path d="M79.2273 45.5305H80.4848V46.7881H79.2273V45.5305Z" fill="#1F32DB"/>
<path d="M79.2273 46.7881H80.4848V48.0457H79.2273V46.7881Z" fill="#1F32DB"/>
<path d="M79.2273 48.0457H80.4848V49.3033H79.2273V48.0457Z" fill="#1F32DB"/>
<path d="M79.2273 49.3033H80.4848V50.5608H79.2273V49.3033Z" fill="#1F32DB"/>
<path d="M79.2273 50.5608H80.4848V51.8184H79.2273V50.5608Z" fill="#1F32DB"/>
<path d="M77.9697 51.8184H79.2273V53.076H77.9697V51.8184Z" fill="#1F32DB"/>
<path d="M77.9697 53.076H79.2273V54.3336H77.9697V53.076Z" fill="#1F32DB"/>
<path d="M77.9697 54.3336H79.2273V55.5911H77.9697V54.3336Z" fill="#1F32DB"/>
<path d="M76.7121 55.5911H77.9697V56.8487H76.7121V55.5911Z" fill="#1F32DB"/>
<path d="M76.7121 56.8487H77.9697V58.1063H76.7121V56.8487Z" fill="#1F32DB"/>
<path d="M75.4545 58.1063H76.7121V59.3639H75.4545V58.1063Z" fill="#1F32DB"/>
<path d="M75.4545 59.3639H76.7121V60.6214H75.4545V59.3639Z" fill="#1F32DB"/>
<path d="M74.197 60.6214H75.4545V61.879H74.197V60.6214Z" fill="#1F32DB"/>
<path d="M72.9394 61.879H74.197V63.1366H72.9394V61.879Z" fill="#1F32DB"/>
<path d="M72.9394 63.1366H74.197V64.3942H72.9394V63.1366Z" fill="#1F32DB"/>
<path d="M71.6818 64.3942H72.9394V65.6517H71.6818V64.3942Z" fill="#1F32DB"/>
<path d="M70.4242 65.6517H71.6818V66.9093H70.4242V65.6517Z" fill="#1F32DB"/>
<path d="M69.1667 66.9093H70.4242V68.1669H69.1667V66.9093Z" fill="#1F32DB"/>
<path d="M67.9091 68.1669H69.1667V69.4245H67.9091V68.1669Z" fill="#1F32DB"/>
<path d="M66.6515 69.4245H67.9091V70.682H66.6515V69.4245Z" fill="#1F32DB"/>
<path d="M65.3939 70.682H66.6515V71.9396H65.3939V70.682Z" fill="#1F32DB"/>
<path d="M64.1364 71.9396H65.3939V73.1972H64.1364V71.9396Z" fill="#1F32DB"/>
<path d="M62.8788 73.1972H64.1364V74.4548H62.8788V73.1972Z" fill="#1F32DB"/>
<path d="M60.3636 74.4548H61.6212V75.7123H60.3636V74.4548Z" fill="#1F32DB"/>
<path d="M57.8485 75.7123H59.1061V76.9699H57.8485V75.7123Z" fill="#1F32DB"/>
<path d="M55.3333 76.9699H56.5909V78.2275H55.3333V76.9699Z" fill="#1F32DB"/>
<path d="M51.5606 78.2275H52.8182V79.4851H51.5606V78.2275Z" fill="#1F32DB"/>
<path d="M46.5303 79.4851H47.7879V80.7427H46.5303V79.4851Z" fill="#1F32DB"/>
<path d="M40.2424 79.4851H41.5V80.7427H40.2424V79.4851Z" fill="#1F32DB"/>
<path d="M41.5 79.4851H42.7576V80.7427H41.5V79.4851Z" fill="#1F32DB"/>
<path d="M42.7576 79.4851H44.0151V80.7427H42.7576V79.4851Z" fill="#1F32DB"/>
<path d="M44.0151 79.4851H45.2727V80.7427H44.0151V79.4851Z" fill="#1F32DB"/>
<path d="M45.2727 79.4851H46.5303V80.7427H45.2727V79.4851Z" fill="#1F32DB"/>
<path d="M47.7879 79.4851H49.0454V80.7427H47.7879V79.4851Z" fill="#1F32DB"/>
<path d="M49.0454 79.4851H50.303V80.7427H49.0454V79.4851Z" fill="#1F32DB"/>
<path d="M50.303 78.2275H51.5606V79.4851H50.303V78.2275Z" fill="#1F32DB"/>
<path d="M52.8182 78.2275H54.0758V79.4851H52.8182V78.2275Z" fill="#1F32DB"/>
<path d="M54.0758 76.9699H55.3333V78.2275H54.0758V76.9699Z" fill="#1F32DB"/>
<path d="M56.5909 76.9699H57.8485V78.2275H56.5909V76.9699Z" fill="#1F32DB"/>
<path d="M59.1061 75.7123H60.3636V76.9699H59.1061V75.7123Z" fill="#1F32DB"/>
<path d="M61.6212 73.1972H62.8788V74.4548H61.6212V73.1972Z" fill="#1F32DB"/>
<path d="M0 40.5002H1.25758V41.7578H0V40.5002Z" fill="#1F32DB"/>
<path d="M0 41.7578H1.25758V43.0154H0V41.7578Z" fill="#1F32DB"/>
<path d="M0 43.0154H1.25758V44.273H0V43.0154Z" fill="#1F32DB"/>
<path d="M0 44.273H1.25758V45.5305H0V44.273Z" fill="#1F32DB"/>
<path d="M0 45.5305H1.25758V46.7881H0V45.5305Z" fill="#1F32DB"/>
<path d="M1.25758 46.7881H2.51515V48.0457H1.25758V46.7881Z" fill="#1F32DB"/>
<path d="M1.25758 48.0457H2.51515V49.3033H1.25758V48.0457Z" fill="#1F32DB"/>
<path d="M1.25758 49.3033H2.51515V50.5608H1.25758V49.3033Z" fill="#1F32DB"/>
<path d="M1.25758 50.5608H2.51515V51.8184H1.25758V50.5608Z" fill="#1F32DB"/>
<path d="M2.51515 51.8184H3.77273V53.076H2.51515V51.8184Z" fill="#1F32DB"/>
<path d="M2.51515 53.076H3.77273V54.3336H2.51515V53.076Z" fill="#1F32DB"/>
<path d="M2.51515 54.3336H3.77273V55.5911H2.51515V54.3336Z" fill="#1F32DB"/>
<path d="M3.77273 55.5911H5.0303V56.8487H3.77273V55.5911Z" fill="#1F32DB"/>
<path d="M3.77273 56.8487H5.0303V58.1063H3.77273V56.8487Z" fill="#1F32DB"/>
<path d="M5.0303 58.1063H6.28788V59.3639H5.0303V58.1063Z" fill="#1F32DB"/>
<path d="M5.0303 59.3639H6.28788V60.6214H5.0303V59.3639Z" fill="#1F32DB"/>
<path d="M6.28788 60.6214H7.54545V61.879H6.28788V60.6214Z" fill="#1F32DB"/>
<path d="M6.28788 61.879H7.54545V63.1366H6.28788V61.879Z" fill="#1F32DB"/>
<path d="M7.54545 63.1366H8.80303V64.3942H7.54545V63.1366Z" fill="#1F32DB"/>
<path d="M8.80303 64.3942H10.0606V65.6517H8.80303V64.3942Z" fill="#1F32DB"/>
<path d="M10.0606 65.6517H11.3182V66.9093H10.0606V65.6517Z" fill="#1F32DB"/>
<path d="M10.0606 66.9093H11.3182V68.1669H10.0606V66.9093Z" fill="#1F32DB"/>
<path d="M11.3182 68.1669H12.5758V69.4245H11.3182V68.1669Z" fill="#1F32DB"/>
<path d="M12.5758 69.4245H13.8333V70.682H12.5758V69.4245Z" fill="#1F32DB"/>
<path d="M15.0909 70.682H16.3485V71.9396H15.0909V70.682Z" fill="#1F32DB"/>
<path d="M16.3485 71.9396H17.6061V73.1972H16.3485V71.9396Z" fill="#1F32DB"/>
<path d="M17.6061 73.1972H18.8636V74.4548H17.6061V73.1972Z" fill="#1F32DB"/>
<path d="M20.1212 74.4548H21.3788V75.7123H20.1212V74.4548Z" fill="#1F32DB"/>
<path d="M22.6364 75.7123H23.8939V76.9699H22.6364V75.7123Z" fill="#1F32DB"/>
<path d="M25.1515 76.9699H26.4091V78.2275H25.1515V76.9699Z" fill="#1F32DB"/>
<path d="M28.9242 78.2275H30.1818V79.4851H28.9242V78.2275Z" fill="#1F32DB"/>
<path d="M33.9545 79.4851H35.2121V80.7427H33.9545V79.4851Z" fill="#1F32DB"/>
<path d="M13.8333 69.4245H15.0909V70.682H13.8333V69.4245Z" fill="#1F32DB"/>
<path d="M18.8636 73.1972H20.1212V74.4548H18.8636V73.1972Z" fill="#1F32DB"/>
<path d="M21.3788 75.7123H22.6364V76.9699H21.3788V75.7123Z" fill="#1F32DB"/>
<path d="M23.8939 76.9699H25.1515V78.2275H23.8939V76.9699Z" fill="#1F32DB"/>
<path d="M26.4091 76.9699H27.6667V78.2275H26.4091V76.9699Z" fill="#1F32DB"/>
<path d="M27.6667 78.2275H28.9242V79.4851H27.6667V78.2275Z" fill="#1F32DB"/>
<path d="M30.1818 78.2275H31.4394V79.4851H30.1818V78.2275Z" fill="#1F32DB"/>
<path d="M31.4394 79.4851H32.697V80.7427H31.4394V79.4851Z" fill="#1F32DB"/>
<path d="M32.697 79.4851H33.9545V80.7427H32.697V79.4851Z" fill="#1F32DB"/>
<path d="M35.2121 79.4851H36.4697V80.7427H35.2121V79.4851Z" fill="#1F32DB"/>
<path d="M36.4697 79.4851H37.7273V80.7427H36.4697V79.4851Z" fill="#1F32DB"/>
<path d="M37.7273 79.4851H38.9848V80.7427H37.7273V79.4851Z" fill="#1F32DB"/>
<path d="M38.9848 79.4851H40.2424V80.7427H38.9848V79.4851Z" fill="#1F32DB"/>
<path d="M36.4697 0.257812H37.7273V1.51539H36.4697V0.257812Z" fill="#1F32DB"/>
<path d="M28.9242 1.51539H30.1818V2.77296H28.9242V1.51539Z" fill="#1F32DB"/>
<path d="M25.1515 2.77296H26.4091V4.03054H25.1515V2.77296Z" fill="#1F32DB"/>
<path d="M22.6364 4.03054H23.8939V5.28812H22.6364V4.03054Z" fill="#1F32DB"/>
<path d="M20.1212 5.28812H21.3788V6.54569H20.1212V5.28812Z" fill="#1F32DB"/>
<path d="M18.8636 6.54569H20.1212V7.80327H18.8636V6.54569Z" fill="#1F32DB"/>
<path d="M16.3485 7.80327H17.6061V9.06084H16.3485V7.80327Z" fill="#1F32DB"/>
<path d="M15.0909 9.06084H16.3485V10.3184H15.0909V9.06084Z" fill="#1F32DB"/>
<path d="M13.8333 10.3184H15.0909V11.576H13.8333V10.3184Z" fill="#1F32DB"/>
<path d="M12.5758 11.576H13.8333V12.8336H12.5758V11.576Z" fill="#1F32DB"/>
<path d="M11.3182 12.8336H12.5758V14.0911H11.3182V12.8336Z" fill="#1F32DB"/>
<path d="M10.0606 14.0911H11.3182V15.3487H10.0606V14.0911Z" fill="#1F32DB"/>
<path d="M8.80303 15.3487H10.0606V16.6063H8.80303V15.3487Z" fill="#1F32DB"/>
<path d="M7.54545 16.6063H8.80303V17.8639H7.54545V16.6063Z" fill="#1F32DB"/>
<path d="M6.28788 17.8639H7.54545V19.1214H6.28788V17.8639Z" fill="#1F32DB"/>
<path d="M6.28788 19.1214H7.54545V20.379H6.28788V19.1214Z" fill="#1F32DB"/>
<path d="M5.0303 20.379H6.28788V21.6366H5.0303V20.379Z" fill="#1F32DB"/>
<path d="M5.0303 21.6366H6.28788V22.8942H5.0303V21.6366Z" fill="#1F32DB"/>
<path d="M3.77273 22.8942H5.0303V24.1517H3.77273V22.8942Z" fill="#1F32DB"/>
<path d="M3.77273 24.1517H5.0303V25.4093H3.77273V24.1517Z" fill="#1F32DB"/>
<path d="M2.51515 25.4093H3.77273V26.6669H2.51515V25.4093Z" fill="#1F32DB"/>
<path d="M2.51515 26.6669H3.77273V27.9245H2.51515V26.6669Z" fill="#1F32DB"/>
<path d="M2.51515 27.9245H3.77273V29.1821H2.51515V27.9245Z" fill="#1F32DB"/>
<path d="M1.25758 29.1821H2.51515V30.4396H1.25758V29.1821Z" fill="#1F32DB"/>
<path d="M1.25758 30.4396H2.51515V31.6972H1.25758V30.4396Z" fill="#1F32DB"/>
<path d="M1.25758 31.6972H2.51515V32.9548H1.25758V31.6972Z" fill="#1F32DB"/>
<path d="M1.25758 32.9548H2.51515V34.2124H1.25758V32.9548Z" fill="#1F32DB"/>
<path d="M0 34.2124H1.25758V35.4699H0V34.2124Z" fill="#1F32DB"/>
<path d="M0 35.4699H1.25758V36.7275H0V35.4699Z" fill="#1F32DB"/>
<path d="M0 36.7275H1.25758V37.9851H0V36.7275Z" fill="#1F32DB"/>
<path d="M0 37.9851H1.25758V39.2427H0V37.9851Z" fill="#1F32DB"/>
<path d="M0 39.2427H1.25758V40.5002H0V39.2427Z" fill="#1F32DB"/>
<path d="M17.6061 6.54569H18.8636V7.80327H17.6061V6.54569Z" fill="#1F32DB"/>
<path d="M21.3788 5.28812H22.6364V6.54569H21.3788V5.28812Z" fill="#1F32DB"/>
<path d="M23.8939 4.03054H25.1515V5.28812H23.8939V4.03054Z" fill="#1F32DB"/>
<path d="M26.4091 2.77296H27.6667V4.03054H26.4091V2.77296Z" fill="#1F32DB"/>
<path d="M27.6667 1.51539H28.9242V2.77296H27.6667V1.51539Z" fill="#1F32DB"/>
<path d="M30.1818 1.51539H31.4394V2.77296H30.1818V1.51539Z" fill="#1F32DB"/>
<path d="M31.4394 1.51539H32.697V2.77296H31.4394V1.51539Z" fill="#1F32DB"/>
<path d="M32.697 0.257812H33.9545V1.51539H32.697V0.257812Z" fill="#1F32DB"/>
<path d="M33.9545 0.257812H35.2121V1.51539H33.9545V0.257812Z" fill="#1F32DB"/>
<path d="M35.2121 0.257812H36.4697V1.51539H35.2121V0.257812Z" fill="#1F32DB"/>
<path d="M37.7273 0.257812H38.9848V1.51539H37.7273V0.257812Z" fill="#1F32DB"/>
<path d="M38.9848 0.257812H40.2424V1.51539H38.9848V0.257812Z" fill="#1F32DB"/>
<path d="M40.2424 0.257812H41.5V1.51539H40.2424V0.257812Z" fill="#1F32DB"/>
<path d="M44.0151 0.257812H45.2727V1.51539H44.0151V0.257812Z" fill="#1F32DB"/>
<path d="M50.303 1.51539H51.5606V2.77296H50.303V1.51539Z" fill="#1F32DB"/>
<path d="M54.0758 2.77296H55.3333V4.03054H54.0758V2.77296Z" fill="#1F32DB"/>
<path d="M57.8485 4.03054H59.1061V5.28812H57.8485V4.03054Z" fill="#1F32DB"/>
<path d="M60.3636 5.28812H61.6212V6.54569H60.3636V5.28812Z" fill="#1F32DB"/>
<path d="M61.6212 6.54569H62.8788V7.80327H61.6212V6.54569Z" fill="#1F32DB"/>
<path d="M64.1364 7.80327H65.3939V9.06084H64.1364V7.80327Z" fill="#1F32DB"/>
<path d="M65.3939 9.06084H66.6515V10.3184H65.3939V9.06084Z" fill="#1F32DB"/>
<path d="M66.6515 10.3184H67.9091V11.576H66.6515V10.3184Z" fill="#1F32DB"/>
<path d="M67.9091 11.576H69.1667V12.8336H67.9091V11.576Z" fill="#1F32DB"/>
<path d="M69.1667 12.8336H70.4242V14.0911H69.1667V12.8336Z" fill="#1F32DB"/>
<path d="M70.4242 14.0911H71.6818V15.3487H70.4242V14.0911Z" fill="#1F32DB"/>
<path d="M71.6818 15.3487H72.9394V16.6063H71.6818V15.3487Z" fill="#1F32DB"/>
<path d="M72.9394 16.6063H74.197V17.8639H72.9394V16.6063Z" fill="#1F32DB"/>
<path d="M72.9394 17.8639H74.197V19.1214H72.9394V17.8639Z" fill="#1F32DB"/>
<path d="M74.197 19.1214H75.4545V20.379H74.197V19.1214Z" fill="#1F32DB"/>
<path d="M75.4545 20.379H76.7121V21.6366H75.4545V20.379Z" fill="#1F32DB"/>
<path d="M75.4545 21.6366H76.7121V22.8942H75.4545V21.6366Z" fill="#1F32DB"/>
<path d="M76.7121 22.8942H77.9697V24.1517H76.7121V22.8942Z" fill="#1F32DB"/>
<path d="M76.7121 24.1517H77.9697V25.4093H76.7121V24.1517Z" fill="#1F32DB"/>
<path d="M76.7121 25.4093H77.9697V26.6669H76.7121V25.4093Z" fill="#1F32DB"/>
<path d="M77.9697 26.6669H79.2273V27.9245H77.9697V26.6669Z" fill="#1F32DB"/>
<path d="M77.9697 27.9245H79.2273V29.1821H77.9697V27.9245Z" fill="#1F32DB"/>
<path d="M77.9697 29.1821H79.2273V30.4396H77.9697V29.1821Z" fill="#1F32DB"/>
<path d="M79.2273 30.4396H80.4848V31.6972H79.2273V30.4396Z" fill="#1F32DB"/>
<path d="M79.2273 31.6972H80.4848V32.9548H79.2273V31.6972Z" fill="#1F32DB"/>
<path d="M79.2273 32.9548H80.4848V34.2124H79.2273V32.9548Z" fill="#1F32DB"/>
<path d="M79.2273 34.2124H80.4848V35.4699H79.2273V34.2124Z" fill="#1F32DB"/>
<path d="M79.2273 35.4699H80.4848V36.7275H79.2273V35.4699Z" fill="#1F32DB"/>
<path d="M80.4848 36.7275H81.7424V37.9851H80.4848V36.7275Z" fill="#1F32DB"/>
<path d="M80.4848 37.9851H81.7424V39.2427H80.4848V37.9851Z" fill="#1F32DB"/>
<path d="M80.4848 39.2427H81.7424V40.5002H80.4848V39.2427Z" fill="#1F32DB"/>
<path d="M41.5 0.257812H42.7576V1.51539H41.5V0.257812Z" fill="#1F32DB"/>
<path d="M42.7576 0.257812H44.0151V1.51539H42.7576V0.257812Z" fill="#1F32DB"/>
<path d="M45.2727 0.257812H46.5303V1.51539H45.2727V0.257812Z" fill="#1F32DB"/>
<path d="M46.5303 0.257812H47.7879V1.51539H46.5303V0.257812Z" fill="#1F32DB"/>
<path d="M47.7879 0.257812H49.0454V1.51539H47.7879V0.257812Z" fill="#1F32DB"/>
<path d="M49.0454 1.51539H50.303V2.77296H49.0454V1.51539Z" fill="#1F32DB"/>
<path d="M51.5606 1.51539H52.8182V2.77296H51.5606V1.51539Z" fill="#1F32DB"/>
<path d="M52.8182 1.51539H54.0758V2.77296H52.8182V1.51539Z" fill="#1F32DB"/>
<path d="M55.3333 2.77296H56.5909V4.03054H55.3333V2.77296Z" fill="#1F32DB"/>
<path d="M56.5909 4.03054H57.8485V5.28812H56.5909V4.03054Z" fill="#1F32DB"/>
<path d="M59.1061 5.28812H60.3636V6.54569H59.1061V5.28812Z" fill="#1F32DB"/>
<path d="M62.8788 6.54569H64.1364V7.80327H62.8788V6.54569Z" fill="#1F32DB"/>
<rect x="80.4849" y="40.5005" width="1.25758" height="1.25758" fill="#1F32DB"/>
<rect x="80.4849" y="41.7578" width="1.25758" height="1.25758" fill="#1F32DB"/>
<rect x="80.4849" y="43.0151" width="1.25758" height="1.25758" fill="#1F32DB"/>
<rect x="79.2273" y="44.2729" width="1.25758" height="1.25758" fill="#1F32DB"/>
<rect x="79.2273" y="45.5308" width="1.25758" height="1.25758" fill="#1F32DB"/>
<rect x="79.2273" y="46.7881" width="1.25758" height="1.25758" fill="#1F32DB"/>
<rect x="79.2273" y="48.0459" width="1.25758" height="1.25758" fill="#1F32DB"/>
<rect x="79.2273" y="49.3032" width="1.25758" height="1.25758" fill="#1F32DB"/>
<rect x="79.2273" y="50.561" width="1.25758" height="1.25758" fill="#1F32DB"/>
<rect x="77.9698" y="51.8184" width="1.25758" height="1.25758" fill="#1F32DB"/>
<rect x="77.9698" y="53.0762" width="1.25758" height="1.25758" fill="#1F32DB"/>
<rect x="77.9698" y="54.3335" width="1.25758" height="1.25758" fill="#1F32DB"/>
<rect x="76.7123" y="55.5913" width="1.25758" height="1.25758" fill="#1F32DB"/>
<rect x="76.7123" y="56.8486" width="1.25758" height="1.25758" fill="#1F32DB"/>
<rect x="75.4545" y="58.1064" width="1.25758" height="1.25758" fill="#1F32DB"/>
<rect x="75.4545" y="59.3638" width="1.25758" height="1.25758" fill="#1F32DB"/>
<rect x="74.1969" y="60.6216" width="1.25758" height="1.25758" fill="#1F32DB"/>
<rect x="72.9394" y="61.8789" width="1.25758" height="1.25758" fill="#1F32DB"/>
<rect x="72.9394" y="63.1367" width="1.25758" height="1.25758" fill="#1F32DB"/>
<rect x="71.6818" y="64.394" width="1.25758" height="1.25758" fill="#1F32DB"/>
<rect x="70.424" y="65.6519" width="1.25758" height="1.25758" fill="#1F32DB"/>
<rect x="69.1665" y="66.9092" width="1.25758" height="1.25758" fill="#1F32DB"/>
<rect x="67.9092" y="68.167" width="1.25758" height="1.25758" fill="#1F32DB"/>
<rect x="66.6514" y="69.4243" width="1.25758" height="1.25758" fill="#1F32DB"/>
<rect x="65.3939" y="70.6821" width="1.25758" height="1.25758" fill="#1F32DB"/>
<rect x="64.1363" y="71.9395" width="1.25758" height="1.25758" fill="#1F32DB"/>
<rect x="62.8788" y="73.1973" width="1.25758" height="1.25758" fill="#1F32DB"/>
<rect x="60.3637" y="74.4546" width="1.25758" height="1.25758" fill="#1F32DB"/>
<rect x="57.8484" y="75.7124" width="1.25758" height="1.25758" fill="#1F32DB"/>
<rect x="55.3333" y="76.9697" width="1.25758" height="1.25758" fill="#1F32DB"/>
<rect x="51.5607" y="78.2275" width="1.25758" height="1.25758" fill="#1F32DB"/>
<rect x="46.5303" y="79.4854" width="1.25758" height="1.25758" fill="#1F32DB"/>
<rect x="40.2423" y="79.4854" width="1.25758" height="1.25758" fill="#1F32DB"/>
<rect x="41.5001" y="79.4854" width="1.25758" height="1.25758" fill="#1F32DB"/>
<rect x="42.7577" y="79.4854" width="1.25758" height="1.25758" fill="#1F32DB"/>
<rect x="44.0152" y="79.4854" width="1.25758" height="1.25758" fill="#1F32DB"/>
<rect x="45.2727" y="79.4854" width="1.25758" height="1.25758" fill="#1F32DB"/>
<rect x="47.7878" y="79.4854" width="1.25758" height="1.25758" fill="#1F32DB"/>
<rect x="49.0453" y="79.4854" width="1.25758" height="1.25758" fill="#1F32DB"/>
<rect x="50.3032" y="78.2275" width="1.25758" height="1.25758" fill="#1F32DB"/>
<rect x="52.8182" y="78.2275" width="1.25758" height="1.25758" fill="#1F32DB"/>
<rect x="54.0758" y="76.9697" width="1.25758" height="1.25758" fill="#1F32DB"/>
<rect x="56.5908" y="76.9697" width="1.25758" height="1.25758" fill="#1F32DB"/>
<rect x="59.1059" y="75.7124" width="1.25758" height="1.25758" fill="#1F32DB"/>
<rect x="61.6213" y="73.1973" width="1.25758" height="1.25758" fill="#1F32DB"/>
<rect y="40.5005" width="1.25758" height="1.25758" fill="#1F32DB"/>
<rect y="41.7578" width="1.25758" height="1.25758" fill="#1F32DB"/>
<rect y="43.0151" width="1.25758" height="1.25758" fill="#1F32DB"/>
<rect y="44.2729" width="1.25758" height="1.25758" fill="#1F32DB"/>
<rect y="45.5308" width="1.25758" height="1.25758" fill="#1F32DB"/>
<rect x="1.25754" y="46.7881" width="1.25758" height="1.25758" fill="#1F32DB"/>
<rect x="1.25754" y="48.0459" width="1.25758" height="1.25758" fill="#1F32DB"/>
<rect x="1.25754" y="49.3032" width="1.25758" height="1.25758" fill="#1F32DB"/>
<rect x="1.25754" y="50.561" width="1.25758" height="1.25758" fill="#1F32DB"/>
<rect x="2.51508" y="51.8184" width="1.25758" height="1.25758" fill="#1F32DB"/>
<rect x="2.51508" y="53.0762" width="1.25758" height="1.25758" fill="#1F32DB"/>
<rect x="2.51508" y="54.3335" width="1.25758" height="1.25758" fill="#1F32DB"/>
<rect x="3.77261" y="55.5913" width="1.25758" height="1.25758" fill="#1F32DB"/>
<rect x="3.77261" y="56.8486" width="1.25758" height="1.25758" fill="#1F32DB"/>
<rect x="5.03015" y="58.1064" width="1.25758" height="1.25758" fill="#1F32DB"/>
<rect x="5.03015" y="59.3638" width="1.25758" height="1.25758" fill="#1F32DB"/>
<rect x="6.28796" y="60.6216" width="1.25758" height="1.25758" fill="#1F32DB"/>
<rect x="6.28796" y="61.8789" width="1.25758" height="1.25758" fill="#1F32DB"/>
<rect x="7.5455" y="63.1367" width="1.25758" height="1.25758" fill="#1F32DB"/>
<rect x="8.80304" y="64.394" width="1.25758" height="1.25758" fill="#1F32DB"/>
<rect x="10.0606" y="65.6519" width="1.25758" height="1.25758" fill="#1F32DB"/>
<rect x="10.0606" y="66.9092" width="1.25758" height="1.25758" fill="#1F32DB"/>
<rect x="11.3184" y="68.167" width="1.25758" height="1.25758" fill="#1F32DB"/>
<rect x="12.5759" y="69.4243" width="1.25758" height="1.25758" fill="#1F32DB"/>
<rect x="15.091" y="70.6821" width="1.25758" height="1.25758" fill="#1F32DB"/>
<rect x="16.3485" y="71.9395" width="1.25758" height="1.25758" fill="#1F32DB"/>
<rect x="17.6061" y="73.1973" width="1.25758" height="1.25758" fill="#1F32DB"/>
<rect x="20.1212" y="74.4546" width="1.25758" height="1.25758" fill="#1F32DB"/>
<rect x="22.6365" y="75.7124" width="1.25758" height="1.25758" fill="#1F32DB"/>
<rect x="25.1516" y="76.9697" width="1.25758" height="1.25758" fill="#1F32DB"/>
<rect x="28.9242" y="78.2275" width="1.25758" height="1.25758" fill="#1F32DB"/>
<rect x="33.9546" y="79.4854" width="1.25758" height="1.25758" fill="#1F32DB"/>
<rect x="13.8332" y="69.4243" width="1.25758" height="1.25758" fill="#1F32DB"/>
<rect x="18.8636" y="73.1973" width="1.25758" height="1.25758" fill="#1F32DB"/>
<rect x="21.3787" y="75.7124" width="1.25758" height="1.25758" fill="#1F32DB"/>
<rect x="23.894" y="76.9697" width="1.25758" height="1.25758" fill="#1F32DB"/>
<rect x="26.4091" y="76.9697" width="1.25758" height="1.25758" fill="#1F32DB"/>
<rect x="27.6667" y="78.2275" width="1.25758" height="1.25758" fill="#1F32DB"/>
<rect x="30.1817" y="78.2275" width="1.25758" height="1.25758" fill="#1F32DB"/>
<rect x="31.4393" y="79.4854" width="1.25758" height="1.25758" fill="#1F32DB"/>
<rect x="32.6971" y="79.4854" width="1.25758" height="1.25758" fill="#1F32DB"/>
<rect x="35.2122" y="79.4854" width="1.25758" height="1.25758" fill="#1F32DB"/>
<rect x="36.4697" y="79.4854" width="1.25758" height="1.25758" fill="#1F32DB"/>
<rect x="37.7272" y="79.4854" width="1.25758" height="1.25758" fill="#1F32DB"/>
<rect x="38.9848" y="79.4854" width="1.25758" height="1.25758" fill="#1F32DB"/>
<rect x="36.4697" y="0.257812" width="1.25758" height="1.25758" fill="#1F32DB"/>
<rect x="28.9242" y="1.51514" width="1.25758" height="1.25758" fill="#1F32DB"/>
<rect x="25.1516" y="2.77295" width="1.25758" height="1.25758" fill="#1F32DB"/>
<rect x="22.6365" y="4.03076" width="1.25758" height="1.25758" fill="#1F32DB"/>
<rect x="20.1212" y="5.28809" width="1.25758" height="1.25758" fill="#1F32DB"/>
<rect x="18.8636" y="6.54541" width="1.25758" height="1.25758" fill="#1F32DB"/>
<rect x="16.3485" y="7.80322" width="1.25758" height="1.25758" fill="#1F32DB"/>
<rect x="15.091" y="9.06104" width="1.25758" height="1.25758" fill="#1F32DB"/>
<rect x="13.8332" y="10.3184" width="1.25758" height="1.25758" fill="#1F32DB"/>
<rect x="12.5759" y="11.5762" width="1.25758" height="1.25758" fill="#1F32DB"/>
<rect x="11.3184" y="12.8335" width="1.25758" height="1.25758" fill="#1F32DB"/>
<rect x="10.0606" y="14.0913" width="1.25758" height="1.25758" fill="#1F32DB"/>
<rect x="8.80304" y="15.3486" width="1.25758" height="1.25758" fill="#1F32DB"/>
<rect x="7.5455" y="16.6064" width="1.25758" height="1.25758" fill="#1F32DB"/>
<rect x="6.28796" y="17.8638" width="1.25758" height="1.25758" fill="#1F32DB"/>
<rect x="6.28796" y="19.1216" width="1.25758" height="1.25758" fill="#1F32DB"/>
<rect x="5.03015" y="20.3789" width="1.25758" height="1.25758" fill="#1F32DB"/>
<rect x="5.03015" y="21.6367" width="1.25758" height="1.25758" fill="#1F32DB"/>
<rect x="3.77261" y="22.894" width="1.25758" height="1.25758" fill="#1F32DB"/>
<rect x="3.77261" y="24.1519" width="1.25758" height="1.25758" fill="#1F32DB"/>
<rect x="2.51508" y="25.4092" width="1.25758" height="1.25758" fill="#1F32DB"/>
<rect x="2.51508" y="26.667" width="1.25758" height="1.25758" fill="#1F32DB"/>
<rect x="2.51508" y="27.9243" width="1.25758" height="1.25758" fill="#1F32DB"/>
<rect x="1.25754" y="29.1821" width="1.25758" height="1.25758" fill="#1F32DB"/>
<rect x="1.25754" y="30.4395" width="1.25758" height="1.25758" fill="#1F32DB"/>
<rect x="1.25754" y="31.6973" width="1.25758" height="1.25758" fill="#1F32DB"/>
<rect x="1.25754" y="32.9546" width="1.25758" height="1.25758" fill="#1F32DB"/>
<rect y="34.2124" width="1.25758" height="1.25758" fill="#1F32DB"/>
<rect y="35.4702" width="1.25758" height="1.25758" fill="#1F32DB"/>
<rect y="36.7275" width="1.25758" height="1.25758" fill="#1F32DB"/>
<rect y="37.9849" width="1.25758" height="1.25758" fill="#1F32DB"/>
<rect y="39.2427" width="1.25758" height="1.25758" fill="#1F32DB"/>
<rect x="17.6061" y="6.54541" width="1.25758" height="1.25758" fill="#1F32DB"/>
<rect x="21.3787" y="5.28809" width="1.25758" height="1.25758" fill="#1F32DB"/>
<rect x="23.894" y="4.03076" width="1.25758" height="1.25758" fill="#1F32DB"/>
<rect x="26.4091" y="2.77295" width="1.25758" height="1.25758" fill="#1F32DB"/>
<rect x="27.6667" y="1.51514" width="1.25758" height="1.25758" fill="#1F32DB"/>
<rect x="30.1817" y="1.51514" width="1.25758" height="1.25758" fill="#1F32DB"/>
<rect x="31.4393" y="1.51514" width="1.25758" height="1.25758" fill="#1F32DB"/>
<rect x="32.6971" y="0.257812" width="1.25758" height="1.25758" fill="#1F32DB"/>
<rect x="33.9546" y="0.257812" width="1.25758" height="1.25758" fill="#1F32DB"/>
<rect x="35.2122" y="0.257812" width="1.25758" height="1.25758" fill="#1F32DB"/>
<rect x="37.7272" y="0.257812" width="1.25758" height="1.25758" fill="#1F32DB"/>
<rect x="38.9848" y="0.257812" width="1.25758" height="1.25758" fill="#1F32DB"/>
<rect x="40.2423" y="0.257812" width="1.25758" height="1.25758" fill="#1F32DB"/>
<rect x="44.0152" y="0.257812" width="1.25758" height="1.25758" fill="#1F32DB"/>
<rect x="50.3032" y="1.51514" width="1.25758" height="1.25758" fill="#1F32DB"/>
<rect x="54.0758" y="2.77295" width="1.25758" height="1.25758" fill="#1F32DB"/>
<rect x="57.8484" y="4.03076" width="1.25758" height="1.25758" fill="#1F32DB"/>
<rect x="60.3637" y="5.28809" width="1.25758" height="1.25758" fill="#1F32DB"/>
<rect x="61.6213" y="6.54541" width="1.25758" height="1.25758" fill="#1F32DB"/>
<rect x="64.1363" y="7.80322" width="1.25758" height="1.25758" fill="#1F32DB"/>
<rect x="65.3939" y="9.06104" width="1.25758" height="1.25758" fill="#1F32DB"/>
<rect x="66.6514" y="10.3184" width="1.25758" height="1.25758" fill="#1F32DB"/>
<rect x="67.9092" y="11.5762" width="1.25758" height="1.25758" fill="#1F32DB"/>
<rect x="69.1665" y="12.8335" width="1.25758" height="1.25758" fill="#1F32DB"/>
<rect x="70.424" y="14.0913" width="1.25758" height="1.25758" fill="#1F32DB"/>
<rect x="71.6818" y="15.3486" width="1.25758" height="1.25758" fill="#1F32DB"/>
<rect x="72.9394" y="16.6064" width="1.25758" height="1.25758" fill="#1F32DB"/>
<rect x="72.9394" y="17.8638" width="1.25758" height="1.25758" fill="#1F32DB"/>
<rect x="74.1969" y="19.1216" width="1.25758" height="1.25758" fill="#1F32DB"/>
<rect x="75.4545" y="20.3789" width="1.25758" height="1.25758" fill="#1F32DB"/>
<rect x="75.4545" y="21.6367" width="1.25758" height="1.25758" fill="#1F32DB"/>
<rect x="76.7123" y="22.894" width="1.25758" height="1.25758" fill="#1F32DB"/>
<rect x="76.7123" y="24.1519" width="1.25758" height="1.25758" fill="#1F32DB"/>
<rect x="76.7123" y="25.4092" width="1.25758" height="1.25758" fill="#1F32DB"/>
<rect x="77.9698" y="26.667" width="1.25758" height="1.25758" fill="#1F32DB"/>
<rect x="77.9698" y="27.9243" width="1.25758" height="1.25758" fill="#1F32DB"/>
<rect x="77.9698" y="29.1821" width="1.25758" height="1.25758" fill="#1F32DB"/>
<rect x="79.2273" y="30.4395" width="1.25758" height="1.25758" fill="#1F32DB"/>
<rect x="79.2273" y="31.6973" width="1.25758" height="1.25758" fill="#1F32DB"/>
<rect x="79.2273" y="32.9546" width="1.25758" height="1.25758" fill="#1F32DB"/>
<rect x="79.2273" y="34.2124" width="1.25758" height="1.25758" fill="#1F32DB"/>
<rect x="79.2273" y="35.4702" width="1.25758" height="1.25758" fill="#1F32DB"/>
<rect x="80.4849" y="36.7275" width="1.25758" height="1.25758" fill="#1F32DB"/>
<rect x="80.4849" y="37.9849" width="1.25758" height="1.25758" fill="#1F32DB"/>
<rect x="80.4849" y="39.2427" width="1.25758" height="1.25758" fill="#1F32DB"/>
<rect x="41.5001" y="0.257812" width="1.25758" height="1.25758" fill="#1F32DB"/>
<rect x="42.7577" y="0.257812" width="1.25758" height="1.25758" fill="#1F32DB"/>
<rect x="45.2727" y="0.257812" width="1.25758" height="1.25758" fill="#1F32DB"/>
<rect x="46.5303" y="0.257812" width="1.25758" height="1.25758" fill="#1F32DB"/>
<rect x="47.7878" y="0.257812" width="1.25758" height="1.25758" fill="#1F32DB"/>
<rect x="49.0453" y="1.51514" width="1.25758" height="1.25758" fill="#1F32DB"/>
<rect x="51.5607" y="1.51514" width="1.25758" height="1.25758" fill="#1F32DB"/>
<rect x="52.8182" y="1.51514" width="1.25758" height="1.25758" fill="#1F32DB"/>
<rect x="55.3333" y="2.77295" width="1.25758" height="1.25758" fill="#1F32DB"/>
<rect x="56.5908" y="4.03076" width="1.25758" height="1.25758" fill="#1F32DB"/>
<rect x="59.1059" y="5.28809" width="1.25758" height="1.25758" fill="#1F32DB"/>
<rect x="62.8788" y="6.54541" width="1.25758" height="1.25758" fill="#1F32DB"/>
<rect x="81.7424" y="40.5005" width="1.25758" height="1.25758" fill="#1F32DB"/>
<rect x="81.7424" y="41.7578" width="1.25758" height="1.25758" fill="#1F32DB"/>
<rect x="81.7424" y="43.0151" width="1.25758" height="1.25758" fill="#1F32DB"/>
<rect x="81.7424" y="44.2729" width="1.25758" height="1.25758" fill="#1F32DB"/>
<rect x="80.4849" y="44.2729" width="1.25758" height="1.25758" fill="#1F32DB"/>
<rect x="80.4849" y="45.5308" width="1.25758" height="1.25758" fill="#1F32DB"/>
<rect x="80.4849" y="46.7881" width="1.25758" height="1.25758" fill="#1F32DB"/>
<rect x="80.4849" y="48.0459" width="1.25758" height="1.25758" fill="#1F32DB"/>
<rect x="80.4849" y="49.3032" width="1.25758" height="1.25758" fill="#1F32DB"/>
<rect x="80.4849" y="50.561" width="1.25758" height="1.25758" fill="#1F32DB"/>
<rect x="80.4849" y="51.8184" width="1.25758" height="1.25758" fill="#1F32DB"/>
<rect x="79.2273" y="51.8184" width="1.25758" height="1.25758" fill="#1F32DB"/>
<rect x="79.2273" y="53.0762" width="1.25758" height="1.25758" fill="#1F32DB"/>
<rect x="79.2273" y="54.3335" width="1.25758" height="1.25758" fill="#1F32DB"/>
<rect x="79.2273" y="55.5913" width="1.25758" height="1.25758" fill="#1F32DB"/>
<rect x="77.9698" y="55.5913" width="1.25758" height="1.25758" fill="#1F32DB"/>
<rect x="77.9698" y="56.8486" width="1.25758" height="1.25758" fill="#1F32DB"/>
<rect x="77.9698" y="58.1064" width="1.25758" height="1.25758" fill="#1F32DB"/>
<rect x="76.7123" y="58.1064" width="1.25758" height="1.25758" fill="#1F32DB"/>
<rect x="76.7123" y="59.3638" width="1.25758" height="1.25758" fill="#1F32DB"/>
<rect x="76.7123" y="60.6216" width="1.25758" height="1.25758" fill="#1F32DB"/>
<rect x="75.4545" y="60.6216" width="1.25758" height="1.25758" fill="#1F32DB"/>
<rect x="75.4545" y="61.8789" width="1.25758" height="1.25758" fill="#1F32DB"/>
<rect x="74.1969" y="61.8789" width="1.25758" height="1.25758" fill="#1F32DB"/>
<rect x="74.1969" y="63.1367" width="1.25758" height="1.25758" fill="#1F32DB"/>
<rect x="74.1969" y="64.394" width="1.25758" height="1.25758" fill="#1F32DB"/>
<rect x="72.9394" y="64.394" width="1.25758" height="1.25758" fill="#1F32DB"/>
<rect x="72.9394" y="65.6519" width="1.25758" height="1.25758" fill="#1F32DB"/>
<rect x="71.6818" y="65.6519" width="1.25758" height="1.25758" fill="#1F32DB"/>
<rect x="71.6818" y="66.9092" width="1.25758" height="1.25758" fill="#1F32DB"/>
<rect x="70.424" y="66.9092" width="1.25758" height="1.25758" fill="#1F32DB"/>
<rect x="70.424" y="68.167" width="1.25758" height="1.25758" fill="#1F32DB"/>
<rect x="69.1665" y="68.167" width="1.25758" height="1.25758" fill="#1F32DB"/>
<rect x="69.1665" y="69.4243" width="1.25758" height="1.25758" fill="#1F32DB"/>
<rect x="67.9092" y="69.4243" width="1.25758" height="1.25758" fill="#1F32DB"/>
<rect x="67.9092" y="70.6821" width="1.25758" height="1.25758" fill="#1F32DB"/>
<rect x="66.6514" y="70.6821" width="1.25758" height="1.25758" fill="#1F32DB"/>
<rect x="66.6514" y="71.9395" width="1.25758" height="1.25758" fill="#1F32DB"/>
<rect x="65.3939" y="71.9395" width="1.25758" height="1.25758" fill="#1F32DB"/>
<rect x="65.3939" y="73.1973" width="1.25758" height="1.25758" fill="#1F32DB"/>
<rect x="64.1363" y="73.1973" width="1.25758" height="1.25758" fill="#1F32DB"/>
<rect x="64.1363" y="74.4546" width="1.25758" height="1.25758" fill="#1F32DB"/>
<rect x="62.8788" y="74.4546" width="1.25758" height="1.25758" fill="#1F32DB"/>
<rect x="60.3637" y="73.1973" width="1.25758" height="1.25758" fill="#1F32DB"/>
<rect x="61.6213" y="74.4546" width="1.25758" height="1.25758" fill="#1F32DB"/>
<rect x="61.6213" y="75.7124" width="1.25758" height="1.25758" fill="#1F32DB"/>
<rect x="60.3637" y="75.7124" width="1.25758" height="1.25758" fill="#1F32DB"/>
<rect x="59.1059" y="76.9697" width="1.25758" height="1.25758" fill="#1F32DB"/>
<rect x="57.8484" y="76.9697" width="1.25758" height="1.25758" fill="#1F32DB"/>
<rect x="56.5908" y="78.2275" width="1.25758" height="1.25758" fill="#1F32DB"/>
<rect x="55.3333" y="78.2275" width="1.25758" height="1.25758" fill="#1F32DB"/>
<rect x="52.8182" y="79.4854" width="1.25758" height="1.25758" fill="#1F32DB"/>
<rect x="51.5607" y="79.4854" width="1.25758" height="1.25758" fill="#1F32DB"/>
<rect x="47.7878" y="80.7427" width="1.25758" height="1.25758" fill="#1F32DB"/>
<rect x="46.5303" y="80.7427" width="1.25758" height="1.25758" fill="#1F32DB"/>
<rect x="41.5001" y="80.7427" width="1.25758" height="1.25758" fill="#1F32DB"/>
<rect x="40.2423" y="80.7427" width="1.25758" height="1.25758" fill="#1F32DB"/>
<rect x="42.7577" y="80.7427" width="1.25758" height="1.25758" fill="#1F32DB"/>
<rect x="44.0152" y="80.7427" width="1.25758" height="1.25758" fill="#1F32DB"/>
<rect x="45.2727" y="80.7427" width="1.25758" height="1.25758" fill="#1F32DB"/>
<rect x="49.0453" y="80.7427" width="1.25758" height="1.25758" fill="#1F32DB"/>
<rect x="50.3032" y="79.4854" width="1.25758" height="1.25758" fill="#1F32DB"/>
<rect x="50.3032" y="80.7427" width="1.25758" height="1.25758" fill="#1F32DB"/>
<rect x="54.0758" y="78.2275" width="1.25758" height="1.25758" fill="#1F32DB"/>
<rect x="54.0758" y="79.4854" width="1.25758" height="1.25758" fill="#1F32DB"/>
<rect x="57.8484" y="78.2275" width="1.25758" height="1.25758" fill="#1F32DB"/>
<rect x="60.3637" y="76.9697" width="1.25758" height="1.25758" fill="#1F32DB"/>
<rect x="1.25754" y="40.5005" width="1.25758" height="1.25758" fill="#1F32DB"/>
<rect x="1.25754" y="41.7578" width="1.25758" height="1.25758" fill="#1F32DB"/>
<rect x="1.25754" y="43.0151" width="1.25758" height="1.25758" fill="#1F32DB"/>
<rect x="1.25754" y="44.2729" width="1.25758" height="1.25758" fill="#1F32DB"/>
<rect x="1.25754" y="45.5308" width="1.25758" height="1.25758" fill="#1F32DB"/>
<rect y="46.7881" width="1.25758" height="1.25758" fill="#1F32DB"/>
<rect x="2.51508" y="46.7881" width="1.25758" height="1.25758" fill="#1F32DB"/>
<rect x="2.51508" y="48.0459" width="1.25758" height="1.25758" fill="#1F32DB"/>
<rect x="2.51508" y="49.3032" width="1.25758" height="1.25758" fill="#1F32DB"/>
<rect x="2.51508" y="50.561" width="1.25758" height="1.25758" fill="#1F32DB"/>
<rect x="1.25754" y="51.8184" width="1.25758" height="1.25758" fill="#1F32DB"/>
<rect x="3.77261" y="51.8184" width="1.25758" height="1.25758" fill="#1F32DB"/>
<rect x="3.77261" y="53.0762" width="1.25758" height="1.25758" fill="#1F32DB"/>
<rect x="3.77261" y="54.3335" width="1.25758" height="1.25758" fill="#1F32DB"/>
<rect x="2.51508" y="55.5913" width="1.25758" height="1.25758" fill="#1F32DB"/>
<rect x="5.03015" y="55.5913" width="1.25758" height="1.25758" fill="#1F32DB"/>
<rect x="5.03015" y="56.8486" width="1.25758" height="1.25758" fill="#1F32DB"/>
<rect x="3.77261" y="58.1064" width="1.25758" height="1.25758" fill="#1F32DB"/>
<rect x="6.28796" y="58.1064" width="1.25758" height="1.25758" fill="#1F32DB"/>
<rect x="6.28796" y="59.3638" width="1.25758" height="1.25758" fill="#1F32DB"/>
<rect x="5.03015" y="60.6216" width="1.25758" height="1.25758" fill="#1F32DB"/>
<rect x="7.5455" y="60.6216" width="1.25758" height="1.25758" fill="#1F32DB"/>
<rect x="7.5455" y="61.8789" width="1.25758" height="1.25758" fill="#1F32DB"/>
<rect x="6.28796" y="63.1367" width="1.25758" height="1.25758" fill="#1F32DB"/>
<rect x="8.80304" y="63.1367" width="1.25758" height="1.25758" fill="#1F32DB"/>
<rect x="7.5455" y="64.394" width="1.25758" height="1.25758" fill="#1F32DB"/>
<rect x="10.0606" y="64.394" width="1.25758" height="1.25758" fill="#1F32DB"/>
<rect x="8.80304" y="65.6519" width="1.25758" height="1.25758" fill="#1F32DB"/>
<rect x="11.3184" y="65.6519" width="1.25758" height="1.25758" fill="#1F32DB"/>
<rect x="11.3184" y="66.9092" width="1.25758" height="1.25758" fill="#1F32DB"/>
<rect x="10.0606" y="68.167" width="1.25758" height="1.25758" fill="#1F32DB"/>
<rect x="12.5759" y="68.167" width="1.25758" height="1.25758" fill="#1F32DB"/>
<rect x="11.3184" y="69.4243" width="1.25758" height="1.25758" fill="#1F32DB"/>
<rect x="13.8332" y="70.6821" width="1.25758" height="1.25758" fill="#1F32DB"/>
<rect x="12.5759" y="70.6821" width="1.25758" height="1.25758" fill="#1F32DB"/>
<rect x="16.3485" y="70.6821" width="1.25758" height="1.25758" fill="#1F32DB"/>
<rect x="15.091" y="71.9395" width="1.25758" height="1.25758" fill="#1F32DB"/>
<rect x="17.6061" y="71.9395" width="1.25758" height="1.25758" fill="#1F32DB"/>
<rect x="16.3485" y="73.1973" width="1.25758" height="1.25758" fill="#1F32DB"/>
<rect x="18.8636" y="74.4546" width="1.25758" height="1.25758" fill="#1F32DB"/>
<rect x="17.6061" y="74.4546" width="1.25758" height="1.25758" fill="#1F32DB"/>
<rect x="20.1212" y="73.1973" width="1.25758" height="1.25758" fill="#1F32DB"/>
<rect x="21.3787" y="74.4546" width="1.25758" height="1.25758" fill="#1F32DB"/>
<rect x="20.1212" y="75.7124" width="1.25758" height="1.25758" fill="#1F32DB"/>
<rect x="23.894" y="75.7124" width="1.25758" height="1.25758" fill="#1F32DB"/>
<rect x="22.6365" y="76.9697" width="1.25758" height="1.25758" fill="#1F32DB"/>
<rect x="26.4091" y="78.2275" width="1.25758" height="1.25758" fill="#1F32DB"/>
<rect x="25.1516" y="78.2275" width="1.25758" height="1.25758" fill="#1F32DB"/>
<rect x="30.1817" y="79.4854" width="1.25758" height="1.25758" fill="#1F32DB"/>
<rect x="28.9242" y="79.4854" width="1.25758" height="1.25758" fill="#1F32DB"/>
<rect x="35.2122" y="80.7427" width="1.25758" height="1.25758" fill="#1F32DB"/>
<rect x="33.9546" y="80.7427" width="1.25758" height="1.25758" fill="#1F32DB"/>
<rect x="15.091" y="69.4243" width="1.25758" height="1.25758" fill="#1F32DB"/>
<rect x="21.3787" y="76.9697" width="1.25758" height="1.25758" fill="#1F32DB"/>
<rect x="23.894" y="78.2275" width="1.25758" height="1.25758" fill="#1F32DB"/>
<rect x="27.6667" y="76.9697" width="1.25758" height="1.25758" fill="#1F32DB"/>
<rect x="27.6667" y="79.4854" width="1.25758" height="1.25758" fill="#1F32DB"/>
<rect x="31.4393" y="78.2275" width="1.25758" height="1.25758" fill="#1F32DB"/>
<rect x="32.6971" y="80.7427" width="1.25758" height="1.25758" fill="#1F32DB"/>
<rect x="31.4393" y="80.7427" width="1.25758" height="1.25758" fill="#1F32DB"/>
<rect x="36.4697" y="80.7427" width="1.25758" height="1.25758" fill="#1F32DB"/>
<rect x="37.7272" y="80.7427" width="1.25758" height="1.25758" fill="#1F32DB"/>
<rect x="38.9848" y="80.7427" width="1.25758" height="1.25758" fill="#1F32DB"/>
<rect x="37.7272" y="1.51514" width="1.25758" height="1.25758" fill="#1F32DB"/>
<rect x="36.4697" y="1.51514" width="1.25758" height="1.25758" fill="#1F32DB"/>
<rect x="30.1817" y="2.77295" width="1.25758" height="1.25758" fill="#1F32DB"/>
<rect x="28.9242" y="2.77295" width="1.25758" height="1.25758" fill="#1F32DB"/>
<rect x="26.4091" y="4.03076" width="1.25758" height="1.25758" fill="#1F32DB"/>
<rect x="25.1516" y="4.03076" width="1.25758" height="1.25758" fill="#1F32DB"/>
<rect x="23.894" y="5.28809" width="1.25758" height="1.25758" fill="#1F32DB"/>
<rect x="22.6365" y="5.28809" width="1.25758" height="1.25758" fill="#1F32DB"/>
<rect x="21.3787" y="6.54541" width="1.25758" height="1.25758" fill="#1F32DB"/>
<rect x="20.1212" y="6.54541" width="1.25758" height="1.25758" fill="#1F32DB"/>
<rect x="20.1212" y="7.80322" width="1.25758" height="1.25758" fill="#1F32DB"/>
<rect x="18.8636" y="7.80322" width="1.25758" height="1.25758" fill="#1F32DB"/>
<rect x="17.6061" y="7.80322" width="1.25758" height="1.25758" fill="#1F32DB"/>
<rect x="17.6061" y="9.06104" width="1.25758" height="1.25758" fill="#1F32DB"/>
<rect x="16.3485" y="9.06104" width="1.25758" height="1.25758" fill="#1F32DB"/>
<rect x="16.3485" y="10.3184" width="1.25758" height="1.25758" fill="#1F32DB"/>
<rect x="15.091" y="10.3184" width="1.25758" height="1.25758" fill="#1F32DB"/>
<rect x="13.8332" y="9.06104" width="1.25758" height="1.25758" fill="#1F32DB"/>
<rect x="15.091" y="11.5762" width="1.25758" height="1.25758" fill="#1F32DB"/>
<rect x="13.8332" y="11.5762" width="1.25758" height="1.25758" fill="#1F32DB"/>
<rect x="13.8332" y="12.8335" width="1.25758" height="1.25758" fill="#1F32DB"/>
<rect x="12.5759" y="12.8335" width="1.25758" height="1.25758" fill="#1F32DB"/>
<rect x="12.5759" y="14.0913" width="1.25758" height="1.25758" fill="#1F32DB"/>
<rect x="11.3184" y="14.0913" width="1.25758" height="1.25758" fill="#1F32DB"/>
<rect x="11.3184" y="15.3486" width="1.25758" height="1.25758" fill="#1F32DB"/>
<rect x="10.0606" y="15.3486" width="1.25758" height="1.25758" fill="#1F32DB"/>
<rect x="10.0606" y="16.6064" width="1.25758" height="1.25758" fill="#1F32DB"/>
<rect x="8.80304" y="16.6064" width="1.25758" height="1.25758" fill="#1F32DB"/>
<rect x="8.80304" y="17.8638" width="1.25758" height="1.25758" fill="#1F32DB"/>
<rect x="7.5455" y="17.8638" width="1.25758" height="1.25758" fill="#1F32DB"/>
<rect x="7.5455" y="19.1216" width="1.25758" height="1.25758" fill="#1F32DB"/>
<rect x="7.5455" y="20.3789" width="1.25758" height="1.25758" fill="#1F32DB"/>
<rect x="6.28796" y="20.3789" width="1.25758" height="1.25758" fill="#1F32DB"/>
<rect x="5.03015" y="19.1216" width="1.25758" height="1.25758" fill="#1F32DB"/>
<rect x="6.28796" y="21.6367" width="1.25758" height="1.25758" fill="#1F32DB"/>
<rect x="6.28796" y="22.894" width="1.25758" height="1.25758" fill="#1F32DB"/>
<rect x="5.03015" y="22.894" width="1.25758" height="1.25758" fill="#1F32DB"/>
<rect x="5.03015" y="24.1519" width="1.25758" height="1.25758" fill="#1F32DB"/>
<rect x="5.03015" y="25.4092" width="1.25758" height="1.25758" fill="#1F32DB"/>
<rect x="3.77261" y="25.4092" width="1.25758" height="1.25758" fill="#1F32DB"/>
<rect x="3.77261" y="26.667" width="1.25758" height="1.25758" fill="#1F32DB"/>
<rect x="3.77261" y="27.9243" width="1.25758" height="1.25758" fill="#1F32DB"/>
<rect x="3.77261" y="29.1821" width="1.25758" height="1.25758" fill="#1F32DB"/>
<rect x="2.51508" y="29.1821" width="1.25758" height="1.25758" fill="#1F32DB"/>
<rect x="2.51508" y="30.4395" width="1.25758" height="1.25758" fill="#1F32DB"/>
<rect x="2.51508" y="31.6973" width="1.25758" height="1.25758" fill="#1F32DB"/>
<rect x="2.51508" y="32.9546" width="1.25758" height="1.25758" fill="#1F32DB"/>
<rect x="2.51508" y="34.2124" width="1.25758" height="1.25758" fill="#1F32DB"/>
<rect x="1.25754" y="34.2124" width="1.25758" height="1.25758" fill="#1F32DB"/>
<rect x="1.25754" y="35.4702" width="1.25758" height="1.25758" fill="#1F32DB"/>
<rect x="1.25754" y="36.7275" width="1.25758" height="1.25758" fill="#1F32DB"/>
<rect x="1.25754" y="37.9849" width="1.25758" height="1.25758" fill="#1F32DB"/>
<rect x="1.25754" y="39.2427" width="1.25758" height="1.25758" fill="#1F32DB"/>
<rect x="22.6365" y="6.54541" width="1.25758" height="1.25758" fill="#1F32DB"/>
<rect x="25.1516" y="5.28809" width="1.25758" height="1.25758" fill="#1F32DB"/>
<rect x="27.6667" y="2.77295" width="1.25758" height="1.25758" fill="#1F32DB"/>
<rect x="27.6667" y="4.03076" width="1.25758" height="1.25758" fill="#1F32DB"/>
<rect x="31.4393" y="2.77295" width="1.25758" height="1.25758" fill="#1F32DB"/>
<rect x="32.6971" y="1.51514" width="1.25758" height="1.25758" fill="#1F32DB"/>
<rect x="32.6971" y="2.77295" width="1.25758" height="1.25758" fill="#1F32DB"/>
<rect x="33.9546" y="1.51514" width="1.25758" height="1.25758" fill="#1F32DB"/>
<rect x="35.2122" y="1.51514" width="1.25758" height="1.25758" fill="#1F32DB"/>
<rect x="38.9848" y="1.51514" width="1.25758" height="1.25758" fill="#1F32DB"/>
<rect x="40.2423" y="1.51514" width="1.25758" height="1.25758" fill="#1F32DB"/>
<rect x="41.5001" y="1.51514" width="1.25758" height="1.25758" fill="#1F32DB"/>
<rect x="45.2727" y="1.51514" width="1.25758" height="1.25758" fill="#1F32DB"/>
<rect x="44.0152" y="1.51514" width="1.25758" height="1.25758" fill="#1F32DB"/>
<rect x="51.5607" y="2.77295" width="1.25758" height="1.25758" fill="#1F32DB"/>
<rect x="50.3032" y="2.77295" width="1.25758" height="1.25758" fill="#1F32DB"/>
<rect x="55.3333" y="4.03076" width="1.25758" height="1.25758" fill="#1F32DB"/>
<rect x="54.0758" y="4.03076" width="1.25758" height="1.25758" fill="#1F32DB"/>
<rect x="59.1059" y="4.03076" width="1.25758" height="1.25758" fill="#1F32DB"/>
<rect x="57.8484" y="5.28809" width="1.25758" height="1.25758" fill="#1F32DB"/>
<rect x="61.6213" y="5.28809" width="1.25758" height="1.25758" fill="#1F32DB"/>
<rect x="60.3637" y="6.54541" width="1.25758" height="1.25758" fill="#1F32DB"/>
<rect x="62.8788" y="7.80322" width="1.25758" height="1.25758" fill="#1F32DB"/>
<rect x="61.6213" y="7.80322" width="1.25758" height="1.25758" fill="#1F32DB"/>
<rect x="65.3939" y="7.80322" width="1.25758" height="1.25758" fill="#1F32DB"/>
<rect x="64.1363" y="9.06104" width="1.25758" height="1.25758" fill="#1F32DB"/>
<rect x="66.6514" y="9.06104" width="1.25758" height="1.25758" fill="#1F32DB"/>
<rect x="65.3939" y="10.3184" width="1.25758" height="1.25758" fill="#1F32DB"/>
<rect x="67.9092" y="10.3184" width="1.25758" height="1.25758" fill="#1F32DB"/>
<rect x="66.6514" y="11.5762" width="1.25758" height="1.25758" fill="#1F32DB"/>
<rect x="69.1665" y="11.5762" width="1.25758" height="1.25758" fill="#1F32DB"/>
<rect x="67.9092" y="12.8335" width="1.25758" height="1.25758" fill="#1F32DB"/>
<rect x="70.424" y="12.8335" width="1.25758" height="1.25758" fill="#1F32DB"/>
<rect x="69.1665" y="14.0913" width="1.25758" height="1.25758" fill="#1F32DB"/>
<rect x="71.6818" y="14.0913" width="1.25758" height="1.25758" fill="#1F32DB"/>
<rect x="70.424" y="15.3486" width="1.25758" height="1.25758" fill="#1F32DB"/>
<rect x="72.9394" y="15.3486" width="1.25758" height="1.25758" fill="#1F32DB"/>
<rect x="71.6818" y="16.6064" width="1.25758" height="1.25758" fill="#1F32DB"/>
<rect x="74.1969" y="16.6064" width="1.25758" height="1.25758" fill="#1F32DB"/>
<rect x="74.1969" y="17.8638" width="1.25758" height="1.25758" fill="#1F32DB"/>
<rect x="72.9394" y="19.1216" width="1.25758" height="1.25758" fill="#1F32DB"/>
<rect x="75.4545" y="19.1216" width="1.25758" height="1.25758" fill="#1F32DB"/>
<rect x="74.1969" y="20.3789" width="1.25758" height="1.25758" fill="#1F32DB"/>
<rect x="76.7123" y="20.3789" width="1.25758" height="1.25758" fill="#1F32DB"/>
<rect x="76.7123" y="21.6367" width="1.25758" height="1.25758" fill="#1F32DB"/>
<rect x="75.4545" y="22.894" width="1.25758" height="1.25758" fill="#1F32DB"/>
<rect x="77.9698" y="22.894" width="1.25758" height="1.25758" fill="#1F32DB"/>
<rect x="77.9698" y="24.1519" width="1.25758" height="1.25758" fill="#1F32DB"/>
<rect x="77.9698" y="25.4092" width="1.25758" height="1.25758" fill="#1F32DB"/>
<rect x="76.7123" y="26.667" width="1.25758" height="1.25758" fill="#1F32DB"/>
<rect x="79.2273" y="26.667" width="1.25758" height="1.25758" fill="#1F32DB"/>
<rect x="79.2273" y="27.9243" width="1.25758" height="1.25758" fill="#1F32DB"/>
<rect x="79.2273" y="29.1821" width="1.25758" height="1.25758" fill="#1F32DB"/>
<rect x="77.9698" y="30.4395" width="1.25758" height="1.25758" fill="#1F32DB"/>
<rect x="80.4849" y="30.4395" width="1.25758" height="1.25758" fill="#1F32DB"/>
<rect x="80.4849" y="31.6973" width="1.25758" height="1.25758" fill="#1F32DB"/>
<rect x="80.4849" y="32.9546" width="1.25758" height="1.25758" fill="#1F32DB"/>
<rect x="80.4849" y="34.2124" width="1.25758" height="1.25758" fill="#1F32DB"/>
<rect x="80.4849" y="35.4702" width="1.25758" height="1.25758" fill="#1F32DB"/>
<rect x="79.2273" y="36.7275" width="1.25758" height="1.25758" fill="#1F32DB"/>
<rect x="81.7424" y="36.7275" width="1.25758" height="1.25758" fill="#1F32DB"/>
<rect x="81.7424" y="37.9849" width="1.25758" height="1.25758" fill="#1F32DB"/>
<rect x="81.7424" y="39.2427" width="1.25758" height="1.25758" fill="#1F32DB"/>
<rect x="42.7577" y="1.51514" width="1.25758" height="1.25758" fill="#1F32DB"/>
<rect x="46.5303" y="1.51514" width="1.25758" height="1.25758" fill="#1F32DB"/>
<rect x="47.7878" y="1.51514" width="1.25758" height="1.25758" fill="#1F32DB"/>
<rect x="49.0453" y="0.257812" width="1.25758" height="1.25758" fill="#1F32DB"/>
<rect x="49.0453" y="2.77295" width="1.25758" height="1.25758" fill="#1F32DB"/>
<rect x="52.8182" y="2.77295" width="1.25758" height="1.25758" fill="#1F32DB"/>
<rect x="54.0758" y="1.51514" width="1.25758" height="1.25758" fill="#1F32DB"/>
<rect x="56.5908" y="2.77295" width="1.25758" height="1.25758" fill="#1F32DB"/>
<rect x="56.5908" y="5.28809" width="1.25758" height="1.25758" fill="#1F32DB"/>
<rect x="59.1059" y="6.54541" width="1.25758" height="1.25758" fill="#1F32DB"/>
<rect x="64.1363" y="6.54541" width="1.25758" height="1.25758" fill="#1F32DB"/>
</svg>
