<svg width="1044" height="84" viewBox="0 0 1044 84" fill="none" xmlns="http://www.w3.org/2000/svg">
<path d="M12 84V72H0V60H24V72H60V48H12V36H0V0H24V36H60V0H84V72H72V84H12ZM132 36V48H120V84H96V24H120V36H132ZM180 24V84H156V48H144V36H156V24H180ZM132 48H144V72H132V48ZM192 84V24H216V48H252V24H276V84H252V60H216V84H192ZM288 84V24H312V48H336V84H288ZM348 84V24H372V84H348ZM312 72H324V60H312V72ZM456 0V12H396V0H456ZM408 60H420V72H408V84H384V24H408V60ZM468 24V84H444V48H432V36H444V24H468ZM420 48H432V60H420V48ZM576 84V24H660V84H636V36H600V84H576ZM684 84V72H672V36H684V24H744V36H756V72H744V84H684ZM696 72H732V36H696V72ZM792 60H804V72H792V84H768V24H792V60ZM852 24V84H828V48H816V36H828V24H852ZM804 48H816V60H804V48ZM876 84V72H864V36H876V24H936V36H948V48H924V36H888V72H924V60H948V72H936V84H876ZM1008 36H1020V48H1032V60H1044V84H1020V60H984V84H960V24H984V48H1008V36ZM1044 24V36H1020V24H1044Z" fill="black"/>
</svg>
