<svg width="642" height="54" viewBox="0 0 642 54" fill="none" xmlns="http://www.w3.org/2000/svg">
<path d="M10 5.5H631C635.694 5.5 639.5 9.30558 639.5 14V42C639.5 46.6944 635.694 50.5 631 50.5H10C5.30559 50.5 1.5 46.6944 1.5 42V14C1.5 9.30558 5.30558 5.5 10 5.5Z" fill="#F2F2F7" stroke="#DFDFDF"/>
<rect x="12" width="6" height="6" fill="#DFDFDF"/>
<rect x="18" width="6" height="6" fill="#DFDFDF"/>
<rect x="24" width="6" height="6" fill="#DFDFDF"/>
<rect x="30" width="6" height="6" fill="#DFDFDF"/>
<rect x="36" width="6" height="6" fill="#DFDFDF"/>
<rect x="42" width="6" height="6" fill="#DFDFDF"/>
<rect x="48" width="6" height="6" fill="#DFDFDF"/>
<rect x="54" width="6" height="6" fill="#DFDFDF"/>
<rect x="60" width="6" height="6" fill="#DFDFDF"/>
<rect x="66" width="6" height="6" fill="#DFDFDF"/>
<rect x="72" width="6" height="6" fill="#DFDFDF"/>
<rect x="78" width="6" height="6" fill="#DFDFDF"/>
<rect x="84" width="6" height="6" fill="#DFDFDF"/>
<rect x="90" width="6" height="6" fill="#DFDFDF"/>
<rect x="96" width="6" height="6" fill="#DFDFDF"/>
<rect x="102" width="6" height="6" fill="#DFDFDF"/>
<rect x="108" width="6" height="6" fill="#DFDFDF"/>
<rect x="114" width="6" height="6" fill="#DFDFDF"/>
<rect x="120" width="6" height="6" fill="#DFDFDF"/>
<rect x="126" width="6" height="6" fill="#DFDFDF"/>
<rect x="132" width="6" height="6" fill="#DFDFDF"/>
<rect x="138" width="6" height="6" fill="#DFDFDF"/>
<rect x="144" width="6" height="6" fill="#DFDFDF"/>
<rect x="150" width="6" height="6" fill="#DFDFDF"/>
<rect x="156" width="6" height="6" fill="#DFDFDF"/>
<rect x="162" width="6" height="6" fill="#DFDFDF"/>
<rect x="168" width="6" height="6" fill="#DFDFDF"/>
<rect x="174" width="6" height="6" fill="#DFDFDF"/>
<rect x="180" width="6" height="6" fill="#DFDFDF"/>
<rect x="186" width="6" height="6" fill="#DFDFDF"/>
<rect x="192" width="6" height="6" fill="#DFDFDF"/>
<rect x="198" width="6" height="6" fill="#DFDFDF"/>
<rect x="204" width="6" height="6" fill="#DFDFDF"/>
<rect x="210" width="6" height="6" fill="#DFDFDF"/>
<rect x="216" width="6" height="6" fill="#DFDFDF"/>
<rect x="222" width="6" height="6" fill="#DFDFDF"/>
<rect x="228" width="6" height="6" fill="#DFDFDF"/>
<rect x="234" width="6" height="6" fill="#DFDFDF"/>
<rect x="240" width="6" height="6" fill="#DFDFDF"/>
<rect x="246" width="6" height="6" fill="#DFDFDF"/>
<rect x="252" width="6" height="6" fill="#DFDFDF"/>
<rect x="258" width="6" height="6" fill="#DFDFDF"/>
<rect x="264" width="6" height="6" fill="#DFDFDF"/>
<rect x="270" width="6" height="6" fill="#DFDFDF"/>
<rect x="276" width="6" height="6" fill="#DFDFDF"/>
<rect x="282" width="6" height="6" fill="#DFDFDF"/>
<rect x="288" width="6" height="6" fill="#DFDFDF"/>
<rect x="294" width="6" height="6" fill="#DFDFDF"/>
<rect x="300" width="6" height="6" fill="#DFDFDF"/>
<rect x="306" width="6" height="6" fill="#DFDFDF"/>
<rect x="312" width="6" height="6" fill="#DFDFDF"/>
<rect x="318" width="6" height="6" fill="#DFDFDF"/>
<rect x="324" width="6" height="6" fill="#DFDFDF"/>
<rect x="330" width="6" height="6" fill="#DFDFDF"/>
<rect x="336" width="6" height="6" fill="#DFDFDF"/>
<rect x="342" width="6" height="6" fill="#DFDFDF"/>
<rect x="348" width="6" height="6" fill="#DFDFDF"/>
<rect x="354" width="6" height="6" fill="#DFDFDF"/>
<rect x="360" width="6" height="6" fill="#DFDFDF"/>
<rect x="366" width="6" height="6" fill="#DFDFDF"/>
<rect x="372" width="6" height="6" fill="#DFDFDF"/>
<rect x="378" width="6" height="6" fill="#DFDFDF"/>
<rect x="384" width="6" height="6" fill="#DFDFDF"/>
<rect x="390" width="6" height="6" fill="#DFDFDF"/>
<rect x="396" width="6" height="6" fill="#DFDFDF"/>
<rect x="402" width="6" height="6" fill="#DFDFDF"/>
<rect x="408" width="6" height="6" fill="#DFDFDF"/>
<rect x="414" width="6" height="6" fill="#DFDFDF"/>
<rect x="420" width="6" height="6" fill="#DFDFDF"/>
<rect x="426" width="6" height="6" fill="#DFDFDF"/>
<rect x="432" width="6" height="6" fill="#DFDFDF"/>
<rect x="438" width="6" height="6" fill="#DFDFDF"/>
<rect x="444" width="6" height="6" fill="#DFDFDF"/>
<rect x="450" width="6" height="6" fill="#DFDFDF"/>
<rect x="456" width="6" height="6" fill="#DFDFDF"/>
<rect x="462" width="6" height="6" fill="#DFDFDF"/>
<rect x="468" width="6" height="6" fill="#DFDFDF"/>
<rect x="474" width="6" height="6" fill="#DFDFDF"/>
<rect x="480" width="6" height="6" fill="#DFDFDF"/>
<rect x="486" width="6" height="6" fill="#DFDFDF"/>
<rect x="492" width="6" height="6" fill="#DFDFDF"/>
<rect x="498" width="6" height="6" fill="#DFDFDF"/>
<rect x="504" width="6" height="6" fill="#DFDFDF"/>
<rect x="510" width="6" height="6" fill="#DFDFDF"/>
<rect x="516" width="6" height="6" fill="#DFDFDF"/>
<rect x="522" width="6" height="6" fill="#DFDFDF"/>
<rect x="528" width="6" height="6" fill="#DFDFDF"/>
<rect x="534" width="6" height="6" fill="#DFDFDF"/>
<rect x="540" width="6" height="6" fill="#DFDFDF"/>
<rect x="546" width="6" height="6" fill="#DFDFDF"/>
<rect x="552" width="6" height="6" fill="#DFDFDF"/>
<rect x="558" width="6" height="6" fill="#DFDFDF"/>
<rect x="564" width="6" height="6" fill="#DFDFDF"/>
<rect x="570" width="6" height="6" fill="#DFDFDF"/>
<rect x="576" width="6" height="6" fill="#DFDFDF"/>
<rect x="582" width="6" height="6" fill="#DFDFDF"/>
<rect x="588" width="6" height="6" fill="#DFDFDF"/>
<rect x="594" width="6" height="6" fill="#DFDFDF"/>
<rect x="600" width="6" height="6" fill="#DFDFDF"/>
<rect x="606" width="6" height="6" fill="#DFDFDF"/>
<rect x="612" width="6" height="6" fill="#DFDFDF"/>
<rect x="618" width="6" height="6" fill="#DFDFDF"/>
<rect x="624" width="6" height="6" fill="#DFDFDF"/>
<rect x="6" width="6" height="6" fill="#DFDFDF"/>
<rect x="630" width="6" height="6" fill="#DFDFDF"/>
<rect x="636" y="12" width="6" height="6" fill="#DFDFDF"/>
<rect x="636" y="18" width="6" height="6" fill="#DFDFDF"/>
<rect x="636" y="24" width="6" height="6" fill="#DFDFDF"/>
<rect x="636" y="30" width="6" height="6" fill="#DFDFDF"/>
<rect x="636" y="36" width="6" height="6" fill="#DFDFDF"/>
<rect x="636" y="42" width="6" height="6" fill="#DFDFDF"/>
<rect x="12" y="48" width="6" height="6" fill="#DFDFDF"/>
<rect x="18" y="48" width="6" height="6" fill="#DFDFDF"/>
<rect x="24" y="48" width="6" height="6" fill="#DFDFDF"/>
<rect x="30" y="48" width="6" height="6" fill="#DFDFDF"/>
<rect x="36" y="48" width="6" height="6" fill="#DFDFDF"/>
<rect x="42" y="48" width="6" height="6" fill="#DFDFDF"/>
<rect x="48" y="48" width="6" height="6" fill="#DFDFDF"/>
<rect x="54" y="48" width="6" height="6" fill="#DFDFDF"/>
<rect x="60" y="48" width="6" height="6" fill="#DFDFDF"/>
<rect x="66" y="48" width="6" height="6" fill="#DFDFDF"/>
<rect x="72" y="48" width="6" height="6" fill="#DFDFDF"/>
<rect x="78" y="48" width="6" height="6" fill="#DFDFDF"/>
<rect x="84" y="48" width="6" height="6" fill="#DFDFDF"/>
<rect x="90" y="48" width="6" height="6" fill="#DFDFDF"/>
<rect x="96" y="48" width="6" height="6" fill="#DFDFDF"/>
<rect x="102" y="48" width="6" height="6" fill="#DFDFDF"/>
<rect x="108" y="48" width="6" height="6" fill="#DFDFDF"/>
<rect x="114" y="48" width="6" height="6" fill="#DFDFDF"/>
<rect x="120" y="48" width="6" height="6" fill="#DFDFDF"/>
<rect x="126" y="48" width="6" height="6" fill="#DFDFDF"/>
<rect x="132" y="48" width="6" height="6" fill="#DFDFDF"/>
<rect x="138" y="48" width="6" height="6" fill="#DFDFDF"/>
<rect x="144" y="48" width="6" height="6" fill="#DFDFDF"/>
<rect x="150" y="48" width="6" height="6" fill="#DFDFDF"/>
<rect x="156" y="48" width="6" height="6" fill="#DFDFDF"/>
<rect x="162" y="48" width="6" height="6" fill="#DFDFDF"/>
<rect x="168" y="48" width="6" height="6" fill="#DFDFDF"/>
<rect x="174" y="48" width="6" height="6" fill="#DFDFDF"/>
<rect x="180" y="48" width="6" height="6" fill="#DFDFDF"/>
<rect x="186" y="48" width="6" height="6" fill="#DFDFDF"/>
<rect x="192" y="48" width="6" height="6" fill="#DFDFDF"/>
<rect x="198" y="48" width="6" height="6" fill="#DFDFDF"/>
<rect x="204" y="48" width="6" height="6" fill="#DFDFDF"/>
<rect x="210" y="48" width="6" height="6" fill="#DFDFDF"/>
<rect x="216" y="48" width="6" height="6" fill="#DFDFDF"/>
<rect x="222" y="48" width="6" height="6" fill="#DFDFDF"/>
<rect x="228" y="48" width="6" height="6" fill="#DFDFDF"/>
<rect x="234" y="48" width="6" height="6" fill="#DFDFDF"/>
<rect x="240" y="48" width="6" height="6" fill="#DFDFDF"/>
<rect x="246" y="48" width="6" height="6" fill="#DFDFDF"/>
<rect x="252" y="48" width="6" height="6" fill="#DFDFDF"/>
<rect x="258" y="48" width="6" height="6" fill="#DFDFDF"/>
<rect x="264" y="48" width="6" height="6" fill="#DFDFDF"/>
<rect x="270" y="48" width="6" height="6" fill="#DFDFDF"/>
<rect x="276" y="48" width="6" height="6" fill="#DFDFDF"/>
<rect x="282" y="48" width="6" height="6" fill="#DFDFDF"/>
<rect x="288" y="48" width="6" height="6" fill="#DFDFDF"/>
<rect x="294" y="48" width="6" height="6" fill="#DFDFDF"/>
<rect x="300" y="48" width="6" height="6" fill="#DFDFDF"/>
<rect x="306" y="48" width="6" height="6" fill="#DFDFDF"/>
<rect x="312" y="48" width="6" height="6" fill="#DFDFDF"/>
<rect x="318" y="48" width="6" height="6" fill="#DFDFDF"/>
<rect x="324" y="48" width="6" height="6" fill="#DFDFDF"/>
<rect x="330" y="48" width="6" height="6" fill="#DFDFDF"/>
<rect x="336" y="48" width="6" height="6" fill="#DFDFDF"/>
<rect x="342" y="48" width="6" height="6" fill="#DFDFDF"/>
<rect x="348" y="48" width="6" height="6" fill="#DFDFDF"/>
<rect x="354" y="48" width="6" height="6" fill="#DFDFDF"/>
<rect x="360" y="48" width="6" height="6" fill="#DFDFDF"/>
<rect x="366" y="48" width="6" height="6" fill="#DFDFDF"/>
<rect x="372" y="48" width="6" height="6" fill="#DFDFDF"/>
<rect x="378" y="48" width="6" height="6" fill="#DFDFDF"/>
<rect x="384" y="48" width="6" height="6" fill="#DFDFDF"/>
<rect x="390" y="48" width="6" height="6" fill="#DFDFDF"/>
<rect x="396" y="48" width="6" height="6" fill="#DFDFDF"/>
<rect x="402" y="48" width="6" height="6" fill="#DFDFDF"/>
<rect x="408" y="48" width="6" height="6" fill="#DFDFDF"/>
<rect x="414" y="48" width="6" height="6" fill="#DFDFDF"/>
<rect x="420" y="48" width="6" height="6" fill="#DFDFDF"/>
<rect x="426" y="48" width="6" height="6" fill="#DFDFDF"/>
<rect x="432" y="48" width="6" height="6" fill="#DFDFDF"/>
<rect x="438" y="48" width="6" height="6" fill="#DFDFDF"/>
<rect x="444" y="48" width="6" height="6" fill="#DFDFDF"/>
<rect x="450" y="48" width="6" height="6" fill="#DFDFDF"/>
<rect x="456" y="48" width="6" height="6" fill="#DFDFDF"/>
<rect x="462" y="48" width="6" height="6" fill="#DFDFDF"/>
<rect x="468" y="48" width="6" height="6" fill="#DFDFDF"/>
<rect x="474" y="48" width="6" height="6" fill="#DFDFDF"/>
<rect x="480" y="48" width="6" height="6" fill="#DFDFDF"/>
<rect x="486" y="48" width="6" height="6" fill="#DFDFDF"/>
<rect x="492" y="48" width="6" height="6" fill="#DFDFDF"/>
<rect x="498" y="48" width="6" height="6" fill="#DFDFDF"/>
<rect x="504" y="48" width="6" height="6" fill="#DFDFDF"/>
<rect x="510" y="48" width="6" height="6" fill="#DFDFDF"/>
<rect x="516" y="48" width="6" height="6" fill="#DFDFDF"/>
<rect x="522" y="48" width="6" height="6" fill="#DFDFDF"/>
<rect x="528" y="48" width="6" height="6" fill="#DFDFDF"/>
<rect x="534" y="48" width="6" height="6" fill="#DFDFDF"/>
<rect x="540" y="48" width="6" height="6" fill="#DFDFDF"/>
<rect x="546" y="48" width="6" height="6" fill="#DFDFDF"/>
<rect x="552" y="48" width="6" height="6" fill="#DFDFDF"/>
<rect x="558" y="48" width="6" height="6" fill="#DFDFDF"/>
<rect x="564" y="48" width="6" height="6" fill="#DFDFDF"/>
<rect x="570" y="48" width="6" height="6" fill="#DFDFDF"/>
<rect x="576" y="48" width="6" height="6" fill="#DFDFDF"/>
<rect x="582" y="48" width="6" height="6" fill="#DFDFDF"/>
<rect x="588" y="48" width="6" height="6" fill="#DFDFDF"/>
<rect x="594" y="48" width="6" height="6" fill="#DFDFDF"/>
<rect x="600" y="48" width="6" height="6" fill="#DFDFDF"/>
<rect x="606" y="48" width="6" height="6" fill="#DFDFDF"/>
<rect x="612" y="48" width="6" height="6" fill="#DFDFDF"/>
<rect x="618" y="48" width="6" height="6" fill="#DFDFDF"/>
<rect x="624" y="48" width="6" height="6" fill="#DFDFDF"/>
<rect x="630" y="48" width="6" height="6" fill="#DFDFDF"/>
<rect x="6" y="48" width="6" height="6" fill="#DFDFDF"/>
<rect y="12" width="6" height="6" fill="#DFDFDF"/>
<rect y="18" width="6" height="6" fill="#DFDFDF"/>
<rect y="24" width="6" height="6" fill="#DFDFDF"/>
<rect y="30" width="6" height="6" fill="#DFDFDF"/>
<rect y="36" width="6" height="6" fill="#DFDFDF"/>
<rect y="42" width="6" height="6" fill="#DFDFDF"/>
<rect x="636" y="6" width="6" height="6" fill="#DFDFDF"/>
<rect y="6" width="6" height="6" fill="#DFDFDF"/>
</svg>
