<svg width="640" height="175" viewBox="0 0 640 175" fill="none" xmlns="http://www.w3.org/2000/svg">
<g filter="url(#filter0_d_164_132054)">
<path d="M23 52.5966C23 34.9769 43.5949 20.6934 69 20.6934H571C596.405 20.6934 617 34.9769 617 52.5966V113.629C617 131.249 596.405 145.532 571 145.532H69C43.5949 145.532 23 131.249 23 113.629V52.5966Z" fill="white"/>
<rect x="68" y="20" width="6" height="6" fill="white"/>
<rect x="74" y="20" width="6" height="6" fill="white"/>
<rect x="80" y="20" width="6" height="6" fill="white"/>
<rect x="86" y="20" width="6" height="6" fill="white"/>
<rect x="92" y="20" width="6" height="6" fill="white"/>
<rect x="98" y="20" width="6" height="6" fill="white"/>
<rect x="104" y="20" width="6" height="6" fill="white"/>
<rect x="110" y="20" width="6" height="6" fill="white"/>
<rect x="116" y="20" width="6" height="6" fill="white"/>
<rect x="122" y="20" width="6" height="6" fill="white"/>
<rect x="128" y="20" width="6" height="6" fill="white"/>
<rect x="134" y="20" width="6" height="6" fill="white"/>
<rect x="140" y="20" width="6" height="6" fill="white"/>
<rect x="146" y="20" width="6" height="6" fill="white"/>
<rect x="152" y="20" width="6" height="6" fill="white"/>
<rect x="158" y="20" width="6" height="6" fill="white"/>
<rect x="164" y="20" width="6" height="6" fill="white"/>
<rect x="170" y="20" width="6" height="6" fill="white"/>
<rect x="176" y="20" width="6" height="6" fill="white"/>
<rect x="182" y="20" width="6" height="6" fill="white"/>
<rect x="188" y="20" width="6" height="6" fill="white"/>
<rect x="194" y="20" width="6" height="6" fill="white"/>
<rect x="200" y="20" width="6" height="6" fill="white"/>
<rect x="206" y="20" width="6" height="6" fill="white"/>
<rect x="212" y="20" width="6" height="6" fill="white"/>
<rect x="218" y="20" width="6" height="6" fill="white"/>
<rect x="224" y="20" width="6" height="6" fill="white"/>
<rect x="230" y="20" width="6" height="6" fill="white"/>
<rect x="236" y="20" width="6" height="6" fill="white"/>
<rect x="242" y="20" width="6" height="6" fill="white"/>
<rect x="248" y="20" width="6" height="6" fill="white"/>
<rect x="254" y="20" width="6" height="6" fill="white"/>
<rect x="260" y="20" width="6" height="6" fill="white"/>
<rect x="266" y="20" width="6" height="6" fill="white"/>
<rect x="272" y="20" width="6" height="6" fill="white"/>
<rect x="278" y="20" width="6" height="6" fill="white"/>
<rect x="284" y="20" width="6" height="6" fill="white"/>
<rect x="290" y="20" width="6" height="6" fill="white"/>
<rect x="296" y="20" width="6" height="6" fill="white"/>
<rect x="302" y="20" width="6" height="6" fill="white"/>
<rect x="308" y="20" width="6" height="6" fill="white"/>
<rect x="314" y="20" width="6" height="6" fill="white"/>
<rect x="320" y="20" width="6" height="6" fill="white"/>
<rect x="326" y="20" width="6" height="6" fill="white"/>
<rect x="332" y="20" width="6" height="6" fill="white"/>
<rect x="338" y="20" width="6" height="6" fill="white"/>
<rect x="344" y="20" width="6" height="6" fill="white"/>
<rect x="350" y="20" width="6" height="6" fill="white"/>
<rect x="356" y="20" width="6" height="6" fill="white"/>
<rect x="362" y="20" width="6" height="6" fill="white"/>
<rect x="368" y="20" width="6" height="6" fill="white"/>
<rect x="374" y="20" width="6" height="6" fill="white"/>
<rect x="380" y="20" width="6" height="6" fill="white"/>
<rect x="386" y="20" width="6" height="6" fill="white"/>
<rect x="392" y="20" width="6" height="6" fill="white"/>
<rect x="398" y="20" width="6" height="6" fill="white"/>
<rect x="404" y="20" width="6" height="6" fill="white"/>
<rect x="410" y="20" width="6" height="6" fill="white"/>
<rect x="416" y="20" width="6" height="6" fill="white"/>
<rect x="422" y="20" width="6" height="6" fill="white"/>
<rect x="428" y="20" width="6" height="6" fill="white"/>
<rect x="434" y="20" width="6" height="6" fill="white"/>
<rect x="440" y="20" width="6" height="6" fill="white"/>
<rect x="446" y="20" width="6" height="6" fill="white"/>
<rect x="452" y="20" width="6" height="6" fill="white"/>
<rect x="458" y="20" width="6" height="6" fill="white"/>
<rect x="464" y="20" width="6" height="6" fill="white"/>
<rect x="470" y="20" width="6" height="6" fill="white"/>
<rect x="476" y="20" width="6" height="6" fill="white"/>
<rect x="482" y="20" width="6" height="6" fill="white"/>
<rect x="488" y="20" width="6" height="6" fill="white"/>
<rect x="494" y="20" width="6" height="6" fill="white"/>
<rect x="500" y="20" width="6" height="6" fill="white"/>
<rect x="506" y="20" width="6" height="6" fill="white"/>
<rect x="512" y="20" width="6" height="6" fill="white"/>
<rect x="518" y="20" width="6" height="6" fill="white"/>
<rect x="524" y="20" width="6" height="6" fill="white"/>
<rect x="530" y="20" width="6" height="6" fill="white"/>
<rect x="536" y="20" width="6" height="6" fill="white"/>
<rect x="542" y="20" width="6" height="6" fill="white"/>
<rect x="548" y="20" width="6" height="6" fill="white"/>
<rect x="554" y="20" width="6" height="6" fill="white"/>
<rect x="560" y="20" width="6" height="6" fill="white"/>
<rect x="566" y="20" width="6" height="6" fill="white"/>
<rect x="614" y="50" width="6" height="6" fill="white"/>
<rect x="614" y="56" width="6" height="6" fill="white"/>
<rect x="614" y="62" width="6" height="6" fill="white"/>
<rect x="614" y="68" width="6" height="6" fill="white"/>
<rect x="614" y="74" width="6" height="6" fill="white"/>
<rect x="614" y="80" width="6" height="6" fill="white"/>
<rect x="614" y="86" width="6" height="6" fill="white"/>
<rect x="614" y="92" width="6" height="6" fill="white"/>
<rect x="614" y="98" width="6" height="6" fill="white"/>
<rect x="614" y="104" width="6" height="6" fill="white"/>
<rect x="614" y="110" width="6" height="6" fill="white"/>
<rect x="68" y="140" width="6" height="6" fill="white"/>
<rect x="74" y="140" width="6" height="6" fill="white"/>
<rect x="80" y="140" width="6" height="6" fill="white"/>
<rect x="86" y="140" width="6" height="6" fill="white"/>
<rect x="92" y="140" width="6" height="6" fill="white"/>
<rect x="98" y="140" width="6" height="6" fill="white"/>
<rect x="104" y="140" width="6" height="6" fill="white"/>
<rect x="110" y="140" width="6" height="6" fill="white"/>
<rect x="116" y="140" width="6" height="6" fill="white"/>
<rect x="122" y="140" width="6" height="6" fill="white"/>
<rect x="128" y="140" width="6" height="6" fill="white"/>
<rect x="134" y="140" width="6" height="6" fill="white"/>
<rect x="140" y="140" width="6" height="6" fill="white"/>
<rect x="146" y="140" width="6" height="6" fill="white"/>
<rect x="152" y="140" width="6" height="6" fill="white"/>
<rect x="158" y="140" width="6" height="6" fill="white"/>
<rect x="164" y="140" width="6" height="6" fill="white"/>
<rect x="170" y="140" width="6" height="6" fill="white"/>
<rect x="176" y="140" width="6" height="6" fill="white"/>
<rect x="182" y="140" width="6" height="6" fill="white"/>
<rect x="188" y="140" width="6" height="6" fill="white"/>
<rect x="194" y="140" width="6" height="6" fill="white"/>
<rect x="200" y="140" width="6" height="6" fill="white"/>
<rect x="206" y="140" width="6" height="6" fill="white"/>
<rect x="212" y="140" width="6" height="6" fill="white"/>
<rect x="218" y="140" width="6" height="6" fill="white"/>
<rect x="224" y="140" width="6" height="6" fill="white"/>
<rect x="230" y="140" width="6" height="6" fill="white"/>
<rect x="236" y="140" width="6" height="6" fill="white"/>
<rect x="242" y="140" width="6" height="6" fill="white"/>
<rect x="248" y="140" width="6" height="6" fill="white"/>
<rect x="254" y="140" width="6" height="6" fill="white"/>
<rect x="260" y="140" width="6" height="6" fill="white"/>
<rect x="266" y="140" width="6" height="6" fill="white"/>
<rect x="272" y="140" width="6" height="6" fill="white"/>
<rect x="278" y="140" width="6" height="6" fill="white"/>
<rect x="284" y="140" width="6" height="6" fill="white"/>
<rect x="290" y="140" width="6" height="6" fill="white"/>
<rect x="296" y="140" width="6" height="6" fill="white"/>
<rect x="302" y="140" width="6" height="6" fill="white"/>
<rect x="308" y="140" width="6" height="6" fill="white"/>
<rect x="314" y="140" width="6" height="6" fill="white"/>
<rect x="320" y="140" width="6" height="6" fill="white"/>
<rect x="326" y="140" width="6" height="6" fill="white"/>
<rect x="332" y="140" width="6" height="6" fill="white"/>
<rect x="338" y="140" width="6" height="6" fill="white"/>
<rect x="344" y="140" width="6" height="6" fill="white"/>
<rect x="350" y="140" width="6" height="6" fill="white"/>
<rect x="356" y="140" width="6" height="6" fill="white"/>
<rect x="362" y="140" width="6" height="6" fill="white"/>
<rect x="368" y="140" width="6" height="6" fill="white"/>
<rect x="374" y="140" width="6" height="6" fill="white"/>
<rect x="380" y="140" width="6" height="6" fill="white"/>
<rect x="386" y="140" width="6" height="6" fill="white"/>
<rect x="392" y="140" width="6" height="6" fill="white"/>
<rect x="398" y="140" width="6" height="6" fill="white"/>
<rect x="404" y="140" width="6" height="6" fill="white"/>
<rect x="410" y="140" width="6" height="6" fill="white"/>
<rect x="416" y="140" width="6" height="6" fill="white"/>
<rect x="422" y="140" width="6" height="6" fill="white"/>
<rect x="428" y="140" width="6" height="6" fill="white"/>
<rect x="434" y="140" width="6" height="6" fill="white"/>
<rect x="440" y="140" width="6" height="6" fill="white"/>
<rect x="446" y="140" width="6" height="6" fill="white"/>
<rect x="452" y="140" width="6" height="6" fill="white"/>
<rect x="458" y="140" width="6" height="6" fill="white"/>
<rect x="464" y="140" width="6" height="6" fill="white"/>
<rect x="470" y="140" width="6" height="6" fill="white"/>
<rect x="476" y="140" width="6" height="6" fill="white"/>
<rect x="482" y="140" width="6" height="6" fill="white"/>
<rect x="488" y="140" width="6" height="6" fill="white"/>
<rect x="494" y="140" width="6" height="6" fill="white"/>
<rect x="500" y="140" width="6" height="6" fill="white"/>
<rect x="506" y="140" width="6" height="6" fill="white"/>
<rect x="512" y="140" width="6" height="6" fill="white"/>
<rect x="518" y="140" width="6" height="6" fill="white"/>
<rect x="524" y="140" width="6" height="6" fill="white"/>
<rect x="530" y="140" width="6" height="6" fill="white"/>
<rect x="536" y="140" width="6" height="6" fill="white"/>
<rect x="542" y="140" width="6" height="6" fill="white"/>
<rect x="548" y="140" width="6" height="6" fill="white"/>
<rect x="554" y="140" width="6" height="6" fill="white"/>
<rect x="560" y="140" width="6" height="6" fill="white"/>
<rect x="566" y="140" width="6" height="6" fill="white"/>
<rect x="20" y="50" width="6" height="6" fill="white"/>
<rect x="20" y="56" width="6" height="6" fill="white"/>
<rect x="20" y="62" width="6" height="6" fill="white"/>
<rect x="20" y="68" width="6" height="6" fill="white"/>
<rect x="20" y="74" width="6" height="6" fill="white"/>
<rect x="20" y="80" width="6" height="6" fill="white"/>
<rect x="20" y="86" width="6" height="6" fill="white"/>
<rect x="20" y="92" width="6" height="6" fill="white"/>
<rect x="20" y="98" width="6" height="6" fill="white"/>
<rect x="20" y="104" width="6" height="6" fill="white"/>
<rect x="20" y="110" width="6" height="6" fill="white"/>
<rect x="20" y="116" width="6" height="6" fill="white"/>
<rect x="26" y="122" width="6" height="6" fill="white"/>
<rect x="26" y="128" width="6" height="6" fill="white"/>
<rect x="32" y="134" width="6" height="6" fill="white"/>
<rect x="50" y="140" width="6" height="6" fill="white"/>
<rect x="38" y="134" width="6" height="6" fill="white"/>
<rect x="44" y="140" width="6" height="6" fill="white"/>
<rect x="56" y="140" width="6" height="6" fill="white"/>
<rect x="62" y="140" width="6" height="6" fill="white"/>
<rect x="614" y="116" width="6" height="6" fill="white"/>
<rect x="608" y="122" width="6" height="6" fill="white"/>
<rect x="608" y="128" width="6" height="6" fill="white"/>
<rect x="602" y="134" width="6" height="6" fill="white"/>
<rect x="584" y="140" width="6" height="6" fill="white"/>
<rect x="572" y="140" width="6" height="6" fill="white"/>
<rect x="578" y="140" width="6" height="6" fill="white"/>
<rect x="590" y="140" width="6" height="6" fill="white"/>
<rect x="596" y="134" width="6" height="6" fill="white"/>
<rect x="584" y="20" width="6" height="6" fill="white"/>
<rect x="596" y="26" width="6" height="6" fill="white"/>
<rect x="608" y="32" width="6" height="6" fill="white"/>
<rect x="608" y="38" width="6" height="6" fill="white"/>
<rect x="614" y="44" width="6" height="6" fill="white"/>
<rect x="572" y="20" width="6" height="6" fill="white"/>
<rect x="578" y="20" width="6" height="6" fill="white"/>
<rect x="590" y="20" width="6" height="6" fill="white"/>
<rect x="602" y="26" width="6" height="6" fill="white"/>
<rect x="50" y="20" width="6" height="6" fill="white"/>
<rect x="38" y="26" width="6" height="6" fill="white"/>
<rect x="26" y="32" width="6" height="6" fill="white"/>
<rect x="26" y="38" width="6" height="6" fill="white"/>
<rect x="20" y="44" width="6" height="6" fill="white"/>
<rect x="32" y="26" width="6" height="6" fill="white"/>
<rect x="44" y="20" width="6" height="6" fill="white"/>
<rect x="56" y="20" width="6" height="6" fill="white"/>
<rect x="62" y="20" width="6" height="6" fill="white"/>
</g>
<path d="M122.719 79.8595H123.996V81.1364H122.719V79.8595Z" fill="#7E1B70"/>
<path d="M122.719 81.1364H123.996V82.4132H122.719V81.1364Z" fill="#7E1B70"/>
<path d="M122.719 82.4132H123.996V83.6901H122.719V82.4132Z" fill="#7E1B70"/>
<path d="M121.442 83.6901H122.719V84.967H121.442V83.6901Z" fill="#7E1B70"/>
<path d="M121.442 84.967H122.719V86.2438H121.442V84.967Z" fill="#7E1B70"/>
<path d="M121.442 86.2438H122.719V87.5207H121.442V86.2438Z" fill="#7E1B70"/>
<path d="M121.442 87.5207H122.719V88.7975H121.442V87.5207Z" fill="#7E1B70"/>
<path d="M121.442 88.7975H122.719V90.0744H121.442V88.7975Z" fill="#7E1B70"/>
<path d="M121.442 90.0744H122.719V91.3513H121.442V90.0744Z" fill="#7E1B70"/>
<path d="M120.165 91.3513H121.442V92.6281H120.165V91.3513Z" fill="#7E1B70"/>
<path d="M120.165 92.6281H121.442V93.905H120.165V92.6281Z" fill="#7E1B70"/>
<path d="M120.165 93.905H121.442V95.1818H120.165V93.905Z" fill="#7E1B70"/>
<path d="M118.888 95.1818H120.165V96.4587H118.888V95.1818Z" fill="#7E1B70"/>
<path d="M118.888 96.4587H120.165V97.7356H118.888V96.4587Z" fill="#7E1B70"/>
<path d="M117.612 97.7356H118.888V99.0124H117.612V97.7356Z" fill="#7E1B70"/>
<path d="M117.612 99.0124H118.888V100.289H117.612V99.0124Z" fill="#7E1B70"/>
<path d="M116.335 100.289H117.612V101.566H116.335V100.289Z" fill="#7E1B70"/>
<path d="M115.058 101.566H116.335V102.843H115.058V101.566Z" fill="#7E1B70"/>
<path d="M115.058 102.843H116.335V104.12H115.058V102.843Z" fill="#7E1B70"/>
<path d="M113.781 104.12H115.058V105.397H113.781V104.12Z" fill="#7E1B70"/>
<path d="M112.504 105.397H113.781V106.674H112.504V105.397Z" fill="#7E1B70"/>
<path d="M111.227 106.674H112.504V107.95H111.227V106.674Z" fill="#7E1B70"/>
<path d="M109.95 107.95H111.227V109.227H109.95V107.95Z" fill="#7E1B70"/>
<path d="M108.674 109.227H109.95V110.504H108.674V109.227Z" fill="#7E1B70"/>
<path d="M107.397 110.504H108.674V111.781H107.397V110.504Z" fill="#7E1B70"/>
<path d="M106.12 111.781H107.397V113.058H106.12V111.781Z" fill="#7E1B70"/>
<path d="M104.843 113.058H106.12V114.335H104.843V113.058Z" fill="#7E1B70"/>
<path d="M102.289 114.335H103.566V115.612H102.289V114.335Z" fill="#7E1B70"/>
<path d="M99.7356 115.612H101.012V116.888H99.7356V115.612Z" fill="#7E1B70"/>
<path d="M97.1818 116.888H98.4587V118.165H97.1818V116.888Z" fill="#7E1B70"/>
<path d="M93.3513 118.165H94.6281V119.442H93.3513V118.165Z" fill="#7E1B70"/>
<path d="M88.2438 119.442H89.5207V120.719H88.2438V119.442Z" fill="#7E1B70"/>
<path d="M81.8595 119.442H83.1364V120.719H81.8595V119.442Z" fill="#7E1B70"/>
<path d="M83.1364 119.442H84.4132V120.719H83.1364V119.442Z" fill="#7E1B70"/>
<path d="M84.4132 119.442H85.6901V120.719H84.4132V119.442Z" fill="#7E1B70"/>
<path d="M85.6901 119.442H86.967V120.719H85.6901V119.442Z" fill="#7E1B70"/>
<path d="M86.967 119.442H88.2438V120.719H86.967V119.442Z" fill="#7E1B70"/>
<path d="M89.5207 119.442H90.7975V120.719H89.5207V119.442Z" fill="#7E1B70"/>
<path d="M90.7975 119.442H92.0744V120.719H90.7975V119.442Z" fill="#7E1B70"/>
<path d="M92.0744 118.165H93.3513V119.442H92.0744V118.165Z" fill="#7E1B70"/>
<path d="M94.6281 118.165H95.905V119.442H94.6281V118.165Z" fill="#7E1B70"/>
<path d="M95.905 116.888H97.1818V118.165H95.905V116.888Z" fill="#7E1B70"/>
<path d="M98.4587 116.888H99.7356V118.165H98.4587V116.888Z" fill="#7E1B70"/>
<path d="M101.012 115.612H102.289V116.888H101.012V115.612Z" fill="#7E1B70"/>
<path d="M103.566 113.058H104.843V114.335H103.566V113.058Z" fill="#7E1B70"/>
<path d="M41 79.8595H42.2769V81.1364H41V79.8595Z" fill="#7E1B70"/>
<path d="M41 81.1364H42.2769V82.4132H41V81.1364Z" fill="#7E1B70"/>
<path d="M41 82.4132H42.2769V83.6901H41V82.4132Z" fill="#7E1B70"/>
<path d="M41 83.6901H42.2769V84.967H41V83.6901Z" fill="#7E1B70"/>
<path d="M41 84.967H42.2769V86.2438H41V84.967Z" fill="#7E1B70"/>
<path d="M42.2769 86.2438H43.5537V87.5207H42.2769V86.2438Z" fill="#7E1B70"/>
<path d="M42.2769 87.5207H43.5537V88.7975H42.2769V87.5207Z" fill="#7E1B70"/>
<path d="M42.2769 88.7975H43.5537V90.0744H42.2769V88.7975Z" fill="#7E1B70"/>
<path d="M42.2769 90.0744H43.5537V91.3513H42.2769V90.0744Z" fill="#7E1B70"/>
<path d="M43.5537 91.3513H44.8306V92.6281H43.5537V91.3513Z" fill="#7E1B70"/>
<path d="M43.5537 92.6281H44.8306V93.905H43.5537V92.6281Z" fill="#7E1B70"/>
<path d="M43.5537 93.905H44.8306V95.1818H43.5537V93.905Z" fill="#7E1B70"/>
<path d="M44.8306 95.1818H46.1074V96.4587H44.8306V95.1818Z" fill="#7E1B70"/>
<path d="M44.8306 96.4587H46.1074V97.7356H44.8306V96.4587Z" fill="#7E1B70"/>
<path d="M46.1074 97.7356H47.3843V99.0124H46.1074V97.7356Z" fill="#7E1B70"/>
<path d="M46.1074 99.0124H47.3843V100.289H46.1074V99.0124Z" fill="#7E1B70"/>
<path d="M47.3843 100.289H48.6612V101.566H47.3843V100.289Z" fill="#7E1B70"/>
<path d="M47.3843 101.566H48.6612V102.843H47.3843V101.566Z" fill="#7E1B70"/>
<path d="M48.6612 102.843H49.938V104.12H48.6612V102.843Z" fill="#7E1B70"/>
<path d="M49.938 104.12H51.2149V105.397H49.938V104.12Z" fill="#7E1B70"/>
<path d="M51.2149 105.397H52.4917V106.674H51.2149V105.397Z" fill="#7E1B70"/>
<path d="M51.2149 106.674H52.4917V107.95H51.2149V106.674Z" fill="#7E1B70"/>
<path d="M52.4917 107.95H53.7686V109.227H52.4917V107.95Z" fill="#7E1B70"/>
<path d="M53.7686 109.227H55.0455V110.504H53.7686V109.227Z" fill="#7E1B70"/>
<path d="M56.3223 110.504H57.5992V111.781H56.3223V110.504Z" fill="#7E1B70"/>
<path d="M57.5992 111.781H58.876V113.058H57.5992V111.781Z" fill="#7E1B70"/>
<path d="M58.876 113.058H60.1529V114.335H58.876V113.058Z" fill="#7E1B70"/>
<path d="M61.4298 114.335H62.7066V115.612H61.4298V114.335Z" fill="#7E1B70"/>
<path d="M63.9835 115.612H65.2603V116.888H63.9835V115.612Z" fill="#7E1B70"/>
<path d="M66.5372 116.888H67.8141V118.165H66.5372V116.888Z" fill="#7E1B70"/>
<path d="M70.3678 118.165H71.6446V119.442H70.3678V118.165Z" fill="#7E1B70"/>
<path d="M75.4752 119.442H76.7521V120.719H75.4752V119.442Z" fill="#7E1B70"/>
<path d="M55.0455 109.227H56.3223V110.504H55.0455V109.227Z" fill="#7E1B70"/>
<path d="M60.1529 113.058H61.4298V114.335H60.1529V113.058Z" fill="#7E1B70"/>
<path d="M62.7066 115.612H63.9835V116.888H62.7066V115.612Z" fill="#7E1B70"/>
<path d="M65.2603 116.888H66.5372V118.165H65.2603V116.888Z" fill="#7E1B70"/>
<path d="M67.8141 116.888H69.0909V118.165H67.8141V116.888Z" fill="#7E1B70"/>
<path d="M69.0909 118.165H70.3678V119.442H69.0909V118.165Z" fill="#7E1B70"/>
<path d="M71.6446 118.165H72.9215V119.442H71.6446V118.165Z" fill="#7E1B70"/>
<path d="M72.9215 119.442H74.1984V120.719H72.9215V119.442Z" fill="#7E1B70"/>
<path d="M74.1984 119.442H75.4752V120.719H74.1984V119.442Z" fill="#7E1B70"/>
<path d="M76.7521 119.442H78.0289V120.719H76.7521V119.442Z" fill="#7E1B70"/>
<path d="M78.0289 119.442H79.3058V120.719H78.0289V119.442Z" fill="#7E1B70"/>
<path d="M79.3058 119.442H80.5827V120.719H79.3058V119.442Z" fill="#7E1B70"/>
<path d="M80.5827 119.442H81.8595V120.719H80.5827V119.442Z" fill="#7E1B70"/>
<path d="M78.0289 39H79.3058V40.2769H78.0289V39Z" fill="#7E1B70"/>
<path d="M70.3678 40.2769H71.6446V41.5537H70.3678V40.2769Z" fill="#7E1B70"/>
<path d="M66.5372 41.5537H67.8141V42.8306H66.5372V41.5537Z" fill="#7E1B70"/>
<path d="M63.9835 42.8306H65.2603V44.1074H63.9835V42.8306Z" fill="#7E1B70"/>
<path d="M61.4298 44.1074H62.7066V45.3843H61.4298V44.1074Z" fill="#7E1B70"/>
<path d="M60.1529 45.3843H61.4298V46.6612H60.1529V45.3843Z" fill="#7E1B70"/>
<path d="M57.5992 46.6612H58.876V47.938H57.5992V46.6612Z" fill="#7E1B70"/>
<path d="M56.3223 47.938H57.5992V49.2149H56.3223V47.938Z" fill="#7E1B70"/>
<path d="M55.0455 49.2149H56.3223V50.4917H55.0455V49.2149Z" fill="#7E1B70"/>
<path d="M53.7686 50.4917H55.0455V51.7686H53.7686V50.4917Z" fill="#7E1B70"/>
<path d="M52.4917 51.7686H53.7686V53.0455H52.4917V51.7686Z" fill="#7E1B70"/>
<path d="M51.2149 53.0455H52.4917V54.3223H51.2149V53.0455Z" fill="#7E1B70"/>
<path d="M49.938 54.3223H51.2149V55.5992H49.938V54.3223Z" fill="#7E1B70"/>
<path d="M48.6612 55.5992H49.938V56.876H48.6612V55.5992Z" fill="#7E1B70"/>
<path d="M47.3843 56.876H48.6612V58.1529H47.3843V56.876Z" fill="#7E1B70"/>
<path d="M47.3843 58.1529H48.6612V59.4298H47.3843V58.1529Z" fill="#7E1B70"/>
<path d="M46.1074 59.4298H47.3843V60.7066H46.1074V59.4298Z" fill="#7E1B70"/>
<path d="M46.1074 60.7066H47.3843V61.9835H46.1074V60.7066Z" fill="#7E1B70"/>
<path d="M44.8306 61.9835H46.1074V63.2603H44.8306V61.9835Z" fill="#7E1B70"/>
<path d="M44.8306 63.2603H46.1074V64.5372H44.8306V63.2603Z" fill="#7E1B70"/>
<path d="M43.5537 64.5372H44.8306V65.8141H43.5537V64.5372Z" fill="#7E1B70"/>
<path d="M43.5537 65.8141H44.8306V67.0909H43.5537V65.8141Z" fill="#7E1B70"/>
<path d="M43.5537 67.0909H44.8306V68.3678H43.5537V67.0909Z" fill="#7E1B70"/>
<path d="M42.2769 68.3678H43.5537V69.6446H42.2769V68.3678Z" fill="#7E1B70"/>
<path d="M42.2769 69.6446H43.5537V70.9215H42.2769V69.6446Z" fill="#7E1B70"/>
<path d="M42.2769 70.9215H43.5537V72.1984H42.2769V70.9215Z" fill="#7E1B70"/>
<path d="M42.2769 72.1984H43.5537V73.4752H42.2769V72.1984Z" fill="#7E1B70"/>
<path d="M41 73.4752H42.2769V74.7521H41V73.4752Z" fill="#7E1B70"/>
<path d="M41 74.7521H42.2769V76.0289H41V74.7521Z" fill="#7E1B70"/>
<path d="M41 76.0289H42.2769V77.3058H41V76.0289Z" fill="#7E1B70"/>
<path d="M41 77.3058H42.2769V78.5827H41V77.3058Z" fill="#7E1B70"/>
<path d="M41 78.5827H42.2769V79.8595H41V78.5827Z" fill="#7E1B70"/>
<path d="M58.876 45.3843H60.1529V46.6612H58.876V45.3843Z" fill="#7E1B70"/>
<path d="M62.7066 44.1074H63.9835V45.3843H62.7066V44.1074Z" fill="#7E1B70"/>
<path d="M65.2603 42.8306H66.5372V44.1074H65.2603V42.8306Z" fill="#7E1B70"/>
<path d="M67.8141 41.5537H69.0909V42.8306H67.8141V41.5537Z" fill="#7E1B70"/>
<path d="M69.0909 40.2769H70.3678V41.5537H69.0909V40.2769Z" fill="#7E1B70"/>
<path d="M71.6446 40.2769H72.9215V41.5537H71.6446V40.2769Z" fill="#7E1B70"/>
<path d="M72.9215 40.2769H74.1984V41.5537H72.9215V40.2769Z" fill="#7E1B70"/>
<path d="M74.1984 39H75.4752V40.2769H74.1984V39Z" fill="#7E1B70"/>
<path d="M75.4752 39H76.7521V40.2769H75.4752V39Z" fill="#7E1B70"/>
<path d="M76.7521 39H78.0289V40.2769H76.7521V39Z" fill="#7E1B70"/>
<path d="M79.3058 39H80.5827V40.2769H79.3058V39Z" fill="#7E1B70"/>
<path d="M80.5827 39H81.8595V40.2769H80.5827V39Z" fill="#7E1B70"/>
<path d="M81.8595 39H83.1364V40.2769H81.8595V39Z" fill="#7E1B70"/>
<path d="M85.6901 39H86.967V40.2769H85.6901V39Z" fill="#7E1B70"/>
<path d="M92.0744 40.2769H93.3513V41.5537H92.0744V40.2769Z" fill="#7E1B70"/>
<path d="M95.905 41.5537H97.1818V42.8306H95.905V41.5537Z" fill="#7E1B70"/>
<path d="M99.7356 42.8306H101.012V44.1074H99.7356V42.8306Z" fill="#7E1B70"/>
<path d="M102.289 44.1074H103.566V45.3843H102.289V44.1074Z" fill="#7E1B70"/>
<path d="M103.566 45.3843H104.843V46.6612H103.566V45.3843Z" fill="#7E1B70"/>
<path d="M106.12 46.6612H107.397V47.938H106.12V46.6612Z" fill="#7E1B70"/>
<path d="M107.397 47.938H108.674V49.2149H107.397V47.938Z" fill="#7E1B70"/>
<path d="M108.674 49.2149H109.95V50.4917H108.674V49.2149Z" fill="#7E1B70"/>
<path d="M109.95 50.4917H111.227V51.7686H109.95V50.4917Z" fill="#7E1B70"/>
<path d="M111.227 51.7686H112.504V53.0455H111.227V51.7686Z" fill="#7E1B70"/>
<path d="M112.504 53.0455H113.781V54.3223H112.504V53.0455Z" fill="#7E1B70"/>
<path d="M113.781 54.3223H115.058V55.5992H113.781V54.3223Z" fill="#7E1B70"/>
<path d="M115.058 55.5992H116.335V56.876H115.058V55.5992Z" fill="#7E1B70"/>
<path d="M115.058 56.876H116.335V58.1529H115.058V56.876Z" fill="#7E1B70"/>
<path d="M116.335 58.1529H117.612V59.4298H116.335V58.1529Z" fill="#7E1B70"/>
<path d="M117.612 59.4298H118.888V60.7066H117.612V59.4298Z" fill="#7E1B70"/>
<path d="M117.612 60.7066H118.888V61.9835H117.612V60.7066Z" fill="#7E1B70"/>
<path d="M118.888 61.9835H120.165V63.2603H118.888V61.9835Z" fill="#7E1B70"/>
<path d="M118.888 63.2603H120.165V64.5372H118.888V63.2603Z" fill="#7E1B70"/>
<path d="M118.888 64.5372H120.165V65.8141H118.888V64.5372Z" fill="#7E1B70"/>
<path d="M120.165 65.8141H121.442V67.0909H120.165V65.8141Z" fill="#7E1B70"/>
<path d="M120.165 67.0909H121.442V68.3678H120.165V67.0909Z" fill="#7E1B70"/>
<path d="M120.165 68.3678H121.442V69.6446H120.165V68.3678Z" fill="#7E1B70"/>
<path d="M121.442 69.6446H122.719V70.9215H121.442V69.6446Z" fill="#7E1B70"/>
<path d="M121.442 70.9215H122.719V72.1984H121.442V70.9215Z" fill="#7E1B70"/>
<path d="M121.442 72.1984H122.719V73.4752H121.442V72.1984Z" fill="#7E1B70"/>
<path d="M121.442 73.4752H122.719V74.7521H121.442V73.4752Z" fill="#7E1B70"/>
<path d="M121.442 74.7521H122.719V76.0289H121.442V74.7521Z" fill="#7E1B70"/>
<path d="M122.719 76.0289H123.996V77.3058H122.719V76.0289Z" fill="#7E1B70"/>
<path d="M122.719 77.3058H123.996V78.5827H122.719V77.3058Z" fill="#7E1B70"/>
<path d="M122.719 78.5827H123.996V79.8595H122.719V78.5827Z" fill="#7E1B70"/>
<path d="M83.1364 39H84.4132V40.2769H83.1364V39Z" fill="#7E1B70"/>
<path d="M84.4132 39H85.6901V40.2769H84.4132V39Z" fill="#7E1B70"/>
<path d="M86.967 39H88.2438V40.2769H86.967V39Z" fill="#7E1B70"/>
<path d="M88.2438 39H89.5207V40.2769H88.2438V39Z" fill="#7E1B70"/>
<path d="M89.5207 39H90.7975V40.2769H89.5207V39Z" fill="#7E1B70"/>
<path d="M90.7975 40.2769H92.0744V41.5537H90.7975V40.2769Z" fill="#7E1B70"/>
<path d="M93.3513 40.2769H94.6281V41.5537H93.3513V40.2769Z" fill="#7E1B70"/>
<path d="M94.6281 40.2769H95.905V41.5537H94.6281V40.2769Z" fill="#7E1B70"/>
<path d="M97.1818 41.5537H98.4587V42.8306H97.1818V41.5537Z" fill="#7E1B70"/>
<path d="M98.4587 42.8306H99.7356V44.1074H98.4587V42.8306Z" fill="#7E1B70"/>
<path d="M101.012 44.1074H102.289V45.3843H101.012V44.1074Z" fill="#7E1B70"/>
<path d="M104.843 45.3843H106.12V46.6612H104.843V45.3843Z" fill="#7E1B70"/>
<rect x="122.719" y="79.8594" width="1.27686" height="1.27686" fill="#7E1B70"/>
<rect x="122.719" y="81.1367" width="1.27686" height="1.27686" fill="#7E1B70"/>
<rect x="122.719" y="82.4131" width="1.27686" height="1.27686" fill="#7E1B70"/>
<rect x="121.442" y="83.6904" width="1.27686" height="1.27686" fill="#7E1B70"/>
<rect x="121.442" y="84.9668" width="1.27686" height="1.27686" fill="#7E1B70"/>
<rect x="121.442" y="86.2441" width="1.27686" height="1.27686" fill="#7E1B70"/>
<rect x="121.442" y="87.5205" width="1.27686" height="1.27686" fill="#7E1B70"/>
<rect x="121.442" y="88.7979" width="1.27686" height="1.27686" fill="#7E1B70"/>
<rect x="121.442" y="90.0742" width="1.27686" height="1.27686" fill="#7E1B70"/>
<rect x="120.165" y="91.3516" width="1.27686" height="1.27686" fill="#7E1B70"/>
<rect x="120.165" y="92.6279" width="1.27686" height="1.27686" fill="#7E1B70"/>
<rect x="120.165" y="93.9053" width="1.27686" height="1.27686" fill="#7E1B70"/>
<rect x="118.888" y="95.1816" width="1.27686" height="1.27686" fill="#7E1B70"/>
<rect x="118.888" y="96.459" width="1.27686" height="1.27686" fill="#7E1B70"/>
<rect x="117.612" y="97.7354" width="1.27686" height="1.27686" fill="#7E1B70"/>
<rect x="117.612" y="99.0127" width="1.27686" height="1.27686" fill="#7E1B70"/>
<rect x="116.335" y="100.289" width="1.27686" height="1.27686" fill="#7E1B70"/>
<rect x="115.058" y="101.566" width="1.27686" height="1.27686" fill="#7E1B70"/>
<rect x="115.058" y="102.843" width="1.27686" height="1.27686" fill="#7E1B70"/>
<rect x="113.781" y="104.12" width="1.27686" height="1.27686" fill="#7E1B70"/>
<rect x="112.504" y="105.396" width="1.27686" height="1.27686" fill="#7E1B70"/>
<rect x="111.228" y="106.674" width="1.27686" height="1.27686" fill="#7E1B70"/>
<rect x="109.951" y="107.95" width="1.27686" height="1.27686" fill="#7E1B70"/>
<rect x="108.674" y="109.228" width="1.27686" height="1.27686" fill="#7E1B70"/>
<rect x="107.397" y="110.504" width="1.27686" height="1.27686" fill="#7E1B70"/>
<rect x="106.12" y="111.781" width="1.27686" height="1.27686" fill="#7E1B70"/>
<rect x="104.843" y="113.058" width="1.27686" height="1.27686" fill="#7E1B70"/>
<rect x="102.289" y="114.335" width="1.27686" height="1.27686" fill="#7E1B70"/>
<rect x="99.7354" y="115.611" width="1.27686" height="1.27686" fill="#7E1B70"/>
<rect x="97.1819" y="116.889" width="1.27686" height="1.27686" fill="#7E1B70"/>
<rect x="93.3513" y="118.165" width="1.27686" height="1.27686" fill="#7E1B70"/>
<rect x="88.2439" y="119.442" width="1.27686" height="1.27686" fill="#7E1B70"/>
<rect x="81.8594" y="119.442" width="1.27686" height="1.27686" fill="#7E1B70"/>
<rect x="83.1365" y="119.442" width="1.27686" height="1.27686" fill="#7E1B70"/>
<rect x="84.4131" y="119.442" width="1.27686" height="1.27686" fill="#7E1B70"/>
<rect x="85.6899" y="119.442" width="1.27686" height="1.27686" fill="#7E1B70"/>
<rect x="86.967" y="119.442" width="1.27686" height="1.27686" fill="#7E1B70"/>
<rect x="89.5208" y="119.442" width="1.27686" height="1.27686" fill="#7E1B70"/>
<rect x="90.7976" y="119.442" width="1.27686" height="1.27686" fill="#7E1B70"/>
<rect x="92.0745" y="118.165" width="1.27686" height="1.27686" fill="#7E1B70"/>
<rect x="94.6282" y="118.165" width="1.27686" height="1.27686" fill="#7E1B70"/>
<rect x="95.9053" y="116.889" width="1.27686" height="1.27686" fill="#7E1B70"/>
<rect x="98.4585" y="116.889" width="1.27686" height="1.27686" fill="#7E1B70"/>
<rect x="101.012" y="115.611" width="1.27686" height="1.27686" fill="#7E1B70"/>
<rect x="103.566" y="113.058" width="1.27686" height="1.27686" fill="#7E1B70"/>
<rect x="41" y="79.8594" width="1.27686" height="1.27686" fill="#7E1B70"/>
<rect x="41" y="81.1367" width="1.27686" height="1.27686" fill="#7E1B70"/>
<rect x="41" y="82.4131" width="1.27686" height="1.27686" fill="#7E1B70"/>
<rect x="41" y="83.6904" width="1.27686" height="1.27686" fill="#7E1B70"/>
<rect x="41" y="84.9668" width="1.27686" height="1.27686" fill="#7E1B70"/>
<rect x="42.2769" y="86.2441" width="1.27686" height="1.27686" fill="#7E1B70"/>
<rect x="42.2769" y="87.5205" width="1.27686" height="1.27686" fill="#7E1B70"/>
<rect x="42.2769" y="88.7979" width="1.27686" height="1.27686" fill="#7E1B70"/>
<rect x="42.2769" y="90.0742" width="1.27686" height="1.27686" fill="#7E1B70"/>
<rect x="43.5537" y="91.3516" width="1.27686" height="1.27686" fill="#7E1B70"/>
<rect x="43.5537" y="92.6279" width="1.27686" height="1.27686" fill="#7E1B70"/>
<rect x="43.5537" y="93.9053" width="1.27686" height="1.27686" fill="#7E1B70"/>
<rect x="44.8306" y="95.1816" width="1.27686" height="1.27686" fill="#7E1B70"/>
<rect x="44.8306" y="96.459" width="1.27686" height="1.27686" fill="#7E1B70"/>
<rect x="46.1074" y="97.7354" width="1.27686" height="1.27686" fill="#7E1B70"/>
<rect x="46.1074" y="99.0127" width="1.27686" height="1.27686" fill="#7E1B70"/>
<rect x="47.3843" y="100.289" width="1.27686" height="1.27686" fill="#7E1B70"/>
<rect x="47.3843" y="101.566" width="1.27686" height="1.27686" fill="#7E1B70"/>
<rect x="48.6614" y="102.843" width="1.27686" height="1.27686" fill="#7E1B70"/>
<rect x="49.9382" y="104.12" width="1.27686" height="1.27686" fill="#7E1B70"/>
<rect x="51.2148" y="105.396" width="1.27686" height="1.27686" fill="#7E1B70"/>
<rect x="51.2148" y="106.674" width="1.27686" height="1.27686" fill="#7E1B70"/>
<rect x="52.4917" y="107.95" width="1.27686" height="1.27686" fill="#7E1B70"/>
<rect x="53.7686" y="109.228" width="1.27686" height="1.27686" fill="#7E1B70"/>
<rect x="56.3225" y="110.504" width="1.27686" height="1.27686" fill="#7E1B70"/>
<rect x="57.5991" y="111.781" width="1.27686" height="1.27686" fill="#7E1B70"/>
<rect x="58.876" y="113.058" width="1.27686" height="1.27686" fill="#7E1B70"/>
<rect x="61.4299" y="114.335" width="1.27686" height="1.27686" fill="#7E1B70"/>
<rect x="63.9836" y="115.611" width="1.27686" height="1.27686" fill="#7E1B70"/>
<rect x="66.5371" y="116.889" width="1.27686" height="1.27686" fill="#7E1B70"/>
<rect x="70.3677" y="118.165" width="1.27686" height="1.27686" fill="#7E1B70"/>
<rect x="75.4753" y="119.442" width="1.27686" height="1.27686" fill="#7E1B70"/>
<rect x="55.0454" y="109.228" width="1.27686" height="1.27686" fill="#7E1B70"/>
<rect x="60.1528" y="113.058" width="1.27686" height="1.27686" fill="#7E1B70"/>
<rect x="62.7068" y="115.611" width="1.27686" height="1.27686" fill="#7E1B70"/>
<rect x="65.2605" y="116.889" width="1.27686" height="1.27686" fill="#7E1B70"/>
<rect x="67.814" y="116.889" width="1.27686" height="1.27686" fill="#7E1B70"/>
<rect x="69.0908" y="118.165" width="1.27686" height="1.27686" fill="#7E1B70"/>
<rect x="71.6445" y="118.165" width="1.27686" height="1.27686" fill="#7E1B70"/>
<rect x="72.9214" y="119.442" width="1.27686" height="1.27686" fill="#7E1B70"/>
<rect x="74.1985" y="119.442" width="1.27686" height="1.27686" fill="#7E1B70"/>
<rect x="76.7522" y="119.442" width="1.27686" height="1.27686" fill="#7E1B70"/>
<rect x="78.0291" y="119.442" width="1.27686" height="1.27686" fill="#7E1B70"/>
<rect x="79.3059" y="119.442" width="1.27686" height="1.27686" fill="#7E1B70"/>
<rect x="80.5828" y="119.442" width="1.27686" height="1.27686" fill="#7E1B70"/>
<rect x="78.0291" y="39" width="1.27686" height="1.27686" fill="#7E1B70"/>
<rect x="70.3677" y="40.2764" width="1.27686" height="1.27686" fill="#7E1B70"/>
<rect x="66.5371" y="41.5537" width="1.27686" height="1.27686" fill="#7E1B70"/>
<rect x="63.9836" y="42.8301" width="1.27686" height="1.27686" fill="#7E1B70"/>
<rect x="61.4299" y="44.1074" width="1.27686" height="1.27686" fill="#7E1B70"/>
<rect x="60.1528" y="45.3838" width="1.27686" height="1.27686" fill="#7E1B70"/>
<rect x="57.5991" y="46.6611" width="1.27686" height="1.27686" fill="#7E1B70"/>
<rect x="56.3225" y="47.9385" width="1.27686" height="1.27686" fill="#7E1B70"/>
<rect x="55.0454" y="49.2148" width="1.27686" height="1.27686" fill="#7E1B70"/>
<rect x="53.7686" y="50.4922" width="1.27686" height="1.27686" fill="#7E1B70"/>
<rect x="52.4917" y="51.7686" width="1.27686" height="1.27686" fill="#7E1B70"/>
<rect x="51.2148" y="53.0449" width="1.27686" height="1.27686" fill="#7E1B70"/>
<rect x="49.9382" y="54.3223" width="1.27686" height="1.27686" fill="#7E1B70"/>
<rect x="48.6614" y="55.5996" width="1.27686" height="1.27686" fill="#7E1B70"/>
<rect x="47.3843" y="56.876" width="1.27686" height="1.27686" fill="#7E1B70"/>
<rect x="47.3843" y="58.1533" width="1.27686" height="1.27686" fill="#7E1B70"/>
<rect x="46.1074" y="59.4297" width="1.27686" height="1.27686" fill="#7E1B70"/>
<rect x="46.1074" y="60.707" width="1.27686" height="1.27686" fill="#7E1B70"/>
<rect x="44.8306" y="61.9834" width="1.27686" height="1.27686" fill="#7E1B70"/>
<rect x="44.8306" y="63.2607" width="1.27686" height="1.27686" fill="#7E1B70"/>
<rect x="43.5537" y="64.5371" width="1.27686" height="1.27686" fill="#7E1B70"/>
<rect x="43.5537" y="65.8145" width="1.27686" height="1.27686" fill="#7E1B70"/>
<rect x="43.5537" y="67.0908" width="1.27686" height="1.27686" fill="#7E1B70"/>
<rect x="42.2769" y="68.3682" width="1.27686" height="1.27686" fill="#7E1B70"/>
<rect x="42.2769" y="69.6445" width="1.27686" height="1.27686" fill="#7E1B70"/>
<rect x="42.2769" y="70.9219" width="1.27686" height="1.27686" fill="#7E1B70"/>
<rect x="42.2769" y="72.1982" width="1.27686" height="1.27686" fill="#7E1B70"/>
<rect x="41" y="73.4756" width="1.27686" height="1.27686" fill="#7E1B70"/>
<rect x="41" y="74.752" width="1.27686" height="1.27686" fill="#7E1B70"/>
<rect x="41" y="76.0293" width="1.27686" height="1.27686" fill="#7E1B70"/>
<rect x="41" y="77.3057" width="1.27686" height="1.27686" fill="#7E1B70"/>
<rect x="41" y="78.583" width="1.27686" height="1.27686" fill="#7E1B70"/>
<rect x="58.876" y="45.3838" width="1.27686" height="1.27686" fill="#7E1B70"/>
<rect x="62.7068" y="44.1074" width="1.27686" height="1.27686" fill="#7E1B70"/>
<rect x="65.2605" y="42.8301" width="1.27686" height="1.27686" fill="#7E1B70"/>
<rect x="67.814" y="41.5537" width="1.27686" height="1.27686" fill="#7E1B70"/>
<rect x="69.0908" y="40.2764" width="1.27686" height="1.27686" fill="#7E1B70"/>
<rect x="71.6445" y="40.2764" width="1.27686" height="1.27686" fill="#7E1B70"/>
<rect x="72.9214" y="40.2764" width="1.27686" height="1.27686" fill="#7E1B70"/>
<rect x="74.1985" y="39" width="1.27686" height="1.27686" fill="#7E1B70"/>
<rect x="75.4753" y="39" width="1.27686" height="1.27686" fill="#7E1B70"/>
<rect x="76.7522" y="39" width="1.27686" height="1.27686" fill="#7E1B70"/>
<rect x="79.3059" y="39" width="1.27686" height="1.27686" fill="#7E1B70"/>
<rect x="80.5828" y="39" width="1.27686" height="1.27686" fill="#7E1B70"/>
<rect x="81.8594" y="39" width="1.27686" height="1.27686" fill="#7E1B70"/>
<rect x="85.6899" y="39" width="1.27686" height="1.27686" fill="#7E1B70"/>
<rect x="92.0745" y="40.2764" width="1.27686" height="1.27686" fill="#7E1B70"/>
<rect x="95.9053" y="41.5537" width="1.27686" height="1.27686" fill="#7E1B70"/>
<rect x="99.7354" y="42.8301" width="1.27686" height="1.27686" fill="#7E1B70"/>
<rect x="102.289" y="44.1074" width="1.27686" height="1.27686" fill="#7E1B70"/>
<rect x="103.566" y="45.3838" width="1.27686" height="1.27686" fill="#7E1B70"/>
<rect x="106.12" y="46.6611" width="1.27686" height="1.27686" fill="#7E1B70"/>
<rect x="107.397" y="47.9385" width="1.27686" height="1.27686" fill="#7E1B70"/>
<rect x="108.674" y="49.2148" width="1.27686" height="1.27686" fill="#7E1B70"/>
<rect x="109.951" y="50.4922" width="1.27686" height="1.27686" fill="#7E1B70"/>
<rect x="111.228" y="51.7686" width="1.27686" height="1.27686" fill="#7E1B70"/>
<rect x="112.504" y="53.0449" width="1.27686" height="1.27686" fill="#7E1B70"/>
<rect x="113.781" y="54.3223" width="1.27686" height="1.27686" fill="#7E1B70"/>
<rect x="115.058" y="55.5996" width="1.27686" height="1.27686" fill="#7E1B70"/>
<rect x="115.058" y="56.876" width="1.27686" height="1.27686" fill="#7E1B70"/>
<rect x="116.335" y="58.1533" width="1.27686" height="1.27686" fill="#7E1B70"/>
<rect x="117.612" y="59.4297" width="1.27686" height="1.27686" fill="#7E1B70"/>
<rect x="117.612" y="60.707" width="1.27686" height="1.27686" fill="#7E1B70"/>
<rect x="118.888" y="61.9834" width="1.27686" height="1.27686" fill="#7E1B70"/>
<rect x="118.888" y="63.2607" width="1.27686" height="1.27686" fill="#7E1B70"/>
<rect x="118.888" y="64.5371" width="1.27686" height="1.27686" fill="#7E1B70"/>
<rect x="120.165" y="65.8145" width="1.27686" height="1.27686" fill="#7E1B70"/>
<rect x="120.165" y="67.0908" width="1.27686" height="1.27686" fill="#7E1B70"/>
<rect x="120.165" y="68.3682" width="1.27686" height="1.27686" fill="#7E1B70"/>
<rect x="121.442" y="69.6445" width="1.27686" height="1.27686" fill="#7E1B70"/>
<rect x="121.442" y="70.9219" width="1.27686" height="1.27686" fill="#7E1B70"/>
<rect x="121.442" y="72.1982" width="1.27686" height="1.27686" fill="#7E1B70"/>
<rect x="121.442" y="73.4756" width="1.27686" height="1.27686" fill="#7E1B70"/>
<rect x="121.442" y="74.752" width="1.27686" height="1.27686" fill="#7E1B70"/>
<rect x="122.719" y="76.0293" width="1.27686" height="1.27686" fill="#7E1B70"/>
<rect x="122.719" y="77.3057" width="1.27686" height="1.27686" fill="#7E1B70"/>
<rect x="122.719" y="78.583" width="1.27686" height="1.27686" fill="#7E1B70"/>
<rect x="83.1365" y="39" width="1.27686" height="1.27686" fill="#7E1B70"/>
<rect x="84.4131" y="39" width="1.27686" height="1.27686" fill="#7E1B70"/>
<rect x="86.967" y="39" width="1.27686" height="1.27686" fill="#7E1B70"/>
<rect x="88.2439" y="39" width="1.27686" height="1.27686" fill="#7E1B70"/>
<rect x="89.5208" y="39" width="1.27686" height="1.27686" fill="#7E1B70"/>
<rect x="90.7976" y="40.2764" width="1.27686" height="1.27686" fill="#7E1B70"/>
<rect x="93.3513" y="40.2764" width="1.27686" height="1.27686" fill="#7E1B70"/>
<rect x="94.6282" y="40.2764" width="1.27686" height="1.27686" fill="#7E1B70"/>
<rect x="97.1819" y="41.5537" width="1.27686" height="1.27686" fill="#7E1B70"/>
<rect x="98.4585" y="42.8301" width="1.27686" height="1.27686" fill="#7E1B70"/>
<rect x="101.012" y="44.1074" width="1.27686" height="1.27686" fill="#7E1B70"/>
<rect x="104.843" y="45.3838" width="1.27686" height="1.27686" fill="#7E1B70"/>
<rect x="123.996" y="79.8594" width="1.27686" height="1.27686" fill="#7E1B70"/>
<rect x="123.996" y="81.1367" width="1.27686" height="1.27686" fill="#7E1B70"/>
<rect x="123.996" y="82.4131" width="1.27686" height="1.27686" fill="#7E1B70"/>
<rect x="123.996" y="83.6904" width="1.27686" height="1.27686" fill="#7E1B70"/>
<rect x="122.719" y="83.6904" width="1.27686" height="1.27686" fill="#7E1B70"/>
<rect x="122.719" y="84.9668" width="1.27686" height="1.27686" fill="#7E1B70"/>
<rect x="122.719" y="86.2441" width="1.27686" height="1.27686" fill="#7E1B70"/>
<rect x="122.719" y="87.5205" width="1.27686" height="1.27686" fill="#7E1B70"/>
<rect x="122.719" y="88.7979" width="1.27686" height="1.27686" fill="#7E1B70"/>
<rect x="122.719" y="90.0742" width="1.27686" height="1.27686" fill="#7E1B70"/>
<rect x="122.719" y="91.3516" width="1.27686" height="1.27686" fill="#7E1B70"/>
<rect x="121.442" y="91.3516" width="1.27686" height="1.27686" fill="#7E1B70"/>
<rect x="121.442" y="92.6279" width="1.27686" height="1.27686" fill="#7E1B70"/>
<rect x="121.442" y="93.9053" width="1.27686" height="1.27686" fill="#7E1B70"/>
<rect x="121.442" y="95.1816" width="1.27686" height="1.27686" fill="#7E1B70"/>
<rect x="120.165" y="95.1816" width="1.27686" height="1.27686" fill="#7E1B70"/>
<rect x="120.165" y="96.459" width="1.27686" height="1.27686" fill="#7E1B70"/>
<rect x="120.165" y="97.7354" width="1.27686" height="1.27686" fill="#7E1B70"/>
<rect x="118.888" y="97.7354" width="1.27686" height="1.27686" fill="#7E1B70"/>
<rect x="118.888" y="99.0127" width="1.27686" height="1.27686" fill="#7E1B70"/>
<rect x="118.888" y="100.289" width="1.27686" height="1.27686" fill="#7E1B70"/>
<rect x="117.612" y="100.289" width="1.27686" height="1.27686" fill="#7E1B70"/>
<rect x="117.612" y="101.566" width="1.27686" height="1.27686" fill="#7E1B70"/>
<rect x="116.335" y="101.566" width="1.27686" height="1.27686" fill="#7E1B70"/>
<rect x="116.335" y="102.843" width="1.27686" height="1.27686" fill="#7E1B70"/>
<rect x="116.335" y="104.12" width="1.27686" height="1.27686" fill="#7E1B70"/>
<rect x="115.058" y="104.12" width="1.27686" height="1.27686" fill="#7E1B70"/>
<rect x="115.058" y="105.396" width="1.27686" height="1.27686" fill="#7E1B70"/>
<rect x="113.781" y="105.396" width="1.27686" height="1.27686" fill="#7E1B70"/>
<rect x="113.781" y="106.674" width="1.27686" height="1.27686" fill="#7E1B70"/>
<rect x="112.504" y="106.674" width="1.27686" height="1.27686" fill="#7E1B70"/>
<rect x="112.504" y="107.95" width="1.27686" height="1.27686" fill="#7E1B70"/>
<rect x="111.228" y="107.95" width="1.27686" height="1.27686" fill="#7E1B70"/>
<rect x="111.228" y="109.228" width="1.27686" height="1.27686" fill="#7E1B70"/>
<rect x="109.951" y="109.228" width="1.27686" height="1.27686" fill="#7E1B70"/>
<rect x="109.951" y="110.504" width="1.27686" height="1.27686" fill="#7E1B70"/>
<rect x="108.674" y="110.504" width="1.27686" height="1.27686" fill="#7E1B70"/>
<rect x="108.674" y="111.781" width="1.27686" height="1.27686" fill="#7E1B70"/>
<rect x="107.397" y="111.781" width="1.27686" height="1.27686" fill="#7E1B70"/>
<rect x="107.397" y="113.058" width="1.27686" height="1.27686" fill="#7E1B70"/>
<rect x="106.12" y="113.058" width="1.27686" height="1.27686" fill="#7E1B70"/>
<rect x="106.12" y="114.335" width="1.27686" height="1.27686" fill="#7E1B70"/>
<rect x="104.843" y="114.335" width="1.27686" height="1.27686" fill="#7E1B70"/>
<rect x="102.289" y="113.058" width="1.27686" height="1.27686" fill="#7E1B70"/>
<rect x="103.566" y="114.335" width="1.27686" height="1.27686" fill="#7E1B70"/>
<rect x="103.566" y="115.611" width="1.27686" height="1.27686" fill="#7E1B70"/>
<rect x="102.289" y="115.611" width="1.27686" height="1.27686" fill="#7E1B70"/>
<rect x="101.012" y="116.889" width="1.27686" height="1.27686" fill="#7E1B70"/>
<rect x="99.7354" y="116.889" width="1.27686" height="1.27686" fill="#7E1B70"/>
<rect x="98.4585" y="118.165" width="1.27686" height="1.27686" fill="#7E1B70"/>
<rect x="97.1819" y="118.165" width="1.27686" height="1.27686" fill="#7E1B70"/>
<rect x="94.6282" y="119.442" width="1.27686" height="1.27686" fill="#7E1B70"/>
<rect x="93.3513" y="119.442" width="1.27686" height="1.27686" fill="#7E1B70"/>
<rect x="89.5208" y="120.719" width="1.27686" height="1.27686" fill="#7E1B70"/>
<rect x="88.2439" y="120.719" width="1.27686" height="1.27686" fill="#7E1B70"/>
<rect x="83.1365" y="120.719" width="1.27686" height="1.27686" fill="#7E1B70"/>
<rect x="81.8594" y="120.719" width="1.27686" height="1.27686" fill="#7E1B70"/>
<rect x="84.4131" y="120.719" width="1.27686" height="1.27686" fill="#7E1B70"/>
<rect x="85.6899" y="120.719" width="1.27686" height="1.27686" fill="#7E1B70"/>
<rect x="86.967" y="120.719" width="1.27686" height="1.27686" fill="#7E1B70"/>
<rect x="90.7976" y="120.719" width="1.27686" height="1.27686" fill="#7E1B70"/>
<rect x="92.0745" y="119.442" width="1.27686" height="1.27686" fill="#7E1B70"/>
<rect x="92.0745" y="120.719" width="1.27686" height="1.27686" fill="#7E1B70"/>
<rect x="95.9053" y="118.165" width="1.27686" height="1.27686" fill="#7E1B70"/>
<rect x="95.9053" y="119.442" width="1.27686" height="1.27686" fill="#7E1B70"/>
<rect x="99.7354" y="118.165" width="1.27686" height="1.27686" fill="#7E1B70"/>
<rect x="102.289" y="116.889" width="1.27686" height="1.27686" fill="#7E1B70"/>
<rect x="42.2769" y="79.8594" width="1.27686" height="1.27686" fill="#7E1B70"/>
<rect x="42.2769" y="81.1367" width="1.27686" height="1.27686" fill="#7E1B70"/>
<rect x="42.2769" y="82.4131" width="1.27686" height="1.27686" fill="#7E1B70"/>
<rect x="42.2769" y="83.6904" width="1.27686" height="1.27686" fill="#7E1B70"/>
<rect x="42.2769" y="84.9668" width="1.27686" height="1.27686" fill="#7E1B70"/>
<rect x="41" y="86.2441" width="1.27686" height="1.27686" fill="#7E1B70"/>
<rect x="43.5537" y="86.2441" width="1.27686" height="1.27686" fill="#7E1B70"/>
<rect x="43.5537" y="87.5205" width="1.27686" height="1.27686" fill="#7E1B70"/>
<rect x="43.5537" y="88.7979" width="1.27686" height="1.27686" fill="#7E1B70"/>
<rect x="43.5537" y="90.0742" width="1.27686" height="1.27686" fill="#7E1B70"/>
<rect x="42.2769" y="91.3516" width="1.27686" height="1.27686" fill="#7E1B70"/>
<rect x="44.8306" y="91.3516" width="1.27686" height="1.27686" fill="#7E1B70"/>
<rect x="44.8306" y="92.6279" width="1.27686" height="1.27686" fill="#7E1B70"/>
<rect x="44.8306" y="93.9053" width="1.27686" height="1.27686" fill="#7E1B70"/>
<rect x="43.5537" y="95.1816" width="1.27686" height="1.27686" fill="#7E1B70"/>
<rect x="46.1074" y="95.1816" width="1.27686" height="1.27686" fill="#7E1B70"/>
<rect x="46.1074" y="96.459" width="1.27686" height="1.27686" fill="#7E1B70"/>
<rect x="44.8306" y="97.7354" width="1.27686" height="1.27686" fill="#7E1B70"/>
<rect x="47.3843" y="97.7354" width="1.27686" height="1.27686" fill="#7E1B70"/>
<rect x="47.3843" y="99.0127" width="1.27686" height="1.27686" fill="#7E1B70"/>
<rect x="46.1074" y="100.289" width="1.27686" height="1.27686" fill="#7E1B70"/>
<rect x="48.6614" y="100.289" width="1.27686" height="1.27686" fill="#7E1B70"/>
<rect x="48.6614" y="101.566" width="1.27686" height="1.27686" fill="#7E1B70"/>
<rect x="47.3843" y="102.843" width="1.27686" height="1.27686" fill="#7E1B70"/>
<rect x="49.9382" y="102.843" width="1.27686" height="1.27686" fill="#7E1B70"/>
<rect x="48.6614" y="104.12" width="1.27686" height="1.27686" fill="#7E1B70"/>
<rect x="51.2148" y="104.12" width="1.27686" height="1.27686" fill="#7E1B70"/>
<rect x="49.9382" y="105.396" width="1.27686" height="1.27686" fill="#7E1B70"/>
<rect x="52.4917" y="105.396" width="1.27686" height="1.27686" fill="#7E1B70"/>
<rect x="52.4917" y="106.674" width="1.27686" height="1.27686" fill="#7E1B70"/>
<rect x="51.2148" y="107.95" width="1.27686" height="1.27686" fill="#7E1B70"/>
<rect x="53.7686" y="107.95" width="1.27686" height="1.27686" fill="#7E1B70"/>
<rect x="52.4917" y="109.228" width="1.27686" height="1.27686" fill="#7E1B70"/>
<rect x="55.0454" y="110.504" width="1.27686" height="1.27686" fill="#7E1B70"/>
<rect x="53.7686" y="110.504" width="1.27686" height="1.27686" fill="#7E1B70"/>
<rect x="57.5991" y="110.504" width="1.27686" height="1.27686" fill="#7E1B70"/>
<rect x="56.3225" y="111.781" width="1.27686" height="1.27686" fill="#7E1B70"/>
<rect x="58.876" y="111.781" width="1.27686" height="1.27686" fill="#7E1B70"/>
<rect x="57.5991" y="113.058" width="1.27686" height="1.27686" fill="#7E1B70"/>
<rect x="60.1528" y="114.335" width="1.27686" height="1.27686" fill="#7E1B70"/>
<rect x="58.876" y="114.335" width="1.27686" height="1.27686" fill="#7E1B70"/>
<rect x="61.4299" y="113.058" width="1.27686" height="1.27686" fill="#7E1B70"/>
<rect x="62.7068" y="114.335" width="1.27686" height="1.27686" fill="#7E1B70"/>
<rect x="61.4299" y="115.611" width="1.27686" height="1.27686" fill="#7E1B70"/>
<rect x="65.2605" y="115.611" width="1.27686" height="1.27686" fill="#7E1B70"/>
<rect x="63.9836" y="116.889" width="1.27686" height="1.27686" fill="#7E1B70"/>
<rect x="67.814" y="118.165" width="1.27686" height="1.27686" fill="#7E1B70"/>
<rect x="66.5371" y="118.165" width="1.27686" height="1.27686" fill="#7E1B70"/>
<rect x="71.6445" y="119.442" width="1.27686" height="1.27686" fill="#7E1B70"/>
<rect x="70.3677" y="119.442" width="1.27686" height="1.27686" fill="#7E1B70"/>
<rect x="76.7522" y="120.719" width="1.27686" height="1.27686" fill="#7E1B70"/>
<rect x="75.4753" y="120.719" width="1.27686" height="1.27686" fill="#7E1B70"/>
<rect x="56.3225" y="109.228" width="1.27686" height="1.27686" fill="#7E1B70"/>
<rect x="62.7068" y="116.889" width="1.27686" height="1.27686" fill="#7E1B70"/>
<rect x="65.2605" y="118.165" width="1.27686" height="1.27686" fill="#7E1B70"/>
<rect x="69.0908" y="116.889" width="1.27686" height="1.27686" fill="#7E1B70"/>
<rect x="69.0908" y="119.442" width="1.27686" height="1.27686" fill="#7E1B70"/>
<rect x="72.9214" y="118.165" width="1.27686" height="1.27686" fill="#7E1B70"/>
<rect x="74.1985" y="120.719" width="1.27686" height="1.27686" fill="#7E1B70"/>
<rect x="72.9214" y="120.719" width="1.27686" height="1.27686" fill="#7E1B70"/>
<rect x="78.0291" y="120.719" width="1.27686" height="1.27686" fill="#7E1B70"/>
<rect x="79.3059" y="120.719" width="1.27686" height="1.27686" fill="#7E1B70"/>
<rect x="80.5828" y="120.719" width="1.27686" height="1.27686" fill="#7E1B70"/>
<rect x="79.3059" y="40.2764" width="1.27686" height="1.27686" fill="#7E1B70"/>
<rect x="78.0291" y="40.2764" width="1.27686" height="1.27686" fill="#7E1B70"/>
<rect x="71.6445" y="41.5537" width="1.27686" height="1.27686" fill="#7E1B70"/>
<rect x="70.3677" y="41.5537" width="1.27686" height="1.27686" fill="#7E1B70"/>
<rect x="67.814" y="42.8301" width="1.27686" height="1.27686" fill="#7E1B70"/>
<rect x="66.5371" y="42.8301" width="1.27686" height="1.27686" fill="#7E1B70"/>
<rect x="65.2605" y="44.1074" width="1.27686" height="1.27686" fill="#7E1B70"/>
<rect x="63.9836" y="44.1074" width="1.27686" height="1.27686" fill="#7E1B70"/>
<rect x="62.7068" y="45.3838" width="1.27686" height="1.27686" fill="#7E1B70"/>
<rect x="61.4299" y="45.3838" width="1.27686" height="1.27686" fill="#7E1B70"/>
<rect x="61.4299" y="46.6611" width="1.27686" height="1.27686" fill="#7E1B70"/>
<rect x="60.1528" y="46.6611" width="1.27686" height="1.27686" fill="#7E1B70"/>
<rect x="58.876" y="46.6611" width="1.27686" height="1.27686" fill="#7E1B70"/>
<rect x="58.876" y="47.9385" width="1.27686" height="1.27686" fill="#7E1B70"/>
<rect x="57.5991" y="47.9385" width="1.27686" height="1.27686" fill="#7E1B70"/>
<rect x="57.5991" y="49.2148" width="1.27686" height="1.27686" fill="#7E1B70"/>
<rect x="56.3225" y="49.2148" width="1.27686" height="1.27686" fill="#7E1B70"/>
<rect x="55.0454" y="47.9385" width="1.27686" height="1.27686" fill="#7E1B70"/>
<rect x="56.3225" y="50.4922" width="1.27686" height="1.27686" fill="#7E1B70"/>
<rect x="55.0454" y="50.4922" width="1.27686" height="1.27686" fill="#7E1B70"/>
<rect x="55.0454" y="51.7686" width="1.27686" height="1.27686" fill="#7E1B70"/>
<rect x="53.7686" y="51.7686" width="1.27686" height="1.27686" fill="#7E1B70"/>
<rect x="53.7686" y="53.0449" width="1.27686" height="1.27686" fill="#7E1B70"/>
<rect x="52.4917" y="53.0449" width="1.27686" height="1.27686" fill="#7E1B70"/>
<rect x="52.4917" y="54.3223" width="1.27686" height="1.27686" fill="#7E1B70"/>
<rect x="51.2148" y="54.3223" width="1.27686" height="1.27686" fill="#7E1B70"/>
<rect x="51.2148" y="55.5996" width="1.27686" height="1.27686" fill="#7E1B70"/>
<rect x="49.9382" y="55.5996" width="1.27686" height="1.27686" fill="#7E1B70"/>
<rect x="49.9382" y="56.876" width="1.27686" height="1.27686" fill="#7E1B70"/>
<rect x="48.6614" y="56.876" width="1.27686" height="1.27686" fill="#7E1B70"/>
<rect x="48.6614" y="58.1533" width="1.27686" height="1.27686" fill="#7E1B70"/>
<rect x="48.6614" y="59.4297" width="1.27686" height="1.27686" fill="#7E1B70"/>
<rect x="47.3843" y="59.4297" width="1.27686" height="1.27686" fill="#7E1B70"/>
<rect x="46.1074" y="58.1533" width="1.27686" height="1.27686" fill="#7E1B70"/>
<rect x="47.3843" y="60.707" width="1.27686" height="1.27686" fill="#7E1B70"/>
<rect x="47.3843" y="61.9834" width="1.27686" height="1.27686" fill="#7E1B70"/>
<rect x="46.1074" y="61.9834" width="1.27686" height="1.27686" fill="#7E1B70"/>
<rect x="46.1074" y="63.2607" width="1.27686" height="1.27686" fill="#7E1B70"/>
<rect x="46.1074" y="64.5371" width="1.27686" height="1.27686" fill="#7E1B70"/>
<rect x="44.8306" y="64.5371" width="1.27686" height="1.27686" fill="#7E1B70"/>
<rect x="44.8306" y="65.8145" width="1.27686" height="1.27686" fill="#7E1B70"/>
<rect x="44.8306" y="67.0908" width="1.27686" height="1.27686" fill="#7E1B70"/>
<rect x="44.8306" y="68.3682" width="1.27686" height="1.27686" fill="#7E1B70"/>
<rect x="43.5537" y="68.3682" width="1.27686" height="1.27686" fill="#7E1B70"/>
<rect x="43.5537" y="69.6445" width="1.27686" height="1.27686" fill="#7E1B70"/>
<rect x="43.5537" y="70.9219" width="1.27686" height="1.27686" fill="#7E1B70"/>
<rect x="43.5537" y="72.1982" width="1.27686" height="1.27686" fill="#7E1B70"/>
<rect x="43.5537" y="73.4756" width="1.27686" height="1.27686" fill="#7E1B70"/>
<rect x="42.2769" y="73.4756" width="1.27686" height="1.27686" fill="#7E1B70"/>
<rect x="42.2769" y="74.752" width="1.27686" height="1.27686" fill="#7E1B70"/>
<rect x="42.2769" y="76.0293" width="1.27686" height="1.27686" fill="#7E1B70"/>
<rect x="42.2769" y="77.3057" width="1.27686" height="1.27686" fill="#7E1B70"/>
<rect x="42.2769" y="78.583" width="1.27686" height="1.27686" fill="#7E1B70"/>
<rect x="63.9836" y="45.3838" width="1.27686" height="1.27686" fill="#7E1B70"/>
<rect x="66.5371" y="44.1074" width="1.27686" height="1.27686" fill="#7E1B70"/>
<rect x="69.0908" y="41.5537" width="1.27686" height="1.27686" fill="#7E1B70"/>
<rect x="69.0908" y="42.8301" width="1.27686" height="1.27686" fill="#7E1B70"/>
<rect x="72.9214" y="41.5537" width="1.27686" height="1.27686" fill="#7E1B70"/>
<rect x="74.1985" y="40.2764" width="1.27686" height="1.27686" fill="#7E1B70"/>
<rect x="74.1985" y="41.5537" width="1.27686" height="1.27686" fill="#7E1B70"/>
<rect x="75.4753" y="40.2764" width="1.27686" height="1.27686" fill="#7E1B70"/>
<rect x="76.7522" y="40.2764" width="1.27686" height="1.27686" fill="#7E1B70"/>
<rect x="80.5828" y="40.2764" width="1.27686" height="1.27686" fill="#7E1B70"/>
<rect x="81.8594" y="40.2764" width="1.27686" height="1.27686" fill="#7E1B70"/>
<rect x="83.1365" y="40.2764" width="1.27686" height="1.27686" fill="#7E1B70"/>
<rect x="86.967" y="40.2764" width="1.27686" height="1.27686" fill="#7E1B70"/>
<rect x="85.6899" y="40.2764" width="1.27686" height="1.27686" fill="#7E1B70"/>
<rect x="93.3513" y="41.5537" width="1.27686" height="1.27686" fill="#7E1B70"/>
<rect x="92.0745" y="41.5537" width="1.27686" height="1.27686" fill="#7E1B70"/>
<rect x="97.1819" y="42.8301" width="1.27686" height="1.27686" fill="#7E1B70"/>
<rect x="95.9053" y="42.8301" width="1.27686" height="1.27686" fill="#7E1B70"/>
<rect x="101.012" y="42.8301" width="1.27686" height="1.27686" fill="#7E1B70"/>
<rect x="99.7354" y="44.1074" width="1.27686" height="1.27686" fill="#7E1B70"/>
<rect x="103.566" y="44.1074" width="1.27686" height="1.27686" fill="#7E1B70"/>
<rect x="102.289" y="45.3838" width="1.27686" height="1.27686" fill="#7E1B70"/>
<rect x="104.843" y="46.6611" width="1.27686" height="1.27686" fill="#7E1B70"/>
<rect x="103.566" y="46.6611" width="1.27686" height="1.27686" fill="#7E1B70"/>
<rect x="107.397" y="46.6611" width="1.27686" height="1.27686" fill="#7E1B70"/>
<rect x="106.12" y="47.9385" width="1.27686" height="1.27686" fill="#7E1B70"/>
<rect x="108.674" y="47.9385" width="1.27686" height="1.27686" fill="#7E1B70"/>
<rect x="107.397" y="49.2148" width="1.27686" height="1.27686" fill="#7E1B70"/>
<rect x="109.951" y="49.2148" width="1.27686" height="1.27686" fill="#7E1B70"/>
<rect x="108.674" y="50.4922" width="1.27686" height="1.27686" fill="#7E1B70"/>
<rect x="111.228" y="50.4922" width="1.27686" height="1.27686" fill="#7E1B70"/>
<rect x="109.951" y="51.7686" width="1.27686" height="1.27686" fill="#7E1B70"/>
<rect x="112.504" y="51.7686" width="1.27686" height="1.27686" fill="#7E1B70"/>
<rect x="111.228" y="53.0449" width="1.27686" height="1.27686" fill="#7E1B70"/>
<rect x="113.781" y="53.0449" width="1.27686" height="1.27686" fill="#7E1B70"/>
<rect x="112.504" y="54.3223" width="1.27686" height="1.27686" fill="#7E1B70"/>
<rect x="115.058" y="54.3223" width="1.27686" height="1.27686" fill="#7E1B70"/>
<rect x="113.781" y="55.5996" width="1.27686" height="1.27686" fill="#7E1B70"/>
<rect x="116.335" y="55.5996" width="1.27686" height="1.27686" fill="#7E1B70"/>
<rect x="116.335" y="56.876" width="1.27686" height="1.27686" fill="#7E1B70"/>
<rect x="115.058" y="58.1533" width="1.27686" height="1.27686" fill="#7E1B70"/>
<rect x="117.612" y="58.1533" width="1.27686" height="1.27686" fill="#7E1B70"/>
<rect x="116.335" y="59.4297" width="1.27686" height="1.27686" fill="#7E1B70"/>
<rect x="118.888" y="59.4297" width="1.27686" height="1.27686" fill="#7E1B70"/>
<rect x="118.888" y="60.707" width="1.27686" height="1.27686" fill="#7E1B70"/>
<rect x="117.612" y="61.9834" width="1.27686" height="1.27686" fill="#7E1B70"/>
<rect x="120.165" y="61.9834" width="1.27686" height="1.27686" fill="#7E1B70"/>
<rect x="120.165" y="63.2607" width="1.27686" height="1.27686" fill="#7E1B70"/>
<rect x="120.165" y="64.5371" width="1.27686" height="1.27686" fill="#7E1B70"/>
<rect x="118.888" y="65.8145" width="1.27686" height="1.27686" fill="#7E1B70"/>
<rect x="121.442" y="65.8145" width="1.27686" height="1.27686" fill="#7E1B70"/>
<rect x="121.442" y="67.0908" width="1.27686" height="1.27686" fill="#7E1B70"/>
<rect x="121.442" y="68.3682" width="1.27686" height="1.27686" fill="#7E1B70"/>
<rect x="120.165" y="69.6445" width="1.27686" height="1.27686" fill="#7E1B70"/>
<rect x="122.719" y="69.6445" width="1.27686" height="1.27686" fill="#7E1B70"/>
<rect x="122.719" y="70.9219" width="1.27686" height="1.27686" fill="#7E1B70"/>
<rect x="122.719" y="72.1982" width="1.27686" height="1.27686" fill="#7E1B70"/>
<rect x="122.719" y="73.4756" width="1.27686" height="1.27686" fill="#7E1B70"/>
<rect x="122.719" y="74.752" width="1.27686" height="1.27686" fill="#7E1B70"/>
<rect x="121.442" y="76.0293" width="1.27686" height="1.27686" fill="#7E1B70"/>
<rect x="123.996" y="76.0293" width="1.27686" height="1.27686" fill="#7E1B70"/>
<rect x="123.996" y="77.3057" width="1.27686" height="1.27686" fill="#7E1B70"/>
<rect x="123.996" y="78.583" width="1.27686" height="1.27686" fill="#7E1B70"/>
<rect x="84.4131" y="40.2764" width="1.27686" height="1.27686" fill="#7E1B70"/>
<rect x="88.2439" y="40.2764" width="1.27686" height="1.27686" fill="#7E1B70"/>
<rect x="89.5208" y="40.2764" width="1.27686" height="1.27686" fill="#7E1B70"/>
<rect x="90.7976" y="39" width="1.27686" height="1.27686" fill="#7E1B70"/>
<rect x="90.7976" y="41.5537" width="1.27686" height="1.27686" fill="#7E1B70"/>
<rect x="94.6282" y="41.5537" width="1.27686" height="1.27686" fill="#7E1B70"/>
<rect x="95.9053" y="40.2764" width="1.27686" height="1.27686" fill="#7E1B70"/>
<rect x="98.4585" y="41.5537" width="1.27686" height="1.27686" fill="#7E1B70"/>
<rect x="98.4585" y="44.1074" width="1.27686" height="1.27686" fill="#7E1B70"/>
<rect x="101.012" y="45.3838" width="1.27686" height="1.27686" fill="#7E1B70"/>
<rect x="106.12" y="45.3838" width="1.27686" height="1.27686" fill="#7E1B70"/>
<path d="M76.3291 106.416H60.5358C60.5358 106.348 60.5358 106.281 60.5358 106.214V82.0626C60.5358 81.9331 60.5358 81.8035 60.5047 81.617H57.2249V78.2128H60.5566V74.8085H63.9453V71.482H67.2874V74.8085H70.6346V71.4975H67.2718V68.0725H70.6761V64.6631H74.1062V68.0311H77.3965V64.6786H74.1062V61.3055H77.4742V57.9116H80.8578V54.6006H85.3812V57.9375H88.7699V61.2847H92.1431V54.6006H102.288V74.8448H105.677V78.2594H109.019V81.6015H105.667V105.24C105.667 105.628 105.667 106.017 105.667 106.405H89.8891C89.8891 106.183 89.8891 105.965 89.8891 105.747C89.8891 99.4431 89.8891 93.1372 89.8891 86.8296V86.2078H76.355V105.747C76.355 105.965 76.3343 106.183 76.3291 106.416ZM102.237 78.2749V81.5445H105.584V78.2801H102.19V74.9018H98.9153V78.2698L102.237 78.2749ZM64.0075 78.2749H67.2926V74.9069H64.023V78.2801H60.6343V81.5445H63.9971L64.0075 78.2749ZM80.9096 61.3728H85.3294V64.6683H88.7181V61.378H85.2983V58.0152H80.9458C80.9458 59.1603 80.9458 60.2692 80.9458 61.378H77.526V64.6631H80.8526C80.8526 64.4092 80.8526 64.1968 80.8526 63.9791L80.9096 61.3728ZM95.5577 71.4768V74.8085H98.8428V58.01H95.5214V68.1243H92.1586V71.4664L95.5577 71.4768ZM88.8217 68.0363H92.1224V64.746H88.8217V68.0363ZM74.1062 68.1606H70.8056V71.4561H74.1062V68.1606Z" fill="#7E1B70"/>
<path d="M147 86V72H151V80H153V78H155V76H157V72H161V86H157V80H155V82H153V84H151V86H147ZM169 78V80H167V86H163V76H167V78H169ZM177 76V86H173V80H171V78H173V76H177ZM169 80H171V84H169V80ZM181 88V86H189V84H181V82H179V76H183V82H189V76H193V86H191V88H181ZM207 88V86H195V76H199V84H201V76H203V84H205V76H209V84H211V88H207ZM213 86V84H211V78H213V76H223V78H225V82H215V84H223V86H213ZM215 80H221V78H215V80ZM229 86V84H227V78H229V76H239V78H241V80H237V78H231V84H237V82H241V84H239V86H229ZM249 86V78H245V76H257V78H253V86H249ZM259 86V76H271V78H273V80H271V82H273V84H271V86H259ZM263 80H269V78H263V80ZM263 84H269V82H263V84ZM277 86V84H275V78H277V76H287V78H289V82H279V84H287V86H277ZM279 80H285V78H279V80ZM291 86V76H295V80H301V76H305V86H301V82H295V86H291ZM307 86V76H311V80H317V76H321V86H317V82H311V86H307ZM323 86V76H327V80H331V86H323ZM333 86V76H337V86H333ZM327 84H329V82H327V84ZM341 86V84H339V78H341V76H351V78H353V82H343V84H351V86H341ZM343 80H349V78H343V80ZM373 86V84H371V78H373V76H383V78H385V84H383V86H373ZM375 84H381V78H375V84ZM393 86V78H389V76H401V78H397V86H393ZM403 86V76H407V80H413V76H417V86H413V82H407V86H403ZM421 86V84H419V78H421V76H431V78H433V84H431V86H421ZM423 84H429V78H423V84ZM435 86V76H439V84H441V76H443V84H445V76H449V86H435ZM453 86V84H451V78H453V76H463V78H465V82H455V84H463V86H453ZM455 80H461V78H455V80ZM467 86V76H471V80H477V76H481V86H477V82H471V86H467ZM487 82H489V84H487V86H483V76H487V82ZM497 76V86H493V80H491V78H493V76H497ZM489 80H491V82H489V80ZM499 86V82H501V80H499V78H501V76H513V86H509V82H503V86H499ZM503 80H509V78H503V80Z" fill="black"/>
<defs>
<filter id="filter0_d_164_132054" x="-5" y="-1" width="650" height="176" filterUnits="userSpaceOnUse" color-interpolation-filters="sRGB">
<feFlood flood-opacity="0" result="BackgroundImageFix"/>
<feColorMatrix in="SourceAlpha" type="matrix" values="0 0 0 0 0 0 0 0 0 0 0 0 0 0 0 0 0 0 127 0" result="hardAlpha"/>
<feOffset dy="4"/>
<feGaussianBlur stdDeviation="12.5"/>
<feComposite in2="hardAlpha" operator="out"/>
<feColorMatrix type="matrix" values="0 0 0 0 0 0 0 0 0 0 0 0 0 0 0 0 0 0 0.25 0"/>
<feBlend mode="normal" in2="BackgroundImageFix" result="effect1_dropShadow_164_132054"/>
<feBlend mode="normal" in="SourceGraphic" in2="effect1_dropShadow_164_132054" result="shape"/>
</filter>
</defs>
</svg>
