<svg width="124" height="52" viewBox="0 0 124 52" fill="none" xmlns="http://www.w3.org/2000/svg">
<path d="M2 11C2 6.02944 6.02944 2 11 2H113C117.971 2 122 6.02944 122 11V41C122 45.9706 117.971 50 113 50H11C6.02944 50 2 45.9706 2 41V11Z" fill="#1F32DB"/>
<rect x="12" width="4" height="4" fill="#1F32DB"/>
<rect x="16" width="4" height="4" fill="#1F32DB"/>
<rect x="20" width="4" height="4" fill="#1F32DB"/>
<rect x="24" width="4" height="4" fill="#1F32DB"/>
<rect x="28" width="4" height="4" fill="#1F32DB"/>
<rect x="32" width="4" height="4" fill="#1F32DB"/>
<rect x="36" width="4" height="4" fill="#1F32DB"/>
<rect x="40" width="4" height="4" fill="#1F32DB"/>
<rect x="44" width="4" height="4" fill="#1F32DB"/>
<rect x="48" width="4" height="4" fill="#1F32DB"/>
<rect x="52" width="4" height="4" fill="#1F32DB"/>
<rect x="56" width="4" height="4" fill="#1F32DB"/>
<rect x="60" width="4" height="4" fill="#1F32DB"/>
<rect x="64" width="4" height="4" fill="#1F32DB"/>
<rect x="68" width="4" height="4" fill="#1F32DB"/>
<rect x="72" width="4" height="4" fill="#1F32DB"/>
<rect x="76" width="4" height="4" fill="#1F32DB"/>
<rect x="80" width="4" height="4" fill="#1F32DB"/>
<rect x="84" width="4" height="4" fill="#1F32DB"/>
<rect x="88" width="4" height="4" fill="#1F32DB"/>
<rect x="92" width="4" height="4" fill="#1F32DB"/>
<rect x="96" width="4" height="4" fill="#1F32DB"/>
<rect x="100" width="4" height="4" fill="#1F32DB"/>
<rect x="104" width="4" height="4" fill="#1F32DB"/>
<rect x="108" width="4" height="4" fill="#1F32DB"/>
<rect x="8" width="4" height="4" fill="#1F32DB"/>
<rect x="112" width="4" height="4" fill="#1F32DB"/>
<rect x="120" y="12" width="4" height="4" fill="#1F32DB"/>
<rect x="120" y="16" width="4" height="4" fill="#1F32DB"/>
<rect x="120" y="20" width="4" height="4" fill="#1F32DB"/>
<rect x="120" y="24" width="4" height="4" fill="#1F32DB"/>
<rect x="120" y="28" width="4" height="4" fill="#1F32DB"/>
<rect x="120" y="32" width="4" height="4" fill="#1F32DB"/>
<rect x="120" y="36" width="4" height="4" fill="#1F32DB"/>
<rect x="120" y="8" width="4" height="4" fill="#1F32DB"/>
<rect x="120" y="40" width="4" height="4" fill="#1F32DB"/>
<rect x="12" y="48" width="4" height="4" fill="#1F32DB"/>
<rect x="16" y="48" width="4" height="4" fill="#1F32DB"/>
<rect x="20" y="48" width="4" height="4" fill="#1F32DB"/>
<rect x="24" y="48" width="4" height="4" fill="#1F32DB"/>
<rect x="28" y="48" width="4" height="4" fill="#1F32DB"/>
<rect x="32" y="48" width="4" height="4" fill="#1F32DB"/>
<rect x="36" y="48" width="4" height="4" fill="#1F32DB"/>
<rect x="40" y="48" width="4" height="4" fill="#1F32DB"/>
<rect x="44" y="48" width="4" height="4" fill="#1F32DB"/>
<rect x="48" y="48" width="4" height="4" fill="#1F32DB"/>
<rect x="52" y="48" width="4" height="4" fill="#1F32DB"/>
<rect x="56" y="48" width="4" height="4" fill="#1F32DB"/>
<rect x="60" y="48" width="4" height="4" fill="#1F32DB"/>
<rect x="64" y="48" width="4" height="4" fill="#1F32DB"/>
<rect x="68" y="48" width="4" height="4" fill="#1F32DB"/>
<rect x="72" y="48" width="4" height="4" fill="#1F32DB"/>
<rect x="76" y="48" width="4" height="4" fill="#1F32DB"/>
<rect x="80" y="48" width="4" height="4" fill="#1F32DB"/>
<rect x="84" y="48" width="4" height="4" fill="#1F32DB"/>
<rect x="88" y="48" width="4" height="4" fill="#1F32DB"/>
<rect x="92" y="48" width="4" height="4" fill="#1F32DB"/>
<rect x="96" y="48" width="4" height="4" fill="#1F32DB"/>
<rect x="100" y="48" width="4" height="4" fill="#1F32DB"/>
<rect x="104" y="48" width="4" height="4" fill="#1F32DB"/>
<rect x="108" y="48" width="4" height="4" fill="#1F32DB"/>
<rect x="112" y="48" width="4" height="4" fill="#1F32DB"/>
<rect x="8" y="48" width="4" height="4" fill="#1F32DB"/>
<rect y="12" width="4" height="4" fill="#1F32DB"/>
<rect y="16" width="4" height="4" fill="#1F32DB"/>
<rect y="20" width="4" height="4" fill="#1F32DB"/>
<rect y="24" width="4" height="4" fill="#1F32DB"/>
<rect y="28" width="4" height="4" fill="#1F32DB"/>
<rect y="32" width="4" height="4" fill="#1F32DB"/>
<rect y="36" width="4" height="4" fill="#1F32DB"/>
<rect y="40" width="4" height="4" fill="#1F32DB"/>
<rect y="8" width="4" height="4" fill="#1F32DB"/>
<rect y="44" width="4" height="4" fill="#1F32DB"/>
<rect x="4" y="48" width="4" height="4" fill="#1F32DB"/>
<rect x="120" y="44" width="4" height="4" fill="#1F32DB"/>
<rect x="116" y="48" width="4" height="4" fill="#1F32DB"/>
<rect x="120" y="4" width="4" height="4" fill="#1F32DB"/>
<rect x="116" width="4" height="4" fill="#1F32DB"/>
<rect y="4" width="4" height="4" fill="#1F32DB"/>
<rect x="4" width="4" height="4" fill="#1F32DB"/>
</svg>
