<svg width="600" height="114" viewBox="0 0 600 114" fill="none" xmlns="http://www.w3.org/2000/svg">
<path d="M1.94604 26C1.94604 12.1929 12.9377 1 26.4967 1H571.521C585.08 1 596.072 12.1929 596.072 26V87C596.072 100.807 585.08 112 571.521 112H26.4967C12.9377 112 1.94604 100.807 1.94604 87V26Z" fill="white"/>
<rect x="24" width="6" height="6" fill="white"/>
<rect x="30" width="6" height="6" fill="white"/>
<rect x="36" width="6" height="6" fill="white"/>
<rect x="42" width="6" height="6" fill="white"/>
<rect x="48" width="6" height="6" fill="white"/>
<rect x="54" width="6" height="6" fill="white"/>
<rect x="60" width="6" height="6" fill="white"/>
<rect x="66" width="6" height="6" fill="white"/>
<rect x="72" width="6" height="6" fill="white"/>
<rect x="78" width="6" height="6" fill="white"/>
<rect x="84" width="6" height="6" fill="white"/>
<rect x="90" width="6" height="6" fill="white"/>
<rect x="96" width="6" height="6" fill="white"/>
<rect x="102" width="6" height="6" fill="white"/>
<rect x="108" width="6" height="6" fill="white"/>
<rect x="114" width="6" height="6" fill="white"/>
<rect x="120" width="6" height="6" fill="white"/>
<rect x="126" width="6" height="6" fill="white"/>
<rect x="132" width="6" height="6" fill="white"/>
<rect x="138" width="6" height="6" fill="white"/>
<rect x="144" width="6" height="6" fill="white"/>
<rect x="150" width="6" height="6" fill="white"/>
<rect x="156" width="6" height="6" fill="white"/>
<rect x="162" width="6" height="6" fill="white"/>
<rect x="168" width="6" height="6" fill="white"/>
<rect x="174" width="6" height="6" fill="white"/>
<rect x="180" width="6" height="6" fill="white"/>
<rect x="186" width="6" height="6" fill="white"/>
<rect x="192" width="6" height="6" fill="white"/>
<rect x="198" width="6" height="6" fill="white"/>
<rect x="204" width="6" height="6" fill="white"/>
<rect x="210" width="6" height="6" fill="white"/>
<rect x="216" width="6" height="6" fill="white"/>
<rect x="222" width="6" height="6" fill="white"/>
<rect x="228" width="6" height="6" fill="white"/>
<rect x="234" width="6" height="6" fill="white"/>
<rect x="240" width="6" height="6" fill="white"/>
<rect x="246" width="6" height="6" fill="white"/>
<rect x="252" width="6" height="6" fill="white"/>
<rect x="258" width="6" height="6" fill="white"/>
<rect x="264" width="6" height="6" fill="white"/>
<rect x="270" width="6" height="6" fill="white"/>
<rect x="276" width="6" height="6" fill="white"/>
<rect x="282" width="6" height="6" fill="white"/>
<rect x="288" width="6" height="6" fill="white"/>
<rect x="294" width="6" height="6" fill="white"/>
<rect x="300" width="6" height="6" fill="white"/>
<rect x="306" width="6" height="6" fill="white"/>
<rect x="312" width="6" height="6" fill="white"/>
<rect x="318" width="6" height="6" fill="white"/>
<rect x="324" width="6" height="6" fill="white"/>
<rect x="330" width="6" height="6" fill="white"/>
<rect x="336" width="6" height="6" fill="white"/>
<rect x="342" width="6" height="6" fill="white"/>
<rect x="348" width="6" height="6" fill="white"/>
<rect x="354" width="6" height="6" fill="white"/>
<rect x="360" width="6" height="6" fill="white"/>
<rect x="366" width="6" height="6" fill="white"/>
<rect x="372" width="6" height="6" fill="white"/>
<rect x="378" width="6" height="6" fill="white"/>
<rect x="384" width="6" height="6" fill="white"/>
<rect x="390" width="6" height="6" fill="white"/>
<rect x="396" width="6" height="6" fill="white"/>
<rect x="402" width="6" height="6" fill="white"/>
<rect x="408" width="6" height="6" fill="white"/>
<rect x="414" width="6" height="6" fill="white"/>
<rect x="420" width="6" height="6" fill="white"/>
<rect x="426" width="6" height="6" fill="white"/>
<rect x="432" width="6" height="6" fill="white"/>
<rect x="438" width="6" height="6" fill="white"/>
<rect x="444" width="6" height="6" fill="white"/>
<rect x="450" width="6" height="6" fill="white"/>
<rect x="456" width="6" height="6" fill="white"/>
<rect x="462" width="6" height="6" fill="white"/>
<rect x="468" width="6" height="6" fill="white"/>
<rect x="474" width="6" height="6" fill="white"/>
<rect x="480" width="6" height="6" fill="white"/>
<rect x="486" width="6" height="6" fill="white"/>
<rect x="492" width="6" height="6" fill="white"/>
<rect x="498" width="6" height="6" fill="white"/>
<rect x="504" width="6" height="6" fill="white"/>
<rect x="510" width="6" height="6" fill="white"/>
<rect x="516" width="6" height="6" fill="white"/>
<rect x="522" width="6" height="6" fill="white"/>
<rect x="528" width="6" height="6" fill="white"/>
<rect x="534" width="6" height="6" fill="white"/>
<rect x="540" width="6" height="6" fill="white"/>
<rect x="546" width="6" height="6" fill="white"/>
<rect x="552" width="6" height="6" fill="white"/>
<rect x="558" width="6" height="6" fill="white"/>
<rect x="564" width="6" height="6" fill="white"/>
<rect x="570" width="6" height="6" fill="white"/>
<rect x="594" y="24" width="6" height="6" fill="white"/>
<rect x="594" y="30" width="6" height="6" fill="white"/>
<rect x="594" y="36" width="6" height="6" fill="white"/>
<rect x="594" y="42" width="6" height="6" fill="white"/>
<rect x="594" y="48" width="6" height="6" fill="white"/>
<rect x="594" y="54" width="6" height="6" fill="white"/>
<rect x="594" y="60" width="6" height="6" fill="white"/>
<rect x="594" y="66" width="6" height="6" fill="white"/>
<rect x="594" y="72" width="6" height="6" fill="white"/>
<rect x="594" y="78" width="6" height="6" fill="white"/>
<rect x="594" y="84" width="6" height="6" fill="white"/>
<rect x="24" y="108" width="6" height="6" fill="white"/>
<rect x="30" y="108" width="6" height="6" fill="white"/>
<rect x="36" y="108" width="6" height="6" fill="white"/>
<rect x="42" y="108" width="6" height="6" fill="white"/>
<rect x="48" y="108" width="6" height="6" fill="white"/>
<rect x="54" y="108" width="6" height="6" fill="white"/>
<rect x="60" y="108" width="6" height="6" fill="white"/>
<rect x="66" y="108" width="6" height="6" fill="white"/>
<rect x="72" y="108" width="6" height="6" fill="white"/>
<rect x="78" y="108" width="6" height="6" fill="white"/>
<rect x="84" y="108" width="6" height="6" fill="white"/>
<rect x="90" y="108" width="6" height="6" fill="white"/>
<rect x="96" y="108" width="6" height="6" fill="white"/>
<rect x="102" y="108" width="6" height="6" fill="white"/>
<rect x="108" y="108" width="6" height="6" fill="white"/>
<rect x="114" y="108" width="6" height="6" fill="white"/>
<rect x="120" y="108" width="6" height="6" fill="white"/>
<rect x="126" y="108" width="6" height="6" fill="white"/>
<rect x="132" y="108" width="6" height="6" fill="white"/>
<rect x="138" y="108" width="6" height="6" fill="white"/>
<rect x="144" y="108" width="6" height="6" fill="white"/>
<rect x="150" y="108" width="6" height="6" fill="white"/>
<rect x="156" y="108" width="6" height="6" fill="white"/>
<rect x="162" y="108" width="6" height="6" fill="white"/>
<rect x="168" y="108" width="6" height="6" fill="white"/>
<rect x="174" y="108" width="6" height="6" fill="white"/>
<rect x="180" y="108" width="6" height="6" fill="white"/>
<rect x="186" y="108" width="6" height="6" fill="white"/>
<rect x="192" y="108" width="6" height="6" fill="white"/>
<rect x="198" y="108" width="6" height="6" fill="white"/>
<rect x="204" y="108" width="6" height="6" fill="white"/>
<rect x="210" y="108" width="6" height="6" fill="white"/>
<rect x="216" y="108" width="6" height="6" fill="white"/>
<rect x="222" y="108" width="6" height="6" fill="white"/>
<rect x="228" y="108" width="6" height="6" fill="white"/>
<rect x="234" y="108" width="6" height="6" fill="white"/>
<rect x="240" y="108" width="6" height="6" fill="white"/>
<rect x="246" y="108" width="6" height="6" fill="white"/>
<rect x="252" y="108" width="6" height="6" fill="white"/>
<rect x="258" y="108" width="6" height="6" fill="white"/>
<rect x="264" y="108" width="6" height="6" fill="white"/>
<rect x="270" y="108" width="6" height="6" fill="white"/>
<rect x="276" y="108" width="6" height="6" fill="white"/>
<rect x="282" y="108" width="6" height="6" fill="white"/>
<rect x="288" y="108" width="6" height="6" fill="white"/>
<rect x="294" y="108" width="6" height="6" fill="white"/>
<rect x="300" y="108" width="6" height="6" fill="white"/>
<rect x="306" y="108" width="6" height="6" fill="white"/>
<rect x="312" y="108" width="6" height="6" fill="white"/>
<rect x="318" y="108" width="6" height="6" fill="white"/>
<rect x="324" y="108" width="6" height="6" fill="white"/>
<rect x="330" y="108" width="6" height="6" fill="white"/>
<rect x="336" y="108" width="6" height="6" fill="white"/>
<rect x="342" y="108" width="6" height="6" fill="white"/>
<rect x="348" y="108" width="6" height="6" fill="white"/>
<rect x="354" y="108" width="6" height="6" fill="white"/>
<rect x="360" y="108" width="6" height="6" fill="white"/>
<rect x="366" y="108" width="6" height="6" fill="white"/>
<rect x="372" y="108" width="6" height="6" fill="white"/>
<rect x="378" y="108" width="6" height="6" fill="white"/>
<rect x="384" y="108" width="6" height="6" fill="white"/>
<rect x="390" y="108" width="6" height="6" fill="white"/>
<rect x="396" y="108" width="6" height="6" fill="white"/>
<rect x="402" y="108" width="6" height="6" fill="white"/>
<rect x="408" y="108" width="6" height="6" fill="white"/>
<rect x="414" y="108" width="6" height="6" fill="white"/>
<rect x="420" y="108" width="6" height="6" fill="white"/>
<rect x="426" y="108" width="6" height="6" fill="white"/>
<rect x="432" y="108" width="6" height="6" fill="white"/>
<rect x="438" y="108" width="6" height="6" fill="white"/>
<rect x="444" y="108" width="6" height="6" fill="white"/>
<rect x="450" y="108" width="6" height="6" fill="white"/>
<rect x="456" y="108" width="6" height="6" fill="white"/>
<rect x="462" y="108" width="6" height="6" fill="white"/>
<rect x="468" y="108" width="6" height="6" fill="white"/>
<rect x="474" y="108" width="6" height="6" fill="white"/>
<rect x="480" y="108" width="6" height="6" fill="white"/>
<rect x="486" y="108" width="6" height="6" fill="white"/>
<rect x="492" y="108" width="6" height="6" fill="white"/>
<rect x="498" y="108" width="6" height="6" fill="white"/>
<rect x="504" y="108" width="6" height="6" fill="white"/>
<rect x="510" y="108" width="6" height="6" fill="white"/>
<rect x="516" y="108" width="6" height="6" fill="white"/>
<rect x="522" y="108" width="6" height="6" fill="white"/>
<rect x="528" y="108" width="6" height="6" fill="white"/>
<rect x="534" y="108" width="6" height="6" fill="white"/>
<rect x="540" y="108" width="6" height="6" fill="white"/>
<rect x="546" y="108" width="6" height="6" fill="white"/>
<rect x="552" y="108" width="6" height="6" fill="white"/>
<rect x="558" y="108" width="6" height="6" fill="white"/>
<rect x="564" y="108" width="6" height="6" fill="white"/>
<rect x="570" y="108" width="6" height="6" fill="white"/>
<rect y="24" width="6" height="6" fill="white"/>
<rect y="30" width="6" height="6" fill="white"/>
<rect y="36" width="6" height="6" fill="white"/>
<rect y="42" width="6" height="6" fill="white"/>
<rect y="48" width="6" height="6" fill="white"/>
<rect y="54" width="6" height="6" fill="white"/>
<rect y="60" width="6" height="6" fill="white"/>
<rect y="66" width="6" height="6" fill="white"/>
<rect y="72" width="6" height="6" fill="white"/>
<rect y="78" width="6" height="6" fill="white"/>
<rect y="84" width="6" height="6" fill="white"/>
<rect y="90" width="6" height="6" fill="white"/>
<rect y="96" width="6" height="6" fill="white"/>
<rect x="6" y="102" width="6" height="6" fill="white"/>
<rect x="18" y="108" width="6" height="6" fill="white"/>
<rect x="12" y="108" width="6" height="6" fill="white"/>
<rect x="594" y="90" width="6" height="6" fill="white"/>
<rect x="588" y="96" width="6" height="6" fill="white"/>
<rect x="588" y="102" width="6" height="6" fill="white"/>
<rect x="576" y="108" width="6" height="6" fill="white"/>
<rect x="582" y="102" width="6" height="6" fill="white"/>
<rect x="576" width="6" height="6" fill="white"/>
<rect x="588" y="6" width="6" height="6" fill="white"/>
<rect x="588" y="12" width="6" height="6" fill="white"/>
<rect x="594" y="18" width="6" height="6" fill="white"/>
<rect x="582" width="6" height="6" fill="white"/>
<rect x="12" width="6" height="6" fill="white"/>
<rect x="6" y="6" width="6" height="6" fill="white"/>
<rect y="12" width="6" height="6" fill="white"/>
<rect y="18" width="6" height="6" fill="white"/>
<rect x="18" width="6" height="6" fill="white"/>
</svg>
