<svg width="664" height="179" viewBox="0 0 664 179" fill="none" xmlns="http://www.w3.org/2000/svg">
<g filter="url(#filter0_d_78_29259)">
<path d="M34.9463 55C34.9463 41.1929 45.938 30 59.4969 30H604.521C618.08 30 629.072 41.1929 629.072 55V116C629.072 129.807 618.08 141 604.521 141H59.4969C45.938 141 34.9463 129.807 34.9463 116V55Z" fill="white"/>
</g>
<rect x="61.4609" y="26" width="5.89216" height="6" fill="white"/>
<rect x="67.353" y="26" width="5.89216" height="6" fill="white"/>
<rect x="73.2451" y="26" width="5.89216" height="6" fill="white"/>
<rect x="79.1372" y="26" width="5.89216" height="6" fill="white"/>
<rect x="85.0293" y="26" width="5.89216" height="6" fill="white"/>
<rect x="90.9214" y="26" width="5.89216" height="6" fill="white"/>
<rect x="96.814" y="26" width="5.89216" height="6" fill="white"/>
<rect x="102.706" y="26" width="5.89216" height="6" fill="white"/>
<rect x="108.598" y="26" width="5.89216" height="6" fill="white"/>
<rect x="114.49" y="26" width="5.89216" height="6" fill="white"/>
<rect x="120.382" y="26" width="5.89216" height="6" fill="white"/>
<rect x="126.274" y="26" width="5.89216" height="6" fill="white"/>
<rect x="132.167" y="26" width="5.89216" height="6" fill="white"/>
<rect x="138.059" y="26" width="5.89216" height="6" fill="white"/>
<rect x="143.951" y="26" width="5.89216" height="6" fill="white"/>
<rect x="149.843" y="26" width="5.89216" height="6" fill="white"/>
<rect x="155.735" y="26" width="5.89216" height="6" fill="white"/>
<rect x="161.627" y="26" width="5.89216" height="6" fill="white"/>
<rect x="167.52" y="26" width="5.89216" height="6" fill="white"/>
<rect x="173.412" y="26" width="5.89216" height="6" fill="white"/>
<rect x="179.304" y="26" width="5.89216" height="6" fill="white"/>
<rect x="185.196" y="26" width="5.89216" height="6" fill="white"/>
<rect x="191.088" y="26" width="5.89216" height="6" fill="white"/>
<rect x="196.98" y="26" width="5.89216" height="6" fill="white"/>
<rect x="202.873" y="26" width="5.89216" height="6" fill="white"/>
<rect x="208.765" y="26" width="5.89216" height="6" fill="white"/>
<rect x="214.657" y="26" width="5.89216" height="6" fill="white"/>
<rect x="220.549" y="26" width="5.89216" height="6" fill="white"/>
<rect x="226.441" y="26" width="5.89216" height="6" fill="white"/>
<rect x="232.333" y="26" width="5.89216" height="6" fill="white"/>
<rect x="238.226" y="26" width="5.89216" height="6" fill="white"/>
<rect x="244.118" y="26" width="5.89216" height="6" fill="white"/>
<rect x="250.01" y="26" width="5.89216" height="6" fill="white"/>
<rect x="255.902" y="26" width="5.89216" height="6" fill="white"/>
<rect x="261.794" y="26" width="5.89216" height="6" fill="white"/>
<rect x="267.687" y="26" width="5.89216" height="6" fill="white"/>
<rect x="273.579" y="26" width="5.89216" height="6" fill="white"/>
<rect x="279.471" y="26" width="5.89216" height="6" fill="white"/>
<rect x="285.363" y="26" width="5.89216" height="6" fill="white"/>
<rect x="291.255" y="26" width="5.89216" height="6" fill="white"/>
<rect x="297.147" y="26" width="5.89216" height="6" fill="white"/>
<rect x="303.039" y="26" width="5.89216" height="6" fill="white"/>
<rect x="308.931" y="26" width="5.89216" height="6" fill="white"/>
<rect x="314.824" y="26" width="5.89216" height="6" fill="white"/>
<rect x="320.716" y="26" width="5.89216" height="6" fill="white"/>
<rect x="326.608" y="26" width="5.89216" height="6" fill="white"/>
<rect x="332.5" y="26" width="5.89216" height="6" fill="white"/>
<rect x="338.392" y="26" width="5.89216" height="6" fill="white"/>
<rect x="344.284" y="26" width="5.89216" height="6" fill="white"/>
<rect x="350.176" y="26" width="5.89216" height="6" fill="white"/>
<rect x="356.069" y="26" width="5.89216" height="6" fill="white"/>
<rect x="361.961" y="26" width="5.89216" height="6" fill="white"/>
<rect x="367.853" y="26" width="5.89216" height="6" fill="white"/>
<rect x="373.745" y="26" width="5.89216" height="6" fill="white"/>
<rect x="379.637" y="26" width="5.89216" height="6" fill="white"/>
<rect x="385.529" y="26" width="5.89216" height="6" fill="white"/>
<rect x="391.421" y="26" width="5.89216" height="6" fill="white"/>
<rect x="397.313" y="26" width="5.89216" height="6" fill="white"/>
<rect x="403.206" y="26" width="5.89216" height="6" fill="white"/>
<rect x="409.098" y="26" width="5.89216" height="6" fill="white"/>
<rect x="414.99" y="26" width="5.89216" height="6" fill="white"/>
<rect x="420.882" y="26" width="5.89216" height="6" fill="white"/>
<rect x="426.774" y="26" width="5.89216" height="6" fill="white"/>
<rect x="432.667" y="26" width="5.89216" height="6" fill="white"/>
<rect x="438.559" y="26" width="5.89216" height="6" fill="white"/>
<rect x="444.451" y="26" width="5.89216" height="6" fill="white"/>
<rect x="450.343" y="26" width="5.89216" height="6" fill="white"/>
<rect x="456.235" y="26" width="5.89216" height="6" fill="white"/>
<rect x="462.127" y="26" width="5.89216" height="6" fill="white"/>
<rect x="468.02" y="26" width="5.89216" height="6" fill="white"/>
<rect x="473.912" y="26" width="5.89216" height="6" fill="white"/>
<rect x="479.804" y="26" width="5.89216" height="6" fill="white"/>
<rect x="485.696" y="26" width="5.89216" height="6" fill="white"/>
<rect x="491.588" y="26" width="5.89216" height="6" fill="white"/>
<rect x="497.48" y="26" width="5.89216" height="6" fill="white"/>
<rect x="503.373" y="26" width="5.89216" height="6" fill="white"/>
<rect x="509.265" y="26" width="5.89216" height="6" fill="white"/>
<rect x="515.157" y="26" width="5.89216" height="6" fill="white"/>
<rect x="521.049" y="26" width="5.89216" height="6" fill="white"/>
<rect x="526.941" y="26" width="5.89216" height="6" fill="white"/>
<rect x="532.833" y="26" width="5.89216" height="6" fill="white"/>
<rect x="538.726" y="26" width="5.89216" height="6" fill="white"/>
<rect x="544.618" y="26" width="5.89216" height="6" fill="white"/>
<rect x="550.51" y="26" width="5.89216" height="6" fill="white"/>
<rect x="556.402" y="26" width="5.89216" height="6" fill="white"/>
<rect x="562.294" y="26" width="5.89216" height="6" fill="white"/>
<rect x="568.187" y="26" width="5.89216" height="6" fill="white"/>
<rect x="574.079" y="26" width="5.89216" height="6" fill="white"/>
<rect x="579.971" y="26" width="5.89216" height="6" fill="white"/>
<rect x="585.863" y="26" width="5.89216" height="6" fill="white"/>
<rect x="591.755" y="26" width="5.89216" height="6" fill="white"/>
<rect x="597.647" y="26" width="5.89216" height="6" fill="white"/>
<rect x="55.5688" y="26" width="5.89216" height="6" fill="white"/>
<rect x="603.539" y="26" width="5.89216" height="6" fill="white"/>
<rect x="627.108" y="56" width="5.89216" height="6" fill="white"/>
<rect x="627.108" y="62" width="5.89216" height="6" fill="white"/>
<rect x="627.108" y="68" width="5.89216" height="6" fill="white"/>
<rect x="627.108" y="74" width="5.89216" height="6" fill="white"/>
<rect x="627.108" y="80" width="5.89216" height="6" fill="white"/>
<rect x="627.108" y="86" width="5.89216" height="6" fill="white"/>
<rect x="627.108" y="92" width="5.89216" height="6" fill="white"/>
<rect x="627.108" y="98" width="5.89216" height="6" fill="white"/>
<rect x="627.108" y="104" width="5.89216" height="6" fill="white"/>
<rect x="627.108" y="110" width="5.89216" height="6" fill="white"/>
<rect x="627.108" y="50" width="5.89216" height="6" fill="white"/>
<rect x="627.108" y="116" width="5.89216" height="6" fill="white"/>
<rect x="61.4609" y="140" width="5.89216" height="6" fill="white"/>
<rect x="67.353" y="140" width="5.89216" height="6" fill="white"/>
<rect x="73.2451" y="140" width="5.89216" height="6" fill="white"/>
<rect x="79.1372" y="140" width="5.89216" height="6" fill="white"/>
<rect x="85.0293" y="140" width="5.89216" height="6" fill="white"/>
<rect x="90.9214" y="140" width="5.89216" height="6" fill="white"/>
<rect x="96.814" y="140" width="5.89216" height="6" fill="white"/>
<rect x="102.706" y="140" width="5.89216" height="6" fill="white"/>
<rect x="108.598" y="140" width="5.89216" height="6" fill="white"/>
<rect x="114.49" y="140" width="5.89216" height="6" fill="white"/>
<rect x="120.382" y="140" width="5.89216" height="6" fill="white"/>
<rect x="126.274" y="140" width="5.89216" height="6" fill="white"/>
<rect x="132.167" y="140" width="5.89216" height="6" fill="white"/>
<rect x="138.059" y="140" width="5.89216" height="6" fill="white"/>
<rect x="143.951" y="140" width="5.89216" height="6" fill="white"/>
<rect x="149.843" y="140" width="5.89216" height="6" fill="white"/>
<rect x="155.735" y="140" width="5.89216" height="6" fill="white"/>
<rect x="161.627" y="140" width="5.89216" height="6" fill="white"/>
<rect x="167.52" y="140" width="5.89216" height="6" fill="white"/>
<rect x="173.412" y="140" width="5.89216" height="6" fill="white"/>
<rect x="179.304" y="140" width="5.89216" height="6" fill="white"/>
<rect x="185.196" y="140" width="5.89216" height="6" fill="white"/>
<rect x="191.088" y="140" width="5.89216" height="6" fill="white"/>
<rect x="196.98" y="140" width="5.89216" height="6" fill="white"/>
<rect x="202.873" y="140" width="5.89216" height="6" fill="white"/>
<rect x="208.765" y="140" width="5.89216" height="6" fill="white"/>
<rect x="214.657" y="140" width="5.89216" height="6" fill="white"/>
<rect x="220.549" y="140" width="5.89216" height="6" fill="white"/>
<rect x="226.441" y="140" width="5.89216" height="6" fill="white"/>
<rect x="232.333" y="140" width="5.89216" height="6" fill="white"/>
<rect x="238.226" y="140" width="5.89216" height="6" fill="white"/>
<rect x="244.118" y="140" width="5.89216" height="6" fill="white"/>
<rect x="250.01" y="140" width="5.89216" height="6" fill="white"/>
<rect x="255.902" y="140" width="5.89216" height="6" fill="white"/>
<rect x="261.794" y="140" width="5.89216" height="6" fill="white"/>
<rect x="267.687" y="140" width="5.89216" height="6" fill="white"/>
<rect x="273.579" y="140" width="5.89216" height="6" fill="white"/>
<rect x="279.471" y="140" width="5.89216" height="6" fill="white"/>
<rect x="285.363" y="140" width="5.89216" height="6" fill="white"/>
<rect x="291.255" y="140" width="5.89216" height="6" fill="white"/>
<rect x="297.147" y="140" width="5.89216" height="6" fill="white"/>
<rect x="303.039" y="140" width="5.89216" height="6" fill="white"/>
<rect x="308.931" y="140" width="5.89216" height="6" fill="white"/>
<rect x="314.824" y="140" width="5.89216" height="6" fill="white"/>
<rect x="320.716" y="140" width="5.89216" height="6" fill="white"/>
<rect x="326.608" y="140" width="5.89216" height="6" fill="white"/>
<rect x="332.5" y="140" width="5.89216" height="6" fill="white"/>
<rect x="338.392" y="140" width="5.89216" height="6" fill="white"/>
<rect x="344.284" y="140" width="5.89216" height="6" fill="white"/>
<rect x="350.176" y="140" width="5.89216" height="6" fill="white"/>
<rect x="356.069" y="140" width="5.89216" height="6" fill="white"/>
<rect x="361.961" y="140" width="5.89216" height="6" fill="white"/>
<rect x="367.853" y="140" width="5.89216" height="6" fill="white"/>
<rect x="373.745" y="140" width="5.89216" height="6" fill="white"/>
<rect x="379.637" y="140" width="5.89216" height="6" fill="white"/>
<rect x="385.529" y="140" width="5.89216" height="6" fill="white"/>
<rect x="391.421" y="140" width="5.89216" height="6" fill="white"/>
<rect x="397.313" y="140" width="5.89216" height="6" fill="white"/>
<rect x="403.206" y="140" width="5.89216" height="6" fill="white"/>
<rect x="409.098" y="140" width="5.89216" height="6" fill="white"/>
<rect x="414.99" y="140" width="5.89216" height="6" fill="white"/>
<rect x="420.882" y="140" width="5.89216" height="6" fill="white"/>
<rect x="426.774" y="140" width="5.89216" height="6" fill="white"/>
<rect x="432.667" y="140" width="5.89216" height="6" fill="white"/>
<rect x="438.559" y="140" width="5.89216" height="6" fill="white"/>
<rect x="444.451" y="140" width="5.89216" height="6" fill="white"/>
<rect x="450.343" y="140" width="5.89216" height="6" fill="white"/>
<rect x="456.235" y="140" width="5.89216" height="6" fill="white"/>
<rect x="462.127" y="140" width="5.89216" height="6" fill="white"/>
<rect x="468.02" y="140" width="5.89216" height="6" fill="white"/>
<rect x="473.912" y="140" width="5.89216" height="6" fill="white"/>
<rect x="479.804" y="140" width="5.89216" height="6" fill="white"/>
<rect x="485.696" y="140" width="5.89216" height="6" fill="white"/>
<rect x="491.588" y="140" width="5.89216" height="6" fill="white"/>
<rect x="497.48" y="140" width="5.89216" height="6" fill="white"/>
<rect x="503.373" y="140" width="5.89216" height="6" fill="white"/>
<rect x="509.265" y="140" width="5.89216" height="6" fill="white"/>
<rect x="515.157" y="140" width="5.89216" height="6" fill="white"/>
<rect x="521.049" y="140" width="5.89216" height="6" fill="white"/>
<rect x="526.941" y="140" width="5.89216" height="6" fill="white"/>
<rect x="532.833" y="140" width="5.89216" height="6" fill="white"/>
<rect x="538.726" y="140" width="5.89216" height="6" fill="white"/>
<rect x="544.618" y="140" width="5.89216" height="6" fill="white"/>
<rect x="550.51" y="140" width="5.89216" height="6" fill="white"/>
<rect x="556.402" y="140" width="5.89216" height="6" fill="white"/>
<rect x="562.294" y="140" width="5.89216" height="6" fill="white"/>
<rect x="568.187" y="140" width="5.89216" height="6" fill="white"/>
<rect x="574.079" y="140" width="5.89216" height="6" fill="white"/>
<rect x="579.971" y="140" width="5.89216" height="6" fill="white"/>
<rect x="585.863" y="140" width="5.89216" height="6" fill="white"/>
<rect x="591.755" y="140" width="5.89216" height="6" fill="white"/>
<rect x="597.647" y="140" width="5.89216" height="6" fill="white"/>
<rect x="603.539" y="140" width="5.89216" height="6" fill="white"/>
<rect x="55.5688" y="140" width="5.89216" height="6" fill="white"/>
<rect x="32" y="56" width="5.89216" height="6" fill="white"/>
<rect x="32" y="62" width="5.89216" height="6" fill="white"/>
<rect x="32" y="68" width="5.89216" height="6" fill="white"/>
<rect x="32" y="74" width="5.89216" height="6" fill="white"/>
<rect x="32" y="80" width="5.89216" height="6" fill="white"/>
<rect x="32" y="86" width="5.89216" height="6" fill="white"/>
<rect x="32" y="92" width="5.89216" height="6" fill="white"/>
<rect x="32" y="98" width="5.89216" height="6" fill="white"/>
<rect x="32" y="104" width="5.89216" height="6" fill="white"/>
<rect x="32" y="110" width="5.89216" height="6" fill="white"/>
<rect x="32" y="116" width="5.89216" height="6" fill="white"/>
<rect x="32" y="50" width="5.89216" height="6" fill="white"/>
<rect x="32" y="122" width="5.89216" height="6" fill="white"/>
<rect x="37.8921" y="128" width="5.89216" height="6" fill="white"/>
<rect x="43.7842" y="134" width="5.89216" height="6" fill="white"/>
<rect x="49.6763" y="140" width="5.89216" height="6" fill="white"/>
<rect x="627.108" y="122" width="5.89216" height="6" fill="white"/>
<rect x="621.216" y="128" width="5.89216" height="6" fill="white"/>
<rect x="615.324" y="134" width="5.89216" height="6" fill="white"/>
<rect x="609.432" y="134" width="5.89216" height="6" fill="white"/>
<rect x="615.324" y="32" width="5.89216" height="6" fill="white"/>
<rect x="621.216" y="38" width="5.89216" height="6" fill="white"/>
<rect x="627.108" y="44" width="5.89216" height="6" fill="white"/>
<rect x="609.432" y="26" width="5.89216" height="6" fill="white"/>
<rect x="43.7842" y="32" width="5.89216" height="6" fill="white"/>
<rect x="37.8921" y="38" width="5.89216" height="6" fill="white"/>
<rect x="32" y="44" width="5.89216" height="6" fill="white"/>
<rect x="49.6763" y="26" width="5.89216" height="6" fill="white"/>
<defs>
<filter id="filter0_d_78_29259" x="0.946289" y="0" width="662.126" height="179" filterUnits="userSpaceOnUse" color-interpolation-filters="sRGB">
<feFlood flood-opacity="0" result="BackgroundImageFix"/>
<feColorMatrix in="SourceAlpha" type="matrix" values="0 0 0 0 0 0 0 0 0 0 0 0 0 0 0 0 0 0 127 0" result="hardAlpha"/>
<feMorphology radius="9" operator="dilate" in="SourceAlpha" result="effect1_dropShadow_78_29259"/>
<feOffset dy="4"/>
<feGaussianBlur stdDeviation="12.5"/>
<feComposite in2="hardAlpha" operator="out"/>
<feColorMatrix type="matrix" values="0 0 0 0 0 0 0 0 0 0 0 0 0 0 0 0 0 0 0.25 0"/>
<feBlend mode="normal" in2="BackgroundImageFix" result="effect1_dropShadow_78_29259"/>
<feBlend mode="normal" in="SourceGraphic" in2="effect1_dropShadow_78_29259" result="shape"/>
</filter>
</defs>
</svg>
