<svg width="1298" height="807" viewBox="0 0 1298 807" fill="none" xmlns="http://www.w3.org/2000/svg">
<g filter="url(#filter0_d_10_33637)">
<path d="M29 68C29 44.2518 48.2518 25 72 25H1226C1249.75 25 1269 44.2518 1269 68V731C1269 754.748 1249.75 774 1226 774H72C48.2518 774 29 754.748 29 731V68Z" fill="white"/>
</g>
<rect x="73" y="21" width="6" height="6" fill="white"/>
<rect x="79" y="21" width="6" height="6" fill="white"/>
<rect x="85" y="21" width="6" height="6" fill="white"/>
<rect x="91" y="21" width="6" height="6" fill="white"/>
<rect x="97" y="21" width="6" height="6" fill="white"/>
<rect x="103" y="21" width="6" height="6" fill="white"/>
<rect x="109" y="21" width="6" height="6" fill="white"/>
<rect x="115" y="21" width="6" height="6" fill="white"/>
<rect x="121" y="21" width="6" height="6" fill="white"/>
<rect x="127" y="21" width="6" height="6" fill="white"/>
<rect x="133" y="21" width="6" height="6" fill="white"/>
<rect x="139" y="21" width="6" height="6" fill="white"/>
<rect x="145" y="21" width="6" height="6" fill="white"/>
<rect x="151" y="21" width="6" height="6" fill="white"/>
<rect x="157" y="21" width="6" height="6" fill="white"/>
<rect x="163" y="21" width="6" height="6" fill="white"/>
<rect x="169" y="21" width="6" height="6" fill="white"/>
<rect x="175" y="21" width="6" height="6" fill="white"/>
<rect x="181" y="21" width="6" height="6" fill="white"/>
<rect x="187" y="21" width="6" height="6" fill="white"/>
<rect x="193" y="21" width="6" height="6" fill="white"/>
<rect x="199" y="21" width="6" height="6" fill="white"/>
<rect x="205" y="21" width="6" height="6" fill="white"/>
<rect x="211" y="21" width="6" height="6" fill="white"/>
<rect x="217" y="21" width="6" height="6" fill="white"/>
<rect x="223" y="21" width="6" height="6" fill="white"/>
<rect x="229" y="21" width="6" height="6" fill="white"/>
<rect x="235" y="21" width="6" height="6" fill="white"/>
<rect x="241" y="21" width="6" height="6" fill="white"/>
<rect x="247" y="21" width="6" height="6" fill="white"/>
<rect x="253" y="21" width="6" height="6" fill="white"/>
<rect x="259" y="21" width="6" height="6" fill="white"/>
<rect x="265" y="21" width="6" height="6" fill="white"/>
<rect x="271" y="21" width="6" height="6" fill="white"/>
<rect x="277" y="21" width="6" height="6" fill="white"/>
<rect x="283" y="21" width="6" height="6" fill="white"/>
<rect x="289" y="21" width="6" height="6" fill="white"/>
<rect x="295" y="21" width="6" height="6" fill="white"/>
<rect x="301" y="21" width="6" height="6" fill="white"/>
<rect x="307" y="21" width="6" height="6" fill="white"/>
<rect x="313" y="21" width="6" height="6" fill="white"/>
<rect x="319" y="21" width="6" height="6" fill="white"/>
<rect x="325" y="21" width="6" height="6" fill="white"/>
<rect x="331" y="21" width="6" height="6" fill="white"/>
<rect x="337" y="21" width="6" height="6" fill="white"/>
<rect x="343" y="21" width="6" height="6" fill="white"/>
<rect x="349" y="21" width="6" height="6" fill="white"/>
<rect x="355" y="21" width="6" height="6" fill="white"/>
<rect x="361" y="21" width="6" height="6" fill="white"/>
<rect x="367" y="21" width="6" height="6" fill="white"/>
<rect x="373" y="21" width="6" height="6" fill="white"/>
<rect x="379" y="21" width="6" height="6" fill="white"/>
<rect x="385" y="21" width="6" height="6" fill="white"/>
<rect x="391" y="21" width="6" height="6" fill="white"/>
<rect x="397" y="21" width="6" height="6" fill="white"/>
<rect x="403" y="21" width="6" height="6" fill="white"/>
<rect x="409" y="21" width="6" height="6" fill="white"/>
<rect x="415" y="21" width="6" height="6" fill="white"/>
<rect x="421" y="21" width="6" height="6" fill="white"/>
<rect x="427" y="21" width="6" height="6" fill="white"/>
<rect x="433" y="21" width="6" height="6" fill="white"/>
<rect x="439" y="21" width="6" height="6" fill="white"/>
<rect x="445" y="21" width="6" height="6" fill="white"/>
<rect x="451" y="21" width="6" height="6" fill="white"/>
<rect x="457" y="21" width="6" height="6" fill="white"/>
<rect x="463" y="21" width="6" height="6" fill="white"/>
<rect x="469" y="21" width="6" height="6" fill="white"/>
<rect x="475" y="21" width="6" height="6" fill="white"/>
<rect x="481" y="21" width="6" height="6" fill="white"/>
<rect x="487" y="21" width="6" height="6" fill="white"/>
<rect x="493" y="21" width="6" height="6" fill="white"/>
<rect x="499" y="21" width="6" height="6" fill="white"/>
<rect x="505" y="21" width="6" height="6" fill="white"/>
<rect x="511" y="21" width="6" height="6" fill="white"/>
<rect x="517" y="21" width="6" height="6" fill="white"/>
<rect x="523" y="21" width="6" height="6" fill="white"/>
<rect x="529" y="21" width="6" height="6" fill="white"/>
<rect x="535" y="21" width="6" height="6" fill="white"/>
<rect x="541" y="21" width="6" height="6" fill="white"/>
<rect x="547" y="21" width="6" height="6" fill="white"/>
<rect x="553" y="21" width="6" height="6" fill="white"/>
<rect x="559" y="21" width="6" height="6" fill="white"/>
<rect x="565" y="21" width="6" height="6" fill="white"/>
<rect x="571" y="21" width="6" height="6" fill="white"/>
<rect x="577" y="21" width="6" height="6" fill="white"/>
<rect x="583" y="21" width="6" height="6" fill="white"/>
<rect x="589" y="21" width="6" height="6" fill="white"/>
<rect x="595" y="21" width="6" height="6" fill="white"/>
<rect x="601" y="21" width="6" height="6" fill="white"/>
<rect x="607" y="21" width="6" height="6" fill="white"/>
<rect x="613" y="21" width="6" height="6" fill="white"/>
<rect x="619" y="21" width="6" height="6" fill="white"/>
<rect x="625" y="21" width="6" height="6" fill="white"/>
<rect x="631" y="21" width="6" height="6" fill="white"/>
<rect x="637" y="21" width="6" height="6" fill="white"/>
<rect x="643" y="21" width="6" height="6" fill="white"/>
<rect x="649" y="21" width="6" height="6" fill="white"/>
<rect x="655" y="21" width="6" height="6" fill="white"/>
<rect x="661" y="21" width="6" height="6" fill="white"/>
<rect x="667" y="21" width="6" height="6" fill="white"/>
<rect x="673" y="21" width="6" height="6" fill="white"/>
<rect x="679" y="21" width="6" height="6" fill="white"/>
<rect x="685" y="21" width="6" height="6" fill="white"/>
<rect x="691" y="21" width="6" height="6" fill="white"/>
<rect x="697" y="21" width="6" height="6" fill="white"/>
<rect x="703" y="21" width="6" height="6" fill="white"/>
<rect x="709" y="21" width="6" height="6" fill="white"/>
<rect x="715" y="21" width="6" height="6" fill="white"/>
<rect x="721" y="21" width="6" height="6" fill="white"/>
<rect x="727" y="21" width="6" height="6" fill="white"/>
<rect x="733" y="21" width="6" height="6" fill="white"/>
<rect x="739" y="21" width="6" height="6" fill="white"/>
<rect x="745" y="21" width="6" height="6" fill="white"/>
<rect x="751" y="21" width="6" height="6" fill="white"/>
<rect x="757" y="21" width="6" height="6" fill="white"/>
<rect x="763" y="21" width="6" height="6" fill="white"/>
<rect x="769" y="21" width="6" height="6" fill="white"/>
<rect x="775" y="21" width="6" height="6" fill="white"/>
<rect x="781" y="21" width="6" height="6" fill="white"/>
<rect x="787" y="21" width="6" height="6" fill="white"/>
<rect x="793" y="21" width="6" height="6" fill="white"/>
<rect x="799" y="21" width="6" height="6" fill="white"/>
<rect x="805" y="21" width="6" height="6" fill="white"/>
<rect x="811" y="21" width="6" height="6" fill="white"/>
<rect x="817" y="21" width="6" height="6" fill="white"/>
<rect x="823" y="21" width="6" height="6" fill="white"/>
<rect x="829" y="21" width="6" height="6" fill="white"/>
<rect x="835" y="21" width="6" height="6" fill="white"/>
<rect x="841" y="21" width="6" height="6" fill="white"/>
<rect x="847" y="21" width="6" height="6" fill="white"/>
<rect x="853" y="21" width="6" height="6" fill="white"/>
<rect x="859" y="21" width="6" height="6" fill="white"/>
<rect x="865" y="21" width="6" height="6" fill="white"/>
<rect x="871" y="21" width="6" height="6" fill="white"/>
<rect x="877" y="21" width="6" height="6" fill="white"/>
<rect x="883" y="21" width="6" height="6" fill="white"/>
<rect x="889" y="21" width="6" height="6" fill="white"/>
<rect x="895" y="21" width="6" height="6" fill="white"/>
<rect x="901" y="21" width="6" height="6" fill="white"/>
<rect x="907" y="21" width="6" height="6" fill="white"/>
<rect x="913" y="21" width="6" height="6" fill="white"/>
<rect x="919" y="21" width="6" height="6" fill="white"/>
<rect x="925" y="21" width="6" height="6" fill="white"/>
<rect x="931" y="21" width="6" height="6" fill="white"/>
<rect x="937" y="21" width="6" height="6" fill="white"/>
<rect x="943" y="21" width="6" height="6" fill="white"/>
<rect x="949" y="21" width="6" height="6" fill="white"/>
<rect x="955" y="21" width="6" height="6" fill="white"/>
<rect x="961" y="21" width="6" height="6" fill="white"/>
<rect x="967" y="21" width="6" height="6" fill="white"/>
<rect x="973" y="21" width="6" height="6" fill="white"/>
<rect x="979" y="21" width="6" height="6" fill="white"/>
<rect x="985" y="21" width="6" height="6" fill="white"/>
<rect x="991" y="21" width="6" height="6" fill="white"/>
<rect x="997" y="21" width="6" height="6" fill="white"/>
<rect x="1003" y="21" width="6" height="6" fill="white"/>
<rect x="1009" y="21" width="6" height="6" fill="white"/>
<rect x="1015" y="21" width="6" height="6" fill="white"/>
<rect x="1021" y="21" width="6" height="6" fill="white"/>
<rect x="1027" y="21" width="6" height="6" fill="white"/>
<rect x="1033" y="21" width="6" height="6" fill="white"/>
<rect x="1039" y="21" width="6" height="6" fill="white"/>
<rect x="1045" y="21" width="6" height="6" fill="white"/>
<rect x="1051" y="21" width="6" height="6" fill="white"/>
<rect x="1057" y="21" width="6" height="6" fill="white"/>
<rect x="1063" y="21" width="6" height="6" fill="white"/>
<rect x="1069" y="21" width="6" height="6" fill="white"/>
<rect x="1075" y="21" width="6" height="6" fill="white"/>
<rect x="1081" y="21" width="6" height="6" fill="white"/>
<rect x="1087" y="21" width="6" height="6" fill="white"/>
<rect x="1093" y="21" width="6" height="6" fill="white"/>
<rect x="1099" y="21" width="6" height="6" fill="white"/>
<rect x="1105" y="21" width="6" height="6" fill="white"/>
<rect x="1111" y="21" width="6" height="6" fill="white"/>
<rect x="1117" y="21" width="6" height="6" fill="white"/>
<rect x="1123" y="21" width="6" height="6" fill="white"/>
<rect x="1129" y="21" width="6" height="6" fill="white"/>
<rect x="1135" y="21" width="6" height="6" fill="white"/>
<rect x="1141" y="21" width="6" height="6" fill="white"/>
<rect x="1147" y="21" width="6" height="6" fill="white"/>
<rect x="1153" y="21" width="6" height="6" fill="white"/>
<rect x="1159" y="21" width="6" height="6" fill="white"/>
<rect x="1165" y="21" width="6" height="6" fill="white"/>
<rect x="1171" y="21" width="6" height="6" fill="white"/>
<rect x="1177" y="21" width="6" height="6" fill="white"/>
<rect x="1183" y="21" width="6" height="6" fill="white"/>
<rect x="1189" y="21" width="6" height="6" fill="white"/>
<rect x="1195" y="21" width="6" height="6" fill="white"/>
<rect x="1201" y="21" width="6" height="6" fill="white"/>
<rect x="1207" y="21" width="6" height="6" fill="white"/>
<rect x="1213" y="21" width="6" height="6" fill="white"/>
<rect x="1219" y="21" width="6" height="6" fill="white"/>
<rect x="67" y="21" width="6" height="6" fill="white"/>
<rect x="1225" y="21" width="6" height="6" fill="white"/>
<rect x="1267" y="69" width="6" height="6" fill="white"/>
<rect x="1267" y="75" width="6" height="6" fill="white"/>
<rect x="1267" y="81" width="6" height="6" fill="white"/>
<rect x="1267" y="87" width="6" height="6" fill="white"/>
<rect x="1267" y="93" width="6" height="6" fill="white"/>
<rect x="1267" y="99" width="6" height="6" fill="white"/>
<rect x="1267" y="105" width="6" height="6" fill="white"/>
<rect x="1267" y="111" width="6" height="6" fill="white"/>
<rect x="1267" y="117" width="6" height="6" fill="white"/>
<rect x="1267" y="123" width="6" height="6" fill="white"/>
<rect x="1267" y="129" width="6" height="6" fill="white"/>
<rect x="1267" y="135" width="6" height="6" fill="white"/>
<rect x="1267" y="141" width="6" height="6" fill="white"/>
<rect x="1267" y="147" width="6" height="6" fill="white"/>
<rect x="1267" y="153" width="6" height="6" fill="white"/>
<rect x="1267" y="159" width="6" height="6" fill="white"/>
<rect x="1267" y="165" width="6" height="6" fill="white"/>
<rect x="1267" y="171" width="6" height="6" fill="white"/>
<rect x="1267" y="177" width="6" height="6" fill="white"/>
<rect x="1267" y="183" width="6" height="6" fill="white"/>
<rect x="1267" y="189" width="6" height="6" fill="white"/>
<rect x="1267" y="195" width="6" height="6" fill="white"/>
<rect x="1267" y="201" width="6" height="6" fill="white"/>
<rect x="1267" y="207" width="6" height="6" fill="white"/>
<rect x="1267" y="213" width="6" height="6" fill="white"/>
<rect x="1267" y="219" width="6" height="6" fill="white"/>
<rect x="1267" y="225" width="6" height="6" fill="white"/>
<rect x="1267" y="231" width="6" height="6" fill="white"/>
<rect x="1267" y="237" width="6" height="6" fill="white"/>
<rect x="1267" y="243" width="6" height="6" fill="white"/>
<rect x="1267" y="249" width="6" height="6" fill="white"/>
<rect x="1267" y="255" width="6" height="6" fill="white"/>
<rect x="1267" y="261" width="6" height="6" fill="white"/>
<rect x="1267" y="267" width="6" height="6" fill="white"/>
<rect x="1267" y="273" width="6" height="6" fill="white"/>
<rect x="1267" y="279" width="6" height="6" fill="white"/>
<rect x="1267" y="285" width="6" height="6" fill="white"/>
<rect x="1267" y="291" width="6" height="6" fill="white"/>
<rect x="1267" y="297" width="6" height="6" fill="white"/>
<rect x="1267" y="303" width="6" height="6" fill="white"/>
<rect x="1267" y="309" width="6" height="6" fill="white"/>
<rect x="1267" y="315" width="6" height="6" fill="white"/>
<rect x="1267" y="321" width="6" height="6" fill="white"/>
<rect x="1267" y="327" width="6" height="6" fill="white"/>
<rect x="1267" y="333" width="6" height="6" fill="white"/>
<rect x="1267" y="339" width="6" height="6" fill="white"/>
<rect x="1267" y="345" width="6" height="6" fill="white"/>
<rect x="1267" y="351" width="6" height="6" fill="white"/>
<rect x="1267" y="357" width="6" height="6" fill="white"/>
<rect x="1267" y="363" width="6" height="6" fill="white"/>
<rect x="1267" y="369" width="6" height="6" fill="white"/>
<rect x="1267" y="375" width="6" height="6" fill="white"/>
<rect x="1267" y="381" width="6" height="6" fill="white"/>
<rect x="1267" y="387" width="6" height="6" fill="white"/>
<rect x="1267" y="393" width="6" height="6" fill="white"/>
<rect x="1267" y="399" width="6" height="6" fill="white"/>
<rect x="1267" y="405" width="6" height="6" fill="white"/>
<rect x="1267" y="411" width="6" height="6" fill="white"/>
<rect x="1267" y="417" width="6" height="6" fill="white"/>
<rect x="1267" y="423" width="6" height="6" fill="white"/>
<rect x="1267" y="429" width="6" height="6" fill="white"/>
<rect x="1267" y="435" width="6" height="6" fill="white"/>
<rect x="1267" y="441" width="6" height="6" fill="white"/>
<rect x="1267" y="447" width="6" height="6" fill="white"/>
<rect x="1267" y="453" width="6" height="6" fill="white"/>
<rect x="1267" y="459" width="6" height="6" fill="white"/>
<rect x="1267" y="465" width="6" height="6" fill="white"/>
<rect x="1267" y="471" width="6" height="6" fill="white"/>
<rect x="1267" y="477" width="6" height="6" fill="white"/>
<rect x="1267" y="483" width="6" height="6" fill="white"/>
<rect x="1267" y="489" width="6" height="6" fill="white"/>
<rect x="1267" y="495" width="6" height="6" fill="white"/>
<rect x="1267" y="501" width="6" height="6" fill="white"/>
<rect x="1267" y="507" width="6" height="6" fill="white"/>
<rect x="1267" y="513" width="6" height="6" fill="white"/>
<rect x="1267" y="519" width="6" height="6" fill="white"/>
<rect x="1267" y="525" width="6" height="6" fill="white"/>
<rect x="1267" y="531" width="6" height="6" fill="white"/>
<rect x="1267" y="537" width="6" height="6" fill="white"/>
<rect x="1267" y="543" width="6" height="6" fill="white"/>
<rect x="1267" y="549" width="6" height="6" fill="white"/>
<rect x="1267" y="555" width="6" height="6" fill="white"/>
<rect x="1267" y="561" width="6" height="6" fill="white"/>
<rect x="1267" y="567" width="6" height="6" fill="white"/>
<rect x="1267" y="573" width="6" height="6" fill="white"/>
<rect x="1267" y="579" width="6" height="6" fill="white"/>
<rect x="1267" y="585" width="6" height="6" fill="white"/>
<rect x="1267" y="591" width="6" height="6" fill="white"/>
<rect x="1267" y="597" width="6" height="6" fill="white"/>
<rect x="1267" y="603" width="6" height="6" fill="white"/>
<rect x="1267" y="609" width="6" height="6" fill="white"/>
<rect x="1267" y="615" width="6" height="6" fill="white"/>
<rect x="1267" y="621" width="6" height="6" fill="white"/>
<rect x="1267" y="627" width="6" height="6" fill="white"/>
<rect x="1267" y="633" width="6" height="6" fill="white"/>
<rect x="1267" y="639" width="6" height="6" fill="white"/>
<rect x="1267" y="645" width="6" height="6" fill="white"/>
<rect x="1267" y="651" width="6" height="6" fill="white"/>
<rect x="1267" y="657" width="6" height="6" fill="white"/>
<rect x="1267" y="663" width="6" height="6" fill="white"/>
<rect x="1267" y="669" width="6" height="6" fill="white"/>
<rect x="1267" y="675" width="6" height="6" fill="white"/>
<rect x="1267" y="681" width="6" height="6" fill="white"/>
<rect x="1267" y="687" width="6" height="6" fill="white"/>
<rect x="1267" y="693" width="6" height="6" fill="white"/>
<rect x="1267" y="699" width="6" height="6" fill="white"/>
<rect x="1267" y="705" width="6" height="6" fill="white"/>
<rect x="1267" y="711" width="6" height="6" fill="white"/>
<rect x="1267" y="717" width="6" height="6" fill="white"/>
<rect x="1267" y="723" width="6" height="6" fill="white"/>
<rect x="1267" y="63" width="6" height="6" fill="white"/>
<rect x="1267" y="729" width="6" height="6" fill="white"/>
<rect x="73" y="771" width="6" height="6" fill="white"/>
<rect x="79" y="771" width="6" height="6" fill="white"/>
<rect x="85" y="771" width="6" height="6" fill="white"/>
<rect x="91" y="771" width="6" height="6" fill="white"/>
<rect x="97" y="771" width="6" height="6" fill="white"/>
<rect x="103" y="771" width="6" height="6" fill="white"/>
<rect x="109" y="771" width="6" height="6" fill="white"/>
<rect x="115" y="771" width="6" height="6" fill="white"/>
<rect x="121" y="771" width="6" height="6" fill="white"/>
<rect x="127" y="771" width="6" height="6" fill="white"/>
<rect x="133" y="771" width="6" height="6" fill="white"/>
<rect x="139" y="771" width="6" height="6" fill="white"/>
<rect x="145" y="771" width="6" height="6" fill="white"/>
<rect x="151" y="771" width="6" height="6" fill="white"/>
<rect x="157" y="771" width="6" height="6" fill="white"/>
<rect x="163" y="771" width="6" height="6" fill="white"/>
<rect x="169" y="771" width="6" height="6" fill="white"/>
<rect x="175" y="771" width="6" height="6" fill="white"/>
<rect x="181" y="771" width="6" height="6" fill="white"/>
<rect x="187" y="771" width="6" height="6" fill="white"/>
<rect x="193" y="771" width="6" height="6" fill="white"/>
<rect x="199" y="771" width="6" height="6" fill="white"/>
<rect x="205" y="771" width="6" height="6" fill="white"/>
<rect x="211" y="771" width="6" height="6" fill="white"/>
<rect x="217" y="771" width="6" height="6" fill="white"/>
<rect x="223" y="771" width="6" height="6" fill="white"/>
<rect x="229" y="771" width="6" height="6" fill="white"/>
<rect x="235" y="771" width="6" height="6" fill="white"/>
<rect x="241" y="771" width="6" height="6" fill="white"/>
<rect x="247" y="771" width="6" height="6" fill="white"/>
<rect x="253" y="771" width="6" height="6" fill="white"/>
<rect x="259" y="771" width="6" height="6" fill="white"/>
<rect x="265" y="771" width="6" height="6" fill="white"/>
<rect x="271" y="771" width="6" height="6" fill="white"/>
<rect x="277" y="771" width="6" height="6" fill="white"/>
<rect x="283" y="771" width="6" height="6" fill="white"/>
<rect x="289" y="771" width="6" height="6" fill="white"/>
<rect x="295" y="771" width="6" height="6" fill="white"/>
<rect x="301" y="771" width="6" height="6" fill="white"/>
<rect x="307" y="771" width="6" height="6" fill="white"/>
<rect x="313" y="771" width="6" height="6" fill="white"/>
<rect x="319" y="771" width="6" height="6" fill="white"/>
<rect x="325" y="771" width="6" height="6" fill="white"/>
<rect x="331" y="771" width="6" height="6" fill="white"/>
<rect x="337" y="771" width="6" height="6" fill="white"/>
<rect x="343" y="771" width="6" height="6" fill="white"/>
<rect x="349" y="771" width="6" height="6" fill="white"/>
<rect x="355" y="771" width="6" height="6" fill="white"/>
<rect x="361" y="771" width="6" height="6" fill="white"/>
<rect x="367" y="771" width="6" height="6" fill="white"/>
<rect x="373" y="771" width="6" height="6" fill="white"/>
<rect x="379" y="771" width="6" height="6" fill="white"/>
<rect x="385" y="771" width="6" height="6" fill="white"/>
<rect x="391" y="771" width="6" height="6" fill="white"/>
<rect x="397" y="771" width="6" height="6" fill="white"/>
<rect x="403" y="771" width="6" height="6" fill="white"/>
<rect x="409" y="771" width="6" height="6" fill="white"/>
<rect x="415" y="771" width="6" height="6" fill="white"/>
<rect x="421" y="771" width="6" height="6" fill="white"/>
<rect x="427" y="771" width="6" height="6" fill="white"/>
<rect x="433" y="771" width="6" height="6" fill="white"/>
<rect x="439" y="771" width="6" height="6" fill="white"/>
<rect x="445" y="771" width="6" height="6" fill="white"/>
<rect x="451" y="771" width="6" height="6" fill="white"/>
<rect x="457" y="771" width="6" height="6" fill="white"/>
<rect x="463" y="771" width="6" height="6" fill="white"/>
<rect x="469" y="771" width="6" height="6" fill="white"/>
<rect x="475" y="771" width="6" height="6" fill="white"/>
<rect x="481" y="771" width="6" height="6" fill="white"/>
<rect x="487" y="771" width="6" height="6" fill="white"/>
<rect x="493" y="771" width="6" height="6" fill="white"/>
<rect x="499" y="771" width="6" height="6" fill="white"/>
<rect x="505" y="771" width="6" height="6" fill="white"/>
<rect x="511" y="771" width="6" height="6" fill="white"/>
<rect x="517" y="771" width="6" height="6" fill="white"/>
<rect x="523" y="771" width="6" height="6" fill="white"/>
<rect x="529" y="771" width="6" height="6" fill="white"/>
<rect x="535" y="771" width="6" height="6" fill="white"/>
<rect x="541" y="771" width="6" height="6" fill="white"/>
<rect x="547" y="771" width="6" height="6" fill="white"/>
<rect x="553" y="771" width="6" height="6" fill="white"/>
<rect x="559" y="771" width="6" height="6" fill="white"/>
<rect x="565" y="771" width="6" height="6" fill="white"/>
<rect x="571" y="771" width="6" height="6" fill="white"/>
<rect x="577" y="771" width="6" height="6" fill="white"/>
<rect x="583" y="771" width="6" height="6" fill="white"/>
<rect x="589" y="771" width="6" height="6" fill="white"/>
<rect x="595" y="771" width="6" height="6" fill="white"/>
<rect x="601" y="771" width="6" height="6" fill="white"/>
<rect x="607" y="771" width="6" height="6" fill="white"/>
<rect x="613" y="771" width="6" height="6" fill="white"/>
<rect x="619" y="771" width="6" height="6" fill="white"/>
<rect x="625" y="771" width="6" height="6" fill="white"/>
<rect x="631" y="771" width="6" height="6" fill="white"/>
<rect x="637" y="771" width="6" height="6" fill="white"/>
<rect x="643" y="771" width="6" height="6" fill="white"/>
<rect x="649" y="771" width="6" height="6" fill="white"/>
<rect x="655" y="771" width="6" height="6" fill="white"/>
<rect x="661" y="771" width="6" height="6" fill="white"/>
<rect x="667" y="771" width="6" height="6" fill="white"/>
<rect x="673" y="771" width="6" height="6" fill="white"/>
<rect x="679" y="771" width="6" height="6" fill="white"/>
<rect x="685" y="771" width="6" height="6" fill="white"/>
<rect x="691" y="771" width="6" height="6" fill="white"/>
<rect x="697" y="771" width="6" height="6" fill="white"/>
<rect x="703" y="771" width="6" height="6" fill="white"/>
<rect x="709" y="771" width="6" height="6" fill="white"/>
<rect x="715" y="771" width="6" height="6" fill="white"/>
<rect x="721" y="771" width="6" height="6" fill="white"/>
<rect x="727" y="771" width="6" height="6" fill="white"/>
<rect x="733" y="771" width="6" height="6" fill="white"/>
<rect x="739" y="771" width="6" height="6" fill="white"/>
<rect x="745" y="771" width="6" height="6" fill="white"/>
<rect x="751" y="771" width="6" height="6" fill="white"/>
<rect x="757" y="771" width="6" height="6" fill="white"/>
<rect x="763" y="771" width="6" height="6" fill="white"/>
<rect x="769" y="771" width="6" height="6" fill="white"/>
<rect x="775" y="771" width="6" height="6" fill="white"/>
<rect x="781" y="771" width="6" height="6" fill="white"/>
<rect x="787" y="771" width="6" height="6" fill="white"/>
<rect x="793" y="771" width="6" height="6" fill="white"/>
<rect x="799" y="771" width="6" height="6" fill="white"/>
<rect x="805" y="771" width="6" height="6" fill="white"/>
<rect x="811" y="771" width="6" height="6" fill="white"/>
<rect x="817" y="771" width="6" height="6" fill="white"/>
<rect x="823" y="771" width="6" height="6" fill="white"/>
<rect x="829" y="771" width="6" height="6" fill="white"/>
<rect x="835" y="771" width="6" height="6" fill="white"/>
<rect x="841" y="771" width="6" height="6" fill="white"/>
<rect x="847" y="771" width="6" height="6" fill="white"/>
<rect x="853" y="771" width="6" height="6" fill="white"/>
<rect x="859" y="771" width="6" height="6" fill="white"/>
<rect x="865" y="771" width="6" height="6" fill="white"/>
<rect x="871" y="771" width="6" height="6" fill="white"/>
<rect x="877" y="771" width="6" height="6" fill="white"/>
<rect x="883" y="771" width="6" height="6" fill="white"/>
<rect x="889" y="771" width="6" height="6" fill="white"/>
<rect x="895" y="771" width="6" height="6" fill="white"/>
<rect x="901" y="771" width="6" height="6" fill="white"/>
<rect x="907" y="771" width="6" height="6" fill="white"/>
<rect x="913" y="771" width="6" height="6" fill="white"/>
<rect x="919" y="771" width="6" height="6" fill="white"/>
<rect x="925" y="771" width="6" height="6" fill="white"/>
<rect x="931" y="771" width="6" height="6" fill="white"/>
<rect x="937" y="771" width="6" height="6" fill="white"/>
<rect x="943" y="771" width="6" height="6" fill="white"/>
<rect x="949" y="771" width="6" height="6" fill="white"/>
<rect x="955" y="771" width="6" height="6" fill="white"/>
<rect x="961" y="771" width="6" height="6" fill="white"/>
<rect x="967" y="771" width="6" height="6" fill="white"/>
<rect x="973" y="771" width="6" height="6" fill="white"/>
<rect x="979" y="771" width="6" height="6" fill="white"/>
<rect x="985" y="771" width="6" height="6" fill="white"/>
<rect x="991" y="771" width="6" height="6" fill="white"/>
<rect x="997" y="771" width="6" height="6" fill="white"/>
<rect x="1003" y="771" width="6" height="6" fill="white"/>
<rect x="1009" y="771" width="6" height="6" fill="white"/>
<rect x="1015" y="771" width="6" height="6" fill="white"/>
<rect x="1021" y="771" width="6" height="6" fill="white"/>
<rect x="1027" y="771" width="6" height="6" fill="white"/>
<rect x="1033" y="771" width="6" height="6" fill="white"/>
<rect x="1039" y="771" width="6" height="6" fill="white"/>
<rect x="1045" y="771" width="6" height="6" fill="white"/>
<rect x="1051" y="771" width="6" height="6" fill="white"/>
<rect x="1057" y="771" width="6" height="6" fill="white"/>
<rect x="1063" y="771" width="6" height="6" fill="white"/>
<rect x="1069" y="771" width="6" height="6" fill="white"/>
<rect x="1075" y="771" width="6" height="6" fill="white"/>
<rect x="1081" y="771" width="6" height="6" fill="white"/>
<rect x="1087" y="771" width="6" height="6" fill="white"/>
<rect x="1093" y="771" width="6" height="6" fill="white"/>
<rect x="1099" y="771" width="6" height="6" fill="white"/>
<rect x="1105" y="771" width="6" height="6" fill="white"/>
<rect x="1111" y="771" width="6" height="6" fill="white"/>
<rect x="1117" y="771" width="6" height="6" fill="white"/>
<rect x="1123" y="771" width="6" height="6" fill="white"/>
<rect x="1129" y="771" width="6" height="6" fill="white"/>
<rect x="1135" y="771" width="6" height="6" fill="white"/>
<rect x="1141" y="771" width="6" height="6" fill="white"/>
<rect x="1147" y="771" width="6" height="6" fill="white"/>
<rect x="1153" y="771" width="6" height="6" fill="white"/>
<rect x="1159" y="771" width="6" height="6" fill="white"/>
<rect x="1165" y="771" width="6" height="6" fill="white"/>
<rect x="1171" y="771" width="6" height="6" fill="white"/>
<rect x="1177" y="771" width="6" height="6" fill="white"/>
<rect x="1183" y="771" width="6" height="6" fill="white"/>
<rect x="1189" y="771" width="6" height="6" fill="white"/>
<rect x="1195" y="771" width="6" height="6" fill="white"/>
<rect x="1201" y="771" width="6" height="6" fill="white"/>
<rect x="1207" y="771" width="6" height="6" fill="white"/>
<rect x="1213" y="771" width="6" height="6" fill="white"/>
<rect x="1219" y="771" width="6" height="6" fill="white"/>
<rect x="1225" y="771" width="6" height="6" fill="white"/>
<rect x="67" y="771" width="6" height="6" fill="white"/>
<rect x="25" y="69" width="6" height="6" fill="white"/>
<rect x="25" y="75" width="6" height="6" fill="white"/>
<rect x="25" y="81" width="6" height="6" fill="white"/>
<rect x="25" y="87" width="6" height="6" fill="white"/>
<rect x="25" y="93" width="6" height="6" fill="white"/>
<rect x="25" y="99" width="6" height="6" fill="white"/>
<rect x="25" y="105" width="6" height="6" fill="white"/>
<rect x="25" y="111" width="6" height="6" fill="white"/>
<rect x="25" y="117" width="6" height="6" fill="white"/>
<rect x="25" y="123" width="6" height="6" fill="white"/>
<rect x="25" y="129" width="6" height="6" fill="white"/>
<rect x="25" y="135" width="6" height="6" fill="white"/>
<rect x="25" y="141" width="6" height="6" fill="white"/>
<rect x="25" y="147" width="6" height="6" fill="white"/>
<rect x="25" y="153" width="6" height="6" fill="white"/>
<rect x="25" y="159" width="6" height="6" fill="white"/>
<rect x="25" y="165" width="6" height="6" fill="white"/>
<rect x="25" y="171" width="6" height="6" fill="white"/>
<rect x="25" y="177" width="6" height="6" fill="white"/>
<rect x="25" y="183" width="6" height="6" fill="white"/>
<rect x="25" y="189" width="6" height="6" fill="white"/>
<rect x="25" y="195" width="6" height="6" fill="white"/>
<rect x="25" y="201" width="6" height="6" fill="white"/>
<rect x="25" y="207" width="6" height="6" fill="white"/>
<rect x="25" y="213" width="6" height="6" fill="white"/>
<rect x="25" y="219" width="6" height="6" fill="white"/>
<rect x="25" y="225" width="6" height="6" fill="white"/>
<rect x="25" y="231" width="6" height="6" fill="white"/>
<rect x="25" y="237" width="6" height="6" fill="white"/>
<rect x="25" y="243" width="6" height="6" fill="white"/>
<rect x="25" y="249" width="6" height="6" fill="white"/>
<rect x="25" y="255" width="6" height="6" fill="white"/>
<rect x="25" y="261" width="6" height="6" fill="white"/>
<rect x="25" y="267" width="6" height="6" fill="white"/>
<rect x="25" y="273" width="6" height="6" fill="white"/>
<rect x="25" y="279" width="6" height="6" fill="white"/>
<rect x="25" y="285" width="6" height="6" fill="white"/>
<rect x="25" y="291" width="6" height="6" fill="white"/>
<rect x="25" y="297" width="6" height="6" fill="white"/>
<rect x="25" y="303" width="6" height="6" fill="white"/>
<rect x="25" y="309" width="6" height="6" fill="white"/>
<rect x="25" y="315" width="6" height="6" fill="white"/>
<rect x="25" y="321" width="6" height="6" fill="white"/>
<rect x="25" y="327" width="6" height="6" fill="white"/>
<rect x="25" y="333" width="6" height="6" fill="white"/>
<rect x="25" y="339" width="6" height="6" fill="white"/>
<rect x="25" y="345" width="6" height="6" fill="white"/>
<rect x="25" y="351" width="6" height="6" fill="white"/>
<rect x="25" y="357" width="6" height="6" fill="white"/>
<rect x="25" y="363" width="6" height="6" fill="white"/>
<rect x="25" y="369" width="6" height="6" fill="white"/>
<rect x="25" y="375" width="6" height="6" fill="white"/>
<rect x="25" y="381" width="6" height="6" fill="white"/>
<rect x="25" y="387" width="6" height="6" fill="white"/>
<rect x="25" y="393" width="6" height="6" fill="white"/>
<rect x="25" y="399" width="6" height="6" fill="white"/>
<rect x="25" y="405" width="6" height="6" fill="white"/>
<rect x="25" y="411" width="6" height="6" fill="white"/>
<rect x="25" y="417" width="6" height="6" fill="white"/>
<rect x="25" y="423" width="6" height="6" fill="white"/>
<rect x="25" y="429" width="6" height="6" fill="white"/>
<rect x="25" y="435" width="6" height="6" fill="white"/>
<rect x="25" y="441" width="6" height="6" fill="white"/>
<rect x="25" y="447" width="6" height="6" fill="white"/>
<rect x="25" y="453" width="6" height="6" fill="white"/>
<rect x="25" y="459" width="6" height="6" fill="white"/>
<rect x="25" y="465" width="6" height="6" fill="white"/>
<rect x="25" y="471" width="6" height="6" fill="white"/>
<rect x="25" y="477" width="6" height="6" fill="white"/>
<rect x="25" y="483" width="6" height="6" fill="white"/>
<rect x="25" y="489" width="6" height="6" fill="white"/>
<rect x="25" y="495" width="6" height="6" fill="white"/>
<rect x="25" y="501" width="6" height="6" fill="white"/>
<rect x="25" y="507" width="6" height="6" fill="white"/>
<rect x="25" y="513" width="6" height="6" fill="white"/>
<rect x="25" y="519" width="6" height="6" fill="white"/>
<rect x="25" y="525" width="6" height="6" fill="white"/>
<rect x="25" y="531" width="6" height="6" fill="white"/>
<rect x="25" y="537" width="6" height="6" fill="white"/>
<rect x="25" y="543" width="6" height="6" fill="white"/>
<rect x="25" y="549" width="6" height="6" fill="white"/>
<rect x="25" y="555" width="6" height="6" fill="white"/>
<rect x="25" y="561" width="6" height="6" fill="white"/>
<rect x="25" y="567" width="6" height="6" fill="white"/>
<rect x="25" y="573" width="6" height="6" fill="white"/>
<rect x="25" y="579" width="6" height="6" fill="white"/>
<rect x="25" y="585" width="6" height="6" fill="white"/>
<rect x="25" y="591" width="6" height="6" fill="white"/>
<rect x="25" y="597" width="6" height="6" fill="white"/>
<rect x="25" y="603" width="6" height="6" fill="white"/>
<rect x="25" y="609" width="6" height="6" fill="white"/>
<rect x="25" y="615" width="6" height="6" fill="white"/>
<rect x="25" y="621" width="6" height="6" fill="white"/>
<rect x="25" y="627" width="6" height="6" fill="white"/>
<rect x="25" y="633" width="6" height="6" fill="white"/>
<rect x="25" y="639" width="6" height="6" fill="white"/>
<rect x="25" y="645" width="6" height="6" fill="white"/>
<rect x="25" y="651" width="6" height="6" fill="white"/>
<rect x="25" y="657" width="6" height="6" fill="white"/>
<rect x="25" y="663" width="6" height="6" fill="white"/>
<rect x="25" y="669" width="6" height="6" fill="white"/>
<rect x="25" y="675" width="6" height="6" fill="white"/>
<rect x="25" y="681" width="6" height="6" fill="white"/>
<rect x="25" y="687" width="6" height="6" fill="white"/>
<rect x="25" y="693" width="6" height="6" fill="white"/>
<rect x="25" y="699" width="6" height="6" fill="white"/>
<rect x="25" y="705" width="6" height="6" fill="white"/>
<rect x="25" y="711" width="6" height="6" fill="white"/>
<rect x="25" y="717" width="6" height="6" fill="white"/>
<rect x="25" y="723" width="6" height="6" fill="white"/>
<rect x="25" y="729" width="6" height="6" fill="white"/>
<rect x="25" y="63" width="6" height="6" fill="white"/>
<rect x="25" y="735" width="6" height="6" fill="white"/>
<rect x="31" y="741" width="6" height="6" fill="white"/>
<rect x="31" y="747" width="6" height="6" fill="white"/>
<rect x="37" y="753" width="6" height="6" fill="white"/>
<rect x="37" y="759" width="6" height="6" fill="white"/>
<rect x="49" y="765" width="6" height="6" fill="white"/>
<rect x="43" y="765" width="6" height="6" fill="white"/>
<rect x="55" y="771" width="6" height="6" fill="white"/>
<rect x="61" y="771" width="6" height="6" fill="white"/>
<rect x="1267" y="735" width="6" height="6" fill="white"/>
<rect x="1261" y="741" width="6" height="6" fill="white"/>
<rect x="1261" y="747" width="6" height="6" fill="white"/>
<rect x="1255" y="753" width="6" height="6" fill="white"/>
<rect x="1255" y="759" width="6" height="6" fill="white"/>
<rect x="1243" y="765" width="6" height="6" fill="white"/>
<rect x="1231" y="771" width="6" height="6" fill="white"/>
<rect x="1237" y="771" width="6" height="6" fill="white"/>
<rect x="1249" y="765" width="6" height="6" fill="white"/>
<rect x="1243" y="27" width="6" height="6" fill="white"/>
<rect x="1249" y="33" width="6" height="6" fill="white"/>
<rect x="1255" y="39" width="6" height="6" fill="white"/>
<rect x="1261" y="45" width="6" height="6" fill="white"/>
<rect x="1261" y="51" width="6" height="6" fill="white"/>
<rect x="1267" y="57" width="6" height="6" fill="white"/>
<rect x="1231" y="21" width="6" height="6" fill="white"/>
<rect x="1237" y="27" width="6" height="6" fill="white"/>
<rect x="49" y="27" width="6" height="6" fill="white"/>
<rect x="43" y="33" width="6" height="6" fill="white"/>
<rect x="37" y="39" width="6" height="6" fill="white"/>
<rect x="31" y="45" width="6" height="6" fill="white"/>
<rect x="31" y="51" width="6" height="6" fill="white"/>
<rect x="25" y="57" width="6" height="6" fill="white"/>
<rect x="55" y="27" width="6" height="6" fill="white"/>
<rect x="61" y="21" width="6" height="6" fill="white"/>
<defs>
<filter id="filter0_d_10_33637" x="0" y="0" width="1298" height="807" filterUnits="userSpaceOnUse" color-interpolation-filters="sRGB">
<feFlood flood-opacity="0" result="BackgroundImageFix"/>
<feColorMatrix in="SourceAlpha" type="matrix" values="0 0 0 0 0 0 0 0 0 0 0 0 0 0 0 0 0 0 127 0" result="hardAlpha"/>
<feMorphology radius="9" operator="dilate" in="SourceAlpha" result="effect1_dropShadow_10_33637"/>
<feOffset dy="4"/>
<feGaussianBlur stdDeviation="10"/>
<feComposite in2="hardAlpha" operator="out"/>
<feColorMatrix type="matrix" values="0 0 0 0 0 0 0 0 0 0 0 0 0 0 0 0 0 0 0.1 0"/>
<feBlend mode="normal" in2="BackgroundImageFix" result="effect1_dropShadow_10_33637"/>
<feBlend mode="normal" in="SourceGraphic" in2="effect1_dropShadow_10_33637" result="shape"/>
</filter>
</defs>
</svg>
