<svg width="1291" height="878" viewBox="0 0 1291 878" fill="none" xmlns="http://www.w3.org/2000/svg">
<g filter="url(#filter0_d_49_41075)">
<path d="M29 68C29 44.2518 48.1284 25 71.7244 25H1218.33C1241.92 25 1261.05 44.2518 1261.05 68V801.5C1261.05 825.248 1241.92 844.5 1218.33 844.5H71.7244C48.1284 844.5 29 825.248 29 801.5L29 68Z" fill="white"/>
</g>
<rect x="69" y="25" width="6" height="6" fill="white"/>
<rect x="75" y="25" width="6" height="6" fill="white"/>
<rect x="81" y="25" width="6" height="6" fill="white"/>
<rect x="87" y="25" width="6" height="6" fill="white"/>
<rect x="93" y="25" width="6" height="6" fill="white"/>
<rect x="99" y="25" width="6" height="6" fill="white"/>
<rect x="105" y="25" width="6" height="6" fill="white"/>
<rect x="111" y="25" width="6" height="6" fill="white"/>
<rect x="117" y="25" width="6" height="6" fill="white"/>
<rect x="123" y="25" width="6" height="6" fill="white"/>
<rect x="129" y="25" width="6" height="6" fill="white"/>
<rect x="135" y="25" width="6" height="6" fill="white"/>
<rect x="141" y="25" width="6" height="6" fill="white"/>
<rect x="147" y="25" width="6" height="6" fill="white"/>
<rect x="153" y="25" width="6" height="6" fill="white"/>
<rect x="159" y="25" width="6" height="6" fill="white"/>
<rect x="165" y="25" width="6" height="6" fill="white"/>
<rect x="171" y="25" width="6" height="6" fill="white"/>
<rect x="177" y="25" width="6" height="6" fill="white"/>
<rect x="183" y="25" width="6" height="6" fill="white"/>
<rect x="189" y="25" width="6" height="6" fill="white"/>
<rect x="195" y="25" width="6" height="6" fill="white"/>
<rect x="201" y="25" width="6" height="6" fill="white"/>
<rect x="207" y="25" width="6" height="6" fill="white"/>
<rect x="213" y="25" width="6" height="6" fill="white"/>
<rect x="219" y="25" width="6" height="6" fill="white"/>
<rect x="225" y="25" width="6" height="6" fill="white"/>
<rect x="231" y="25" width="6" height="6" fill="white"/>
<rect x="237" y="25" width="6" height="6" fill="white"/>
<rect x="243" y="25" width="6" height="6" fill="white"/>
<rect x="249" y="25" width="6" height="6" fill="white"/>
<rect x="255" y="25" width="6" height="6" fill="white"/>
<rect x="261" y="25" width="6" height="6" fill="white"/>
<rect x="267" y="25" width="6" height="6" fill="white"/>
<rect x="273" y="25" width="6" height="6" fill="white"/>
<rect x="279" y="25" width="6" height="6" fill="white"/>
<rect x="285" y="25" width="6" height="6" fill="white"/>
<rect x="291" y="25" width="6" height="6" fill="white"/>
<rect x="297" y="25" width="6" height="6" fill="white"/>
<rect x="303" y="25" width="6" height="6" fill="white"/>
<rect x="309" y="25" width="6" height="6" fill="white"/>
<rect x="315" y="25" width="6" height="6" fill="white"/>
<rect x="321" y="25" width="6" height="6" fill="white"/>
<rect x="327" y="25" width="6" height="6" fill="white"/>
<rect x="333" y="25" width="6" height="6" fill="white"/>
<rect x="339" y="25" width="6" height="6" fill="white"/>
<rect x="345" y="25" width="6" height="6" fill="white"/>
<rect x="351" y="25" width="6" height="6" fill="white"/>
<rect x="357" y="25" width="6" height="6" fill="white"/>
<rect x="363" y="25" width="6" height="6" fill="white"/>
<rect x="369" y="25" width="6" height="6" fill="white"/>
<rect x="375" y="25" width="6" height="6" fill="white"/>
<rect x="381" y="25" width="6" height="6" fill="white"/>
<rect x="387" y="25" width="6" height="6" fill="white"/>
<rect x="393" y="25" width="6" height="6" fill="white"/>
<rect x="399" y="25" width="6" height="6" fill="white"/>
<rect x="405" y="25" width="6" height="6" fill="white"/>
<rect x="411" y="25" width="6" height="6" fill="white"/>
<rect x="417" y="25" width="6" height="6" fill="white"/>
<rect x="423" y="25" width="6" height="6" fill="white"/>
<rect x="429" y="25" width="6" height="6" fill="white"/>
<rect x="435" y="25" width="6" height="6" fill="white"/>
<rect x="441" y="25" width="6" height="6" fill="white"/>
<rect x="447" y="25" width="6" height="6" fill="white"/>
<rect x="453" y="25" width="6" height="6" fill="white"/>
<rect x="459" y="25" width="6" height="6" fill="white"/>
<rect x="465" y="25" width="6" height="6" fill="white"/>
<rect x="471" y="25" width="6" height="6" fill="white"/>
<rect x="477" y="25" width="6" height="6" fill="white"/>
<rect x="483" y="25" width="6" height="6" fill="white"/>
<rect x="489" y="25" width="6" height="6" fill="white"/>
<rect x="495" y="25" width="6" height="6" fill="white"/>
<rect x="501" y="25" width="6" height="6" fill="white"/>
<rect x="507" y="25" width="6" height="6" fill="white"/>
<rect x="513" y="25" width="6" height="6" fill="white"/>
<rect x="519" y="25" width="6" height="6" fill="white"/>
<rect x="525" y="25" width="6" height="6" fill="white"/>
<rect x="531" y="25" width="6" height="6" fill="white"/>
<rect x="537" y="25" width="6" height="6" fill="white"/>
<rect x="543" y="25" width="6" height="6" fill="white"/>
<rect x="549" y="25" width="6" height="6" fill="white"/>
<rect x="555" y="25" width="6" height="6" fill="white"/>
<rect x="561" y="25" width="6" height="6" fill="white"/>
<rect x="567" y="25" width="6" height="6" fill="white"/>
<rect x="573" y="25" width="6" height="6" fill="white"/>
<rect x="579" y="25" width="6" height="6" fill="white"/>
<rect x="585" y="25" width="6" height="6" fill="white"/>
<rect x="591" y="25" width="6" height="6" fill="white"/>
<rect x="597" y="25" width="6" height="6" fill="white"/>
<rect x="603" y="25" width="6" height="6" fill="white"/>
<rect x="609" y="25" width="6" height="6" fill="white"/>
<rect x="615" y="25" width="6" height="6" fill="white"/>
<rect x="621" y="25" width="6" height="6" fill="white"/>
<rect x="627" y="25" width="6" height="6" fill="white"/>
<rect x="633" y="25" width="6" height="6" fill="white"/>
<rect x="639" y="25" width="6" height="6" fill="white"/>
<rect x="645" y="25" width="6" height="6" fill="white"/>
<rect x="651" y="25" width="6" height="6" fill="white"/>
<rect x="657" y="25" width="6" height="6" fill="white"/>
<rect x="663" y="25" width="6" height="6" fill="white"/>
<rect x="669" y="25" width="6" height="6" fill="white"/>
<rect x="675" y="25" width="6" height="6" fill="white"/>
<rect x="681" y="25" width="6" height="6" fill="white"/>
<rect x="687" y="25" width="6" height="6" fill="white"/>
<rect x="693" y="25" width="6" height="6" fill="white"/>
<rect x="699" y="25" width="6" height="6" fill="white"/>
<rect x="705" y="25" width="6" height="6" fill="white"/>
<rect x="711" y="25" width="6" height="6" fill="white"/>
<rect x="717" y="25" width="6" height="6" fill="white"/>
<rect x="723" y="25" width="6" height="6" fill="white"/>
<rect x="729" y="25" width="6" height="6" fill="white"/>
<rect x="735" y="25" width="6" height="6" fill="white"/>
<rect x="741" y="25" width="6" height="6" fill="white"/>
<rect x="747" y="25" width="6" height="6" fill="white"/>
<rect x="753" y="25" width="6" height="6" fill="white"/>
<rect x="759" y="25" width="6" height="6" fill="white"/>
<rect x="765" y="25" width="6" height="6" fill="white"/>
<rect x="771" y="25" width="6" height="6" fill="white"/>
<rect x="777" y="25" width="6" height="6" fill="white"/>
<rect x="783" y="25" width="6" height="6" fill="white"/>
<rect x="789" y="25" width="6" height="6" fill="white"/>
<rect x="795" y="25" width="6" height="6" fill="white"/>
<rect x="801" y="25" width="6" height="6" fill="white"/>
<rect x="807" y="25" width="6" height="6" fill="white"/>
<rect x="813" y="25" width="6" height="6" fill="white"/>
<rect x="819" y="25" width="6" height="6" fill="white"/>
<rect x="825" y="25" width="6" height="6" fill="white"/>
<rect x="831" y="25" width="6" height="6" fill="white"/>
<rect x="837" y="25" width="6" height="6" fill="white"/>
<rect x="843" y="25" width="6" height="6" fill="white"/>
<rect x="849" y="25" width="6" height="6" fill="white"/>
<rect x="855" y="25" width="6" height="6" fill="white"/>
<rect x="861" y="25" width="6" height="6" fill="white"/>
<rect x="867" y="25" width="6" height="6" fill="white"/>
<rect x="873" y="25" width="6" height="6" fill="white"/>
<rect x="879" y="25" width="6" height="6" fill="white"/>
<rect x="885" y="25" width="6" height="6" fill="white"/>
<rect x="891" y="25" width="6" height="6" fill="white"/>
<rect x="897" y="25" width="6" height="6" fill="white"/>
<rect x="903" y="25" width="6" height="6" fill="white"/>
<rect x="909" y="25" width="6" height="6" fill="white"/>
<rect x="915" y="25" width="6" height="6" fill="white"/>
<rect x="921" y="25" width="6" height="6" fill="white"/>
<rect x="927" y="25" width="6" height="6" fill="white"/>
<rect x="933" y="25" width="6" height="6" fill="white"/>
<rect x="939" y="25" width="6" height="6" fill="white"/>
<rect x="945" y="25" width="6" height="6" fill="white"/>
<rect x="951" y="25" width="6" height="6" fill="white"/>
<rect x="957" y="25" width="6" height="6" fill="white"/>
<rect x="963" y="25" width="6" height="6" fill="white"/>
<rect x="969" y="25" width="6" height="6" fill="white"/>
<rect x="975" y="25" width="6" height="6" fill="white"/>
<rect x="981" y="25" width="6" height="6" fill="white"/>
<rect x="987" y="25" width="6" height="6" fill="white"/>
<rect x="993" y="25" width="6" height="6" fill="white"/>
<rect x="999" y="25" width="6" height="6" fill="white"/>
<rect x="1005" y="25" width="6" height="6" fill="white"/>
<rect x="1011" y="25" width="6" height="6" fill="white"/>
<rect x="1017" y="25" width="6" height="6" fill="white"/>
<rect x="1023" y="25" width="6" height="6" fill="white"/>
<rect x="1029" y="25" width="6" height="6" fill="white"/>
<rect x="1035" y="25" width="6" height="6" fill="white"/>
<rect x="1041" y="25" width="6" height="6" fill="white"/>
<rect x="1047" y="25" width="6" height="6" fill="white"/>
<rect x="1053" y="25" width="6" height="6" fill="white"/>
<rect x="1059" y="25" width="6" height="6" fill="white"/>
<rect x="1065" y="25" width="6" height="6" fill="white"/>
<rect x="1071" y="25" width="6" height="6" fill="white"/>
<rect x="1077" y="25" width="6" height="6" fill="white"/>
<rect x="1083" y="25" width="6" height="6" fill="white"/>
<rect x="1089" y="25" width="6" height="6" fill="white"/>
<rect x="1095" y="25" width="6" height="6" fill="white"/>
<rect x="1101" y="25" width="6" height="6" fill="white"/>
<rect x="1107" y="25" width="6" height="6" fill="white"/>
<rect x="1113" y="25" width="6" height="6" fill="white"/>
<rect x="1119" y="25" width="6" height="6" fill="white"/>
<rect x="1125" y="25" width="6" height="6" fill="white"/>
<rect x="1131" y="25" width="6" height="6" fill="white"/>
<rect x="1137" y="25" width="6" height="6" fill="white"/>
<rect x="1143" y="25" width="6" height="6" fill="white"/>
<rect x="1149" y="25" width="6" height="6" fill="white"/>
<rect x="1155" y="25" width="6" height="6" fill="white"/>
<rect x="1161" y="25" width="6" height="6" fill="white"/>
<rect x="1167" y="25" width="6" height="6" fill="white"/>
<rect x="1173" y="25" width="6" height="6" fill="white"/>
<rect x="1179" y="25" width="6" height="6" fill="white"/>
<rect x="1185" y="25" width="6" height="6" fill="white"/>
<rect x="1191" y="25" width="6" height="6" fill="white"/>
<rect x="1197" y="25" width="6" height="6" fill="white"/>
<rect x="1203" y="25" width="6" height="6" fill="white"/>
<rect x="1209" y="25" width="6" height="6" fill="white"/>
<rect x="1215" y="25" width="6" height="6" fill="white"/>
<rect x="1257" y="67" width="6" height="6" fill="white"/>
<rect x="1257" y="73" width="6" height="6" fill="white"/>
<rect x="1257" y="79" width="6" height="6" fill="white"/>
<rect x="1257" y="85" width="6" height="6" fill="white"/>
<rect x="1257" y="91" width="6" height="6" fill="white"/>
<rect x="1257" y="97" width="6" height="6" fill="white"/>
<rect x="1257" y="103" width="6" height="6" fill="white"/>
<rect x="1257" y="109" width="6" height="6" fill="white"/>
<rect x="1257" y="115" width="6" height="6" fill="white"/>
<rect x="1257" y="121" width="6" height="6" fill="white"/>
<rect x="1257" y="127" width="6" height="6" fill="white"/>
<rect x="1257" y="133" width="6" height="6" fill="white"/>
<rect x="1257" y="139" width="6" height="6" fill="white"/>
<rect x="1257" y="145" width="6" height="6" fill="white"/>
<rect x="1257" y="151" width="6" height="6" fill="white"/>
<rect x="1257" y="157" width="6" height="6" fill="white"/>
<rect x="1257" y="163" width="6" height="6" fill="white"/>
<rect x="1257" y="169" width="6" height="6" fill="white"/>
<rect x="1257" y="175" width="6" height="6" fill="white"/>
<rect x="1257" y="181" width="6" height="6" fill="white"/>
<rect x="1257" y="187" width="6" height="6" fill="white"/>
<rect x="1257" y="193" width="6" height="6" fill="white"/>
<rect x="1257" y="199" width="6" height="6" fill="white"/>
<rect x="1257" y="205" width="6" height="6" fill="white"/>
<rect x="1257" y="211" width="6" height="6" fill="white"/>
<rect x="1257" y="217" width="6" height="6" fill="white"/>
<rect x="1257" y="223" width="6" height="6" fill="white"/>
<rect x="1257" y="229" width="6" height="6" fill="white"/>
<rect x="1257" y="235" width="6" height="6" fill="white"/>
<rect x="1257" y="241" width="6" height="6" fill="white"/>
<rect x="1257" y="247" width="6" height="6" fill="white"/>
<rect x="1257" y="253" width="6" height="6" fill="white"/>
<rect x="1257" y="259" width="6" height="6" fill="white"/>
<rect x="1257" y="265" width="6" height="6" fill="white"/>
<rect x="1257" y="271" width="6" height="6" fill="white"/>
<rect x="1257" y="277" width="6" height="6" fill="white"/>
<rect x="1257" y="283" width="6" height="6" fill="white"/>
<rect x="1257" y="289" width="6" height="6" fill="white"/>
<rect x="1257" y="295" width="6" height="6" fill="white"/>
<rect x="1257" y="301" width="6" height="6" fill="white"/>
<rect x="1257" y="307" width="6" height="6" fill="white"/>
<rect x="1257" y="313" width="6" height="6" fill="white"/>
<rect x="1257" y="319" width="6" height="6" fill="white"/>
<rect x="1257" y="325" width="6" height="6" fill="white"/>
<rect x="1257" y="331" width="6" height="6" fill="white"/>
<rect x="1257" y="337" width="6" height="6" fill="white"/>
<rect x="1257" y="343" width="6" height="6" fill="white"/>
<rect x="1257" y="349" width="6" height="6" fill="white"/>
<rect x="1257" y="355" width="6" height="6" fill="white"/>
<rect x="1257" y="361" width="6" height="6" fill="white"/>
<rect x="1257" y="367" width="6" height="6" fill="white"/>
<rect x="1257" y="373" width="6" height="6" fill="white"/>
<rect x="1257" y="379" width="6" height="6" fill="white"/>
<rect x="1257" y="385" width="6" height="6" fill="white"/>
<rect x="1257" y="391" width="6" height="6" fill="white"/>
<rect x="1257" y="397" width="6" height="6" fill="white"/>
<rect x="1257" y="403" width="6" height="6" fill="white"/>
<rect x="1257" y="409" width="6" height="6" fill="white"/>
<rect x="1257" y="415" width="6" height="6" fill="white"/>
<rect x="1257" y="421" width="6" height="6" fill="white"/>
<rect x="1257" y="427" width="6" height="6" fill="white"/>
<rect x="1257" y="433" width="6" height="6" fill="white"/>
<rect x="1257" y="439" width="6" height="6" fill="white"/>
<rect x="1257" y="445" width="6" height="6" fill="white"/>
<rect x="1257" y="451" width="6" height="6" fill="white"/>
<rect x="1257" y="457" width="6" height="6" fill="white"/>
<rect x="1257" y="463" width="6" height="6" fill="white"/>
<rect x="1257" y="469" width="6" height="6" fill="white"/>
<rect x="1257" y="475" width="6" height="6" fill="white"/>
<rect x="1257" y="481" width="6" height="6" fill="white"/>
<rect x="1257" y="487" width="6" height="6" fill="white"/>
<rect x="1257" y="493" width="6" height="6" fill="white"/>
<rect x="1257" y="499" width="6" height="6" fill="white"/>
<rect x="1257" y="505" width="6" height="6" fill="white"/>
<rect x="1257" y="511" width="6" height="6" fill="white"/>
<rect x="1257" y="517" width="6" height="6" fill="white"/>
<rect x="1257" y="523" width="6" height="6" fill="white"/>
<rect x="1257" y="529" width="6" height="6" fill="white"/>
<rect x="1257" y="535" width="6" height="6" fill="white"/>
<rect x="1257" y="541" width="6" height="6" fill="white"/>
<rect x="1257" y="547" width="6" height="6" fill="white"/>
<rect x="1257" y="553" width="6" height="6" fill="white"/>
<rect x="1257" y="559" width="6" height="6" fill="white"/>
<rect x="1257" y="565" width="6" height="6" fill="white"/>
<rect x="1257" y="571" width="6" height="6" fill="white"/>
<rect x="1257" y="577" width="6" height="6" fill="white"/>
<rect x="1257" y="583" width="6" height="6" fill="white"/>
<rect x="1257" y="589" width="6" height="6" fill="white"/>
<rect x="1257" y="595" width="6" height="6" fill="white"/>
<rect x="1257" y="601" width="6" height="6" fill="white"/>
<rect x="1257" y="607" width="6" height="6" fill="white"/>
<rect x="1257" y="613" width="6" height="6" fill="white"/>
<rect x="1257" y="619" width="6" height="6" fill="white"/>
<rect x="1257" y="625" width="6" height="6" fill="white"/>
<rect x="1257" y="631" width="6" height="6" fill="white"/>
<rect x="1257" y="637" width="6" height="6" fill="white"/>
<rect x="1257" y="643" width="6" height="6" fill="white"/>
<rect x="1257" y="649" width="6" height="6" fill="white"/>
<rect x="1257" y="655" width="6" height="6" fill="white"/>
<rect x="1257" y="661" width="6" height="6" fill="white"/>
<rect x="1257" y="667" width="6" height="6" fill="white"/>
<rect x="1257" y="673" width="6" height="6" fill="white"/>
<rect x="1257" y="679" width="6" height="6" fill="white"/>
<rect x="1257" y="685" width="6" height="6" fill="white"/>
<rect x="1257" y="691" width="6" height="6" fill="white"/>
<rect x="1257" y="697" width="6" height="6" fill="white"/>
<rect x="1257" y="703" width="6" height="6" fill="white"/>
<rect x="1257" y="709" width="6" height="6" fill="white"/>
<rect x="1257" y="715" width="6" height="6" fill="white"/>
<rect x="1257" y="721" width="6" height="6" fill="white"/>
<rect x="1257" y="727" width="6" height="6" fill="white"/>
<rect x="1257" y="733" width="6" height="6" fill="white"/>
<rect x="1257" y="739" width="6" height="6" fill="white"/>
<rect x="1257" y="745" width="6" height="6" fill="white"/>
<rect x="1257" y="751" width="6" height="6" fill="white"/>
<rect x="1257" y="757" width="6" height="6" fill="white"/>
<rect x="1257" y="763" width="6" height="6" fill="white"/>
<rect x="1257" y="769" width="6" height="6" fill="white"/>
<rect x="1257" y="775" width="6" height="6" fill="white"/>
<rect x="1257" y="781" width="6" height="6" fill="white"/>
<rect x="1257" y="787" width="6" height="6" fill="white"/>
<rect x="1257" y="793" width="6" height="6" fill="white"/>
<rect x="1257" y="799" width="6" height="6" fill="white"/>
<rect x="69" y="841" width="6" height="6" fill="white"/>
<rect x="75" y="841" width="6" height="6" fill="white"/>
<rect x="81" y="841" width="6" height="6" fill="white"/>
<rect x="87" y="841" width="6" height="6" fill="white"/>
<rect x="93" y="841" width="6" height="6" fill="white"/>
<rect x="99" y="841" width="6" height="6" fill="white"/>
<rect x="105" y="841" width="6" height="6" fill="white"/>
<rect x="111" y="841" width="6" height="6" fill="white"/>
<rect x="117" y="841" width="6" height="6" fill="white"/>
<rect x="123" y="841" width="6" height="6" fill="white"/>
<rect x="129" y="841" width="6" height="6" fill="white"/>
<rect x="135" y="841" width="6" height="6" fill="white"/>
<rect x="141" y="841" width="6" height="6" fill="white"/>
<rect x="147" y="841" width="6" height="6" fill="white"/>
<rect x="153" y="841" width="6" height="6" fill="white"/>
<rect x="159" y="841" width="6" height="6" fill="white"/>
<rect x="165" y="841" width="6" height="6" fill="white"/>
<rect x="171" y="841" width="6" height="6" fill="white"/>
<rect x="177" y="841" width="6" height="6" fill="white"/>
<rect x="183" y="841" width="6" height="6" fill="white"/>
<rect x="189" y="841" width="6" height="6" fill="white"/>
<rect x="195" y="841" width="6" height="6" fill="white"/>
<rect x="201" y="841" width="6" height="6" fill="white"/>
<rect x="207" y="841" width="6" height="6" fill="white"/>
<rect x="213" y="841" width="6" height="6" fill="white"/>
<rect x="219" y="841" width="6" height="6" fill="white"/>
<rect x="225" y="841" width="6" height="6" fill="white"/>
<rect x="231" y="841" width="6" height="6" fill="white"/>
<rect x="237" y="841" width="6" height="6" fill="white"/>
<rect x="243" y="841" width="6" height="6" fill="white"/>
<rect x="249" y="841" width="6" height="6" fill="white"/>
<rect x="255" y="841" width="6" height="6" fill="white"/>
<rect x="261" y="841" width="6" height="6" fill="white"/>
<rect x="267" y="841" width="6" height="6" fill="white"/>
<rect x="273" y="841" width="6" height="6" fill="white"/>
<rect x="279" y="841" width="6" height="6" fill="white"/>
<rect x="285" y="841" width="6" height="6" fill="white"/>
<rect x="291" y="841" width="6" height="6" fill="white"/>
<rect x="297" y="841" width="6" height="6" fill="white"/>
<rect x="303" y="841" width="6" height="6" fill="white"/>
<rect x="309" y="841" width="6" height="6" fill="white"/>
<rect x="315" y="841" width="6" height="6" fill="white"/>
<rect x="321" y="841" width="6" height="6" fill="white"/>
<rect x="327" y="841" width="6" height="6" fill="white"/>
<rect x="333" y="841" width="6" height="6" fill="white"/>
<rect x="339" y="841" width="6" height="6" fill="white"/>
<rect x="345" y="841" width="6" height="6" fill="white"/>
<rect x="351" y="841" width="6" height="6" fill="white"/>
<rect x="357" y="841" width="6" height="6" fill="white"/>
<rect x="363" y="841" width="6" height="6" fill="white"/>
<rect x="369" y="841" width="6" height="6" fill="white"/>
<rect x="375" y="841" width="6" height="6" fill="white"/>
<rect x="381" y="841" width="6" height="6" fill="white"/>
<rect x="387" y="841" width="6" height="6" fill="white"/>
<rect x="393" y="841" width="6" height="6" fill="white"/>
<rect x="399" y="841" width="6" height="6" fill="white"/>
<rect x="405" y="841" width="6" height="6" fill="white"/>
<rect x="411" y="841" width="6" height="6" fill="white"/>
<rect x="417" y="841" width="6" height="6" fill="white"/>
<rect x="423" y="841" width="6" height="6" fill="white"/>
<rect x="429" y="841" width="6" height="6" fill="white"/>
<rect x="435" y="841" width="6" height="6" fill="white"/>
<rect x="441" y="841" width="6" height="6" fill="white"/>
<rect x="447" y="841" width="6" height="6" fill="white"/>
<rect x="453" y="841" width="6" height="6" fill="white"/>
<rect x="459" y="841" width="6" height="6" fill="white"/>
<rect x="465" y="841" width="6" height="6" fill="white"/>
<rect x="471" y="841" width="6" height="6" fill="white"/>
<rect x="477" y="841" width="6" height="6" fill="white"/>
<rect x="483" y="841" width="6" height="6" fill="white"/>
<rect x="489" y="841" width="6" height="6" fill="white"/>
<rect x="495" y="841" width="6" height="6" fill="white"/>
<rect x="501" y="841" width="6" height="6" fill="white"/>
<rect x="507" y="841" width="6" height="6" fill="white"/>
<rect x="513" y="841" width="6" height="6" fill="white"/>
<rect x="519" y="841" width="6" height="6" fill="white"/>
<rect x="525" y="841" width="6" height="6" fill="white"/>
<rect x="531" y="841" width="6" height="6" fill="white"/>
<rect x="537" y="841" width="6" height="6" fill="white"/>
<rect x="543" y="841" width="6" height="6" fill="white"/>
<rect x="549" y="841" width="6" height="6" fill="white"/>
<rect x="555" y="841" width="6" height="6" fill="white"/>
<rect x="561" y="841" width="6" height="6" fill="white"/>
<rect x="567" y="841" width="6" height="6" fill="white"/>
<rect x="573" y="841" width="6" height="6" fill="white"/>
<rect x="579" y="841" width="6" height="6" fill="white"/>
<rect x="585" y="841" width="6" height="6" fill="white"/>
<rect x="591" y="841" width="6" height="6" fill="white"/>
<rect x="597" y="841" width="6" height="6" fill="white"/>
<rect x="603" y="841" width="6" height="6" fill="white"/>
<rect x="609" y="841" width="6" height="6" fill="white"/>
<rect x="615" y="841" width="6" height="6" fill="white"/>
<rect x="621" y="841" width="6" height="6" fill="white"/>
<rect x="627" y="841" width="6" height="6" fill="white"/>
<rect x="633" y="841" width="6" height="6" fill="white"/>
<rect x="639" y="841" width="6" height="6" fill="white"/>
<rect x="645" y="841" width="6" height="6" fill="white"/>
<rect x="651" y="841" width="6" height="6" fill="white"/>
<rect x="657" y="841" width="6" height="6" fill="white"/>
<rect x="663" y="841" width="6" height="6" fill="white"/>
<rect x="669" y="841" width="6" height="6" fill="white"/>
<rect x="675" y="841" width="6" height="6" fill="white"/>
<rect x="681" y="841" width="6" height="6" fill="white"/>
<rect x="687" y="841" width="6" height="6" fill="white"/>
<rect x="693" y="841" width="6" height="6" fill="white"/>
<rect x="699" y="841" width="6" height="6" fill="white"/>
<rect x="705" y="841" width="6" height="6" fill="white"/>
<rect x="711" y="841" width="6" height="6" fill="white"/>
<rect x="717" y="841" width="6" height="6" fill="white"/>
<rect x="723" y="841" width="6" height="6" fill="white"/>
<rect x="729" y="841" width="6" height="6" fill="white"/>
<rect x="735" y="841" width="6" height="6" fill="white"/>
<rect x="741" y="841" width="6" height="6" fill="white"/>
<rect x="747" y="841" width="6" height="6" fill="white"/>
<rect x="753" y="841" width="6" height="6" fill="white"/>
<rect x="759" y="841" width="6" height="6" fill="white"/>
<rect x="765" y="841" width="6" height="6" fill="white"/>
<rect x="771" y="841" width="6" height="6" fill="white"/>
<rect x="777" y="841" width="6" height="6" fill="white"/>
<rect x="783" y="841" width="6" height="6" fill="white"/>
<rect x="789" y="841" width="6" height="6" fill="white"/>
<rect x="795" y="841" width="6" height="6" fill="white"/>
<rect x="801" y="841" width="6" height="6" fill="white"/>
<rect x="807" y="841" width="6" height="6" fill="white"/>
<rect x="813" y="841" width="6" height="6" fill="white"/>
<rect x="819" y="841" width="6" height="6" fill="white"/>
<rect x="825" y="841" width="6" height="6" fill="white"/>
<rect x="831" y="841" width="6" height="6" fill="white"/>
<rect x="837" y="841" width="6" height="6" fill="white"/>
<rect x="843" y="841" width="6" height="6" fill="white"/>
<rect x="849" y="841" width="6" height="6" fill="white"/>
<rect x="855" y="841" width="6" height="6" fill="white"/>
<rect x="861" y="841" width="6" height="6" fill="white"/>
<rect x="867" y="841" width="6" height="6" fill="white"/>
<rect x="873" y="841" width="6" height="6" fill="white"/>
<rect x="879" y="841" width="6" height="6" fill="white"/>
<rect x="885" y="841" width="6" height="6" fill="white"/>
<rect x="891" y="841" width="6" height="6" fill="white"/>
<rect x="897" y="841" width="6" height="6" fill="white"/>
<rect x="903" y="841" width="6" height="6" fill="white"/>
<rect x="909" y="841" width="6" height="6" fill="white"/>
<rect x="915" y="841" width="6" height="6" fill="white"/>
<rect x="921" y="841" width="6" height="6" fill="white"/>
<rect x="927" y="841" width="6" height="6" fill="white"/>
<rect x="933" y="841" width="6" height="6" fill="white"/>
<rect x="939" y="841" width="6" height="6" fill="white"/>
<rect x="945" y="841" width="6" height="6" fill="white"/>
<rect x="951" y="841" width="6" height="6" fill="white"/>
<rect x="957" y="841" width="6" height="6" fill="white"/>
<rect x="963" y="841" width="6" height="6" fill="white"/>
<rect x="969" y="841" width="6" height="6" fill="white"/>
<rect x="975" y="841" width="6" height="6" fill="white"/>
<rect x="981" y="841" width="6" height="6" fill="white"/>
<rect x="987" y="841" width="6" height="6" fill="white"/>
<rect x="993" y="841" width="6" height="6" fill="white"/>
<rect x="999" y="841" width="6" height="6" fill="white"/>
<rect x="1005" y="841" width="6" height="6" fill="white"/>
<rect x="1011" y="841" width="6" height="6" fill="white"/>
<rect x="1017" y="841" width="6" height="6" fill="white"/>
<rect x="1023" y="841" width="6" height="6" fill="white"/>
<rect x="1029" y="841" width="6" height="6" fill="white"/>
<rect x="1035" y="841" width="6" height="6" fill="white"/>
<rect x="1041" y="841" width="6" height="6" fill="white"/>
<rect x="1047" y="841" width="6" height="6" fill="white"/>
<rect x="1053" y="841" width="6" height="6" fill="white"/>
<rect x="1059" y="841" width="6" height="6" fill="white"/>
<rect x="1065" y="841" width="6" height="6" fill="white"/>
<rect x="1071" y="841" width="6" height="6" fill="white"/>
<rect x="1077" y="841" width="6" height="6" fill="white"/>
<rect x="1083" y="841" width="6" height="6" fill="white"/>
<rect x="1089" y="841" width="6" height="6" fill="white"/>
<rect x="1095" y="841" width="6" height="6" fill="white"/>
<rect x="1101" y="841" width="6" height="6" fill="white"/>
<rect x="1107" y="841" width="6" height="6" fill="white"/>
<rect x="1113" y="841" width="6" height="6" fill="white"/>
<rect x="1119" y="841" width="6" height="6" fill="white"/>
<rect x="1125" y="841" width="6" height="6" fill="white"/>
<rect x="1131" y="841" width="6" height="6" fill="white"/>
<rect x="1137" y="841" width="6" height="6" fill="white"/>
<rect x="1143" y="841" width="6" height="6" fill="white"/>
<rect x="1149" y="841" width="6" height="6" fill="white"/>
<rect x="1155" y="841" width="6" height="6" fill="white"/>
<rect x="1161" y="841" width="6" height="6" fill="white"/>
<rect x="1167" y="841" width="6" height="6" fill="white"/>
<rect x="1173" y="841" width="6" height="6" fill="white"/>
<rect x="1179" y="841" width="6" height="6" fill="white"/>
<rect x="1185" y="841" width="6" height="6" fill="white"/>
<rect x="1191" y="841" width="6" height="6" fill="white"/>
<rect x="1197" y="841" width="6" height="6" fill="white"/>
<rect x="1203" y="841" width="6" height="6" fill="white"/>
<rect x="1209" y="841" width="6" height="6" fill="white"/>
<rect x="1215" y="841" width="6" height="6" fill="white"/>
<rect x="27" y="67" width="6" height="6" fill="white"/>
<rect x="27" y="73" width="6" height="6" fill="white"/>
<rect x="27" y="79" width="6" height="6" fill="white"/>
<rect x="27" y="85" width="6" height="6" fill="white"/>
<rect x="27" y="91" width="6" height="6" fill="white"/>
<rect x="27" y="97" width="6" height="6" fill="white"/>
<rect x="27" y="103" width="6" height="6" fill="white"/>
<rect x="27" y="109" width="6" height="6" fill="white"/>
<rect x="27" y="115" width="6" height="6" fill="white"/>
<rect x="27" y="121" width="6" height="6" fill="white"/>
<rect x="27" y="127" width="6" height="6" fill="white"/>
<rect x="27" y="133" width="6" height="6" fill="white"/>
<rect x="27" y="139" width="6" height="6" fill="white"/>
<rect x="27" y="145" width="6" height="6" fill="white"/>
<rect x="27" y="151" width="6" height="6" fill="white"/>
<rect x="27" y="157" width="6" height="6" fill="white"/>
<rect x="27" y="163" width="6" height="6" fill="white"/>
<rect x="27" y="169" width="6" height="6" fill="white"/>
<rect x="27" y="175" width="6" height="6" fill="white"/>
<rect x="27" y="181" width="6" height="6" fill="white"/>
<rect x="27" y="187" width="6" height="6" fill="white"/>
<rect x="27" y="193" width="6" height="6" fill="white"/>
<rect x="27" y="199" width="6" height="6" fill="white"/>
<rect x="27" y="205" width="6" height="6" fill="white"/>
<rect x="27" y="211" width="6" height="6" fill="white"/>
<rect x="27" y="217" width="6" height="6" fill="white"/>
<rect x="27" y="223" width="6" height="6" fill="white"/>
<rect x="27" y="229" width="6" height="6" fill="white"/>
<rect x="27" y="235" width="6" height="6" fill="white"/>
<rect x="27" y="241" width="6" height="6" fill="white"/>
<rect x="27" y="247" width="6" height="6" fill="white"/>
<rect x="27" y="253" width="6" height="6" fill="white"/>
<rect x="27" y="259" width="6" height="6" fill="white"/>
<rect x="27" y="265" width="6" height="6" fill="white"/>
<rect x="27" y="271" width="6" height="6" fill="white"/>
<rect x="27" y="277" width="6" height="6" fill="white"/>
<rect x="27" y="283" width="6" height="6" fill="white"/>
<rect x="27" y="289" width="6" height="6" fill="white"/>
<rect x="27" y="295" width="6" height="6" fill="white"/>
<rect x="27" y="301" width="6" height="6" fill="white"/>
<rect x="27" y="307" width="6" height="6" fill="white"/>
<rect x="27" y="313" width="6" height="6" fill="white"/>
<rect x="27" y="319" width="6" height="6" fill="white"/>
<rect x="27" y="325" width="6" height="6" fill="white"/>
<rect x="27" y="331" width="6" height="6" fill="white"/>
<rect x="27" y="337" width="6" height="6" fill="white"/>
<rect x="27" y="343" width="6" height="6" fill="white"/>
<rect x="27" y="349" width="6" height="6" fill="white"/>
<rect x="27" y="355" width="6" height="6" fill="white"/>
<rect x="27" y="361" width="6" height="6" fill="white"/>
<rect x="27" y="367" width="6" height="6" fill="white"/>
<rect x="27" y="373" width="6" height="6" fill="white"/>
<rect x="27" y="379" width="6" height="6" fill="white"/>
<rect x="27" y="385" width="6" height="6" fill="white"/>
<rect x="27" y="391" width="6" height="6" fill="white"/>
<rect x="27" y="397" width="6" height="6" fill="white"/>
<rect x="27" y="403" width="6" height="6" fill="white"/>
<rect x="27" y="409" width="6" height="6" fill="white"/>
<rect x="27" y="415" width="6" height="6" fill="white"/>
<rect x="27" y="421" width="6" height="6" fill="white"/>
<rect x="27" y="427" width="6" height="6" fill="white"/>
<rect x="27" y="433" width="6" height="6" fill="white"/>
<rect x="27" y="439" width="6" height="6" fill="white"/>
<rect x="27" y="445" width="6" height="6" fill="white"/>
<rect x="27" y="451" width="6" height="6" fill="white"/>
<rect x="27" y="457" width="6" height="6" fill="white"/>
<rect x="27" y="463" width="6" height="6" fill="white"/>
<rect x="27" y="469" width="6" height="6" fill="white"/>
<rect x="27" y="475" width="6" height="6" fill="white"/>
<rect x="27" y="481" width="6" height="6" fill="white"/>
<rect x="27" y="487" width="6" height="6" fill="white"/>
<rect x="27" y="493" width="6" height="6" fill="white"/>
<rect x="27" y="499" width="6" height="6" fill="white"/>
<rect x="27" y="505" width="6" height="6" fill="white"/>
<rect x="27" y="511" width="6" height="6" fill="white"/>
<rect x="27" y="517" width="6" height="6" fill="white"/>
<rect x="27" y="523" width="6" height="6" fill="white"/>
<rect x="27" y="529" width="6" height="6" fill="white"/>
<rect x="27" y="535" width="6" height="6" fill="white"/>
<rect x="27" y="541" width="6" height="6" fill="white"/>
<rect x="27" y="547" width="6" height="6" fill="white"/>
<rect x="27" y="553" width="6" height="6" fill="white"/>
<rect x="27" y="559" width="6" height="6" fill="white"/>
<rect x="27" y="565" width="6" height="6" fill="white"/>
<rect x="27" y="571" width="6" height="6" fill="white"/>
<rect x="27" y="577" width="6" height="6" fill="white"/>
<rect x="27" y="583" width="6" height="6" fill="white"/>
<rect x="27" y="589" width="6" height="6" fill="white"/>
<rect x="27" y="595" width="6" height="6" fill="white"/>
<rect x="27" y="601" width="6" height="6" fill="white"/>
<rect x="27" y="607" width="6" height="6" fill="white"/>
<rect x="27" y="613" width="6" height="6" fill="white"/>
<rect x="27" y="619" width="6" height="6" fill="white"/>
<rect x="27" y="625" width="6" height="6" fill="white"/>
<rect x="27" y="631" width="6" height="6" fill="white"/>
<rect x="27" y="637" width="6" height="6" fill="white"/>
<rect x="27" y="643" width="6" height="6" fill="white"/>
<rect x="27" y="649" width="6" height="6" fill="white"/>
<rect x="27" y="655" width="6" height="6" fill="white"/>
<rect x="27" y="661" width="6" height="6" fill="white"/>
<rect x="27" y="667" width="6" height="6" fill="white"/>
<rect x="27" y="673" width="6" height="6" fill="white"/>
<rect x="27" y="679" width="6" height="6" fill="white"/>
<rect x="27" y="685" width="6" height="6" fill="white"/>
<rect x="27" y="691" width="6" height="6" fill="white"/>
<rect x="27" y="697" width="6" height="6" fill="white"/>
<rect x="27" y="703" width="6" height="6" fill="white"/>
<rect x="27" y="709" width="6" height="6" fill="white"/>
<rect x="27" y="715" width="6" height="6" fill="white"/>
<rect x="27" y="721" width="6" height="6" fill="white"/>
<rect x="27" y="727" width="6" height="6" fill="white"/>
<rect x="27" y="733" width="6" height="6" fill="white"/>
<rect x="27" y="739" width="6" height="6" fill="white"/>
<rect x="27" y="745" width="6" height="6" fill="white"/>
<rect x="27" y="751" width="6" height="6" fill="white"/>
<rect x="27" y="757" width="6" height="6" fill="white"/>
<rect x="27" y="763" width="6" height="6" fill="white"/>
<rect x="27" y="769" width="6" height="6" fill="white"/>
<rect x="27" y="775" width="6" height="6" fill="white"/>
<rect x="27" y="781" width="6" height="6" fill="white"/>
<rect x="27" y="787" width="6" height="6" fill="white"/>
<rect x="27" y="793" width="6" height="6" fill="white"/>
<rect x="27" y="799" width="6" height="6" fill="white"/>
<rect x="27" y="805" width="6" height="6" fill="white"/>
<rect x="27" y="811" width="6" height="6" fill="white"/>
<rect x="33" y="817" width="6" height="6" fill="white"/>
<rect x="33" y="823" width="6" height="6" fill="white"/>
<rect x="39" y="829" width="6" height="6" fill="white"/>
<rect x="45" y="835" width="6" height="6" fill="white"/>
<rect x="63" y="841" width="6" height="6" fill="white"/>
<rect x="51" y="835" width="6" height="6" fill="white"/>
<rect x="57" y="841" width="6" height="6" fill="white"/>
<rect x="1257" y="805" width="6" height="6" fill="white"/>
<rect x="1257" y="811" width="6" height="6" fill="white"/>
<rect x="1251" y="817" width="6" height="6" fill="white"/>
<rect x="1251" y="823" width="6" height="6" fill="white"/>
<rect x="1245" y="829" width="6" height="6" fill="white"/>
<rect x="1239" y="835" width="6" height="6" fill="white"/>
<rect x="1221" y="841" width="6" height="6" fill="white"/>
<rect x="1227" y="841" width="6" height="6" fill="white"/>
<rect x="1233" y="835" width="6" height="6" fill="white"/>
<rect x="1233" y="25" width="6" height="6" fill="white"/>
<rect x="1239" y="31" width="6" height="6" fill="white"/>
<rect x="1245" y="37" width="6" height="6" fill="white"/>
<rect x="1251" y="43" width="6" height="6" fill="white"/>
<rect x="1257" y="49" width="6" height="6" fill="white"/>
<rect x="1257" y="55" width="6" height="6" fill="white"/>
<rect x="1257" y="61" width="6" height="6" fill="white"/>
<rect x="1221" y="25" width="6" height="6" fill="white"/>
<rect x="1227" y="25" width="6" height="6" fill="white"/>
<rect x="51" y="25" width="6" height="6" fill="white"/>
<rect x="45" y="31" width="6" height="6" fill="white"/>
<rect x="39" y="37" width="6" height="6" fill="white"/>
<rect x="33" y="43" width="6" height="6" fill="white"/>
<rect x="27" y="49" width="6" height="6" fill="white"/>
<rect x="27" y="55" width="6" height="6" fill="white"/>
<rect x="27" y="61" width="6" height="6" fill="white"/>
<rect x="57" y="25" width="6" height="6" fill="white"/>
<rect x="63" y="25" width="6" height="6" fill="white"/>
<defs>
<filter id="filter0_d_49_41075" x="0" y="0" width="1290.05" height="877.5" filterUnits="userSpaceOnUse" color-interpolation-filters="sRGB">
<feFlood flood-opacity="0" result="BackgroundImageFix"/>
<feColorMatrix in="SourceAlpha" type="matrix" values="0 0 0 0 0 0 0 0 0 0 0 0 0 0 0 0 0 0 127 0" result="hardAlpha"/>
<feMorphology radius="9" operator="dilate" in="SourceAlpha" result="effect1_dropShadow_49_41075"/>
<feOffset dy="4"/>
<feGaussianBlur stdDeviation="10"/>
<feComposite in2="hardAlpha" operator="out"/>
<feColorMatrix type="matrix" values="0 0 0 0 0 0 0 0 0 0 0 0 0 0 0 0 0 0 0.1 0"/>
<feBlend mode="normal" in2="BackgroundImageFix" result="effect1_dropShadow_49_41075"/>
<feBlend mode="normal" in="SourceGraphic" in2="effect1_dropShadow_49_41075" result="shape"/>
</filter>
</defs>
</svg>
