<svg width="296" height="60" viewBox="0 0 296 60" fill="none" xmlns="http://www.w3.org/2000/svg">
<path d="M0 12C0 7.02944 4.02944 3 9 3H284C288.971 3 293 7.02944 293 12V49C293 53.9706 288.971 58 284 58H9C4.02944 58 0 53.9706 0 49V12Z" fill="#1F32DB"/>
<rect x="8" width="4" height="4" fill="#1F32DB"/>
<rect x="12" width="4" height="4" fill="#1F32DB"/>
<rect x="16" width="4" height="4" fill="#1F32DB"/>
<rect x="20" width="4" height="4" fill="#1F32DB"/>
<rect x="24" width="4" height="4" fill="#1F32DB"/>
<rect x="28" width="4" height="4" fill="#1F32DB"/>
<rect x="32" width="4" height="4" fill="#1F32DB"/>
<rect x="36" width="4" height="4" fill="#1F32DB"/>
<rect x="40" width="4" height="4" fill="#1F32DB"/>
<rect x="44" width="4" height="4" fill="#1F32DB"/>
<rect x="48" width="4" height="4" fill="#1F32DB"/>
<rect x="52" width="4" height="4" fill="#1F32DB"/>
<rect x="56" width="4" height="4" fill="#1F32DB"/>
<rect x="60" width="4" height="4" fill="#1F32DB"/>
<rect x="64" width="4" height="4" fill="#1F32DB"/>
<rect x="68" width="4" height="4" fill="#1F32DB"/>
<rect x="72" width="4" height="4" fill="#1F32DB"/>
<rect x="76" width="4" height="4" fill="#1F32DB"/>
<rect x="80" width="4" height="4" fill="#1F32DB"/>
<rect x="84" width="4" height="4" fill="#1F32DB"/>
<rect x="88" width="4" height="4" fill="#1F32DB"/>
<rect x="92" width="4" height="4" fill="#1F32DB"/>
<rect x="96" width="4" height="4" fill="#1F32DB"/>
<rect x="100" width="4" height="4" fill="#1F32DB"/>
<rect x="104" width="4" height="4" fill="#1F32DB"/>
<rect x="108" width="4" height="4" fill="#1F32DB"/>
<rect x="112" width="4" height="4" fill="#1F32DB"/>
<rect x="116" width="4" height="4" fill="#1F32DB"/>
<rect x="120" width="4" height="4" fill="#1F32DB"/>
<rect x="124" width="4" height="4" fill="#1F32DB"/>
<rect x="128" width="4" height="4" fill="#1F32DB"/>
<rect x="132" width="4" height="4" fill="#1F32DB"/>
<rect x="136" width="4" height="4" fill="#1F32DB"/>
<rect x="140" width="4" height="4" fill="#1F32DB"/>
<rect x="144" width="4" height="4" fill="#1F32DB"/>
<rect x="148" width="4" height="4" fill="#1F32DB"/>
<rect x="152" width="4" height="4" fill="#1F32DB"/>
<rect x="156" width="4" height="4" fill="#1F32DB"/>
<rect x="160" width="4" height="4" fill="#1F32DB"/>
<rect x="164" width="4" height="4" fill="#1F32DB"/>
<rect x="168" width="4" height="4" fill="#1F32DB"/>
<rect x="172" width="4" height="4" fill="#1F32DB"/>
<rect x="176" width="4" height="4" fill="#1F32DB"/>
<rect x="180" width="4" height="4" fill="#1F32DB"/>
<rect x="184" width="4" height="4" fill="#1F32DB"/>
<rect x="188" width="4" height="4" fill="#1F32DB"/>
<rect x="192" width="4" height="4" fill="#1F32DB"/>
<rect x="196" width="4" height="4" fill="#1F32DB"/>
<rect x="200" width="4" height="4" fill="#1F32DB"/>
<rect x="204" width="4" height="4" fill="#1F32DB"/>
<rect x="208" width="4" height="4" fill="#1F32DB"/>
<rect x="212" width="4" height="4" fill="#1F32DB"/>
<rect x="216" width="4" height="4" fill="#1F32DB"/>
<rect x="220" width="4" height="4" fill="#1F32DB"/>
<rect x="224" width="4" height="4" fill="#1F32DB"/>
<rect x="228" width="4" height="4" fill="#1F32DB"/>
<rect x="232" width="4" height="4" fill="#1F32DB"/>
<rect x="236" width="4" height="4" fill="#1F32DB"/>
<rect x="240" width="4" height="4" fill="#1F32DB"/>
<rect x="244" width="4" height="4" fill="#1F32DB"/>
<rect x="248" width="4" height="4" fill="#1F32DB"/>
<rect x="252" width="4" height="4" fill="#1F32DB"/>
<rect x="256" width="4" height="4" fill="#1F32DB"/>
<rect x="260" width="4" height="4" fill="#1F32DB"/>
<rect x="264" width="4" height="4" fill="#1F32DB"/>
<rect x="268" width="4" height="4" fill="#1F32DB"/>
<rect x="272" width="4" height="4" fill="#1F32DB"/>
<rect x="276" width="4" height="4" fill="#1F32DB"/>
<rect x="280" width="4" height="4" fill="#1F32DB"/>
<rect x="284" width="4" height="4" fill="#1F32DB"/>
<rect x="292" y="12" width="4" height="4" fill="#1F32DB"/>
<rect x="292" y="16" width="4" height="4" fill="#1F32DB"/>
<rect x="292" y="20" width="4" height="4" fill="#1F32DB"/>
<rect x="292" y="24" width="4" height="4" fill="#1F32DB"/>
<rect x="292" y="28" width="4" height="4" fill="#1F32DB"/>
<rect x="292" y="32" width="4" height="4" fill="#1F32DB"/>
<rect x="292" y="36" width="4" height="4" fill="#1F32DB"/>
<rect x="292" y="40" width="4" height="4" fill="#1F32DB"/>
<rect x="292" y="44" width="4" height="4" fill="#1F32DB"/>
<rect x="292" y="48" width="4" height="4" fill="#1F32DB"/>
<rect x="8" y="56" width="4" height="4" fill="#1F32DB"/>
<rect x="12" y="56" width="4" height="4" fill="#1F32DB"/>
<rect x="16" y="56" width="4" height="4" fill="#1F32DB"/>
<rect x="20" y="56" width="4" height="4" fill="#1F32DB"/>
<rect x="24" y="56" width="4" height="4" fill="#1F32DB"/>
<rect x="28" y="56" width="4" height="4" fill="#1F32DB"/>
<rect x="32" y="56" width="4" height="4" fill="#1F32DB"/>
<rect x="36" y="56" width="4" height="4" fill="#1F32DB"/>
<rect x="40" y="56" width="4" height="4" fill="#1F32DB"/>
<rect x="44" y="56" width="4" height="4" fill="#1F32DB"/>
<rect x="48" y="56" width="4" height="4" fill="#1F32DB"/>
<rect x="52" y="56" width="4" height="4" fill="#1F32DB"/>
<rect x="56" y="56" width="4" height="4" fill="#1F32DB"/>
<rect x="60" y="56" width="4" height="4" fill="#1F32DB"/>
<rect x="64" y="56" width="4" height="4" fill="#1F32DB"/>
<rect x="68" y="56" width="4" height="4" fill="#1F32DB"/>
<rect x="72" y="56" width="4" height="4" fill="#1F32DB"/>
<rect x="76" y="56" width="4" height="4" fill="#1F32DB"/>
<rect x="80" y="56" width="4" height="4" fill="#1F32DB"/>
<rect x="84" y="56" width="4" height="4" fill="#1F32DB"/>
<rect x="88" y="56" width="4" height="4" fill="#1F32DB"/>
<rect x="92" y="56" width="4" height="4" fill="#1F32DB"/>
<rect x="96" y="56" width="4" height="4" fill="#1F32DB"/>
<rect x="100" y="56" width="4" height="4" fill="#1F32DB"/>
<rect x="104" y="56" width="4" height="4" fill="#1F32DB"/>
<rect x="108" y="56" width="4" height="4" fill="#1F32DB"/>
<rect x="112" y="56" width="4" height="4" fill="#1F32DB"/>
<rect x="116" y="56" width="4" height="4" fill="#1F32DB"/>
<rect x="120" y="56" width="4" height="4" fill="#1F32DB"/>
<rect x="124" y="56" width="4" height="4" fill="#1F32DB"/>
<rect x="128" y="56" width="4" height="4" fill="#1F32DB"/>
<rect x="132" y="56" width="4" height="4" fill="#1F32DB"/>
<rect x="136" y="56" width="4" height="4" fill="#1F32DB"/>
<rect x="140" y="56" width="4" height="4" fill="#1F32DB"/>
<rect x="144" y="56" width="4" height="4" fill="#1F32DB"/>
<rect x="148" y="56" width="4" height="4" fill="#1F32DB"/>
<rect x="152" y="56" width="4" height="4" fill="#1F32DB"/>
<rect x="156" y="56" width="4" height="4" fill="#1F32DB"/>
<rect x="160" y="56" width="4" height="4" fill="#1F32DB"/>
<rect x="164" y="56" width="4" height="4" fill="#1F32DB"/>
<rect x="168" y="56" width="4" height="4" fill="#1F32DB"/>
<rect x="172" y="56" width="4" height="4" fill="#1F32DB"/>
<rect x="176" y="56" width="4" height="4" fill="#1F32DB"/>
<rect x="180" y="56" width="4" height="4" fill="#1F32DB"/>
<rect x="184" y="56" width="4" height="4" fill="#1F32DB"/>
<rect x="188" y="56" width="4" height="4" fill="#1F32DB"/>
<rect x="192" y="56" width="4" height="4" fill="#1F32DB"/>
<rect x="196" y="56" width="4" height="4" fill="#1F32DB"/>
<rect x="200" y="56" width="4" height="4" fill="#1F32DB"/>
<rect x="204" y="56" width="4" height="4" fill="#1F32DB"/>
<rect x="208" y="56" width="4" height="4" fill="#1F32DB"/>
<rect x="212" y="56" width="4" height="4" fill="#1F32DB"/>
<rect x="216" y="56" width="4" height="4" fill="#1F32DB"/>
<rect x="220" y="56" width="4" height="4" fill="#1F32DB"/>
<rect x="224" y="56" width="4" height="4" fill="#1F32DB"/>
<rect x="228" y="56" width="4" height="4" fill="#1F32DB"/>
<rect x="232" y="56" width="4" height="4" fill="#1F32DB"/>
<rect x="236" y="56" width="4" height="4" fill="#1F32DB"/>
<rect x="240" y="56" width="4" height="4" fill="#1F32DB"/>
<rect x="244" y="56" width="4" height="4" fill="#1F32DB"/>
<rect x="248" y="56" width="4" height="4" fill="#1F32DB"/>
<rect x="252" y="56" width="4" height="4" fill="#1F32DB"/>
<rect x="256" y="56" width="4" height="4" fill="#1F32DB"/>
<rect x="260" y="56" width="4" height="4" fill="#1F32DB"/>
<rect x="264" y="56" width="4" height="4" fill="#1F32DB"/>
<rect x="268" y="56" width="4" height="4" fill="#1F32DB"/>
<rect x="272" y="56" width="4" height="4" fill="#1F32DB"/>
<rect x="276" y="56" width="4" height="4" fill="#1F32DB"/>
<rect x="280" y="56" width="4" height="4" fill="#1F32DB"/>
<rect x="284" y="56" width="4" height="4" fill="#1F32DB"/>
<rect y="12" width="4" height="4" fill="#1F32DB"/>
<rect y="16" width="4" height="4" fill="#1F32DB"/>
<rect y="20" width="4" height="4" fill="#1F32DB"/>
<rect y="24" width="4" height="4" fill="#1F32DB"/>
<rect y="28" width="4" height="4" fill="#1F32DB"/>
<rect y="32" width="4" height="4" fill="#1F32DB"/>
<rect y="36" width="4" height="4" fill="#1F32DB"/>
<rect y="40" width="4" height="4" fill="#1F32DB"/>
<rect y="44" width="4" height="4" fill="#1F32DB"/>
<rect y="48" width="4" height="4" fill="#1F32DB"/>
<rect y="52" width="4" height="4" fill="#1F32DB"/>
<rect x="4" y="56" width="4" height="4" fill="#1F32DB"/>
<rect x="288" y="52" width="4" height="4" fill="#1F32DB"/>
<rect x="288" y="4" width="4" height="4" fill="#1F32DB"/>
<rect x="292" y="8" width="4" height="4" fill="#1F32DB"/>
<rect y="4" width="4" height="4" fill="#1F32DB"/>
<rect y="8" width="4" height="4" fill="#1F32DB"/>
<rect x="4" width="4" height="4" fill="#1F32DB"/>
</svg>
