<svg width="1236" height="829" viewBox="0 0 1236 829" fill="none" xmlns="http://www.w3.org/2000/svg">
<path d="M1.00003 48.4966C1.00003 24.7483 20.1284 5.49658 43.7244 5.49658H1190.33C1213.92 5.49658 1233.05 24.7483 1233.05 48.4966V781.997C1233.05 805.745 1213.92 824.997 1190.33 824.997H43.7244C20.1284 824.997 1 805.745 1 781.997L1.00003 48.4966Z" fill="white"/>
<rect x="42" y="0.496582" width="6" height="6" fill="white"/>
<rect x="48" y="0.496582" width="6" height="6" fill="white"/>
<rect x="54" y="0.496582" width="6" height="6" fill="white"/>
<rect x="60" y="0.496582" width="6" height="6" fill="white"/>
<rect x="66" y="0.496582" width="6" height="6" fill="white"/>
<rect x="72" y="0.496582" width="6" height="6" fill="white"/>
<rect x="78" y="0.496582" width="6" height="6" fill="white"/>
<rect x="84" y="0.496582" width="6" height="6" fill="white"/>
<rect x="90" y="0.496582" width="6" height="6" fill="white"/>
<rect x="96" y="0.496582" width="6" height="6" fill="white"/>
<rect x="102" y="0.496582" width="6" height="6" fill="white"/>
<rect x="108" y="0.496582" width="6" height="6" fill="white"/>
<rect x="114" y="0.496582" width="6" height="6" fill="white"/>
<rect x="120" y="0.496582" width="6" height="6" fill="white"/>
<rect x="126" y="0.496582" width="6" height="6" fill="white"/>
<rect x="132" y="0.496582" width="6" height="6" fill="white"/>
<rect x="138" y="0.496582" width="6" height="6" fill="white"/>
<rect x="144" y="0.496582" width="6" height="6" fill="white"/>
<rect x="150" y="0.496582" width="6" height="6" fill="white"/>
<rect x="156" y="0.496582" width="6" height="6" fill="white"/>
<rect x="162" y="0.496582" width="6" height="6" fill="white"/>
<rect x="168" y="0.496582" width="6" height="6" fill="white"/>
<rect x="174" y="0.496582" width="6" height="6" fill="white"/>
<rect x="180" y="0.496582" width="6" height="6" fill="white"/>
<rect x="186" y="0.496582" width="6" height="6" fill="white"/>
<rect x="192" y="0.496582" width="6" height="6" fill="white"/>
<rect x="198" y="0.496582" width="6" height="6" fill="white"/>
<rect x="204" y="0.496582" width="6" height="6" fill="white"/>
<rect x="210" y="0.496582" width="6" height="6" fill="white"/>
<rect x="216" y="0.496582" width="6" height="6" fill="white"/>
<rect x="222" y="0.496582" width="6" height="6" fill="white"/>
<rect x="228" y="0.496582" width="6" height="6" fill="white"/>
<rect x="234" y="0.496582" width="6" height="6" fill="white"/>
<rect x="240" y="0.496582" width="6" height="6" fill="white"/>
<rect x="246" y="0.496582" width="6" height="6" fill="white"/>
<rect x="252" y="0.496582" width="6" height="6" fill="white"/>
<rect x="258" y="0.496582" width="6" height="6" fill="white"/>
<rect x="264" y="0.496582" width="6" height="6" fill="white"/>
<rect x="270" y="0.496582" width="6" height="6" fill="white"/>
<rect x="276" y="0.496582" width="6" height="6" fill="white"/>
<rect x="282" y="0.496582" width="6" height="6" fill="white"/>
<rect x="288" y="0.496582" width="6" height="6" fill="white"/>
<rect x="294" y="0.496582" width="6" height="6" fill="white"/>
<rect x="300" y="0.496582" width="6" height="6" fill="white"/>
<rect x="306" y="0.496582" width="6" height="6" fill="white"/>
<rect x="312" y="0.496582" width="6" height="6" fill="white"/>
<rect x="318" y="0.496582" width="6" height="6" fill="white"/>
<rect x="324" y="0.496582" width="6" height="6" fill="white"/>
<rect x="330" y="0.496582" width="6" height="6" fill="white"/>
<rect x="336" y="0.496582" width="6" height="6" fill="white"/>
<rect x="342" y="0.496582" width="6" height="6" fill="white"/>
<rect x="348" y="0.496582" width="6" height="6" fill="white"/>
<rect x="354" y="0.496582" width="6" height="6" fill="white"/>
<rect x="360" y="0.496582" width="6" height="6" fill="white"/>
<rect x="366" y="0.496582" width="6" height="6" fill="white"/>
<rect x="372" y="0.496582" width="6" height="6" fill="white"/>
<rect x="378" y="0.496582" width="6" height="6" fill="white"/>
<rect x="384" y="0.496582" width="6" height="6" fill="white"/>
<rect x="390" y="0.496582" width="6" height="6" fill="white"/>
<rect x="396" y="0.496582" width="6" height="6" fill="white"/>
<rect x="402" y="0.496582" width="6" height="6" fill="white"/>
<rect x="408" y="0.496582" width="6" height="6" fill="white"/>
<rect x="414" y="0.496582" width="6" height="6" fill="white"/>
<rect x="420" y="0.496582" width="6" height="6" fill="white"/>
<rect x="426" y="0.496582" width="6" height="6" fill="white"/>
<rect x="432" y="0.496582" width="6" height="6" fill="white"/>
<rect x="438" y="0.496582" width="6" height="6" fill="white"/>
<rect x="444" y="0.496582" width="6" height="6" fill="white"/>
<rect x="450" y="0.496582" width="6" height="6" fill="white"/>
<rect x="456" y="0.496582" width="6" height="6" fill="white"/>
<rect x="462" y="0.496582" width="6" height="6" fill="white"/>
<rect x="468" y="0.496582" width="6" height="6" fill="white"/>
<rect x="474" y="0.496582" width="6" height="6" fill="white"/>
<rect x="480" y="0.496582" width="6" height="6" fill="white"/>
<rect x="486" y="0.496582" width="6" height="6" fill="white"/>
<rect x="492" y="0.496582" width="6" height="6" fill="white"/>
<rect x="498" y="0.496582" width="6" height="6" fill="white"/>
<rect x="504" y="0.496582" width="6" height="6" fill="white"/>
<rect x="510" y="0.496582" width="6" height="6" fill="white"/>
<rect x="516" y="0.496582" width="6" height="6" fill="white"/>
<rect x="522" y="0.496582" width="6" height="6" fill="white"/>
<rect x="528" y="0.496582" width="6" height="6" fill="white"/>
<rect x="534" y="0.496582" width="6" height="6" fill="white"/>
<rect x="540" y="0.496582" width="6" height="6" fill="white"/>
<rect x="546" y="0.496582" width="6" height="6" fill="white"/>
<rect x="552" y="0.496582" width="6" height="6" fill="white"/>
<rect x="558" y="0.496582" width="6" height="6" fill="white"/>
<rect x="564" y="0.496582" width="6" height="6" fill="white"/>
<rect x="570" y="0.496582" width="6" height="6" fill="white"/>
<rect x="576" y="0.496582" width="6" height="6" fill="white"/>
<rect x="582" y="0.496582" width="6" height="6" fill="white"/>
<rect x="588" y="0.496582" width="6" height="6" fill="white"/>
<rect x="594" y="0.496582" width="6" height="6" fill="white"/>
<rect x="600" y="0.496582" width="6" height="6" fill="white"/>
<rect x="606" y="0.496582" width="6" height="6" fill="white"/>
<rect x="612" y="0.496582" width="6" height="6" fill="white"/>
<rect x="618" y="0.496582" width="6" height="6" fill="white"/>
<rect x="624" y="0.496582" width="6" height="6" fill="white"/>
<rect x="630" y="0.496582" width="6" height="6" fill="white"/>
<rect x="636" y="0.496582" width="6" height="6" fill="white"/>
<rect x="642" y="0.496582" width="6" height="6" fill="white"/>
<rect x="648" y="0.496582" width="6" height="6" fill="white"/>
<rect x="654" y="0.496582" width="6" height="6" fill="white"/>
<rect x="660" y="0.496582" width="6" height="6" fill="white"/>
<rect x="666" y="0.496582" width="6" height="6" fill="white"/>
<rect x="672" y="0.496582" width="6" height="6" fill="white"/>
<rect x="678" y="0.496582" width="6" height="6" fill="white"/>
<rect x="684" y="0.496582" width="6" height="6" fill="white"/>
<rect x="690" y="0.496582" width="6" height="6" fill="white"/>
<rect x="696" y="0.496582" width="6" height="6" fill="white"/>
<rect x="702" y="0.496582" width="6" height="6" fill="white"/>
<rect x="708" y="0.496582" width="6" height="6" fill="white"/>
<rect x="714" y="0.496582" width="6" height="6" fill="white"/>
<rect x="720" y="0.496582" width="6" height="6" fill="white"/>
<rect x="726" y="0.496582" width="6" height="6" fill="white"/>
<rect x="732" y="0.496582" width="6" height="6" fill="white"/>
<rect x="738" y="0.496582" width="6" height="6" fill="white"/>
<rect x="744" y="0.496582" width="6" height="6" fill="white"/>
<rect x="750" y="0.496582" width="6" height="6" fill="white"/>
<rect x="756" y="0.496582" width="6" height="6" fill="white"/>
<rect x="762" y="0.496582" width="6" height="6" fill="white"/>
<rect x="768" y="0.496582" width="6" height="6" fill="white"/>
<rect x="774" y="0.496582" width="6" height="6" fill="white"/>
<rect x="780" y="0.496582" width="6" height="6" fill="white"/>
<rect x="786" y="0.496582" width="6" height="6" fill="white"/>
<rect x="792" y="0.496582" width="6" height="6" fill="white"/>
<rect x="798" y="0.496582" width="6" height="6" fill="white"/>
<rect x="804" y="0.496582" width="6" height="6" fill="white"/>
<rect x="810" y="0.496582" width="6" height="6" fill="white"/>
<rect x="816" y="0.496582" width="6" height="6" fill="white"/>
<rect x="822" y="0.496582" width="6" height="6" fill="white"/>
<rect x="828" y="0.496582" width="6" height="6" fill="white"/>
<rect x="834" y="0.496582" width="6" height="6" fill="white"/>
<rect x="840" y="0.496582" width="6" height="6" fill="white"/>
<rect x="846" y="0.496582" width="6" height="6" fill="white"/>
<rect x="852" y="0.496582" width="6" height="6" fill="white"/>
<rect x="858" y="0.496582" width="6" height="6" fill="white"/>
<rect x="864" y="0.496582" width="6" height="6" fill="white"/>
<rect x="870" y="0.496582" width="6" height="6" fill="white"/>
<rect x="876" y="0.496582" width="6" height="6" fill="white"/>
<rect x="882" y="0.496582" width="6" height="6" fill="white"/>
<rect x="888" y="0.496582" width="6" height="6" fill="white"/>
<rect x="894" y="0.496582" width="6" height="6" fill="white"/>
<rect x="900" y="0.496582" width="6" height="6" fill="white"/>
<rect x="906" y="0.496582" width="6" height="6" fill="white"/>
<rect x="912" y="0.496582" width="6" height="6" fill="white"/>
<rect x="918" y="0.496582" width="6" height="6" fill="white"/>
<rect x="924" y="0.496582" width="6" height="6" fill="white"/>
<rect x="930" y="0.496582" width="6" height="6" fill="white"/>
<rect x="936" y="0.496582" width="6" height="6" fill="white"/>
<rect x="942" y="0.496582" width="6" height="6" fill="white"/>
<rect x="948" y="0.496582" width="6" height="6" fill="white"/>
<rect x="954" y="0.496582" width="6" height="6" fill="white"/>
<rect x="960" y="0.496582" width="6" height="6" fill="white"/>
<rect x="966" y="0.496582" width="6" height="6" fill="white"/>
<rect x="972" y="0.496582" width="6" height="6" fill="white"/>
<rect x="978" y="0.496582" width="6" height="6" fill="white"/>
<rect x="984" y="0.496582" width="6" height="6" fill="white"/>
<rect x="990" y="0.496582" width="6" height="6" fill="white"/>
<rect x="996" y="0.496582" width="6" height="6" fill="white"/>
<rect x="1002" y="0.496582" width="6" height="6" fill="white"/>
<rect x="1008" y="0.496582" width="6" height="6" fill="white"/>
<rect x="1014" y="0.496582" width="6" height="6" fill="white"/>
<rect x="1020" y="0.496582" width="6" height="6" fill="white"/>
<rect x="1026" y="0.496582" width="6" height="6" fill="white"/>
<rect x="1032" y="0.496582" width="6" height="6" fill="white"/>
<rect x="1038" y="0.496582" width="6" height="6" fill="white"/>
<rect x="1044" y="0.496582" width="6" height="6" fill="white"/>
<rect x="1050" y="0.496582" width="6" height="6" fill="white"/>
<rect x="1056" y="0.496582" width="6" height="6" fill="white"/>
<rect x="1062" y="0.496582" width="6" height="6" fill="white"/>
<rect x="1068" y="0.496582" width="6" height="6" fill="white"/>
<rect x="1074" y="0.496582" width="6" height="6" fill="white"/>
<rect x="1080" y="0.496582" width="6" height="6" fill="white"/>
<rect x="1086" y="0.496582" width="6" height="6" fill="white"/>
<rect x="1092" y="0.496582" width="6" height="6" fill="white"/>
<rect x="1098" y="0.496582" width="6" height="6" fill="white"/>
<rect x="1104" y="0.496582" width="6" height="6" fill="white"/>
<rect x="1110" y="0.496582" width="6" height="6" fill="white"/>
<rect x="1116" y="0.496582" width="6" height="6" fill="white"/>
<rect x="1122" y="0.496582" width="6" height="6" fill="white"/>
<rect x="1128" y="0.496582" width="6" height="6" fill="white"/>
<rect x="1134" y="0.496582" width="6" height="6" fill="white"/>
<rect x="1140" y="0.496582" width="6" height="6" fill="white"/>
<rect x="1146" y="0.496582" width="6" height="6" fill="white"/>
<rect x="1152" y="0.496582" width="6" height="6" fill="white"/>
<rect x="1158" y="0.496582" width="6" height="6" fill="white"/>
<rect x="1164" y="0.496582" width="6" height="6" fill="white"/>
<rect x="1170" y="0.496582" width="6" height="6" fill="white"/>
<rect x="1176" y="0.496582" width="6" height="6" fill="white"/>
<rect x="1182" y="0.496582" width="6" height="6" fill="white"/>
<rect x="1188" y="0.496582" width="6" height="6" fill="white"/>
<rect x="1230" y="48.4966" width="6" height="6" fill="white"/>
<rect x="1230" y="54.4966" width="6" height="6" fill="white"/>
<rect x="1230" y="60.4966" width="6" height="6" fill="white"/>
<rect x="1230" y="66.4966" width="6" height="6" fill="white"/>
<rect x="1230" y="72.4966" width="6" height="6" fill="white"/>
<rect x="1230" y="78.4966" width="6" height="6" fill="white"/>
<rect x="1230" y="84.4966" width="6" height="6" fill="white"/>
<rect x="1230" y="90.4966" width="6" height="6" fill="white"/>
<rect x="1230" y="96.4966" width="6" height="6" fill="white"/>
<rect x="1230" y="102.497" width="6" height="6" fill="white"/>
<rect x="1230" y="108.497" width="6" height="6" fill="white"/>
<rect x="1230" y="114.497" width="6" height="6" fill="white"/>
<rect x="1230" y="120.497" width="6" height="6" fill="white"/>
<rect x="1230" y="126.497" width="6" height="6" fill="white"/>
<rect x="1230" y="132.497" width="6" height="6" fill="white"/>
<rect x="1230" y="138.497" width="6" height="6" fill="white"/>
<rect x="1230" y="144.497" width="6" height="6" fill="white"/>
<rect x="1230" y="150.497" width="6" height="6" fill="white"/>
<rect x="1230" y="156.497" width="6" height="6" fill="white"/>
<rect x="1230" y="162.497" width="6" height="6" fill="white"/>
<rect x="1230" y="168.497" width="6" height="6" fill="white"/>
<rect x="1230" y="174.497" width="6" height="6" fill="white"/>
<rect x="1230" y="180.497" width="6" height="6" fill="white"/>
<rect x="1230" y="186.497" width="6" height="6" fill="white"/>
<rect x="1230" y="192.497" width="6" height="6" fill="white"/>
<rect x="1230" y="198.497" width="6" height="6" fill="white"/>
<rect x="1230" y="204.497" width="6" height="6" fill="white"/>
<rect x="1230" y="210.497" width="6" height="6" fill="white"/>
<rect x="1230" y="216.497" width="6" height="6" fill="white"/>
<rect x="1230" y="222.497" width="6" height="6" fill="white"/>
<rect x="1230" y="228.497" width="6" height="6" fill="white"/>
<rect x="1230" y="234.497" width="6" height="6" fill="white"/>
<rect x="1230" y="240.497" width="6" height="6" fill="white"/>
<rect x="1230" y="246.497" width="6" height="6" fill="white"/>
<rect x="1230" y="252.497" width="6" height="6" fill="white"/>
<rect x="1230" y="258.497" width="6" height="6" fill="white"/>
<rect x="1230" y="264.497" width="6" height="6" fill="white"/>
<rect x="1230" y="270.497" width="6" height="6" fill="white"/>
<rect x="1230" y="276.497" width="6" height="6" fill="white"/>
<rect x="1230" y="282.497" width="6" height="6" fill="white"/>
<rect x="1230" y="288.497" width="6" height="6" fill="white"/>
<rect x="1230" y="294.497" width="6" height="6" fill="white"/>
<rect x="1230" y="300.497" width="6" height="6" fill="white"/>
<rect x="1230" y="306.497" width="6" height="6" fill="white"/>
<rect x="1230" y="312.497" width="6" height="6" fill="white"/>
<rect x="1230" y="318.497" width="6" height="6" fill="white"/>
<rect x="1230" y="324.497" width="6" height="6" fill="white"/>
<rect x="1230" y="330.497" width="6" height="6" fill="white"/>
<rect x="1230" y="336.497" width="6" height="6" fill="white"/>
<rect x="1230" y="342.497" width="6" height="6" fill="white"/>
<rect x="1230" y="348.497" width="6" height="6" fill="white"/>
<rect x="1230" y="354.497" width="6" height="6" fill="white"/>
<rect x="1230" y="360.497" width="6" height="6" fill="white"/>
<rect x="1230" y="366.497" width="6" height="6" fill="white"/>
<rect x="1230" y="372.497" width="6" height="6" fill="white"/>
<rect x="1230" y="378.497" width="6" height="6" fill="white"/>
<rect x="1230" y="384.497" width="6" height="6" fill="white"/>
<rect x="1230" y="390.497" width="6" height="6" fill="white"/>
<rect x="1230" y="396.497" width="6" height="6" fill="white"/>
<rect x="1230" y="402.497" width="6" height="6" fill="white"/>
<rect x="1230" y="408.497" width="6" height="6" fill="white"/>
<rect x="1230" y="414.497" width="6" height="6" fill="white"/>
<rect x="1230" y="420.497" width="6" height="6" fill="white"/>
<rect x="1230" y="426.497" width="6" height="6" fill="white"/>
<rect x="1230" y="432.497" width="6" height="6" fill="white"/>
<rect x="1230" y="438.497" width="6" height="6" fill="white"/>
<rect x="1230" y="444.497" width="6" height="6" fill="white"/>
<rect x="1230" y="450.497" width="6" height="6" fill="white"/>
<rect x="1230" y="456.497" width="6" height="6" fill="white"/>
<rect x="1230" y="462.497" width="6" height="6" fill="white"/>
<rect x="1230" y="468.497" width="6" height="6" fill="white"/>
<rect x="1230" y="474.497" width="6" height="6" fill="white"/>
<rect x="1230" y="480.497" width="6" height="6" fill="white"/>
<rect x="1230" y="486.497" width="6" height="6" fill="white"/>
<rect x="1230" y="492.497" width="6" height="6" fill="white"/>
<rect x="1230" y="498.497" width="6" height="6" fill="white"/>
<rect x="1230" y="504.497" width="6" height="6" fill="white"/>
<rect x="1230" y="510.497" width="6" height="6" fill="white"/>
<rect x="1230" y="516.497" width="6" height="6" fill="white"/>
<rect x="1230" y="522.497" width="6" height="6" fill="white"/>
<rect x="1230" y="528.497" width="6" height="6" fill="white"/>
<rect x="1230" y="534.497" width="6" height="6" fill="white"/>
<rect x="1230" y="540.497" width="6" height="6" fill="white"/>
<rect x="1230" y="546.497" width="6" height="6" fill="white"/>
<rect x="1230" y="552.497" width="6" height="6" fill="white"/>
<rect x="1230" y="558.497" width="6" height="6" fill="white"/>
<rect x="1230" y="564.497" width="6" height="6" fill="white"/>
<rect x="1230" y="570.497" width="6" height="6" fill="white"/>
<rect x="1230" y="576.497" width="6" height="6" fill="white"/>
<rect x="1230" y="582.497" width="6" height="6" fill="white"/>
<rect x="1230" y="588.497" width="6" height="6" fill="white"/>
<rect x="1230" y="594.497" width="6" height="6" fill="white"/>
<rect x="1230" y="600.497" width="6" height="6" fill="white"/>
<rect x="1230" y="606.497" width="6" height="6" fill="white"/>
<rect x="1230" y="612.497" width="6" height="6" fill="white"/>
<rect x="1230" y="618.497" width="6" height="6" fill="white"/>
<rect x="1230" y="624.497" width="6" height="6" fill="white"/>
<rect x="1230" y="630.497" width="6" height="6" fill="white"/>
<rect x="1230" y="636.497" width="6" height="6" fill="white"/>
<rect x="1230" y="642.497" width="6" height="6" fill="white"/>
<rect x="1230" y="648.497" width="6" height="6" fill="white"/>
<rect x="1230" y="654.497" width="6" height="6" fill="white"/>
<rect x="1230" y="660.497" width="6" height="6" fill="white"/>
<rect x="1230" y="666.497" width="6" height="6" fill="white"/>
<rect x="1230" y="672.497" width="6" height="6" fill="white"/>
<rect x="1230" y="678.497" width="6" height="6" fill="white"/>
<rect x="1230" y="684.497" width="6" height="6" fill="white"/>
<rect x="1230" y="690.497" width="6" height="6" fill="white"/>
<rect x="1230" y="696.497" width="6" height="6" fill="white"/>
<rect x="1230" y="702.497" width="6" height="6" fill="white"/>
<rect x="1230" y="708.497" width="6" height="6" fill="white"/>
<rect x="1230" y="714.497" width="6" height="6" fill="white"/>
<rect x="1230" y="720.497" width="6" height="6" fill="white"/>
<rect x="1230" y="726.497" width="6" height="6" fill="white"/>
<rect x="1230" y="732.497" width="6" height="6" fill="white"/>
<rect x="1230" y="738.497" width="6" height="6" fill="white"/>
<rect x="1230" y="744.497" width="6" height="6" fill="white"/>
<rect x="1230" y="750.497" width="6" height="6" fill="white"/>
<rect x="1230" y="756.497" width="6" height="6" fill="white"/>
<rect x="1230" y="762.497" width="6" height="6" fill="white"/>
<rect x="1230" y="768.497" width="6" height="6" fill="white"/>
<rect x="1230" y="774.497" width="6" height="6" fill="white"/>
<rect x="1230" y="780.497" width="6" height="6" fill="white"/>
<rect x="42" y="822.497" width="6" height="6" fill="white"/>
<rect x="48" y="822.497" width="6" height="6" fill="white"/>
<rect x="54" y="822.497" width="6" height="6" fill="white"/>
<rect x="60" y="822.497" width="6" height="6" fill="white"/>
<rect x="66" y="822.497" width="6" height="6" fill="white"/>
<rect x="72" y="822.497" width="6" height="6" fill="white"/>
<rect x="78" y="822.497" width="6" height="6" fill="white"/>
<rect x="84" y="822.497" width="6" height="6" fill="white"/>
<rect x="90" y="822.497" width="6" height="6" fill="white"/>
<rect x="96" y="822.497" width="6" height="6" fill="white"/>
<rect x="102" y="822.497" width="6" height="6" fill="white"/>
<rect x="108" y="822.497" width="6" height="6" fill="white"/>
<rect x="114" y="822.497" width="6" height="6" fill="white"/>
<rect x="120" y="822.497" width="6" height="6" fill="white"/>
<rect x="126" y="822.497" width="6" height="6" fill="white"/>
<rect x="132" y="822.497" width="6" height="6" fill="white"/>
<rect x="138" y="822.497" width="6" height="6" fill="white"/>
<rect x="144" y="822.497" width="6" height="6" fill="white"/>
<rect x="150" y="822.497" width="6" height="6" fill="white"/>
<rect x="156" y="822.497" width="6" height="6" fill="white"/>
<rect x="162" y="822.497" width="6" height="6" fill="white"/>
<rect x="168" y="822.497" width="6" height="6" fill="white"/>
<rect x="174" y="822.497" width="6" height="6" fill="white"/>
<rect x="180" y="822.497" width="6" height="6" fill="white"/>
<rect x="186" y="822.497" width="6" height="6" fill="white"/>
<rect x="192" y="822.497" width="6" height="6" fill="white"/>
<rect x="198" y="822.497" width="6" height="6" fill="white"/>
<rect x="204" y="822.497" width="6" height="6" fill="white"/>
<rect x="210" y="822.497" width="6" height="6" fill="white"/>
<rect x="216" y="822.497" width="6" height="6" fill="white"/>
<rect x="222" y="822.497" width="6" height="6" fill="white"/>
<rect x="228" y="822.497" width="6" height="6" fill="white"/>
<rect x="234" y="822.497" width="6" height="6" fill="white"/>
<rect x="240" y="822.497" width="6" height="6" fill="white"/>
<rect x="246" y="822.497" width="6" height="6" fill="white"/>
<rect x="252" y="822.497" width="6" height="6" fill="white"/>
<rect x="258" y="822.497" width="6" height="6" fill="white"/>
<rect x="264" y="822.497" width="6" height="6" fill="white"/>
<rect x="270" y="822.497" width="6" height="6" fill="white"/>
<rect x="276" y="822.497" width="6" height="6" fill="white"/>
<rect x="282" y="822.497" width="6" height="6" fill="white"/>
<rect x="288" y="822.497" width="6" height="6" fill="white"/>
<rect x="294" y="822.497" width="6" height="6" fill="white"/>
<rect x="300" y="822.497" width="6" height="6" fill="white"/>
<rect x="306" y="822.497" width="6" height="6" fill="white"/>
<rect x="312" y="822.497" width="6" height="6" fill="white"/>
<rect x="318" y="822.497" width="6" height="6" fill="white"/>
<rect x="324" y="822.497" width="6" height="6" fill="white"/>
<rect x="330" y="822.497" width="6" height="6" fill="white"/>
<rect x="336" y="822.497" width="6" height="6" fill="white"/>
<rect x="342" y="822.497" width="6" height="6" fill="white"/>
<rect x="348" y="822.497" width="6" height="6" fill="white"/>
<rect x="354" y="822.497" width="6" height="6" fill="white"/>
<rect x="360" y="822.497" width="6" height="6" fill="white"/>
<rect x="366" y="822.497" width="6" height="6" fill="white"/>
<rect x="372" y="822.497" width="6" height="6" fill="white"/>
<rect x="378" y="822.497" width="6" height="6" fill="white"/>
<rect x="384" y="822.497" width="6" height="6" fill="white"/>
<rect x="390" y="822.497" width="6" height="6" fill="white"/>
<rect x="396" y="822.497" width="6" height="6" fill="white"/>
<rect x="402" y="822.497" width="6" height="6" fill="white"/>
<rect x="408" y="822.497" width="6" height="6" fill="white"/>
<rect x="414" y="822.497" width="6" height="6" fill="white"/>
<rect x="420" y="822.497" width="6" height="6" fill="white"/>
<rect x="426" y="822.497" width="6" height="6" fill="white"/>
<rect x="432" y="822.497" width="6" height="6" fill="white"/>
<rect x="438" y="822.497" width="6" height="6" fill="white"/>
<rect x="444" y="822.497" width="6" height="6" fill="white"/>
<rect x="450" y="822.497" width="6" height="6" fill="white"/>
<rect x="456" y="822.497" width="6" height="6" fill="white"/>
<rect x="462" y="822.497" width="6" height="6" fill="white"/>
<rect x="468" y="822.497" width="6" height="6" fill="white"/>
<rect x="474" y="822.497" width="6" height="6" fill="white"/>
<rect x="480" y="822.497" width="6" height="6" fill="white"/>
<rect x="486" y="822.497" width="6" height="6" fill="white"/>
<rect x="492" y="822.497" width="6" height="6" fill="white"/>
<rect x="498" y="822.497" width="6" height="6" fill="white"/>
<rect x="504" y="822.497" width="6" height="6" fill="white"/>
<rect x="510" y="822.497" width="6" height="6" fill="white"/>
<rect x="516" y="822.497" width="6" height="6" fill="white"/>
<rect x="522" y="822.497" width="6" height="6" fill="white"/>
<rect x="528" y="822.497" width="6" height="6" fill="white"/>
<rect x="534" y="822.497" width="6" height="6" fill="white"/>
<rect x="540" y="822.497" width="6" height="6" fill="white"/>
<rect x="546" y="822.497" width="6" height="6" fill="white"/>
<rect x="552" y="822.497" width="6" height="6" fill="white"/>
<rect x="558" y="822.497" width="6" height="6" fill="white"/>
<rect x="564" y="822.497" width="6" height="6" fill="white"/>
<rect x="570" y="822.497" width="6" height="6" fill="white"/>
<rect x="576" y="822.497" width="6" height="6" fill="white"/>
<rect x="582" y="822.497" width="6" height="6" fill="white"/>
<rect x="588" y="822.497" width="6" height="6" fill="white"/>
<rect x="594" y="822.497" width="6" height="6" fill="white"/>
<rect x="600" y="822.497" width="6" height="6" fill="white"/>
<rect x="606" y="822.497" width="6" height="6" fill="white"/>
<rect x="612" y="822.497" width="6" height="6" fill="white"/>
<rect x="618" y="822.497" width="6" height="6" fill="white"/>
<rect x="624" y="822.497" width="6" height="6" fill="white"/>
<rect x="630" y="822.497" width="6" height="6" fill="white"/>
<rect x="636" y="822.497" width="6" height="6" fill="white"/>
<rect x="642" y="822.497" width="6" height="6" fill="white"/>
<rect x="648" y="822.497" width="6" height="6" fill="white"/>
<rect x="654" y="822.497" width="6" height="6" fill="white"/>
<rect x="660" y="822.497" width="6" height="6" fill="white"/>
<rect x="666" y="822.497" width="6" height="6" fill="white"/>
<rect x="672" y="822.497" width="6" height="6" fill="white"/>
<rect x="678" y="822.497" width="6" height="6" fill="white"/>
<rect x="684" y="822.497" width="6" height="6" fill="white"/>
<rect x="690" y="822.497" width="6" height="6" fill="white"/>
<rect x="696" y="822.497" width="6" height="6" fill="white"/>
<rect x="702" y="822.497" width="6" height="6" fill="white"/>
<rect x="708" y="822.497" width="6" height="6" fill="white"/>
<rect x="714" y="822.497" width="6" height="6" fill="white"/>
<rect x="720" y="822.497" width="6" height="6" fill="white"/>
<rect x="726" y="822.497" width="6" height="6" fill="white"/>
<rect x="732" y="822.497" width="6" height="6" fill="white"/>
<rect x="738" y="822.497" width="6" height="6" fill="white"/>
<rect x="744" y="822.497" width="6" height="6" fill="white"/>
<rect x="750" y="822.497" width="6" height="6" fill="white"/>
<rect x="756" y="822.497" width="6" height="6" fill="white"/>
<rect x="762" y="822.497" width="6" height="6" fill="white"/>
<rect x="768" y="822.497" width="6" height="6" fill="white"/>
<rect x="774" y="822.497" width="6" height="6" fill="white"/>
<rect x="780" y="822.497" width="6" height="6" fill="white"/>
<rect x="786" y="822.497" width="6" height="6" fill="white"/>
<rect x="792" y="822.497" width="6" height="6" fill="white"/>
<rect x="798" y="822.497" width="6" height="6" fill="white"/>
<rect x="804" y="822.497" width="6" height="6" fill="white"/>
<rect x="810" y="822.497" width="6" height="6" fill="white"/>
<rect x="816" y="822.497" width="6" height="6" fill="white"/>
<rect x="822" y="822.497" width="6" height="6" fill="white"/>
<rect x="828" y="822.497" width="6" height="6" fill="white"/>
<rect x="834" y="822.497" width="6" height="6" fill="white"/>
<rect x="840" y="822.497" width="6" height="6" fill="white"/>
<rect x="846" y="822.497" width="6" height="6" fill="white"/>
<rect x="852" y="822.497" width="6" height="6" fill="white"/>
<rect x="858" y="822.497" width="6" height="6" fill="white"/>
<rect x="864" y="822.497" width="6" height="6" fill="white"/>
<rect x="870" y="822.497" width="6" height="6" fill="white"/>
<rect x="876" y="822.497" width="6" height="6" fill="white"/>
<rect x="882" y="822.497" width="6" height="6" fill="white"/>
<rect x="888" y="822.497" width="6" height="6" fill="white"/>
<rect x="894" y="822.497" width="6" height="6" fill="white"/>
<rect x="900" y="822.497" width="6" height="6" fill="white"/>
<rect x="906" y="822.497" width="6" height="6" fill="white"/>
<rect x="912" y="822.497" width="6" height="6" fill="white"/>
<rect x="918" y="822.497" width="6" height="6" fill="white"/>
<rect x="924" y="822.497" width="6" height="6" fill="white"/>
<rect x="930" y="822.497" width="6" height="6" fill="white"/>
<rect x="936" y="822.497" width="6" height="6" fill="white"/>
<rect x="942" y="822.497" width="6" height="6" fill="white"/>
<rect x="948" y="822.497" width="6" height="6" fill="white"/>
<rect x="954" y="822.497" width="6" height="6" fill="white"/>
<rect x="960" y="822.497" width="6" height="6" fill="white"/>
<rect x="966" y="822.497" width="6" height="6" fill="white"/>
<rect x="972" y="822.497" width="6" height="6" fill="white"/>
<rect x="978" y="822.497" width="6" height="6" fill="white"/>
<rect x="984" y="822.497" width="6" height="6" fill="white"/>
<rect x="990" y="822.497" width="6" height="6" fill="white"/>
<rect x="996" y="822.497" width="6" height="6" fill="white"/>
<rect x="1002" y="822.497" width="6" height="6" fill="white"/>
<rect x="1008" y="822.497" width="6" height="6" fill="white"/>
<rect x="1014" y="822.497" width="6" height="6" fill="white"/>
<rect x="1020" y="822.497" width="6" height="6" fill="white"/>
<rect x="1026" y="822.497" width="6" height="6" fill="white"/>
<rect x="1032" y="822.497" width="6" height="6" fill="white"/>
<rect x="1038" y="822.497" width="6" height="6" fill="white"/>
<rect x="1044" y="822.497" width="6" height="6" fill="white"/>
<rect x="1050" y="822.497" width="6" height="6" fill="white"/>
<rect x="1056" y="822.497" width="6" height="6" fill="white"/>
<rect x="1062" y="822.497" width="6" height="6" fill="white"/>
<rect x="1068" y="822.497" width="6" height="6" fill="white"/>
<rect x="1074" y="822.497" width="6" height="6" fill="white"/>
<rect x="1080" y="822.497" width="6" height="6" fill="white"/>
<rect x="1086" y="822.497" width="6" height="6" fill="white"/>
<rect x="1092" y="822.497" width="6" height="6" fill="white"/>
<rect x="1098" y="822.497" width="6" height="6" fill="white"/>
<rect x="1104" y="822.497" width="6" height="6" fill="white"/>
<rect x="1110" y="822.497" width="6" height="6" fill="white"/>
<rect x="1116" y="822.497" width="6" height="6" fill="white"/>
<rect x="1122" y="822.497" width="6" height="6" fill="white"/>
<rect x="1128" y="822.497" width="6" height="6" fill="white"/>
<rect x="1134" y="822.497" width="6" height="6" fill="white"/>
<rect x="1140" y="822.497" width="6" height="6" fill="white"/>
<rect x="1146" y="822.497" width="6" height="6" fill="white"/>
<rect x="1152" y="822.497" width="6" height="6" fill="white"/>
<rect x="1158" y="822.497" width="6" height="6" fill="white"/>
<rect x="1164" y="822.497" width="6" height="6" fill="white"/>
<rect x="1170" y="822.497" width="6" height="6" fill="white"/>
<rect x="1176" y="822.497" width="6" height="6" fill="white"/>
<rect x="1182" y="822.497" width="6" height="6" fill="white"/>
<rect x="1188" y="822.497" width="6" height="6" fill="white"/>
<rect y="48.4966" width="6" height="6" fill="white"/>
<rect y="54.4966" width="6" height="6" fill="white"/>
<rect y="60.4966" width="6" height="6" fill="white"/>
<rect y="66.4966" width="6" height="6" fill="white"/>
<rect y="72.4966" width="6" height="6" fill="white"/>
<rect y="78.4966" width="6" height="6" fill="white"/>
<rect y="84.4966" width="6" height="6" fill="white"/>
<rect y="90.4966" width="6" height="6" fill="white"/>
<rect y="96.4966" width="6" height="6" fill="white"/>
<rect y="102.497" width="6" height="6" fill="white"/>
<rect y="108.497" width="6" height="6" fill="white"/>
<rect y="114.497" width="6" height="6" fill="white"/>
<rect y="120.497" width="6" height="6" fill="white"/>
<rect y="126.497" width="6" height="6" fill="white"/>
<rect y="132.497" width="6" height="6" fill="white"/>
<rect y="138.497" width="6" height="6" fill="white"/>
<rect y="144.497" width="6" height="6" fill="white"/>
<rect y="150.497" width="6" height="6" fill="white"/>
<rect y="156.497" width="6" height="6" fill="white"/>
<rect y="162.497" width="6" height="6" fill="white"/>
<rect y="168.497" width="6" height="6" fill="white"/>
<rect y="174.497" width="6" height="6" fill="white"/>
<rect y="180.497" width="6" height="6" fill="white"/>
<rect y="186.497" width="6" height="6" fill="white"/>
<rect y="192.497" width="6" height="6" fill="white"/>
<rect y="198.497" width="6" height="6" fill="white"/>
<rect y="204.497" width="6" height="6" fill="white"/>
<rect y="210.497" width="6" height="6" fill="white"/>
<rect y="216.497" width="6" height="6" fill="white"/>
<rect y="222.497" width="6" height="6" fill="white"/>
<rect y="228.497" width="6" height="6" fill="white"/>
<rect y="234.497" width="6" height="6" fill="white"/>
<rect y="240.497" width="6" height="6" fill="white"/>
<rect y="246.497" width="6" height="6" fill="white"/>
<rect y="252.497" width="6" height="6" fill="white"/>
<rect y="258.497" width="6" height="6" fill="white"/>
<rect y="264.497" width="6" height="6" fill="white"/>
<rect y="270.497" width="6" height="6" fill="white"/>
<rect y="276.497" width="6" height="6" fill="white"/>
<rect y="282.497" width="6" height="6" fill="white"/>
<rect y="288.497" width="6" height="6" fill="white"/>
<rect y="294.497" width="6" height="6" fill="white"/>
<rect y="300.497" width="6" height="6" fill="white"/>
<rect y="306.497" width="6" height="6" fill="white"/>
<rect y="312.497" width="6" height="6" fill="white"/>
<rect y="318.497" width="6" height="6" fill="white"/>
<rect y="324.497" width="6" height="6" fill="white"/>
<rect y="330.497" width="6" height="6" fill="white"/>
<rect y="336.497" width="6" height="6" fill="white"/>
<rect y="342.497" width="6" height="6" fill="white"/>
<rect y="348.497" width="6" height="6" fill="white"/>
<rect y="354.497" width="6" height="6" fill="white"/>
<rect y="360.497" width="6" height="6" fill="white"/>
<rect y="366.497" width="6" height="6" fill="white"/>
<rect y="372.497" width="6" height="6" fill="white"/>
<rect y="378.497" width="6" height="6" fill="white"/>
<rect y="384.497" width="6" height="6" fill="white"/>
<rect y="390.497" width="6" height="6" fill="white"/>
<rect y="396.497" width="6" height="6" fill="white"/>
<rect y="402.497" width="6" height="6" fill="white"/>
<rect y="408.497" width="6" height="6" fill="white"/>
<rect y="414.497" width="6" height="6" fill="white"/>
<rect y="420.497" width="6" height="6" fill="white"/>
<rect y="426.497" width="6" height="6" fill="white"/>
<rect y="432.497" width="6" height="6" fill="white"/>
<rect y="438.497" width="6" height="6" fill="white"/>
<rect y="444.497" width="6" height="6" fill="white"/>
<rect y="450.497" width="6" height="6" fill="white"/>
<rect y="456.497" width="6" height="6" fill="white"/>
<rect y="462.497" width="6" height="6" fill="white"/>
<rect y="468.497" width="6" height="6" fill="white"/>
<rect y="474.497" width="6" height="6" fill="white"/>
<rect y="480.497" width="6" height="6" fill="white"/>
<rect y="486.497" width="6" height="6" fill="white"/>
<rect y="492.497" width="6" height="6" fill="white"/>
<rect y="498.497" width="6" height="6" fill="white"/>
<rect y="504.497" width="6" height="6" fill="white"/>
<rect y="510.497" width="6" height="6" fill="white"/>
<rect y="516.497" width="6" height="6" fill="white"/>
<rect y="522.497" width="6" height="6" fill="white"/>
<rect y="528.497" width="6" height="6" fill="white"/>
<rect y="534.497" width="6" height="6" fill="white"/>
<rect y="540.497" width="6" height="6" fill="white"/>
<rect y="546.497" width="6" height="6" fill="white"/>
<rect y="552.497" width="6" height="6" fill="white"/>
<rect y="558.497" width="6" height="6" fill="white"/>
<rect y="564.497" width="6" height="6" fill="white"/>
<rect y="570.497" width="6" height="6" fill="white"/>
<rect y="576.497" width="6" height="6" fill="white"/>
<rect y="582.497" width="6" height="6" fill="white"/>
<rect y="588.497" width="6" height="6" fill="white"/>
<rect y="594.497" width="6" height="6" fill="white"/>
<rect y="600.497" width="6" height="6" fill="white"/>
<rect y="606.497" width="6" height="6" fill="white"/>
<rect y="612.497" width="6" height="6" fill="white"/>
<rect y="618.497" width="6" height="6" fill="white"/>
<rect y="624.497" width="6" height="6" fill="white"/>
<rect y="630.497" width="6" height="6" fill="white"/>
<rect y="636.497" width="6" height="6" fill="white"/>
<rect y="642.497" width="6" height="6" fill="white"/>
<rect y="648.497" width="6" height="6" fill="white"/>
<rect y="654.497" width="6" height="6" fill="white"/>
<rect y="660.497" width="6" height="6" fill="white"/>
<rect y="666.497" width="6" height="6" fill="white"/>
<rect y="672.497" width="6" height="6" fill="white"/>
<rect y="678.497" width="6" height="6" fill="white"/>
<rect y="684.497" width="6" height="6" fill="white"/>
<rect y="690.497" width="6" height="6" fill="white"/>
<rect y="696.497" width="6" height="6" fill="white"/>
<rect y="702.497" width="6" height="6" fill="white"/>
<rect y="708.497" width="6" height="6" fill="white"/>
<rect y="714.497" width="6" height="6" fill="white"/>
<rect y="720.497" width="6" height="6" fill="white"/>
<rect y="726.497" width="6" height="6" fill="white"/>
<rect y="732.497" width="6" height="6" fill="white"/>
<rect y="738.497" width="6" height="6" fill="white"/>
<rect y="744.497" width="6" height="6" fill="white"/>
<rect y="750.497" width="6" height="6" fill="white"/>
<rect y="756.497" width="6" height="6" fill="white"/>
<rect y="762.497" width="6" height="6" fill="white"/>
<rect y="768.497" width="6" height="6" fill="white"/>
<rect y="774.497" width="6" height="6" fill="white"/>
<rect y="780.497" width="6" height="6" fill="white"/>
<rect y="786.497" width="6" height="6" fill="white"/>
<rect y="792.497" width="6" height="6" fill="white"/>
<rect y="798.497" width="6" height="6" fill="white"/>
<rect x="6" y="804.497" width="6" height="6" fill="white"/>
<rect x="12" y="810.497" width="6" height="6" fill="white"/>
<rect x="18" y="816.497" width="6" height="6" fill="white"/>
<rect x="24" y="816.497" width="6" height="6" fill="white"/>
<rect x="30" y="822.497" width="6" height="6" fill="white"/>
<rect x="36" y="822.497" width="6" height="6" fill="white"/>
<rect x="1230" y="786.497" width="6" height="6" fill="white"/>
<rect x="1230" y="792.497" width="6" height="6" fill="white"/>
<rect x="1224" y="798.497" width="6" height="6" fill="white"/>
<rect x="1224" y="804.497" width="6" height="6" fill="white"/>
<rect x="1218" y="810.497" width="6" height="6" fill="white"/>
<rect x="1206" y="816.497" width="6" height="6" fill="white"/>
<rect x="1194" y="822.497" width="6" height="6" fill="white"/>
<rect x="1200" y="822.497" width="6" height="6" fill="white"/>
<rect x="1212" y="816.497" width="6" height="6" fill="white"/>
<rect x="1206" y="6.49658" width="6" height="6" fill="white"/>
<rect x="1212" y="12.4966" width="6" height="6" fill="white"/>
<rect x="1218" y="18.4966" width="6" height="6" fill="white"/>
<rect x="1224" y="24.4966" width="6" height="6" fill="white"/>
<rect x="1230" y="30.4966" width="6" height="6" fill="white"/>
<rect x="1230" y="36.4966" width="6" height="6" fill="white"/>
<rect x="1230" y="42.4966" width="6" height="6" fill="white"/>
<rect x="1194" y="0.496582" width="6" height="6" fill="white"/>
<rect x="1200" y="6.49658" width="6" height="6" fill="white"/>
<rect x="24" y="6.49658" width="6" height="6" fill="white"/>
<rect x="12" y="12.4966" width="6" height="6" fill="white"/>
<rect x="6" y="18.4966" width="6" height="6" fill="white"/>
<rect x="6" y="24.4966" width="6" height="6" fill="white"/>
<rect y="30.4966" width="6" height="6" fill="white"/>
<rect y="36.4966" width="6" height="6" fill="white"/>
<rect y="42.4966" width="6" height="6" fill="white"/>
<rect x="18" y="6.49658" width="6" height="6" fill="white"/>
<rect x="30" y="6.49658" width="6" height="6" fill="white"/>
<rect x="36" y="0.496582" width="6" height="6" fill="white"/>
</svg>
